  0
SECTION
  2
HEADER
  9
$ANGBASE
  50
0.0
  9
$ANGDIR
  70
1
  9
$MEASUREMENT
  70
0
  0
ENDSEC
  0
SECTION
  2
TABLES
  0
TABLE
  2
LTYPE
  70
4
  0
LTYPE
  5
40F
  2
CONTINUOUS
  70
0
  3
Solid line
  72
65
  73
0
  40
0.0
  0
LTYPE
  5
410
  2
DASHDOT
 70
0
  3
Dash Dot ____ _ ____ _
 72
65
 73
4
 40
2.0
 49
1.25
 49
-0.25
 49
0.25
 49
-0.25
  0
LTYPE
  5
411
  2
DASHED
 70
0
  3
Dashed __ __ __ __ __
 72
65
 73
2
 40
0.75
 49
0.5
 49
-0.25
  0
LTYPE
  5
43B
  2
DOTTED
 70
0
  3
Dotted .  .  .  .
 72
65
 73
2
 40
0.2
 49
0.0
 49
-0.2
  0
ENDTAB
  0
TABLE
  2
STYLE
  70
4
  0
STYLE
  2
KICAD
  70
0
  40
0
  41
1
  42
1
  50
0
  71
0
  3
isocp.shx
  0
STYLE
  2
KICADB
  70
0
  40
0
  41
1
  42
1
  50
0
  71
0
  3
isocp.shx
  0
STYLE
  2
KICADI
  70
0
  40
0
  41
1
  42
1
  50
15
  71
0
  3
isocp.shx
  0
STYLE
  2
KICADBI
  70
0
  40
0
  41
1
  42
1
  50
15
  71
0
  3
isocp.shx
  0
ENDTAB
  0
TABLE
  2
LAYER
  70
1
  0
LAYER
  2
BLACK
  70
0
  62
7
  6
CONTINUOUS
  0
ENDTAB
  0
ENDSEC
  0
SECTION
  2
ENTITIES
0
LINE
8
BLACK
6
CONTINUOUS
10
0.4205096850393701
20
0.5163158661417323
11
0.4338744488188976
21
0.5131483858267717
0
LINE
8
BLACK
6
CONTINUOUS
10
0.4338744488188976
20
0.5131483858267717
11
0.4467811023622047
21
0.5084507086614173
0
LINE
8
BLACK
6
CONTINUOUS
10
0.4467811023622047
20
0.5084507086614173
11
0.4590551574803149
21
0.5022864566929134
0
LINE
8
BLACK
6
CONTINUOUS
10
0.4590551574803149
20
0.5022864566929134
11
0.4705305905511811
21
0.4947389763779527
0
LINE
8
BLACK
6
CONTINUOUS
10
0.4705305905511811
20
0.4947389763779527
11
0.4810522047244095
21
0.4859102755905512
0
LINE
8
BLACK
6
CONTINUOUS
10
0.4810522047244095
20
0.4859102755905512
11
0.490477716535433
21
0.4759198031496063
0
LINE
8
BLACK
6
CONTINUOUS
10
0.490477716535433
20
0.4759198031496063
11
0.49867968503937
21
0.4649026377952756
0
LINE
8
BLACK
6
CONTINUOUS
10
0.49867968503937
20
0.4649026377952756
11
0.5055472047244094
21
0.4530077952755905
0
LINE
8
BLACK
6
CONTINUOUS
10
0.5055472047244094
20
0.4530077952755905
11
0.5109873622047244
21
0.440396062992126
0
LINE
8
BLACK
6
CONTINUOUS
10
0.5109873622047244
20
0.440396062992126
11
0.5149266141732284
21
0.4272381102362204
0
LINE
8
BLACK
6
CONTINUOUS
10
0.5149266141732284
20
0.4272381102362204
11
0.5173116535433071
21
0.4137117716535433
0
LINE
8
BLACK
6
CONTINUOUS
10
0.5173116535433071
20
0.4137117716535433
11
0.5181102755905511
21
0.4
0
LINE
8
BLACK
6
CONTINUOUS
10
0.5181102755905511
20
0.4
11
0.5173116535433071
21
0.3862882283464567
0
LINE
8
BLACK
6
CONTINUOUS
10
0.5173116535433071
20
0.3862882283464567
11
0.5149266141732284
21
0.3727618897637795
0
LINE
8
BLACK
6
CONTINUOUS
10
0.5149266141732284
20
0.3727618897637795
11
0.5109873622047244
21
0.359603937007874
0
LINE
8
BLACK
6
CONTINUOUS
10
0.5109873622047244
20
0.359603937007874
11
0.5055472047244094
21
0.3469922047244094
0
LINE
8
BLACK
6
CONTINUOUS
10
0.5055472047244094
20
0.3469922047244094
11
0.49867968503937
21
0.3350973622047244
0
LINE
8
BLACK
6
CONTINUOUS
10
0.49867968503937
20
0.3350973622047244
11
0.490477716535433
21
0.3240801968503937
0
LINE
8
BLACK
6
CONTINUOUS
10
0.490477716535433
20
0.3240801968503937
11
0.4810522047244095
21
0.3140897244094488
0
LINE
8
BLACK
6
CONTINUOUS
10
0.4810522047244095
20
0.3140897244094488
11
0.4705305905511811
21
0.3052610236220472
0
LINE
8
BLACK
6
CONTINUOUS
10
0.4705305905511811
20
0.3052610236220472
11
0.4590551574803149
21
0.2977135433070866
0
LINE
8
BLACK
6
CONTINUOUS
10
0.4590551574803149
20
0.2977135433070866
11
0.4467811023622047
21
0.2915492913385827
0
LINE
8
BLACK
6
CONTINUOUS
10
0.4467811023622047
20
0.2915492913385827
11
0.4338744488188976
21
0.2868516141732284
0
LINE
8
BLACK
6
CONTINUOUS
10
0.4338744488188976
20
0.2868516141732284
11
0.4205096850393701
21
0.2836841338582677
0
LINE
8
BLACK
6
CONTINUOUS
10
0.4205096850393701
20
0.2836841338582677
11
0.4068675196850394
21
0.2820896062992126
0
LINE
8
BLACK
6
CONTINUOUS
10
0.4068675196850394
20
0.2820896062992126
11
0.3931325590551181
21
0.2820896062992126
0
LINE
8
BLACK
6
CONTINUOUS
10
0.3931325590551181
20
0.2820896062992126
11
0.3794903937007874
21
0.2836841338582677
0
LINE
8
BLACK
6
CONTINUOUS
10
0.3794903937007874
20
0.2836841338582677
11
0.3661256299212599
21
0.2868516141732284
0
LINE
8
BLACK
6
CONTINUOUS
10
0.3661256299212599
20
0.2868516141732284
11
0.3532189763779527
21
0.2915492913385827
0
LINE
8
BLACK
6
CONTINUOUS
10
0.3532189763779527
20
0.2915492913385827
11
0.3409449212598425
21
0.2977135433070866
0
LINE
8
BLACK
6
CONTINUOUS
10
0.3409449212598425
20
0.2977135433070866
11
0.3294694881889764
21
0.3052610236220472
0
LINE
8
BLACK
6
CONTINUOUS
10
0.3294694881889764
20
0.3052610236220472
11
0.318947874015748
21
0.3140897244094488
0
LINE
8
BLACK
6
CONTINUOUS
10
0.318947874015748
20
0.3140897244094488
11
0.3095223622047244
21
0.3240801968503937
0
LINE
8
BLACK
6
CONTINUOUS
10
0.3095223622047244
20
0.3240801968503937
11
0.3013203937007874
21
0.3350973622047244
0
LINE
8
BLACK
6
CONTINUOUS
10
0.3013203937007874
20
0.3350973622047244
11
0.294452874015748
21
0.3469922047244094
0
LINE
8
BLACK
6
CONTINUOUS
10
0.294452874015748
20
0.3469922047244094
11
0.2890127165354331
21
0.359603937007874
0
LINE
8
BLACK
6
CONTINUOUS
10
0.2890127165354331
20
0.359603937007874
11
0.2850734645669291
21
0.3727618897637795
0
LINE
8
BLACK
6
CONTINUOUS
10
0.2850734645669291
20
0.3727618897637795
11
0.2826884251968504
21
0.3862882283464567
0
LINE
8
BLACK
6
CONTINUOUS
10
0.2826884251968504
20
0.3862882283464567
11
0.2818898031496063
21
0.4
0
LINE
8
BLACK
6
CONTINUOUS
10
0.2818898031496063
20
0.4
11
0.2826884251968504
21
0.4137117716535433
0
LINE
8
BLACK
6
CONTINUOUS
10
0.2826884251968504
20
0.4137117716535433
11
0.2850734645669291
21
0.4272381102362204
0
LINE
8
BLACK
6
CONTINUOUS
10
0.2850734645669291
20
0.4272381102362204
11
0.2890127165354331
21
0.440396062992126
0
LINE
8
BLACK
6
CONTINUOUS
10
0.2890127165354331
20
0.440396062992126
11
0.294452874015748
21
0.4530077952755905
0
LINE
8
BLACK
6
CONTINUOUS
10
0.294452874015748
20
0.4530077952755905
11
0.3013203937007874
21
0.4649026377952756
0
LINE
8
BLACK
6
CONTINUOUS
10
0.3013203937007874
20
0.4649026377952756
11
0.3095223622047244
21
0.4759198031496063
0
LINE
8
BLACK
6
CONTINUOUS
10
0.3095223622047244
20
0.4759198031496063
11
0.318947874015748
21
0.4859102755905512
0
LINE
8
BLACK
6
CONTINUOUS
10
0.318947874015748
20
0.4859102755905512
11
0.3294694881889764
21
0.4947389763779527
0
LINE
8
BLACK
6
CONTINUOUS
10
0.3294694881889764
20
0.4947389763779527
11
0.3409449212598425
21
0.5022864566929134
0
LINE
8
BLACK
6
CONTINUOUS
10
0.3409449212598425
20
0.5022864566929134
11
0.3532189763779527
21
0.5084507086614173
0
LINE
8
BLACK
6
CONTINUOUS
10
0.3532189763779527
20
0.5084507086614173
11
0.3661256299212599
21
0.5131483858267717
0
LINE
8
BLACK
6
CONTINUOUS
10
0.3661256299212599
20
0.5131483858267717
11
0.3794903937007874
21
0.5163158661417323
0
LINE
8
BLACK
6
CONTINUOUS
10
0.3794903937007874
20
0.5163158661417323
11
0.3931325590551181
21
0.5179103937007874
0
LINE
8
BLACK
6
CONTINUOUS
10
0.3931325590551181
20
0.5179103937007874
11
0.4068675196850394
21
0.5179103937007874
0
LINE
8
BLACK
6
CONTINUOUS
10
0.4068675196850394
20
0.5179103937007874
11
0.4205096850393701
21
0.5163158661417323
0
LINE
8
BLACK
6
CONTINUOUS
10
1.22050968503937
20
0.5163158661417323
11
1.2338744488188975
21
0.5131483858267717
0
LINE
8
BLACK
6
CONTINUOUS
10
1.2338744488188975
20
0.5131483858267717
11
1.2467811023622046
21
0.5084507086614173
0
LINE
8
BLACK
6
CONTINUOUS
10
1.2467811023622046
20
0.5084507086614173
11
1.2590551574803148
21
0.5022864566929134
0
LINE
8
BLACK
6
CONTINUOUS
10
1.2590551574803148
20
0.5022864566929134
11
1.270530590551181
21
0.4947389763779527
0
LINE
8
BLACK
6
CONTINUOUS
10
1.270530590551181
20
0.4947389763779527
11
1.2810522047244095
21
0.4859102755905512
0
LINE
8
BLACK
6
CONTINUOUS
10
1.2810522047244095
20
0.4859102755905512
11
1.2904777165354331
21
0.4759198031496063
0
LINE
8
BLACK
6
CONTINUOUS
10
1.2904777165354331
20
0.4759198031496063
11
1.29867968503937
21
0.4649026377952756
0
LINE
8
BLACK
6
CONTINUOUS
10
1.29867968503937
20
0.4649026377952756
11
1.3055472047244094
21
0.4530077952755905
0
LINE
8
BLACK
6
CONTINUOUS
10
1.3055472047244094
20
0.4530077952755905
11
1.3109873622047243
21
0.440396062992126
0
LINE
8
BLACK
6
CONTINUOUS
10
1.3109873622047243
20
0.440396062992126
11
1.3149266141732283
21
0.4272381102362204
0
LINE
8
BLACK
6
CONTINUOUS
10
1.3149266141732283
20
0.4272381102362204
11
1.3173116535433071
21
0.4137117716535433
0
LINE
8
BLACK
6
CONTINUOUS
10
1.3173116535433071
20
0.4137117716535433
11
1.3181102755905512
21
0.4
0
LINE
8
BLACK
6
CONTINUOUS
10
1.3181102755905512
20
0.4
11
1.3173116535433071
21
0.3862882283464567
0
LINE
8
BLACK
6
CONTINUOUS
10
1.3173116535433071
20
0.3862882283464567
11
1.3149266141732283
21
0.3727618897637795
0
LINE
8
BLACK
6
CONTINUOUS
10
1.3149266141732283
20
0.3727618897637795
11
1.3109873622047243
21
0.359603937007874
0
LINE
8
BLACK
6
CONTINUOUS
10
1.3109873622047243
20
0.359603937007874
11
1.3055472047244094
21
0.3469922047244094
0
LINE
8
BLACK
6
CONTINUOUS
10
1.3055472047244094
20
0.3469922047244094
11
1.29867968503937
21
0.3350973622047244
0
LINE
8
BLACK
6
CONTINUOUS
10
1.29867968503937
20
0.3350973622047244
11
1.2904777165354331
21
0.3240801968503937
0
LINE
8
BLACK
6
CONTINUOUS
10
1.2904777165354331
20
0.3240801968503937
11
1.2810522047244095
21
0.3140897244094488
0
LINE
8
BLACK
6
CONTINUOUS
10
1.2810522047244095
20
0.3140897244094488
11
1.270530590551181
21
0.3052610236220472
0
LINE
8
BLACK
6
CONTINUOUS
10
1.270530590551181
20
0.3052610236220472
11
1.2590551574803148
21
0.2977135433070866
0
LINE
8
BLACK
6
CONTINUOUS
10
1.2590551574803148
20
0.2977135433070866
11
1.2467811023622046
21
0.2915492913385827
0
LINE
8
BLACK
6
CONTINUOUS
10
1.2467811023622046
20
0.2915492913385827
11
1.2338744488188975
21
0.2868516141732284
0
LINE
8
BLACK
6
CONTINUOUS
10
1.2338744488188975
20
0.2868516141732284
11
1.22050968503937
21
0.2836841338582677
0
LINE
8
BLACK
6
CONTINUOUS
10
1.22050968503937
20
0.2836841338582677
11
1.2068675196850394
21
0.2820896062992126
0
LINE
8
BLACK
6
CONTINUOUS
10
1.2068675196850394
20
0.2820896062992126
11
1.1931325590551181
21
0.2820896062992126
0
LINE
8
BLACK
6
CONTINUOUS
10
1.1931325590551181
20
0.2820896062992126
11
1.1794903937007875
21
0.2836841338582677
0
LINE
8
BLACK
6
CONTINUOUS
10
1.1794903937007875
20
0.2836841338582677
11
1.1661256299212599
21
0.2868516141732284
0
LINE
8
BLACK
6
CONTINUOUS
10
1.1661256299212599
20
0.2868516141732284
11
1.1532189763779528
21
0.2915492913385827
0
LINE
8
BLACK
6
CONTINUOUS
10
1.1532189763779528
20
0.2915492913385827
11
1.1409449212598426
21
0.2977135433070866
0
LINE
8
BLACK
6
CONTINUOUS
10
1.1409449212598426
20
0.2977135433070866
11
1.1294694881889764
21
0.3052610236220472
0
LINE
8
BLACK
6
CONTINUOUS
10
1.1294694881889764
20
0.3052610236220472
11
1.1189478740157479
21
0.3140897244094488
0
LINE
8
BLACK
6
CONTINUOUS
10
1.1189478740157479
20
0.3140897244094488
11
1.1095223622047243
21
0.3240801968503937
0
LINE
8
BLACK
6
CONTINUOUS
10
1.1095223622047243
20
0.3240801968503937
11
1.1013203937007874
21
0.3350973622047244
0
LINE
8
BLACK
6
CONTINUOUS
10
1.1013203937007874
20
0.3350973622047244
11
1.094452874015748
21
0.3469922047244094
0
LINE
8
BLACK
6
CONTINUOUS
10
1.094452874015748
20
0.3469922047244094
11
1.0890127165354331
21
0.359603937007874
0
LINE
8
BLACK
6
CONTINUOUS
10
1.0890127165354331
20
0.359603937007874
11
1.0850734645669291
21
0.3727618897637795
0
LINE
8
BLACK
6
CONTINUOUS
10
1.0850734645669291
20
0.3727618897637795
11
1.0826884251968503
21
0.3862882283464567
0
LINE
8
BLACK
6
CONTINUOUS
10
1.0826884251968503
20
0.3862882283464567
11
1.0818898031496063
21
0.4
0
LINE
8
BLACK
6
CONTINUOUS
10
1.0818898031496063
20
0.4
11
1.0826884251968503
21
0.4137117716535433
0
LINE
8
BLACK
6
CONTINUOUS
10
1.0826884251968503
20
0.4137117716535433
11
1.0850734645669291
21
0.4272381102362204
0
LINE
8
BLACK
6
CONTINUOUS
10
1.0850734645669291
20
0.4272381102362204
11
1.0890127165354331
21
0.440396062992126
0
LINE
8
BLACK
6
CONTINUOUS
10
1.0890127165354331
20
0.440396062992126
11
1.094452874015748
21
0.4530077952755905
0
LINE
8
BLACK
6
CONTINUOUS
10
1.094452874015748
20
0.4530077952755905
11
1.1013203937007874
21
0.4649026377952756
0
LINE
8
BLACK
6
CONTINUOUS
10
1.1013203937007874
20
0.4649026377952756
11
1.1095223622047243
21
0.4759198031496063
0
LINE
8
BLACK
6
CONTINUOUS
10
1.1095223622047243
20
0.4759198031496063
11
1.1189478740157479
21
0.4859102755905512
0
LINE
8
BLACK
6
CONTINUOUS
10
1.1189478740157479
20
0.4859102755905512
11
1.1294694881889764
21
0.4947389763779527
0
LINE
8
BLACK
6
CONTINUOUS
10
1.1294694881889764
20
0.4947389763779527
11
1.1409449212598426
21
0.5022864566929134
0
LINE
8
BLACK
6
CONTINUOUS
10
1.1409449212598426
20
0.5022864566929134
11
1.1532189763779528
21
0.5084507086614173
0
LINE
8
BLACK
6
CONTINUOUS
10
1.1532189763779528
20
0.5084507086614173
11
1.1661256299212599
21
0.5131483858267717
0
LINE
8
BLACK
6
CONTINUOUS
10
1.1661256299212599
20
0.5131483858267717
11
1.1794903937007875
21
0.5163158661417323
0
LINE
8
BLACK
6
CONTINUOUS
10
1.1794903937007875
20
0.5163158661417323
11
1.1931325590551181
21
0.5179103937007874
0
LINE
8
BLACK
6
CONTINUOUS
10
1.1931325590551181
20
0.5179103937007874
11
1.2068675196850394
21
0.5179103937007874
0
LINE
8
BLACK
6
CONTINUOUS
10
1.2068675196850394
20
0.5179103937007874
11
1.22050968503937
21
0.5163158661417323
0
LINE
8
BLACK
6
CONTINUOUS
10
0.6733471259842519
20
0.5401551968503937
11
0.6800042125984251
21
0.5378257874015748
0
LINE
8
BLACK
6
CONTINUOUS
10
0.6800042125984251
20
0.5378257874015748
11
0.685976062992126
21
0.5340734251968504
0
LINE
8
BLACK
6
CONTINUOUS
10
0.685976062992126
20
0.5340734251968504
11
0.690963188976378
21
0.5290862992125984
0
LINE
8
BLACK
6
CONTINUOUS
10
0.690963188976378
20
0.5290862992125984
11
0.6947155511811024
21
0.5231144488188976
0
LINE
8
BLACK
6
CONTINUOUS
10
0.6947155511811024
20
0.5231144488188976
11
0.6970449606299213
21
0.5164573622047244
0
LINE
8
BLACK
6
CONTINUOUS
10
0.6970449606299213
20
0.5164573622047244
11
0.6978346456692913
21
0.5094488188976378
0
LINE
8
BLACK
6
CONTINUOUS
10
0.6978346456692913
20
0.5094488188976378
11
0.6970449606299213
21
0.5024402755905512
0
LINE
8
BLACK
6
CONTINUOUS
10
0.6970449606299213
20
0.5024402755905512
11
0.6947155511811024
21
0.495783188976378
0
LINE
8
BLACK
6
CONTINUOUS
10
0.6947155511811024
20
0.495783188976378
11
0.690963188976378
21
0.4898113385826772
0
LINE
8
BLACK
6
CONTINUOUS
10
0.690963188976378
20
0.4898113385826772
11
0.685976062992126
21
0.4848242125984252
0
LINE
8
BLACK
6
CONTINUOUS
10
0.685976062992126
20
0.4848242125984252
11
0.6800042125984251
21
0.4810718503937008
0
LINE
8
BLACK
6
CONTINUOUS
10
0.6800042125984251
20
0.4810718503937008
11
0.6733471259842519
21
0.4787424409448819
0
LINE
8
BLACK
6
CONTINUOUS
10
0.6733471259842519
20
0.4787424409448819
11
0.6663385826771654
21
0.4779527559055118
0
LINE
8
BLACK
6
CONTINUOUS
10
0.6663385826771654
20
0.4779527559055118
11
0.6387795275590551
21
0.4779527559055118
0
LINE
8
BLACK
6
CONTINUOUS
10
0.6387795275590551
20
0.4779527559055118
11
0.6317709842519685
21
0.4787424409448819
0
LINE
8
BLACK
6
CONTINUOUS
10
0.6317709842519685
20
0.4787424409448819
11
0.6251138976377952
21
0.4810718503937008
0
LINE
8
BLACK
6
CONTINUOUS
10
0.6251138976377952
20
0.4810718503937008
11
0.6191420472440945
21
0.4848242125984252
0
LINE
8
BLACK
6
CONTINUOUS
10
0.6191420472440945
20
0.4848242125984252
11
0.6141549212598425
21
0.4898113385826772
0
LINE
8
BLACK
6
CONTINUOUS
10
0.6141549212598425
20
0.4898113385826772
11
0.6104025590551181
21
0.495783188976378
0
LINE
8
BLACK
6
CONTINUOUS
10
0.6104025590551181
20
0.495783188976378
11
0.6080731496062992
21
0.5024402755905512
0
LINE
8
BLACK
6
CONTINUOUS
10
0.6080731496062992
20
0.5024402755905512
11
0.6072834645669292
21
0.5094488188976378
0
LINE
8
BLACK
6
CONTINUOUS
10
0.6072834645669292
20
0.5094488188976378
11
0.6080731496062992
21
0.5164573622047244
0
LINE
8
BLACK
6
CONTINUOUS
10
0.6080731496062992
20
0.5164573622047244
11
0.6104025590551181
21
0.5231144488188976
0
LINE
8
BLACK
6
CONTINUOUS
10
0.6104025590551181
20
0.5231144488188976
11
0.6141549212598425
21
0.5290862992125984
0
LINE
8
BLACK
6
CONTINUOUS
10
0.6141549212598425
20
0.5290862992125984
11
0.6191420472440945
21
0.5340734251968504
0
LINE
8
BLACK
6
CONTINUOUS
10
0.6191420472440945
20
0.5340734251968504
11
0.6251138976377952
21
0.5378257874015748
0
LINE
8
BLACK
6
CONTINUOUS
10
0.6251138976377952
20
0.5378257874015748
11
0.6317709842519685
21
0.5401551968503937
0
LINE
8
BLACK
6
CONTINUOUS
10
0.6317709842519685
20
0.5401551968503937
11
0.6387795275590551
21
0.5409448818897638
0
LINE
8
BLACK
6
CONTINUOUS
10
0.6387795275590551
20
0.5409448818897638
11
0.6663385826771654
21
0.5409448818897638
0
LINE
8
BLACK
6
CONTINUOUS
10
0.6663385826771654
20
0.5409448818897638
11
0.6733471259842519
21
0.5401551968503937
0
LINE
8
BLACK
6
CONTINUOUS
10
0.973347125984252
20
0.5401551968503937
11
0.9800042125984252
21
0.5378257874015748
0
LINE
8
BLACK
6
CONTINUOUS
10
0.9800042125984252
20
0.5378257874015748
11
0.9859760629921259
21
0.5340734251968504
0
LINE
8
BLACK
6
CONTINUOUS
10
0.9859760629921259
20
0.5340734251968504
11
0.9909631889763779
21
0.5290862992125984
0
LINE
8
BLACK
6
CONTINUOUS
10
0.9909631889763779
20
0.5290862992125984
11
0.9947155511811023
21
0.5231144488188976
0
LINE
8
BLACK
6
CONTINUOUS
10
0.9947155511811023
20
0.5231144488188976
11
0.9970449606299212
21
0.5164573622047244
0
LINE
8
BLACK
6
CONTINUOUS
10
0.9970449606299212
20
0.5164573622047244
11
0.9978346456692914
21
0.5094488188976378
0
LINE
8
BLACK
6
CONTINUOUS
10
0.9978346456692914
20
0.5094488188976378
11
0.9970449606299212
21
0.5024402755905512
0
LINE
8
BLACK
6
CONTINUOUS
10
0.9970449606299212
20
0.5024402755905512
11
0.9947155511811023
21
0.495783188976378
0
LINE
8
BLACK
6
CONTINUOUS
10
0.9947155511811023
20
0.495783188976378
11
0.9909631889763779
21
0.4898113385826772
0
LINE
8
BLACK
6
CONTINUOUS
10
0.9909631889763779
20
0.4898113385826772
11
0.9859760629921259
21
0.4848242125984252
0
LINE
8
BLACK
6
CONTINUOUS
10
0.9859760629921259
20
0.4848242125984252
11
0.9800042125984252
21
0.4810718503937008
0
LINE
8
BLACK
6
CONTINUOUS
10
0.9800042125984252
20
0.4810718503937008
11
0.973347125984252
21
0.4787424409448819
0
LINE
8
BLACK
6
CONTINUOUS
10
0.973347125984252
20
0.4787424409448819
11
0.9663385826771653
21
0.4779527559055118
0
LINE
8
BLACK
6
CONTINUOUS
10
0.9663385826771653
20
0.4779527559055118
11
0.9387795275590551
21
0.4779527559055118
0
LINE
8
BLACK
6
CONTINUOUS
10
0.9387795275590551
20
0.4779527559055118
11
0.9317709842519685
21
0.4787424409448819
0
LINE
8
BLACK
6
CONTINUOUS
10
0.9317709842519685
20
0.4787424409448819
11
0.9251138976377953
21
0.4810718503937008
0
LINE
8
BLACK
6
CONTINUOUS
10
0.9251138976377953
20
0.4810718503937008
11
0.9191420472440944
21
0.4848242125984252
0
LINE
8
BLACK
6
CONTINUOUS
10
0.9191420472440944
20
0.4848242125984252
11
0.9141549212598425
21
0.4898113385826772
0
LINE
8
BLACK
6
CONTINUOUS
10
0.9141549212598425
20
0.4898113385826772
11
0.9104025590551181
21
0.495783188976378
0
LINE
8
BLACK
6
CONTINUOUS
10
0.9104025590551181
20
0.495783188976378
11
0.9080731496062991
21
0.5024402755905512
0
LINE
8
BLACK
6
CONTINUOUS
10
0.9080731496062991
20
0.5024402755905512
11
0.9072834645669291
21
0.5094488188976378
0
LINE
8
BLACK
6
CONTINUOUS
10
0.9072834645669291
20
0.5094488188976378
11
0.9080731496062991
21
0.5164573622047244
0
LINE
8
BLACK
6
CONTINUOUS
10
0.9080731496062991
20
0.5164573622047244
11
0.9104025590551181
21
0.5231144488188976
0
LINE
8
BLACK
6
CONTINUOUS
10
0.9104025590551181
20
0.5231144488188976
11
0.9141549212598425
21
0.5290862992125984
0
LINE
8
BLACK
6
CONTINUOUS
10
0.9141549212598425
20
0.5290862992125984
11
0.9191420472440944
21
0.5340734251968504
0
LINE
8
BLACK
6
CONTINUOUS
10
0.9191420472440944
20
0.5340734251968504
11
0.9251138976377953
21
0.5378257874015748
0
LINE
8
BLACK
6
CONTINUOUS
10
0.9251138976377953
20
0.5378257874015748
11
0.9317709842519685
21
0.5401551968503937
0
LINE
8
BLACK
6
CONTINUOUS
10
0.9317709842519685
20
0.5401551968503937
11
0.9387795275590551
21
0.5409448818897638
0
LINE
8
BLACK
6
CONTINUOUS
10
0.9387795275590551
20
0.5409448818897638
11
0.9663385826771653
21
0.5409448818897638
0
LINE
8
BLACK
6
CONTINUOUS
10
0.9663385826771653
20
0.5409448818897638
11
0.973347125984252
21
0.5401551968503937
0
LINE
8
BLACK
6
CONTINUOUS
10
0.6733471259842519
20
0.6401551968503937
11
0.6800042125984251
21
0.6378257874015748
0
LINE
8
BLACK
6
CONTINUOUS
10
0.6800042125984251
20
0.6378257874015748
11
0.685976062992126
21
0.6340734251968504
0
LINE
8
BLACK
6
CONTINUOUS
10
0.685976062992126
20
0.6340734251968504
11
0.690963188976378
21
0.6290862992125984
0
LINE
8
BLACK
6
CONTINUOUS
10
0.690963188976378
20
0.6290862992125984
11
0.6947155511811024
21
0.6231144488188977
0
LINE
8
BLACK
6
CONTINUOUS
10
0.6947155511811024
20
0.6231144488188977
11
0.6970449606299213
21
0.6164573622047244
0
LINE
8
BLACK
6
CONTINUOUS
10
0.6970449606299213
20
0.6164573622047244
11
0.6978346456692913
21
0.6094488188976378
0
LINE
8
BLACK
6
CONTINUOUS
10
0.6978346456692913
20
0.6094488188976378
11
0.6970449606299213
21
0.6024402755905511
0
LINE
8
BLACK
6
CONTINUOUS
10
0.6970449606299213
20
0.6024402755905511
11
0.6947155511811024
21
0.5957831889763779
0
LINE
8
BLACK
6
CONTINUOUS
10
0.6947155511811024
20
0.5957831889763779
11
0.690963188976378
21
0.5898113385826772
0
LINE
8
BLACK
6
CONTINUOUS
10
0.690963188976378
20
0.5898113385826772
11
0.685976062992126
21
0.5848242125984252
0
LINE
8
BLACK
6
CONTINUOUS
10
0.685976062992126
20
0.5848242125984252
11
0.6800042125984251
21
0.5810718503937008
0
LINE
8
BLACK
6
CONTINUOUS
10
0.6800042125984251
20
0.5810718503937008
11
0.6733471259842519
21
0.5787424409448819
0
LINE
8
BLACK
6
CONTINUOUS
10
0.6733471259842519
20
0.5787424409448819
11
0.6663385826771654
21
0.5779527559055118
0
LINE
8
BLACK
6
CONTINUOUS
10
0.6663385826771654
20
0.5779527559055118
11
0.6387795275590551
21
0.5779527559055118
0
LINE
8
BLACK
6
CONTINUOUS
10
0.6387795275590551
20
0.5779527559055118
11
0.6317709842519685
21
0.5787424409448819
0
LINE
8
BLACK
6
CONTINUOUS
10
0.6317709842519685
20
0.5787424409448819
11
0.6251138976377952
21
0.5810718503937008
0
LINE
8
BLACK
6
CONTINUOUS
10
0.6251138976377952
20
0.5810718503937008
11
0.6191420472440945
21
0.5848242125984252
0
LINE
8
BLACK
6
CONTINUOUS
10
0.6191420472440945
20
0.5848242125984252
11
0.6141549212598425
21
0.5898113385826772
0
LINE
8
BLACK
6
CONTINUOUS
10
0.6141549212598425
20
0.5898113385826772
11
0.6104025590551181
21
0.5957831889763779
0
LINE
8
BLACK
6
CONTINUOUS
10
0.6104025590551181
20
0.5957831889763779
11
0.6080731496062992
21
0.6024402755905511
0
LINE
8
BLACK
6
CONTINUOUS
10
0.6080731496062992
20
0.6024402755905511
11
0.6072834645669292
21
0.6094488188976378
0
LINE
8
BLACK
6
CONTINUOUS
10
0.6072834645669292
20
0.6094488188976378
11
0.6080731496062992
21
0.6164573622047244
0
LINE
8
BLACK
6
CONTINUOUS
10
0.6080731496062992
20
0.6164573622047244
11
0.6104025590551181
21
0.6231144488188977
0
LINE
8
BLACK
6
CONTINUOUS
10
0.6104025590551181
20
0.6231144488188977
11
0.6141549212598425
21
0.6290862992125984
0
LINE
8
BLACK
6
CONTINUOUS
10
0.6141549212598425
20
0.6290862992125984
11
0.6191420472440945
21
0.6340734251968504
0
LINE
8
BLACK
6
CONTINUOUS
10
0.6191420472440945
20
0.6340734251968504
11
0.6251138976377952
21
0.6378257874015748
0
LINE
8
BLACK
6
CONTINUOUS
10
0.6251138976377952
20
0.6378257874015748
11
0.6317709842519685
21
0.6401551968503937
0
LINE
8
BLACK
6
CONTINUOUS
10
0.6317709842519685
20
0.6401551968503937
11
0.6387795275590551
21
0.6409448818897637
0
LINE
8
BLACK
6
CONTINUOUS
10
0.6387795275590551
20
0.6409448818897637
11
0.6663385826771654
21
0.6409448818897637
0
LINE
8
BLACK
6
CONTINUOUS
10
0.6663385826771654
20
0.6409448818897637
11
0.6733471259842519
21
0.6401551968503937
0
LINE
8
BLACK
6
CONTINUOUS
10
0.973347125984252
20
0.6401551968503937
11
0.9800042125984252
21
0.6378257874015748
0
LINE
8
BLACK
6
CONTINUOUS
10
0.9800042125984252
20
0.6378257874015748
11
0.9859760629921259
21
0.6340734251968504
0
LINE
8
BLACK
6
CONTINUOUS
10
0.9859760629921259
20
0.6340734251968504
11
0.9909631889763779
21
0.6290862992125984
0
LINE
8
BLACK
6
CONTINUOUS
10
0.9909631889763779
20
0.6290862992125984
11
0.9947155511811023
21
0.6231144488188977
0
LINE
8
BLACK
6
CONTINUOUS
10
0.9947155511811023
20
0.6231144488188977
11
0.9970449606299212
21
0.6164573622047244
0
LINE
8
BLACK
6
CONTINUOUS
10
0.9970449606299212
20
0.6164573622047244
11
0.9978346456692914
21
0.6094488188976378
0
LINE
8
BLACK
6
CONTINUOUS
10
0.9978346456692914
20
0.6094488188976378
11
0.9970449606299212
21
0.6024402755905511
0
LINE
8
BLACK
6
CONTINUOUS
10
0.9970449606299212
20
0.6024402755905511
11
0.9947155511811023
21
0.5957831889763779
0
LINE
8
BLACK
6
CONTINUOUS
10
0.9947155511811023
20
0.5957831889763779
11
0.9909631889763779
21
0.5898113385826772
0
LINE
8
BLACK
6
CONTINUOUS
10
0.9909631889763779
20
0.5898113385826772
11
0.9859760629921259
21
0.5848242125984252
0
LINE
8
BLACK
6
CONTINUOUS
10
0.9859760629921259
20
0.5848242125984252
11
0.9800042125984252
21
0.5810718503937008
0
LINE
8
BLACK
6
CONTINUOUS
10
0.9800042125984252
20
0.5810718503937008
11
0.973347125984252
21
0.5787424409448819
0
LINE
8
BLACK
6
CONTINUOUS
10
0.973347125984252
20
0.5787424409448819
11
0.9663385826771653
21
0.5779527559055118
0
LINE
8
BLACK
6
CONTINUOUS
10
0.9663385826771653
20
0.5779527559055118
11
0.9387795275590551
21
0.5779527559055118
0
LINE
8
BLACK
6
CONTINUOUS
10
0.9387795275590551
20
0.5779527559055118
11
0.9317709842519685
21
0.5787424409448819
0
LINE
8
BLACK
6
CONTINUOUS
10
0.9317709842519685
20
0.5787424409448819
11
0.9251138976377953
21
0.5810718503937008
0
LINE
8
BLACK
6
CONTINUOUS
10
0.9251138976377953
20
0.5810718503937008
11
0.9191420472440944
21
0.5848242125984252
0
LINE
8
BLACK
6
CONTINUOUS
10
0.9191420472440944
20
0.5848242125984252
11
0.9141549212598425
21
0.5898113385826772
0
LINE
8
BLACK
6
CONTINUOUS
10
0.9141549212598425
20
0.5898113385826772
11
0.9104025590551181
21
0.5957831889763779
0
LINE
8
BLACK
6
CONTINUOUS
10
0.9104025590551181
20
0.5957831889763779
11
0.9080731496062991
21
0.6024402755905511
0
LINE
8
BLACK
6
CONTINUOUS
10
0.9080731496062991
20
0.6024402755905511
11
0.9072834645669291
21
0.6094488188976378
0
LINE
8
BLACK
6
CONTINUOUS
10
0.9072834645669291
20
0.6094488188976378
11
0.9080731496062991
21
0.6164573622047244
0
LINE
8
BLACK
6
CONTINUOUS
10
0.9080731496062991
20
0.6164573622047244
11
0.9104025590551181
21
0.6231144488188977
0
LINE
8
BLACK
6
CONTINUOUS
10
0.9104025590551181
20
0.6231144488188977
11
0.9141549212598425
21
0.6290862992125984
0
LINE
8
BLACK
6
CONTINUOUS
10
0.9141549212598425
20
0.6290862992125984
11
0.9191420472440944
21
0.6340734251968504
0
LINE
8
BLACK
6
CONTINUOUS
10
0.9191420472440944
20
0.6340734251968504
11
0.9251138976377953
21
0.6378257874015748
0
LINE
8
BLACK
6
CONTINUOUS
10
0.9251138976377953
20
0.6378257874015748
11
0.9317709842519685
21
0.6401551968503937
0
LINE
8
BLACK
6
CONTINUOUS
10
0.9317709842519685
20
0.6401551968503937
11
0.9387795275590551
21
0.6409448818897637
0
LINE
8
BLACK
6
CONTINUOUS
10
0.9387795275590551
20
0.6409448818897637
11
0.9663385826771653
21
0.6409448818897637
0
LINE
8
BLACK
6
CONTINUOUS
10
0.9663385826771653
20
0.6409448818897637
11
0.973347125984252
21
0.6401551968503937
0
LINE
8
BLACK
6
CONTINUOUS
10
0.385511811023622
20
0.5865354330708661
11
0.325511811023622
21
0.5865354330708661
0
LINE
8
BLACK
6
CONTINUOUS
10
0.325511811023622
20
0.5865354330708661
11
0.325511811023622
21
0.6465354330708661
0
LINE
8
BLACK
6
CONTINUOUS
10
0.325511811023622
20
0.6465354330708661
11
0.385511811023622
21
0.6465354330708661
0
LINE
8
BLACK
6
CONTINUOUS
10
0.385511811023622
20
0.6465354330708661
11
0.385511811023622
21
0.5865354330708661
0
LINE
8
BLACK
6
CONTINUOUS
10
0.485511811023622
20
0.5865354330708661
11
0.425511811023622
21
0.5865354330708661
0
LINE
8
BLACK
6
CONTINUOUS
10
0.425511811023622
20
0.5865354330708661
11
0.425511811023622
21
0.6465354330708661
0
LINE
8
BLACK
6
CONTINUOUS
10
0.425511811023622
20
0.6465354330708661
11
0.485511811023622
21
0.6465354330708661
0
LINE
8
BLACK
6
CONTINUOUS
10
0.485511811023622
20
0.6465354330708661
11
0.485511811023622
21
0.5865354330708661
0
LINE
8
BLACK
6
CONTINUOUS
10
1.184724409448819
20
0.5865354330708661
11
1.1247244094488189
21
0.5865354330708661
0
LINE
8
BLACK
6
CONTINUOUS
10
1.1247244094488189
20
0.5865354330708661
11
1.1247244094488189
21
0.6465354330708661
0
LINE
8
BLACK
6
CONTINUOUS
10
1.1247244094488189
20
0.6465354330708661
11
1.184724409448819
21
0.6465354330708661
0
LINE
8
BLACK
6
CONTINUOUS
10
1.184724409448819
20
0.6465354330708661
11
1.184724409448819
21
0.5865354330708661
0
LINE
8
BLACK
6
CONTINUOUS
10
1.2847244094488188
20
0.5865354330708661
11
1.2247244094488188
21
0.5865354330708661
0
LINE
8
BLACK
6
CONTINUOUS
10
1.2247244094488188
20
0.5865354330708661
11
1.2247244094488188
21
0.6465354330708661
0
LINE
8
BLACK
6
CONTINUOUS
10
1.2247244094488188
20
0.6465354330708661
11
1.2847244094488188
21
0.6465354330708661
0
LINE
8
BLACK
6
CONTINUOUS
10
1.2847244094488188
20
0.6465354330708661
11
1.2847244094488188
21
0.5865354330708661
0
LINE
8
BLACK
6
CONTINUOUS
10
0.6733471259842519
20
0.7401551968503937
11
0.6800042125984251
21
0.7378257874015748
0
LINE
8
BLACK
6
CONTINUOUS
10
0.6800042125984251
20
0.7378257874015748
11
0.685976062992126
21
0.7340734251968504
0
LINE
8
BLACK
6
CONTINUOUS
10
0.685976062992126
20
0.7340734251968504
11
0.690963188976378
21
0.7290862992125984
0
LINE
8
BLACK
6
CONTINUOUS
10
0.690963188976378
20
0.7290862992125984
11
0.6947155511811024
21
0.7231144488188976
0
LINE
8
BLACK
6
CONTINUOUS
10
0.6947155511811024
20
0.7231144488188976
11
0.6970449606299213
21
0.7164573622047244
0
LINE
8
BLACK
6
CONTINUOUS
10
0.6970449606299213
20
0.7164573622047244
11
0.6978346456692913
21
0.7094488188976378
0
LINE
8
BLACK
6
CONTINUOUS
10
0.6978346456692913
20
0.7094488188976378
11
0.6970449606299213
21
0.7024402755905511
0
LINE
8
BLACK
6
CONTINUOUS
10
0.6970449606299213
20
0.7024402755905511
11
0.6947155511811024
21
0.6957831889763779
0
LINE
8
BLACK
6
CONTINUOUS
10
0.6947155511811024
20
0.6957831889763779
11
0.690963188976378
21
0.6898113385826772
0
LINE
8
BLACK
6
CONTINUOUS
10
0.690963188976378
20
0.6898113385826772
11
0.685976062992126
21
0.6848242125984252
0
LINE
8
BLACK
6
CONTINUOUS
10
0.685976062992126
20
0.6848242125984252
11
0.6800042125984251
21
0.6810718503937008
0
LINE
8
BLACK
6
CONTINUOUS
10
0.6800042125984251
20
0.6810718503937008
11
0.6733471259842519
21
0.6787424409448819
0
LINE
8
BLACK
6
CONTINUOUS
10
0.6733471259842519
20
0.6787424409448819
11
0.6663385826771654
21
0.6779527559055119
0
LINE
8
BLACK
6
CONTINUOUS
10
0.6663385826771654
20
0.6779527559055119
11
0.6387795275590551
21
0.6779527559055119
0
LINE
8
BLACK
6
CONTINUOUS
10
0.6387795275590551
20
0.6779527559055119
11
0.6317709842519685
21
0.6787424409448819
0
LINE
8
BLACK
6
CONTINUOUS
10
0.6317709842519685
20
0.6787424409448819
11
0.6251138976377952
21
0.6810718503937008
0
LINE
8
BLACK
6
CONTINUOUS
10
0.6251138976377952
20
0.6810718503937008
11
0.6191420472440945
21
0.6848242125984252
0
LINE
8
BLACK
6
CONTINUOUS
10
0.6191420472440945
20
0.6848242125984252
11
0.6141549212598425
21
0.6898113385826772
0
LINE
8
BLACK
6
CONTINUOUS
10
0.6141549212598425
20
0.6898113385826772
11
0.6104025590551181
21
0.6957831889763779
0
LINE
8
BLACK
6
CONTINUOUS
10
0.6104025590551181
20
0.6957831889763779
11
0.6080731496062992
21
0.7024402755905511
0
LINE
8
BLACK
6
CONTINUOUS
10
0.6080731496062992
20
0.7024402755905511
11
0.6072834645669292
21
0.7094488188976378
0
LINE
8
BLACK
6
CONTINUOUS
10
0.6072834645669292
20
0.7094488188976378
11
0.6080731496062992
21
0.7164573622047244
0
LINE
8
BLACK
6
CONTINUOUS
10
0.6080731496062992
20
0.7164573622047244
11
0.6104025590551181
21
0.7231144488188976
0
LINE
8
BLACK
6
CONTINUOUS
10
0.6104025590551181
20
0.7231144488188976
11
0.6141549212598425
21
0.7290862992125984
0
LINE
8
BLACK
6
CONTINUOUS
10
0.6141549212598425
20
0.7290862992125984
11
0.6191420472440945
21
0.7340734251968504
0
LINE
8
BLACK
6
CONTINUOUS
10
0.6191420472440945
20
0.7340734251968504
11
0.6251138976377952
21
0.7378257874015748
0
LINE
8
BLACK
6
CONTINUOUS
10
0.6251138976377952
20
0.7378257874015748
11
0.6317709842519685
21
0.7401551968503937
0
LINE
8
BLACK
6
CONTINUOUS
10
0.6317709842519685
20
0.7401551968503937
11
0.6387795275590551
21
0.7409448818897638
0
LINE
8
BLACK
6
CONTINUOUS
10
0.6387795275590551
20
0.7409448818897638
11
0.6663385826771654
21
0.7409448818897638
0
LINE
8
BLACK
6
CONTINUOUS
10
0.6663385826771654
20
0.7409448818897638
11
0.6733471259842519
21
0.7401551968503937
0
LINE
8
BLACK
6
CONTINUOUS
10
0.973347125984252
20
0.7401551968503937
11
0.9800042125984252
21
0.7378257874015748
0
LINE
8
BLACK
6
CONTINUOUS
10
0.9800042125984252
20
0.7378257874015748
11
0.9859760629921259
21
0.7340734251968504
0
LINE
8
BLACK
6
CONTINUOUS
10
0.9859760629921259
20
0.7340734251968504
11
0.9909631889763779
21
0.7290862992125984
0
LINE
8
BLACK
6
CONTINUOUS
10
0.9909631889763779
20
0.7290862992125984
11
0.9947155511811023
21
0.7231144488188976
0
LINE
8
BLACK
6
CONTINUOUS
10
0.9947155511811023
20
0.7231144488188976
11
0.9970449606299212
21
0.7164573622047244
0
LINE
8
BLACK
6
CONTINUOUS
10
0.9970449606299212
20
0.7164573622047244
11
0.9978346456692914
21
0.7094488188976378
0
LINE
8
BLACK
6
CONTINUOUS
10
0.9978346456692914
20
0.7094488188976378
11
0.9970449606299212
21
0.7024402755905511
0
LINE
8
BLACK
6
CONTINUOUS
10
0.9970449606299212
20
0.7024402755905511
11
0.9947155511811023
21
0.6957831889763779
0
LINE
8
BLACK
6
CONTINUOUS
10
0.9947155511811023
20
0.6957831889763779
11
0.9909631889763779
21
0.6898113385826772
0
LINE
8
BLACK
6
CONTINUOUS
10
0.9909631889763779
20
0.6898113385826772
11
0.9859760629921259
21
0.6848242125984252
0
LINE
8
BLACK
6
CONTINUOUS
10
0.9859760629921259
20
0.6848242125984252
11
0.9800042125984252
21
0.6810718503937008
0
LINE
8
BLACK
6
CONTINUOUS
10
0.9800042125984252
20
0.6810718503937008
11
0.973347125984252
21
0.6787424409448819
0
LINE
8
BLACK
6
CONTINUOUS
10
0.973347125984252
20
0.6787424409448819
11
0.9663385826771653
21
0.6779527559055119
0
LINE
8
BLACK
6
CONTINUOUS
10
0.9663385826771653
20
0.6779527559055119
11
0.9387795275590551
21
0.6779527559055119
0
LINE
8
BLACK
6
CONTINUOUS
10
0.9387795275590551
20
0.6779527559055119
11
0.9317709842519685
21
0.6787424409448819
0
LINE
8
BLACK
6
CONTINUOUS
10
0.9317709842519685
20
0.6787424409448819
11
0.9251138976377953
21
0.6810718503937008
0
LINE
8
BLACK
6
CONTINUOUS
10
0.9251138976377953
20
0.6810718503937008
11
0.9191420472440944
21
0.6848242125984252
0
LINE
8
BLACK
6
CONTINUOUS
10
0.9191420472440944
20
0.6848242125984252
11
0.9141549212598425
21
0.6898113385826772
0
LINE
8
BLACK
6
CONTINUOUS
10
0.9141549212598425
20
0.6898113385826772
11
0.9104025590551181
21
0.6957831889763779
0
LINE
8
BLACK
6
CONTINUOUS
10
0.9104025590551181
20
0.6957831889763779
11
0.9080731496062991
21
0.7024402755905511
0
LINE
8
BLACK
6
CONTINUOUS
10
0.9080731496062991
20
0.7024402755905511
11
0.9072834645669291
21
0.7094488188976378
0
LINE
8
BLACK
6
CONTINUOUS
10
0.9072834645669291
20
0.7094488188976378
11
0.9080731496062991
21
0.7164573622047244
0
LINE
8
BLACK
6
CONTINUOUS
10
0.9080731496062991
20
0.7164573622047244
11
0.9104025590551181
21
0.7231144488188976
0
LINE
8
BLACK
6
CONTINUOUS
10
0.9104025590551181
20
0.7231144488188976
11
0.9141549212598425
21
0.7290862992125984
0
LINE
8
BLACK
6
CONTINUOUS
10
0.9141549212598425
20
0.7290862992125984
11
0.9191420472440944
21
0.7340734251968504
0
LINE
8
BLACK
6
CONTINUOUS
10
0.9191420472440944
20
0.7340734251968504
11
0.9251138976377953
21
0.7378257874015748
0
LINE
8
BLACK
6
CONTINUOUS
10
0.9251138976377953
20
0.7378257874015748
11
0.9317709842519685
21
0.7401551968503937
0
LINE
8
BLACK
6
CONTINUOUS
10
0.9317709842519685
20
0.7401551968503937
11
0.9387795275590551
21
0.7409448818897638
0
LINE
8
BLACK
6
CONTINUOUS
10
0.9387795275590551
20
0.7409448818897638
11
0.9663385826771653
21
0.7409448818897638
0
LINE
8
BLACK
6
CONTINUOUS
10
0.9663385826771653
20
0.7409448818897638
11
0.973347125984252
21
0.7401551968503937
0
LINE
8
BLACK
6
CONTINUOUS
10
0.385511811023622
20
0.6865354330708662
11
0.325511811023622
21
0.6865354330708662
0
LINE
8
BLACK
6
CONTINUOUS
10
0.325511811023622
20
0.6865354330708662
11
0.325511811023622
21
0.7465354330708661
0
LINE
8
BLACK
6
CONTINUOUS
10
0.325511811023622
20
0.7465354330708661
11
0.385511811023622
21
0.7465354330708661
0
LINE
8
BLACK
6
CONTINUOUS
10
0.385511811023622
20
0.7465354330708661
11
0.385511811023622
21
0.6865354330708662
0
LINE
8
BLACK
6
CONTINUOUS
10
0.485511811023622
20
0.6865354330708662
11
0.425511811023622
21
0.6865354330708662
0
LINE
8
BLACK
6
CONTINUOUS
10
0.425511811023622
20
0.6865354330708662
11
0.425511811023622
21
0.7465354330708661
0
LINE
8
BLACK
6
CONTINUOUS
10
0.425511811023622
20
0.7465354330708661
11
0.485511811023622
21
0.7465354330708661
0
LINE
8
BLACK
6
CONTINUOUS
10
0.485511811023622
20
0.7465354330708661
11
0.485511811023622
21
0.6865354330708662
0
LINE
8
BLACK
6
CONTINUOUS
10
1.184724409448819
20
0.6865354330708662
11
1.1247244094488189
21
0.6865354330708662
0
LINE
8
BLACK
6
CONTINUOUS
10
1.1247244094488189
20
0.6865354330708662
11
1.1247244094488189
21
0.7465354330708661
0
LINE
8
BLACK
6
CONTINUOUS
10
1.1247244094488189
20
0.7465354330708661
11
1.184724409448819
21
0.7465354330708661
0
LINE
8
BLACK
6
CONTINUOUS
10
1.184724409448819
20
0.7465354330708661
11
1.184724409448819
21
0.6865354330708662
0
LINE
8
BLACK
6
CONTINUOUS
10
1.2847244094488188
20
0.6865354330708662
11
1.2247244094488188
21
0.6865354330708662
0
LINE
8
BLACK
6
CONTINUOUS
10
1.2247244094488188
20
0.6865354330708662
11
1.2247244094488188
21
0.7465354330708661
0
LINE
8
BLACK
6
CONTINUOUS
10
1.2247244094488188
20
0.7465354330708661
11
1.2847244094488188
21
0.7465354330708661
0
LINE
8
BLACK
6
CONTINUOUS
10
1.2847244094488188
20
0.7465354330708661
11
1.2847244094488188
21
0.6865354330708662
0
LINE
8
BLACK
6
CONTINUOUS
10
0.6733471259842519
20
0.8401551968503936
11
0.6800042125984251
21
0.8378257874015748
0
LINE
8
BLACK
6
CONTINUOUS
10
0.6800042125984251
20
0.8378257874015748
11
0.685976062992126
21
0.8340734251968503
0
LINE
8
BLACK
6
CONTINUOUS
10
0.685976062992126
20
0.8340734251968503
11
0.690963188976378
21
0.8290862992125984
0
LINE
8
BLACK
6
CONTINUOUS
10
0.690963188976378
20
0.8290862992125984
11
0.6947155511811024
21
0.8231144488188976
0
LINE
8
BLACK
6
CONTINUOUS
10
0.6947155511811024
20
0.8231144488188976
11
0.6970449606299213
21
0.8164573622047244
0
LINE
8
BLACK
6
CONTINUOUS
10
0.6970449606299213
20
0.8164573622047244
11
0.6978346456692913
21
0.8094488188976378
0
LINE
8
BLACK
6
CONTINUOUS
10
0.6978346456692913
20
0.8094488188976378
11
0.6970449606299213
21
0.8024402755905512
0
LINE
8
BLACK
6
CONTINUOUS
10
0.6970449606299213
20
0.8024402755905512
11
0.6947155511811024
21
0.7957831889763779
0
LINE
8
BLACK
6
CONTINUOUS
10
0.6947155511811024
20
0.7957831889763779
11
0.690963188976378
21
0.7898113385826772
0
LINE
8
BLACK
6
CONTINUOUS
10
0.690963188976378
20
0.7898113385826772
11
0.685976062992126
21
0.7848242125984252
0
LINE
8
BLACK
6
CONTINUOUS
10
0.685976062992126
20
0.7848242125984252
11
0.6800042125984251
21
0.7810718503937008
0
LINE
8
BLACK
6
CONTINUOUS
10
0.6800042125984251
20
0.7810718503937008
11
0.6733471259842519
21
0.7787424409448819
0
LINE
8
BLACK
6
CONTINUOUS
10
0.6733471259842519
20
0.7787424409448819
11
0.6663385826771654
21
0.7779527559055118
0
LINE
8
BLACK
6
CONTINUOUS
10
0.6663385826771654
20
0.7779527559055118
11
0.6387795275590551
21
0.7779527559055118
0
LINE
8
BLACK
6
CONTINUOUS
10
0.6387795275590551
20
0.7779527559055118
11
0.6317709842519685
21
0.7787424409448819
0
LINE
8
BLACK
6
CONTINUOUS
10
0.6317709842519685
20
0.7787424409448819
11
0.6251138976377952
21
0.7810718503937008
0
LINE
8
BLACK
6
CONTINUOUS
10
0.6251138976377952
20
0.7810718503937008
11
0.6191420472440945
21
0.7848242125984252
0
LINE
8
BLACK
6
CONTINUOUS
10
0.6191420472440945
20
0.7848242125984252
11
0.6141549212598425
21
0.7898113385826772
0
LINE
8
BLACK
6
CONTINUOUS
10
0.6141549212598425
20
0.7898113385826772
11
0.6104025590551181
21
0.7957831889763779
0
LINE
8
BLACK
6
CONTINUOUS
10
0.6104025590551181
20
0.7957831889763779
11
0.6080731496062992
21
0.8024402755905512
0
LINE
8
BLACK
6
CONTINUOUS
10
0.6080731496062992
20
0.8024402755905512
11
0.6072834645669292
21
0.8094488188976378
0
LINE
8
BLACK
6
CONTINUOUS
10
0.6072834645669292
20
0.8094488188976378
11
0.6080731496062992
21
0.8164573622047244
0
LINE
8
BLACK
6
CONTINUOUS
10
0.6080731496062992
20
0.8164573622047244
11
0.6104025590551181
21
0.8231144488188976
0
LINE
8
BLACK
6
CONTINUOUS
10
0.6104025590551181
20
0.8231144488188976
11
0.6141549212598425
21
0.8290862992125984
0
LINE
8
BLACK
6
CONTINUOUS
10
0.6141549212598425
20
0.8290862992125984
11
0.6191420472440945
21
0.8340734251968503
0
LINE
8
BLACK
6
CONTINUOUS
10
0.6191420472440945
20
0.8340734251968503
11
0.6251138976377952
21
0.8378257874015748
0
LINE
8
BLACK
6
CONTINUOUS
10
0.6251138976377952
20
0.8378257874015748
11
0.6317709842519685
21
0.8401551968503936
0
LINE
8
BLACK
6
CONTINUOUS
10
0.6317709842519685
20
0.8401551968503936
11
0.6387795275590551
21
0.8409448818897638
0
LINE
8
BLACK
6
CONTINUOUS
10
0.6387795275590551
20
0.8409448818897638
11
0.6663385826771654
21
0.8409448818897638
0
LINE
8
BLACK
6
CONTINUOUS
10
0.6663385826771654
20
0.8409448818897638
11
0.6733471259842519
21
0.8401551968503936
0
LINE
8
BLACK
6
CONTINUOUS
10
0.973347125984252
20
0.8401551968503936
11
0.9800042125984252
21
0.8378257874015748
0
LINE
8
BLACK
6
CONTINUOUS
10
0.9800042125984252
20
0.8378257874015748
11
0.9859760629921259
21
0.8340734251968503
0
LINE
8
BLACK
6
CONTINUOUS
10
0.9859760629921259
20
0.8340734251968503
11
0.9909631889763779
21
0.8290862992125984
0
LINE
8
BLACK
6
CONTINUOUS
10
0.9909631889763779
20
0.8290862992125984
11
0.9947155511811023
21
0.8231144488188976
0
LINE
8
BLACK
6
CONTINUOUS
10
0.9947155511811023
20
0.8231144488188976
11
0.9970449606299212
21
0.8164573622047244
0
LINE
8
BLACK
6
CONTINUOUS
10
0.9970449606299212
20
0.8164573622047244
11
0.9978346456692914
21
0.8094488188976378
0
LINE
8
BLACK
6
CONTINUOUS
10
0.9978346456692914
20
0.8094488188976378
11
0.9970449606299212
21
0.8024402755905512
0
LINE
8
BLACK
6
CONTINUOUS
10
0.9970449606299212
20
0.8024402755905512
11
0.9947155511811023
21
0.7957831889763779
0
LINE
8
BLACK
6
CONTINUOUS
10
0.9947155511811023
20
0.7957831889763779
11
0.9909631889763779
21
0.7898113385826772
0
LINE
8
BLACK
6
CONTINUOUS
10
0.9909631889763779
20
0.7898113385826772
11
0.9859760629921259
21
0.7848242125984252
0
LINE
8
BLACK
6
CONTINUOUS
10
0.9859760629921259
20
0.7848242125984252
11
0.9800042125984252
21
0.7810718503937008
0
LINE
8
BLACK
6
CONTINUOUS
10
0.9800042125984252
20
0.7810718503937008
11
0.973347125984252
21
0.7787424409448819
0
LINE
8
BLACK
6
CONTINUOUS
10
0.973347125984252
20
0.7787424409448819
11
0.9663385826771653
21
0.7779527559055118
0
LINE
8
BLACK
6
CONTINUOUS
10
0.9663385826771653
20
0.7779527559055118
11
0.9387795275590551
21
0.7779527559055118
0
LINE
8
BLACK
6
CONTINUOUS
10
0.9387795275590551
20
0.7779527559055118
11
0.9317709842519685
21
0.7787424409448819
0
LINE
8
BLACK
6
CONTINUOUS
10
0.9317709842519685
20
0.7787424409448819
11
0.9251138976377953
21
0.7810718503937008
0
LINE
8
BLACK
6
CONTINUOUS
10
0.9251138976377953
20
0.7810718503937008
11
0.9191420472440944
21
0.7848242125984252
0
LINE
8
BLACK
6
CONTINUOUS
10
0.9191420472440944
20
0.7848242125984252
11
0.9141549212598425
21
0.7898113385826772
0
LINE
8
BLACK
6
CONTINUOUS
10
0.9141549212598425
20
0.7898113385826772
11
0.9104025590551181
21
0.7957831889763779
0
LINE
8
BLACK
6
CONTINUOUS
10
0.9104025590551181
20
0.7957831889763779
11
0.9080731496062991
21
0.8024402755905512
0
LINE
8
BLACK
6
CONTINUOUS
10
0.9080731496062991
20
0.8024402755905512
11
0.9072834645669291
21
0.8094488188976378
0
LINE
8
BLACK
6
CONTINUOUS
10
0.9072834645669291
20
0.8094488188976378
11
0.9080731496062991
21
0.8164573622047244
0
LINE
8
BLACK
6
CONTINUOUS
10
0.9080731496062991
20
0.8164573622047244
11
0.9104025590551181
21
0.8231144488188976
0
LINE
8
BLACK
6
CONTINUOUS
10
0.9104025590551181
20
0.8231144488188976
11
0.9141549212598425
21
0.8290862992125984
0
LINE
8
BLACK
6
CONTINUOUS
10
0.9141549212598425
20
0.8290862992125984
11
0.9191420472440944
21
0.8340734251968503
0
LINE
8
BLACK
6
CONTINUOUS
10
0.9191420472440944
20
0.8340734251968503
11
0.9251138976377953
21
0.8378257874015748
0
LINE
8
BLACK
6
CONTINUOUS
10
0.9251138976377953
20
0.8378257874015748
11
0.9317709842519685
21
0.8401551968503936
0
LINE
8
BLACK
6
CONTINUOUS
10
0.9317709842519685
20
0.8401551968503936
11
0.9387795275590551
21
0.8409448818897638
0
LINE
8
BLACK
6
CONTINUOUS
10
0.9387795275590551
20
0.8409448818897638
11
0.9663385826771653
21
0.8409448818897638
0
LINE
8
BLACK
6
CONTINUOUS
10
0.9663385826771653
20
0.8409448818897638
11
0.973347125984252
21
0.8401551968503936
0
LINE
8
BLACK
6
CONTINUOUS
10
0.385511811023622
20
0.7865354330708662
11
0.325511811023622
21
0.7865354330708662
0
LINE
8
BLACK
6
CONTINUOUS
10
0.325511811023622
20
0.7865354330708662
11
0.325511811023622
21
0.8465354330708661
0
LINE
8
BLACK
6
CONTINUOUS
10
0.325511811023622
20
0.8465354330708661
11
0.385511811023622
21
0.8465354330708661
0
LINE
8
BLACK
6
CONTINUOUS
10
0.385511811023622
20
0.8465354330708661
11
0.385511811023622
21
0.7865354330708662
0
LINE
8
BLACK
6
CONTINUOUS
10
0.485511811023622
20
0.7865354330708662
11
0.425511811023622
21
0.7865354330708662
0
LINE
8
BLACK
6
CONTINUOUS
10
0.425511811023622
20
0.7865354330708662
11
0.425511811023622
21
0.8465354330708661
0
LINE
8
BLACK
6
CONTINUOUS
10
0.425511811023622
20
0.8465354330708661
11
0.485511811023622
21
0.8465354330708661
0
LINE
8
BLACK
6
CONTINUOUS
10
0.485511811023622
20
0.8465354330708661
11
0.485511811023622
21
0.7865354330708662
0
LINE
8
BLACK
6
CONTINUOUS
10
1.184724409448819
20
0.7865354330708662
11
1.1247244094488189
21
0.7865354330708662
0
LINE
8
BLACK
6
CONTINUOUS
10
1.1247244094488189
20
0.7865354330708662
11
1.1247244094488189
21
0.8465354330708661
0
LINE
8
BLACK
6
CONTINUOUS
10
1.1247244094488189
20
0.8465354330708661
11
1.184724409448819
21
0.8465354330708661
0
LINE
8
BLACK
6
CONTINUOUS
10
1.184724409448819
20
0.8465354330708661
11
1.184724409448819
21
0.7865354330708662
0
LINE
8
BLACK
6
CONTINUOUS
10
1.2847244094488188
20
0.7865354330708662
11
1.2247244094488188
21
0.7865354330708662
0
LINE
8
BLACK
6
CONTINUOUS
10
1.2247244094488188
20
0.7865354330708662
11
1.2247244094488188
21
0.8465354330708661
0
LINE
8
BLACK
6
CONTINUOUS
10
1.2247244094488188
20
0.8465354330708661
11
1.2847244094488188
21
0.8465354330708661
0
LINE
8
BLACK
6
CONTINUOUS
10
1.2847244094488188
20
0.8465354330708661
11
1.2847244094488188
21
0.7865354330708662
0
LINE
8
BLACK
6
CONTINUOUS
10
0.6733471259842519
20
0.9401551968503937
11
0.6800042125984251
21
0.9378257874015747
0
LINE
8
BLACK
6
CONTINUOUS
10
0.6800042125984251
20
0.9378257874015747
11
0.685976062992126
21
0.9340734251968503
0
LINE
8
BLACK
6
CONTINUOUS
10
0.685976062992126
20
0.9340734251968503
11
0.690963188976378
21
0.9290862992125984
0
LINE
8
BLACK
6
CONTINUOUS
10
0.690963188976378
20
0.9290862992125984
11
0.6947155511811024
21
0.9231144488188976
0
LINE
8
BLACK
6
CONTINUOUS
10
0.6947155511811024
20
0.9231144488188976
11
0.6970449606299213
21
0.9164573622047244
0
LINE
8
BLACK
6
CONTINUOUS
10
0.6970449606299213
20
0.9164573622047244
11
0.6978346456692913
21
0.9094488188976377
0
LINE
8
BLACK
6
CONTINUOUS
10
0.6978346456692913
20
0.9094488188976377
11
0.6970449606299213
21
0.9024402755905512
0
LINE
8
BLACK
6
CONTINUOUS
10
0.6970449606299213
20
0.9024402755905512
11
0.6947155511811024
21
0.895783188976378
0
LINE
8
BLACK
6
CONTINUOUS
10
0.6947155511811024
20
0.895783188976378
11
0.690963188976378
21
0.8898113385826771
0
LINE
8
BLACK
6
CONTINUOUS
10
0.690963188976378
20
0.8898113385826771
11
0.685976062992126
21
0.8848242125984251
0
LINE
8
BLACK
6
CONTINUOUS
10
0.685976062992126
20
0.8848242125984251
11
0.6800042125984251
21
0.8810718503937007
0
LINE
8
BLACK
6
CONTINUOUS
10
0.6800042125984251
20
0.8810718503937007
11
0.6733471259842519
21
0.8787424409448819
0
LINE
8
BLACK
6
CONTINUOUS
10
0.6733471259842519
20
0.8787424409448819
11
0.6663385826771654
21
0.8779527559055118
0
LINE
8
BLACK
6
CONTINUOUS
10
0.6663385826771654
20
0.8779527559055118
11
0.6387795275590551
21
0.8779527559055118
0
LINE
8
BLACK
6
CONTINUOUS
10
0.6387795275590551
20
0.8779527559055118
11
0.6317709842519685
21
0.8787424409448819
0
LINE
8
BLACK
6
CONTINUOUS
10
0.6317709842519685
20
0.8787424409448819
11
0.6251138976377952
21
0.8810718503937007
0
LINE
8
BLACK
6
CONTINUOUS
10
0.6251138976377952
20
0.8810718503937007
11
0.6191420472440945
21
0.8848242125984251
0
LINE
8
BLACK
6
CONTINUOUS
10
0.6191420472440945
20
0.8848242125984251
11
0.6141549212598425
21
0.8898113385826771
0
LINE
8
BLACK
6
CONTINUOUS
10
0.6141549212598425
20
0.8898113385826771
11
0.6104025590551181
21
0.895783188976378
0
LINE
8
BLACK
6
CONTINUOUS
10
0.6104025590551181
20
0.895783188976378
11
0.6080731496062992
21
0.9024402755905512
0
LINE
8
BLACK
6
CONTINUOUS
10
0.6080731496062992
20
0.9024402755905512
11
0.6072834645669292
21
0.9094488188976377
0
LINE
8
BLACK
6
CONTINUOUS
10
0.6072834645669292
20
0.9094488188976377
11
0.6080731496062992
21
0.9164573622047244
0
LINE
8
BLACK
6
CONTINUOUS
10
0.6080731496062992
20
0.9164573622047244
11
0.6104025590551181
21
0.9231144488188976
0
LINE
8
BLACK
6
CONTINUOUS
10
0.6104025590551181
20
0.9231144488188976
11
0.6141549212598425
21
0.9290862992125984
0
LINE
8
BLACK
6
CONTINUOUS
10
0.6141549212598425
20
0.9290862992125984
11
0.6191420472440945
21
0.9340734251968503
0
LINE
8
BLACK
6
CONTINUOUS
10
0.6191420472440945
20
0.9340734251968503
11
0.6251138976377952
21
0.9378257874015747
0
LINE
8
BLACK
6
CONTINUOUS
10
0.6251138976377952
20
0.9378257874015747
11
0.6317709842519685
21
0.9401551968503937
0
LINE
8
BLACK
6
CONTINUOUS
10
0.6317709842519685
20
0.9401551968503937
11
0.6387795275590551
21
0.9409448818897638
0
LINE
8
BLACK
6
CONTINUOUS
10
0.6387795275590551
20
0.9409448818897638
11
0.6663385826771654
21
0.9409448818897638
0
LINE
8
BLACK
6
CONTINUOUS
10
0.6663385826771654
20
0.9409448818897638
11
0.6733471259842519
21
0.9401551968503937
0
LINE
8
BLACK
6
CONTINUOUS
10
0.973347125984252
20
0.9401551968503937
11
0.9800042125984252
21
0.9378257874015747
0
LINE
8
BLACK
6
CONTINUOUS
10
0.9800042125984252
20
0.9378257874015747
11
0.9859760629921259
21
0.9340734251968503
0
LINE
8
BLACK
6
CONTINUOUS
10
0.9859760629921259
20
0.9340734251968503
11
0.9909631889763779
21
0.9290862992125984
0
LINE
8
BLACK
6
CONTINUOUS
10
0.9909631889763779
20
0.9290862992125984
11
0.9947155511811023
21
0.9231144488188976
0
LINE
8
BLACK
6
CONTINUOUS
10
0.9947155511811023
20
0.9231144488188976
11
0.9970449606299212
21
0.9164573622047244
0
LINE
8
BLACK
6
CONTINUOUS
10
0.9970449606299212
20
0.9164573622047244
11
0.9978346456692914
21
0.9094488188976377
0
LINE
8
BLACK
6
CONTINUOUS
10
0.9978346456692914
20
0.9094488188976377
11
0.9970449606299212
21
0.9024402755905512
0
LINE
8
BLACK
6
CONTINUOUS
10
0.9970449606299212
20
0.9024402755905512
11
0.9947155511811023
21
0.895783188976378
0
LINE
8
BLACK
6
CONTINUOUS
10
0.9947155511811023
20
0.895783188976378
11
0.9909631889763779
21
0.8898113385826771
0
LINE
8
BLACK
6
CONTINUOUS
10
0.9909631889763779
20
0.8898113385826771
11
0.9859760629921259
21
0.8848242125984251
0
LINE
8
BLACK
6
CONTINUOUS
10
0.9859760629921259
20
0.8848242125984251
11
0.9800042125984252
21
0.8810718503937007
0
LINE
8
BLACK
6
CONTINUOUS
10
0.9800042125984252
20
0.8810718503937007
11
0.973347125984252
21
0.8787424409448819
0
LINE
8
BLACK
6
CONTINUOUS
10
0.973347125984252
20
0.8787424409448819
11
0.9663385826771653
21
0.8779527559055118
0
LINE
8
BLACK
6
CONTINUOUS
10
0.9663385826771653
20
0.8779527559055118
11
0.9387795275590551
21
0.8779527559055118
0
LINE
8
BLACK
6
CONTINUOUS
10
0.9387795275590551
20
0.8779527559055118
11
0.9317709842519685
21
0.8787424409448819
0
LINE
8
BLACK
6
CONTINUOUS
10
0.9317709842519685
20
0.8787424409448819
11
0.9251138976377953
21
0.8810718503937007
0
LINE
8
BLACK
6
CONTINUOUS
10
0.9251138976377953
20
0.8810718503937007
11
0.9191420472440944
21
0.8848242125984251
0
LINE
8
BLACK
6
CONTINUOUS
10
0.9191420472440944
20
0.8848242125984251
11
0.9141549212598425
21
0.8898113385826771
0
LINE
8
BLACK
6
CONTINUOUS
10
0.9141549212598425
20
0.8898113385826771
11
0.9104025590551181
21
0.895783188976378
0
LINE
8
BLACK
6
CONTINUOUS
10
0.9104025590551181
20
0.895783188976378
11
0.9080731496062991
21
0.9024402755905512
0
LINE
8
BLACK
6
CONTINUOUS
10
0.9080731496062991
20
0.9024402755905512
11
0.9072834645669291
21
0.9094488188976377
0
LINE
8
BLACK
6
CONTINUOUS
10
0.9072834645669291
20
0.9094488188976377
11
0.9080731496062991
21
0.9164573622047244
0
LINE
8
BLACK
6
CONTINUOUS
10
0.9080731496062991
20
0.9164573622047244
11
0.9104025590551181
21
0.9231144488188976
0
LINE
8
BLACK
6
CONTINUOUS
10
0.9104025590551181
20
0.9231144488188976
11
0.9141549212598425
21
0.9290862992125984
0
LINE
8
BLACK
6
CONTINUOUS
10
0.9141549212598425
20
0.9290862992125984
11
0.9191420472440944
21
0.9340734251968503
0
LINE
8
BLACK
6
CONTINUOUS
10
0.9191420472440944
20
0.9340734251968503
11
0.9251138976377953
21
0.9378257874015747
0
LINE
8
BLACK
6
CONTINUOUS
10
0.9251138976377953
20
0.9378257874015747
11
0.9317709842519685
21
0.9401551968503937
0
LINE
8
BLACK
6
CONTINUOUS
10
0.9317709842519685
20
0.9401551968503937
11
0.9387795275590551
21
0.9409448818897638
0
LINE
8
BLACK
6
CONTINUOUS
10
0.9387795275590551
20
0.9409448818897638
11
0.9663385826771653
21
0.9409448818897638
0
LINE
8
BLACK
6
CONTINUOUS
10
0.9663385826771653
20
0.9409448818897638
11
0.973347125984252
21
0.9401551968503937
0
LINE
8
BLACK
6
CONTINUOUS
10
0.385511811023622
20
0.8865354330708661
11
0.325511811023622
21
0.8865354330708661
0
LINE
8
BLACK
6
CONTINUOUS
10
0.325511811023622
20
0.8865354330708661
11
0.325511811023622
21
0.9465354330708661
0
LINE
8
BLACK
6
CONTINUOUS
10
0.325511811023622
20
0.9465354330708661
11
0.385511811023622
21
0.9465354330708661
0
LINE
8
BLACK
6
CONTINUOUS
10
0.385511811023622
20
0.9465354330708661
11
0.385511811023622
21
0.8865354330708661
0
LINE
8
BLACK
6
CONTINUOUS
10
0.485511811023622
20
0.8865354330708661
11
0.425511811023622
21
0.8865354330708661
0
LINE
8
BLACK
6
CONTINUOUS
10
0.425511811023622
20
0.8865354330708661
11
0.425511811023622
21
0.9465354330708661
0
LINE
8
BLACK
6
CONTINUOUS
10
0.425511811023622
20
0.9465354330708661
11
0.485511811023622
21
0.9465354330708661
0
LINE
8
BLACK
6
CONTINUOUS
10
0.485511811023622
20
0.9465354330708661
11
0.485511811023622
21
0.8865354330708661
0
LINE
8
BLACK
6
CONTINUOUS
10
1.184724409448819
20
0.8865354330708661
11
1.1247244094488189
21
0.8865354330708661
0
LINE
8
BLACK
6
CONTINUOUS
10
1.1247244094488189
20
0.8865354330708661
11
1.1247244094488189
21
0.9465354330708661
0
LINE
8
BLACK
6
CONTINUOUS
10
1.1247244094488189
20
0.9465354330708661
11
1.184724409448819
21
0.9465354330708661
0
LINE
8
BLACK
6
CONTINUOUS
10
1.184724409448819
20
0.9465354330708661
11
1.184724409448819
21
0.8865354330708661
0
LINE
8
BLACK
6
CONTINUOUS
10
1.2847244094488188
20
0.8865354330708661
11
1.2247244094488188
21
0.8865354330708661
0
LINE
8
BLACK
6
CONTINUOUS
10
1.2247244094488188
20
0.8865354330708661
11
1.2247244094488188
21
0.9465354330708661
0
LINE
8
BLACK
6
CONTINUOUS
10
1.2247244094488188
20
0.9465354330708661
11
1.2847244094488188
21
0.9465354330708661
0
LINE
8
BLACK
6
CONTINUOUS
10
1.2847244094488188
20
0.9465354330708661
11
1.2847244094488188
21
0.8865354330708661
0
LINE
8
BLACK
6
CONTINUOUS
10
0.385511811023622
20
0.9865354330708661
11
0.325511811023622
21
0.9865354330708661
0
LINE
8
BLACK
6
CONTINUOUS
10
0.325511811023622
20
0.9865354330708661
11
0.325511811023622
21
1.0465354330708661
0
LINE
8
BLACK
6
CONTINUOUS
10
0.325511811023622
20
1.0465354330708661
11
0.385511811023622
21
1.0465354330708661
0
LINE
8
BLACK
6
CONTINUOUS
10
0.385511811023622
20
1.0465354330708661
11
0.385511811023622
21
0.9865354330708661
0
LINE
8
BLACK
6
CONTINUOUS
10
0.485511811023622
20
0.9865354330708661
11
0.425511811023622
21
0.9865354330708661
0
LINE
8
BLACK
6
CONTINUOUS
10
0.425511811023622
20
0.9865354330708661
11
0.425511811023622
21
1.0465354330708661
0
LINE
8
BLACK
6
CONTINUOUS
10
0.425511811023622
20
1.0465354330708661
11
0.485511811023622
21
1.0465354330708661
0
LINE
8
BLACK
6
CONTINUOUS
10
0.485511811023622
20
1.0465354330708661
11
0.485511811023622
21
0.9865354330708661
0
LINE
8
BLACK
6
CONTINUOUS
10
1.184724409448819
20
0.9865354330708661
11
1.1247244094488189
21
0.9865354330708661
0
LINE
8
BLACK
6
CONTINUOUS
10
1.1247244094488189
20
0.9865354330708661
11
1.1247244094488189
21
1.0465354330708661
0
LINE
8
BLACK
6
CONTINUOUS
10
1.1247244094488189
20
1.0465354330708661
11
1.184724409448819
21
1.0465354330708661
0
LINE
8
BLACK
6
CONTINUOUS
10
1.184724409448819
20
1.0465354330708661
11
1.184724409448819
21
0.9865354330708661
0
LINE
8
BLACK
6
CONTINUOUS
10
1.2847244094488188
20
0.9865354330708661
11
1.2247244094488188
21
0.9865354330708661
0
LINE
8
BLACK
6
CONTINUOUS
10
1.2247244094488188
20
0.9865354330708661
11
1.2247244094488188
21
1.0465354330708661
0
LINE
8
BLACK
6
CONTINUOUS
10
1.2247244094488188
20
1.0465354330708661
11
1.2847244094488188
21
1.0465354330708661
0
LINE
8
BLACK
6
CONTINUOUS
10
1.2847244094488188
20
1.0465354330708661
11
1.2847244094488188
21
0.9865354330708661
0
LINE
8
BLACK
6
CONTINUOUS
10
0.385511811023622
20
1.0865354330708661
11
0.325511811023622
21
1.0865354330708661
0
LINE
8
BLACK
6
CONTINUOUS
10
0.325511811023622
20
1.0865354330708661
11
0.325511811023622
21
1.1465354330708661
0
LINE
8
BLACK
6
CONTINUOUS
10
0.325511811023622
20
1.1465354330708661
11
0.385511811023622
21
1.1465354330708661
0
LINE
8
BLACK
6
CONTINUOUS
10
0.385511811023622
20
1.1465354330708661
11
0.385511811023622
21
1.0865354330708661
0
LINE
8
BLACK
6
CONTINUOUS
10
0.485511811023622
20
1.0865354330708661
11
0.425511811023622
21
1.0865354330708661
0
LINE
8
BLACK
6
CONTINUOUS
10
0.425511811023622
20
1.0865354330708661
11
0.425511811023622
21
1.1465354330708661
0
LINE
8
BLACK
6
CONTINUOUS
10
0.425511811023622
20
1.1465354330708661
11
0.485511811023622
21
1.1465354330708661
0
LINE
8
BLACK
6
CONTINUOUS
10
0.485511811023622
20
1.1465354330708661
11
0.485511811023622
21
1.0865354330708661
0
LINE
8
BLACK
6
CONTINUOUS
10
1.184724409448819
20
1.0865354330708661
11
1.1247244094488189
21
1.0865354330708661
0
LINE
8
BLACK
6
CONTINUOUS
10
1.1247244094488189
20
1.0865354330708661
11
1.1247244094488189
21
1.1465354330708661
0
LINE
8
BLACK
6
CONTINUOUS
10
1.1247244094488189
20
1.1465354330708661
11
1.184724409448819
21
1.1465354330708661
0
LINE
8
BLACK
6
CONTINUOUS
10
1.184724409448819
20
1.1465354330708661
11
1.184724409448819
21
1.0865354330708661
0
LINE
8
BLACK
6
CONTINUOUS
10
1.2847244094488188
20
1.0865354330708661
11
1.2247244094488188
21
1.0865354330708661
0
LINE
8
BLACK
6
CONTINUOUS
10
1.2247244094488188
20
1.0865354330708661
11
1.2247244094488188
21
1.1465354330708661
0
LINE
8
BLACK
6
CONTINUOUS
10
1.2247244094488188
20
1.1465354330708661
11
1.2847244094488188
21
1.1465354330708661
0
LINE
8
BLACK
6
CONTINUOUS
10
1.2847244094488188
20
1.1465354330708661
11
1.2847244094488188
21
1.0865354330708661
0
LINE
8
BLACK
6
CONTINUOUS
10
1.1859055118110235
20
1.2180314960629921
11
1.1259055118110235
21
1.2180314960629921
0
LINE
8
BLACK
6
CONTINUOUS
10
1.1259055118110235
20
1.2180314960629921
11
1.1259055118110235
21
1.2780314960629922
0
LINE
8
BLACK
6
CONTINUOUS
10
1.1259055118110235
20
1.2780314960629922
11
1.1859055118110235
21
1.2780314960629922
0
LINE
8
BLACK
6
CONTINUOUS
10
1.1859055118110235
20
1.2780314960629922
11
1.1859055118110235
21
1.2180314960629921
0
LINE
8
BLACK
6
CONTINUOUS
10
1.2859055118110236
20
1.2180314960629921
11
1.2259055118110236
21
1.2180314960629921
0
LINE
8
BLACK
6
CONTINUOUS
10
1.2259055118110236
20
1.2180314960629921
11
1.2259055118110236
21
1.2780314960629922
0
LINE
8
BLACK
6
CONTINUOUS
10
1.2259055118110236
20
1.2780314960629922
11
1.2859055118110236
21
1.2780314960629922
0
LINE
8
BLACK
6
CONTINUOUS
10
1.2859055118110236
20
1.2780314960629922
11
1.2859055118110236
21
1.2180314960629921
0
LINE
8
BLACK
6
CONTINUOUS
10
0.3843307086614173
20
1.2219685039370078
11
0.3243307086614173
21
1.2219685039370078
0
LINE
8
BLACK
6
CONTINUOUS
10
0.3243307086614173
20
1.2219685039370078
11
0.3243307086614173
21
1.2819685039370079
0
LINE
8
BLACK
6
CONTINUOUS
10
0.3243307086614173
20
1.2819685039370079
11
0.3843307086614173
21
1.2819685039370079
0
LINE
8
BLACK
6
CONTINUOUS
10
0.3843307086614173
20
1.2819685039370079
11
0.3843307086614173
21
1.2219685039370078
0
LINE
8
BLACK
6
CONTINUOUS
10
0.4843307086614173
20
1.2219685039370078
11
0.4243307086614173
21
1.2219685039370078
0
LINE
8
BLACK
6
CONTINUOUS
10
0.4243307086614173
20
1.2219685039370078
11
0.4243307086614173
21
1.2819685039370079
0
LINE
8
BLACK
6
CONTINUOUS
10
0.4243307086614173
20
1.2819685039370079
11
0.4843307086614173
21
1.2819685039370079
0
LINE
8
BLACK
6
CONTINUOUS
10
0.4843307086614173
20
1.2819685039370079
11
0.4843307086614173
21
1.2219685039370078
0
LINE
8
BLACK
6
CONTINUOUS
10
1.1859055118110235
20
1.3180314960629922
11
1.1259055118110235
21
1.3180314960629922
0
LINE
8
BLACK
6
CONTINUOUS
10
1.1259055118110235
20
1.3180314960629922
11
1.1259055118110235
21
1.378031496062992
0
LINE
8
BLACK
6
CONTINUOUS
10
1.1259055118110235
20
1.378031496062992
11
1.1859055118110235
21
1.378031496062992
0
LINE
8
BLACK
6
CONTINUOUS
10
1.1859055118110235
20
1.378031496062992
11
1.1859055118110235
21
1.3180314960629922
0
LINE
8
BLACK
6
CONTINUOUS
10
1.2859055118110236
20
1.3180314960629922
11
1.2259055118110236
21
1.3180314960629922
0
LINE
8
BLACK
6
CONTINUOUS
10
1.2259055118110236
20
1.3180314960629922
11
1.2259055118110236
21
1.378031496062992
0
LINE
8
BLACK
6
CONTINUOUS
10
1.2259055118110236
20
1.378031496062992
11
1.2859055118110236
21
1.378031496062992
0
LINE
8
BLACK
6
CONTINUOUS
10
1.2859055118110236
20
1.378031496062992
11
1.2859055118110236
21
1.3180314960629922
0
LINE
8
BLACK
6
CONTINUOUS
10
0.3843307086614173
20
1.3219685039370079
11
0.3243307086614173
21
1.3219685039370079
0
LINE
8
BLACK
6
CONTINUOUS
10
0.3243307086614173
20
1.3219685039370079
11
0.3243307086614173
21
1.3819685039370078
0
LINE
8
BLACK
6
CONTINUOUS
10
0.3243307086614173
20
1.3819685039370078
11
0.3843307086614173
21
1.3819685039370078
0
LINE
8
BLACK
6
CONTINUOUS
10
0.3843307086614173
20
1.3819685039370078
11
0.3843307086614173
21
1.3219685039370079
0
LINE
8
BLACK
6
CONTINUOUS
10
0.4843307086614173
20
1.3219685039370079
11
0.4243307086614173
21
1.3219685039370079
0
LINE
8
BLACK
6
CONTINUOUS
10
0.4243307086614173
20
1.3219685039370079
11
0.4243307086614173
21
1.3819685039370078
0
LINE
8
BLACK
6
CONTINUOUS
10
0.4243307086614173
20
1.3819685039370078
11
0.4843307086614173
21
1.3819685039370078
0
LINE
8
BLACK
6
CONTINUOUS
10
0.4843307086614173
20
1.3819685039370078
11
0.4843307086614173
21
1.3219685039370079
0
LINE
8
BLACK
6
CONTINUOUS
10
0.4205096850393701
20
1.7163158661417321
11
0.4338744488188976
21
1.7131483858267715
0
LINE
8
BLACK
6
CONTINUOUS
10
0.4338744488188976
20
1.7131483858267715
11
0.4467811023622047
21
1.7084507086614173
0
LINE
8
BLACK
6
CONTINUOUS
10
0.4467811023622047
20
1.7084507086614173
11
0.4590551574803149
21
1.7022864566929135
0
LINE
8
BLACK
6
CONTINUOUS
10
0.4590551574803149
20
1.7022864566929135
11
0.4705305905511811
21
1.6947389763779528
0
LINE
8
BLACK
6
CONTINUOUS
10
0.4705305905511811
20
1.6947389763779528
11
0.4810522047244095
21
1.6859102755905511
0
LINE
8
BLACK
6
CONTINUOUS
10
0.4810522047244095
20
1.6859102755905511
11
0.490477716535433
21
1.6759198031496063
0
LINE
8
BLACK
6
CONTINUOUS
10
0.490477716535433
20
1.6759198031496063
11
0.49867968503937
21
1.6649026377952756
0
LINE
8
BLACK
6
CONTINUOUS
10
0.49867968503937
20
1.6649026377952756
11
0.5055472047244094
21
1.6530077952755906
0
LINE
8
BLACK
6
CONTINUOUS
10
0.5055472047244094
20
1.6530077952755906
11
0.5109873622047244
21
1.6403960629921259
0
LINE
8
BLACK
6
CONTINUOUS
10
0.5109873622047244
20
1.6403960629921259
11
0.5149266141732284
21
1.6272381102362203
0
LINE
8
BLACK
6
CONTINUOUS
10
0.5149266141732284
20
1.6272381102362203
11
0.5173116535433071
21
1.6137117716535432
0
LINE
8
BLACK
6
CONTINUOUS
10
0.5173116535433071
20
1.6137117716535432
11
0.5181102755905511
21
1.5999999999999999
0
LINE
8
BLACK
6
CONTINUOUS
10
0.5181102755905511
20
1.5999999999999999
11
0.5173116535433071
21
1.5862882283464566
0
LINE
8
BLACK
6
CONTINUOUS
10
0.5173116535433071
20
1.5862882283464566
11
0.5149266141732284
21
1.5727618897637794
0
LINE
8
BLACK
6
CONTINUOUS
10
0.5149266141732284
20
1.5727618897637794
11
0.5109873622047244
21
1.559603937007874
0
LINE
8
BLACK
6
CONTINUOUS
10
0.5109873622047244
20
1.559603937007874
11
0.5055472047244094
21
1.5469922047244093
0
LINE
8
BLACK
6
CONTINUOUS
10
0.5055472047244094
20
1.5469922047244093
11
0.49867968503937
21
1.5350973622047244
0
LINE
8
BLACK
6
CONTINUOUS
10
0.49867968503937
20
1.5350973622047244
11
0.490477716535433
21
1.5240801968503936
0
LINE
8
BLACK
6
CONTINUOUS
10
0.490477716535433
20
1.5240801968503936
11
0.4810522047244095
21
1.5140897244094489
0
LINE
8
BLACK
6
CONTINUOUS
10
0.4810522047244095
20
1.5140897244094489
11
0.4705305905511811
21
1.5052610236220472
0
LINE
8
BLACK
6
CONTINUOUS
10
0.4705305905511811
20
1.5052610236220472
11
0.4590551574803149
21
1.4977135433070865
0
LINE
8
BLACK
6
CONTINUOUS
10
0.4590551574803149
20
1.4977135433070865
11
0.4467811023622047
21
1.4915492913385826
0
LINE
8
BLACK
6
CONTINUOUS
10
0.4467811023622047
20
1.4915492913385826
11
0.4338744488188976
21
1.4868516141732284
0
LINE
8
BLACK
6
CONTINUOUS
10
0.4338744488188976
20
1.4868516141732284
11
0.4205096850393701
21
1.4836841338582676
0
LINE
8
BLACK
6
CONTINUOUS
10
0.4205096850393701
20
1.4836841338582676
11
0.4068675196850394
21
1.4820896062992126
0
LINE
8
BLACK
6
CONTINUOUS
10
0.4068675196850394
20
1.4820896062992126
11
0.3931325590551181
21
1.4820896062992126
0
LINE
8
BLACK
6
CONTINUOUS
10
0.3931325590551181
20
1.4820896062992126
11
0.3794903937007874
21
1.4836841338582676
0
LINE
8
BLACK
6
CONTINUOUS
10
0.3794903937007874
20
1.4836841338582676
11
0.3661256299212599
21
1.4868516141732284
0
LINE
8
BLACK
6
CONTINUOUS
10
0.3661256299212599
20
1.4868516141732284
11
0.3532189763779527
21
1.4915492913385826
0
LINE
8
BLACK
6
CONTINUOUS
10
0.3532189763779527
20
1.4915492913385826
11
0.3409449212598425
21
1.4977135433070865
0
LINE
8
BLACK
6
CONTINUOUS
10
0.3409449212598425
20
1.4977135433070865
11
0.3294694881889764
21
1.5052610236220472
0
LINE
8
BLACK
6
CONTINUOUS
10
0.3294694881889764
20
1.5052610236220472
11
0.318947874015748
21
1.5140897244094489
0
LINE
8
BLACK
6
CONTINUOUS
10
0.318947874015748
20
1.5140897244094489
11
0.3095223622047244
21
1.5240801968503936
0
LINE
8
BLACK
6
CONTINUOUS
10
0.3095223622047244
20
1.5240801968503936
11
0.3013203937007874
21
1.5350973622047244
0
LINE
8
BLACK
6
CONTINUOUS
10
0.3013203937007874
20
1.5350973622047244
11
0.294452874015748
21
1.5469922047244093
0
LINE
8
BLACK
6
CONTINUOUS
10
0.294452874015748
20
1.5469922047244093
11
0.2890127165354331
21
1.559603937007874
0
LINE
8
BLACK
6
CONTINUOUS
10
0.2890127165354331
20
1.559603937007874
11
0.2850734645669291
21
1.5727618897637794
0
LINE
8
BLACK
6
CONTINUOUS
10
0.2850734645669291
20
1.5727618897637794
11
0.2826884251968504
21
1.5862882283464566
0
LINE
8
BLACK
6
CONTINUOUS
10
0.2826884251968504
20
1.5862882283464566
11
0.2818898031496063
21
1.5999999999999999
0
LINE
8
BLACK
6
CONTINUOUS
10
0.2818898031496063
20
1.5999999999999999
11
0.2826884251968504
21
1.6137117716535432
0
LINE
8
BLACK
6
CONTINUOUS
10
0.2826884251968504
20
1.6137117716535432
11
0.2850734645669291
21
1.6272381102362203
0
LINE
8
BLACK
6
CONTINUOUS
10
0.2850734645669291
20
1.6272381102362203
11
0.2890127165354331
21
1.6403960629921259
0
LINE
8
BLACK
6
CONTINUOUS
10
0.2890127165354331
20
1.6403960629921259
11
0.294452874015748
21
1.6530077952755906
0
LINE
8
BLACK
6
CONTINUOUS
10
0.294452874015748
20
1.6530077952755906
11
0.3013203937007874
21
1.6649026377952756
0
LINE
8
BLACK
6
CONTINUOUS
10
0.3013203937007874
20
1.6649026377952756
11
0.3095223622047244
21
1.6759198031496063
0
LINE
8
BLACK
6
CONTINUOUS
10
0.3095223622047244
20
1.6759198031496063
11
0.318947874015748
21
1.6859102755905511
0
LINE
8
BLACK
6
CONTINUOUS
10
0.318947874015748
20
1.6859102755905511
11
0.3294694881889764
21
1.6947389763779528
0
LINE
8
BLACK
6
CONTINUOUS
10
0.3294694881889764
20
1.6947389763779528
11
0.3409449212598425
21
1.7022864566929135
0
LINE
8
BLACK
6
CONTINUOUS
10
0.3409449212598425
20
1.7022864566929135
11
0.3532189763779527
21
1.7084507086614173
0
LINE
8
BLACK
6
CONTINUOUS
10
0.3532189763779527
20
1.7084507086614173
11
0.3661256299212599
21
1.7131483858267715
0
LINE
8
BLACK
6
CONTINUOUS
10
0.3661256299212599
20
1.7131483858267715
11
0.3794903937007874
21
1.7163158661417321
0
LINE
8
BLACK
6
CONTINUOUS
10
0.3794903937007874
20
1.7163158661417321
11
0.3931325590551181
21
1.7179103937007874
0
LINE
8
BLACK
6
CONTINUOUS
10
0.3931325590551181
20
1.7179103937007874
11
0.4068675196850394
21
1.7179103937007874
0
LINE
8
BLACK
6
CONTINUOUS
10
0.4068675196850394
20
1.7179103937007874
11
0.4205096850393701
21
1.7163158661417321
0
LINE
8
BLACK
6
CONTINUOUS
10
1.22050968503937
20
1.7163158661417321
11
1.2338744488188975
21
1.7131483858267715
0
LINE
8
BLACK
6
CONTINUOUS
10
1.2338744488188975
20
1.7131483858267715
11
1.2467811023622046
21
1.7084507086614173
0
LINE
8
BLACK
6
CONTINUOUS
10
1.2467811023622046
20
1.7084507086614173
11
1.2590551574803148
21
1.7022864566929135
0
LINE
8
BLACK
6
CONTINUOUS
10
1.2590551574803148
20
1.7022864566929135
11
1.270530590551181
21
1.6947389763779528
0
LINE
8
BLACK
6
CONTINUOUS
10
1.270530590551181
20
1.6947389763779528
11
1.2810522047244095
21
1.6859102755905511
0
LINE
8
BLACK
6
CONTINUOUS
10
1.2810522047244095
20
1.6859102755905511
11
1.2904777165354331
21
1.6759198031496063
0
LINE
8
BLACK
6
CONTINUOUS
10
1.2904777165354331
20
1.6759198031496063
11
1.29867968503937
21
1.6649026377952756
0
LINE
8
BLACK
6
CONTINUOUS
10
1.29867968503937
20
1.6649026377952756
11
1.3055472047244094
21
1.6530077952755906
0
LINE
8
BLACK
6
CONTINUOUS
10
1.3055472047244094
20
1.6530077952755906
11
1.3109873622047243
21
1.6403960629921259
0
LINE
8
BLACK
6
CONTINUOUS
10
1.3109873622047243
20
1.6403960629921259
11
1.3149266141732283
21
1.6272381102362203
0
LINE
8
BLACK
6
CONTINUOUS
10
1.3149266141732283
20
1.6272381102362203
11
1.3173116535433071
21
1.6137117716535432
0
LINE
8
BLACK
6
CONTINUOUS
10
1.3173116535433071
20
1.6137117716535432
11
1.3181102755905512
21
1.5999999999999999
0
LINE
8
BLACK
6
CONTINUOUS
10
1.3181102755905512
20
1.5999999999999999
11
1.3173116535433071
21
1.5862882283464566
0
LINE
8
BLACK
6
CONTINUOUS
10
1.3173116535433071
20
1.5862882283464566
11
1.3149266141732283
21
1.5727618897637794
0
LINE
8
BLACK
6
CONTINUOUS
10
1.3149266141732283
20
1.5727618897637794
11
1.3109873622047243
21
1.559603937007874
0
LINE
8
BLACK
6
CONTINUOUS
10
1.3109873622047243
20
1.559603937007874
11
1.3055472047244094
21
1.5469922047244093
0
LINE
8
BLACK
6
CONTINUOUS
10
1.3055472047244094
20
1.5469922047244093
11
1.29867968503937
21
1.5350973622047244
0
LINE
8
BLACK
6
CONTINUOUS
10
1.29867968503937
20
1.5350973622047244
11
1.2904777165354331
21
1.5240801968503936
0
LINE
8
BLACK
6
CONTINUOUS
10
1.2904777165354331
20
1.5240801968503936
11
1.2810522047244095
21
1.5140897244094489
0
LINE
8
BLACK
6
CONTINUOUS
10
1.2810522047244095
20
1.5140897244094489
11
1.270530590551181
21
1.5052610236220472
0
LINE
8
BLACK
6
CONTINUOUS
10
1.270530590551181
20
1.5052610236220472
11
1.2590551574803148
21
1.4977135433070865
0
LINE
8
BLACK
6
CONTINUOUS
10
1.2590551574803148
20
1.4977135433070865
11
1.2467811023622046
21
1.4915492913385826
0
LINE
8
BLACK
6
CONTINUOUS
10
1.2467811023622046
20
1.4915492913385826
11
1.2338744488188975
21
1.4868516141732284
0
LINE
8
BLACK
6
CONTINUOUS
10
1.2338744488188975
20
1.4868516141732284
11
1.22050968503937
21
1.4836841338582676
0
LINE
8
BLACK
6
CONTINUOUS
10
1.22050968503937
20
1.4836841338582676
11
1.2068675196850394
21
1.4820896062992126
0
LINE
8
BLACK
6
CONTINUOUS
10
1.2068675196850394
20
1.4820896062992126
11
1.1931325590551181
21
1.4820896062992126
0
LINE
8
BLACK
6
CONTINUOUS
10
1.1931325590551181
20
1.4820896062992126
11
1.1794903937007875
21
1.4836841338582676
0
LINE
8
BLACK
6
CONTINUOUS
10
1.1794903937007875
20
1.4836841338582676
11
1.1661256299212599
21
1.4868516141732284
0
LINE
8
BLACK
6
CONTINUOUS
10
1.1661256299212599
20
1.4868516141732284
11
1.1532189763779528
21
1.4915492913385826
0
LINE
8
BLACK
6
CONTINUOUS
10
1.1532189763779528
20
1.4915492913385826
11
1.1409449212598426
21
1.4977135433070865
0
LINE
8
BLACK
6
CONTINUOUS
10
1.1409449212598426
20
1.4977135433070865
11
1.1294694881889764
21
1.5052610236220472
0
LINE
8
BLACK
6
CONTINUOUS
10
1.1294694881889764
20
1.5052610236220472
11
1.1189478740157479
21
1.5140897244094489
0
LINE
8
BLACK
6
CONTINUOUS
10
1.1189478740157479
20
1.5140897244094489
11
1.1095223622047243
21
1.5240801968503936
0
LINE
8
BLACK
6
CONTINUOUS
10
1.1095223622047243
20
1.5240801968503936
11
1.1013203937007874
21
1.5350973622047244
0
LINE
8
BLACK
6
CONTINUOUS
10
1.1013203937007874
20
1.5350973622047244
11
1.094452874015748
21
1.5469922047244093
0
LINE
8
BLACK
6
CONTINUOUS
10
1.094452874015748
20
1.5469922047244093
11
1.0890127165354331
21
1.559603937007874
0
LINE
8
BLACK
6
CONTINUOUS
10
1.0890127165354331
20
1.559603937007874
11
1.0850734645669291
21
1.5727618897637794
0
LINE
8
BLACK
6
CONTINUOUS
10
1.0850734645669291
20
1.5727618897637794
11
1.0826884251968503
21
1.5862882283464566
0
LINE
8
BLACK
6
CONTINUOUS
10
1.0826884251968503
20
1.5862882283464566
11
1.0818898031496063
21
1.5999999999999999
0
LINE
8
BLACK
6
CONTINUOUS
10
1.0818898031496063
20
1.5999999999999999
11
1.0826884251968503
21
1.6137117716535432
0
LINE
8
BLACK
6
CONTINUOUS
10
1.0826884251968503
20
1.6137117716535432
11
1.0850734645669291
21
1.6272381102362203
0
LINE
8
BLACK
6
CONTINUOUS
10
1.0850734645669291
20
1.6272381102362203
11
1.0890127165354331
21
1.6403960629921259
0
LINE
8
BLACK
6
CONTINUOUS
10
1.0890127165354331
20
1.6403960629921259
11
1.094452874015748
21
1.6530077952755906
0
LINE
8
BLACK
6
CONTINUOUS
10
1.094452874015748
20
1.6530077952755906
11
1.1013203937007874
21
1.6649026377952756
0
LINE
8
BLACK
6
CONTINUOUS
10
1.1013203937007874
20
1.6649026377952756
11
1.1095223622047243
21
1.6759198031496063
0
LINE
8
BLACK
6
CONTINUOUS
10
1.1095223622047243
20
1.6759198031496063
11
1.1189478740157479
21
1.6859102755905511
0
LINE
8
BLACK
6
CONTINUOUS
10
1.1189478740157479
20
1.6859102755905511
11
1.1294694881889764
21
1.6947389763779528
0
LINE
8
BLACK
6
CONTINUOUS
10
1.1294694881889764
20
1.6947389763779528
11
1.1409449212598426
21
1.7022864566929135
0
LINE
8
BLACK
6
CONTINUOUS
10
1.1409449212598426
20
1.7022864566929135
11
1.1532189763779528
21
1.7084507086614173
0
LINE
8
BLACK
6
CONTINUOUS
10
1.1532189763779528
20
1.7084507086614173
11
1.1661256299212599
21
1.7131483858267715
0
LINE
8
BLACK
6
CONTINUOUS
10
1.1661256299212599
20
1.7131483858267715
11
1.1794903937007875
21
1.7163158661417321
0
LINE
8
BLACK
6
CONTINUOUS
10
1.1794903937007875
20
1.7163158661417321
11
1.1931325590551181
21
1.7179103937007874
0
LINE
8
BLACK
6
CONTINUOUS
10
1.1931325590551181
20
1.7179103937007874
11
1.2068675196850394
21
1.7179103937007874
0
LINE
8
BLACK
6
CONTINUOUS
10
1.2068675196850394
20
1.7179103937007874
11
1.22050968503937
21
1.7163158661417321
0
LINE
8
BLACK
6
CONTINUOUS
10
0.6654331102362204
20
1.5656692913385826
11
0.6054331102362205
21
1.5656692913385826
0
LINE
8
BLACK
6
CONTINUOUS
10
0.6054331102362205
20
1.5656692913385826
11
0.6054331102362205
21
1.6256692913385826
0
LINE
8
BLACK
6
CONTINUOUS
10
0.6054331102362205
20
1.6256692913385826
11
0.6654331102362204
21
1.6256692913385826
0
LINE
8
BLACK
6
CONTINUOUS
10
0.6654331102362204
20
1.6256692913385826
11
0.6654331102362204
21
1.5656692913385826
0
LINE
8
BLACK
6
CONTINUOUS
10
0.7654331102362204
20
1.5656692913385826
11
0.7054331102362205
21
1.5656692913385826
0
LINE
8
BLACK
6
CONTINUOUS
10
0.7054331102362205
20
1.5656692913385826
11
0.7054331102362205
21
1.6256692913385826
0
LINE
8
BLACK
6
CONTINUOUS
10
0.7054331102362205
20
1.6256692913385826
11
0.7654331102362204
21
1.6256692913385826
0
LINE
8
BLACK
6
CONTINUOUS
10
0.7654331102362204
20
1.6256692913385826
11
0.7654331102362204
21
1.5656692913385826
0
LINE
8
BLACK
6
CONTINUOUS
10
0.8654331102362205
20
1.5656692913385826
11
0.8054331102362204
21
1.5656692913385826
0
LINE
8
BLACK
6
CONTINUOUS
10
0.8054331102362204
20
1.5656692913385826
11
0.8054331102362204
21
1.6256692913385826
0
LINE
8
BLACK
6
CONTINUOUS
10
0.8054331102362204
20
1.6256692913385826
11
0.8654331102362205
21
1.6256692913385826
0
LINE
8
BLACK
6
CONTINUOUS
10
0.8654331102362205
20
1.6256692913385826
11
0.8654331102362205
21
1.5656692913385826
0
LINE
8
BLACK
6
CONTINUOUS
10
0.9654331102362205
20
1.5656692913385826
11
0.9054331102362204
21
1.5656692913385826
0
LINE
8
BLACK
6
CONTINUOUS
10
0.9054331102362204
20
1.5656692913385826
11
0.9054331102362204
21
1.6256692913385826
0
LINE
8
BLACK
6
CONTINUOUS
10
0.9054331102362204
20
1.6256692913385826
11
0.9654331102362205
21
1.6256692913385826
0
LINE
8
BLACK
6
CONTINUOUS
10
0.9654331102362205
20
1.6256692913385826
11
0.9654331102362205
21
1.5656692913385826
0
LINE
8
BLACK
6
CONTINUOUS
10
0.6654331102362204
20
1.6656692913385827
11
0.6054331102362205
21
1.6656692913385827
0
LINE
8
BLACK
6
CONTINUOUS
10
0.6054331102362205
20
1.6656692913385827
11
0.6054331102362205
21
1.7256692913385827
0
LINE
8
BLACK
6
CONTINUOUS
10
0.6054331102362205
20
1.7256692913385827
11
0.6654331102362204
21
1.7256692913385827
0
LINE
8
BLACK
6
CONTINUOUS
10
0.6654331102362204
20
1.7256692913385827
11
0.6654331102362204
21
1.6656692913385827
0
LINE
8
BLACK
6
CONTINUOUS
10
0.7654331102362204
20
1.6656692913385827
11
0.7054331102362205
21
1.6656692913385827
0
LINE
8
BLACK
6
CONTINUOUS
10
0.7054331102362205
20
1.6656692913385827
11
0.7054331102362205
21
1.7256692913385827
0
LINE
8
BLACK
6
CONTINUOUS
10
0.7054331102362205
20
1.7256692913385827
11
0.7654331102362204
21
1.7256692913385827
0
LINE
8
BLACK
6
CONTINUOUS
10
0.7654331102362204
20
1.7256692913385827
11
0.7654331102362204
21
1.6656692913385827
0
LINE
8
BLACK
6
CONTINUOUS
10
0.8654331102362205
20
1.6656692913385827
11
0.8054331102362204
21
1.6656692913385827
0
LINE
8
BLACK
6
CONTINUOUS
10
0.8054331102362204
20
1.6656692913385827
11
0.8054331102362204
21
1.7256692913385827
0
LINE
8
BLACK
6
CONTINUOUS
10
0.8054331102362204
20
1.7256692913385827
11
0.8654331102362205
21
1.7256692913385827
0
LINE
8
BLACK
6
CONTINUOUS
10
0.8654331102362205
20
1.7256692913385827
11
0.8654331102362205
21
1.6656692913385827
0
LINE
8
BLACK
6
CONTINUOUS
10
0.9654331102362205
20
1.6656692913385827
11
0.9054331102362204
21
1.6656692913385827
0
LINE
8
BLACK
6
CONTINUOUS
10
0.9054331102362204
20
1.6656692913385827
11
0.9054331102362204
21
1.7256692913385827
0
LINE
8
BLACK
6
CONTINUOUS
10
0.9054331102362204
20
1.7256692913385827
11
0.9654331102362205
21
1.7256692913385827
0
LINE
8
BLACK
6
CONTINUOUS
10
0.9654331102362205
20
1.7256692913385827
11
0.9654331102362205
21
1.6656692913385827
  0
ENDSEC
  0
EOF
