  0
SECTION
  2
HEADER
  9
$ANGBASE
  50
0.0
  9
$ANGDIR
  70
1
  9
$MEASUREMENT
  70
0
  0
ENDSEC
  0
SECTION
  2
TABLES
  0
TABLE
  2
LTYPE
  70
4
  0
LTYPE
  5
40F
  2
CONTINUOUS
  70
0
  3
Solid line
  72
65
  73
0
  40
0.0
  0
LTYPE
  5
410
  2
DASHDOT
 70
0
  3
Dash Dot ____ _ ____ _
 72
65
 73
4
 40
2.0
 49
1.25
 49
-0.25
 49
0.25
 49
-0.25
  0
LTYPE
  5
411
  2
DASHED
 70
0
  3
Dashed __ __ __ __ __
 72
65
 73
2
 40
0.75
 49
0.5
 49
-0.25
  0
LTYPE
  5
43B
  2
DOTTED
 70
0
  3
Dotted .  .  .  .
 72
65
 73
2
 40
0.2
 49
0.0
 49
-0.2
  0
ENDTAB
  0
TABLE
  2
STYLE
  70
4
  0
STYLE
  2
KICAD
  70
0
  40
0
  41
1
  42
1
  50
0
  71
0
  3
isocp.shx
  0
STYLE
  2
KICADB
  70
0
  40
0
  41
1
  42
1
  50
0
  71
0
  3
isocp.shx
  0
STYLE
  2
KICADI
  70
0
  40
0
  41
1
  42
1
  50
15
  71
0
  3
isocp.shx
  0
STYLE
  2
KICADBI
  70
0
  40
0
  41
1
  42
1
  50
15
  71
0
  3
isocp.shx
  0
ENDTAB
  0
TABLE
  2
LAYER
  70
1
  0
LAYER
  2
BLACK
  70
0
  62
7
  6
CONTINUOUS
  0
ENDTAB
  0
ENDSEC
  0
SECTION
  2
ENTITIES
0
LINE
8
BLACK
6
CONTINUOUS
10
0.8110236220472441
20
1.1131889763779528
11
0.8117196062992126
21
1.1129007086614173
0
LINE
8
BLACK
6
CONTINUOUS
10
0.8117196062992126
20
1.1129007086614173
11
0.812007874015748
21
1.1122047244094488
0
LINE
8
BLACK
6
CONTINUOUS
10
0.812007874015748
20
1.1122047244094488
11
0.812007874015748
21
0.9744094488188976
0
LINE
8
BLACK
6
CONTINUOUS
10
0.812007874015748
20
0.9744094488188976
11
0.8117196062992126
21
0.9737134645669291
0
LINE
8
BLACK
6
CONTINUOUS
10
0.8117196062992126
20
0.9737134645669291
11
0.8110236220472441
21
0.9734251968503936
0
LINE
8
BLACK
6
CONTINUOUS
10
0.8110236220472441
20
0.9734251968503936
11
0.5354330708661417
21
0.9734251968503936
0
LINE
8
BLACK
6
CONTINUOUS
10
0.5354330708661417
20
0.9734251968503936
11
0.5347370866141732
21
0.9737134645669291
0
LINE
8
BLACK
6
CONTINUOUS
10
0.5347370866141732
20
0.9737134645669291
11
0.5344488188976377
21
0.9744094488188976
0
LINE
8
BLACK
6
CONTINUOUS
10
0.5344488188976377
20
0.9744094488188976
11
0.5344488188976377
21
1.1122047244094488
0
LINE
8
BLACK
6
CONTINUOUS
10
0.5344488188976377
20
1.1122047244094488
11
0.5347370866141732
21
1.1129007086614173
0
LINE
8
BLACK
6
CONTINUOUS
10
0.5347370866141732
20
1.1129007086614173
11
0.5354330708661417
21
1.1131889763779528
0
LINE
8
BLACK
6
CONTINUOUS
10
0.5354330708661417
20
1.1131889763779528
11
0.8110236220472441
21
1.1131889763779528
0
LINE
8
BLACK
6
CONTINUOUS
10
0.5364173228346456
20
1.1112204724409449
11
0.5364173228346456
21
0.9753937007874015
0
LINE
8
BLACK
6
CONTINUOUS
10
0.5364173228346456
20
0.9753937007874015
11
0.8100393700787402
21
0.9753937007874015
0
LINE
8
BLACK
6
CONTINUOUS
10
0.8100393700787402
20
0.9753937007874015
11
0.8100393700787402
21
1.1112204724409449
0
LINE
8
BLACK
6
CONTINUOUS
10
0.8100393700787402
20
1.1112204724409449
11
0.5364173228346456
21
1.1112204724409449
0
LINE
8
BLACK
6
CONTINUOUS
10
1.0905511811023623
20
1.1131889763779528
11
1.0912471653543308
21
1.1129007086614173
0
LINE
8
BLACK
6
CONTINUOUS
10
1.0912471653543308
20
1.1129007086614173
11
1.0915354330708662
21
1.1122047244094488
0
LINE
8
BLACK
6
CONTINUOUS
10
1.0915354330708662
20
1.1122047244094488
11
1.0915354330708662
21
0.9744094488188976
0
LINE
8
BLACK
6
CONTINUOUS
10
1.0915354330708662
20
0.9744094488188976
11
1.0912471653543308
21
0.9737134645669291
0
LINE
8
BLACK
6
CONTINUOUS
10
1.0912471653543308
20
0.9737134645669291
11
1.0905511811023623
21
0.9734251968503936
0
LINE
8
BLACK
6
CONTINUOUS
10
1.0905511811023623
20
0.9734251968503936
11
0.8149606299212598
21
0.9734251968503936
0
LINE
8
BLACK
6
CONTINUOUS
10
0.8149606299212598
20
0.9734251968503936
11
0.8142646456692914
21
0.9737134645669291
0
LINE
8
BLACK
6
CONTINUOUS
10
0.8142646456692914
20
0.9737134645669291
11
0.8139763779527559
21
0.9744094488188976
0
LINE
8
BLACK
6
CONTINUOUS
10
0.8139763779527559
20
0.9744094488188976
11
0.8139763779527559
21
1.1122047244094488
0
LINE
8
BLACK
6
CONTINUOUS
10
0.8139763779527559
20
1.1122047244094488
11
0.8142646456692914
21
1.1129007086614173
0
LINE
8
BLACK
6
CONTINUOUS
10
0.8142646456692914
20
1.1129007086614173
11
0.8149606299212598
21
1.1131889763779528
0
LINE
8
BLACK
6
CONTINUOUS
10
0.8149606299212598
20
1.1131889763779528
11
1.0905511811023623
21
1.1131889763779528
0
LINE
8
BLACK
6
CONTINUOUS
10
0.8159448818897638
20
1.1112204724409449
11
0.8159448818897638
21
0.9753937007874015
0
LINE
8
BLACK
6
CONTINUOUS
10
0.8159448818897638
20
0.9753937007874015
11
1.0895669291338583
21
0.9753937007874015
0
LINE
8
BLACK
6
CONTINUOUS
10
1.0895669291338583
20
0.9753937007874015
11
1.0895669291338583
21
1.1112204724409449
0
LINE
8
BLACK
6
CONTINUOUS
10
1.0895669291338583
20
1.1112204724409449
11
0.8159448818897638
21
1.1112204724409449
0
LINE
8
BLACK
6
CONTINUOUS
10
0.5846456692913385
20
1.2487204724409449
11
0.585341653543307
21
1.2484322047244094
0
LINE
8
BLACK
6
CONTINUOUS
10
0.585341653543307
20
1.2484322047244094
11
0.5856299212598425
21
1.2477362204724409
0
LINE
8
BLACK
6
CONTINUOUS
10
0.5856299212598425
20
1.2477362204724409
11
0.5856299212598425
21
1.1154527559055119
0
LINE
8
BLACK
6
CONTINUOUS
10
0.5856299212598425
20
1.1154527559055119
11
0.585341653543307
21
1.1147567716535434
0
LINE
8
BLACK
6
CONTINUOUS
10
0.585341653543307
20
1.1147567716535434
11
0.5846456692913385
21
1.1144685039370079
0
LINE
8
BLACK
6
CONTINUOUS
10
0.5846456692913385
20
1.1144685039370079
11
0.5098425196850394
21
1.1144685039370079
0
LINE
8
BLACK
6
CONTINUOUS
10
0.5098425196850394
20
1.1144685039370079
11
0.5091465354330709
21
1.1147567716535434
0
LINE
8
BLACK
6
CONTINUOUS
10
0.5091465354330709
20
1.1147567716535434
11
0.5088582677165354
21
1.1154527559055119
0
LINE
8
BLACK
6
CONTINUOUS
10
0.5088582677165354
20
1.1154527559055119
11
0.5088582677165354
21
1.2477362204724409
0
LINE
8
BLACK
6
CONTINUOUS
10
0.5088582677165354
20
1.2477362204724409
11
0.5091465354330709
21
1.2484322047244094
0
LINE
8
BLACK
6
CONTINUOUS
10
0.5091465354330709
20
1.2484322047244094
11
0.5098425196850394
21
1.2487204724409449
0
LINE
8
BLACK
6
CONTINUOUS
10
0.5098425196850394
20
1.2487204724409449
11
0.5846456692913385
21
1.2487204724409449
0
LINE
8
BLACK
6
CONTINUOUS
10
0.5108267716535433
20
1.246751968503937
11
0.5108267716535433
21
1.1164370078740158
0
LINE
8
BLACK
6
CONTINUOUS
10
0.5108267716535433
20
1.1164370078740158
11
0.5836614173228346
21
1.1164370078740158
0
LINE
8
BLACK
6
CONTINUOUS
10
0.5836614173228346
20
1.1164370078740158
11
0.5836614173228346
21
1.246751968503937
0
LINE
8
BLACK
6
CONTINUOUS
10
0.5836614173228346
20
1.246751968503937
11
0.5108267716535433
21
1.246751968503937
0
LINE
8
BLACK
6
CONTINUOUS
10
0.9535433070866142
20
1.4301181102362204
11
0.9542392913385827
21
1.4298298425196849
0
LINE
8
BLACK
6
CONTINUOUS
10
0.9542392913385827
20
1.4298298425196849
11
0.9545275590551181
21
1.4291338582677164
0
LINE
8
BLACK
6
CONTINUOUS
10
0.9545275590551181
20
1.4291338582677164
11
0.9545275590551181
21
1.3985405511811024
0
LINE
8
BLACK
6
CONTINUOUS
10
0.9545275590551181
20
1.3985405511811024
11
0.9547244094488189
21
1.3986220472440944
0
LINE
8
BLACK
6
CONTINUOUS
10
0.9547244094488189
20
1.3986220472440944
11
1.0925196850393701
21
1.3986220472440944
0
LINE
8
BLACK
6
CONTINUOUS
10
1.0925196850393701
20
1.3986220472440944
11
1.0932156692913386
21
1.398333779527559
0
LINE
8
BLACK
6
CONTINUOUS
10
1.0932156692913386
20
1.398333779527559
11
1.0935039370078741
21
1.3976377952755905
0
LINE
8
BLACK
6
CONTINUOUS
10
1.0935039370078741
20
1.3976377952755905
11
1.0935039370078741
21
1.1220472440944882
0
LINE
8
BLACK
6
CONTINUOUS
10
1.0935039370078741
20
1.1220472440944882
11
1.0932156692913386
21
1.1213512598425197
0
LINE
8
BLACK
6
CONTINUOUS
10
1.0932156692913386
20
1.1213512598425197
11
1.0925196850393701
21
1.1210629921259843
0
LINE
8
BLACK
6
CONTINUOUS
10
1.0925196850393701
20
1.1210629921259843
11
0.9547244094488189
21
1.1210629921259843
0
LINE
8
BLACK
6
CONTINUOUS
10
0.9547244094488189
20
1.1210629921259843
11
0.9540284251968504
21
1.1213512598425197
0
LINE
8
BLACK
6
CONTINUOUS
10
0.9540284251968504
20
1.1213512598425197
11
0.9537401574803149
21
1.1220472440944882
0
LINE
8
BLACK
6
CONTINUOUS
10
0.9537401574803149
20
1.1220472440944882
11
0.9537401574803149
21
1.2943728740157481
0
LINE
8
BLACK
6
CONTINUOUS
10
0.9537401574803149
20
1.2943728740157481
11
0.9535433070866142
21
1.2942913385826771
0
LINE
8
BLACK
6
CONTINUOUS
10
0.9535433070866142
20
1.2942913385826771
11
0.8023622047244094
21
1.2942913385826771
0
LINE
8
BLACK
6
CONTINUOUS
10
0.8023622047244094
20
1.2942913385826771
11
0.801666220472441
21
1.2945796062992125
0
LINE
8
BLACK
6
CONTINUOUS
10
0.801666220472441
20
1.2945796062992125
11
0.8013779527559055
21
1.295275590551181
0
LINE
8
BLACK
6
CONTINUOUS
10
0.8013779527559055
20
1.295275590551181
11
0.8013779527559055
21
1.4291338582677164
0
LINE
8
BLACK
6
CONTINUOUS
10
0.8013779527559055
20
1.4291338582677164
11
0.801666220472441
21
1.4298298425196849
0
LINE
8
BLACK
6
CONTINUOUS
10
0.801666220472441
20
1.4298298425196849
11
0.8023622047244094
21
1.4301181102362204
0
LINE
8
BLACK
6
CONTINUOUS
10
0.8023622047244094
20
1.4301181102362204
11
0.9535433070866142
21
1.4301181102362204
0
LINE
8
BLACK
6
CONTINUOUS
10
0.9557086614173228
20
1.3966535433070866
11
0.9557086614173228
21
1.1230314960629921
0
LINE
8
BLACK
6
CONTINUOUS
10
0.9557086614173228
20
1.1230314960629921
11
1.0915354330708662
21
1.1230314960629921
0
LINE
8
BLACK
6
CONTINUOUS
10
1.0915354330708662
20
1.1230314960629921
11
1.0915354330708662
21
1.3966535433070866
0
LINE
8
BLACK
6
CONTINUOUS
10
1.0915354330708662
20
1.3966535433070866
11
0.9557086614173228
21
1.3966535433070866
0
LINE
8
BLACK
6
CONTINUOUS
10
0.8033464566929134
20
1.4281496062992125
11
0.8033464566929134
21
1.296259842519685
0
LINE
8
BLACK
6
CONTINUOUS
10
0.8033464566929134
20
1.296259842519685
11
0.9525590551181102
21
1.296259842519685
0
LINE
8
BLACK
6
CONTINUOUS
10
0.9525590551181102
20
1.296259842519685
11
0.9525590551181102
21
1.4281496062992125
0
LINE
8
BLACK
6
CONTINUOUS
10
0.9525590551181102
20
1.4281496062992125
11
0.8033464566929134
21
1.4281496062992125
0
LINE
8
BLACK
6
CONTINUOUS
10
0.9520669291338583
20
1.2726377952755905
11
0.9527629133858267
21
1.2723495275590551
0
LINE
8
BLACK
6
CONTINUOUS
10
0.9527629133858267
20
1.2723495275590551
11
0.9530511811023622
21
1.2716535433070866
0
LINE
8
BLACK
6
CONTINUOUS
10
0.9530511811023622
20
1.2716535433070866
11
0.9530511811023622
21
1.1377952755905512
0
LINE
8
BLACK
6
CONTINUOUS
10
0.9530511811023622
20
1.1377952755905512
11
0.9527629133858267
21
1.1370992913385827
0
LINE
8
BLACK
6
CONTINUOUS
10
0.9527629133858267
20
1.1370992913385827
11
0.9520669291338583
21
1.1368110236220472
0
LINE
8
BLACK
6
CONTINUOUS
10
0.9520669291338583
20
1.1368110236220472
11
0.8008858267716535
21
1.1368110236220472
0
LINE
8
BLACK
6
CONTINUOUS
10
0.8008858267716535
20
1.1368110236220472
11
0.8001898425196851
21
1.1370992913385827
0
LINE
8
BLACK
6
CONTINUOUS
10
0.8001898425196851
20
1.1370992913385827
11
0.7999015748031496
21
1.1377952755905512
0
LINE
8
BLACK
6
CONTINUOUS
10
0.7999015748031496
20
1.1377952755905512
11
0.7999015748031496
21
1.2716535433070866
0
LINE
8
BLACK
6
CONTINUOUS
10
0.7999015748031496
20
1.2716535433070866
11
0.8001898425196851
21
1.2723495275590551
0
LINE
8
BLACK
6
CONTINUOUS
10
0.8001898425196851
20
1.2723495275590551
11
0.8008858267716535
21
1.2726377952755905
0
LINE
8
BLACK
6
CONTINUOUS
10
0.8008858267716535
20
1.2726377952755905
11
0.9520669291338583
21
1.2726377952755905
0
LINE
8
BLACK
6
CONTINUOUS
10
0.8018700787401575
20
1.2706692913385826
11
0.8018700787401575
21
1.1387795275590551
0
LINE
8
BLACK
6
CONTINUOUS
10
0.8018700787401575
20
1.1387795275590551
11
0.9510826771653543
21
1.1387795275590551
0
LINE
8
BLACK
6
CONTINUOUS
10
0.9510826771653543
20
1.1387795275590551
11
0.9510826771653543
21
1.2706692913385826
0
LINE
8
BLACK
6
CONTINUOUS
10
0.9510826771653543
20
1.2706692913385826
11
0.8018700787401575
21
1.2706692913385826
0
LINE
8
BLACK
6
CONTINUOUS
10
0.797244094488189
20
1.2718503937007875
11
0.7979400787401575
21
1.271562125984252
0
LINE
8
BLACK
6
CONTINUOUS
10
0.7979400787401575
20
1.271562125984252
11
0.7982283464566929
21
1.2708661417322835
0
LINE
8
BLACK
6
CONTINUOUS
10
0.7982283464566929
20
1.2708661417322835
11
0.7982283464566929
21
1.1385826771653542
0
LINE
8
BLACK
6
CONTINUOUS
10
0.7982283464566929
20
1.1385826771653542
11
0.7979400787401575
21
1.1378866929133857
0
LINE
8
BLACK
6
CONTINUOUS
10
0.7979400787401575
20
1.1378866929133857
11
0.797244094488189
21
1.1375984251968503
0
LINE
8
BLACK
6
CONTINUOUS
10
0.797244094488189
20
1.1375984251968503
11
0.7224409448818897
21
1.1375984251968503
0
LINE
8
BLACK
6
CONTINUOUS
10
0.7224409448818897
20
1.1375984251968503
11
0.7217449606299212
21
1.1378866929133857
0
LINE
8
BLACK
6
CONTINUOUS
10
0.7217449606299212
20
1.1378866929133857
11
0.7214566929133858
21
1.1385826771653542
0
LINE
8
BLACK
6
CONTINUOUS
10
0.7214566929133858
20
1.1385826771653542
11
0.7214566929133858
21
1.2708661417322835
0
LINE
8
BLACK
6
CONTINUOUS
10
0.7214566929133858
20
1.2708661417322835
11
0.7217449606299212
21
1.271562125984252
0
LINE
8
BLACK
6
CONTINUOUS
10
0.7217449606299212
20
1.271562125984252
11
0.7224409448818897
21
1.2718503937007875
0
LINE
8
BLACK
6
CONTINUOUS
10
0.7224409448818897
20
1.2718503937007875
11
0.797244094488189
21
1.2718503937007875
0
LINE
8
BLACK
6
CONTINUOUS
10
0.7234251968503936
20
1.2698818897637796
11
0.7234251968503936
21
1.1395669291338582
0
LINE
8
BLACK
6
CONTINUOUS
10
0.7234251968503936
20
1.1395669291338582
11
0.7962598425196851
21
1.1395669291338582
0
LINE
8
BLACK
6
CONTINUOUS
10
0.7962598425196851
20
1.1395669291338582
11
0.7962598425196851
21
1.2698818897637796
0
LINE
8
BLACK
6
CONTINUOUS
10
0.7962598425196851
20
1.2698818897637796
11
0.7234251968503936
21
1.2698818897637796
0
LINE
8
BLACK
6
CONTINUOUS
10
0.7196850393700788
20
1.2588582677165354
11
0.7203810236220473
21
1.25857
0
LINE
8
BLACK
6
CONTINUOUS
10
0.7203810236220473
20
1.25857
11
0.7206692913385827
21
1.2578740157480315
0
LINE
8
BLACK
6
CONTINUOUS
10
0.7206692913385827
20
1.2578740157480315
11
0.7206692913385827
21
1.1830708661417322
0
LINE
8
BLACK
6
CONTINUOUS
10
0.7206692913385827
20
1.1830708661417322
11
0.7203810236220473
21
1.1823748818897637
0
LINE
8
BLACK
6
CONTINUOUS
10
0.7203810236220473
20
1.1823748818897637
11
0.7196850393700788
21
1.1820866141732282
0
LINE
8
BLACK
6
CONTINUOUS
10
0.7196850393700788
20
1.1820866141732282
11
0.5874015748031496
21
1.1820866141732282
0
LINE
8
BLACK
6
CONTINUOUS
10
0.5874015748031496
20
1.1820866141732282
11
0.5867055905511811
21
1.1823748818897637
0
LINE
8
BLACK
6
CONTINUOUS
10
0.5867055905511811
20
1.1823748818897637
11
0.5864173228346456
21
1.1830708661417322
0
LINE
8
BLACK
6
CONTINUOUS
10
0.5864173228346456
20
1.1830708661417322
11
0.5864173228346456
21
1.2578740157480315
0
LINE
8
BLACK
6
CONTINUOUS
10
0.5864173228346456
20
1.2578740157480315
11
0.5867055905511811
21
1.25857
0
LINE
8
BLACK
6
CONTINUOUS
10
0.5867055905511811
20
1.25857
11
0.5874015748031496
21
1.2588582677165354
0
LINE
8
BLACK
6
CONTINUOUS
10
0.5874015748031496
20
1.2588582677165354
11
0.7196850393700788
21
1.2588582677165354
0
LINE
8
BLACK
6
CONTINUOUS
10
0.5883858267716535
20
1.2568897637795275
11
0.5883858267716535
21
1.1840551181102361
0
LINE
8
BLACK
6
CONTINUOUS
10
0.5883858267716535
20
1.1840551181102361
11
0.7187007874015748
21
1.1840551181102361
0
LINE
8
BLACK
6
CONTINUOUS
10
0.7187007874015748
20
1.1840551181102361
11
0.7187007874015748
21
1.2568897637795275
0
LINE
8
BLACK
6
CONTINUOUS
10
0.7187007874015748
20
1.2568897637795275
11
0.5883858267716535
21
1.2568897637795275
0
LINE
8
BLACK
6
CONTINUOUS
10
0.718503937007874
20
1.5403543307086613
11
0.7191999212598426
21
1.5400660629921259
0
LINE
8
BLACK
6
CONTINUOUS
10
0.7191999212598426
20
1.5400660629921259
11
0.7194881889763779
21
1.5393700787401574
0
LINE
8
BLACK
6
CONTINUOUS
10
0.7194881889763779
20
1.5393700787401574
11
0.7194881889763779
21
1.2637795275590551
0
LINE
8
BLACK
6
CONTINUOUS
10
0.7194881889763779
20
1.2637795275590551
11
0.7191999212598426
21
1.2630835433070866
0
LINE
8
BLACK
6
CONTINUOUS
10
0.7191999212598426
20
1.2630835433070866
11
0.718503937007874
21
1.2627952755905512
0
LINE
8
BLACK
6
CONTINUOUS
10
0.718503937007874
20
1.2627952755905512
11
0.5807086614173228
21
1.2627952755905512
0
LINE
8
BLACK
6
CONTINUOUS
10
0.5807086614173228
20
1.2627952755905512
11
0.5800126771653543
21
1.2630835433070866
0
LINE
8
BLACK
6
CONTINUOUS
10
0.5800126771653543
20
1.2630835433070866
11
0.5797244094488189
21
1.2637795275590551
0
LINE
8
BLACK
6
CONTINUOUS
10
0.5797244094488189
20
1.2637795275590551
11
0.5797244094488189
21
1.5393700787401574
0
LINE
8
BLACK
6
CONTINUOUS
10
0.5797244094488189
20
1.5393700787401574
11
0.5800126771653543
21
1.5400660629921259
0
LINE
8
BLACK
6
CONTINUOUS
10
0.5800126771653543
20
1.5400660629921259
11
0.5807086614173228
21
1.5403543307086613
0
LINE
8
BLACK
6
CONTINUOUS
10
0.5807086614173228
20
1.5403543307086613
11
0.718503937007874
21
1.5403543307086613
0
LINE
8
BLACK
6
CONTINUOUS
10
0.5816929133858267
20
1.5383858267716535
11
0.5816929133858267
21
1.264763779527559
0
LINE
8
BLACK
6
CONTINUOUS
10
0.5816929133858267
20
1.264763779527559
11
0.71751968503937
21
1.264763779527559
0
LINE
8
BLACK
6
CONTINUOUS
10
0.71751968503937
20
1.264763779527559
11
0.71751968503937
21
1.5383858267716535
0
LINE
8
BLACK
6
CONTINUOUS
10
0.71751968503937
20
1.5383858267716535
11
0.5816929133858267
21
1.5383858267716535
0
LINE
8
BLACK
6
CONTINUOUS
10
0.797244094488189
20
1.4293307086614173
11
0.7979400787401575
21
1.4290424409448819
0
LINE
8
BLACK
6
CONTINUOUS
10
0.7979400787401575
20
1.4290424409448819
11
0.7982283464566929
21
1.4283464566929134
0
LINE
8
BLACK
6
CONTINUOUS
10
0.7982283464566929
20
1.4283464566929134
11
0.7982283464566929
21
1.2960629921259843
0
LINE
8
BLACK
6
CONTINUOUS
10
0.7982283464566929
20
1.2960629921259843
11
0.7979400787401575
21
1.2953670078740158
0
LINE
8
BLACK
6
CONTINUOUS
10
0.7979400787401575
20
1.2953670078740158
11
0.797244094488189
21
1.2950787401574804
0
LINE
8
BLACK
6
CONTINUOUS
10
0.797244094488189
20
1.2950787401574804
11
0.7224409448818897
21
1.2950787401574804
0
LINE
8
BLACK
6
CONTINUOUS
10
0.7224409448818897
20
1.2950787401574804
11
0.7217449606299212
21
1.2953670078740158
0
LINE
8
BLACK
6
CONTINUOUS
10
0.7217449606299212
20
1.2953670078740158
11
0.7214566929133858
21
1.2960629921259843
0
LINE
8
BLACK
6
CONTINUOUS
10
0.7214566929133858
20
1.2960629921259843
11
0.7214566929133858
21
1.4283464566929134
0
LINE
8
BLACK
6
CONTINUOUS
10
0.7214566929133858
20
1.4283464566929134
11
0.7217449606299212
21
1.4290424409448819
0
LINE
8
BLACK
6
CONTINUOUS
10
0.7217449606299212
20
1.4290424409448819
11
0.7224409448818897
21
1.4293307086614173
0
LINE
8
BLACK
6
CONTINUOUS
10
0.7224409448818897
20
1.4293307086614173
11
0.797244094488189
21
1.4293307086614173
0
LINE
8
BLACK
6
CONTINUOUS
10
0.7234251968503936
20
1.4273622047244094
11
0.7234251968503936
21
1.2970472440944882
0
LINE
8
BLACK
6
CONTINUOUS
10
0.7234251968503936
20
1.2970472440944882
11
0.7962598425196851
21
1.2970472440944882
0
LINE
8
BLACK
6
CONTINUOUS
10
0.7962598425196851
20
1.2970472440944882
11
0.7962598425196851
21
1.4273622047244094
0
LINE
8
BLACK
6
CONTINUOUS
10
0.7962598425196851
20
1.4273622047244094
11
0.7234251968503936
21
1.4273622047244094
0
LINE
8
BLACK
6
CONTINUOUS
10
0.8641732283464567
20
1.5474409448818898
11
0.8648692125984252
21
1.5471526771653543
0
LINE
8
BLACK
6
CONTINUOUS
10
0.8648692125984252
20
1.5471526771653543
11
0.8651574803149606
21
1.5464566929133858
0
LINE
8
BLACK
6
CONTINUOUS
10
0.8651574803149606
20
1.5464566929133858
11
0.8651574803149606
21
1.4692913385826771
0
LINE
8
BLACK
6
CONTINUOUS
10
0.8651574803149606
20
1.4692913385826771
11
0.8648692125984252
21
1.4685953543307086
0
LINE
8
BLACK
6
CONTINUOUS
10
0.8648692125984252
20
1.4685953543307086
11
0.8641732283464567
21
1.4683070866141732
0
LINE
8
BLACK
6
CONTINUOUS
10
0.8641732283464567
20
1.4683070866141732
11
0.7303149606299213
21
1.4683070866141732
0
LINE
8
BLACK
6
CONTINUOUS
10
0.7303149606299213
20
1.4683070866141732
11
0.7296189763779527
21
1.4685953543307086
0
LINE
8
BLACK
6
CONTINUOUS
10
0.7296189763779527
20
1.4685953543307086
11
0.7293307086614174
21
1.4692913385826771
0
LINE
8
BLACK
6
CONTINUOUS
10
0.7293307086614174
20
1.4692913385826771
11
0.7293307086614174
21
1.5464566929133858
0
LINE
8
BLACK
6
CONTINUOUS
10
0.7293307086614174
20
1.5464566929133858
11
0.7296189763779527
21
1.5471526771653543
0
LINE
8
BLACK
6
CONTINUOUS
10
0.7296189763779527
20
1.5471526771653543
11
0.7303149606299213
21
1.5474409448818898
0
LINE
8
BLACK
6
CONTINUOUS
10
0.7303149606299213
20
1.5474409448818898
11
0.8641732283464567
21
1.5474409448818898
0
LINE
8
BLACK
6
CONTINUOUS
10
0.7312992125984252
20
1.5454724409448819
11
0.7312992125984252
21
1.4702755905511811
0
LINE
8
BLACK
6
CONTINUOUS
10
0.7312992125984252
20
1.4702755905511811
11
0.8631889763779528
21
1.4702755905511811
0
LINE
8
BLACK
6
CONTINUOUS
10
0.8631889763779528
20
1.4702755905511811
11
0.8631889763779528
21
1.5454724409448819
0
LINE
8
BLACK
6
CONTINUOUS
10
0.8631889763779528
20
1.5454724409448819
11
0.7312992125984252
21
1.5454724409448819
0
LINE
8
BLACK
6
CONTINUOUS
10
1.0019685039370079
20
1.5474409448818898
11
1.0026644881889764
21
1.5471526771653543
0
LINE
8
BLACK
6
CONTINUOUS
10
1.0026644881889764
20
1.5471526771653543
11
1.0029527559055118
21
1.5464566929133858
0
LINE
8
BLACK
6
CONTINUOUS
10
1.0029527559055118
20
1.5464566929133858
11
1.0029527559055118
21
1.4692913385826771
0
LINE
8
BLACK
6
CONTINUOUS
10
1.0029527559055118
20
1.4692913385826771
11
1.0026644881889764
21
1.4685953543307086
0
LINE
8
BLACK
6
CONTINUOUS
10
1.0026644881889764
20
1.4685953543307086
11
1.0019685039370079
21
1.4683070866141732
0
LINE
8
BLACK
6
CONTINUOUS
10
1.0019685039370079
20
1.4683070866141732
11
0.8681102362204725
21
1.4683070866141732
0
LINE
8
BLACK
6
CONTINUOUS
10
0.8681102362204725
20
1.4683070866141732
11
0.867414251968504
21
1.4685953543307086
0
LINE
8
BLACK
6
CONTINUOUS
10
0.867414251968504
20
1.4685953543307086
11
0.8671259842519685
21
1.4692913385826771
0
LINE
8
BLACK
6
CONTINUOUS
10
0.8671259842519685
20
1.4692913385826771
11
0.8671259842519685
21
1.5464566929133858
0
LINE
8
BLACK
6
CONTINUOUS
10
0.8671259842519685
20
1.5464566929133858
11
0.867414251968504
21
1.5471526771653543
0
LINE
8
BLACK
6
CONTINUOUS
10
0.867414251968504
20
1.5471526771653543
11
0.8681102362204725
21
1.5474409448818898
0
LINE
8
BLACK
6
CONTINUOUS
10
0.8681102362204725
20
1.5474409448818898
11
1.0019685039370079
21
1.5474409448818898
0
LINE
8
BLACK
6
CONTINUOUS
10
0.8690944881889764
20
1.5454724409448819
11
0.8690944881889764
21
1.4702755905511811
0
LINE
8
BLACK
6
CONTINUOUS
10
0.8690944881889764
20
1.4702755905511811
11
1.0009842519685039
21
1.4702755905511811
0
LINE
8
BLACK
6
CONTINUOUS
10
1.0009842519685039
20
1.4702755905511811
11
1.0009842519685039
21
1.5454724409448819
0
LINE
8
BLACK
6
CONTINUOUS
10
1.0009842519685039
20
1.5454724409448819
11
0.8690944881889764
21
1.5454724409448819
  0
ENDSEC
  0
EOF
