  0
SECTION
  2
HEADER
  9
$ANGBASE
  50
0.0
  9
$ANGDIR
  70
1
  9
$MEASUREMENT
  70
0
  0
ENDSEC
  0
SECTION
  2
TABLES
  0
TABLE
  2
LTYPE
  70
4
  0
LTYPE
  5
40F
  2
CONTINUOUS
  70
0
  3
Solid line
  72
65
  73
0
  40
0.0
  0
LTYPE
  5
410
  2
DASHDOT
 70
0
  3
Dash Dot ____ _ ____ _
 72
65
 73
4
 40
2.0
 49
1.25
 49
-0.25
 49
0.25
 49
-0.25
  0
LTYPE
  5
411
  2
DASHED
 70
0
  3
Dashed __ __ __ __ __
 72
65
 73
2
 40
0.75
 49
0.5
 49
-0.25
  0
LTYPE
  5
43B
  2
DOTTED
 70
0
  3
Dotted .  .  .  .
 72
65
 73
2
 40
0.2
 49
0.0
 49
-0.2
  0
ENDTAB
  0
TABLE
  2
STYLE
  70
4
  0
STYLE
  2
KICAD
  70
0
  40
0
  41
1
  42
1
  50
0
  71
0
  3
isocp.shx
  0
STYLE
  2
KICADB
  70
0
  40
0
  41
1
  42
1
  50
0
  71
0
  3
isocp.shx
  0
STYLE
  2
KICADI
  70
0
  40
0
  41
1
  42
1
  50
15
  71
0
  3
isocp.shx
  0
STYLE
  2
KICADBI
  70
0
  40
0
  41
1
  42
1
  50
15
  71
0
  3
isocp.shx
  0
ENDTAB
  0
TABLE
  2
LAYER
  70
1
  0
LAYER
  2
BLACK
  70
0
  62
7
  6
CONTINUOUS
  0
ENDTAB
  0
ENDSEC
  0
SECTION
  2
ENTITIES
0
LINE
8
BLACK
6
CONTINUOUS
10
1.0088582677165354
20
0.9714566929133858
11
1.0095542519685039
21
0.9711684251968504
0
LINE
8
BLACK
6
CONTINUOUS
10
1.0095542519685039
20
0.9711684251968504
11
1.0098425196850394
21
0.9704724409448818
0
LINE
8
BLACK
6
CONTINUOUS
10
1.0098425196850394
20
0.9704724409448818
11
1.0098425196850394
21
0.3700787401574803
0
LINE
8
BLACK
6
CONTINUOUS
10
1.0098425196850394
20
0.3700787401574803
11
1.0095542519685039
21
0.3693827559055118
0
LINE
8
BLACK
6
CONTINUOUS
10
1.0095542519685039
20
0.3693827559055118
11
1.0088582677165354
21
0.3690944881889764
0
LINE
8
BLACK
6
CONTINUOUS
10
1.0088582677165354
20
0.3690944881889764
11
0.5895669291338582
21
0.3690944881889764
0
LINE
8
BLACK
6
CONTINUOUS
10
0.5895669291338582
20
0.3690944881889764
11
0.5888709448818897
21
0.3693827559055118
0
LINE
8
BLACK
6
CONTINUOUS
10
0.5888709448818897
20
0.3693827559055118
11
0.5885826771653543
21
0.3700787401574803
0
LINE
8
BLACK
6
CONTINUOUS
10
0.5885826771653543
20
0.3700787401574803
11
0.5885826771653543
21
0.9704724409448818
0
LINE
8
BLACK
6
CONTINUOUS
10
0.5885826771653543
20
0.9704724409448818
11
0.5888709448818897
21
0.9711684251968504
0
LINE
8
BLACK
6
CONTINUOUS
10
0.5888709448818897
20
0.9711684251968504
11
0.5895669291338582
21
0.9714566929133858
0
LINE
8
BLACK
6
CONTINUOUS
10
0.5895669291338582
20
0.9714566929133858
11
1.0088582677165354
21
0.9714566929133858
0
LINE
8
BLACK
6
CONTINUOUS
10
0.5905511811023622
20
0.9694881889763779
11
0.5905511811023622
21
0.3710629921259843
0
LINE
8
BLACK
6
CONTINUOUS
10
0.5905511811023622
20
0.3710629921259843
11
1.0078740157480315
21
0.3710629921259843
0
LINE
8
BLACK
6
CONTINUOUS
10
1.0078740157480315
20
0.3710629921259843
11
1.0078740157480315
21
0.9694881889763779
0
LINE
8
BLACK
6
CONTINUOUS
10
1.0078740157480315
20
0.9694881889763779
11
0.5905511811023622
21
0.9694881889763779
  0
ENDSEC
  0
EOF
