  0
SECTION
  2
HEADER
  9
$ANGBASE
  50
0.0
  9
$ANGDIR
  70
1
  9
$MEASUREMENT
  70
0
  0
ENDSEC
  0
SECTION
  2
TABLES
  0
TABLE
  2
LTYPE
  70
4
  0
LTYPE
  5
40F
  2
CONTINUOUS
  70
0
  3
Solid line
  72
65
  73
0
  40
0.0
  0
LTYPE
  5
410
  2
DASHDOT
 70
0
  3
Dash Dot ____ _ ____ _
 72
65
 73
4
 40
2.0
 49
1.25
 49
-0.25
 49
0.25
 49
-0.25
  0
LTYPE
  5
411
  2
DASHED
 70
0
  3
Dashed __ __ __ __ __
 72
65
 73
2
 40
0.75
 49
0.5
 49
-0.25
  0
LTYPE
  5
43B
  2
DOTTED
 70
0
  3
Dotted .  .  .  .
 72
65
 73
2
 40
0.2
 49
0.0
 49
-0.2
  0
ENDTAB
  0
TABLE
  2
STYLE
  70
4
  0
STYLE
  2
KICAD
  70
0
  40
0
  41
1
  42
1
  50
0
  71
0
  3
isocp.shx
  0
STYLE
  2
KICADB
  70
0
  40
0
  41
1
  42
1
  50
0
  71
0
  3
isocp.shx
  0
STYLE
  2
KICADI
  70
0
  40
0
  41
1
  42
1
  50
15
  71
0
  3
isocp.shx
  0
STYLE
  2
KICADBI
  70
0
  40
0
  41
1
  42
1
  50
15
  71
0
  3
isocp.shx
  0
ENDTAB
  0
TABLE
  2
LAYER
  70
1
  0
LAYER
  2
BLACK
  70
0
  62
7
  6
CONTINUOUS
  0
ENDTAB
  0
ENDSEC
  0
SECTION
  2
ENTITIES
0
LINE
8
BLACK
6
CONTINUOUS
10
0.4134434645669291
20
0.5193135433070866
11
0.4267177952755906
21
0.5170581496062993
0
LINE
8
BLACK
6
CONTINUOUS
10
0.4267177952755906
20
0.5170581496062993
11
0.4396561417322835
21
0.5133306692913385
0
LINE
8
BLACK
6
CONTINUOUS
10
0.4396561417322835
20
0.5133306692913385
11
0.4520958267716536
21
0.5081779921259842
0
LINE
8
BLACK
6
CONTINUOUS
10
0.4520958267716536
20
0.5081779921259842
11
0.4638803543307087
21
0.5016649212598425
0
LINE
8
BLACK
6
CONTINUOUS
10
0.4638803543307087
20
0.5016649212598425
11
0.4748615354330709
21
0.4938733464566929
0
LINE
8
BLACK
6
CONTINUOUS
10
0.4748615354330709
20
0.4938733464566929
11
0.4849012992125984
21
0.4849012598425197
0
LINE
8
BLACK
6
CONTINUOUS
10
0.4849012992125984
20
0.4849012598425197
11
0.4938733858267716
21
0.4748614960629921
0
LINE
8
BLACK
6
CONTINUOUS
10
0.4938733858267716
20
0.4748614960629921
11
0.5016649606299213
21
0.4638803149606299
0
LINE
8
BLACK
6
CONTINUOUS
10
0.5016649606299213
20
0.4638803149606299
11
0.508178031496063
21
0.4520957874015748
0
LINE
8
BLACK
6
CONTINUOUS
10
0.508178031496063
20
0.4520957874015748
11
0.5133307086614173
21
0.4396561023622047
0
LINE
8
BLACK
6
CONTINUOUS
10
0.5133307086614173
20
0.4396561023622047
11
0.5170581889763779
21
0.4267177559055118
0
LINE
8
BLACK
6
CONTINUOUS
10
0.5170581889763779
20
0.4267177559055118
11
0.5193135826771653
21
0.4134434251968504
0
LINE
8
BLACK
6
CONTINUOUS
10
0.5193135826771653
20
0.4134434251968504
11
0.5200685433070866
21
0.4
0
LINE
8
BLACK
6
CONTINUOUS
10
0.5200685433070866
20
0.4
11
0.5193135826771653
21
0.3865565748031496
0
LINE
8
BLACK
6
CONTINUOUS
10
0.5193135826771653
20
0.3865565748031496
11
0.5170581889763779
21
0.3732822440944882
0
LINE
8
BLACK
6
CONTINUOUS
10
0.5170581889763779
20
0.3732822440944882
11
0.5133307086614173
21
0.3603438976377953
0
LINE
8
BLACK
6
CONTINUOUS
10
0.5133307086614173
20
0.3603438976377953
11
0.508178031496063
21
0.3479042125984252
0
LINE
8
BLACK
6
CONTINUOUS
10
0.508178031496063
20
0.3479042125984252
11
0.5016649606299213
21
0.3361196850393701
0
LINE
8
BLACK
6
CONTINUOUS
10
0.5016649606299213
20
0.3361196850393701
11
0.4938733858267716
21
0.3251385039370079
0
LINE
8
BLACK
6
CONTINUOUS
10
0.4938733858267716
20
0.3251385039370079
11
0.4849012992125984
21
0.3150987401574803
0
LINE
8
BLACK
6
CONTINUOUS
10
0.4849012992125984
20
0.3150987401574803
11
0.4748615354330709
21
0.3061266535433071
0
LINE
8
BLACK
6
CONTINUOUS
10
0.4748615354330709
20
0.3061266535433071
11
0.4638803543307087
21
0.2983350787401575
0
LINE
8
BLACK
6
CONTINUOUS
10
0.4638803543307087
20
0.2983350787401575
11
0.4520958267716536
21
0.2918220078740157
0
LINE
8
BLACK
6
CONTINUOUS
10
0.4520958267716536
20
0.2918220078740157
11
0.4396561417322835
21
0.2866693307086614
0
LINE
8
BLACK
6
CONTINUOUS
10
0.4396561417322835
20
0.2866693307086614
11
0.4267177952755906
21
0.2829418503937008
0
LINE
8
BLACK
6
CONTINUOUS
10
0.4267177952755906
20
0.2829418503937008
11
0.4134434645669291
21
0.2806864566929134
0
LINE
8
BLACK
6
CONTINUOUS
10
0.4134434645669291
20
0.2806864566929134
11
0.4000000393700787
21
0.2799314960629921
0
LINE
8
BLACK
6
CONTINUOUS
10
0.4000000393700787
20
0.2799314960629921
11
0.3865566141732283
21
0.2806864566929134
0
LINE
8
BLACK
6
CONTINUOUS
10
0.3865566141732283
20
0.2806864566929134
11
0.3732822834645669
21
0.2829418503937008
0
LINE
8
BLACK
6
CONTINUOUS
10
0.3732822834645669
20
0.2829418503937008
11
0.360343937007874
21
0.2866693307086614
0
LINE
8
BLACK
6
CONTINUOUS
10
0.360343937007874
20
0.2866693307086614
11
0.3479042519685039
21
0.2918220078740157
0
LINE
8
BLACK
6
CONTINUOUS
10
0.3479042519685039
20
0.2918220078740157
11
0.3361197244094488
21
0.2983350787401575
0
LINE
8
BLACK
6
CONTINUOUS
10
0.3361197244094488
20
0.2983350787401575
11
0.3251385433070866
21
0.3061266535433071
0
LINE
8
BLACK
6
CONTINUOUS
10
0.3251385433070866
20
0.3061266535433071
11
0.315098779527559
21
0.3150987401574803
0
LINE
8
BLACK
6
CONTINUOUS
10
0.315098779527559
20
0.3150987401574803
11
0.3061266929133858
21
0.3251385039370079
0
LINE
8
BLACK
6
CONTINUOUS
10
0.3061266929133858
20
0.3251385039370079
11
0.2983351181102362
21
0.3361196850393701
0
LINE
8
BLACK
6
CONTINUOUS
10
0.2983351181102362
20
0.3361196850393701
11
0.2918220472440945
21
0.3479042125984252
0
LINE
8
BLACK
6
CONTINUOUS
10
0.2918220472440945
20
0.3479042125984252
11
0.2866693700787402
21
0.3603438976377953
0
LINE
8
BLACK
6
CONTINUOUS
10
0.2866693700787402
20
0.3603438976377953
11
0.2829418897637795
21
0.3732822440944882
0
LINE
8
BLACK
6
CONTINUOUS
10
0.2829418897637795
20
0.3732822440944882
11
0.2806864960629921
21
0.3865565748031496
0
LINE
8
BLACK
6
CONTINUOUS
10
0.2806864960629921
20
0.3865565748031496
11
0.2799315354330709
21
0.4
0
LINE
8
BLACK
6
CONTINUOUS
10
0.2799315354330709
20
0.4
11
0.2806864960629921
21
0.4134434251968504
0
LINE
8
BLACK
6
CONTINUOUS
10
0.2806864960629921
20
0.4134434251968504
11
0.2829418897637795
21
0.4267177559055118
0
LINE
8
BLACK
6
CONTINUOUS
10
0.2829418897637795
20
0.4267177559055118
11
0.2866693700787402
21
0.4396561023622047
0
LINE
8
BLACK
6
CONTINUOUS
10
0.2866693700787402
20
0.4396561023622047
11
0.2918220472440945
21
0.4520957874015748
0
LINE
8
BLACK
6
CONTINUOUS
10
0.2918220472440945
20
0.4520957874015748
11
0.2983351181102362
21
0.4638803149606299
0
LINE
8
BLACK
6
CONTINUOUS
10
0.2983351181102362
20
0.4638803149606299
11
0.3061266929133858
21
0.4748614960629921
0
LINE
8
BLACK
6
CONTINUOUS
10
0.3061266929133858
20
0.4748614960629921
11
0.315098779527559
21
0.4849012598425197
0
LINE
8
BLACK
6
CONTINUOUS
10
0.315098779527559
20
0.4849012598425197
11
0.3251385433070866
21
0.4938733464566929
0
LINE
8
BLACK
6
CONTINUOUS
10
0.3251385433070866
20
0.4938733464566929
11
0.3361197244094488
21
0.5016649212598425
0
LINE
8
BLACK
6
CONTINUOUS
10
0.3361197244094488
20
0.5016649212598425
11
0.3479042519685039
21
0.5081779921259842
0
LINE
8
BLACK
6
CONTINUOUS
10
0.3479042519685039
20
0.5081779921259842
11
0.360343937007874
21
0.5133306692913385
0
LINE
8
BLACK
6
CONTINUOUS
10
0.360343937007874
20
0.5133306692913385
11
0.3732822834645669
21
0.5170581496062993
0
LINE
8
BLACK
6
CONTINUOUS
10
0.3732822834645669
20
0.5170581496062993
11
0.3865566141732283
21
0.5193135433070866
0
LINE
8
BLACK
6
CONTINUOUS
10
0.3865566141732283
20
0.5193135433070866
11
0.4000000393700787
21
0.5200685039370079
0
LINE
8
BLACK
6
CONTINUOUS
10
0.4000000393700787
20
0.5200685039370079
11
0.4134434645669291
21
0.5193135433070866
0
LINE
8
BLACK
6
CONTINUOUS
10
0.2844583070866142
20
0.3864951181102362
11
0.2868073622047244
21
0.3731728346456693
0
LINE
8
BLACK
6
CONTINUOUS
10
0.2868073622047244
20
0.3731728346456693
11
0.2906872047244095
21
0.3602133858267716
0
LINE
8
BLACK
6
CONTINUOUS
10
0.2906872047244095
20
0.3602133858267716
11
0.2960452755905512
21
0.347791968503937
0
LINE
8
BLACK
6
CONTINUOUS
10
0.2960452755905512
20
0.347791968503937
11
0.3028091732283464
21
0.3360765354330709
0
LINE
8
BLACK
6
CONTINUOUS
10
0.3028091732283464
20
0.3360765354330709
11
0.3108874015748032
21
0.3252255905511811
0
LINE
8
BLACK
6
CONTINUOUS
10
0.3108874015748032
20
0.3252255905511811
11
0.3201707086614173
21
0.3153858661417323
0
LINE
8
BLACK
6
CONTINUOUS
10
0.3201707086614173
20
0.3153858661417323
11
0.3305335826771654
21
0.3066903543307087
0
LINE
8
BLACK
6
CONTINUOUS
10
0.3305335826771654
20
0.3066903543307087
11
0.3418358661417323
21
0.2992567322834646
0
LINE
8
BLACK
6
CONTINUOUS
10
0.3418358661417323
20
0.2992567322834646
11
0.3539247637795275
21
0.2931854724409449
0
LINE
8
BLACK
6
CONTINUOUS
10
0.3539247637795275
20
0.2931854724409449
11
0.3666366929133858
21
0.2885587007874016
0
LINE
8
BLACK
6
CONTINUOUS
10
0.3666366929133858
20
0.2885587007874016
11
0.379799842519685
21
0.2854389763779527
0
LINE
8
BLACK
6
CONTINUOUS
10
0.379799842519685
20
0.2854389763779527
11
0.3932361417322834
21
0.2838685039370079
0
LINE
8
BLACK
6
CONTINUOUS
10
0.3932361417322834
20
0.2838685039370079
11
0.406763937007874
21
0.2838685039370079
0
LINE
8
BLACK
6
CONTINUOUS
10
0.406763937007874
20
0.2838685039370079
11
0.4202002362204724
21
0.2854389763779527
0
LINE
8
BLACK
6
CONTINUOUS
10
0.4202002362204724
20
0.2854389763779527
11
0.4333633858267716
21
0.2885587007874016
0
LINE
8
BLACK
6
CONTINUOUS
10
0.4333633858267716
20
0.2885587007874016
11
0.4460753149606299
21
0.2931854724409449
0
LINE
8
BLACK
6
CONTINUOUS
10
0.4460753149606299
20
0.2931854724409449
11
0.4581642125984252
21
0.2992567322834646
0
LINE
8
BLACK
6
CONTINUOUS
10
0.4581642125984252
20
0.2992567322834646
11
0.4694664960629921
21
0.3066903543307087
0
LINE
8
BLACK
6
CONTINUOUS
10
0.4694664960629921
20
0.3066903543307087
11
0.4798293700787402
21
0.3153858661417323
0
LINE
8
BLACK
6
CONTINUOUS
10
0.4798293700787402
20
0.3153858661417323
11
0.4891126771653543
21
0.3252255905511811
0
LINE
8
BLACK
6
CONTINUOUS
10
0.4891126771653543
20
0.3252255905511811
11
0.497190905511811
21
0.3360765354330709
0
LINE
8
BLACK
6
CONTINUOUS
10
0.497190905511811
20
0.3360765354330709
11
0.5039548031496063
21
0.347791968503937
0
LINE
8
BLACK
6
CONTINUOUS
10
0.5039548031496063
20
0.347791968503937
11
0.509312874015748
21
0.3602133858267716
0
LINE
8
BLACK
6
CONTINUOUS
10
0.509312874015748
20
0.3602133858267716
11
0.5131927165354331
21
0.3731728346456693
0
LINE
8
BLACK
6
CONTINUOUS
10
0.5131927165354331
20
0.3731728346456693
11
0.5155417716535433
21
0.3864951181102362
0
LINE
8
BLACK
6
CONTINUOUS
10
0.5155417716535433
20
0.3864951181102362
11
0.5163283464566929
21
0.4
0
LINE
8
BLACK
6
CONTINUOUS
10
0.5163283464566929
20
0.4
11
0.5155417716535433
21
0.4135048818897638
0
LINE
8
BLACK
6
CONTINUOUS
10
0.5155417716535433
20
0.4135048818897638
11
0.5131927165354331
21
0.4268271653543307
0
LINE
8
BLACK
6
CONTINUOUS
10
0.5131927165354331
20
0.4268271653543307
11
0.509312874015748
21
0.4397866141732283
0
LINE
8
BLACK
6
CONTINUOUS
10
0.509312874015748
20
0.4397866141732283
11
0.5039548031496063
21
0.452208031496063
0
LINE
8
BLACK
6
CONTINUOUS
10
0.5039548031496063
20
0.452208031496063
11
0.497190905511811
21
0.4639234645669291
0
LINE
8
BLACK
6
CONTINUOUS
10
0.497190905511811
20
0.4639234645669291
11
0.4891126771653543
21
0.4747744094488189
0
LINE
8
BLACK
6
CONTINUOUS
10
0.4891126771653543
20
0.4747744094488189
11
0.4798293700787402
21
0.4846141338582677
0
LINE
8
BLACK
6
CONTINUOUS
10
0.4798293700787402
20
0.4846141338582677
11
0.4694664960629921
21
0.4933096456692913
0
LINE
8
BLACK
6
CONTINUOUS
10
0.4694664960629921
20
0.4933096456692913
11
0.4581642125984252
21
0.5007432677165354
0
LINE
8
BLACK
6
CONTINUOUS
10
0.4581642125984252
20
0.5007432677165354
11
0.4460753149606299
21
0.5068145275590551
0
LINE
8
BLACK
6
CONTINUOUS
10
0.4460753149606299
20
0.5068145275590551
11
0.4333633858267716
21
0.5114412992125984
0
LINE
8
BLACK
6
CONTINUOUS
10
0.4333633858267716
20
0.5114412992125984
11
0.4202002362204724
21
0.5145610236220473
0
LINE
8
BLACK
6
CONTINUOUS
10
0.4202002362204724
20
0.5145610236220473
11
0.406763937007874
21
0.5161314960629921
0
LINE
8
BLACK
6
CONTINUOUS
10
0.406763937007874
20
0.5161314960629921
11
0.3932361417322834
21
0.5161314960629921
0
LINE
8
BLACK
6
CONTINUOUS
10
0.3932361417322834
20
0.5161314960629921
11
0.379799842519685
21
0.5145610236220473
0
LINE
8
BLACK
6
CONTINUOUS
10
0.379799842519685
20
0.5145610236220473
11
0.3666366929133858
21
0.5114412992125984
0
LINE
8
BLACK
6
CONTINUOUS
10
0.3666366929133858
20
0.5114412992125984
11
0.3539247637795275
21
0.5068145275590551
0
LINE
8
BLACK
6
CONTINUOUS
10
0.3539247637795275
20
0.5068145275590551
11
0.3418358661417323
21
0.5007432677165354
0
LINE
8
BLACK
6
CONTINUOUS
10
0.3418358661417323
20
0.5007432677165354
11
0.3305335826771654
21
0.4933096456692913
0
LINE
8
BLACK
6
CONTINUOUS
10
0.3305335826771654
20
0.4933096456692913
11
0.3201707086614173
21
0.4846141338582677
0
LINE
8
BLACK
6
CONTINUOUS
10
0.3201707086614173
20
0.4846141338582677
11
0.3108874015748032
21
0.4747744094488189
0
LINE
8
BLACK
6
CONTINUOUS
10
0.3108874015748032
20
0.4747744094488189
11
0.3028091732283464
21
0.4639234645669291
0
LINE
8
BLACK
6
CONTINUOUS
10
0.3028091732283464
20
0.4639234645669291
11
0.2960452755905512
21
0.452208031496063
0
LINE
8
BLACK
6
CONTINUOUS
10
0.2960452755905512
20
0.452208031496063
11
0.2906872047244095
21
0.4397866141732283
0
LINE
8
BLACK
6
CONTINUOUS
10
0.2906872047244095
20
0.4397866141732283
11
0.2868073622047244
21
0.4268271653543307
0
LINE
8
BLACK
6
CONTINUOUS
10
0.2868073622047244
20
0.4268271653543307
11
0.2844583070866142
21
0.4135048818897638
0
LINE
8
BLACK
6
CONTINUOUS
10
0.2844583070866142
20
0.4135048818897638
11
0.2836717322834645
21
0.4
0
LINE
8
BLACK
6
CONTINUOUS
10
0.2836717322834645
20
0.4
11
0.2844583070866142
21
0.3864951181102362
0
LINE
8
BLACK
6
CONTINUOUS
10
1.2134434645669292
20
0.5193135433070866
11
1.2267177952755906
21
0.5170581496062993
0
LINE
8
BLACK
6
CONTINUOUS
10
1.2267177952755906
20
0.5170581496062993
11
1.2396561417322833
21
0.5133306692913385
0
LINE
8
BLACK
6
CONTINUOUS
10
1.2396561417322833
20
0.5133306692913385
11
1.2520958267716535
21
0.5081779921259842
0
LINE
8
BLACK
6
CONTINUOUS
10
1.2520958267716535
20
0.5081779921259842
11
1.2638803543307087
21
0.5016649212598425
0
LINE
8
BLACK
6
CONTINUOUS
10
1.2638803543307087
20
0.5016649212598425
11
1.2748615354330708
21
0.4938733464566929
0
LINE
8
BLACK
6
CONTINUOUS
10
1.2748615354330708
20
0.4938733464566929
11
1.2849012992125983
21
0.4849012598425197
0
LINE
8
BLACK
6
CONTINUOUS
10
1.2849012992125983
20
0.4849012598425197
11
1.2938733858267717
21
0.4748614960629921
0
LINE
8
BLACK
6
CONTINUOUS
10
1.2938733858267717
20
0.4748614960629921
11
1.3016649606299213
21
0.4638803149606299
0
LINE
8
BLACK
6
CONTINUOUS
10
1.3016649606299213
20
0.4638803149606299
11
1.3081780314960629
21
0.4520957874015748
0
LINE
8
BLACK
6
CONTINUOUS
10
1.3081780314960629
20
0.4520957874015748
11
1.3133307086614172
21
0.4396561023622047
0
LINE
8
BLACK
6
CONTINUOUS
10
1.3133307086614172
20
0.4396561023622047
11
1.3170581889763779
21
0.4267177559055118
0
LINE
8
BLACK
6
CONTINUOUS
10
1.3170581889763779
20
0.4267177559055118
11
1.3193135826771654
21
0.4134434251968504
0
LINE
8
BLACK
6
CONTINUOUS
10
1.3193135826771654
20
0.4134434251968504
11
1.3200685433070867
21
0.4
0
LINE
8
BLACK
6
CONTINUOUS
10
1.3200685433070867
20
0.4
11
1.3193135826771654
21
0.3865565748031496
0
LINE
8
BLACK
6
CONTINUOUS
10
1.3193135826771654
20
0.3865565748031496
11
1.3170581889763779
21
0.3732822440944882
0
LINE
8
BLACK
6
CONTINUOUS
10
1.3170581889763779
20
0.3732822440944882
11
1.3133307086614172
21
0.3603438976377953
0
LINE
8
BLACK
6
CONTINUOUS
10
1.3133307086614172
20
0.3603438976377953
11
1.3081780314960629
21
0.3479042125984252
0
LINE
8
BLACK
6
CONTINUOUS
10
1.3081780314960629
20
0.3479042125984252
11
1.3016649606299213
21
0.3361196850393701
0
LINE
8
BLACK
6
CONTINUOUS
10
1.3016649606299213
20
0.3361196850393701
11
1.2938733858267717
21
0.3251385039370079
0
LINE
8
BLACK
6
CONTINUOUS
10
1.2938733858267717
20
0.3251385039370079
11
1.2849012992125983
21
0.3150987401574803
0
LINE
8
BLACK
6
CONTINUOUS
10
1.2849012992125983
20
0.3150987401574803
11
1.2748615354330708
21
0.3061266535433071
0
LINE
8
BLACK
6
CONTINUOUS
10
1.2748615354330708
20
0.3061266535433071
11
1.2638803543307087
21
0.2983350787401575
0
LINE
8
BLACK
6
CONTINUOUS
10
1.2638803543307087
20
0.2983350787401575
11
1.2520958267716535
21
0.2918220078740157
0
LINE
8
BLACK
6
CONTINUOUS
10
1.2520958267716535
20
0.2918220078740157
11
1.2396561417322833
21
0.2866693307086614
0
LINE
8
BLACK
6
CONTINUOUS
10
1.2396561417322833
20
0.2866693307086614
11
1.2267177952755906
21
0.2829418503937008
0
LINE
8
BLACK
6
CONTINUOUS
10
1.2267177952755906
20
0.2829418503937008
11
1.2134434645669292
21
0.2806864566929134
0
LINE
8
BLACK
6
CONTINUOUS
10
1.2134434645669292
20
0.2806864566929134
11
1.2000000393700787
21
0.2799314960629921
0
LINE
8
BLACK
6
CONTINUOUS
10
1.2000000393700787
20
0.2799314960629921
11
1.1865566141732282
21
0.2806864566929134
0
LINE
8
BLACK
6
CONTINUOUS
10
1.1865566141732282
20
0.2806864566929134
11
1.1732822834645669
21
0.2829418503937008
0
LINE
8
BLACK
6
CONTINUOUS
10
1.1732822834645669
20
0.2829418503937008
11
1.1603439370078741
21
0.2866693307086614
0
LINE
8
BLACK
6
CONTINUOUS
10
1.1603439370078741
20
0.2866693307086614
11
1.1479042519685039
21
0.2918220078740157
0
LINE
8
BLACK
6
CONTINUOUS
10
1.1479042519685039
20
0.2918220078740157
11
1.1361197244094488
21
0.2983350787401575
0
LINE
8
BLACK
6
CONTINUOUS
10
1.1361197244094488
20
0.2983350787401575
11
1.1251385433070866
21
0.3061266535433071
0
LINE
8
BLACK
6
CONTINUOUS
10
1.1251385433070866
20
0.3061266535433071
11
1.1150987795275591
21
0.3150987401574803
0
LINE
8
BLACK
6
CONTINUOUS
10
1.1150987795275591
20
0.3150987401574803
11
1.1061266929133857
21
0.3251385039370079
0
LINE
8
BLACK
6
CONTINUOUS
10
1.1061266929133857
20
0.3251385039370079
11
1.0983351181102361
21
0.3361196850393701
0
LINE
8
BLACK
6
CONTINUOUS
10
1.0983351181102361
20
0.3361196850393701
11
1.0918220472440945
21
0.3479042125984252
0
LINE
8
BLACK
6
CONTINUOUS
10
1.0918220472440945
20
0.3479042125984252
11
1.0866693700787402
21
0.3603438976377953
0
LINE
8
BLACK
6
CONTINUOUS
10
1.0866693700787402
20
0.3603438976377953
11
1.0829418897637795
21
0.3732822440944882
0
LINE
8
BLACK
6
CONTINUOUS
10
1.0829418897637795
20
0.3732822440944882
11
1.0806864960629921
21
0.3865565748031496
0
LINE
8
BLACK
6
CONTINUOUS
10
1.0806864960629921
20
0.3865565748031496
11
1.0799315354330707
21
0.4
0
LINE
8
BLACK
6
CONTINUOUS
10
1.0799315354330707
20
0.4
11
1.0806864960629921
21
0.4134434251968504
0
LINE
8
BLACK
6
CONTINUOUS
10
1.0806864960629921
20
0.4134434251968504
11
1.0829418897637795
21
0.4267177559055118
0
LINE
8
BLACK
6
CONTINUOUS
10
1.0829418897637795
20
0.4267177559055118
11
1.0866693700787402
21
0.4396561023622047
0
LINE
8
BLACK
6
CONTINUOUS
10
1.0866693700787402
20
0.4396561023622047
11
1.0918220472440945
21
0.4520957874015748
0
LINE
8
BLACK
6
CONTINUOUS
10
1.0918220472440945
20
0.4520957874015748
11
1.0983351181102361
21
0.4638803149606299
0
LINE
8
BLACK
6
CONTINUOUS
10
1.0983351181102361
20
0.4638803149606299
11
1.1061266929133857
21
0.4748614960629921
0
LINE
8
BLACK
6
CONTINUOUS
10
1.1061266929133857
20
0.4748614960629921
11
1.1150987795275591
21
0.4849012598425197
0
LINE
8
BLACK
6
CONTINUOUS
10
1.1150987795275591
20
0.4849012598425197
11
1.1251385433070866
21
0.4938733464566929
0
LINE
8
BLACK
6
CONTINUOUS
10
1.1251385433070866
20
0.4938733464566929
11
1.1361197244094488
21
0.5016649212598425
0
LINE
8
BLACK
6
CONTINUOUS
10
1.1361197244094488
20
0.5016649212598425
11
1.1479042519685039
21
0.5081779921259842
0
LINE
8
BLACK
6
CONTINUOUS
10
1.1479042519685039
20
0.5081779921259842
11
1.1603439370078741
21
0.5133306692913385
0
LINE
8
BLACK
6
CONTINUOUS
10
1.1603439370078741
20
0.5133306692913385
11
1.1732822834645669
21
0.5170581496062993
0
LINE
8
BLACK
6
CONTINUOUS
10
1.1732822834645669
20
0.5170581496062993
11
1.1865566141732282
21
0.5193135433070866
0
LINE
8
BLACK
6
CONTINUOUS
10
1.1865566141732282
20
0.5193135433070866
11
1.2000000393700787
21
0.5200685039370079
0
LINE
8
BLACK
6
CONTINUOUS
10
1.2000000393700787
20
0.5200685039370079
11
1.2134434645669292
21
0.5193135433070866
0
LINE
8
BLACK
6
CONTINUOUS
10
1.0844583070866141
20
0.3864951181102362
11
1.0868073622047243
21
0.3731728346456693
0
LINE
8
BLACK
6
CONTINUOUS
10
1.0868073622047243
20
0.3731728346456693
11
1.0906872047244094
21
0.3602133858267716
0
LINE
8
BLACK
6
CONTINUOUS
10
1.0906872047244094
20
0.3602133858267716
11
1.0960452755905512
21
0.347791968503937
0
LINE
8
BLACK
6
CONTINUOUS
10
1.0960452755905512
20
0.347791968503937
11
1.1028091732283465
21
0.3360765354330709
0
LINE
8
BLACK
6
CONTINUOUS
10
1.1028091732283465
20
0.3360765354330709
11
1.1108874015748031
21
0.3252255905511811
0
LINE
8
BLACK
6
CONTINUOUS
10
1.1108874015748031
20
0.3252255905511811
11
1.1201707086614172
21
0.3153858661417323
0
LINE
8
BLACK
6
CONTINUOUS
10
1.1201707086614172
20
0.3153858661417323
11
1.1305335826771654
21
0.3066903543307087
0
LINE
8
BLACK
6
CONTINUOUS
10
1.1305335826771654
20
0.3066903543307087
11
1.1418358661417323
21
0.2992567322834646
0
LINE
8
BLACK
6
CONTINUOUS
10
1.1418358661417323
20
0.2992567322834646
11
1.1539247637795276
21
0.2931854724409449
0
LINE
8
BLACK
6
CONTINUOUS
10
1.1539247637795276
20
0.2931854724409449
11
1.1666366929133858
21
0.2885587007874016
0
LINE
8
BLACK
6
CONTINUOUS
10
1.1666366929133858
20
0.2885587007874016
11
1.1797998425196849
21
0.2854389763779527
0
LINE
8
BLACK
6
CONTINUOUS
10
1.1797998425196849
20
0.2854389763779527
11
1.1932361417322834
21
0.2838685039370079
0
LINE
8
BLACK
6
CONTINUOUS
10
1.1932361417322834
20
0.2838685039370079
11
1.206763937007874
21
0.2838685039370079
0
LINE
8
BLACK
6
CONTINUOUS
10
1.206763937007874
20
0.2838685039370079
11
1.2202002362204725
21
0.2854389763779527
0
LINE
8
BLACK
6
CONTINUOUS
10
1.2202002362204725
20
0.2854389763779527
11
1.2333633858267716
21
0.2885587007874016
0
LINE
8
BLACK
6
CONTINUOUS
10
1.2333633858267716
20
0.2885587007874016
11
1.2460753149606298
21
0.2931854724409449
0
LINE
8
BLACK
6
CONTINUOUS
10
1.2460753149606298
20
0.2931854724409449
11
1.2581642125984251
21
0.2992567322834646
0
LINE
8
BLACK
6
CONTINUOUS
10
1.2581642125984251
20
0.2992567322834646
11
1.269466496062992
21
0.3066903543307087
0
LINE
8
BLACK
6
CONTINUOUS
10
1.269466496062992
20
0.3066903543307087
11
1.2798293700787402
21
0.3153858661417323
0
LINE
8
BLACK
6
CONTINUOUS
10
1.2798293700787402
20
0.3153858661417323
11
1.2891126771653543
21
0.3252255905511811
0
LINE
8
BLACK
6
CONTINUOUS
10
1.2891126771653543
20
0.3252255905511811
11
1.2971909055118109
21
0.3360765354330709
0
LINE
8
BLACK
6
CONTINUOUS
10
1.2971909055118109
20
0.3360765354330709
11
1.3039548031496062
21
0.347791968503937
0
LINE
8
BLACK
6
CONTINUOUS
10
1.3039548031496062
20
0.347791968503937
11
1.309312874015748
21
0.3602133858267716
0
LINE
8
BLACK
6
CONTINUOUS
10
1.309312874015748
20
0.3602133858267716
11
1.3131927165354331
21
0.3731728346456693
0
LINE
8
BLACK
6
CONTINUOUS
10
1.3131927165354331
20
0.3731728346456693
11
1.3155417716535434
21
0.3864951181102362
0
LINE
8
BLACK
6
CONTINUOUS
10
1.3155417716535434
20
0.3864951181102362
11
1.3163283464566928
21
0.4
0
LINE
8
BLACK
6
CONTINUOUS
10
1.3163283464566928
20
0.4
11
1.3155417716535434
21
0.4135048818897638
0
LINE
8
BLACK
6
CONTINUOUS
10
1.3155417716535434
20
0.4135048818897638
11
1.3131927165354331
21
0.4268271653543307
0
LINE
8
BLACK
6
CONTINUOUS
10
1.3131927165354331
20
0.4268271653543307
11
1.309312874015748
21
0.4397866141732283
0
LINE
8
BLACK
6
CONTINUOUS
10
1.309312874015748
20
0.4397866141732283
11
1.3039548031496062
21
0.452208031496063
0
LINE
8
BLACK
6
CONTINUOUS
10
1.3039548031496062
20
0.452208031496063
11
1.2971909055118109
21
0.4639234645669291
0
LINE
8
BLACK
6
CONTINUOUS
10
1.2971909055118109
20
0.4639234645669291
11
1.2891126771653543
21
0.4747744094488189
0
LINE
8
BLACK
6
CONTINUOUS
10
1.2891126771653543
20
0.4747744094488189
11
1.2798293700787402
21
0.4846141338582677
0
LINE
8
BLACK
6
CONTINUOUS
10
1.2798293700787402
20
0.4846141338582677
11
1.269466496062992
21
0.4933096456692913
0
LINE
8
BLACK
6
CONTINUOUS
10
1.269466496062992
20
0.4933096456692913
11
1.2581642125984251
21
0.5007432677165354
0
LINE
8
BLACK
6
CONTINUOUS
10
1.2581642125984251
20
0.5007432677165354
11
1.2460753149606298
21
0.5068145275590551
0
LINE
8
BLACK
6
CONTINUOUS
10
1.2460753149606298
20
0.5068145275590551
11
1.2333633858267716
21
0.5114412992125984
0
LINE
8
BLACK
6
CONTINUOUS
10
1.2333633858267716
20
0.5114412992125984
11
1.2202002362204725
21
0.5145610236220473
0
LINE
8
BLACK
6
CONTINUOUS
10
1.2202002362204725
20
0.5145610236220473
11
1.206763937007874
21
0.5161314960629921
0
LINE
8
BLACK
6
CONTINUOUS
10
1.206763937007874
20
0.5161314960629921
11
1.1932361417322834
21
0.5161314960629921
0
LINE
8
BLACK
6
CONTINUOUS
10
1.1932361417322834
20
0.5161314960629921
11
1.1797998425196849
21
0.5145610236220473
0
LINE
8
BLACK
6
CONTINUOUS
10
1.1797998425196849
20
0.5145610236220473
11
1.1666366929133858
21
0.5114412992125984
0
LINE
8
BLACK
6
CONTINUOUS
10
1.1666366929133858
20
0.5114412992125984
11
1.1539247637795276
21
0.5068145275590551
0
LINE
8
BLACK
6
CONTINUOUS
10
1.1539247637795276
20
0.5068145275590551
11
1.1418358661417323
21
0.5007432677165354
0
LINE
8
BLACK
6
CONTINUOUS
10
1.1418358661417323
20
0.5007432677165354
11
1.1305335826771654
21
0.4933096456692913
0
LINE
8
BLACK
6
CONTINUOUS
10
1.1305335826771654
20
0.4933096456692913
11
1.1201707086614172
21
0.4846141338582677
0
LINE
8
BLACK
6
CONTINUOUS
10
1.1201707086614172
20
0.4846141338582677
11
1.1108874015748031
21
0.4747744094488189
0
LINE
8
BLACK
6
CONTINUOUS
10
1.1108874015748031
20
0.4747744094488189
11
1.1028091732283465
21
0.4639234645669291
0
LINE
8
BLACK
6
CONTINUOUS
10
1.1028091732283465
20
0.4639234645669291
11
1.0960452755905512
21
0.452208031496063
0
LINE
8
BLACK
6
CONTINUOUS
10
1.0960452755905512
20
0.452208031496063
11
1.0906872047244094
21
0.4397866141732283
0
LINE
8
BLACK
6
CONTINUOUS
10
1.0906872047244094
20
0.4397866141732283
11
1.0868073622047243
21
0.4268271653543307
0
LINE
8
BLACK
6
CONTINUOUS
10
1.0868073622047243
20
0.4268271653543307
11
1.0844583070866141
21
0.4135048818897638
0
LINE
8
BLACK
6
CONTINUOUS
10
1.0844583070866141
20
0.4135048818897638
11
1.0836717322834646
21
0.4
0
LINE
8
BLACK
6
CONTINUOUS
10
1.0836717322834646
20
0.4
11
1.0844583070866141
21
0.3864951181102362
0
LINE
8
BLACK
6
CONTINUOUS
10
0.8098194094488189
20
0.4036873228346456
11
0.8113666535433071
21
0.4023890157480315
0
LINE
8
BLACK
6
CONTINUOUS
10
0.8113666535433071
20
0.4023890157480315
11
0.8117174015748031
21
0.4003998818897638
0
LINE
8
BLACK
6
CONTINUOUS
10
0.8117174015748031
20
0.4003998818897638
11
0.8107074803149606
21
0.3986507086614173
0
LINE
8
BLACK
6
CONTINUOUS
10
0.8107074803149606
20
0.3986507086614173
11
0.8088094881889764
21
0.3979598818897638
0
LINE
8
BLACK
6
CONTINUOUS
10
0.8088094881889764
20
0.3979598818897638
11
0.7930146062992126
21
0.3979598818897638
0
LINE
8
BLACK
6
CONTINUOUS
10
0.7930146062992126
20
0.3979598818897638
11
0.7930146062992126
21
0.3851177559055118
0
LINE
8
BLACK
6
CONTINUOUS
10
0.7930146062992126
20
0.3851177559055118
11
0.8031851968503937
21
0.3851177559055118
0
LINE
8
BLACK
6
CONTINUOUS
10
0.8031851968503937
20
0.3851177559055118
11
0.8041951181102363
21
0.3849396850393701
0
LINE
8
BLACK
6
CONTINUOUS
10
0.8041951181102363
20
0.3849396850393701
11
0.8057423622047244
21
0.3836413779527559
0
LINE
8
BLACK
6
CONTINUOUS
10
0.8057423622047244
20
0.3836413779527559
11
0.8060931102362204
21
0.3816522440944882
0
LINE
8
BLACK
6
CONTINUOUS
10
0.8060931102362204
20
0.3816522440944882
11
0.805083188976378
21
0.3799030708661417
0
LINE
8
BLACK
6
CONTINUOUS
10
0.805083188976378
20
0.3799030708661417
11
0.8031851968503937
21
0.3792122440944882
0
LINE
8
BLACK
6
CONTINUOUS
10
0.8031851968503937
20
0.3792122440944882
11
0.7930146062992126
21
0.3792122440944882
0
LINE
8
BLACK
6
CONTINUOUS
10
0.7930146062992126
20
0.3792122440944882
11
0.7930146062992126
21
0.3644953149606299
0
LINE
8
BLACK
6
CONTINUOUS
10
0.7930146062992126
20
0.3644953149606299
11
0.8088094881889764
21
0.3644953149606299
0
LINE
8
BLACK
6
CONTINUOUS
10
0.8088094881889764
20
0.3644953149606299
11
0.8098194094488189
21
0.3643172440944882
0
LINE
8
BLACK
6
CONTINUOUS
10
0.8098194094488189
20
0.3643172440944882
11
0.8113666535433071
21
0.363018937007874
0
LINE
8
BLACK
6
CONTINUOUS
10
0.8113666535433071
20
0.363018937007874
11
0.8117174015748031
21
0.3610298031496063
0
LINE
8
BLACK
6
CONTINUOUS
10
0.8117174015748031
20
0.3610298031496063
11
0.8107074803149606
21
0.3592806299212598
0
LINE
8
BLACK
6
CONTINUOUS
10
0.8107074803149606
20
0.3592806299212598
11
0.8088094881889764
21
0.3585898031496063
0
LINE
8
BLACK
6
CONTINUOUS
10
0.8088094881889764
20
0.3585898031496063
11
0.7900618503937008
21
0.3585898031496063
0
LINE
8
BLACK
6
CONTINUOUS
10
0.7900618503937008
20
0.3585898031496063
11
0.7896783070866141
21
0.3586574409448819
0
LINE
8
BLACK
6
CONTINUOUS
10
0.7896783070866141
20
0.3586574409448819
11
0.789549094488189
21
0.3586346456692913
0
LINE
8
BLACK
6
CONTINUOUS
10
0.789549094488189
20
0.3586346456692913
11
0.7894354724409449
21
0.3587002755905512
0
LINE
8
BLACK
6
CONTINUOUS
10
0.7894354724409449
20
0.3587002755905512
11
0.7890519291338582
21
0.358767874015748
0
LINE
8
BLACK
6
CONTINUOUS
10
0.7890519291338582
20
0.358767874015748
11
0.7884642125984251
21
0.3592610236220473
0
LINE
8
BLACK
6
CONTINUOUS
10
0.7884642125984251
20
0.3592610236220473
11
0.7877999212598426
21
0.3596445669291338
0
LINE
8
BLACK
6
CONTINUOUS
10
0.7877999212598426
20
0.3596445669291338
11
0.787708779527559
21
0.3598949212598425
0
LINE
8
BLACK
6
CONTINUOUS
10
0.787708779527559
20
0.3598949212598425
11
0.7875046850393701
21
0.3600661811023622
0
LINE
8
BLACK
6
CONTINUOUS
10
0.7875046850393701
20
0.3600661811023622
11
0.7873714173228347
21
0.3608217716535433
0
LINE
8
BLACK
6
CONTINUOUS
10
0.7873714173228347
20
0.3608217716535433
11
0.787109094488189
21
0.3615425590551181
0
LINE
8
BLACK
6
CONTINUOUS
10
0.787109094488189
20
0.3615425590551181
11
0.787109094488189
21
0.4009126377952756
0
LINE
8
BLACK
6
CONTINUOUS
10
0.787109094488189
20
0.4009126377952756
11
0.7871766929133858
21
0.4012961811023622
0
LINE
8
BLACK
6
CONTINUOUS
10
0.7871766929133858
20
0.4012961811023622
11
0.7871539370078739
21
0.4014253937007874
0
LINE
8
BLACK
6
CONTINUOUS
10
0.7871539370078739
20
0.4014253937007874
11
0.7872195275590551
21
0.4015390157480315
0
LINE
8
BLACK
6
CONTINUOUS
10
0.7872195275590551
20
0.4015390157480315
11
0.7872871653543307
21
0.4019225590551181
0
LINE
8
BLACK
6
CONTINUOUS
10
0.7872871653543307
20
0.4019225590551181
11
0.7877802755905512
21
0.4025102755905512
0
LINE
8
BLACK
6
CONTINUOUS
10
0.7877802755905512
20
0.4025102755905512
11
0.7881638582677165
21
0.4031745669291338
0
LINE
8
BLACK
6
CONTINUOUS
10
0.7881638582677165
20
0.4031745669291338
11
0.7884141732283464
21
0.4032657086614173
0
LINE
8
BLACK
6
CONTINUOUS
10
0.7884141732283464
20
0.4032657086614173
11
0.7885854724409449
21
0.4034698031496063
0
LINE
8
BLACK
6
CONTINUOUS
10
0.7885854724409449
20
0.4034698031496063
11
0.7893410236220473
21
0.4036030708661417
0
LINE
8
BLACK
6
CONTINUOUS
10
0.7893410236220473
20
0.4036030708661417
11
0.7900618503937008
21
0.4038653937007874
0
LINE
8
BLACK
6
CONTINUOUS
10
0.7900618503937008
20
0.4038653937007874
11
0.8088094881889764
21
0.4038653937007874
0
LINE
8
BLACK
6
CONTINUOUS
10
0.8088094881889764
20
0.4038653937007874
11
0.8098194094488189
21
0.4036873228346456
0
LINE
8
BLACK
6
CONTINUOUS
10
0.8279443307086614
20
0.4028106299212598
11
0.8286351574803149
21
0.4009126377952756
0
LINE
8
BLACK
6
CONTINUOUS
10
0.8286351574803149
20
0.4009126377952756
11
0.8286351574803149
21
0.3644953149606299
0
LINE
8
BLACK
6
CONTINUOUS
10
0.8286351574803149
20
0.3644953149606299
11
0.8444300393700788
21
0.3644953149606299
0
LINE
8
BLACK
6
CONTINUOUS
10
0.8444300393700788
20
0.3644953149606299
11
0.8454399606299212
21
0.3643172440944882
0
LINE
8
BLACK
6
CONTINUOUS
10
0.8454399606299212
20
0.3643172440944882
11
0.8469872047244095
21
0.363018937007874
0
LINE
8
BLACK
6
CONTINUOUS
10
0.8469872047244095
20
0.363018937007874
11
0.8473379527559055
21
0.3610298031496063
0
LINE
8
BLACK
6
CONTINUOUS
10
0.8473379527559055
20
0.3610298031496063
11
0.8463280314960629
21
0.3592806299212598
0
LINE
8
BLACK
6
CONTINUOUS
10
0.8463280314960629
20
0.3592806299212598
11
0.8444300393700788
21
0.3585898031496063
0
LINE
8
BLACK
6
CONTINUOUS
10
0.8444300393700788
20
0.3585898031496063
11
0.8256824015748031
21
0.3585898031496063
0
LINE
8
BLACK
6
CONTINUOUS
10
0.8256824015748031
20
0.3585898031496063
11
0.8252988582677165
21
0.3586574409448819
0
LINE
8
BLACK
6
CONTINUOUS
10
0.8252988582677165
20
0.3586574409448819
11
0.8251696456692913
21
0.3586346456692913
0
LINE
8
BLACK
6
CONTINUOUS
10
0.8251696456692913
20
0.3586346456692913
11
0.8250560236220472
21
0.3587002755905512
0
LINE
8
BLACK
6
CONTINUOUS
10
0.8250560236220472
20
0.3587002755905512
11
0.8246724803149607
21
0.358767874015748
0
LINE
8
BLACK
6
CONTINUOUS
10
0.8246724803149607
20
0.358767874015748
11
0.8240847637795276
21
0.3592610236220473
0
LINE
8
BLACK
6
CONTINUOUS
10
0.8240847637795276
20
0.3592610236220473
11
0.8234204724409449
21
0.3596445669291338
0
LINE
8
BLACK
6
CONTINUOUS
10
0.8234204724409449
20
0.3596445669291338
11
0.8233293307086614
21
0.3598949212598425
0
LINE
8
BLACK
6
CONTINUOUS
10
0.8233293307086614
20
0.3598949212598425
11
0.8231252362204724
21
0.3600661811023622
0
LINE
8
BLACK
6
CONTINUOUS
10
0.8231252362204724
20
0.3600661811023622
11
0.822991968503937
21
0.3608217716535433
0
LINE
8
BLACK
6
CONTINUOUS
10
0.822991968503937
20
0.3608217716535433
11
0.8227296456692913
21
0.3615425590551181
0
LINE
8
BLACK
6
CONTINUOUS
10
0.8227296456692913
20
0.3615425590551181
11
0.8227296456692913
21
0.4009126377952756
0
LINE
8
BLACK
6
CONTINUOUS
10
0.8227296456692913
20
0.4009126377952756
11
0.822907716535433
21
0.4019225590551181
0
LINE
8
BLACK
6
CONTINUOUS
10
0.822907716535433
20
0.4019225590551181
11
0.8242060236220472
21
0.4034698031496063
0
LINE
8
BLACK
6
CONTINUOUS
10
0.8242060236220472
20
0.4034698031496063
11
0.8261951574803149
21
0.4038205511811023
0
LINE
8
BLACK
6
CONTINUOUS
10
0.8261951574803149
20
0.4038205511811023
11
0.8279443307086614
21
0.4028106299212598
0
LINE
8
BLACK
6
CONTINUOUS
10
0.8773109842519685
20
0.4036873228346456
11
0.8788582283464567
21
0.4023890157480315
0
LINE
8
BLACK
6
CONTINUOUS
10
0.8788582283464567
20
0.4023890157480315
11
0.8792089763779527
21
0.4003998818897638
0
LINE
8
BLACK
6
CONTINUOUS
10
0.8792089763779527
20
0.4003998818897638
11
0.8781990551181103
21
0.3986507086614173
0
LINE
8
BLACK
6
CONTINUOUS
10
0.8781990551181103
20
0.3986507086614173
11
0.876301062992126
21
0.3979598818897638
0
LINE
8
BLACK
6
CONTINUOUS
10
0.876301062992126
20
0.3979598818897638
11
0.8605061811023622
21
0.3979598818897638
0
LINE
8
BLACK
6
CONTINUOUS
10
0.8605061811023622
20
0.3979598818897638
11
0.8605061811023622
21
0.3851177559055118
0
LINE
8
BLACK
6
CONTINUOUS
10
0.8605061811023622
20
0.3851177559055118
11
0.8706767716535433
21
0.3851177559055118
0
LINE
8
BLACK
6
CONTINUOUS
10
0.8706767716535433
20
0.3851177559055118
11
0.8716866929133859
21
0.3849396850393701
0
LINE
8
BLACK
6
CONTINUOUS
10
0.8716866929133859
20
0.3849396850393701
11
0.873233937007874
21
0.3836413779527559
0
LINE
8
BLACK
6
CONTINUOUS
10
0.873233937007874
20
0.3836413779527559
11
0.87358468503937
21
0.3816522440944882
0
LINE
8
BLACK
6
CONTINUOUS
10
0.87358468503937
20
0.3816522440944882
11
0.8725747637795276
21
0.3799030708661417
0
LINE
8
BLACK
6
CONTINUOUS
10
0.8725747637795276
20
0.3799030708661417
11
0.8706767716535433
21
0.3792122440944882
0
LINE
8
BLACK
6
CONTINUOUS
10
0.8706767716535433
20
0.3792122440944882
11
0.8605061811023622
21
0.3792122440944882
0
LINE
8
BLACK
6
CONTINUOUS
10
0.8605061811023622
20
0.3792122440944882
11
0.8605061811023622
21
0.3644953149606299
0
LINE
8
BLACK
6
CONTINUOUS
10
0.8605061811023622
20
0.3644953149606299
11
0.876301062992126
21
0.3644953149606299
0
LINE
8
BLACK
6
CONTINUOUS
10
0.876301062992126
20
0.3644953149606299
11
0.8773109842519685
21
0.3643172440944882
0
LINE
8
BLACK
6
CONTINUOUS
10
0.8773109842519685
20
0.3643172440944882
11
0.8788582283464567
21
0.363018937007874
0
LINE
8
BLACK
6
CONTINUOUS
10
0.8788582283464567
20
0.363018937007874
11
0.8792089763779527
21
0.3610298031496063
0
LINE
8
BLACK
6
CONTINUOUS
10
0.8792089763779527
20
0.3610298031496063
11
0.8781990551181103
21
0.3592806299212598
0
LINE
8
BLACK
6
CONTINUOUS
10
0.8781990551181103
20
0.3592806299212598
11
0.876301062992126
21
0.3585898031496063
0
LINE
8
BLACK
6
CONTINUOUS
10
0.876301062992126
20
0.3585898031496063
11
0.8575534251968504
21
0.3585898031496063
0
LINE
8
BLACK
6
CONTINUOUS
10
0.8575534251968504
20
0.3585898031496063
11
0.8571698818897637
21
0.3586574409448819
0
LINE
8
BLACK
6
CONTINUOUS
10
0.8571698818897637
20
0.3586574409448819
11
0.8570406692913386
21
0.3586346456692913
0
LINE
8
BLACK
6
CONTINUOUS
10
0.8570406692913386
20
0.3586346456692913
11
0.8569270472440945
21
0.3587002755905512
0
LINE
8
BLACK
6
CONTINUOUS
10
0.8569270472440945
20
0.3587002755905512
11
0.8565435039370078
21
0.358767874015748
0
LINE
8
BLACK
6
CONTINUOUS
10
0.8565435039370078
20
0.358767874015748
11
0.8559557874015747
21
0.3592610236220473
0
LINE
8
BLACK
6
CONTINUOUS
10
0.8559557874015747
20
0.3592610236220473
11
0.8552914960629922
21
0.3596445669291338
0
LINE
8
BLACK
6
CONTINUOUS
10
0.8552914960629922
20
0.3596445669291338
11
0.8552003543307086
21
0.3598949212598425
0
LINE
8
BLACK
6
CONTINUOUS
10
0.8552003543307086
20
0.3598949212598425
11
0.8549962598425197
21
0.3600661811023622
0
LINE
8
BLACK
6
CONTINUOUS
10
0.8549962598425197
20
0.3600661811023622
11
0.8548629921259843
21
0.3608217716535433
0
LINE
8
BLACK
6
CONTINUOUS
10
0.8548629921259843
20
0.3608217716535433
11
0.8546006692913386
21
0.3615425590551181
0
LINE
8
BLACK
6
CONTINUOUS
10
0.8546006692913386
20
0.3615425590551181
11
0.8546006692913386
21
0.4009126377952756
0
LINE
8
BLACK
6
CONTINUOUS
10
0.8546006692913386
20
0.4009126377952756
11
0.8546682677165354
21
0.4012961811023622
0
LINE
8
BLACK
6
CONTINUOUS
10
0.8546682677165354
20
0.4012961811023622
11
0.8546455118110236
21
0.4014253937007874
0
LINE
8
BLACK
6
CONTINUOUS
10
0.8546455118110236
20
0.4014253937007874
11
0.8547111023622047
21
0.4015390157480315
0
LINE
8
BLACK
6
CONTINUOUS
10
0.8547111023622047
20
0.4015390157480315
11
0.8547787401574803
21
0.4019225590551181
0
LINE
8
BLACK
6
CONTINUOUS
10
0.8547787401574803
20
0.4019225590551181
11
0.8552718503937008
21
0.4025102755905512
0
LINE
8
BLACK
6
CONTINUOUS
10
0.8552718503937008
20
0.4025102755905512
11
0.8556554330708661
21
0.4031745669291338
0
LINE
8
BLACK
6
CONTINUOUS
10
0.8556554330708661
20
0.4031745669291338
11
0.855905748031496
21
0.4032657086614173
0
LINE
8
BLACK
6
CONTINUOUS
10
0.855905748031496
20
0.4032657086614173
11
0.8560770472440945
21
0.4034698031496063
0
LINE
8
BLACK
6
CONTINUOUS
10
0.8560770472440945
20
0.4034698031496063
11
0.8568325984251969
21
0.4036030708661417
0
LINE
8
BLACK
6
CONTINUOUS
10
0.8568325984251969
20
0.4036030708661417
11
0.8575534251968504
21
0.4038653937007874
0
LINE
8
BLACK
6
CONTINUOUS
10
0.8575534251968504
20
0.4038653937007874
11
0.876301062992126
21
0.4038653937007874
0
LINE
8
BLACK
6
CONTINUOUS
10
0.876301062992126
20
0.4038653937007874
11
0.8773109842519685
21
0.4036873228346456
0
LINE
8
BLACK
6
CONTINUOUS
10
0.7666998031496063
20
0.4036873228346456
11
0.7668350393700787
21
0.4035738582677165
0
LINE
8
BLACK
6
CONTINUOUS
10
0.7668350393700787
20
0.4035738582677165
11
0.7670103937007874
21
0.4035536614173229
0
LINE
8
BLACK
6
CONTINUOUS
10
0.7670103937007874
20
0.4035536614173229
11
0.7707599212598425
21
0.4016788976377952
0
LINE
8
BLACK
6
CONTINUOUS
10
0.7707599212598425
20
0.4016788976377952
11
0.7714689763779528
21
0.4011529921259843
0
LINE
8
BLACK
6
CONTINUOUS
10
0.7714689763779528
20
0.4011529921259843
11
0.7715273228346456
21
0.4011257874015748
0
LINE
8
BLACK
6
CONTINUOUS
10
0.7715273228346456
20
0.4011257874015748
11
0.7734020866141732
21
0.3992510236220472
0
LINE
8
BLACK
6
CONTINUOUS
10
0.7734020866141732
20
0.3992510236220472
11
0.7739083464566929
21
0.3985279527559055
0
LINE
8
BLACK
6
CONTINUOUS
10
0.7739083464566929
20
0.3985279527559055
11
0.7739551968503937
21
0.3984836220472441
0
LINE
8
BLACK
6
CONTINUOUS
10
0.7739551968503937
20
0.3984836220472441
11
0.7758299606299213
21
0.394734094488189
0
LINE
8
BLACK
6
CONTINUOUS
10
0.7758299606299213
20
0.394734094488189
11
0.7761223228346457
21
0.3937511811023622
0
LINE
8
BLACK
6
CONTINUOUS
10
0.7761223228346457
20
0.3937511811023622
11
0.7760812992125984
21
0.3935794881889764
0
LINE
8
BLACK
6
CONTINUOUS
10
0.7760812992125984
20
0.3935794881889764
11
0.7761416929133859
21
0.3934135826771654
0
LINE
8
BLACK
6
CONTINUOUS
10
0.7761416929133859
20
0.3934135826771654
11
0.7761416929133859
21
0.3877892913385826
0
LINE
8
BLACK
6
CONTINUOUS
10
0.7761416929133859
20
0.3877892913385826
11
0.7759636220472441
21
0.3867793700787401
0
LINE
8
BLACK
6
CONTINUOUS
10
0.7759636220472441
20
0.3867793700787401
11
0.7758501181102362
21
0.3866441338582677
0
LINE
8
BLACK
6
CONTINUOUS
10
0.7758501181102362
20
0.3866441338582677
11
0.7758299606299213
21
0.386468779527559
0
LINE
8
BLACK
6
CONTINUOUS
10
0.7758299606299213
20
0.386468779527559
11
0.7739551968503937
21
0.3827192519685039
0
LINE
8
BLACK
6
CONTINUOUS
10
0.7739551968503937
20
0.3827192519685039
11
0.7734292913385826
21
0.3820101968503937
0
LINE
8
BLACK
6
CONTINUOUS
10
0.7734292913385826
20
0.3820101968503937
11
0.7734020866141732
21
0.3819518503937008
0
LINE
8
BLACK
6
CONTINUOUS
10
0.7734020866141732
20
0.3819518503937008
11
0.7715273228346456
21
0.3800770866141732
0
LINE
8
BLACK
6
CONTINUOUS
10
0.7715273228346456
20
0.3800770866141732
11
0.7708042125984251
21
0.3795708267716535
0
LINE
8
BLACK
6
CONTINUOUS
10
0.7708042125984251
20
0.3795708267716535
11
0.7707599212598425
21
0.3795239763779528
0
LINE
8
BLACK
6
CONTINUOUS
10
0.7707599212598425
20
0.3795239763779528
11
0.7670103937007874
21
0.3776492125984252
0
LINE
8
BLACK
6
CONTINUOUS
10
0.7670103937007874
20
0.3776492125984252
11
0.7660274409448818
21
0.3773568503937008
0
LINE
8
BLACK
6
CONTINUOUS
10
0.7660274409448818
20
0.3773568503937008
11
0.765855748031496
21
0.377397874015748
0
LINE
8
BLACK
6
CONTINUOUS
10
0.765855748031496
20
0.377397874015748
11
0.7657272440944882
21
0.3773511023622047
0
LINE
8
BLACK
6
CONTINUOUS
10
0.7657272440944882
20
0.3773511023622047
11
0.7756079527559054
21
0.3632358267716536
0
LINE
8
BLACK
6
CONTINUOUS
10
0.7756079527559054
20
0.3632358267716536
11
0.776041220472441
21
0.3623063779527559
0
LINE
8
BLACK
6
CONTINUOUS
10
0.776041220472441
20
0.3623063779527559
11
0.7758648818897638
21
0.3602942913385827
0
LINE
8
BLACK
6
CONTINUOUS
10
0.7758648818897638
20
0.3602942913385827
11
0.7744364566929134
21
0.3588662598425197
0
LINE
8
BLACK
6
CONTINUOUS
10
0.7744364566929134
20
0.3588662598425197
11
0.7724243307086615
21
0.3586905118110236
0
LINE
8
BLACK
6
CONTINUOUS
10
0.7724243307086615
20
0.3586905118110236
11
0.7707699606299212
21
0.3598492519685039
0
LINE
8
BLACK
6
CONTINUOUS
10
0.7707699606299212
20
0.3598492519685039
11
0.7585282283464567
21
0.3773374803149606
0
LINE
8
BLACK
6
CONTINUOUS
10
0.7585282283464567
20
0.3773374803149606
11
0.7536445275590551
21
0.3773374803149606
0
LINE
8
BLACK
6
CONTINUOUS
10
0.7536445275590551
20
0.3773374803149606
11
0.7536445275590551
21
0.3615425590551181
0
LINE
8
BLACK
6
CONTINUOUS
10
0.7536445275590551
20
0.3615425590551181
11
0.7534664566929133
21
0.3605326377952756
0
LINE
8
BLACK
6
CONTINUOUS
10
0.7534664566929133
20
0.3605326377952756
11
0.7521681496062992
21
0.3589853937007874
0
LINE
8
BLACK
6
CONTINUOUS
10
0.7521681496062992
20
0.3589853937007874
11
0.7501790157480315
21
0.3586346456692913
0
LINE
8
BLACK
6
CONTINUOUS
10
0.7501790157480315
20
0.3586346456692913
11
0.748429842519685
21
0.3596445669291338
0
LINE
8
BLACK
6
CONTINUOUS
10
0.748429842519685
20
0.3596445669291338
11
0.7477390157480315
21
0.3615425590551181
0
LINE
8
BLACK
6
CONTINUOUS
10
0.7477390157480315
20
0.3615425590551181
11
0.7477390157480315
21
0.4009126377952756
0
LINE
8
BLACK
6
CONTINUOUS
10
0.7477390157480315
20
0.4009126377952756
11
0.7478066141732284
21
0.4012961811023622
0
LINE
8
BLACK
6
CONTINUOUS
10
0.7478066141732284
20
0.4012961811023622
11
0.7477838582677165
21
0.4014253937007874
0
LINE
8
BLACK
6
CONTINUOUS
10
0.7477838582677165
20
0.4014253937007874
11
0.7478494488188976
21
0.4015390157480315
0
LINE
8
BLACK
6
CONTINUOUS
10
0.7478494488188976
20
0.4015390157480315
11
0.7479170866141732
21
0.4019225590551181
0
LINE
8
BLACK
6
CONTINUOUS
10
0.7479170866141732
20
0.4019225590551181
11
0.7484101968503937
21
0.4025102755905512
0
LINE
8
BLACK
6
CONTINUOUS
10
0.7484101968503937
20
0.4025102755905512
11
0.748793779527559
21
0.4031745669291338
0
LINE
8
BLACK
6
CONTINUOUS
10
0.748793779527559
20
0.4031745669291338
11
0.749044094488189
21
0.4032657086614173
0
LINE
8
BLACK
6
CONTINUOUS
10
0.749044094488189
20
0.4032657086614173
11
0.7492153937007874
21
0.4034698031496063
0
LINE
8
BLACK
6
CONTINUOUS
10
0.7492153937007874
20
0.4034698031496063
11
0.7499709448818898
21
0.4036030708661417
0
LINE
8
BLACK
6
CONTINUOUS
10
0.7499709448818898
20
0.4036030708661417
11
0.7506917716535433
21
0.4038653937007874
0
LINE
8
BLACK
6
CONTINUOUS
10
0.7506917716535433
20
0.4038653937007874
11
0.7656898818897637
21
0.4038653937007874
0
LINE
8
BLACK
6
CONTINUOUS
10
0.7656898818897637
20
0.4038653937007874
11
0.7666998031496063
21
0.4036873228346456
0
LINE
8
BLACK
6
CONTINUOUS
10
0.7536445275590551
20
0.3832429921259842
11
0.7649928346456693
21
0.3832429921259842
0
LINE
8
BLACK
6
CONTINUOUS
10
0.7649928346456693
20
0.3832429921259842
11
0.7676903149606299
21
0.3845917322834645
0
LINE
8
BLACK
6
CONTINUOUS
10
0.7676903149606299
20
0.3845917322834645
11
0.7688874409448818
21
0.3857888582677165
0
LINE
8
BLACK
6
CONTINUOUS
10
0.7688874409448818
20
0.3857888582677165
11
0.7702361811023621
21
0.3884863385826772
0
LINE
8
BLACK
6
CONTINUOUS
10
0.7702361811023621
20
0.3884863385826772
11
0.7702361811023621
21
0.3927165354330708
0
LINE
8
BLACK
6
CONTINUOUS
10
0.7702361811023621
20
0.3927165354330708
11
0.7688874409448818
21
0.3954140157480315
0
LINE
8
BLACK
6
CONTINUOUS
10
0.7688874409448818
20
0.3954140157480315
11
0.7676903149606299
21
0.3966111417322835
0
LINE
8
BLACK
6
CONTINUOUS
10
0.7676903149606299
20
0.3966111417322835
11
0.7649928346456693
21
0.3979598818897638
0
LINE
8
BLACK
6
CONTINUOUS
10
0.7649928346456693
20
0.3979598818897638
11
0.7536445275590551
21
0.3979598818897638
0
LINE
8
BLACK
6
CONTINUOUS
10
0.7536445275590551
20
0.3979598818897638
11
0.7536445275590551
21
0.3832429921259842
0
LINE
8
BLACK
6
CONTINUOUS
10
0.8216522047244095
20
0.7337911023622047
11
0.8218194488188976
21
0.7338205511811023
0
LINE
8
BLACK
6
CONTINUOUS
10
0.8218194488188976
20
0.7338205511811023
11
0.8225614960629921
21
0.733392125984252
0
LINE
8
BLACK
6
CONTINUOUS
10
0.8225614960629921
20
0.733392125984252
11
0.8233463385826771
21
0.7330477559055117
0
LINE
8
BLACK
6
CONTINUOUS
10
0.8233463385826771
20
0.7330477559055117
11
0.8234215748031496
21
0.7328955118110236
0
LINE
8
BLACK
6
CONTINUOUS
10
0.8234215748031496
20
0.7328955118110236
11
0.8235686220472441
21
0.7328106299212598
0
LINE
8
BLACK
6
CONTINUOUS
10
0.8235686220472441
20
0.7328106299212598
11
0.8238616929133858
21
0.7320053937007874
0
LINE
8
BLACK
6
CONTINUOUS
10
0.8238616929133858
20
0.7320053937007874
11
0.8242415354330709
21
0.7312371653543307
0
LINE
8
BLACK
6
CONTINUOUS
10
0.8242415354330709
20
0.7312371653543307
11
0.8242013385826772
21
0.7310722440944881
0
LINE
8
BLACK
6
CONTINUOUS
10
0.8242013385826772
20
0.7310722440944881
11
0.8242594488188976
21
0.7309126377952756
0
LINE
8
BLACK
6
CONTINUOUS
10
0.8242594488188976
20
0.7309126377952756
11
0.8242594488188976
21
0.6944953149606299
0
LINE
8
BLACK
6
CONTINUOUS
10
0.8242594488188976
20
0.6944953149606299
11
0.8325552755905512
21
0.6944953149606299
0
LINE
8
BLACK
6
CONTINUOUS
10
0.8325552755905512
20
0.6944953149606299
11
0.8335651968503937
21
0.6943172440944881
0
LINE
8
BLACK
6
CONTINUOUS
10
0.8335651968503937
20
0.6943172440944881
11
0.8351124409448819
21
0.693018937007874
0
LINE
8
BLACK
6
CONTINUOUS
10
0.8351124409448819
20
0.693018937007874
11
0.8354631889763779
21
0.6910298031496063
0
LINE
8
BLACK
6
CONTINUOUS
10
0.8354631889763779
20
0.6910298031496063
11
0.8344532677165354
21
0.6892806299212598
0
LINE
8
BLACK
6
CONTINUOUS
10
0.8344532677165354
20
0.6892806299212598
11
0.8325552755905512
21
0.6885898031496063
0
LINE
8
BLACK
6
CONTINUOUS
10
0.8325552755905512
20
0.6885898031496063
11
0.8100581102362204
21
0.6885898031496063
0
LINE
8
BLACK
6
CONTINUOUS
10
0.8100581102362204
20
0.6885898031496063
11
0.809048188976378
21
0.688767874015748
0
LINE
8
BLACK
6
CONTINUOUS
10
0.809048188976378
20
0.688767874015748
11
0.8075009448818897
21
0.6900661811023622
0
LINE
8
BLACK
6
CONTINUOUS
10
0.8075009448818897
20
0.6900661811023622
11
0.8071501968503937
21
0.6920553149606299
0
LINE
8
BLACK
6
CONTINUOUS
10
0.8071501968503937
20
0.6920553149606299
11
0.8081601181102362
21
0.6938044881889763
0
LINE
8
BLACK
6
CONTINUOUS
10
0.8081601181102362
20
0.6938044881889763
11
0.8100581102362204
21
0.6944953149606299
0
LINE
8
BLACK
6
CONTINUOUS
10
0.8100581102362204
20
0.6944953149606299
11
0.818353937007874
21
0.6944953149606299
0
LINE
8
BLACK
6
CONTINUOUS
10
0.818353937007874
20
0.6944953149606299
11
0.818353937007874
21
0.7219092913385826
0
LINE
8
BLACK
6
CONTINUOUS
10
0.818353937007874
20
0.7219092913385826
11
0.8158955511811024
21
0.719450905511811
0
LINE
8
BLACK
6
CONTINUOUS
10
0.8158955511811024
20
0.719450905511811
11
0.8151724409448818
21
0.7189446456692913
0
LINE
8
BLACK
6
CONTINUOUS
10
0.8151724409448818
20
0.7189446456692913
11
0.8151281496062992
21
0.7188977952755905
0
LINE
8
BLACK
6
CONTINUOUS
10
0.8151281496062992
20
0.7188977952755905
11
0.8113786220472441
21
0.7170230314960629
0
LINE
8
BLACK
6
CONTINUOUS
10
0.8113786220472441
20
0.7170230314960629
11
0.8103956692913385
21
0.7167306692913386
0
LINE
8
BLACK
6
CONTINUOUS
10
0.8103956692913385
20
0.7167306692913386
11
0.8084311811023622
21
0.7171999606299212
0
LINE
8
BLACK
6
CONTINUOUS
10
0.8084311811023622
20
0.7171999606299212
11
0.807227874015748
21
0.7188222047244094
0
LINE
8
BLACK
6
CONTINUOUS
10
0.807227874015748
20
0.7188222047244094
11
0.807348937007874
21
0.7208383858267716
0
LINE
8
BLACK
6
CONTINUOUS
10
0.807348937007874
20
0.7208383858267716
11
0.8087375984251969
21
0.7223050787401575
0
LINE
8
BLACK
6
CONTINUOUS
10
0.8087375984251969
20
0.7223050787401575
11
0.8120585433070866
21
0.7239655511811024
0
LINE
8
BLACK
6
CONTINUOUS
10
0.8120585433070866
20
0.7239655511811024
11
0.8152624409448819
21
0.7271694488188977
0
LINE
8
BLACK
6
CONTINUOUS
10
0.8152624409448819
20
0.7271694488188977
11
0.8188498425196851
21
0.7325505511811023
0
LINE
8
BLACK
6
CONTINUOUS
10
0.8188498425196851
20
0.7325505511811023
11
0.8195582283464566
21
0.7332920866141732
0
LINE
8
BLACK
6
CONTINUOUS
10
0.8195582283464566
20
0.7332920866141732
11
0.8197211811023621
21
0.7333398031496062
0
LINE
8
BLACK
6
CONTINUOUS
10
0.8197211811023621
20
0.7333398031496062
11
0.8198303149606299
21
0.7334698031496063
0
LINE
8
BLACK
6
CONTINUOUS
10
0.8198303149606299
20
0.7334698031496063
11
0.820674094488189
21
0.733618622047244
0
LINE
8
BLACK
6
CONTINUOUS
10
0.820674094488189
20
0.733618622047244
11
0.8214967322834645
21
0.7338592913385826
0
LINE
8
BLACK
6
CONTINUOUS
10
0.8214967322834645
20
0.7338592913385826
11
0.8216522047244095
21
0.7337911023622047
0
LINE
8
BLACK
6
CONTINUOUS
10
0.7989743700787402
20
0.7330477559055117
11
0.7998695669291338
21
0.7312371653543307
0
LINE
8
BLACK
6
CONTINUOUS
10
0.7998695669291338
20
0.7312371653543307
11
0.7993915748031496
21
0.7292747244094488
0
LINE
8
BLACK
6
CONTINUOUS
10
0.7993915748031496
20
0.7292747244094488
11
0.787360157480315
21
0.7112275984251968
0
LINE
8
BLACK
6
CONTINUOUS
10
0.787360157480315
20
0.7112275984251968
11
0.7993915748031496
21
0.6931804724409448
0
LINE
8
BLACK
6
CONTINUOUS
10
0.7993915748031496
20
0.6931804724409448
11
0.7998036220472441
21
0.6922413779527559
0
LINE
8
BLACK
6
CONTINUOUS
10
0.7998036220472441
20
0.6922413779527559
11
0.7995816141732284
21
0.6902338188976378
0
LINE
8
BLACK
6
CONTINUOUS
10
0.7995816141732284
20
0.6902338188976378
11
0.7981211023622047
21
0.6888386220472441
0
LINE
8
BLACK
6
CONTINUOUS
10
0.7981211023622047
20
0.6888386220472441
11
0.7961055118110236
21
0.6887086614173228
0
LINE
8
BLACK
6
CONTINUOUS
10
0.7961055118110236
20
0.6887086614173228
11
0.794477874015748
21
0.6899046850393701
0
LINE
8
BLACK
6
CONTINUOUS
10
0.794477874015748
20
0.6899046850393701
11
0.7838113779527559
21
0.7059044488188976
0
LINE
8
BLACK
6
CONTINUOUS
10
0.7838113779527559
20
0.7059044488188976
11
0.7731448818897637
21
0.6899046850393701
0
LINE
8
BLACK
6
CONTINUOUS
10
0.7731448818897637
20
0.6899046850393701
11
0.7724364960629921
21
0.6891631496062992
0
LINE
8
BLACK
6
CONTINUOUS
10
0.7724364960629921
20
0.6891631496062992
11
0.7704979921259842
21
0.688595905511811
0
LINE
8
BLACK
6
CONTINUOUS
10
0.7704979921259842
20
0.688595905511811
11
0.7686483858267716
21
0.6894074409448818
0
LINE
8
BLACK
6
CONTINUOUS
10
0.7686483858267716
20
0.6894074409448818
11
0.7677531889763779
21
0.691218031496063
0
LINE
8
BLACK
6
CONTINUOUS
10
0.7677531889763779
20
0.691218031496063
11
0.7682311811023622
21
0.6931804330708661
0
LINE
8
BLACK
6
CONTINUOUS
10
0.7682311811023622
20
0.6931804330708661
11
0.7802625984251969
21
0.7112275984251968
0
LINE
8
BLACK
6
CONTINUOUS
10
0.7802625984251969
20
0.7112275984251968
11
0.7682311811023622
21
0.7292747637795275
0
LINE
8
BLACK
6
CONTINUOUS
10
0.7682311811023622
20
0.7292747637795275
11
0.7678191338582677
21
0.7302138188976378
0
LINE
8
BLACK
6
CONTINUOUS
10
0.7678191338582677
20
0.7302138188976378
11
0.7680411417322834
21
0.7322213779527559
0
LINE
8
BLACK
6
CONTINUOUS
10
0.7680411417322834
20
0.7322213779527559
11
0.769501653543307
21
0.7336165748031496
0
LINE
8
BLACK
6
CONTINUOUS
10
0.769501653543307
20
0.7336165748031496
11
0.7715172440944882
21
0.7337465354330709
0
LINE
8
BLACK
6
CONTINUOUS
10
0.7715172440944882
20
0.7337465354330709
11
0.7731448818897637
21
0.7325505118110236
0
LINE
8
BLACK
6
CONTINUOUS
10
0.7731448818897637
20
0.7325505118110236
11
0.7838113779527559
21
0.7165507874015747
0
LINE
8
BLACK
6
CONTINUOUS
10
0.7838113779527559
20
0.7165507874015747
11
0.794477874015748
21
0.7325505118110236
0
LINE
8
BLACK
6
CONTINUOUS
10
0.794477874015748
20
0.7325505118110236
11
0.7951862598425197
21
0.7332920472440945
0
LINE
8
BLACK
6
CONTINUOUS
10
0.7951862598425197
20
0.7332920472440945
11
0.7971247637795276
21
0.7338592913385826
0
LINE
8
BLACK
6
CONTINUOUS
10
0.7971247637795276
20
0.7338592913385826
11
0.7989743700787402
21
0.7330477559055117
0
LINE
8
BLACK
6
CONTINUOUS
10
0.9539509842519684
20
0.965840748031496
11
0.9545275590551181
21
0.9644488188976378
0
LINE
8
BLACK
6
CONTINUOUS
10
0.9545275590551181
20
0.9644488188976378
11
0.9539509842519684
21
0.9630568897637795
0
LINE
8
BLACK
6
CONTINUOUS
10
0.9539509842519684
20
0.9630568897637795
11
0.9525590551181102
21
0.9624803149606299
0
LINE
8
BLACK
6
CONTINUOUS
10
0.9525590551181102
20
0.9624803149606299
11
0.6525590551181102
21
0.9624803149606299
0
LINE
8
BLACK
6
CONTINUOUS
10
0.6525590551181102
20
0.9624803149606299
11
0.651167125984252
21
0.9630568897637795
0
LINE
8
BLACK
6
CONTINUOUS
10
0.651167125984252
20
0.9630568897637795
11
0.6505905511811023
21
0.9644488188976378
0
LINE
8
BLACK
6
CONTINUOUS
10
0.6505905511811023
20
0.9644488188976378
11
0.651167125984252
21
0.965840748031496
0
LINE
8
BLACK
6
CONTINUOUS
10
0.651167125984252
20
0.965840748031496
11
0.6525590551181102
21
0.9664173228346457
0
LINE
8
BLACK
6
CONTINUOUS
10
0.6525590551181102
20
0.9664173228346457
11
0.9525590551181102
21
0.9664173228346457
0
LINE
8
BLACK
6
CONTINUOUS
10
0.9525590551181102
20
0.9664173228346457
11
0.9539509842519684
21
0.965840748031496
0
LINE
8
BLACK
6
CONTINUOUS
10
0.9825590551181103
20
0.9914173228346457
11
0.9839509842519685
21
0.990840748031496
0
LINE
8
BLACK
6
CONTINUOUS
10
0.9839509842519685
20
0.990840748031496
11
0.9845275590551181
21
0.9894488188976378
0
LINE
8
BLACK
6
CONTINUOUS
10
0.9845275590551181
20
0.9894488188976378
11
0.9845275590551181
21
0.4294488188976378
0
LINE
8
BLACK
6
CONTINUOUS
10
0.9845275590551181
20
0.4294488188976378
11
0.9839509842519685
21
0.4280568897637795
0
LINE
8
BLACK
6
CONTINUOUS
10
0.9839509842519685
20
0.4280568897637795
11
0.9825590551181103
21
0.4274803149606299
0
LINE
8
BLACK
6
CONTINUOUS
10
0.9825590551181103
20
0.4274803149606299
11
0.6225590551181103
21
0.4274803149606299
0
LINE
8
BLACK
6
CONTINUOUS
10
0.6225590551181103
20
0.4274803149606299
11
0.6211671259842519
21
0.4280568897637795
0
LINE
8
BLACK
6
CONTINUOUS
10
0.6211671259842519
20
0.4280568897637795
11
0.6205905511811024
21
0.4294488188976378
0
LINE
8
BLACK
6
CONTINUOUS
10
0.6205905511811024
20
0.4294488188976378
11
0.6205905511811024
21
0.9894488188976378
0
LINE
8
BLACK
6
CONTINUOUS
10
0.6205905511811024
20
0.9894488188976378
11
0.6211671259842519
21
0.990840748031496
0
LINE
8
BLACK
6
CONTINUOUS
10
0.6211671259842519
20
0.990840748031496
11
0.6225590551181103
21
0.9914173228346457
0
LINE
8
BLACK
6
CONTINUOUS
10
0.6225590551181103
20
0.9914173228346457
11
0.9825590551181103
21
0.9914173228346457
0
LINE
8
BLACK
6
CONTINUOUS
10
0.6245275590551181
20
0.9874803149606299
11
0.6245275590551181
21
0.4314173228346457
0
LINE
8
BLACK
6
CONTINUOUS
10
0.6245275590551181
20
0.4314173228346457
11
0.9805905511811024
21
0.4314173228346457
0
LINE
8
BLACK
6
CONTINUOUS
10
0.9805905511811024
20
0.4314173228346457
11
0.9805905511811024
21
0.9874803149606299
0
LINE
8
BLACK
6
CONTINUOUS
10
0.9805905511811024
20
0.9874803149606299
11
0.6245275590551181
21
0.9874803149606299
0
LINE
8
BLACK
6
CONTINUOUS
10
0.4134434645669291
20
1.7193135433070865
11
0.4267177952755906
21
1.7170581496062991
0
LINE
8
BLACK
6
CONTINUOUS
10
0.4267177952755906
20
1.7170581496062991
11
0.4396561417322835
21
1.7133306692913386
0
LINE
8
BLACK
6
CONTINUOUS
10
0.4396561417322835
20
1.7133306692913386
11
0.4520958267716536
21
1.7081779921259843
0
LINE
8
BLACK
6
CONTINUOUS
10
0.4520958267716536
20
1.7081779921259843
11
0.4638803543307087
21
1.7016649212598425
0
LINE
8
BLACK
6
CONTINUOUS
10
0.4638803543307087
20
1.7016649212598425
11
0.4748615354330709
21
1.6938733464566929
0
LINE
8
BLACK
6
CONTINUOUS
10
0.4748615354330709
20
1.6938733464566929
11
0.4849012992125984
21
1.6849012598425197
0
LINE
8
BLACK
6
CONTINUOUS
10
0.4849012992125984
20
1.6849012598425197
11
0.4938733858267716
21
1.6748614960629922
0
LINE
8
BLACK
6
CONTINUOUS
10
0.4938733858267716
20
1.6748614960629922
11
0.5016649606299213
21
1.6638803149606298
0
LINE
8
BLACK
6
CONTINUOUS
10
0.5016649606299213
20
1.6638803149606298
11
0.508178031496063
21
1.6520957874015747
0
LINE
8
BLACK
6
CONTINUOUS
10
0.508178031496063
20
1.6520957874015747
11
0.5133307086614173
21
1.6396561023622047
0
LINE
8
BLACK
6
CONTINUOUS
10
0.5133307086614173
20
1.6396561023622047
11
0.5170581889763779
21
1.6267177559055117
0
LINE
8
BLACK
6
CONTINUOUS
10
0.5170581889763779
20
1.6267177559055117
11
0.5193135826771653
21
1.6134434251968504
0
LINE
8
BLACK
6
CONTINUOUS
10
0.5193135826771653
20
1.6134434251968504
11
0.5200685433070866
21
1.5999999999999999
0
LINE
8
BLACK
6
CONTINUOUS
10
0.5200685433070866
20
1.5999999999999999
11
0.5193135826771653
21
1.5865565748031496
0
LINE
8
BLACK
6
CONTINUOUS
10
0.5193135826771653
20
1.5865565748031496
11
0.5170581889763779
21
1.5732822440944882
0
LINE
8
BLACK
6
CONTINUOUS
10
0.5170581889763779
20
1.5732822440944882
11
0.5133307086614173
21
1.5603438976377952
0
LINE
8
BLACK
6
CONTINUOUS
10
0.5133307086614173
20
1.5603438976377952
11
0.508178031496063
21
1.5479042125984253
0
LINE
8
BLACK
6
CONTINUOUS
10
0.508178031496063
20
1.5479042125984253
11
0.5016649606299213
21
1.5361196850393701
0
LINE
8
BLACK
6
CONTINUOUS
10
0.5016649606299213
20
1.5361196850393701
11
0.4938733858267716
21
1.5251385039370078
0
LINE
8
BLACK
6
CONTINUOUS
10
0.4938733858267716
20
1.5251385039370078
11
0.4849012992125984
21
1.5150987401574803
0
LINE
8
BLACK
6
CONTINUOUS
10
0.4849012992125984
20
1.5150987401574803
11
0.4748615354330709
21
1.5061266535433071
0
LINE
8
BLACK
6
CONTINUOUS
10
0.4748615354330709
20
1.5061266535433071
11
0.4638803543307087
21
1.4983350787401575
0
LINE
8
BLACK
6
CONTINUOUS
10
0.4638803543307087
20
1.4983350787401575
11
0.4520958267716536
21
1.4918220078740156
0
LINE
8
BLACK
6
CONTINUOUS
10
0.4520958267716536
20
1.4918220078740156
11
0.4396561417322835
21
1.4866693307086614
0
LINE
8
BLACK
6
CONTINUOUS
10
0.4396561417322835
20
1.4866693307086614
11
0.4267177952755906
21
1.4829418503937009
0
LINE
8
BLACK
6
CONTINUOUS
10
0.4267177952755906
20
1.4829418503937009
11
0.4134434645669291
21
1.4806864566929134
0
LINE
8
BLACK
6
CONTINUOUS
10
0.4134434645669291
20
1.4806864566929134
11
0.4000000393700787
21
1.4799314960629921
0
LINE
8
BLACK
6
CONTINUOUS
10
0.4000000393700787
20
1.4799314960629921
11
0.3865566141732283
21
1.4806864566929134
0
LINE
8
BLACK
6
CONTINUOUS
10
0.3865566141732283
20
1.4806864566929134
11
0.3732822834645669
21
1.4829418503937009
0
LINE
8
BLACK
6
CONTINUOUS
10
0.3732822834645669
20
1.4829418503937009
11
0.360343937007874
21
1.4866693307086614
0
LINE
8
BLACK
6
CONTINUOUS
10
0.360343937007874
20
1.4866693307086614
11
0.3479042519685039
21
1.4918220078740156
0
LINE
8
BLACK
6
CONTINUOUS
10
0.3479042519685039
20
1.4918220078740156
11
0.3361197244094488
21
1.4983350787401575
0
LINE
8
BLACK
6
CONTINUOUS
10
0.3361197244094488
20
1.4983350787401575
11
0.3251385433070866
21
1.5061266535433071
0
LINE
8
BLACK
6
CONTINUOUS
10
0.3251385433070866
20
1.5061266535433071
11
0.315098779527559
21
1.5150987401574803
0
LINE
8
BLACK
6
CONTINUOUS
10
0.315098779527559
20
1.5150987401574803
11
0.3061266929133858
21
1.5251385039370078
0
LINE
8
BLACK
6
CONTINUOUS
10
0.3061266929133858
20
1.5251385039370078
11
0.2983351181102362
21
1.5361196850393701
0
LINE
8
BLACK
6
CONTINUOUS
10
0.2983351181102362
20
1.5361196850393701
11
0.2918220472440945
21
1.5479042125984253
0
LINE
8
BLACK
6
CONTINUOUS
10
0.2918220472440945
20
1.5479042125984253
11
0.2866693700787402
21
1.5603438976377952
0
LINE
8
BLACK
6
CONTINUOUS
10
0.2866693700787402
20
1.5603438976377952
11
0.2829418897637795
21
1.5732822440944882
0
LINE
8
BLACK
6
CONTINUOUS
10
0.2829418897637795
20
1.5732822440944882
11
0.2806864960629921
21
1.5865565748031496
0
LINE
8
BLACK
6
CONTINUOUS
10
0.2806864960629921
20
1.5865565748031496
11
0.2799315354330709
21
1.5999999999999999
0
LINE
8
BLACK
6
CONTINUOUS
10
0.2799315354330709
20
1.5999999999999999
11
0.2806864960629921
21
1.6134434251968504
0
LINE
8
BLACK
6
CONTINUOUS
10
0.2806864960629921
20
1.6134434251968504
11
0.2829418897637795
21
1.6267177559055117
0
LINE
8
BLACK
6
CONTINUOUS
10
0.2829418897637795
20
1.6267177559055117
11
0.2866693700787402
21
1.6396561023622047
0
LINE
8
BLACK
6
CONTINUOUS
10
0.2866693700787402
20
1.6396561023622047
11
0.2918220472440945
21
1.6520957874015747
0
LINE
8
BLACK
6
CONTINUOUS
10
0.2918220472440945
20
1.6520957874015747
11
0.2983351181102362
21
1.6638803149606298
0
LINE
8
BLACK
6
CONTINUOUS
10
0.2983351181102362
20
1.6638803149606298
11
0.3061266929133858
21
1.6748614960629922
0
LINE
8
BLACK
6
CONTINUOUS
10
0.3061266929133858
20
1.6748614960629922
11
0.315098779527559
21
1.6849012598425197
0
LINE
8
BLACK
6
CONTINUOUS
10
0.315098779527559
20
1.6849012598425197
11
0.3251385433070866
21
1.6938733464566929
0
LINE
8
BLACK
6
CONTINUOUS
10
0.3251385433070866
20
1.6938733464566929
11
0.3361197244094488
21
1.7016649212598425
0
LINE
8
BLACK
6
CONTINUOUS
10
0.3361197244094488
20
1.7016649212598425
11
0.3479042519685039
21
1.7081779921259843
0
LINE
8
BLACK
6
CONTINUOUS
10
0.3479042519685039
20
1.7081779921259843
11
0.360343937007874
21
1.7133306692913386
0
LINE
8
BLACK
6
CONTINUOUS
10
0.360343937007874
20
1.7133306692913386
11
0.3732822834645669
21
1.7170581496062991
0
LINE
8
BLACK
6
CONTINUOUS
10
0.3732822834645669
20
1.7170581496062991
11
0.3865566141732283
21
1.7193135433070865
0
LINE
8
BLACK
6
CONTINUOUS
10
0.3865566141732283
20
1.7193135433070865
11
0.4000000393700787
21
1.7200685039370078
0
LINE
8
BLACK
6
CONTINUOUS
10
0.4000000393700787
20
1.7200685039370078
11
0.4134434645669291
21
1.7193135433070865
0
LINE
8
BLACK
6
CONTINUOUS
10
0.2844583070866142
20
1.5864951181102362
11
0.2868073622047244
21
1.5731728346456693
0
LINE
8
BLACK
6
CONTINUOUS
10
0.2868073622047244
20
1.5731728346456693
11
0.2906872047244095
21
1.5602133858267717
0
LINE
8
BLACK
6
CONTINUOUS
10
0.2906872047244095
20
1.5602133858267717
11
0.2960452755905512
21
1.547791968503937
0
LINE
8
BLACK
6
CONTINUOUS
10
0.2960452755905512
20
1.547791968503937
11
0.3028091732283464
21
1.5360765354330708
0
LINE
8
BLACK
6
CONTINUOUS
10
0.3028091732283464
20
1.5360765354330708
11
0.3108874015748032
21
1.5252255905511811
0
LINE
8
BLACK
6
CONTINUOUS
10
0.3108874015748032
20
1.5252255905511811
11
0.3201707086614173
21
1.5153858661417323
0
LINE
8
BLACK
6
CONTINUOUS
10
0.3201707086614173
20
1.5153858661417323
11
0.3305335826771654
21
1.5066903543307086
0
LINE
8
BLACK
6
CONTINUOUS
10
0.3305335826771654
20
1.5066903543307086
11
0.3418358661417323
21
1.4992567322834645
0
LINE
8
BLACK
6
CONTINUOUS
10
0.3418358661417323
20
1.4992567322834645
11
0.3539247637795275
21
1.4931854724409448
0
LINE
8
BLACK
6
CONTINUOUS
10
0.3539247637795275
20
1.4931854724409448
11
0.3666366929133858
21
1.4885587007874015
0
LINE
8
BLACK
6
CONTINUOUS
10
0.3666366929133858
20
1.4885587007874015
11
0.379799842519685
21
1.4854389763779527
0
LINE
8
BLACK
6
CONTINUOUS
10
0.379799842519685
20
1.4854389763779527
11
0.3932361417322834
21
1.4838685039370079
0
LINE
8
BLACK
6
CONTINUOUS
10
0.3932361417322834
20
1.4838685039370079
11
0.406763937007874
21
1.4838685039370079
0
LINE
8
BLACK
6
CONTINUOUS
10
0.406763937007874
20
1.4838685039370079
11
0.4202002362204724
21
1.4854389763779527
0
LINE
8
BLACK
6
CONTINUOUS
10
0.4202002362204724
20
1.4854389763779527
11
0.4333633858267716
21
1.4885587007874015
0
LINE
8
BLACK
6
CONTINUOUS
10
0.4333633858267716
20
1.4885587007874015
11
0.4460753149606299
21
1.4931854724409448
0
LINE
8
BLACK
6
CONTINUOUS
10
0.4460753149606299
20
1.4931854724409448
11
0.4581642125984252
21
1.4992567322834645
0
LINE
8
BLACK
6
CONTINUOUS
10
0.4581642125984252
20
1.4992567322834645
11
0.4694664960629921
21
1.5066903543307086
0
LINE
8
BLACK
6
CONTINUOUS
10
0.4694664960629921
20
1.5066903543307086
11
0.4798293700787402
21
1.5153858661417323
0
LINE
8
BLACK
6
CONTINUOUS
10
0.4798293700787402
20
1.5153858661417323
11
0.4891126771653543
21
1.5252255905511811
0
LINE
8
BLACK
6
CONTINUOUS
10
0.4891126771653543
20
1.5252255905511811
11
0.497190905511811
21
1.5360765354330708
0
LINE
8
BLACK
6
CONTINUOUS
10
0.497190905511811
20
1.5360765354330708
11
0.5039548031496063
21
1.547791968503937
0
LINE
8
BLACK
6
CONTINUOUS
10
0.5039548031496063
20
1.547791968503937
11
0.509312874015748
21
1.5602133858267717
0
LINE
8
BLACK
6
CONTINUOUS
10
0.509312874015748
20
1.5602133858267717
11
0.5131927165354331
21
1.5731728346456693
0
LINE
8
BLACK
6
CONTINUOUS
10
0.5131927165354331
20
1.5731728346456693
11
0.5155417716535433
21
1.5864951181102362
0
LINE
8
BLACK
6
CONTINUOUS
10
0.5155417716535433
20
1.5864951181102362
11
0.5163283464566929
21
1.5999999999999999
0
LINE
8
BLACK
6
CONTINUOUS
10
0.5163283464566929
20
1.5999999999999999
11
0.5155417716535433
21
1.6135048818897637
0
LINE
8
BLACK
6
CONTINUOUS
10
0.5155417716535433
20
1.6135048818897637
11
0.5131927165354331
21
1.6268271653543307
0
LINE
8
BLACK
6
CONTINUOUS
10
0.5131927165354331
20
1.6268271653543307
11
0.509312874015748
21
1.6397866141732282
0
LINE
8
BLACK
6
CONTINUOUS
10
0.509312874015748
20
1.6397866141732282
11
0.5039548031496063
21
1.652208031496063
0
LINE
8
BLACK
6
CONTINUOUS
10
0.5039548031496063
20
1.652208031496063
11
0.497190905511811
21
1.6639234645669292
0
LINE
8
BLACK
6
CONTINUOUS
10
0.497190905511811
20
1.6639234645669292
11
0.4891126771653543
21
1.6747744094488188
0
LINE
8
BLACK
6
CONTINUOUS
10
0.4891126771653543
20
1.6747744094488188
11
0.4798293700787402
21
1.6846141338582676
0
LINE
8
BLACK
6
CONTINUOUS
10
0.4798293700787402
20
1.6846141338582676
11
0.4694664960629921
21
1.6933096456692913
0
LINE
8
BLACK
6
CONTINUOUS
10
0.4694664960629921
20
1.6933096456692913
11
0.4581642125984252
21
1.7007432677165355
0
LINE
8
BLACK
6
CONTINUOUS
10
0.4581642125984252
20
1.7007432677165355
11
0.4460753149606299
21
1.7068145275590552
0
LINE
8
BLACK
6
CONTINUOUS
10
0.4460753149606299
20
1.7068145275590552
11
0.4333633858267716
21
1.7114412992125985
0
LINE
8
BLACK
6
CONTINUOUS
10
0.4333633858267716
20
1.7114412992125985
11
0.4202002362204724
21
1.7145610236220472
0
LINE
8
BLACK
6
CONTINUOUS
10
0.4202002362204724
20
1.7145610236220472
11
0.406763937007874
21
1.7161314960629921
0
LINE
8
BLACK
6
CONTINUOUS
10
0.406763937007874
20
1.7161314960629921
11
0.3932361417322834
21
1.7161314960629921
0
LINE
8
BLACK
6
CONTINUOUS
10
0.3932361417322834
20
1.7161314960629921
11
0.379799842519685
21
1.7145610236220472
0
LINE
8
BLACK
6
CONTINUOUS
10
0.379799842519685
20
1.7145610236220472
11
0.3666366929133858
21
1.7114412992125985
0
LINE
8
BLACK
6
CONTINUOUS
10
0.3666366929133858
20
1.7114412992125985
11
0.3539247637795275
21
1.7068145275590552
0
LINE
8
BLACK
6
CONTINUOUS
10
0.3539247637795275
20
1.7068145275590552
11
0.3418358661417323
21
1.7007432677165355
0
LINE
8
BLACK
6
CONTINUOUS
10
0.3418358661417323
20
1.7007432677165355
11
0.3305335826771654
21
1.6933096456692913
0
LINE
8
BLACK
6
CONTINUOUS
10
0.3305335826771654
20
1.6933096456692913
11
0.3201707086614173
21
1.6846141338582676
0
LINE
8
BLACK
6
CONTINUOUS
10
0.3201707086614173
20
1.6846141338582676
11
0.3108874015748032
21
1.6747744094488188
0
LINE
8
BLACK
6
CONTINUOUS
10
0.3108874015748032
20
1.6747744094488188
11
0.3028091732283464
21
1.6639234645669292
0
LINE
8
BLACK
6
CONTINUOUS
10
0.3028091732283464
20
1.6639234645669292
11
0.2960452755905512
21
1.652208031496063
0
LINE
8
BLACK
6
CONTINUOUS
10
0.2960452755905512
20
1.652208031496063
11
0.2906872047244095
21
1.6397866141732282
0
LINE
8
BLACK
6
CONTINUOUS
10
0.2906872047244095
20
1.6397866141732282
11
0.2868073622047244
21
1.6268271653543307
0
LINE
8
BLACK
6
CONTINUOUS
10
0.2868073622047244
20
1.6268271653543307
11
0.2844583070866142
21
1.6135048818897637
0
LINE
8
BLACK
6
CONTINUOUS
10
0.2844583070866142
20
1.6135048818897637
11
0.2836717322834645
21
1.5999999999999999
0
LINE
8
BLACK
6
CONTINUOUS
10
0.2836717322834645
20
1.5999999999999999
11
0.2844583070866142
21
1.5864951181102362
0
LINE
8
BLACK
6
CONTINUOUS
10
1.2134434645669292
20
1.7193135433070865
11
1.2267177952755906
21
1.7170581496062991
0
LINE
8
BLACK
6
CONTINUOUS
10
1.2267177952755906
20
1.7170581496062991
11
1.2396561417322833
21
1.7133306692913386
0
LINE
8
BLACK
6
CONTINUOUS
10
1.2396561417322833
20
1.7133306692913386
11
1.2520958267716535
21
1.7081779921259843
0
LINE
8
BLACK
6
CONTINUOUS
10
1.2520958267716535
20
1.7081779921259843
11
1.2638803543307087
21
1.7016649212598425
0
LINE
8
BLACK
6
CONTINUOUS
10
1.2638803543307087
20
1.7016649212598425
11
1.2748615354330708
21
1.6938733464566929
0
LINE
8
BLACK
6
CONTINUOUS
10
1.2748615354330708
20
1.6938733464566929
11
1.2849012992125983
21
1.6849012598425197
0
LINE
8
BLACK
6
CONTINUOUS
10
1.2849012992125983
20
1.6849012598425197
11
1.2938733858267717
21
1.6748614960629922
0
LINE
8
BLACK
6
CONTINUOUS
10
1.2938733858267717
20
1.6748614960629922
11
1.3016649606299213
21
1.6638803149606298
0
LINE
8
BLACK
6
CONTINUOUS
10
1.3016649606299213
20
1.6638803149606298
11
1.3081780314960629
21
1.6520957874015747
0
LINE
8
BLACK
6
CONTINUOUS
10
1.3081780314960629
20
1.6520957874015747
11
1.3133307086614172
21
1.6396561023622047
0
LINE
8
BLACK
6
CONTINUOUS
10
1.3133307086614172
20
1.6396561023622047
11
1.3170581889763779
21
1.6267177559055117
0
LINE
8
BLACK
6
CONTINUOUS
10
1.3170581889763779
20
1.6267177559055117
11
1.3193135826771654
21
1.6134434251968504
0
LINE
8
BLACK
6
CONTINUOUS
10
1.3193135826771654
20
1.6134434251968504
11
1.3200685433070867
21
1.5999999999999999
0
LINE
8
BLACK
6
CONTINUOUS
10
1.3200685433070867
20
1.5999999999999999
11
1.3193135826771654
21
1.5865565748031496
0
LINE
8
BLACK
6
CONTINUOUS
10
1.3193135826771654
20
1.5865565748031496
11
1.3170581889763779
21
1.5732822440944882
0
LINE
8
BLACK
6
CONTINUOUS
10
1.3170581889763779
20
1.5732822440944882
11
1.3133307086614172
21
1.5603438976377952
0
LINE
8
BLACK
6
CONTINUOUS
10
1.3133307086614172
20
1.5603438976377952
11
1.3081780314960629
21
1.5479042125984253
0
LINE
8
BLACK
6
CONTINUOUS
10
1.3081780314960629
20
1.5479042125984253
11
1.3016649606299213
21
1.5361196850393701
0
LINE
8
BLACK
6
CONTINUOUS
10
1.3016649606299213
20
1.5361196850393701
11
1.2938733858267717
21
1.5251385039370078
0
LINE
8
BLACK
6
CONTINUOUS
10
1.2938733858267717
20
1.5251385039370078
11
1.2849012992125983
21
1.5150987401574803
0
LINE
8
BLACK
6
CONTINUOUS
10
1.2849012992125983
20
1.5150987401574803
11
1.2748615354330708
21
1.5061266535433071
0
LINE
8
BLACK
6
CONTINUOUS
10
1.2748615354330708
20
1.5061266535433071
11
1.2638803543307087
21
1.4983350787401575
0
LINE
8
BLACK
6
CONTINUOUS
10
1.2638803543307087
20
1.4983350787401575
11
1.2520958267716535
21
1.4918220078740156
0
LINE
8
BLACK
6
CONTINUOUS
10
1.2520958267716535
20
1.4918220078740156
11
1.2396561417322833
21
1.4866693307086614
0
LINE
8
BLACK
6
CONTINUOUS
10
1.2396561417322833
20
1.4866693307086614
11
1.2267177952755906
21
1.4829418503937009
0
LINE
8
BLACK
6
CONTINUOUS
10
1.2267177952755906
20
1.4829418503937009
11
1.2134434645669292
21
1.4806864566929134
0
LINE
8
BLACK
6
CONTINUOUS
10
1.2134434645669292
20
1.4806864566929134
11
1.2000000393700787
21
1.4799314960629921
0
LINE
8
BLACK
6
CONTINUOUS
10
1.2000000393700787
20
1.4799314960629921
11
1.1865566141732282
21
1.4806864566929134
0
LINE
8
BLACK
6
CONTINUOUS
10
1.1865566141732282
20
1.4806864566929134
11
1.1732822834645669
21
1.4829418503937009
0
LINE
8
BLACK
6
CONTINUOUS
10
1.1732822834645669
20
1.4829418503937009
11
1.1603439370078741
21
1.4866693307086614
0
LINE
8
BLACK
6
CONTINUOUS
10
1.1603439370078741
20
1.4866693307086614
11
1.1479042519685039
21
1.4918220078740156
0
LINE
8
BLACK
6
CONTINUOUS
10
1.1479042519685039
20
1.4918220078740156
11
1.1361197244094488
21
1.4983350787401575
0
LINE
8
BLACK
6
CONTINUOUS
10
1.1361197244094488
20
1.4983350787401575
11
1.1251385433070866
21
1.5061266535433071
0
LINE
8
BLACK
6
CONTINUOUS
10
1.1251385433070866
20
1.5061266535433071
11
1.1150987795275591
21
1.5150987401574803
0
LINE
8
BLACK
6
CONTINUOUS
10
1.1150987795275591
20
1.5150987401574803
11
1.1061266929133857
21
1.5251385039370078
0
LINE
8
BLACK
6
CONTINUOUS
10
1.1061266929133857
20
1.5251385039370078
11
1.0983351181102361
21
1.5361196850393701
0
LINE
8
BLACK
6
CONTINUOUS
10
1.0983351181102361
20
1.5361196850393701
11
1.0918220472440945
21
1.5479042125984253
0
LINE
8
BLACK
6
CONTINUOUS
10
1.0918220472440945
20
1.5479042125984253
11
1.0866693700787402
21
1.5603438976377952
0
LINE
8
BLACK
6
CONTINUOUS
10
1.0866693700787402
20
1.5603438976377952
11
1.0829418897637795
21
1.5732822440944882
0
LINE
8
BLACK
6
CONTINUOUS
10
1.0829418897637795
20
1.5732822440944882
11
1.0806864960629921
21
1.5865565748031496
0
LINE
8
BLACK
6
CONTINUOUS
10
1.0806864960629921
20
1.5865565748031496
11
1.0799315354330707
21
1.5999999999999999
0
LINE
8
BLACK
6
CONTINUOUS
10
1.0799315354330707
20
1.5999999999999999
11
1.0806864960629921
21
1.6134434251968504
0
LINE
8
BLACK
6
CONTINUOUS
10
1.0806864960629921
20
1.6134434251968504
11
1.0829418897637795
21
1.6267177559055117
0
LINE
8
BLACK
6
CONTINUOUS
10
1.0829418897637795
20
1.6267177559055117
11
1.0866693700787402
21
1.6396561023622047
0
LINE
8
BLACK
6
CONTINUOUS
10
1.0866693700787402
20
1.6396561023622047
11
1.0918220472440945
21
1.6520957874015747
0
LINE
8
BLACK
6
CONTINUOUS
10
1.0918220472440945
20
1.6520957874015747
11
1.0983351181102361
21
1.6638803149606298
0
LINE
8
BLACK
6
CONTINUOUS
10
1.0983351181102361
20
1.6638803149606298
11
1.1061266929133857
21
1.6748614960629922
0
LINE
8
BLACK
6
CONTINUOUS
10
1.1061266929133857
20
1.6748614960629922
11
1.1150987795275591
21
1.6849012598425197
0
LINE
8
BLACK
6
CONTINUOUS
10
1.1150987795275591
20
1.6849012598425197
11
1.1251385433070866
21
1.6938733464566929
0
LINE
8
BLACK
6
CONTINUOUS
10
1.1251385433070866
20
1.6938733464566929
11
1.1361197244094488
21
1.7016649212598425
0
LINE
8
BLACK
6
CONTINUOUS
10
1.1361197244094488
20
1.7016649212598425
11
1.1479042519685039
21
1.7081779921259843
0
LINE
8
BLACK
6
CONTINUOUS
10
1.1479042519685039
20
1.7081779921259843
11
1.1603439370078741
21
1.7133306692913386
0
LINE
8
BLACK
6
CONTINUOUS
10
1.1603439370078741
20
1.7133306692913386
11
1.1732822834645669
21
1.7170581496062991
0
LINE
8
BLACK
6
CONTINUOUS
10
1.1732822834645669
20
1.7170581496062991
11
1.1865566141732282
21
1.7193135433070865
0
LINE
8
BLACK
6
CONTINUOUS
10
1.1865566141732282
20
1.7193135433070865
11
1.2000000393700787
21
1.7200685039370078
0
LINE
8
BLACK
6
CONTINUOUS
10
1.2000000393700787
20
1.7200685039370078
11
1.2134434645669292
21
1.7193135433070865
0
LINE
8
BLACK
6
CONTINUOUS
10
1.0844583070866141
20
1.5864951181102362
11
1.0868073622047243
21
1.5731728346456693
0
LINE
8
BLACK
6
CONTINUOUS
10
1.0868073622047243
20
1.5731728346456693
11
1.0906872047244094
21
1.5602133858267717
0
LINE
8
BLACK
6
CONTINUOUS
10
1.0906872047244094
20
1.5602133858267717
11
1.0960452755905512
21
1.547791968503937
0
LINE
8
BLACK
6
CONTINUOUS
10
1.0960452755905512
20
1.547791968503937
11
1.1028091732283465
21
1.5360765354330708
0
LINE
8
BLACK
6
CONTINUOUS
10
1.1028091732283465
20
1.5360765354330708
11
1.1108874015748031
21
1.5252255905511811
0
LINE
8
BLACK
6
CONTINUOUS
10
1.1108874015748031
20
1.5252255905511811
11
1.1201707086614172
21
1.5153858661417323
0
LINE
8
BLACK
6
CONTINUOUS
10
1.1201707086614172
20
1.5153858661417323
11
1.1305335826771654
21
1.5066903543307086
0
LINE
8
BLACK
6
CONTINUOUS
10
1.1305335826771654
20
1.5066903543307086
11
1.1418358661417323
21
1.4992567322834645
0
LINE
8
BLACK
6
CONTINUOUS
10
1.1418358661417323
20
1.4992567322834645
11
1.1539247637795276
21
1.4931854724409448
0
LINE
8
BLACK
6
CONTINUOUS
10
1.1539247637795276
20
1.4931854724409448
11
1.1666366929133858
21
1.4885587007874015
0
LINE
8
BLACK
6
CONTINUOUS
10
1.1666366929133858
20
1.4885587007874015
11
1.1797998425196849
21
1.4854389763779527
0
LINE
8
BLACK
6
CONTINUOUS
10
1.1797998425196849
20
1.4854389763779527
11
1.1932361417322834
21
1.4838685039370079
0
LINE
8
BLACK
6
CONTINUOUS
10
1.1932361417322834
20
1.4838685039370079
11
1.206763937007874
21
1.4838685039370079
0
LINE
8
BLACK
6
CONTINUOUS
10
1.206763937007874
20
1.4838685039370079
11
1.2202002362204725
21
1.4854389763779527
0
LINE
8
BLACK
6
CONTINUOUS
10
1.2202002362204725
20
1.4854389763779527
11
1.2333633858267716
21
1.4885587007874015
0
LINE
8
BLACK
6
CONTINUOUS
10
1.2333633858267716
20
1.4885587007874015
11
1.2460753149606298
21
1.4931854724409448
0
LINE
8
BLACK
6
CONTINUOUS
10
1.2460753149606298
20
1.4931854724409448
11
1.2581642125984251
21
1.4992567322834645
0
LINE
8
BLACK
6
CONTINUOUS
10
1.2581642125984251
20
1.4992567322834645
11
1.269466496062992
21
1.5066903543307086
0
LINE
8
BLACK
6
CONTINUOUS
10
1.269466496062992
20
1.5066903543307086
11
1.2798293700787402
21
1.5153858661417323
0
LINE
8
BLACK
6
CONTINUOUS
10
1.2798293700787402
20
1.5153858661417323
11
1.2891126771653543
21
1.5252255905511811
0
LINE
8
BLACK
6
CONTINUOUS
10
1.2891126771653543
20
1.5252255905511811
11
1.2971909055118109
21
1.5360765354330708
0
LINE
8
BLACK
6
CONTINUOUS
10
1.2971909055118109
20
1.5360765354330708
11
1.3039548031496062
21
1.547791968503937
0
LINE
8
BLACK
6
CONTINUOUS
10
1.3039548031496062
20
1.547791968503937
11
1.309312874015748
21
1.5602133858267717
0
LINE
8
BLACK
6
CONTINUOUS
10
1.309312874015748
20
1.5602133858267717
11
1.3131927165354331
21
1.5731728346456693
0
LINE
8
BLACK
6
CONTINUOUS
10
1.3131927165354331
20
1.5731728346456693
11
1.3155417716535434
21
1.5864951181102362
0
LINE
8
BLACK
6
CONTINUOUS
10
1.3155417716535434
20
1.5864951181102362
11
1.3163283464566928
21
1.5999999999999999
0
LINE
8
BLACK
6
CONTINUOUS
10
1.3163283464566928
20
1.5999999999999999
11
1.3155417716535434
21
1.6135048818897637
0
LINE
8
BLACK
6
CONTINUOUS
10
1.3155417716535434
20
1.6135048818897637
11
1.3131927165354331
21
1.6268271653543307
0
LINE
8
BLACK
6
CONTINUOUS
10
1.3131927165354331
20
1.6268271653543307
11
1.309312874015748
21
1.6397866141732282
0
LINE
8
BLACK
6
CONTINUOUS
10
1.309312874015748
20
1.6397866141732282
11
1.3039548031496062
21
1.652208031496063
0
LINE
8
BLACK
6
CONTINUOUS
10
1.3039548031496062
20
1.652208031496063
11
1.2971909055118109
21
1.6639234645669292
0
LINE
8
BLACK
6
CONTINUOUS
10
1.2971909055118109
20
1.6639234645669292
11
1.2891126771653543
21
1.6747744094488188
0
LINE
8
BLACK
6
CONTINUOUS
10
1.2891126771653543
20
1.6747744094488188
11
1.2798293700787402
21
1.6846141338582676
0
LINE
8
BLACK
6
CONTINUOUS
10
1.2798293700787402
20
1.6846141338582676
11
1.269466496062992
21
1.6933096456692913
0
LINE
8
BLACK
6
CONTINUOUS
10
1.269466496062992
20
1.6933096456692913
11
1.2581642125984251
21
1.7007432677165355
0
LINE
8
BLACK
6
CONTINUOUS
10
1.2581642125984251
20
1.7007432677165355
11
1.2460753149606298
21
1.7068145275590552
0
LINE
8
BLACK
6
CONTINUOUS
10
1.2460753149606298
20
1.7068145275590552
11
1.2333633858267716
21
1.7114412992125985
0
LINE
8
BLACK
6
CONTINUOUS
10
1.2333633858267716
20
1.7114412992125985
11
1.2202002362204725
21
1.7145610236220472
0
LINE
8
BLACK
6
CONTINUOUS
10
1.2202002362204725
20
1.7145610236220472
11
1.206763937007874
21
1.7161314960629921
0
LINE
8
BLACK
6
CONTINUOUS
10
1.206763937007874
20
1.7161314960629921
11
1.1932361417322834
21
1.7161314960629921
0
LINE
8
BLACK
6
CONTINUOUS
10
1.1932361417322834
20
1.7161314960629921
11
1.1797998425196849
21
1.7145610236220472
0
LINE
8
BLACK
6
CONTINUOUS
10
1.1797998425196849
20
1.7145610236220472
11
1.1666366929133858
21
1.7114412992125985
0
LINE
8
BLACK
6
CONTINUOUS
10
1.1666366929133858
20
1.7114412992125985
11
1.1539247637795276
21
1.7068145275590552
0
LINE
8
BLACK
6
CONTINUOUS
10
1.1539247637795276
20
1.7068145275590552
11
1.1418358661417323
21
1.7007432677165355
0
LINE
8
BLACK
6
CONTINUOUS
10
1.1418358661417323
20
1.7007432677165355
11
1.1305335826771654
21
1.6933096456692913
0
LINE
8
BLACK
6
CONTINUOUS
10
1.1305335826771654
20
1.6933096456692913
11
1.1201707086614172
21
1.6846141338582676
0
LINE
8
BLACK
6
CONTINUOUS
10
1.1201707086614172
20
1.6846141338582676
11
1.1108874015748031
21
1.6747744094488188
0
LINE
8
BLACK
6
CONTINUOUS
10
1.1108874015748031
20
1.6747744094488188
11
1.1028091732283465
21
1.6639234645669292
0
LINE
8
BLACK
6
CONTINUOUS
10
1.1028091732283465
20
1.6639234645669292
11
1.0960452755905512
21
1.652208031496063
0
LINE
8
BLACK
6
CONTINUOUS
10
1.0960452755905512
20
1.652208031496063
11
1.0906872047244094
21
1.6397866141732282
0
LINE
8
BLACK
6
CONTINUOUS
10
1.0906872047244094
20
1.6397866141732282
11
1.0868073622047243
21
1.6268271653543307
0
LINE
8
BLACK
6
CONTINUOUS
10
1.0868073622047243
20
1.6268271653543307
11
1.0844583070866141
21
1.6135048818897637
0
LINE
8
BLACK
6
CONTINUOUS
10
1.0844583070866141
20
1.6135048818897637
11
1.0836717322834646
21
1.5999999999999999
0
LINE
8
BLACK
6
CONTINUOUS
10
1.0836717322834646
20
1.5999999999999999
11
1.0844583070866141
21
1.5864951181102362
  0
ENDSEC
  0
EOF
