  0
SECTION
  2
HEADER
  9
$ANGBASE
  50
0.0
  9
$ANGDIR
  70
1
  9
$MEASUREMENT
  70
0
  0
ENDSEC
  0
SECTION
  2
TABLES
  0
TABLE
  2
LTYPE
  70
4
  0
LTYPE
  5
40F
  2
CONTINUOUS
  70
0
  3
Solid line
  72
65
  73
0
  40
0.0
  0
LTYPE
  5
410
  2
DASHDOT
 70
0
  3
Dash Dot ____ _ ____ _
 72
65
 73
4
 40
2.0
 49
1.25
 49
-0.25
 49
0.25
 49
-0.25
  0
LTYPE
  5
411
  2
DASHED
 70
0
  3
Dashed __ __ __ __ __
 72
65
 73
2
 40
0.75
 49
0.5
 49
-0.25
  0
LTYPE
  5
43B
  2
DOTTED
 70
0
  3
Dotted .  .  .  .
 72
65
 73
2
 40
0.2
 49
0.0
 49
-0.2
  0
ENDTAB
  0
TABLE
  2
STYLE
  70
4
  0
STYLE
  2
KICAD
  70
0
  40
0
  41
1
  42
1
  50
0
  71
0
  3
isocp.shx
  0
STYLE
  2
KICADB
  70
0
  40
0
  41
1
  42
1
  50
0
  71
0
  3
isocp.shx
  0
STYLE
  2
KICADI
  70
0
  40
0
  41
1
  42
1
  50
15
  71
0
  3
isocp.shx
  0
STYLE
  2
KICADBI
  70
0
  40
0
  41
1
  42
1
  50
15
  71
0
  3
isocp.shx
  0
ENDTAB
  0
TABLE
  2
LAYER
  70
1
  0
LAYER
  2
BLACK
  70
0
  62
7
  6
CONTINUOUS
  0
ENDTAB
  0
ENDSEC
  0
SECTION
  2
ENTITIES
0
LINE
8
BLACK
6
CONTINUOUS
10
0.5488164173228346
20
0.9727630708661417
11
0.5489516535433071
21
0.9726496062992126
0
LINE
8
BLACK
6
CONTINUOUS
10
0.5489516535433071
20
0.9726496062992126
11
0.5491270078740157
21
0.9726294094488189
0
LINE
8
BLACK
6
CONTINUOUS
10
0.5491270078740157
20
0.9726294094488189
11
0.5521266141732283
21
0.9711296062992125
0
LINE
8
BLACK
6
CONTINUOUS
10
0.5521266141732283
20
0.9711296062992125
11
0.5528355905511811
21
0.9706037795275591
0
LINE
8
BLACK
6
CONTINUOUS
10
0.5528355905511811
20
0.9706037795275591
11
0.5528939763779528
21
0.9705765354330709
0
LINE
8
BLACK
6
CONTINUOUS
10
0.5528939763779528
20
0.9705765354330709
11
0.5543938188976378
21
0.9690767322834646
0
LINE
8
BLACK
6
CONTINUOUS
10
0.5543938188976378
20
0.9690767322834646
11
0.5549820472440945
21
0.9682366929133858
0
LINE
8
BLACK
6
CONTINUOUS
10
0.5549820472440945
20
0.9682366929133858
11
0.5551581102362204
21
0.9662246062992126
0
LINE
8
BLACK
6
CONTINUOUS
10
0.5551581102362204
20
0.9662246062992126
11
0.5539996062992126
21
0.9645700393700787
0
LINE
8
BLACK
6
CONTINUOUS
10
0.5539996062992126
20
0.9645700393700787
11
0.552048622047244
21
0.9640472834645669
0
LINE
8
BLACK
6
CONTINUOUS
10
0.552048622047244
20
0.9640472834645669
11
0.5502180708661417
21
0.9649008267716536
0
LINE
8
BLACK
6
CONTINUOUS
10
0.5502180708661417
20
0.9649008267716536
11
0.5490570078740158
21
0.9660618503937007
0
LINE
8
BLACK
6
CONTINUOUS
10
0.5490570078740158
20
0.9660618503937007
11
0.5471094488188977
21
0.9670356299212598
0
LINE
8
BLACK
6
CONTINUOUS
10
0.5471094488188977
20
0.9670356299212598
11
0.5410044881889764
21
0.9670356299212598
0
LINE
8
BLACK
6
CONTINUOUS
10
0.5410044881889764
20
0.9670356299212598
11
0.5390568503937008
21
0.9660618503937007
0
LINE
8
BLACK
6
CONTINUOUS
10
0.5390568503937008
20
0.9660618503937007
11
0.5382347244094489
21
0.9652397244094488
0
LINE
8
BLACK
6
CONTINUOUS
10
0.5382347244094489
20
0.9652397244094488
11
0.5372609448818898
21
0.963292125984252
0
LINE
8
BLACK
6
CONTINUOUS
10
0.5372609448818898
20
0.963292125984252
11
0.5372609448818898
21
0.9614686614173228
0
LINE
8
BLACK
6
CONTINUOUS
10
0.5372609448818898
20
0.9614686614173228
11
0.538388779527559
21
0.9580851181102362
0
LINE
8
BLACK
6
CONTINUOUS
10
0.538388779527559
20
0.9580851181102362
11
0.5558936614173228
21
0.9405802362204724
0
LINE
8
BLACK
6
CONTINUOUS
10
0.5558936614173228
20
0.9405802362204724
11
0.5562634251968503
21
0.9400522047244094
0
LINE
8
BLACK
6
CONTINUOUS
10
0.5562634251968503
20
0.9400522047244094
11
0.5563629133858268
21
0.9399687007874016
0
LINE
8
BLACK
6
CONTINUOUS
10
0.5563629133858268
20
0.9399687007874016
11
0.5563766929133858
21
0.9398903937007874
0
LINE
8
BLACK
6
CONTINUOUS
10
0.5563766929133858
20
0.9398903937007874
11
0.5564818897637795
21
0.9397401968503937
0
LINE
8
BLACK
6
CONTINUOUS
10
0.5564818897637795
20
0.9397401968503937
11
0.5565593307086614
21
0.9388546456692913
0
LINE
8
BLACK
6
CONTINUOUS
10
0.5565593307086614
20
0.9388546456692913
11
0.5567136614173228
21
0.9379795669291339
0
LINE
8
BLACK
6
CONTINUOUS
10
0.5567136614173228
20
0.9379795669291339
11
0.5566461417322834
21
0.9378626377952756
0
LINE
8
BLACK
6
CONTINUOUS
10
0.5566461417322834
20
0.9378626377952756
11
0.5566579133858267
21
0.9377280708661417
0
LINE
8
BLACK
6
CONTINUOUS
10
0.5566579133858267
20
0.9377280708661417
11
0.556148031496063
21
0.9369999212598425
0
LINE
8
BLACK
6
CONTINUOUS
10
0.556148031496063
20
0.9369999212598425
11
0.5557037401574803
21
0.9362303937007874
0
LINE
8
BLACK
6
CONTINUOUS
10
0.5557037401574803
20
0.9362303937007874
11
0.5555768503937007
21
0.936184251968504
0
LINE
8
BLACK
6
CONTINUOUS
10
0.5555768503937007
20
0.936184251968504
11
0.5554993700787402
21
0.9360735433070866
0
LINE
8
BLACK
6
CONTINUOUS
10
0.5554993700787402
20
0.9360735433070866
11
0.5546407874015747
21
0.9358435433070866
0
LINE
8
BLACK
6
CONTINUOUS
10
0.5546407874015747
20
0.9358435433070866
11
0.5538057480314961
21
0.9355395669291339
0
LINE
8
BLACK
6
CONTINUOUS
10
0.5538057480314961
20
0.9355395669291339
11
0.534308188976378
21
0.9355395669291339
0
LINE
8
BLACK
6
CONTINUOUS
10
0.534308188976378
20
0.9355395669291339
11
0.5332982677165354
21
0.9357176377952756
0
LINE
8
BLACK
6
CONTINUOUS
10
0.5332982677165354
20
0.9357176377952756
11
0.5317510236220472
21
0.9370159448818898
0
LINE
8
BLACK
6
CONTINUOUS
10
0.5317510236220472
20
0.9370159448818898
11
0.5314002755905511
21
0.9390050787401575
0
LINE
8
BLACK
6
CONTINUOUS
10
0.5314002755905511
20
0.9390050787401575
11
0.5324101968503937
21
0.9407542519685039
0
LINE
8
BLACK
6
CONTINUOUS
10
0.5324101968503937
20
0.9407542519685039
11
0.534308188976378
21
0.9414450787401575
0
LINE
8
BLACK
6
CONTINUOUS
10
0.534308188976378
20
0.9414450787401575
11
0.5466771653543306
21
0.9414450787401575
0
LINE
8
BLACK
6
CONTINUOUS
10
0.5466771653543306
20
0.9414450787401575
11
0.5337200787401575
21
0.9544021653543306
0
LINE
8
BLACK
6
CONTINUOUS
10
0.5337200787401575
20
0.9544021653543306
11
0.5331318897637796
21
0.9552422047244095
0
LINE
8
BLACK
6
CONTINUOUS
10
0.5331318897637796
20
0.9552422047244095
11
0.5331164960629922
21
0.9554180708661417
0
LINE
8
BLACK
6
CONTINUOUS
10
0.5331164960629922
20
0.9554180708661417
11
0.5330067716535433
21
0.9555563385826772
0
LINE
8
BLACK
6
CONTINUOUS
10
0.5330067716535433
20
0.9555563385826772
11
0.531506968503937
21
0.9600557874015748
0
LINE
8
BLACK
6
CONTINUOUS
10
0.531506968503937
20
0.9600557874015748
11
0.5313774803149606
21
0.9609289763779527
0
LINE
8
BLACK
6
CONTINUOUS
10
0.5313774803149606
20
0.9609289763779527
11
0.5313554330708661
21
0.9609895275590551
0
LINE
8
BLACK
6
CONTINUOUS
10
0.5313554330708661
20
0.9609895275590551
11
0.5313554330708661
21
0.9639891338582677
0
LINE
8
BLACK
6
CONTINUOUS
10
0.5313554330708661
20
0.9639891338582677
11
0.5315335039370078
21
0.9649990551181102
0
LINE
8
BLACK
6
CONTINUOUS
10
0.5315335039370078
20
0.9649990551181102
11
0.531646968503937
21
0.9651343307086614
0
LINE
8
BLACK
6
CONTINUOUS
10
0.531646968503937
20
0.9651343307086614
11
0.5316671653543307
21
0.9653096456692913
0
LINE
8
BLACK
6
CONTINUOUS
10
0.5316671653543307
20
0.9653096456692913
11
0.533166968503937
21
0.9683092913385827
0
LINE
8
BLACK
6
CONTINUOUS
10
0.533166968503937
20
0.9683092913385827
11
0.5336928740157481
21
0.9690183858267716
0
LINE
8
BLACK
6
CONTINUOUS
10
0.5336928740157481
20
0.9690183858267716
11
0.5337200787401575
21
0.9690766929133858
0
LINE
8
BLACK
6
CONTINUOUS
10
0.5337200787401575
20
0.9690766929133858
11
0.5352198818897638
21
0.9705764960629921
0
LINE
8
BLACK
6
CONTINUOUS
10
0.5352198818897638
20
0.9705764960629921
11
0.5359429527559055
21
0.9710827952755905
0
LINE
8
BLACK
6
CONTINUOUS
10
0.5359429527559055
20
0.9710827952755905
11
0.5359872834645669
21
0.9711296062992125
0
LINE
8
BLACK
6
CONTINUOUS
10
0.5359872834645669
20
0.9711296062992125
11
0.5389869291338583
21
0.9726294094488189
0
LINE
8
BLACK
6
CONTINUOUS
10
0.5389869291338583
20
0.9726294094488189
11
0.5399698818897638
21
0.9729218110236221
0
LINE
8
BLACK
6
CONTINUOUS
10
0.5399698818897638
20
0.9729218110236221
11
0.5401415748031496
21
0.9728807874015748
0
LINE
8
BLACK
6
CONTINUOUS
10
0.5401415748031496
20
0.9728807874015748
11
0.5403074409448819
21
0.9729411417322834
0
LINE
8
BLACK
6
CONTINUOUS
10
0.5403074409448819
20
0.9729411417322834
11
0.5478064960629921
21
0.9729411417322834
0
LINE
8
BLACK
6
CONTINUOUS
10
0.5478064960629921
20
0.9729411417322834
11
0.5488164173228346
21
0.9727630708661417
0
LINE
8
BLACK
6
CONTINUOUS
10
0.5826856692913386
20
0.9728735433070866
11
0.5828149212598425
21
0.9728962992125983
0
LINE
8
BLACK
6
CONTINUOUS
10
0.5828149212598425
20
0.9728962992125983
11
0.5829285039370079
21
0.9728307086614173
0
LINE
8
BLACK
6
CONTINUOUS
10
0.5829285039370079
20
0.9728307086614173
11
0.5833120866141732
21
0.9727630708661417
0
LINE
8
BLACK
6
CONTINUOUS
10
0.5833120866141732
20
0.9727630708661417
11
0.5838997637795276
21
0.9722699606299212
0
LINE
8
BLACK
6
CONTINUOUS
10
0.5838997637795276
20
0.9722699606299212
11
0.5845640944881889
21
0.9718863779527559
0
LINE
8
BLACK
6
CONTINUOUS
10
0.5845640944881889
20
0.9718863779527559
11
0.5846551968503937
21
0.971636062992126
0
LINE
8
BLACK
6
CONTINUOUS
10
0.5846551968503937
20
0.971636062992126
11
0.5848593307086614
21
0.9714647637795275
0
LINE
8
BLACK
6
CONTINUOUS
10
0.5848593307086614
20
0.9714647637795275
11
0.584992559055118
21
0.9707092125984251
0
LINE
8
BLACK
6
CONTINUOUS
10
0.584992559055118
20
0.9707092125984251
11
0.5852549212598425
21
0.9699883858267716
0
LINE
8
BLACK
6
CONTINUOUS
10
0.5852549212598425
20
0.9699883858267716
11
0.5852549212598425
21
0.9384923228346457
0
LINE
8
BLACK
6
CONTINUOUS
10
0.5852549212598425
20
0.9384923228346457
11
0.5851872834645669
21
0.9381088188976378
0
LINE
8
BLACK
6
CONTINUOUS
10
0.5851872834645669
20
0.9381088188976378
11
0.5852100787401575
21
0.9379795669291339
0
LINE
8
BLACK
6
CONTINUOUS
10
0.5852100787401575
20
0.9379795669291339
11
0.5851444488188976
21
0.9378659842519684
0
LINE
8
BLACK
6
CONTINUOUS
10
0.5851444488188976
20
0.9378659842519684
11
0.5850768503937007
21
0.9374824015748031
0
LINE
8
BLACK
6
CONTINUOUS
10
0.5850768503937007
20
0.9374824015748031
11
0.5845837007874015
21
0.9368947244094488
0
LINE
8
BLACK
6
CONTINUOUS
10
0.5845837007874015
20
0.9368947244094488
11
0.584200157480315
21
0.9362303937007874
0
LINE
8
BLACK
6
CONTINUOUS
10
0.584200157480315
20
0.9362303937007874
11
0.5839498031496063
21
0.9361392913385826
0
LINE
8
BLACK
6
CONTINUOUS
10
0.5839498031496063
20
0.9361392913385826
11
0.5837785433070866
21
0.935935157480315
0
LINE
8
BLACK
6
CONTINUOUS
10
0.5837785433070866
20
0.935935157480315
11
0.5830229527559055
21
0.9358019291338583
0
LINE
8
BLACK
6
CONTINUOUS
10
0.5830229527559055
20
0.9358019291338583
11
0.5823021653543307
21
0.9355395669291339
0
LINE
8
BLACK
6
CONTINUOUS
10
0.5823021653543307
20
0.9355395669291339
11
0.5748031102362204
21
0.9355395669291339
0
LINE
8
BLACK
6
CONTINUOUS
10
0.5748031102362204
20
0.9355395669291339
11
0.5739337007874016
21
0.935692874015748
0
LINE
8
BLACK
6
CONTINUOUS
10
0.5739337007874016
20
0.935692874015748
11
0.5738693700787402
21
0.9356911023622047
0
LINE
8
BLACK
6
CONTINUOUS
10
0.5738693700787402
20
0.9356911023622047
11
0.5693699212598425
21
0.9371909055118111
0
LINE
8
BLACK
6
CONTINUOUS
10
0.5693699212598425
20
0.9371909055118111
11
0.5684681496062992
21
0.9376791732283465
0
LINE
8
BLACK
6
CONTINUOUS
10
0.5684681496062992
20
0.9376791732283465
11
0.5683757086614173
21
0.9378296456692913
0
LINE
8
BLACK
6
CONTINUOUS
10
0.5683757086614173
20
0.9378296456692913
11
0.5682157480314961
21
0.9379042125984252
0
LINE
8
BLACK
6
CONTINUOUS
10
0.5682157480314961
20
0.9379042125984252
11
0.5652161417322834
21
0.9409038582677165
0
LINE
8
BLACK
6
CONTINUOUS
10
0.5652161417322834
20
0.9409038582677165
11
0.5647097244094488
21
0.9416270472440945
0
LINE
8
BLACK
6
CONTINUOUS
10
0.5647097244094488
20
0.9416270472440945
11
0.564663031496063
21
0.9416712598425196
0
LINE
8
BLACK
6
CONTINUOUS
10
0.564663031496063
20
0.9416712598425196
11
0.5631632283464567
21
0.9446708661417322
0
LINE
8
BLACK
6
CONTINUOUS
10
0.5631632283464567
20
0.9446708661417322
11
0.5630179527559055
21
0.9451592519685039
0
LINE
8
BLACK
6
CONTINUOUS
10
0.5630179527559055
20
0.9451592519685039
11
0.5629396456692913
21
0.9452751968503936
0
LINE
8
BLACK
6
CONTINUOUS
10
0.5629396456692913
20
0.9452751968503936
11
0.5614398031496063
21
0.9512744488188977
0
LINE
8
BLACK
6
CONTINUOUS
10
0.5614398031496063
20
0.9512744488188977
11
0.5613983070866142
21
0.9518624015748032
0
LINE
8
BLACK
6
CONTINUOUS
10
0.5613983070866142
20
0.9518624015748032
11
0.5613516535433071
21
0.9519906299212598
0
LINE
8
BLACK
6
CONTINUOUS
10
0.5613516535433071
20
0.9519906299212598
11
0.5613516535433071
21
0.9564900787401575
0
LINE
8
BLACK
6
CONTINUOUS
10
0.5613516535433071
20
0.9564900787401575
11
0.5614539763779527
21
0.9570705118110236
0
LINE
8
BLACK
6
CONTINUOUS
10
0.5614539763779527
20
0.9570705118110236
11
0.5614398031496063
21
0.9572062598425196
0
LINE
8
BLACK
6
CONTINUOUS
10
0.5614398031496063
20
0.9572062598425196
11
0.5629396456692913
21
0.9632055118110237
0
LINE
8
BLACK
6
CONTINUOUS
10
0.5629396456692913
20
0.9632055118110237
11
0.5631472440944881
21
0.9636710236220473
0
LINE
8
BLACK
6
CONTINUOUS
10
0.5631472440944881
20
0.9636710236220473
11
0.5631632283464567
21
0.963809842519685
0
LINE
8
BLACK
6
CONTINUOUS
10
0.5631632283464567
20
0.963809842519685
11
0.564663031496063
21
0.9668094881889764
0
LINE
8
BLACK
6
CONTINUOUS
10
0.564663031496063
20
0.9668094881889764
11
0.565188937007874
21
0.9675185826771653
0
LINE
8
BLACK
6
CONTINUOUS
10
0.565188937007874
20
0.9675185826771653
11
0.5652161417322834
21
0.9675768897637795
0
LINE
8
BLACK
6
CONTINUOUS
10
0.5652161417322834
20
0.9675768897637795
11
0.5682157480314961
21
0.9705764960629921
0
LINE
8
BLACK
6
CONTINUOUS
10
0.5682157480314961
20
0.9705764960629921
11
0.5690557874015748
21
0.9711647244094488
0
LINE
8
BLACK
6
CONTINUOUS
10
0.5690557874015748
20
0.9711647244094488
11
0.5692316929133858
21
0.9711801181102362
0
LINE
8
BLACK
6
CONTINUOUS
10
0.5692316929133858
20
0.9711801181102362
11
0.5693699212598425
21
0.9712898031496062
0
LINE
8
BLACK
6
CONTINUOUS
10
0.5693699212598425
20
0.9712898031496062
11
0.5738693700787402
21
0.9727896062992126
0
LINE
8
BLACK
6
CONTINUOUS
10
0.5738693700787402
20
0.9727896062992126
11
0.5747425196850393
21
0.9729190944881889
0
LINE
8
BLACK
6
CONTINUOUS
10
0.5747425196850393
20
0.9729190944881889
11
0.5748031102362204
21
0.9729411417322834
0
LINE
8
BLACK
6
CONTINUOUS
10
0.5748031102362204
20
0.9729411417322834
11
0.5823021653543307
21
0.9729411417322834
0
LINE
8
BLACK
6
CONTINUOUS
10
0.5823021653543307
20
0.9729411417322834
11
0.5826856692913386
21
0.9728735433070866
0
LINE
8
BLACK
6
CONTINUOUS
10
0.5718986614173228
20
0.9659077952755906
11
0.5697307874015748
21
0.9637399212598425
0
LINE
8
BLACK
6
CONTINUOUS
10
0.5697307874015748
20
0.9637399212598425
11
0.5685902362204724
21
0.9614588188976377
0
LINE
8
BLACK
6
CONTINUOUS
10
0.5685902362204724
20
0.9614588188976377
11
0.5672571653543307
21
0.9561264960629922
0
LINE
8
BLACK
6
CONTINUOUS
10
0.5672571653543307
20
0.9561264960629922
11
0.5672571653543307
21
0.9523542519685039
0
LINE
8
BLACK
6
CONTINUOUS
10
0.5672571653543307
20
0.9523542519685039
11
0.5685902362204724
21
0.9470219685039369
0
LINE
8
BLACK
6
CONTINUOUS
10
0.5685902362204724
20
0.9470219685039369
11
0.5697307874015748
21
0.9447408661417322
0
LINE
8
BLACK
6
CONTINUOUS
10
0.5697307874015748
20
0.9447408661417322
11
0.5718987007874016
21
0.9425729133858267
0
LINE
8
BLACK
6
CONTINUOUS
10
0.5718987007874016
20
0.9425729133858267
11
0.5752822440944881
21
0.9414450787401575
0
LINE
8
BLACK
6
CONTINUOUS
10
0.5752822440944881
20
0.9414450787401575
11
0.5793494094488189
21
0.9414450787401575
0
LINE
8
BLACK
6
CONTINUOUS
10
0.5793494094488189
20
0.9414450787401575
11
0.5793494094488189
21
0.9670356299212598
0
LINE
8
BLACK
6
CONTINUOUS
10
0.5793494094488189
20
0.9670356299212598
11
0.5752822440944881
21
0.9670356299212598
0
LINE
8
BLACK
6
CONTINUOUS
10
0.5752822440944881
20
0.9670356299212598
11
0.5718986614173228
21
0.9659077952755906
0
LINE
8
BLACK
6
CONTINUOUS
10
1.0866226771653542
20
0.9728735433070866
11
1.0867519291338583
21
0.9728962992125983
0
LINE
8
BLACK
6
CONTINUOUS
10
1.0867519291338583
20
0.9728962992125983
11
1.0868655118110235
21
0.9728307086614173
0
LINE
8
BLACK
6
CONTINUOUS
10
1.0868655118110235
20
0.9728307086614173
11
1.087249094488189
21
0.9727630708661417
0
LINE
8
BLACK
6
CONTINUOUS
10
1.087249094488189
20
0.9727630708661417
11
1.0878367716535433
21
0.9722699606299212
0
LINE
8
BLACK
6
CONTINUOUS
10
1.0878367716535433
20
0.9722699606299212
11
1.0885011023622047
21
0.9718863779527559
0
LINE
8
BLACK
6
CONTINUOUS
10
1.0885011023622047
20
0.9718863779527559
11
1.0885922047244094
21
0.971636062992126
0
LINE
8
BLACK
6
CONTINUOUS
10
1.0885922047244094
20
0.971636062992126
11
1.0887963385826771
21
0.9714647637795275
0
LINE
8
BLACK
6
CONTINUOUS
10
1.0887963385826771
20
0.9714647637795275
11
1.0889295669291339
21
0.9707092125984251
0
LINE
8
BLACK
6
CONTINUOUS
10
1.0889295669291339
20
0.9707092125984251
11
1.0891919291338583
21
0.9699883858267716
0
LINE
8
BLACK
6
CONTINUOUS
10
1.0891919291338583
20
0.9699883858267716
11
1.0891919291338583
21
0.9384923228346457
0
LINE
8
BLACK
6
CONTINUOUS
10
1.0891919291338583
20
0.9384923228346457
11
1.0891242913385826
21
0.9381088188976378
0
LINE
8
BLACK
6
CONTINUOUS
10
1.0891242913385826
20
0.9381088188976378
11
1.0891470866141733
21
0.9379795669291339
0
LINE
8
BLACK
6
CONTINUOUS
10
1.0891470866141733
20
0.9379795669291339
11
1.0890814566929135
21
0.9378659842519684
0
LINE
8
BLACK
6
CONTINUOUS
10
1.0890814566929135
20
0.9378659842519684
11
1.0890138582677165
21
0.9374824015748031
0
LINE
8
BLACK
6
CONTINUOUS
10
1.0890138582677165
20
0.9374824015748031
11
1.0885207086614173
21
0.9368947244094488
0
LINE
8
BLACK
6
CONTINUOUS
10
1.0885207086614173
20
0.9368947244094488
11
1.0881371653543306
21
0.9362303937007874
0
LINE
8
BLACK
6
CONTINUOUS
10
1.0881371653543306
20
0.9362303937007874
11
1.0878868110236219
21
0.9361392913385826
0
LINE
8
BLACK
6
CONTINUOUS
10
1.0878868110236219
20
0.9361392913385826
11
1.0877155511811023
21
0.935935157480315
0
LINE
8
BLACK
6
CONTINUOUS
10
1.0877155511811023
20
0.935935157480315
11
1.0869599606299212
21
0.9358019291338583
0
LINE
8
BLACK
6
CONTINUOUS
10
1.0869599606299212
20
0.9358019291338583
11
1.0862391732283465
21
0.9355395669291339
0
LINE
8
BLACK
6
CONTINUOUS
10
1.0862391732283465
20
0.9355395669291339
11
1.0787401181102363
21
0.9355395669291339
0
LINE
8
BLACK
6
CONTINUOUS
10
1.0787401181102363
20
0.9355395669291339
11
1.0778707086614172
21
0.935692874015748
0
LINE
8
BLACK
6
CONTINUOUS
10
1.0778707086614172
20
0.935692874015748
11
1.0778063779527558
21
0.9356911023622047
0
LINE
8
BLACK
6
CONTINUOUS
10
1.0778063779527558
20
0.9356911023622047
11
1.0733069291338582
21
0.9371909055118111
0
LINE
8
BLACK
6
CONTINUOUS
10
1.0733069291338582
20
0.9371909055118111
11
1.0724051574803148
21
0.9376791732283465
0
LINE
8
BLACK
6
CONTINUOUS
10
1.0724051574803148
20
0.9376791732283465
11
1.0723127165354331
21
0.9378296456692913
0
LINE
8
BLACK
6
CONTINUOUS
10
1.0723127165354331
20
0.9378296456692913
11
1.0721527559055117
21
0.9379042125984252
0
LINE
8
BLACK
6
CONTINUOUS
10
1.0721527559055117
20
0.9379042125984252
11
1.0691531496062991
21
0.9409038582677165
0
LINE
8
BLACK
6
CONTINUOUS
10
1.0691531496062991
20
0.9409038582677165
11
1.0686467322834645
21
0.9416270472440945
0
LINE
8
BLACK
6
CONTINUOUS
10
1.0686467322834645
20
0.9416270472440945
11
1.0686000393700787
21
0.9416712598425196
0
LINE
8
BLACK
6
CONTINUOUS
10
1.0686000393700787
20
0.9416712598425196
11
1.0671002362204725
21
0.9446708661417322
0
LINE
8
BLACK
6
CONTINUOUS
10
1.0671002362204725
20
0.9446708661417322
11
1.0669549606299213
21
0.9451592519685039
0
LINE
8
BLACK
6
CONTINUOUS
10
1.0669549606299213
20
0.9451592519685039
11
1.066876653543307
21
0.9452751968503936
0
LINE
8
BLACK
6
CONTINUOUS
10
1.066876653543307
20
0.9452751968503936
11
1.0653768110236219
21
0.9512744488188977
0
LINE
8
BLACK
6
CONTINUOUS
10
1.0653768110236219
20
0.9512744488188977
11
1.0653353149606299
21
0.9518624015748032
0
LINE
8
BLACK
6
CONTINUOUS
10
1.0653353149606299
20
0.9518624015748032
11
1.0652886614173227
21
0.9519906299212598
0
LINE
8
BLACK
6
CONTINUOUS
10
1.0652886614173227
20
0.9519906299212598
11
1.0652886614173227
21
0.9564900787401575
0
LINE
8
BLACK
6
CONTINUOUS
10
1.0652886614173227
20
0.9564900787401575
11
1.0653909842519684
21
0.9570705118110236
0
LINE
8
BLACK
6
CONTINUOUS
10
1.0653909842519684
20
0.9570705118110236
11
1.0653768110236219
21
0.9572062598425196
0
LINE
8
BLACK
6
CONTINUOUS
10
1.0653768110236219
20
0.9572062598425196
11
1.066876653543307
21
0.9632055118110237
0
LINE
8
BLACK
6
CONTINUOUS
10
1.066876653543307
20
0.9632055118110237
11
1.067084251968504
21
0.9636710236220473
0
LINE
8
BLACK
6
CONTINUOUS
10
1.067084251968504
20
0.9636710236220473
11
1.0671002362204725
21
0.963809842519685
0
LINE
8
BLACK
6
CONTINUOUS
10
1.0671002362204725
20
0.963809842519685
11
1.0686000393700787
21
0.9668094881889764
0
LINE
8
BLACK
6
CONTINUOUS
10
1.0686000393700787
20
0.9668094881889764
11
1.0691259448818897
21
0.9675185826771653
0
LINE
8
BLACK
6
CONTINUOUS
10
1.0691259448818897
20
0.9675185826771653
11
1.0691531496062991
21
0.9675768897637795
0
LINE
8
BLACK
6
CONTINUOUS
10
1.0691531496062991
20
0.9675768897637795
11
1.0721527559055117
21
0.9705764960629921
0
LINE
8
BLACK
6
CONTINUOUS
10
1.0721527559055117
20
0.9705764960629921
11
1.0729927952755904
21
0.9711647244094488
0
LINE
8
BLACK
6
CONTINUOUS
10
1.0729927952755904
20
0.9711647244094488
11
1.0731687007874016
21
0.9711801181102362
0
LINE
8
BLACK
6
CONTINUOUS
10
1.0731687007874016
20
0.9711801181102362
11
1.0733069291338582
21
0.9712898031496062
0
LINE
8
BLACK
6
CONTINUOUS
10
1.0733069291338582
20
0.9712898031496062
11
1.0778063779527558
21
0.9727896062992126
0
LINE
8
BLACK
6
CONTINUOUS
10
1.0778063779527558
20
0.9727896062992126
11
1.0786795275590551
21
0.9729190944881889
0
LINE
8
BLACK
6
CONTINUOUS
10
1.0786795275590551
20
0.9729190944881889
11
1.0787401181102363
21
0.9729411417322834
0
LINE
8
BLACK
6
CONTINUOUS
10
1.0787401181102363
20
0.9729411417322834
11
1.0862391732283465
21
0.9729411417322834
0
LINE
8
BLACK
6
CONTINUOUS
10
1.0862391732283465
20
0.9729411417322834
11
1.0866226771653542
21
0.9728735433070866
0
LINE
8
BLACK
6
CONTINUOUS
10
1.0758356692913384
20
0.9659077952755906
11
1.0736677952755904
21
0.9637399212598425
0
LINE
8
BLACK
6
CONTINUOUS
10
1.0736677952755904
20
0.9637399212598425
11
1.0725272440944882
21
0.9614588188976377
0
LINE
8
BLACK
6
CONTINUOUS
10
1.0725272440944882
20
0.9614588188976377
11
1.0711941732283465
21
0.9561264960629922
0
LINE
8
BLACK
6
CONTINUOUS
10
1.0711941732283465
20
0.9561264960629922
11
1.0711941732283465
21
0.9523542519685039
0
LINE
8
BLACK
6
CONTINUOUS
10
1.0711941732283465
20
0.9523542519685039
11
1.0725272440944882
21
0.9470219685039369
0
LINE
8
BLACK
6
CONTINUOUS
10
1.0725272440944882
20
0.9470219685039369
11
1.0736677952755904
21
0.9447408661417322
0
LINE
8
BLACK
6
CONTINUOUS
10
1.0736677952755904
20
0.9447408661417322
11
1.0758357086614172
21
0.9425729133858267
0
LINE
8
BLACK
6
CONTINUOUS
10
1.0758357086614172
20
0.9425729133858267
11
1.079219251968504
21
0.9414450787401575
0
LINE
8
BLACK
6
CONTINUOUS
10
1.079219251968504
20
0.9414450787401575
11
1.0832864173228347
21
0.9414450787401575
0
LINE
8
BLACK
6
CONTINUOUS
10
1.0832864173228347
20
0.9414450787401575
11
1.0832864173228347
21
0.9670356299212598
0
LINE
8
BLACK
6
CONTINUOUS
10
1.0832864173228347
20
0.9670356299212598
11
1.079219251968504
21
0.9670356299212598
0
LINE
8
BLACK
6
CONTINUOUS
10
1.079219251968504
20
0.9670356299212598
11
1.0758356692913384
21
0.9659077952755906
0
LINE
8
BLACK
6
CONTINUOUS
10
1.0502895275590551
20
0.9740040551181102
11
1.0515450787401575
21
0.9724219291338583
0
LINE
8
BLACK
6
CONTINUOUS
10
1.0515450787401575
20
0.9724219291338583
11
1.0590441732283464
21
0.9499247637795275
0
LINE
8
BLACK
6
CONTINUOUS
10
1.0590441732283464
20
0.9499247637795275
11
1.0591946062992126
21
0.9489103937007873
0
LINE
8
BLACK
6
CONTINUOUS
10
1.0591946062992126
20
0.9489103937007873
11
1.0591116535433072
21
0.9487005511811023
0
LINE
8
BLACK
6
CONTINUOUS
10
1.0591116535433072
20
0.9487005511811023
11
1.0591508661417322
21
0.9484782677165354
0
LINE
8
BLACK
6
CONTINUOUS
10
1.0591508661417322
20
0.9484782677165354
11
1.0587481102362204
21
0.9477807874015748
0
LINE
8
BLACK
6
CONTINUOUS
10
1.0587481102362204
20
0.9477807874015748
11
1.0584522047244094
21
0.947031968503937
0
LINE
8
BLACK
6
CONTINUOUS
10
1.0584522047244094
20
0.947031968503937
11
1.0582537401574803
21
0.9469245275590551
0
LINE
8
BLACK
6
CONTINUOUS
10
1.0582537401574803
20
0.9469245275590551
11
1.0581409448818897
21
0.946729094488189
0
LINE
8
BLACK
6
CONTINUOUS
10
1.0581409448818897
20
0.946729094488189
11
1.0573842125984252
21
0.9464537007874015
0
LINE
8
BLACK
6
CONTINUOUS
10
1.0573842125984252
20
0.9464537007874015
11
1.0566760629921259
21
0.9460701968503937
0
LINE
8
BLACK
6
CONTINUOUS
10
1.0566760629921259
20
0.9460701968503937
11
1.0564549606299212
21
0.9461154724409448
0
LINE
8
BLACK
6
CONTINUOUS
10
1.0564549606299212
20
0.9461154724409448
11
1.0562429527559054
21
0.9460382677165354
0
LINE
8
BLACK
6
CONTINUOUS
10
1.0562429527559054
20
0.9460382677165354
11
1.044197559055118
21
0.9460382677165354
0
LINE
8
BLACK
6
CONTINUOUS
10
1.044197559055118
20
0.9460382677165354
11
1.044197559055118
21
0.9384923228346457
0
LINE
8
BLACK
6
CONTINUOUS
10
1.044197559055118
20
0.9384923228346457
11
1.0440194881889764
21
0.9374824015748031
0
LINE
8
BLACK
6
CONTINUOUS
10
1.0440194881889764
20
0.9374824015748031
11
1.0427211811023622
21
0.935935157480315
0
LINE
8
BLACK
6
CONTINUOUS
10
1.0427211811023622
20
0.935935157480315
11
1.0407320472440944
21
0.9355844094488188
0
LINE
8
BLACK
6
CONTINUOUS
10
1.0407320472440944
20
0.9355844094488188
11
1.0389828740157481
21
0.9365943307086614
0
LINE
8
BLACK
6
CONTINUOUS
10
1.0389828740157481
20
0.9365943307086614
11
1.0382920472440944
21
0.9384923228346457
0
LINE
8
BLACK
6
CONTINUOUS
10
1.0382920472440944
20
0.9384923228346457
11
1.0382920472440944
21
0.9460382677165354
0
LINE
8
BLACK
6
CONTINUOUS
10
1.0382920472440944
20
0.9460382677165354
11
1.0367453543307086
21
0.9460382677165354
0
LINE
8
BLACK
6
CONTINUOUS
10
1.0367453543307086
20
0.9460382677165354
11
1.0357354330708661
21
0.9462163385826772
0
LINE
8
BLACK
6
CONTINUOUS
10
1.0357354330708661
20
0.9462163385826772
11
1.034188188976378
21
0.9475146456692913
0
LINE
8
BLACK
6
CONTINUOUS
10
1.034188188976378
20
0.9475146456692913
11
1.0338374409448818
21
0.949503779527559
0
LINE
8
BLACK
6
CONTINUOUS
10
1.0338374409448818
20
0.949503779527559
11
1.0348473622047243
21
0.9512529527559055
0
LINE
8
BLACK
6
CONTINUOUS
10
1.0348473622047243
20
0.9512529527559055
11
1.0367453543307086
21
0.951943779527559
0
LINE
8
BLACK
6
CONTINUOUS
10
1.0367453543307086
20
0.951943779527559
11
1.0382920472440944
21
0.951943779527559
0
LINE
8
BLACK
6
CONTINUOUS
10
1.0382920472440944
20
0.951943779527559
11
1.0382920472440944
21
0.9594897244094488
0
LINE
8
BLACK
6
CONTINUOUS
10
1.0382920472440944
20
0.9594897244094488
11
1.0384701181102363
21
0.9604996456692914
0
LINE
8
BLACK
6
CONTINUOUS
10
1.0384701181102363
20
0.9604996456692914
11
1.0397684251968504
21
0.9620468897637795
0
LINE
8
BLACK
6
CONTINUOUS
10
1.0397684251968504
20
0.9620468897637795
11
1.041757559055118
21
0.9623976377952755
0
LINE
8
BLACK
6
CONTINUOUS
10
1.041757559055118
20
0.9623976377952755
11
1.0435067322834646
21
0.9613877165354331
0
LINE
8
BLACK
6
CONTINUOUS
10
1.0435067322834646
20
0.9613877165354331
11
1.044197559055118
21
0.9594897244094488
0
LINE
8
BLACK
6
CONTINUOUS
10
1.044197559055118
20
0.9594897244094488
11
1.044197559055118
21
0.951943779527559
0
LINE
8
BLACK
6
CONTINUOUS
10
1.044197559055118
20
0.951943779527559
11
1.052146220472441
21
0.951943779527559
0
LINE
8
BLACK
6
CONTINUOUS
10
1.052146220472441
20
0.951943779527559
11
1.0459426377952756
21
0.9705544488188976
0
LINE
8
BLACK
6
CONTINUOUS
10
1.0459426377952756
20
0.9705544488188976
11
1.0457922047244095
21
0.9715688582677166
0
LINE
8
BLACK
6
CONTINUOUS
10
1.0457922047244095
20
0.9715688582677166
11
1.0465346062992125
21
0.9734472440944881
0
LINE
8
BLACK
6
CONTINUOUS
10
1.0465346062992125
20
0.9734472440944881
11
1.0483107480314959
21
0.9744090157480315
0
LINE
8
BLACK
6
CONTINUOUS
10
1.0483107480314959
20
0.9744090157480315
11
1.0502895275590551
21
0.9740040551181102
0
LINE
8
BLACK
6
CONTINUOUS
10
0.7536388188976377
20
1.109938031496063
11
0.7543307086614173
21
1.1082677165354331
0
LINE
8
BLACK
6
CONTINUOUS
10
0.7543307086614173
20
1.1082677165354331
11
0.7536388188976377
21
1.106597401574803
0
LINE
8
BLACK
6
CONTINUOUS
10
0.7536388188976377
20
1.106597401574803
11
0.7519685039370079
21
1.1059055118110237
0
LINE
8
BLACK
6
CONTINUOUS
10
0.7519685039370079
20
1.1059055118110237
11
0.5374015748031495
21
1.1059055118110237
0
LINE
8
BLACK
6
CONTINUOUS
10
0.5374015748031495
20
1.1059055118110237
11
0.5374015748031495
21
0.9807086614173228
0
LINE
8
BLACK
6
CONTINUOUS
10
0.5374015748031495
20
0.9807086614173228
11
0.7519685039370079
21
0.9807086614173228
0
LINE
8
BLACK
6
CONTINUOUS
10
0.7519685039370079
20
0.9807086614173228
11
0.7536388188976377
21
0.9800167716535433
0
LINE
8
BLACK
6
CONTINUOUS
10
0.7536388188976377
20
0.9800167716535433
11
0.7543307086614173
21
0.9783464566929133
0
LINE
8
BLACK
6
CONTINUOUS
10
0.7543307086614173
20
0.9783464566929133
11
0.7536388188976377
21
0.9766761417322835
0
LINE
8
BLACK
6
CONTINUOUS
10
0.7536388188976377
20
0.9766761417322835
11
0.7519685039370079
21
0.9759842519685039
0
LINE
8
BLACK
6
CONTINUOUS
10
0.7519685039370079
20
0.9759842519685039
11
0.5350393700787401
21
0.9759842519685039
0
LINE
8
BLACK
6
CONTINUOUS
10
0.5350393700787401
20
0.9759842519685039
11
0.5333690551181102
21
0.9766761417322835
0
LINE
8
BLACK
6
CONTINUOUS
10
0.5333690551181102
20
0.9766761417322835
11
0.5326771653543307
21
0.9783464566929133
0
LINE
8
BLACK
6
CONTINUOUS
10
0.5326771653543307
20
0.9783464566929133
11
0.5326771653543307
21
1.1082677165354331
0
LINE
8
BLACK
6
CONTINUOUS
10
0.5326771653543307
20
1.1082677165354331
11
0.5333690551181102
21
1.109938031496063
0
LINE
8
BLACK
6
CONTINUOUS
10
0.5333690551181102
20
1.109938031496063
11
0.5350393700787401
21
1.1106299212598425
0
LINE
8
BLACK
6
CONTINUOUS
10
0.5350393700787401
20
1.1106299212598425
11
0.7519685039370079
21
1.1106299212598425
0
LINE
8
BLACK
6
CONTINUOUS
10
0.7519685039370079
20
1.1106299212598425
11
0.7536388188976377
21
1.109938031496063
0
LINE
8
BLACK
6
CONTINUOUS
10
1.0909448818897638
20
1.1106299212598425
11
1.0926151968503937
21
1.109938031496063
0
LINE
8
BLACK
6
CONTINUOUS
10
1.0926151968503937
20
1.109938031496063
11
1.0933070866141732
21
1.1082677165354331
0
LINE
8
BLACK
6
CONTINUOUS
10
1.0933070866141732
20
1.1082677165354331
11
1.0933070866141732
21
0.9783464566929133
0
LINE
8
BLACK
6
CONTINUOUS
10
1.0933070866141732
20
0.9783464566929133
11
1.0926151968503937
21
0.9766761417322835
0
LINE
8
BLACK
6
CONTINUOUS
10
1.0926151968503937
20
0.9766761417322835
11
1.0909448818897638
21
0.9759842519685039
0
LINE
8
BLACK
6
CONTINUOUS
10
1.0909448818897638
20
0.9759842519685039
11
0.8740157480314961
21
0.9759842519685039
0
LINE
8
BLACK
6
CONTINUOUS
10
0.8740157480314961
20
0.9759842519685039
11
0.8723454330708661
21
0.9766761417322835
0
LINE
8
BLACK
6
CONTINUOUS
10
0.8723454330708661
20
0.9766761417322835
11
0.8716535433070866
21
0.9783464566929133
0
LINE
8
BLACK
6
CONTINUOUS
10
0.8716535433070866
20
0.9783464566929133
11
0.8723454330708661
21
0.9800167716535433
0
LINE
8
BLACK
6
CONTINUOUS
10
0.8723454330708661
20
0.9800167716535433
11
0.8740157480314961
21
0.9807086614173228
0
LINE
8
BLACK
6
CONTINUOUS
10
0.8740157480314961
20
0.9807086614173228
11
1.0885826771653544
21
0.9807086614173228
0
LINE
8
BLACK
6
CONTINUOUS
10
1.0885826771653544
20
0.9807086614173228
11
1.0885826771653544
21
1.1059055118110237
0
LINE
8
BLACK
6
CONTINUOUS
10
1.0885826771653544
20
1.1059055118110237
11
0.8740157480314961
21
1.1059055118110237
0
LINE
8
BLACK
6
CONTINUOUS
10
0.8740157480314961
20
1.1059055118110237
11
0.8723454330708661
21
1.106597401574803
0
LINE
8
BLACK
6
CONTINUOUS
10
0.8723454330708661
20
1.106597401574803
11
0.8716535433070866
21
1.1082677165354331
0
LINE
8
BLACK
6
CONTINUOUS
10
0.8716535433070866
20
1.1082677165354331
11
0.8723454330708661
21
1.109938031496063
0
LINE
8
BLACK
6
CONTINUOUS
10
0.8723454330708661
20
1.109938031496063
11
0.8740157480314961
21
1.1106299212598425
0
LINE
8
BLACK
6
CONTINUOUS
10
0.8740157480314961
20
1.1106299212598425
11
1.0909448818897638
21
1.1106299212598425
0
LINE
8
BLACK
6
CONTINUOUS
10
1.0902529921259843
20
1.3402529921259843
11
1.0909448818897638
21
1.3385826771653544
0
LINE
8
BLACK
6
CONTINUOUS
10
1.0909448818897638
20
1.3385826771653544
11
1.0909448818897638
21
1.1216535433070867
0
LINE
8
BLACK
6
CONTINUOUS
10
1.0909448818897638
20
1.1216535433070867
11
1.0902529921259843
21
1.1199832283464566
0
LINE
8
BLACK
6
CONTINUOUS
10
1.0902529921259843
20
1.1199832283464566
11
1.0885826771653544
21
1.119291338582677
0
LINE
8
BLACK
6
CONTINUOUS
10
1.0885826771653544
20
1.119291338582677
11
0.9586614173228346
21
1.119291338582677
0
LINE
8
BLACK
6
CONTINUOUS
10
0.9586614173228346
20
1.119291338582677
11
0.9569911023622047
21
1.1199832283464566
0
LINE
8
BLACK
6
CONTINUOUS
10
0.9569911023622047
20
1.1199832283464566
11
0.9562992125984252
21
1.1216535433070867
0
LINE
8
BLACK
6
CONTINUOUS
10
0.9562992125984252
20
1.1216535433070867
11
0.9562992125984252
21
1.3385826771653544
0
LINE
8
BLACK
6
CONTINUOUS
10
0.9562992125984252
20
1.3385826771653544
11
0.9569911023622047
21
1.3402529921259843
0
LINE
8
BLACK
6
CONTINUOUS
10
0.9569911023622047
20
1.3402529921259843
11
0.9586614173228346
21
1.3409448818897638
0
LINE
8
BLACK
6
CONTINUOUS
10
0.9586614173228346
20
1.3409448818897638
11
0.9603317322834646
21
1.3402529921259843
0
LINE
8
BLACK
6
CONTINUOUS
10
0.9603317322834646
20
1.3402529921259843
11
0.9610236220472441
21
1.3385826771653544
0
LINE
8
BLACK
6
CONTINUOUS
10
0.9610236220472441
20
1.3385826771653544
11
0.9610236220472441
21
1.1240157480314961
0
LINE
8
BLACK
6
CONTINUOUS
10
0.9610236220472441
20
1.1240157480314961
11
1.0862204724409448
21
1.1240157480314961
0
LINE
8
BLACK
6
CONTINUOUS
10
1.0862204724409448
20
1.1240157480314961
11
1.0862204724409448
21
1.3385826771653544
0
LINE
8
BLACK
6
CONTINUOUS
10
1.0862204724409448
20
1.3385826771653544
11
1.0869123622047243
21
1.3402529921259843
0
LINE
8
BLACK
6
CONTINUOUS
10
1.0869123622047243
20
1.3402529921259843
11
1.0885826771653544
21
1.3409448818897638
0
LINE
8
BLACK
6
CONTINUOUS
10
1.0885826771653544
20
1.3409448818897638
11
1.0902529921259843
21
1.3402529921259843
0
LINE
8
BLACK
6
CONTINUOUS
10
0.7048427559055118
20
1.1535999212598425
11
0.7050650393700787
21
1.1536390944881889
0
LINE
8
BLACK
6
CONTINUOUS
10
0.7050650393700787
20
1.1536390944881889
11
0.7057625196850393
21
1.1532363779527559
0
LINE
8
BLACK
6
CONTINUOUS
10
0.7057625196850393
20
1.1532363779527559
11
0.7065113385826771
21
1.1529404330708661
0
LINE
8
BLACK
6
CONTINUOUS
10
0.7065113385826771
20
1.1529404330708661
11
0.706618779527559
21
1.1527420078740158
0
LINE
8
BLACK
6
CONTINUOUS
10
0.706618779527559
20
1.1527420078740158
11
0.7068142125984251
21
1.1526291732283465
0
LINE
8
BLACK
6
CONTINUOUS
10
0.7068142125984251
20
1.1526291732283465
11
0.7070896062992126
21
1.1518724803149607
0
LINE
8
BLACK
6
CONTINUOUS
10
0.7070896062992126
20
1.1518724803149607
11
0.7074731102362205
21
1.1511642913385827
0
LINE
8
BLACK
6
CONTINUOUS
10
0.7074731102362205
20
1.1511642913385827
11
0.7074278346456693
21
1.1509432283464567
0
LINE
8
BLACK
6
CONTINUOUS
10
0.7074278346456693
20
1.1509432283464567
11
0.7075050393700787
21
1.1507311811023622
0
LINE
8
BLACK
6
CONTINUOUS
10
0.7075050393700787
20
1.1507311811023622
11
0.7075050393700787
21
1.1386857874015748
0
LINE
8
BLACK
6
CONTINUOUS
10
0.7075050393700787
20
1.1386857874015748
11
0.7150509842519684
21
1.1386857874015748
0
LINE
8
BLACK
6
CONTINUOUS
10
0.7150509842519684
20
1.1386857874015748
11
0.716060905511811
21
1.1385077165354331
0
LINE
8
BLACK
6
CONTINUOUS
10
0.716060905511811
20
1.1385077165354331
11
0.7176081496062992
21
1.1372094094488188
0
LINE
8
BLACK
6
CONTINUOUS
10
0.7176081496062992
20
1.1372094094488188
11
0.7179588976377953
21
1.1352202755905512
0
LINE
8
BLACK
6
CONTINUOUS
10
0.7179588976377953
20
1.1352202755905512
11
0.7169489763779527
21
1.1334711023622046
0
LINE
8
BLACK
6
CONTINUOUS
10
0.7169489763779527
20
1.1334711023622046
11
0.7150509842519684
21
1.1327802755905512
0
LINE
8
BLACK
6
CONTINUOUS
10
0.7150509842519684
20
1.1327802755905512
11
0.7075050393700787
21
1.1327802755905512
0
LINE
8
BLACK
6
CONTINUOUS
10
0.7075050393700787
20
1.1327802755905512
11
0.7075050393700787
21
1.1312335826771653
0
LINE
8
BLACK
6
CONTINUOUS
10
0.7075050393700787
20
1.1312335826771653
11
0.7073269685039369
21
1.1302236614173229
0
LINE
8
BLACK
6
CONTINUOUS
10
0.7073269685039369
20
1.1302236614173229
11
0.7060286614173228
21
1.1286764173228345
0
LINE
8
BLACK
6
CONTINUOUS
10
0.7060286614173228
20
1.1286764173228345
11
0.7040395275590551
21
1.1283256692913386
0
LINE
8
BLACK
6
CONTINUOUS
10
0.7040395275590551
20
1.1283256692913386
11
0.7022903543307086
21
1.129335590551181
0
LINE
8
BLACK
6
CONTINUOUS
10
0.7022903543307086
20
1.129335590551181
11
0.7015995275590551
21
1.1312335826771653
0
LINE
8
BLACK
6
CONTINUOUS
10
0.7015995275590551
20
1.1312335826771653
11
0.7015995275590551
21
1.1327802755905512
0
LINE
8
BLACK
6
CONTINUOUS
10
0.7015995275590551
20
1.1327802755905512
11
0.6940535826771653
21
1.1327802755905512
0
LINE
8
BLACK
6
CONTINUOUS
10
0.6940535826771653
20
1.1327802755905512
11
0.6930436614173228
21
1.1329583464566928
0
LINE
8
BLACK
6
CONTINUOUS
10
0.6930436614173228
20
1.1329583464566928
11
0.6914964173228346
21
1.134256653543307
0
LINE
8
BLACK
6
CONTINUOUS
10
0.6914964173228346
20
1.134256653543307
11
0.6911456692913386
21
1.1362457874015748
0
LINE
8
BLACK
6
CONTINUOUS
10
0.6911456692913386
20
1.1362457874015748
11
0.692155590551181
21
1.1379949606299213
0
LINE
8
BLACK
6
CONTINUOUS
10
0.692155590551181
20
1.1379949606299213
11
0.6940535826771653
21
1.1386857874015748
0
LINE
8
BLACK
6
CONTINUOUS
10
0.6940535826771653
20
1.1386857874015748
11
0.7015995275590551
21
1.1386857874015748
0
LINE
8
BLACK
6
CONTINUOUS
10
0.7015995275590551
20
1.1386857874015748
11
0.7015995275590551
21
1.1466344881889763
0
LINE
8
BLACK
6
CONTINUOUS
10
0.7015995275590551
20
1.1466344881889763
11
0.6829888582677165
21
1.1404308661417322
0
LINE
8
BLACK
6
CONTINUOUS
10
0.6829888582677165
20
1.1404308661417322
11
0.6819744488188976
21
1.140280433070866
0
LINE
8
BLACK
6
CONTINUOUS
10
0.6819744488188976
20
1.140280433070866
11
0.680096062992126
21
1.1410228346456692
0
LINE
8
BLACK
6
CONTINUOUS
10
0.680096062992126
20
1.1410228346456692
11
0.6791342913385826
21
1.1427989763779527
0
LINE
8
BLACK
6
CONTINUOUS
10
0.6791342913385826
20
1.1427989763779527
11
0.679539251968504
21
1.1447777559055119
0
LINE
8
BLACK
6
CONTINUOUS
10
0.679539251968504
20
1.1447777559055119
11
0.6811213779527558
21
1.1460333070866142
0
LINE
8
BLACK
6
CONTINUOUS
10
0.6811213779527558
20
1.1460333070866142
11
0.7036185433070866
21
1.1535324015748032
0
LINE
8
BLACK
6
CONTINUOUS
10
0.7036185433070866
20
1.1535324015748032
11
0.7046329133858268
21
1.1536828346456693
0
LINE
8
BLACK
6
CONTINUOUS
10
0.7046329133858268
20
1.1536828346456693
11
0.7048427559055118
21
1.1535999212598425
0
LINE
8
BLACK
6
CONTINUOUS
10
0.8315541338582677
20
1.1473168503937008
11
0.832098031496063
21
1.1471859842519685
0
LINE
8
BLACK
6
CONTINUOUS
10
0.832098031496063
20
1.1471859842519685
11
0.8322958661417322
21
1.1468628346456693
0
LINE
8
BLACK
6
CONTINUOUS
10
0.8322958661417322
20
1.1468628346456693
11
0.8326190551181102
21
1.1466649606299213
0
LINE
8
BLACK
6
CONTINUOUS
10
0.8326190551181102
20
1.1466649606299213
11
0.842067874015748
21
1.1336728346456693
0
LINE
8
BLACK
6
CONTINUOUS
10
0.842067874015748
20
1.1336728346456693
11
0.8422392125984252
21
1.1329605118110235
0
LINE
8
BLACK
6
CONTINUOUS
10
0.8422392125984252
20
1.1329605118110235
11
0.84251968503937
21
1.1322834645669291
0
LINE
8
BLACK
6
CONTINUOUS
10
0.84251968503937
20
1.1322834645669291
11
0.8424452755905512
21
1.132103937007874
0
LINE
8
BLACK
6
CONTINUOUS
10
0.8424452755905512
20
1.132103937007874
11
0.842490748031496
21
1.1319150393700788
0
LINE
8
BLACK
6
CONTINUOUS
10
0.842490748031496
20
1.1319150393700788
11
0.842108188976378
21
1.1312901574803149
0
LINE
8
BLACK
6
CONTINUOUS
10
0.842108188976378
20
1.1312901574803149
11
0.8418277952755905
21
1.1306131496062992
0
LINE
8
BLACK
6
CONTINUOUS
10
0.8418277952755905
20
1.1306131496062992
11
0.8416482677165354
21
1.1305388188976377
0
LINE
8
BLACK
6
CONTINUOUS
10
0.8416482677165354
20
1.1305388188976377
11
0.8415468503937008
21
1.1303730708661417
0
LINE
8
BLACK
6
CONTINUOUS
10
0.8415468503937008
20
1.1303730708661417
11
0.8408344881889763
21
1.1302017322834645
0
LINE
8
BLACK
6
CONTINUOUS
10
0.8408344881889763
20
1.1302017322834645
11
0.8401574803149606
21
1.1299212598425197
0
LINE
8
BLACK
6
CONTINUOUS
10
0.8401574803149606
20
1.1299212598425197
11
0.821259842519685
21
1.1299212598425197
0
LINE
8
BLACK
6
CONTINUOUS
10
0.821259842519685
20
1.1299212598425197
11
0.8205827952755905
21
1.1302017322834645
0
LINE
8
BLACK
6
CONTINUOUS
10
0.8205827952755905
20
1.1302017322834645
11
0.8198704724409449
21
1.1303730708661417
0
LINE
8
BLACK
6
CONTINUOUS
10
0.8198704724409449
20
1.1303730708661417
11
0.8197690157480315
21
1.1305388188976377
0
LINE
8
BLACK
6
CONTINUOUS
10
0.8197690157480315
20
1.1305388188976377
11
0.8195895275590551
21
1.1306131496062992
0
LINE
8
BLACK
6
CONTINUOUS
10
0.8195895275590551
20
1.1306131496062992
11
0.819309094488189
21
1.1312901574803149
0
LINE
8
BLACK
6
CONTINUOUS
10
0.819309094488189
20
1.1312901574803149
11
0.8189265748031496
21
1.1319150393700788
0
LINE
8
BLACK
6
CONTINUOUS
10
0.8189265748031496
20
1.1319150393700788
11
0.8189720078740157
21
1.132103937007874
0
LINE
8
BLACK
6
CONTINUOUS
10
0.8189720078740157
20
1.132103937007874
11
0.8188976377952756
21
1.1322834645669291
0
LINE
8
BLACK
6
CONTINUOUS
10
0.8188976377952756
20
1.1322834645669291
11
0.8191780708661417
21
1.1329605118110235
0
LINE
8
BLACK
6
CONTINUOUS
10
0.8191780708661417
20
1.1329605118110235
11
0.8193494488188976
21
1.1336728346456693
0
LINE
8
BLACK
6
CONTINUOUS
10
0.8193494488188976
20
1.1336728346456693
11
0.8287982677165354
21
1.1466649606299213
0
LINE
8
BLACK
6
CONTINUOUS
10
0.8287982677165354
20
1.1466649606299213
11
0.8291214173228346
21
1.1468628346456693
0
LINE
8
BLACK
6
CONTINUOUS
10
0.8291214173228346
20
1.1468628346456693
11
0.8293192913385826
21
1.1471859842519685
0
LINE
8
BLACK
6
CONTINUOUS
10
0.8293192913385826
20
1.1471859842519685
11
0.8298631496062991
21
1.1473168503937008
0
LINE
8
BLACK
6
CONTINUOUS
10
0.8298631496062991
20
1.1473168503937008
11
0.8303402362204724
21
1.1476088582677164
0
LINE
8
BLACK
6
CONTINUOUS
10
0.8303402362204724
20
1.1476088582677164
11
0.8307086614173228
21
1.1475202362204724
0
LINE
8
BLACK
6
CONTINUOUS
10
0.8307086614173228
20
1.1475202362204724
11
0.8310770866141732
21
1.1476088582677164
0
LINE
8
BLACK
6
CONTINUOUS
10
0.8310770866141732
20
1.1476088582677164
11
0.8315541338582677
21
1.1473168503937008
0
LINE
8
BLACK
6
CONTINUOUS
10
0.9187076771653543
20
1.1696134645669292
11
0.9188429133858268
21
1.1695
0
LINE
8
BLACK
6
CONTINUOUS
10
0.9188429133858268
20
1.1695
11
0.9190182677165354
21
1.1694798031496063
0
LINE
8
BLACK
6
CONTINUOUS
10
0.9190182677165354
20
1.1694798031496063
11
0.922017874015748
21
1.16798
0
LINE
8
BLACK
6
CONTINUOUS
10
0.922017874015748
20
1.16798
11
0.9227268503937007
21
1.1674541732283463
0
LINE
8
BLACK
6
CONTINUOUS
10
0.9227268503937007
20
1.1674541732283463
11
0.9227852362204724
21
1.1674269291338581
0
LINE
8
BLACK
6
CONTINUOUS
10
0.9227852362204724
20
1.1674269291338581
11
0.9242850787401574
21
1.1659271259842519
0
LINE
8
BLACK
6
CONTINUOUS
10
0.9242850787401574
20
1.1659271259842519
11
0.9248733070866142
21
1.1650870866141732
0
LINE
8
BLACK
6
CONTINUOUS
10
0.9248733070866142
20
1.1650870866141732
11
0.9250493700787401
21
1.1630750000000001
0
LINE
8
BLACK
6
CONTINUOUS
10
0.9250493700787401
20
1.1630750000000001
11
0.9238908661417322
21
1.1614204330708662
0
LINE
8
BLACK
6
CONTINUOUS
10
0.9238908661417322
20
1.1614204330708662
11
0.9219398818897637
21
1.1608976771653543
0
LINE
8
BLACK
6
CONTINUOUS
10
0.9219398818897637
20
1.1608976771653543
11
0.9201093307086614
21
1.1617512204724409
0
LINE
8
BLACK
6
CONTINUOUS
10
0.9201093307086614
20
1.1617512204724409
11
0.9189482677165354
21
1.1629122440944881
0
LINE
8
BLACK
6
CONTINUOUS
10
0.9189482677165354
20
1.1629122440944881
11
0.9170007086614173
21
1.1638860236220472
0
LINE
8
BLACK
6
CONTINUOUS
10
0.9170007086614173
20
1.1638860236220472
11
0.9108957480314961
21
1.1638860236220472
0
LINE
8
BLACK
6
CONTINUOUS
10
0.9108957480314961
20
1.1638860236220472
11
0.9089481102362205
21
1.1629122440944881
0
LINE
8
BLACK
6
CONTINUOUS
10
0.9089481102362205
20
1.1629122440944881
11
0.9081259842519684
21
1.1620901181102361
0
LINE
8
BLACK
6
CONTINUOUS
10
0.9081259842519684
20
1.1620901181102361
11
0.9071522047244094
21
1.1601425196850395
0
LINE
8
BLACK
6
CONTINUOUS
10
0.9071522047244094
20
1.1601425196850395
11
0.9071522047244094
21
1.1583190551181102
0
LINE
8
BLACK
6
CONTINUOUS
10
0.9071522047244094
20
1.1583190551181102
11
0.9082800393700787
21
1.1549355118110236
0
LINE
8
BLACK
6
CONTINUOUS
10
0.9082800393700787
20
1.1549355118110236
11
0.9257849212598425
21
1.1374306299212598
0
LINE
8
BLACK
6
CONTINUOUS
10
0.9257849212598425
20
1.1374306299212598
11
0.92615468503937
21
1.1369025984251968
0
LINE
8
BLACK
6
CONTINUOUS
10
0.92615468503937
20
1.1369025984251968
11
0.9262541732283465
21
1.1368190944881889
0
LINE
8
BLACK
6
CONTINUOUS
10
0.9262541732283465
20
1.1368190944881889
11
0.9262679527559055
21
1.1367407874015747
0
LINE
8
BLACK
6
CONTINUOUS
10
0.9262679527559055
20
1.1367407874015747
11
0.9263731496062992
21
1.1365905905511811
0
LINE
8
BLACK
6
CONTINUOUS
10
0.9263731496062992
20
1.1365905905511811
11
0.9264505905511811
21
1.1357050393700787
0
LINE
8
BLACK
6
CONTINUOUS
10
0.9264505905511811
20
1.1357050393700787
11
0.9266049212598425
21
1.1348299606299213
0
LINE
8
BLACK
6
CONTINUOUS
10
0.9266049212598425
20
1.1348299606299213
11
0.9265374015748031
21
1.134713031496063
0
LINE
8
BLACK
6
CONTINUOUS
10
0.9265374015748031
20
1.134713031496063
11
0.9265491732283464
21
1.134578464566929
0
LINE
8
BLACK
6
CONTINUOUS
10
0.9265491732283464
20
1.134578464566929
11
0.9260392913385826
21
1.1338503149606298
0
LINE
8
BLACK
6
CONTINUOUS
10
0.9260392913385826
20
1.1338503149606298
11
0.9255949999999999
21
1.1330807874015747
0
LINE
8
BLACK
6
CONTINUOUS
10
0.9255949999999999
20
1.1330807874015747
11
0.9254681102362204
21
1.1330346456692912
0
LINE
8
BLACK
6
CONTINUOUS
10
0.9254681102362204
20
1.1330346456692912
11
0.9253906299212599
21
1.1329239370078741
0
LINE
8
BLACK
6
CONTINUOUS
10
0.9253906299212599
20
1.1329239370078741
11
0.9245320472440944
21
1.1326939370078739
0
LINE
8
BLACK
6
CONTINUOUS
10
0.9245320472440944
20
1.1326939370078739
11
0.9236970078740158
21
1.1323899606299213
0
LINE
8
BLACK
6
CONTINUOUS
10
0.9236970078740158
20
1.1323899606299213
11
0.9041994488188976
21
1.1323899606299213
0
LINE
8
BLACK
6
CONTINUOUS
10
0.9041994488188976
20
1.1323899606299213
11
0.9031895275590551
21
1.1325680314960629
0
LINE
8
BLACK
6
CONTINUOUS
10
0.9031895275590551
20
1.1325680314960629
11
0.9016422834645669
21
1.133866338582677
0
LINE
8
BLACK
6
CONTINUOUS
10
0.9016422834645669
20
1.133866338582677
11
0.9012915354330708
21
1.1358554724409449
0
LINE
8
BLACK
6
CONTINUOUS
10
0.9012915354330708
20
1.1358554724409449
11
0.9023014566929134
21
1.1376046456692912
0
LINE
8
BLACK
6
CONTINUOUS
10
0.9023014566929134
20
1.1376046456692912
11
0.9041994488188976
21
1.1382954724409449
0
LINE
8
BLACK
6
CONTINUOUS
10
0.9041994488188976
20
1.1382954724409449
11
0.9165684251968503
21
1.1382954724409449
0
LINE
8
BLACK
6
CONTINUOUS
10
0.9165684251968503
20
1.1382954724409449
11
0.9036113385826772
21
1.1512525590551181
0
LINE
8
BLACK
6
CONTINUOUS
10
0.9036113385826772
20
1.1512525590551181
11
0.9030231496062991
21
1.1520925984251968
0
LINE
8
BLACK
6
CONTINUOUS
10
0.9030231496062991
20
1.1520925984251968
11
0.9030077559055117
21
1.1522684645669292
0
LINE
8
BLACK
6
CONTINUOUS
10
0.9030077559055117
20
1.1522684645669292
11
0.902898031496063
21
1.1524067322834646
0
LINE
8
BLACK
6
CONTINUOUS
10
0.902898031496063
20
1.1524067322834646
11
0.9013982283464567
21
1.1569061811023622
0
LINE
8
BLACK
6
CONTINUOUS
10
0.9013982283464567
20
1.1569061811023622
11
0.9012687401574803
21
1.1577793700787402
0
LINE
8
BLACK
6
CONTINUOUS
10
0.9012687401574803
20
1.1577793700787402
11
0.9012466929133858
21
1.1578399212598425
0
LINE
8
BLACK
6
CONTINUOUS
10
0.9012466929133858
20
1.1578399212598425
11
0.9012466929133858
21
1.1608395275590551
0
LINE
8
BLACK
6
CONTINUOUS
10
0.9012466929133858
20
1.1608395275590551
11
0.9014247637795275
21
1.1618494488188975
0
LINE
8
BLACK
6
CONTINUOUS
10
0.9014247637795275
20
1.1618494488188975
11
0.9015382283464567
21
1.1619847244094488
0
LINE
8
BLACK
6
CONTINUOUS
10
0.9015382283464567
20
1.1619847244094488
11
0.9015584251968504
21
1.1621600393700786
0
LINE
8
BLACK
6
CONTINUOUS
10
0.9015584251968504
20
1.1621600393700786
11
0.9030582283464567
21
1.16515968503937
0
LINE
8
BLACK
6
CONTINUOUS
10
0.9030582283464567
20
1.16515968503937
11
0.9035841338582677
21
1.1658687795275591
0
LINE
8
BLACK
6
CONTINUOUS
10
0.9035841338582677
20
1.1658687795275591
11
0.9036113385826772
21
1.1659270866141731
0
LINE
8
BLACK
6
CONTINUOUS
10
0.9036113385826772
20
1.1659270866141731
11
0.9051111417322835
21
1.1674268897637794
0
LINE
8
BLACK
6
CONTINUOUS
10
0.9051111417322835
20
1.1674268897637794
11
0.9058342125984252
21
1.167933188976378
0
LINE
8
BLACK
6
CONTINUOUS
10
0.9058342125984252
20
1.167933188976378
11
0.9058785433070866
21
1.16798
0
LINE
8
BLACK
6
CONTINUOUS
10
0.9058785433070866
20
1.16798
11
0.908878188976378
21
1.1694798031496063
0
LINE
8
BLACK
6
CONTINUOUS
10
0.908878188976378
20
1.1694798031496063
11
0.9098611417322835
21
1.1697722047244095
0
LINE
8
BLACK
6
CONTINUOUS
10
0.9098611417322835
20
1.1697722047244095
11
0.9100328346456693
21
1.1697311811023621
0
LINE
8
BLACK
6
CONTINUOUS
10
0.9100328346456693
20
1.1697311811023621
11
0.9101987007874015
21
1.1697915354330708
0
LINE
8
BLACK
6
CONTINUOUS
10
0.9101987007874015
20
1.1697915354330708
11
0.9176977559055118
21
1.1697915354330708
0
LINE
8
BLACK
6
CONTINUOUS
10
0.9176977559055118
20
1.1697915354330708
11
0.9187076771653543
21
1.1696134645669292
0
LINE
8
BLACK
6
CONTINUOUS
10
0.9502037401574803
20
1.1696134645669292
11
0.9517509842519685
21
1.168315157480315
0
LINE
8
BLACK
6
CONTINUOUS
10
0.9517509842519685
20
1.168315157480315
11
0.9521017322834645
21
1.1663260236220472
0
LINE
8
BLACK
6
CONTINUOUS
10
0.9521017322834645
20
1.1663260236220472
11
0.9510918110236221
21
1.1645768503937008
0
LINE
8
BLACK
6
CONTINUOUS
10
0.9510918110236221
20
1.1645768503937008
11
0.9491938188976378
21
1.1638860236220472
0
LINE
8
BLACK
6
CONTINUOUS
10
0.9491938188976378
20
1.1638860236220472
11
0.9431477165354331
21
1.1638860236220472
0
LINE
8
BLACK
6
CONTINUOUS
10
0.9431477165354331
20
1.1638860236220472
11
0.9431477165354331
21
1.1353427165354331
0
LINE
8
BLACK
6
CONTINUOUS
10
0.9431477165354331
20
1.1353427165354331
11
0.9429696456692913
21
1.1343327952755906
0
LINE
8
BLACK
6
CONTINUOUS
10
0.9429696456692913
20
1.1343327952755906
11
0.9416713385826772
21
1.1327855511811022
0
LINE
8
BLACK
6
CONTINUOUS
10
0.9416713385826772
20
1.1327855511811022
11
0.9396822047244094
21
1.1324348031496063
0
LINE
8
BLACK
6
CONTINUOUS
10
0.9396822047244094
20
1.1324348031496063
11
0.937933031496063
21
1.1334447244094488
0
LINE
8
BLACK
6
CONTINUOUS
10
0.937933031496063
20
1.1334447244094488
11
0.9372422047244094
21
1.1353427165354331
0
LINE
8
BLACK
6
CONTINUOUS
10
0.9372422047244094
20
1.1353427165354331
11
0.9372422047244094
21
1.1638860236220472
0
LINE
8
BLACK
6
CONTINUOUS
10
0.9372422047244094
20
1.1638860236220472
11
0.931196062992126
21
1.1638860236220472
0
LINE
8
BLACK
6
CONTINUOUS
10
0.931196062992126
20
1.1638860236220472
11
0.9301861417322834
21
1.164064094488189
0
LINE
8
BLACK
6
CONTINUOUS
10
0.9301861417322834
20
1.164064094488189
11
0.9286388976377953
21
1.1653624015748032
0
LINE
8
BLACK
6
CONTINUOUS
10
0.9286388976377953
20
1.1653624015748032
11
0.9282881496062992
21
1.1673515354330708
0
LINE
8
BLACK
6
CONTINUOUS
10
0.9282881496062992
20
1.1673515354330708
11
0.9292980708661417
21
1.1691007086614174
0
LINE
8
BLACK
6
CONTINUOUS
10
0.9292980708661417
20
1.1691007086614174
11
0.931196062992126
21
1.1697915354330708
0
LINE
8
BLACK
6
CONTINUOUS
10
0.931196062992126
20
1.1697915354330708
11
0.9491938188976378
21
1.1697915354330708
0
LINE
8
BLACK
6
CONTINUOUS
10
0.9491938188976378
20
1.1697915354330708
11
0.9502037401574803
21
1.1696134645669292
0
LINE
8
BLACK
6
CONTINUOUS
10
0.8764763779527559
20
1.1456692913385826
11
0.9020669291338582
21
1.1456692913385826
0
LINE
8
BLACK
6
CONTINUOUS
10
0.9020669291338582
20
1.1456692913385826
11
0.9037372440944882
21
1.1449774015748031
0
LINE
8
BLACK
6
CONTINUOUS
10
0.9037372440944882
20
1.1449774015748031
11
0.9044291338582677
21
1.1433070866141732
0
LINE
8
BLACK
6
CONTINUOUS
10
0.9044291338582677
20
1.1433070866141732
11
0.9037372440944882
21
1.1416367716535434
0
LINE
8
BLACK
6
CONTINUOUS
10
0.9037372440944882
20
1.1416367716535434
11
0.9020669291338582
21
1.1409448818897638
0
LINE
8
BLACK
6
CONTINUOUS
10
0.9020669291338582
20
1.1409448818897638
11
0.8764763779527559
21
1.1409448818897638
0
LINE
8
BLACK
6
CONTINUOUS
10
0.8764763779527559
20
1.1409448818897638
11
0.8508858267716535
21
1.1409448818897638
0
LINE
8
BLACK
6
CONTINUOUS
10
0.8508858267716535
20
1.1409448818897638
11
0.8492155118110236
21
1.1416367716535434
0
LINE
8
BLACK
6
CONTINUOUS
10
0.8492155118110236
20
1.1416367716535434
11
0.8485236220472441
21
1.1433070866141732
0
LINE
8
BLACK
6
CONTINUOUS
10
0.8485236220472441
20
1.1433070866141732
11
0.8492155118110236
21
1.1449774015748031
0
LINE
8
BLACK
6
CONTINUOUS
10
0.8492155118110236
20
1.1449774015748031
11
0.8508858267716535
21
1.1456692913385826
0
LINE
8
BLACK
6
CONTINUOUS
10
0.8508858267716535
20
1.1456692913385826
11
0.8764763779527559
21
1.1456692913385826
0
LINE
8
BLACK
6
CONTINUOUS
10
0.6069589763779527
20
1.1814728346456693
11
0.6071283858267716
21
1.1814837401574803
0
LINE
8
BLACK
6
CONTINUOUS
10
0.6071283858267716
20
1.1814837401574803
11
0.6078189763779528
21
1.1809762992125985
0
LINE
8
BLACK
6
CONTINUOUS
10
0.6078189763779528
20
1.1809762992125985
11
0.6085611023622047
21
1.1805477952755905
0
LINE
8
BLACK
6
CONTINUOUS
10
0.6085611023622047
20
1.1805477952755905
11
0.6086191338582677
21
1.1803883070866141
0
LINE
8
BLACK
6
CONTINUOUS
10
0.6086191338582677
20
1.1803883070866141
11
0.6087560236220473
21
1.1802877165354331
0
LINE
8
BLACK
6
CONTINUOUS
10
0.6087560236220473
20
1.1802877165354331
11
0.6115935039370078
21
1.1760314960629921
0
LINE
8
BLACK
6
CONTINUOUS
10
0.6115935039370078
20
1.1760314960629921
11
0.6140475196850393
21
1.1735775196850393
0
LINE
8
BLACK
6
CONTINUOUS
10
0.6140475196850393
20
1.1735775196850393
11
0.6166185826771653
21
1.172291968503937
0
LINE
8
BLACK
6
CONTINUOUS
10
0.6166185826771653
20
1.172291968503937
11
0.6174422440944882
21
1.1716810629921259
0
LINE
8
BLACK
6
CONTINUOUS
10
0.6174422440944882
20
1.1716810629921259
11
0.6182455118110236
21
1.1698278740157479
0
LINE
8
BLACK
6
CONTINUOUS
10
0.6182455118110236
20
1.1698278740157479
11
0.61766968503937
21
1.1678918897637796
0
LINE
8
BLACK
6
CONTINUOUS
10
0.61766968503937
20
1.1678918897637796
11
0.6159841338582677
21
1.1667790157480316
0
LINE
8
BLACK
6
CONTINUOUS
10
0.6159841338582677
20
1.1667790157480316
11
0.6139775590551181
21
1.1670099212598426
0
LINE
8
BLACK
6
CONTINUOUS
10
0.6139775590551181
20
1.1670099212598426
11
0.6109779133858267
21
1.1685097244094489
0
LINE
8
BLACK
6
CONTINUOUS
10
0.6109779133858267
20
1.1685097244094489
11
0.6102688582677165
21
1.1690356299212599
0
LINE
8
BLACK
6
CONTINUOUS
10
0.6102688582677165
20
1.1690356299212599
11
0.6102105118110236
21
1.1690628346456693
0
LINE
8
BLACK
6
CONTINUOUS
10
0.6102105118110236
20
1.1690628346456693
11
0.6092519291338583
21
1.1700214566929135
0
LINE
8
BLACK
6
CONTINUOUS
10
0.6092519291338583
20
1.1700214566929135
11
0.6092519291338583
21
1.1501064960629921
0
LINE
8
BLACK
6
CONTINUOUS
10
0.6092519291338583
20
1.1501064960629921
11
0.6152980708661417
21
1.1501064960629921
0
LINE
8
BLACK
6
CONTINUOUS
10
0.6152980708661417
20
1.1501064960629921
11
0.6163079921259842
21
1.1499284251968505
0
LINE
8
BLACK
6
CONTINUOUS
10
0.6163079921259842
20
1.1499284251968505
11
0.6178552362204724
21
1.1486301181102363
0
LINE
8
BLACK
6
CONTINUOUS
10
0.6178552362204724
20
1.1486301181102363
11
0.6182059842519685
21
1.1466409842519685
0
LINE
8
BLACK
6
CONTINUOUS
10
0.6182059842519685
20
1.1466409842519685
11
0.6171960629921259
21
1.1448918110236219
0
LINE
8
BLACK
6
CONTINUOUS
10
0.6171960629921259
20
1.1448918110236219
11
0.6152980708661417
21
1.1442009842519685
0
LINE
8
BLACK
6
CONTINUOUS
10
0.6152980708661417
20
1.1442009842519685
11
0.5973003149606299
21
1.1442009842519685
0
LINE
8
BLACK
6
CONTINUOUS
10
0.5973003149606299
20
1.1442009842519685
11
0.5962903937007874
21
1.1443790551181101
0
LINE
8
BLACK
6
CONTINUOUS
10
0.5962903937007874
20
1.1443790551181101
11
0.5947431496062991
21
1.1456773622047245
0
LINE
8
BLACK
6
CONTINUOUS
10
0.5947431496062991
20
1.1456773622047245
11
0.5943924015748031
21
1.1476664960629921
0
LINE
8
BLACK
6
CONTINUOUS
10
0.5943924015748031
20
1.1476664960629921
11
0.5954023228346457
21
1.1494156692913386
0
LINE
8
BLACK
6
CONTINUOUS
10
0.5954023228346457
20
1.1494156692913386
11
0.5973003149606299
21
1.1501064960629921
0
LINE
8
BLACK
6
CONTINUOUS
10
0.5973003149606299
20
1.1501064960629921
11
0.6033464173228347
21
1.1501064960629921
0
LINE
8
BLACK
6
CONTINUOUS
10
0.6033464173228347
20
1.1501064960629921
11
0.6033464173228347
21
1.1786498031496062
0
LINE
8
BLACK
6
CONTINUOUS
10
0.6033464173228347
20
1.1786498031496062
11
0.6035244881889764
21
1.1796597244094489
0
LINE
8
BLACK
6
CONTINUOUS
10
0.6035244881889764
20
1.1796597244094489
11
0.6036336220472441
21
1.1797898031496064
0
LINE
8
BLACK
6
CONTINUOUS
10
0.6036336220472441
20
1.1797898031496064
11
0.6036522834645669
21
1.1799585433070865
0
LINE
8
BLACK
6
CONTINUOUS
10
0.6036522834645669
20
1.1799585433070865
11
0.6042719685039369
21
1.1805505905511811
0
LINE
8
BLACK
6
CONTINUOUS
10
0.6042719685039369
20
1.1805505905511811
11
0.6048227952755906
21
1.181206968503937
0
LINE
8
BLACK
6
CONTINUOUS
10
0.6048227952755906
20
1.181206968503937
11
0.6049899606299213
21
1.1812364566929134
0
LINE
8
BLACK
6
CONTINUOUS
10
0.6049899606299213
20
1.1812364566929134
11
0.6051127559055118
21
1.1813537401574803
0
LINE
8
BLACK
6
CONTINUOUS
10
0.6051127559055118
20
1.1813537401574803
11
0.6059679527559055
21
1.1814088976377952
0
LINE
8
BLACK
6
CONTINUOUS
10
0.6059679527559055
20
1.1814088976377952
11
0.6068119291338583
21
1.181557716535433
0
LINE
8
BLACK
6
CONTINUOUS
10
0.6068119291338583
20
1.181557716535433
11
0.6069589763779527
21
1.1814728346456693
0
LINE
8
BLACK
6
CONTINUOUS
10
0.6456777952755905
20
1.1815349606299212
11
0.6458070472440944
21
1.181557716535433
0
LINE
8
BLACK
6
CONTINUOUS
10
0.6458070472440944
20
1.181557716535433
11
0.6459206299212599
21
1.1814921259842519
0
LINE
8
BLACK
6
CONTINUOUS
10
0.6459206299212599
20
1.1814921259842519
11
0.6463042125984252
21
1.1814244881889764
0
LINE
8
BLACK
6
CONTINUOUS
10
0.6463042125984252
20
1.1814244881889764
11
0.6468918897637795
21
1.1809313779527559
0
LINE
8
BLACK
6
CONTINUOUS
10
0.6468918897637795
20
1.1809313779527559
11
0.6475562204724409
21
1.1805477952755905
0
LINE
8
BLACK
6
CONTINUOUS
10
0.6475562204724409
20
1.1805477952755905
11
0.6476473228346457
21
1.1802974803149606
0
LINE
8
BLACK
6
CONTINUOUS
10
0.6476473228346457
20
1.1802974803149606
11
0.6478514566929133
21
1.1801261811023622
0
LINE
8
BLACK
6
CONTINUOUS
10
0.6478514566929133
20
1.1801261811023622
11
0.64798468503937
21
1.1793706299212598
0
LINE
8
BLACK
6
CONTINUOUS
10
0.64798468503937
20
1.1793706299212598
11
0.6482470472440944
21
1.1786498031496062
0
LINE
8
BLACK
6
CONTINUOUS
10
0.6482470472440944
20
1.1786498031496062
11
0.6482470472440944
21
1.1471537401574803
0
LINE
8
BLACK
6
CONTINUOUS
10
0.6482470472440944
20
1.1471537401574803
11
0.6480689763779527
21
1.1461438188976378
0
LINE
8
BLACK
6
CONTINUOUS
10
0.6480689763779527
20
1.1461438188976378
11
0.6467706692913385
21
1.1445965748031497
0
LINE
8
BLACK
6
CONTINUOUS
10
0.6467706692913385
20
1.1445965748031497
11
0.6447815354330708
21
1.1442458267716535
0
LINE
8
BLACK
6
CONTINUOUS
10
0.6447815354330708
20
1.1442458267716535
11
0.6430323622047244
21
1.145255748031496
0
LINE
8
BLACK
6
CONTINUOUS
10
0.6430323622047244
20
1.145255748031496
11
0.6423415354330708
21
1.1471537401574803
0
LINE
8
BLACK
6
CONTINUOUS
10
0.6423415354330708
20
1.1471537401574803
11
0.6423415354330708
21
1.1591991338582677
0
LINE
8
BLACK
6
CONTINUOUS
10
0.6423415354330708
20
1.1591991338582677
11
0.6393325984251969
21
1.1591991338582677
0
LINE
8
BLACK
6
CONTINUOUS
10
0.6393325984251969
20
1.1591991338582677
11
0.6297155118110236
21
1.1454604330708662
0
LINE
8
BLACK
6
CONTINUOUS
10
0.6297155118110236
20
1.1454604330708662
11
0.6289905118110236
21
1.1447351968503936
0
LINE
8
BLACK
6
CONTINUOUS
10
0.6289905118110236
20
1.1447351968503936
11
0.6270396062992126
21
1.1442121653543307
0
LINE
8
BLACK
6
CONTINUOUS
10
0.6270396062992126
20
1.1442121653543307
11
0.6252088976377953
21
1.1450655118110236
0
LINE
8
BLACK
6
CONTINUOUS
10
0.6252088976377953
20
1.1450655118110236
11
0.6243550787401575
21
1.1468959842519684
0
LINE
8
BLACK
6
CONTINUOUS
10
0.6243550787401575
20
1.1468959842519684
11
0.6248775590551181
21
1.1488470472440944
0
LINE
8
BLACK
6
CONTINUOUS
10
0.6248775590551181
20
1.1488470472440944
11
0.6322624015748032
21
1.1593968897637794
0
LINE
8
BLACK
6
CONTINUOUS
10
0.6322624015748032
20
1.1593968897637794
11
0.6321505905511811
21
1.1594907086614172
0
LINE
8
BLACK
6
CONTINUOUS
10
0.6321505905511811
20
1.1594907086614172
11
0.6319752755905512
21
1.1595108661417322
0
LINE
8
BLACK
6
CONTINUOUS
10
0.6319752755905512
20
1.1595108661417322
11
0.6289756692913385
21
1.1610106692913384
0
LINE
8
BLACK
6
CONTINUOUS
10
0.6289756692913385
20
1.1610106692913384
11
0.6282665748031496
21
1.1615365748031496
0
LINE
8
BLACK
6
CONTINUOUS
10
0.6282665748031496
20
1.1615365748031496
11
0.6282082677165354
21
1.1615637795275591
0
LINE
8
BLACK
6
CONTINUOUS
10
0.6282082677165354
20
1.1615637795275591
11
0.6267084645669291
21
1.1630635826771654
0
LINE
8
BLACK
6
CONTINUOUS
10
0.6267084645669291
20
1.1630635826771654
11
0.6262021653543307
21
1.1637866929133858
0
LINE
8
BLACK
6
CONTINUOUS
10
0.6262021653543307
20
1.1637866929133858
11
0.6261553543307087
21
1.1638309842519685
0
LINE
8
BLACK
6
CONTINUOUS
10
0.6261553543307087
20
1.1638309842519685
11
0.6246555118110236
21
1.1668306299212599
0
LINE
8
BLACK
6
CONTINUOUS
10
0.6246555118110236
20
1.1668306299212599
11
0.6243631496062992
21
1.1678135433070866
0
LINE
8
BLACK
6
CONTINUOUS
10
0.6243631496062992
20
1.1678135433070866
11
0.6244041338582677
21
1.1679852755905511
0
LINE
8
BLACK
6
CONTINUOUS
10
0.6244041338582677
20
1.1679852755905511
11
0.624343779527559
21
1.1681511417322834
0
LINE
8
BLACK
6
CONTINUOUS
10
0.624343779527559
20
1.1681511417322834
11
0.624343779527559
21
1.1726505511811023
0
LINE
8
BLACK
6
CONTINUOUS
10
0.624343779527559
20
1.1726505511811023
11
0.6245218503937008
21
1.173660472440945
0
LINE
8
BLACK
6
CONTINUOUS
10
0.6245218503937008
20
1.173660472440945
11
0.62463531496063
21
1.173795748031496
0
LINE
8
BLACK
6
CONTINUOUS
10
0.62463531496063
20
1.173795748031496
11
0.6246555118110236
21
1.1739710629921261
0
LINE
8
BLACK
6
CONTINUOUS
10
0.6246555118110236
20
1.1739710629921261
11
0.6261553543307087
21
1.1769707086614174
0
LINE
8
BLACK
6
CONTINUOUS
10
0.6261553543307087
20
1.1769707086614174
11
0.6266811811023622
21
1.17767968503937
0
LINE
8
BLACK
6
CONTINUOUS
10
0.6266811811023622
20
1.17767968503937
11
0.6267084645669291
21
1.1777381102362205
0
LINE
8
BLACK
6
CONTINUOUS
10
0.6267084645669291
20
1.1777381102362205
11
0.6282082677165354
21
1.1792379133858268
0
LINE
8
BLACK
6
CONTINUOUS
10
0.6282082677165354
20
1.1792379133858268
11
0.6289313385826771
21
1.1797442125984252
0
LINE
8
BLACK
6
CONTINUOUS
10
0.6289313385826771
20
1.1797442125984252
11
0.6289756692913385
21
1.1797910236220472
0
LINE
8
BLACK
6
CONTINUOUS
10
0.6289756692913385
20
1.1797910236220472
11
0.6319752755905512
21
1.1812908267716535
0
LINE
8
BLACK
6
CONTINUOUS
10
0.6319752755905512
20
1.1812908267716535
11
0.6329582283464567
21
1.1815831889763779
0
LINE
8
BLACK
6
CONTINUOUS
10
0.6329582283464567
20
1.1815831889763779
11
0.6331298818897637
21
1.1815422047244095
0
LINE
8
BLACK
6
CONTINUOUS
10
0.6331298818897637
20
1.1815422047244095
11
0.6332957874015748
21
1.181602559055118
0
LINE
8
BLACK
6
CONTINUOUS
10
0.6332957874015748
20
1.181602559055118
11
0.6452942913385826
21
1.181602559055118
0
LINE
8
BLACK
6
CONTINUOUS
10
0.6452942913385826
20
1.181602559055118
11
0.6456777952755905
21
1.1815349606299212
0
LINE
8
BLACK
6
CONTINUOUS
10
0.6320452755905511
20
1.1747232677165353
11
0.6312231102362205
21
1.1739011417322835
0
LINE
8
BLACK
6
CONTINUOUS
10
0.6312231102362205
20
1.1739011417322835
11
0.6302492913385827
21
1.1719535039370079
0
LINE
8
BLACK
6
CONTINUOUS
10
0.6302492913385827
20
1.1719535039370079
11
0.6302492913385827
21
1.1688482283464567
0
LINE
8
BLACK
6
CONTINUOUS
10
0.6302492913385827
20
1.1688482283464567
11
0.6312231102362205
21
1.1669005905511811
0
LINE
8
BLACK
6
CONTINUOUS
10
0.6312231102362205
20
1.1669005905511811
11
0.6320452755905511
21
1.1660784251968503
0
LINE
8
BLACK
6
CONTINUOUS
10
0.6320452755905511
20
1.1660784251968503
11
0.6339928346456692
21
1.1651046456692913
0
LINE
8
BLACK
6
CONTINUOUS
10
0.6339928346456692
20
1.1651046456692913
11
0.6423415354330708
21
1.1651046456692913
0
LINE
8
BLACK
6
CONTINUOUS
10
0.6423415354330708
20
1.1651046456692913
11
0.6423415354330708
21
1.1756970472440944
0
LINE
8
BLACK
6
CONTINUOUS
10
0.6423415354330708
20
1.1756970472440944
11
0.6339928346456692
21
1.1756970472440944
0
LINE
8
BLACK
6
CONTINUOUS
10
0.6339928346456692
20
1.1756970472440944
11
0.6320452755905511
21
1.1747232677165353
0
LINE
8
BLACK
6
CONTINUOUS
10
0.5070192519685039
20
1.179185590551181
11
0.5071538188976378
21
1.1791973228346457
0
LINE
8
BLACK
6
CONTINUOUS
10
0.5071538188976378
20
1.1791973228346457
11
0.507881968503937
21
1.1786874803149605
0
LINE
8
BLACK
6
CONTINUOUS
10
0.507881968503937
20
1.1786874803149605
11
0.5086514960629921
21
1.1782431496062993
0
LINE
8
BLACK
6
CONTINUOUS
10
0.5086514960629921
20
1.1782431496062993
11
0.5086976377952755
21
1.1781162992125984
0
LINE
8
BLACK
6
CONTINUOUS
10
0.5086976377952755
20
1.1781162992125984
11
0.5088083464566929
21
1.1780387795275591
0
LINE
8
BLACK
6
CONTINUOUS
10
0.5088083464566929
20
1.1780387795275591
11
0.5090383464566929
21
1.1771802362204724
0
LINE
8
BLACK
6
CONTINUOUS
10
0.5090383464566929
20
1.1771802362204724
11
0.5093423228346456
21
1.176345157480315
0
LINE
8
BLACK
6
CONTINUOUS
10
0.5093423228346456
20
1.176345157480315
11
0.5093423228346456
21
1.1568475984251969
0
LINE
8
BLACK
6
CONTINUOUS
10
0.5093423228346456
20
1.1568475984251969
11
0.5091642519685039
21
1.1558376771653542
0
LINE
8
BLACK
6
CONTINUOUS
10
0.5091642519685039
20
1.1558376771653542
11
0.5078659448818897
21
1.1542904330708661
0
LINE
8
BLACK
6
CONTINUOUS
10
0.5078659448818897
20
1.1542904330708661
11
0.505876811023622
21
1.1539396850393699
0
LINE
8
BLACK
6
CONTINUOUS
10
0.505876811023622
20
1.1539396850393699
11
0.5041276377952756
21
1.1549496062992126
0
LINE
8
BLACK
6
CONTINUOUS
10
0.5041276377952756
20
1.1549496062992126
11
0.503436811023622
21
1.1568475984251969
0
LINE
8
BLACK
6
CONTINUOUS
10
0.503436811023622
20
1.1568475984251969
11
0.503436811023622
21
1.1692165748031496
0
LINE
8
BLACK
6
CONTINUOUS
10
0.503436811023622
20
1.1692165748031496
11
0.4904797244094488
21
1.1562594881889763
0
LINE
8
BLACK
6
CONTINUOUS
10
0.4904797244094488
20
1.1562594881889763
11
0.4896396850393701
21
1.1556712992125984
0
LINE
8
BLACK
6
CONTINUOUS
10
0.4896396850393701
20
1.1556712992125984
11
0.4894638188976378
21
1.1556559448818897
0
LINE
8
BLACK
6
CONTINUOUS
10
0.4894638188976378
20
1.1556559448818897
11
0.4893255511811023
21
1.1555461811023622
0
LINE
8
BLACK
6
CONTINUOUS
10
0.4893255511811023
20
1.1555461811023622
11
0.4848261023622047
21
1.1540463779527559
0
LINE
8
BLACK
6
CONTINUOUS
10
0.4848261023622047
20
1.1540463779527559
11
0.4839529133858267
21
1.1539169291338582
0
LINE
8
BLACK
6
CONTINUOUS
10
0.4839529133858267
20
1.1539169291338582
11
0.4838923622047244
21
1.1538948425196851
0
LINE
8
BLACK
6
CONTINUOUS
10
0.4838923622047244
20
1.1538948425196851
11
0.4808927559055118
21
1.1538948425196851
0
LINE
8
BLACK
6
CONTINUOUS
10
0.4808927559055118
20
1.1538948425196851
11
0.4798828346456693
21
1.1540729133858267
0
LINE
8
BLACK
6
CONTINUOUS
10
0.4798828346456693
20
1.1540729133858267
11
0.4797475590551181
21
1.1541864173228347
0
LINE
8
BLACK
6
CONTINUOUS
10
0.4797475590551181
20
1.1541864173228347
11
0.4795722440944882
21
1.1542065748031496
0
LINE
8
BLACK
6
CONTINUOUS
10
0.4795722440944882
20
1.1542065748031496
11
0.4765725984251968
21
1.1557063779527559
0
LINE
8
BLACK
6
CONTINUOUS
10
0.4765725984251968
20
1.1557063779527559
11
0.4758635039370079
21
1.1562322834645669
0
LINE
8
BLACK
6
CONTINUOUS
10
0.4758635039370079
20
1.1562322834645669
11
0.4758051968503937
21
1.1562594881889763
0
LINE
8
BLACK
6
CONTINUOUS
10
0.4758051968503937
20
1.1562594881889763
11
0.4743053937007874
21
1.1577592913385826
0
LINE
8
BLACK
6
CONTINUOUS
10
0.4743053937007874
20
1.1577592913385826
11
0.473799094488189
21
1.1584824015748032
0
LINE
8
BLACK
6
CONTINUOUS
10
0.473799094488189
20
1.1584824015748032
11
0.4737522834645669
21
1.1585266929133857
0
LINE
8
BLACK
6
CONTINUOUS
10
0.4737522834645669
20
1.1585266929133857
11
0.4722524803149606
21
1.1615263385826771
0
LINE
8
BLACK
6
CONTINUOUS
10
0.4722524803149606
20
1.1615263385826771
11
0.4719600787401575
21
1.1625092913385826
0
LINE
8
BLACK
6
CONTINUOUS
10
0.4719600787401575
20
1.1625092913385826
11
0.4720011023622047
21
1.1626810236220473
0
LINE
8
BLACK
6
CONTINUOUS
10
0.4720011023622047
20
1.1626810236220473
11
0.471940748031496
21
1.1628468503937008
0
LINE
8
BLACK
6
CONTINUOUS
10
0.471940748031496
20
1.1628468503937008
11
0.471940748031496
21
1.1703459055118111
0
LINE
8
BLACK
6
CONTINUOUS
10
0.471940748031496
20
1.1703459055118111
11
0.4721188188976378
21
1.1713558267716535
0
LINE
8
BLACK
6
CONTINUOUS
10
0.4721188188976378
20
1.1713558267716535
11
0.4722322834645669
21
1.1714911023622048
0
LINE
8
BLACK
6
CONTINUOUS
10
0.4722322834645669
20
1.1714911023622048
11
0.4722524803149606
21
1.1716664173228346
0
LINE
8
BLACK
6
CONTINUOUS
10
0.4722524803149606
20
1.1716664173228346
11
0.4737522834645669
21
1.1746660236220472
0
LINE
8
BLACK
6
CONTINUOUS
10
0.4737522834645669
20
1.1746660236220472
11
0.4742781102362205
21
1.1753750393700788
0
LINE
8
BLACK
6
CONTINUOUS
10
0.4742781102362205
20
1.1753750393700788
11
0.4743053543307086
21
1.1754333858267716
0
LINE
8
BLACK
6
CONTINUOUS
10
0.4743053543307086
20
1.1754333858267716
11
0.4758051574803149
21
1.1769332283464566
0
LINE
8
BLACK
6
CONTINUOUS
10
0.4758051574803149
20
1.1769332283464566
11
0.4766451968503937
21
1.1775214566929133
0
LINE
8
BLACK
6
CONTINUOUS
10
0.4766451968503937
20
1.1775214566929133
11
0.4786572834645669
21
1.1776975196850394
0
LINE
8
BLACK
6
CONTINUOUS
10
0.4786572834645669
20
1.1776975196850394
11
0.4803118503937008
21
1.1765390157480315
0
LINE
8
BLACK
6
CONTINUOUS
10
0.4803118503937008
20
1.1765390157480315
11
0.4808346062992126
21
1.1745880314960631
0
LINE
8
BLACK
6
CONTINUOUS
10
0.4808346062992126
20
1.1745880314960631
11
0.479981062992126
21
1.1727574803149605
0
LINE
8
BLACK
6
CONTINUOUS
10
0.479981062992126
20
1.1727574803149605
11
0.4788200393700787
21
1.1715964566929133
0
LINE
8
BLACK
6
CONTINUOUS
10
0.4788200393700787
20
1.1715964566929133
11
0.4778462598425197
21
1.1696488582677165
0
LINE
8
BLACK
6
CONTINUOUS
10
0.4778462598425197
20
1.1696488582677165
11
0.4778462598425197
21
1.1635438976377952
0
LINE
8
BLACK
6
CONTINUOUS
10
0.4778462598425197
20
1.1635438976377952
11
0.4788200393700787
21
1.1615962992125983
0
LINE
8
BLACK
6
CONTINUOUS
10
0.4788200393700787
20
1.1615962992125983
11
0.4796421653543307
21
1.1607741732283465
0
LINE
8
BLACK
6
CONTINUOUS
10
0.4796421653543307
20
1.1607741732283465
11
0.4815898031496063
21
1.1598003543307087
0
LINE
8
BLACK
6
CONTINUOUS
10
0.4815898031496063
20
1.1598003543307087
11
0.4834132283464567
21
1.1598003543307087
0
LINE
8
BLACK
6
CONTINUOUS
10
0.4834132283464567
20
1.1598003543307087
11
0.4867967716535433
21
1.1609282283464566
0
LINE
8
BLACK
6
CONTINUOUS
10
0.4867967716535433
20
1.1609282283464566
11
0.504301653543307
21
1.1784330708661417
0
LINE
8
BLACK
6
CONTINUOUS
10
0.504301653543307
20
1.1784330708661417
11
0.5048296850393701
21
1.1788028740157479
0
LINE
8
BLACK
6
CONTINUOUS
10
0.5048296850393701
20
1.1788028740157479
11
0.5049131889763779
21
1.1789023228346456
0
LINE
8
BLACK
6
CONTINUOUS
10
0.5049131889763779
20
1.1789023228346456
11
0.5049914960629921
21
1.1789161417322835
0
LINE
8
BLACK
6
CONTINUOUS
10
0.5049914960629921
20
1.1789161417322835
11
0.5051416929133858
21
1.1790212992125984
0
LINE
8
BLACK
6
CONTINUOUS
10
0.5051416929133858
20
1.1790212992125984
11
0.5060272440944882
21
1.1790987795275589
0
LINE
8
BLACK
6
CONTINUOUS
10
0.5060272440944882
20
1.1790987795275589
11
0.5069023228346456
21
1.1792530708661417
0
LINE
8
BLACK
6
CONTINUOUS
10
0.5069023228346456
20
1.1792530708661417
11
0.5070192519685039
21
1.179185590551181
0
LINE
8
BLACK
6
CONTINUOUS
10
1.1275250393700786
20
1.1818779921259843
11
1.1290248818897637
21
1.180378188976378
0
LINE
8
BLACK
6
CONTINUOUS
10
1.1290248818897637
20
1.180378188976378
11
1.1295312598425196
21
1.1796550393700787
0
LINE
8
BLACK
6
CONTINUOUS
10
1.1295312598425196
20
1.1796550393700787
11
1.1295780314960631
21
1.1796107480314961
0
LINE
8
BLACK
6
CONTINUOUS
10
1.1295780314960631
20
1.1796107480314961
11
1.1310778346456694
21
1.1766111023622048
0
LINE
8
BLACK
6
CONTINUOUS
10
1.1310778346456694
20
1.1766111023622048
11
1.1313702362204725
21
1.1756281496062992
0
LINE
8
BLACK
6
CONTINUOUS
10
1.1313702362204725
20
1.1756281496062992
11
1.1313291732283464
21
1.1754564566929133
0
LINE
8
BLACK
6
CONTINUOUS
10
1.1313291732283464
20
1.1754564566929133
11
1.1313895669291338
21
1.175290590551181
0
LINE
8
BLACK
6
CONTINUOUS
10
1.1313895669291338
20
1.175290590551181
11
1.1313895669291338
21
1.1662917322834645
0
LINE
8
BLACK
6
CONTINUOUS
10
1.1313895669291338
20
1.1662917322834645
11
1.1312114960629922
21
1.165281811023622
0
LINE
8
BLACK
6
CONTINUOUS
10
1.1312114960629922
20
1.165281811023622
11
1.1310979921259843
21
1.1651465748031495
0
LINE
8
BLACK
6
CONTINUOUS
10
1.1310979921259843
20
1.1651465748031495
11
1.1310778346456694
21
1.1649712204724409
0
LINE
8
BLACK
6
CONTINUOUS
10
1.1310778346456694
20
1.1649712204724409
11
1.1295780314960631
21
1.1619715748031496
0
LINE
8
BLACK
6
CONTINUOUS
10
1.1295780314960631
20
1.1619715748031496
11
1.1290520472440944
21
1.1612624803149607
0
LINE
8
BLACK
6
CONTINUOUS
10
1.1290520472440944
20
1.1612624803149607
11
1.1290248818897637
21
1.1612041338582677
0
LINE
8
BLACK
6
CONTINUOUS
10
1.1290248818897637
20
1.1612041338582677
11
1.1275250393700786
21
1.1597043307086614
0
LINE
8
BLACK
6
CONTINUOUS
10
1.1275250393700786
20
1.1597043307086614
11
1.126801968503937
21
1.1591980708661418
0
LINE
8
BLACK
6
CONTINUOUS
10
1.126801968503937
20
1.1591980708661418
11
1.1267576771653542
21
1.1591512598425198
0
LINE
8
BLACK
6
CONTINUOUS
10
1.1267576771653542
20
1.1591512598425198
11
1.1237580708661417
21
1.1576514566929132
0
LINE
8
BLACK
6
CONTINUOUS
10
1.1237580708661417
20
1.1576514566929132
11
1.1227751181102361
21
1.1573590944881889
0
LINE
8
BLACK
6
CONTINUOUS
10
1.1227751181102361
20
1.1573590944881889
11
1.1226034251968504
21
1.1574001181102362
0
LINE
8
BLACK
6
CONTINUOUS
10
1.1226034251968504
20
1.1574001181102362
11
1.1224375590551181
21
1.1573397244094488
0
LINE
8
BLACK
6
CONTINUOUS
10
1.1224375590551181
20
1.1573397244094488
11
1.1149385039370079
21
1.1573397244094488
0
LINE
8
BLACK
6
CONTINUOUS
10
1.1149385039370079
20
1.1573397244094488
11
1.1139285826771654
21
1.1575177952755906
0
LINE
8
BLACK
6
CONTINUOUS
10
1.1139285826771654
20
1.1575177952755906
11
1.1137933070866142
21
1.1576312992125983
0
LINE
8
BLACK
6
CONTINUOUS
10
1.1137933070866142
20
1.1576312992125983
11
1.1136179921259843
21
1.1576514566929132
0
LINE
8
BLACK
6
CONTINUOUS
10
1.1136179921259843
20
1.1576514566929132
11
1.110618346456693
21
1.1591512598425198
0
LINE
8
BLACK
6
CONTINUOUS
10
1.110618346456693
20
1.1591512598425198
11
1.1099092519685039
21
1.1596771653543307
0
LINE
8
BLACK
6
CONTINUOUS
10
1.1099092519685039
20
1.1596771653543307
11
1.1098509448818898
21
1.1597043700787402
0
LINE
8
BLACK
6
CONTINUOUS
10
1.1098509448818898
20
1.1597043700787402
11
1.1083511417322833
21
1.1612041732283465
0
LINE
8
BLACK
6
CONTINUOUS
10
1.1083511417322833
20
1.1612041732283465
11
1.107844842519685
21
1.1619272834645669
0
LINE
8
BLACK
6
CONTINUOUS
10
1.107844842519685
20
1.1619272834645669
11
1.1077980314960629
21
1.1619715748031496
0
LINE
8
BLACK
6
CONTINUOUS
10
1.1077980314960629
20
1.1619715748031496
11
1.1064423622047244
21
1.1646829133858267
0
LINE
8
BLACK
6
CONTINUOUS
10
1.1064423622047244
20
1.1646829133858267
11
1.0988851574803149
21
1.15807031496063
0
LINE
8
BLACK
6
CONTINUOUS
10
1.0988851574803149
20
1.15807031496063
11
1.0985052755905511
21
1.157840433070866
0
LINE
8
BLACK
6
CONTINUOUS
10
1.0985052755905511
20
1.157840433070866
11
1.0984171259842519
21
1.15773531496063
0
LINE
8
BLACK
6
CONTINUOUS
10
1.0984171259842519
20
1.15773531496063
11
1.0982965354330709
21
1.157714094488189
0
LINE
8
BLACK
6
CONTINUOUS
10
1.0982965354330709
20
1.157714094488189
11
1.0980078346456692
21
1.1575392913385827
0
LINE
8
BLACK
6
CONTINUOUS
10
1.0980078346456692
20
1.1575392913385827
11
1.097211968503937
21
1.1575228346456692
0
LINE
8
BLACK
6
CONTINUOUS
10
1.097211968503937
20
1.1575228346456692
11
1.0964279921259843
21
1.1573845669291338
0
LINE
8
BLACK
6
CONTINUOUS
10
1.0964279921259843
20
1.1573845669291338
11
1.0962239763779527
21
1.1575023622047245
0
LINE
8
BLACK
6
CONTINUOUS
10
1.0962239763779527
20
1.1575023622047245
11
1.0959884645669291
21
1.1574974803149607
0
LINE
8
BLACK
6
CONTINUOUS
10
1.0959884645669291
20
1.1574974803149607
11
1.0953681496062992
21
1.157996496062992
0
LINE
8
BLACK
6
CONTINUOUS
10
1.0953681496062992
20
1.157996496062992
11
1.0946788188976377
21
1.1583944881889763
0
LINE
8
BLACK
6
CONTINUOUS
10
1.0946788188976377
20
1.1583944881889763
11
1.0945982283464566
21
1.1586158661417323
0
LINE
8
BLACK
6
CONTINUOUS
10
1.0945982283464566
20
1.1586158661417323
11
1.0944146850393701
21
1.1587635039370079
0
LINE
8
BLACK
6
CONTINUOUS
10
1.0944146850393701
20
1.1587635039370079
11
1.0942602362204725
21
1.1595444881889763
0
LINE
8
BLACK
6
CONTINUOUS
10
1.0942602362204725
20
1.1595444881889763
11
1.0939879921259843
21
1.1602924803149606
0
LINE
8
BLACK
6
CONTINUOUS
10
1.0939879921259843
20
1.1602924803149606
11
1.0939879921259843
21
1.1797900393700786
0
LINE
8
BLACK
6
CONTINUOUS
10
1.0939879921259843
20
1.1797900393700786
11
1.0941660629921259
21
1.1807999606299213
0
LINE
8
BLACK
6
CONTINUOUS
10
1.0941660629921259
20
1.1807999606299213
11
1.0954643700787401
21
1.1823472047244095
0
LINE
8
BLACK
6
CONTINUOUS
10
1.0954643700787401
20
1.1823472047244095
11
1.0974535039370079
21
1.1826979527559054
0
LINE
8
BLACK
6
CONTINUOUS
10
1.0974535039370079
20
1.1826979527559054
11
1.0992026771653542
21
1.1816880314960629
0
LINE
8
BLACK
6
CONTINUOUS
10
1.0992026771653542
20
1.1816880314960629
11
1.0998935039370079
21
1.1797900393700786
0
LINE
8
BLACK
6
CONTINUOUS
10
1.0998935039370079
20
1.1797900393700786
11
1.0998935039370079
21
1.16679968503937
0
LINE
8
BLACK
6
CONTINUOUS
10
1.0998935039370079
20
1.16679968503937
11
1.1069948818897637
21
1.173013346456693
0
LINE
8
BLACK
6
CONTINUOUS
10
1.1069948818897637
20
1.173013346456693
11
1.1073747244094487
21
1.1732433070866142
0
LINE
8
BLACK
6
CONTINUOUS
10
1.1073747244094487
20
1.1732433070866142
11
1.1074628740157479
21
1.1733483070866142
0
LINE
8
BLACK
6
CONTINUOUS
10
1.1074628740157479
20
1.1733483070866142
11
1.1075833464566929
21
1.1733695669291337
0
LINE
8
BLACK
6
CONTINUOUS
10
1.1075833464566929
20
1.1733695669291337
11
1.1078721653543306
21
1.1735443700787402
0
LINE
8
BLACK
6
CONTINUOUS
10
1.1078721653543306
20
1.1735443700787402
11
1.1086681102362204
21
1.1735608661417323
0
LINE
8
BLACK
6
CONTINUOUS
10
1.1086681102362204
20
1.1735608661417323
11
1.1094520078740158
21
1.1736990551181101
0
LINE
8
BLACK
6
CONTINUOUS
10
1.1094520078740158
20
1.1736990551181101
11
1.1096559842519684
21
1.1735812992125985
0
LINE
8
BLACK
6
CONTINUOUS
10
1.1096559842519684
20
1.1735812992125985
11
1.1098915354330707
21
1.1735861417322835
0
LINE
8
BLACK
6
CONTINUOUS
10
1.1098915354330707
20
1.1735861417322835
11
1.1105118897637796
21
1.1730871259842519
0
LINE
8
BLACK
6
CONTINUOUS
10
1.1105118897637796
20
1.1730871259842519
11
1.1112011811023621
21
1.1726891338582677
0
LINE
8
BLACK
6
CONTINUOUS
10
1.1112011811023621
20
1.1726891338582677
11
1.1112816929133857
21
1.1724678346456692
0
LINE
8
BLACK
6
CONTINUOUS
10
1.1112816929133857
20
1.1724678346456692
11
1.1114653543307087
21
1.1723201181102363
0
LINE
8
BLACK
6
CONTINUOUS
10
1.1114653543307087
20
1.1723201181102363
11
1.1116197637795275
21
1.1715390551181102
0
LINE
8
BLACK
6
CONTINUOUS
10
1.1116197637795275
20
1.1715390551181102
11
1.1118920078740158
21
1.1707911417322834
0
LINE
8
BLACK
6
CONTINUOUS
10
1.1118920078740158
20
1.1707911417322834
11
1.1118920078740158
21
1.1669887795275591
0
LINE
8
BLACK
6
CONTINUOUS
10
1.1118920078740158
20
1.1669887795275591
11
1.1128657874015748
21
1.1650411811023622
0
LINE
8
BLACK
6
CONTINUOUS
10
1.1128657874015748
20
1.1650411811023622
11
1.1136879133858268
21
1.1642190551181102
0
LINE
8
BLACK
6
CONTINUOUS
10
1.1136879133858268
20
1.1642190551181102
11
1.1156355511811022
21
1.1632452362204724
0
LINE
8
BLACK
6
CONTINUOUS
10
1.1156355511811022
20
1.1632452362204724
11
1.1217405118110235
21
1.1632452362204724
0
LINE
8
BLACK
6
CONTINUOUS
10
1.1217405118110235
20
1.1632452362204724
11
1.1236880708661416
21
1.1642190551181102
0
LINE
8
BLACK
6
CONTINUOUS
10
1.1236880708661416
20
1.1642190551181102
11
1.1245102755905512
21
1.165041220472441
0
LINE
8
BLACK
6
CONTINUOUS
10
1.1245102755905512
20
1.165041220472441
11
1.1254840551181102
21
1.1669887795275591
0
LINE
8
BLACK
6
CONTINUOUS
10
1.1254840551181102
20
1.1669887795275591
11
1.1254840551181102
21
1.1745935826771654
0
LINE
8
BLACK
6
CONTINUOUS
10
1.1254840551181102
20
1.1745935826771654
11
1.1245102755905512
21
1.1765411417322835
0
LINE
8
BLACK
6
CONTINUOUS
10
1.1245102755905512
20
1.1765411417322835
11
1.1233492913385827
21
1.1777020866141732
0
LINE
8
BLACK
6
CONTINUOUS
10
1.1233492913385827
20
1.1777020866141732
11
1.1227610629921259
21
1.1785421259842519
0
LINE
8
BLACK
6
CONTINUOUS
10
1.1227610629921259
20
1.1785421259842519
11
1.1225849999999999
21
1.1805542519685039
0
LINE
8
BLACK
6
CONTINUOUS
10
1.1225849999999999
20
1.1805542519685039
11
1.1237435039370078
21
1.1822087795275591
0
LINE
8
BLACK
6
CONTINUOUS
10
1.1237435039370078
20
1.1822087795275591
11
1.1256944881889763
21
1.1827315354330707
0
LINE
8
BLACK
6
CONTINUOUS
10
1.1256944881889763
20
1.1827315354330707
11
1.1275250393700786
21
1.1818779921259843
0
LINE
8
BLACK
6
CONTINUOUS
10
0.716060905511811
20
1.1835020866141732
11
0.7176081496062992
21
1.1822037795275591
0
LINE
8
BLACK
6
CONTINUOUS
10
0.7176081496062992
20
1.1822037795275591
11
0.7179588976377953
21
1.1802146456692912
0
LINE
8
BLACK
6
CONTINUOUS
10
0.7179588976377953
20
1.1802146456692912
11
0.7169489763779527
21
1.1784654724409449
0
LINE
8
BLACK
6
CONTINUOUS
10
0.7169489763779527
20
1.1784654724409449
11
0.7150509842519684
21
1.1777746456692912
0
LINE
8
BLACK
6
CONTINUOUS
10
0.7150509842519684
20
1.1777746456692912
11
0.7030055905511811
21
1.1777746456692912
0
LINE
8
BLACK
6
CONTINUOUS
10
0.7030055905511811
20
1.1777746456692912
11
0.7030055905511811
21
1.1747657480314961
0
LINE
8
BLACK
6
CONTINUOUS
10
0.7030055905511811
20
1.1747657480314961
11
0.7167442519685039
21
1.1651486614173228
0
LINE
8
BLACK
6
CONTINUOUS
10
0.7167442519685039
20
1.1651486614173228
11
0.7174695275590551
21
1.1644236220472441
0
LINE
8
BLACK
6
CONTINUOUS
10
0.7174695275590551
20
1.1644236220472441
11
0.7179925196850393
21
1.1624727165354329
0
LINE
8
BLACK
6
CONTINUOUS
10
0.7179925196850393
20
1.1624727165354329
11
0.7171391732283464
21
1.1606420078740156
0
LINE
8
BLACK
6
CONTINUOUS
10
0.7171391732283464
20
1.1606420078740156
11
0.7153087401574802
21
1.1597881889763779
0
LINE
8
BLACK
6
CONTINUOUS
10
0.7153087401574802
20
1.1597881889763779
11
0.7133576771653544
21
1.1603106692913385
0
LINE
8
BLACK
6
CONTINUOUS
10
0.7133576771653544
20
1.1603106692913385
11
0.7028078346456693
21
1.1676955511811022
0
LINE
8
BLACK
6
CONTINUOUS
10
0.7028078346456693
20
1.1676955511811022
11
0.7027140157480315
21
1.1675837401574802
0
LINE
8
BLACK
6
CONTINUOUS
10
0.7027140157480315
20
1.1675837401574802
11
0.7026938582677165
21
1.1674083858267716
0
LINE
8
BLACK
6
CONTINUOUS
10
0.7026938582677165
20
1.1674083858267716
11
0.7011940551181102
21
1.1644087795275591
0
LINE
8
BLACK
6
CONTINUOUS
10
0.7011940551181102
20
1.1644087795275591
11
0.7006681496062992
21
1.1636997244094487
0
LINE
8
BLACK
6
CONTINUOUS
10
0.7006681496062992
20
1.1636997244094487
11
0.7006409448818898
21
1.1636413779527559
0
LINE
8
BLACK
6
CONTINUOUS
10
0.7006409448818898
20
1.1636413779527559
11
0.6991411417322835
21
1.1621415748031496
0
LINE
8
BLACK
6
CONTINUOUS
10
0.6991411417322835
20
1.1621415748031496
11
0.698418031496063
21
1.16163531496063
0
LINE
8
BLACK
6
CONTINUOUS
10
0.698418031496063
20
1.16163531496063
11
0.6983737401574803
21
1.1615884645669292
0
LINE
8
BLACK
6
CONTINUOUS
10
0.6983737401574803
20
1.1615884645669292
11
0.695374094488189
21
1.1600886220472442
0
LINE
8
BLACK
6
CONTINUOUS
10
0.695374094488189
20
1.1600886220472442
11
0.6943911811023622
21
1.1597962598425196
0
LINE
8
BLACK
6
CONTINUOUS
10
0.6943911811023622
20
1.1597962598425196
11
0.6942194488188976
21
1.1598372834645669
0
LINE
8
BLACK
6
CONTINUOUS
10
0.6942194488188976
20
1.1598372834645669
11
0.6940535826771653
21
1.1597768897637795
0
LINE
8
BLACK
6
CONTINUOUS
10
0.6940535826771653
20
1.1597768897637795
11
0.6895541732283464
21
1.1597768897637795
0
LINE
8
BLACK
6
CONTINUOUS
10
0.6895541732283464
20
1.1597768897637795
11
0.6885442519685039
21
1.1599549606299213
0
LINE
8
BLACK
6
CONTINUOUS
10
0.6885442519685039
20
1.1599549606299213
11
0.6884089763779527
21
1.160068464566929
0
LINE
8
BLACK
6
CONTINUOUS
10
0.6884089763779527
20
1.160068464566929
11
0.688233622047244
21
1.1600886220472442
0
LINE
8
BLACK
6
CONTINUOUS
10
0.688233622047244
20
1.1600886220472442
11
0.6852340157480314
21
1.1615884645669292
0
LINE
8
BLACK
6
CONTINUOUS
10
0.6852340157480314
20
1.1615884645669292
11
0.6845250787401574
21
1.1621143307086614
0
LINE
8
BLACK
6
CONTINUOUS
10
0.6845250787401574
20
1.1621143307086614
11
0.6844666141732283
21
1.1621415748031496
0
LINE
8
BLACK
6
CONTINUOUS
10
0.6844666141732283
20
1.1621415748031496
11
0.682966811023622
21
1.1636413779527559
0
LINE
8
BLACK
6
CONTINUOUS
10
0.682966811023622
20
1.1636413779527559
11
0.6824605118110236
21
1.1643644881889763
0
LINE
8
BLACK
6
CONTINUOUS
10
0.6824605118110236
20
1.1643644881889763
11
0.6824137007874016
21
1.1644087795275591
0
LINE
8
BLACK
6
CONTINUOUS
10
0.6824137007874016
20
1.1644087795275591
11
0.6809138976377953
21
1.1674083858267716
0
LINE
8
BLACK
6
CONTINUOUS
10
0.6809138976377953
20
1.1674083858267716
11
0.6806215354330708
21
1.1683913385826772
0
LINE
8
BLACK
6
CONTINUOUS
10
0.6806215354330708
20
1.1683913385826772
11
0.6806625196850393
21
1.1685630314960629
0
LINE
8
BLACK
6
CONTINUOUS
10
0.6806625196850393
20
1.1685630314960629
11
0.6806021653543307
21
1.1687288976377952
0
LINE
8
BLACK
6
CONTINUOUS
10
0.6806021653543307
20
1.1687288976377952
11
0.6806021653543307
21
1.180727401574803
0
LINE
8
BLACK
6
CONTINUOUS
10
0.6806021653543307
20
1.180727401574803
11
0.6806697637795276
21
1.1811109448818897
0
LINE
8
BLACK
6
CONTINUOUS
10
0.6806697637795276
20
1.1811109448818897
11
0.6806470078740158
21
1.1812401574803149
0
LINE
8
BLACK
6
CONTINUOUS
10
0.6806470078740158
20
1.1812401574803149
11
0.6807125984251968
21
1.181353779527559
0
LINE
8
BLACK
6
CONTINUOUS
10
0.6807125984251968
20
1.181353779527559
11
0.6807802362204725
21
1.1817373228346457
0
LINE
8
BLACK
6
CONTINUOUS
10
0.6807802362204725
20
1.1817373228346457
11
0.6812733464566929
21
1.1823250393700788
0
LINE
8
BLACK
6
CONTINUOUS
10
0.6812733464566929
20
1.1823250393700788
11
0.6816569291338582
21
1.1829893307086614
0
LINE
8
BLACK
6
CONTINUOUS
10
0.6816569291338582
20
1.1829893307086614
11
0.6819072440944882
21
1.1830804724409449
0
LINE
8
BLACK
6
CONTINUOUS
10
0.6819072440944882
20
1.1830804724409449
11
0.6820785433070866
21
1.1832845669291339
0
LINE
8
BLACK
6
CONTINUOUS
10
0.6820785433070866
20
1.1832845669291339
11
0.682834094488189
21
1.1834178346456692
0
LINE
8
BLACK
6
CONTINUOUS
10
0.682834094488189
20
1.1834178346456692
11
0.6835549212598425
21
1.1836801574803149
0
LINE
8
BLACK
6
CONTINUOUS
10
0.6835549212598425
20
1.1836801574803149
11
0.7150509842519684
21
1.1836801574803149
0
LINE
8
BLACK
6
CONTINUOUS
10
0.7150509842519684
20
1.1836801574803149
11
0.716060905511811
21
1.1835020866141732
0
LINE
8
BLACK
6
CONTINUOUS
10
0.6865076771653543
20
1.1694259448818898
11
0.6874814566929134
21
1.1674783858267717
0
LINE
8
BLACK
6
CONTINUOUS
10
0.6874814566929134
20
1.1674783858267717
11
0.688303622047244
21
1.1666562204724409
0
LINE
8
BLACK
6
CONTINUOUS
10
0.688303622047244
20
1.1666562204724409
11
0.6902512204724409
21
1.1656824015748031
0
LINE
8
BLACK
6
CONTINUOUS
10
0.6902512204724409
20
1.1656824015748031
11
0.6933565354330709
21
1.1656824015748031
0
LINE
8
BLACK
6
CONTINUOUS
10
0.6933565354330709
20
1.1656824015748031
11
0.6953041338582677
21
1.1666562598425196
0
LINE
8
BLACK
6
CONTINUOUS
10
0.6953041338582677
20
1.1666562598425196
11
0.6961262992125984
21
1.1674783858267717
0
LINE
8
BLACK
6
CONTINUOUS
10
0.6961262992125984
20
1.1674783858267717
11
0.6971000787401574
21
1.1694259448818898
0
LINE
8
BLACK
6
CONTINUOUS
10
0.6971000787401574
20
1.1694259448818898
11
0.6971000787401574
21
1.1777746456692912
0
LINE
8
BLACK
6
CONTINUOUS
10
0.6971000787401574
20
1.1777746456692912
11
0.6865076771653543
21
1.1777746456692912
0
LINE
8
BLACK
6
CONTINUOUS
10
0.6865076771653543
20
1.1777746456692912
11
0.6865076771653543
21
1.1694259448818898
0
LINE
8
BLACK
6
CONTINUOUS
10
0.5199774015748031
20
1.1922043307086614
11
0.5206692913385826
21
1.1905340157480315
0
LINE
8
BLACK
6
CONTINUOUS
10
0.5206692913385826
20
1.1905340157480315
11
0.5206692913385826
21
1.1726549606299213
0
LINE
8
BLACK
6
CONTINUOUS
10
0.5206692913385826
20
1.1726549606299213
11
0.5199774015748031
21
1.1709846456692914
0
LINE
8
BLACK
6
CONTINUOUS
10
0.5199774015748031
20
1.1709846456692914
11
0.5183070866141732
21
1.1702927559055119
0
LINE
8
BLACK
6
CONTINUOUS
10
0.5183070866141732
20
1.1702927559055119
11
0.5166367716535433
21
1.1709846456692914
0
LINE
8
BLACK
6
CONTINUOUS
10
0.5166367716535433
20
1.1709846456692914
11
0.5159448818897637
21
1.1726549606299213
0
LINE
8
BLACK
6
CONTINUOUS
10
0.5159448818897637
20
1.1726549606299213
11
0.5159448818897637
21
1.1905340157480315
0
LINE
8
BLACK
6
CONTINUOUS
10
0.5159448818897637
20
1.1905340157480315
11
0.5166367716535433
21
1.1922043307086614
0
LINE
8
BLACK
6
CONTINUOUS
10
0.5166367716535433
20
1.1922043307086614
11
0.5183070866141732
21
1.1928962204724409
0
LINE
8
BLACK
6
CONTINUOUS
10
0.5183070866141732
20
1.1928962204724409
11
0.5199774015748031
21
1.1922043307086614
0
LINE
8
BLACK
6
CONTINUOUS
10
0.5778514173228346
20
1.1922043307086614
11
0.5785433070866142
21
1.1905340157480315
0
LINE
8
BLACK
6
CONTINUOUS
10
0.5785433070866142
20
1.1905340157480315
11
0.5785433070866142
21
1.1726549606299213
0
LINE
8
BLACK
6
CONTINUOUS
10
0.5785433070866142
20
1.1726549606299213
11
0.5778514173228346
21
1.1709846456692914
0
LINE
8
BLACK
6
CONTINUOUS
10
0.5778514173228346
20
1.1709846456692914
11
0.5761811023622048
21
1.1702927559055119
0
LINE
8
BLACK
6
CONTINUOUS
10
0.5761811023622048
20
1.1702927559055119
11
0.5745107874015748
21
1.1709846456692914
0
LINE
8
BLACK
6
CONTINUOUS
10
0.5745107874015748
20
1.1709846456692914
11
0.5738188976377953
21
1.1726549606299213
0
LINE
8
BLACK
6
CONTINUOUS
10
0.5738188976377953
20
1.1726549606299213
11
0.5738188976377953
21
1.1905340157480315
0
LINE
8
BLACK
6
CONTINUOUS
10
0.5738188976377953
20
1.1905340157480315
11
0.5745107874015748
21
1.1922043307086614
0
LINE
8
BLACK
6
CONTINUOUS
10
0.5745107874015748
20
1.1922043307086614
11
0.5761811023622048
21
1.1928962204724409
0
LINE
8
BLACK
6
CONTINUOUS
10
0.5761811023622048
20
1.1928962204724409
11
0.5778514173228346
21
1.1922043307086614
0
LINE
8
BLACK
6
CONTINUOUS
10
0.5073994881889764
20
1.2076162598425197
11
0.5089467322834645
21
1.2063179527559056
0
LINE
8
BLACK
6
CONTINUOUS
10
0.5089467322834645
20
1.2063179527559056
11
0.5092974803149606
21
1.2043288188976378
0
LINE
8
BLACK
6
CONTINUOUS
10
0.5092974803149606
20
1.2043288188976378
11
0.5082875590551181
21
1.2025796456692912
0
LINE
8
BLACK
6
CONTINUOUS
10
0.5082875590551181
20
1.2025796456692912
11
0.5063895669291338
21
1.2018888188976378
0
LINE
8
BLACK
6
CONTINUOUS
10
0.5063895669291338
20
1.2018888188976378
11
0.4943441732283465
21
1.2018888188976378
0
LINE
8
BLACK
6
CONTINUOUS
10
0.4943441732283465
20
1.2018888188976378
11
0.4943441732283465
21
1.1988799212598424
0
LINE
8
BLACK
6
CONTINUOUS
10
0.4943441732283465
20
1.1988799212598424
11
0.5080828346456693
21
1.1892628346456693
0
LINE
8
BLACK
6
CONTINUOUS
10
0.5080828346456693
20
1.1892628346456693
11
0.5088081102362204
21
1.1885377952755904
0
LINE
8
BLACK
6
CONTINUOUS
10
0.5088081102362204
20
1.1885377952755904
11
0.5093311023622047
21
1.1865868897637795
0
LINE
8
BLACK
6
CONTINUOUS
10
0.5093311023622047
20
1.1865868897637795
11
0.5084777559055118
21
1.1847561811023621
0
LINE
8
BLACK
6
CONTINUOUS
10
0.5084777559055118
20
1.1847561811023621
11
0.5066473228346456
21
1.1839023622047244
0
LINE
8
BLACK
6
CONTINUOUS
10
0.5066473228346456
20
1.1839023622047244
11
0.5046962598425196
21
1.1844248425196851
0
LINE
8
BLACK
6
CONTINUOUS
10
0.5046962598425196
20
1.1844248425196851
11
0.4941464173228347
21
1.1918097244094488
0
LINE
8
BLACK
6
CONTINUOUS
10
0.4941464173228347
20
1.1918097244094488
11
0.4940525984251968
21
1.1916979133858268
0
LINE
8
BLACK
6
CONTINUOUS
10
0.4940525984251968
20
1.1916979133858268
11
0.4940324409448819
21
1.1915225590551182
0
LINE
8
BLACK
6
CONTINUOUS
10
0.4940324409448819
20
1.1915225590551182
11
0.4925326377952756
21
1.1885229527559056
0
LINE
8
BLACK
6
CONTINUOUS
10
0.4925326377952756
20
1.1885229527559056
11
0.4920067322834645
21
1.1878138976377952
0
LINE
8
BLACK
6
CONTINUOUS
10
0.4920067322834645
20
1.1878138976377952
11
0.4919795275590551
21
1.1877555511811024
0
LINE
8
BLACK
6
CONTINUOUS
10
0.4919795275590551
20
1.1877555511811024
11
0.4904797244094488
21
1.1862557480314961
0
LINE
8
BLACK
6
CONTINUOUS
10
0.4904797244094488
20
1.1862557480314961
11
0.4897566141732284
21
1.1857494881889763
0
LINE
8
BLACK
6
CONTINUOUS
10
0.4897566141732284
20
1.1857494881889763
11
0.4897123228346457
21
1.1857026377952755
0
LINE
8
BLACK
6
CONTINUOUS
10
0.4897123228346457
20
1.1857026377952755
11
0.4867126771653543
21
1.1842027952755905
0
LINE
8
BLACK
6
CONTINUOUS
10
0.4867126771653543
20
1.1842027952755905
11
0.4857297637795275
21
1.1839104330708661
0
LINE
8
BLACK
6
CONTINUOUS
10
0.4857297637795275
20
1.1839104330708661
11
0.485558031496063
21
1.1839514566929135
0
LINE
8
BLACK
6
CONTINUOUS
10
0.485558031496063
20
1.1839514566929135
11
0.4853921653543307
21
1.183891062992126
0
LINE
8
BLACK
6
CONTINUOUS
10
0.4853921653543307
20
1.183891062992126
11
0.4808927559055118
21
1.183891062992126
0
LINE
8
BLACK
6
CONTINUOUS
10
0.4808927559055118
20
1.183891062992126
11
0.4798828346456693
21
1.1840691338582676
0
LINE
8
BLACK
6
CONTINUOUS
10
0.4798828346456693
20
1.1840691338582676
11
0.4797475590551181
21
1.1841826377952756
0
LINE
8
BLACK
6
CONTINUOUS
10
0.4797475590551181
20
1.1841826377952756
11
0.4795722047244094
21
1.1842027952755905
0
LINE
8
BLACK
6
CONTINUOUS
10
0.4795722047244094
20
1.1842027952755905
11
0.4765725984251968
21
1.1857026377952755
0
LINE
8
BLACK
6
CONTINUOUS
10
0.4765725984251968
20
1.1857026377952755
11
0.4758636614173228
21
1.1862285039370077
0
LINE
8
BLACK
6
CONTINUOUS
10
0.4758636614173228
20
1.1862285039370077
11
0.4758051968503937
21
1.1862557480314961
0
LINE
8
BLACK
6
CONTINUOUS
10
0.4758051968503937
20
1.1862557480314961
11
0.4743053937007874
21
1.1877555511811024
0
LINE
8
BLACK
6
CONTINUOUS
10
0.4743053937007874
20
1.1877555511811024
11
0.473799094488189
21
1.1884786614173228
0
LINE
8
BLACK
6
CONTINUOUS
10
0.473799094488189
20
1.1884786614173228
11
0.4737522834645669
21
1.1885229527559056
0
LINE
8
BLACK
6
CONTINUOUS
10
0.4737522834645669
20
1.1885229527559056
11
0.4722524803149606
21
1.1915225590551182
0
LINE
8
BLACK
6
CONTINUOUS
10
0.4722524803149606
20
1.1915225590551182
11
0.4719601181102362
21
1.1925055118110235
0
LINE
8
BLACK
6
CONTINUOUS
10
0.4719601181102362
20
1.1925055118110235
11
0.4720011023622047
21
1.1926772047244094
0
LINE
8
BLACK
6
CONTINUOUS
10
0.4720011023622047
20
1.1926772047244094
11
0.471940748031496
21
1.1928430708661417
0
LINE
8
BLACK
6
CONTINUOUS
10
0.471940748031496
20
1.1928430708661417
11
0.471940748031496
21
1.2048415748031496
0
LINE
8
BLACK
6
CONTINUOUS
10
0.471940748031496
20
1.2048415748031496
11
0.4720083464566929
21
1.2052251181102362
0
LINE
8
BLACK
6
CONTINUOUS
10
0.4720083464566929
20
1.2052251181102362
11
0.4719855905511811
21
1.2053543307086614
0
LINE
8
BLACK
6
CONTINUOUS
10
0.4719855905511811
20
1.2053543307086614
11
0.4720511811023622
21
1.2054679527559056
0
LINE
8
BLACK
6
CONTINUOUS
10
0.4720511811023622
20
1.2054679527559056
11
0.4721188188976378
21
1.205851496062992
0
LINE
8
BLACK
6
CONTINUOUS
10
0.4721188188976378
20
1.205851496062992
11
0.4726119291338582
21
1.2064392125984251
0
LINE
8
BLACK
6
CONTINUOUS
10
0.4726119291338582
20
1.2064392125984251
11
0.4729955118110236
21
1.2071035039370079
0
LINE
8
BLACK
6
CONTINUOUS
10
0.4729955118110236
20
1.2071035039370079
11
0.4732458267716536
21
1.2071946456692912
0
LINE
8
BLACK
6
CONTINUOUS
10
0.4732458267716536
20
1.2071946456692912
11
0.473417125984252
21
1.2073987401574804
0
LINE
8
BLACK
6
CONTINUOUS
10
0.473417125984252
20
1.2073987401574804
11
0.4741726771653543
21
1.2075320078740157
0
LINE
8
BLACK
6
CONTINUOUS
10
0.4741726771653543
20
1.2075320078740157
11
0.4748935039370079
21
1.2077943307086614
0
LINE
8
BLACK
6
CONTINUOUS
10
0.4748935039370079
20
1.2077943307086614
11
0.5063895669291338
21
1.2077943307086614
0
LINE
8
BLACK
6
CONTINUOUS
10
0.5063895669291338
20
1.2077943307086614
11
0.5073994881889764
21
1.2076162598425197
0
LINE
8
BLACK
6
CONTINUOUS
10
0.4778462598425197
20
1.1935401181102363
11
0.4788200393700787
21
1.1915925590551182
0
LINE
8
BLACK
6
CONTINUOUS
10
0.4788200393700787
20
1.1915925590551182
11
0.4796422047244094
21
1.1907703937007874
0
LINE
8
BLACK
6
CONTINUOUS
10
0.4796422047244094
20
1.1907703937007874
11
0.4815898031496063
21
1.1897965748031496
0
LINE
8
BLACK
6
CONTINUOUS
10
0.4815898031496063
20
1.1897965748031496
11
0.4846951181102362
21
1.1897965748031496
0
LINE
8
BLACK
6
CONTINUOUS
10
0.4846951181102362
20
1.1897965748031496
11
0.4866427165354331
21
1.1907704330708662
0
LINE
8
BLACK
6
CONTINUOUS
10
0.4866427165354331
20
1.1907704330708662
11
0.4874648818897638
21
1.1915925590551182
0
LINE
8
BLACK
6
CONTINUOUS
10
0.4874648818897638
20
1.1915925590551182
11
0.4884386614173228
21
1.1935401181102363
0
LINE
8
BLACK
6
CONTINUOUS
10
0.4884386614173228
20
1.1935401181102363
11
0.4884386614173228
21
1.2018888188976378
0
LINE
8
BLACK
6
CONTINUOUS
10
0.4884386614173228
20
1.2018888188976378
11
0.4778462598425197
21
1.2018888188976378
0
LINE
8
BLACK
6
CONTINUOUS
10
0.4778462598425197
20
1.2018888188976378
11
0.4778462598425197
21
1.1935401181102363
0
LINE
8
BLACK
6
CONTINUOUS
10
1.12882031496063
20
1.2111716141732283
11
1.1289495669291338
21
1.2111943700787402
0
LINE
8
BLACK
6
CONTINUOUS
10
1.1289495669291338
20
1.2111943700787402
11
1.1290631496062993
21
1.2111287795275589
0
LINE
8
BLACK
6
CONTINUOUS
10
1.1290631496062993
20
1.2111287795275589
11
1.1294467322834645
21
1.2110611417322834
0
LINE
8
BLACK
6
CONTINUOUS
10
1.1294467322834645
20
1.2110611417322834
11
1.1300344094488188
21
1.210568031496063
0
LINE
8
BLACK
6
CONTINUOUS
10
1.1300344094488188
20
1.210568031496063
11
1.1306987401574804
21
1.2101844488188975
0
LINE
8
BLACK
6
CONTINUOUS
10
1.1306987401574804
20
1.2101844488188975
11
1.130789842519685
21
1.2099341338582676
0
LINE
8
BLACK
6
CONTINUOUS
10
1.130789842519685
20
1.2099341338582676
11
1.1309939763779526
21
1.2097628346456692
0
LINE
8
BLACK
6
CONTINUOUS
10
1.1309939763779526
20
1.2097628346456692
11
1.1311272047244094
21
1.2090072834645669
0
LINE
8
BLACK
6
CONTINUOUS
10
1.1311272047244094
20
1.2090072834645669
11
1.1313895669291338
21
1.2082864566929135
0
LINE
8
BLACK
6
CONTINUOUS
10
1.1313895669291338
20
1.2082864566929135
11
1.1313895669291338
21
1.200787401574803
0
LINE
8
BLACK
6
CONTINUOUS
10
1.1313895669291338
20
1.200787401574803
11
1.1312362598425196
21
1.1999180314960629
0
LINE
8
BLACK
6
CONTINUOUS
10
1.1312362598425196
20
1.1999180314960629
11
1.1312380314960631
21
1.1998536614173227
0
LINE
8
BLACK
6
CONTINUOUS
10
1.1312380314960631
20
1.1998536614173227
11
1.1297382283464568
21
1.1953542125984251
0
LINE
8
BLACK
6
CONTINUOUS
10
1.1297382283464568
20
1.1953542125984251
11
1.1292499606299213
21
1.1944524409448818
0
LINE
8
BLACK
6
CONTINUOUS
10
1.1292499606299213
20
1.1944524409448818
11
1.1290994881889764
21
1.1943600393700786
0
LINE
8
BLACK
6
CONTINUOUS
10
1.1290994881889764
20
1.1943600393700786
11
1.1290249212598424
21
1.1942000393700787
0
LINE
8
BLACK
6
CONTINUOUS
10
1.1290249212598424
20
1.1942000393700787
11
1.1260252755905511
21
1.1912004330708661
0
LINE
8
BLACK
6
CONTINUOUS
10
1.1260252755905511
20
1.1912004330708661
11
1.1253020866141732
21
1.1906940551181102
0
LINE
8
BLACK
6
CONTINUOUS
10
1.1253020866141732
20
1.1906940551181102
11
1.1252578740157479
21
1.1906473228346457
0
LINE
8
BLACK
6
CONTINUOUS
10
1.1252578740157479
20
1.1906473228346457
11
1.1222582677165354
21
1.1891475196850394
0
LINE
8
BLACK
6
CONTINUOUS
10
1.1222582677165354
20
1.1891475196850394
11
1.1217698818897637
21
1.1890022834645668
0
LINE
8
BLACK
6
CONTINUOUS
10
1.1217698818897637
20
1.1890022834645668
11
1.121653937007874
21
1.1889239370078739
0
LINE
8
BLACK
6
CONTINUOUS
10
1.121653937007874
20
1.1889239370078739
11
1.11565468503937
21
1.1874240944881889
0
LINE
8
BLACK
6
CONTINUOUS
10
1.11565468503937
20
1.1874240944881889
11
1.1150667322834646
21
1.1873826377952756
0
LINE
8
BLACK
6
CONTINUOUS
10
1.1150667322834646
20
1.1873826377952756
11
1.1149385039370079
21
1.1873359448818896
0
LINE
8
BLACK
6
CONTINUOUS
10
1.1149385039370079
20
1.1873359448818896
11
1.1104390551181103
21
1.1873359448818896
0
LINE
8
BLACK
6
CONTINUOUS
10
1.1104390551181103
20
1.1873359448818896
11
1.1098586614173227
21
1.1874383070866141
0
LINE
8
BLACK
6
CONTINUOUS
10
1.1098586614173227
20
1.1874383070866141
11
1.1097229133858268
21
1.1874240944881889
0
LINE
8
BLACK
6
CONTINUOUS
10
1.1097229133858268
20
1.1874240944881889
11
1.1037236220472442
21
1.1889239370078739
0
LINE
8
BLACK
6
CONTINUOUS
10
1.1037236220472442
20
1.1889239370078739
11
1.1032581102362204
21
1.1891315748031497
0
LINE
8
BLACK
6
CONTINUOUS
10
1.1032581102362204
20
1.1891315748031497
11
1.1031192913385826
21
1.1891475196850394
0
LINE
8
BLACK
6
CONTINUOUS
10
1.1031192913385826
20
1.1891475196850394
11
1.1001196456692912
21
1.1906473228346457
0
LINE
8
BLACK
6
CONTINUOUS
10
1.1001196456692912
20
1.1906473228346457
11
1.0994105511811023
21
1.1911732677165354
0
LINE
8
BLACK
6
CONTINUOUS
10
1.0994105511811023
20
1.1911732677165354
11
1.0993522440944881
21
1.1912004330708661
0
LINE
8
BLACK
6
CONTINUOUS
10
1.0993522440944881
20
1.1912004330708661
11
1.0963526377952755
21
1.1942000393700787
0
LINE
8
BLACK
6
CONTINUOUS
10
1.0963526377952755
20
1.1942000393700787
11
1.0957644488188976
21
1.1950400787401574
0
LINE
8
BLACK
6
CONTINUOUS
10
1.0957644488188976
20
1.1950400787401574
11
1.0957490551181102
21
1.1952159448818898
0
LINE
8
BLACK
6
CONTINUOUS
10
1.0957490551181102
20
1.1952159448818898
11
1.0956393307086614
21
1.1953542125984251
0
LINE
8
BLACK
6
CONTINUOUS
10
1.0956393307086614
20
1.1953542125984251
11
1.0941395275590551
21
1.1998536614173227
0
LINE
8
BLACK
6
CONTINUOUS
10
1.0941395275590551
20
1.1998536614173227
11
1.0940100393700787
21
1.2007268503937008
0
LINE
8
BLACK
6
CONTINUOUS
10
1.0940100393700787
20
1.2007268503937008
11
1.0939879921259843
21
1.200787401574803
0
LINE
8
BLACK
6
CONTINUOUS
10
1.0939879921259843
20
1.200787401574803
11
1.0939879921259843
21
1.2082864566929135
0
LINE
8
BLACK
6
CONTINUOUS
10
1.0939879921259843
20
1.2082864566929135
11
1.0940555905511811
21
1.2086699999999999
0
LINE
8
BLACK
6
CONTINUOUS
10
1.0940555905511811
20
1.2086699999999999
11
1.0940328346456694
21
1.2087992125984253
0
LINE
8
BLACK
6
CONTINUOUS
10
1.0940328346456694
20
1.2087992125984253
11
1.0940984251968504
21
1.2089128346456692
0
LINE
8
BLACK
6
CONTINUOUS
10
1.0940984251968504
20
1.2089128346456692
11
1.0941660629921259
21
1.2092963779527559
0
LINE
8
BLACK
6
CONTINUOUS
10
1.0941660629921259
20
1.2092963779527559
11
1.0946591732283464
21
1.209884094488189
0
LINE
8
BLACK
6
CONTINUOUS
10
1.0946591732283464
20
1.209884094488189
11
1.0950427559055118
21
1.2105483858267716
0
LINE
8
BLACK
6
CONTINUOUS
10
1.0950427559055118
20
1.2105483858267716
11
1.0952930708661417
21
1.2106395275590551
0
LINE
8
BLACK
6
CONTINUOUS
10
1.0952930708661417
20
1.2106395275590551
11
1.0954643700787401
21
1.2108436220472441
0
LINE
8
BLACK
6
CONTINUOUS
10
1.0954643700787401
20
1.2108436220472441
11
1.0962199212598425
21
1.2109768897637796
0
LINE
8
BLACK
6
CONTINUOUS
10
1.0962199212598425
20
1.2109768897637796
11
1.0969407480314961
21
1.2112392125984253
0
LINE
8
BLACK
6
CONTINUOUS
10
1.0969407480314961
20
1.2112392125984253
11
1.128436811023622
21
1.2112392125984253
0
LINE
8
BLACK
6
CONTINUOUS
10
1.128436811023622
20
1.2112392125984253
11
1.12882031496063
21
1.2111716141732283
0
LINE
8
BLACK
6
CONTINUOUS
10
1.0998935039370079
20
1.2012665354330709
11
1.101021338582677
21
1.1978829921259841
0
LINE
8
BLACK
6
CONTINUOUS
10
1.101021338582677
20
1.1978829921259841
11
1.1031892125984251
21
1.1957151181102361
0
LINE
8
BLACK
6
CONTINUOUS
10
1.1031892125984251
20
1.1957151181102361
11
1.1054702755905512
21
1.1945745669291339
0
LINE
8
BLACK
6
CONTINUOUS
10
1.1054702755905512
20
1.1945745669291339
11
1.1108026377952755
21
1.1932414566929133
0
LINE
8
BLACK
6
CONTINUOUS
10
1.1108026377952755
20
1.1932414566929133
11
1.1145749212598426
21
1.1932414566929133
0
LINE
8
BLACK
6
CONTINUOUS
10
1.1145749212598426
20
1.1932414566929133
11
1.1199071653543307
21
1.1945745669291339
0
LINE
8
BLACK
6
CONTINUOUS
10
1.1199071653543307
20
1.1945745669291339
11
1.1221882677165353
21
1.1957151181102361
0
LINE
8
BLACK
6
CONTINUOUS
10
1.1221882677165353
20
1.1957151181102361
11
1.1243562204724409
21
1.1978830314960629
0
LINE
8
BLACK
6
CONTINUOUS
10
1.1243562204724409
20
1.1978830314960629
11
1.1254840551181102
21
1.2012665354330709
0
LINE
8
BLACK
6
CONTINUOUS
10
1.1254840551181102
20
1.2012665354330709
11
1.1254840551181102
21
1.2053337007874017
0
LINE
8
BLACK
6
CONTINUOUS
10
1.1254840551181102
20
1.2053337007874017
11
1.0998935039370079
21
1.2053337007874017
0
LINE
8
BLACK
6
CONTINUOUS
10
1.0998935039370079
20
1.2053337007874017
11
1.0998935039370079
21
1.2012665354330709
0
LINE
8
BLACK
6
CONTINUOUS
10
0.6641531496062992
20
1.1932057480314959
11
0.6648450393700788
21
1.1915354330708661
0
LINE
8
BLACK
6
CONTINUOUS
10
0.6648450393700788
20
1.1915354330708661
11
0.6641531496062992
21
1.1898651181102362
0
LINE
8
BLACK
6
CONTINUOUS
10
0.6641531496062992
20
1.1898651181102362
11
0.6624828346456693
21
1.1891732283464567
0
LINE
8
BLACK
6
CONTINUOUS
10
0.6624828346456693
20
1.1891732283464567
11
0.6446037795275591
21
1.1891732283464567
0
LINE
8
BLACK
6
CONTINUOUS
10
0.6446037795275591
20
1.1891732283464567
11
0.6429334645669291
21
1.1898651181102362
0
LINE
8
BLACK
6
CONTINUOUS
10
0.6429334645669291
20
1.1898651181102362
11
0.6422415748031496
21
1.1915354330708661
0
LINE
8
BLACK
6
CONTINUOUS
10
0.6422415748031496
20
1.1915354330708661
11
0.6429334645669291
21
1.1932057480314959
0
LINE
8
BLACK
6
CONTINUOUS
10
0.6429334645669291
20
1.1932057480314959
11
0.6446037795275591
21
1.1938976377952755
0
LINE
8
BLACK
6
CONTINUOUS
10
0.6446037795275591
20
1.1938976377952755
11
0.6624828346456693
21
1.1938976377952755
0
LINE
8
BLACK
6
CONTINUOUS
10
0.6624828346456693
20
1.1938976377952755
11
0.6641531496062992
21
1.1932057480314959
0
LINE
8
BLACK
6
CONTINUOUS
10
0.7325758267716536
20
1.215334251968504
11
0.7332677165354331
21
1.2136639370078739
0
LINE
8
BLACK
6
CONTINUOUS
10
0.7332677165354331
20
1.2136639370078739
11
0.7332677165354331
21
1.1957848818897638
0
LINE
8
BLACK
6
CONTINUOUS
10
0.7332677165354331
20
1.1957848818897638
11
0.7325758267716536
21
1.1941145669291338
0
LINE
8
BLACK
6
CONTINUOUS
10
0.7325758267716536
20
1.1941145669291338
11
0.7309055118110236
21
1.1934226771653542
0
LINE
8
BLACK
6
CONTINUOUS
10
0.7309055118110236
20
1.1934226771653542
11
0.7292351968503937
21
1.1941145669291338
0
LINE
8
BLACK
6
CONTINUOUS
10
0.7292351968503937
20
1.1941145669291338
11
0.7285433070866142
21
1.1957848818897638
0
LINE
8
BLACK
6
CONTINUOUS
10
0.7285433070866142
20
1.1957848818897638
11
0.7285433070866142
21
1.2136639370078739
0
LINE
8
BLACK
6
CONTINUOUS
10
0.7285433070866142
20
1.2136639370078739
11
0.7292351968503937
21
1.215334251968504
0
LINE
8
BLACK
6
CONTINUOUS
10
0.7292351968503937
20
1.215334251968504
11
0.7309055118110236
21
1.2160261417322835
0
LINE
8
BLACK
6
CONTINUOUS
10
0.7309055118110236
20
1.2160261417322835
11
0.7325758267716536
21
1.215334251968504
0
LINE
8
BLACK
6
CONTINUOUS
10
0.790449842519685
20
1.215334251968504
11
0.7911417322834645
21
1.2136639370078739
0
LINE
8
BLACK
6
CONTINUOUS
10
0.7911417322834645
20
1.2136639370078739
11
0.7911417322834645
21
1.1957848818897638
0
LINE
8
BLACK
6
CONTINUOUS
10
0.7911417322834645
20
1.1957848818897638
11
0.790449842519685
21
1.1941145669291338
0
LINE
8
BLACK
6
CONTINUOUS
10
0.790449842519685
20
1.1941145669291338
11
0.7887795275590551
21
1.1934226771653542
0
LINE
8
BLACK
6
CONTINUOUS
10
0.7887795275590551
20
1.1934226771653542
11
0.7871092125984251
21
1.1941145669291338
0
LINE
8
BLACK
6
CONTINUOUS
10
0.7871092125984251
20
1.1941145669291338
11
0.7864173228346456
21
1.1957848818897638
0
LINE
8
BLACK
6
CONTINUOUS
10
0.7864173228346456
20
1.1957848818897638
11
0.7864173228346456
21
1.2136639370078739
0
LINE
8
BLACK
6
CONTINUOUS
10
0.7864173228346456
20
1.2136639370078739
11
0.7871092125984251
21
1.215334251968504
0
LINE
8
BLACK
6
CONTINUOUS
10
0.7871092125984251
20
1.215334251968504
11
0.7887795275590551
21
1.2160261417322835
0
LINE
8
BLACK
6
CONTINUOUS
10
0.7887795275590551
20
1.2160261417322835
11
0.790449842519685
21
1.215334251968504
0
LINE
8
BLACK
6
CONTINUOUS
10
0.6641531496062992
20
1.2510797637795275
11
0.6648450393700788
21
1.2494094488188976
0
LINE
8
BLACK
6
CONTINUOUS
10
0.6648450393700788
20
1.2494094488188976
11
0.6641531496062992
21
1.2477391338582677
0
LINE
8
BLACK
6
CONTINUOUS
10
0.6641531496062992
20
1.2477391338582677
11
0.6624828346456693
21
1.2470472440944882
0
LINE
8
BLACK
6
CONTINUOUS
10
0.6624828346456693
20
1.2470472440944882
11
0.6446037795275591
21
1.2470472440944882
0
LINE
8
BLACK
6
CONTINUOUS
10
0.6446037795275591
20
1.2470472440944882
11
0.6429334645669291
21
1.2477391338582677
0
LINE
8
BLACK
6
CONTINUOUS
10
0.6429334645669291
20
1.2477391338582677
11
0.6422415748031496
21
1.2494094488188976
0
LINE
8
BLACK
6
CONTINUOUS
10
0.6422415748031496
20
1.2494094488188976
11
0.6429334645669291
21
1.2510797637795275
0
LINE
8
BLACK
6
CONTINUOUS
10
0.6429334645669291
20
1.2510797637795275
11
0.6446037795275591
21
1.251771653543307
0
LINE
8
BLACK
6
CONTINUOUS
10
0.6446037795275591
20
1.251771653543307
11
0.6624828346456693
21
1.251771653543307
0
LINE
8
BLACK
6
CONTINUOUS
10
0.6624828346456693
20
1.251771653543307
11
0.6641531496062992
21
1.2510797637795275
0
LINE
8
BLACK
6
CONTINUOUS
10
0.5525805511811024
20
1.2830240551181102
11
0.5536934251968504
21
1.2813385039370078
0
LINE
8
BLACK
6
CONTINUOUS
10
0.5536934251968504
20
1.2813385039370078
11
0.5534625196850393
21
1.2793319291338583
0
LINE
8
BLACK
6
CONTINUOUS
10
0.5534625196850393
20
1.2793319291338583
11
0.5519627165354331
21
1.276332283464567
0
LINE
8
BLACK
6
CONTINUOUS
10
0.5519627165354331
20
1.276332283464567
11
0.5514368110236221
21
1.2756232677165353
0
LINE
8
BLACK
6
CONTINUOUS
10
0.5514368110236221
20
1.2756232677165353
11
0.5514096062992125
21
1.2755648818897638
0
LINE
8
BLACK
6
CONTINUOUS
10
0.5514096062992125
20
1.2755648818897638
11
0.5504510236220472
21
1.2746062992125984
0
LINE
8
BLACK
6
CONTINUOUS
10
0.5504510236220472
20
1.2746062992125984
11
0.5703659448818897
21
1.2746062992125984
0
LINE
8
BLACK
6
CONTINUOUS
10
0.5703659448818897
20
1.2746062992125984
11
0.5703659448818897
21
1.2806524409448818
0
LINE
8
BLACK
6
CONTINUOUS
10
0.5703659448818897
20
1.2806524409448818
11
0.5705440157480315
21
1.2816623622047243
0
LINE
8
BLACK
6
CONTINUOUS
10
0.5705440157480315
20
1.2816623622047243
11
0.5718423228346456
21
1.2832096062992127
0
LINE
8
BLACK
6
CONTINUOUS
10
0.5718423228346456
20
1.2832096062992127
11
0.5738314566929134
21
1.2835603543307086
0
LINE
8
BLACK
6
CONTINUOUS
10
0.5738314566929134
20
1.2835603543307086
11
0.5755806299212598
21
1.2825504330708661
0
LINE
8
BLACK
6
CONTINUOUS
10
0.5755806299212598
20
1.2825504330708661
11
0.5762714566929134
21
1.2806524409448818
0
LINE
8
BLACK
6
CONTINUOUS
10
0.5762714566929134
20
1.2806524409448818
11
0.5762714566929134
21
1.2626546850393701
0
LINE
8
BLACK
6
CONTINUOUS
10
0.5762714566929134
20
1.2626546850393701
11
0.5760933858267716
21
1.2616447637795276
0
LINE
8
BLACK
6
CONTINUOUS
10
0.5760933858267716
20
1.2616447637795276
11
0.5747950787401575
21
1.2600975196850392
0
LINE
8
BLACK
6
CONTINUOUS
10
0.5747950787401575
20
1.2600975196850392
11
0.5728059448818897
21
1.2597467716535433
0
LINE
8
BLACK
6
CONTINUOUS
10
0.5728059448818897
20
1.2597467716535433
11
0.5710567716535433
21
1.2607566929133858
0
LINE
8
BLACK
6
CONTINUOUS
10
0.5710567716535433
20
1.2607566929133858
11
0.5703659448818897
21
1.2626546850393701
0
LINE
8
BLACK
6
CONTINUOUS
10
0.5703659448818897
20
1.2626546850393701
11
0.5703659448818897
21
1.2687007874015748
0
LINE
8
BLACK
6
CONTINUOUS
10
0.5703659448818897
20
1.2687007874015748
11
0.5418226377952756
21
1.2687007874015748
0
LINE
8
BLACK
6
CONTINUOUS
10
0.5418226377952756
20
1.2687007874015748
11
0.5408127165354331
21
1.2688788582677164
0
LINE
8
BLACK
6
CONTINUOUS
10
0.5408127165354331
20
1.2688788582677164
11
0.5406826377952756
21
1.2689880314960629
0
LINE
8
BLACK
6
CONTINUOUS
10
0.5406826377952756
20
1.2689880314960629
11
0.5405138976377952
21
1.2690066535433071
0
LINE
8
BLACK
6
CONTINUOUS
10
0.5405138976377952
20
1.2690066535433071
11
0.5399218503937008
21
1.2696263779527559
0
LINE
8
BLACK
6
CONTINUOUS
10
0.5399218503937008
20
1.2696263779527559
11
0.5392654724409449
21
1.2701771653543308
0
LINE
8
BLACK
6
CONTINUOUS
10
0.5392654724409449
20
1.2701771653543308
11
0.5392359842519685
21
1.2703443700787402
0
LINE
8
BLACK
6
CONTINUOUS
10
0.5392359842519685
20
1.2703443700787402
11
0.5391187007874015
21
1.2704671259842519
0
LINE
8
BLACK
6
CONTINUOUS
10
0.5391187007874015
20
1.2704671259842519
11
0.5390635433070866
21
1.2713223622047243
0
LINE
8
BLACK
6
CONTINUOUS
10
0.5390635433070866
20
1.2713223622047243
11
0.5389147244094488
21
1.2721662992125984
0
LINE
8
BLACK
6
CONTINUOUS
10
0.5389147244094488
20
1.2721662992125984
11
0.5389996062992126
21
1.2723133858267717
0
LINE
8
BLACK
6
CONTINUOUS
10
0.5389996062992126
20
1.2723133858267717
11
0.5389887007874016
21
1.2724827559055119
0
LINE
8
BLACK
6
CONTINUOUS
10
0.5389887007874016
20
1.2724827559055119
11
0.5394961417322834
21
1.2731733858267715
0
LINE
8
BLACK
6
CONTINUOUS
10
0.5394961417322834
20
1.2731733858267715
11
0.5399246456692913
21
1.2739154724409449
0
LINE
8
BLACK
6
CONTINUOUS
10
0.5399246456692913
20
1.2739154724409449
11
0.5400841338582677
21
1.2739735433070867
0
LINE
8
BLACK
6
CONTINUOUS
10
0.5400841338582677
20
1.2739735433070867
11
0.5401847244094488
21
1.2741103937007874
0
LINE
8
BLACK
6
CONTINUOUS
10
0.5401847244094488
20
1.2741103937007874
11
0.5444409448818898
21
1.2769479133858268
0
LINE
8
BLACK
6
CONTINUOUS
10
0.5444409448818898
20
1.2769479133858268
11
0.5468949212598425
21
1.2794019291338583
0
LINE
8
BLACK
6
CONTINUOUS
10
0.5468949212598425
20
1.2794019291338583
11
0.5481804724409449
21
1.2819729527559054
0
LINE
8
BLACK
6
CONTINUOUS
10
0.5481804724409449
20
1.2819729527559054
11
0.5487913779527559
21
1.2827966141732283
0
LINE
8
BLACK
6
CONTINUOUS
10
0.5487913779527559
20
1.2827966141732283
11
0.5506445669291339
21
1.2835998818897638
0
LINE
8
BLACK
6
CONTINUOUS
10
0.5506445669291339
20
1.2835998818897638
11
0.5525805511811024
21
1.2830240551181102
0
LINE
8
BLACK
6
CONTINUOUS
10
0.7162372440944882
20
1.4819852755905512
11
0.7169291338582677
21
1.4803149606299213
0
LINE
8
BLACK
6
CONTINUOUS
10
0.7169291338582677
20
1.4803149606299213
11
0.7169291338582677
21
1.2633858267716536
0
LINE
8
BLACK
6
CONTINUOUS
10
0.7169291338582677
20
1.2633858267716536
11
0.7162372440944882
21
1.2617155118110235
0
LINE
8
BLACK
6
CONTINUOUS
10
0.7162372440944882
20
1.2617155118110235
11
0.7145669291338582
21
1.2610236220472442
0
LINE
8
BLACK
6
CONTINUOUS
10
0.7145669291338582
20
1.2610236220472442
11
0.5846456692913385
21
1.2610236220472442
0
LINE
8
BLACK
6
CONTINUOUS
10
0.5846456692913385
20
1.2610236220472442
11
0.5829753543307087
21
1.2617155118110235
0
LINE
8
BLACK
6
CONTINUOUS
10
0.5829753543307087
20
1.2617155118110235
11
0.5822834645669291
21
1.2633858267716536
0
LINE
8
BLACK
6
CONTINUOUS
10
0.5822834645669291
20
1.2633858267716536
11
0.5822834645669291
21
1.4803149606299213
0
LINE
8
BLACK
6
CONTINUOUS
10
0.5822834645669291
20
1.4803149606299213
11
0.5829753543307087
21
1.4819852755905512
0
LINE
8
BLACK
6
CONTINUOUS
10
0.5829753543307087
20
1.4819852755905512
11
0.5846456692913385
21
1.4826771653543307
0
LINE
8
BLACK
6
CONTINUOUS
10
0.5846456692913385
20
1.4826771653543307
11
0.5863159842519685
21
1.4819852755905512
0
LINE
8
BLACK
6
CONTINUOUS
10
0.5863159842519685
20
1.4819852755905512
11
0.5870078740157481
21
1.4803149606299213
0
LINE
8
BLACK
6
CONTINUOUS
10
0.5870078740157481
20
1.4803149606299213
11
0.5870078740157481
21
1.265748031496063
0
LINE
8
BLACK
6
CONTINUOUS
10
0.5870078740157481
20
1.265748031496063
11
0.7122047244094488
21
1.265748031496063
0
LINE
8
BLACK
6
CONTINUOUS
10
0.7122047244094488
20
1.265748031496063
11
0.7122047244094488
21
1.4803149606299213
0
LINE
8
BLACK
6
CONTINUOUS
10
0.7122047244094488
20
1.4803149606299213
11
0.7128966141732284
21
1.4819852755905512
0
LINE
8
BLACK
6
CONTINUOUS
10
0.7128966141732284
20
1.4819852755905512
11
0.7145669291338582
21
1.4826771653543307
0
LINE
8
BLACK
6
CONTINUOUS
10
0.7145669291338582
20
1.4826771653543307
11
0.7162372440944882
21
1.4819852755905512
0
LINE
8
BLACK
6
CONTINUOUS
10
0.8764763779527559
20
1.2685039370078739
11
0.9020669291338582
21
1.2685039370078739
0
LINE
8
BLACK
6
CONTINUOUS
10
0.9020669291338582
20
1.2685039370078739
11
0.9037372440944882
21
1.2678120472440944
0
LINE
8
BLACK
6
CONTINUOUS
10
0.9037372440944882
20
1.2678120472440944
11
0.9044291338582677
21
1.2661417322834645
0
LINE
8
BLACK
6
CONTINUOUS
10
0.9044291338582677
20
1.2661417322834645
11
0.9037372440944882
21
1.2644714173228346
0
LINE
8
BLACK
6
CONTINUOUS
10
0.9037372440944882
20
1.2644714173228346
11
0.9020669291338582
21
1.2637795275590551
0
LINE
8
BLACK
6
CONTINUOUS
10
0.9020669291338582
20
1.2637795275590551
11
0.8764763779527559
21
1.2637795275590551
0
LINE
8
BLACK
6
CONTINUOUS
10
0.8764763779527559
20
1.2637795275590551
11
0.8508858267716535
21
1.2637795275590551
0
LINE
8
BLACK
6
CONTINUOUS
10
0.8508858267716535
20
1.2637795275590551
11
0.8492155118110236
21
1.2644714173228346
0
LINE
8
BLACK
6
CONTINUOUS
10
0.8492155118110236
20
1.2644714173228346
11
0.8485236220472441
21
1.2661417322834645
0
LINE
8
BLACK
6
CONTINUOUS
10
0.8485236220472441
20
1.2661417322834645
11
0.8492155118110236
21
1.2678120472440944
0
LINE
8
BLACK
6
CONTINUOUS
10
0.8492155118110236
20
1.2678120472440944
11
0.8508858267716535
21
1.2685039370078739
0
LINE
8
BLACK
6
CONTINUOUS
10
0.8508858267716535
20
1.2685039370078739
11
0.8764763779527559
21
1.2685039370078739
0
LINE
8
BLACK
6
CONTINUOUS
10
0.8330305118110236
20
1.3047971653543307
11
0.8335744094488189
21
1.3046662992125984
0
LINE
8
BLACK
6
CONTINUOUS
10
0.8335744094488189
20
1.3046662992125984
11
0.8337722440944881
21
1.3043431496062992
0
LINE
8
BLACK
6
CONTINUOUS
10
0.8337722440944881
20
1.3043431496062992
11
0.8340954330708661
21
1.3041452755905512
0
LINE
8
BLACK
6
CONTINUOUS
10
0.8340954330708661
20
1.3041452755905512
11
0.8435442519685039
21
1.2911531496062991
0
LINE
8
BLACK
6
CONTINUOUS
10
0.8435442519685039
20
1.2911531496062991
11
0.8437155905511811
21
1.2904408267716536
0
LINE
8
BLACK
6
CONTINUOUS
10
0.8437155905511811
20
1.2904408267716536
11
0.8439960629921259
21
1.2897637795275589
0
LINE
8
BLACK
6
CONTINUOUS
10
0.8439960629921259
20
1.2897637795275589
11
0.8439216535433071
21
1.2895842519685039
0
LINE
8
BLACK
6
CONTINUOUS
10
0.8439216535433071
20
1.2895842519685039
11
0.8439671259842519
21
1.2893953543307086
0
LINE
8
BLACK
6
CONTINUOUS
10
0.8439671259842519
20
1.2893953543307086
11
0.8435845669291339
21
1.2887704724409448
0
LINE
8
BLACK
6
CONTINUOUS
10
0.8435845669291339
20
1.2887704724409448
11
0.8433041732283464
21
1.2880934645669291
0
LINE
8
BLACK
6
CONTINUOUS
10
0.8433041732283464
20
1.2880934645669291
11
0.8431246456692914
21
1.2880191338582676
0
LINE
8
BLACK
6
CONTINUOUS
10
0.8431246456692914
20
1.2880191338582676
11
0.8430232283464567
21
1.2878533858267716
0
LINE
8
BLACK
6
CONTINUOUS
10
0.8430232283464567
20
1.2878533858267716
11
0.8423108661417322
21
1.2876820472440944
0
LINE
8
BLACK
6
CONTINUOUS
10
0.8423108661417322
20
1.2876820472440944
11
0.8416338582677165
21
1.2874015748031495
0
LINE
8
BLACK
6
CONTINUOUS
10
0.8416338582677165
20
1.2874015748031495
11
0.8227362204724409
21
1.2874015748031495
0
LINE
8
BLACK
6
CONTINUOUS
10
0.8227362204724409
20
1.2874015748031495
11
0.8220591732283464
21
1.2876820472440944
0
LINE
8
BLACK
6
CONTINUOUS
10
0.8220591732283464
20
1.2876820472440944
11
0.8213468503937008
21
1.2878533858267716
0
LINE
8
BLACK
6
CONTINUOUS
10
0.8213468503937008
20
1.2878533858267716
11
0.8212453937007874
21
1.2880191338582676
0
LINE
8
BLACK
6
CONTINUOUS
10
0.8212453937007874
20
1.2880191338582676
11
0.821065905511811
21
1.2880934645669291
0
LINE
8
BLACK
6
CONTINUOUS
10
0.821065905511811
20
1.2880934645669291
11
0.8207854724409449
21
1.2887704724409448
0
LINE
8
BLACK
6
CONTINUOUS
10
0.8207854724409449
20
1.2887704724409448
11
0.8204029527559055
21
1.2893953543307086
0
LINE
8
BLACK
6
CONTINUOUS
10
0.8204029527559055
20
1.2893953543307086
11
0.8204483858267716
21
1.2895842519685039
0
LINE
8
BLACK
6
CONTINUOUS
10
0.8204483858267716
20
1.2895842519685039
11
0.8203740157480315
21
1.2897637795275589
0
LINE
8
BLACK
6
CONTINUOUS
10
0.8203740157480315
20
1.2897637795275589
11
0.8206544488188976
21
1.2904408267716536
0
LINE
8
BLACK
6
CONTINUOUS
10
0.8206544488188976
20
1.2904408267716536
11
0.8208258267716535
21
1.2911531496062991
0
LINE
8
BLACK
6
CONTINUOUS
10
0.8208258267716535
20
1.2911531496062991
11
0.8302746456692913
21
1.3041452755905512
0
LINE
8
BLACK
6
CONTINUOUS
10
0.8302746456692913
20
1.3041452755905512
11
0.8305977952755905
21
1.3043431496062992
0
LINE
8
BLACK
6
CONTINUOUS
10
0.8305977952755905
20
1.3043431496062992
11
0.8307956692913385
21
1.3046662992125984
0
LINE
8
BLACK
6
CONTINUOUS
10
0.8307956692913385
20
1.3046662992125984
11
0.831339527559055
21
1.3047971653543307
0
LINE
8
BLACK
6
CONTINUOUS
10
0.831339527559055
20
1.3047971653543307
11
0.8318166141732283
21
1.3050891732283465
0
LINE
8
BLACK
6
CONTINUOUS
10
0.8318166141732283
20
1.3050891732283465
11
0.8321850393700787
21
1.3050005511811023
0
LINE
8
BLACK
6
CONTINUOUS
10
0.8321850393700787
20
1.3050005511811023
11
0.8325534645669291
21
1.3050891732283465
0
LINE
8
BLACK
6
CONTINUOUS
10
0.8325534645669291
20
1.3050891732283465
11
0.8330305118110236
21
1.3047971653543307
0
LINE
8
BLACK
6
CONTINUOUS
10
0.5737022047244095
20
1.3135338188976378
11
0.5738314566929134
21
1.3135565748031495
0
LINE
8
BLACK
6
CONTINUOUS
10
0.5738314566929134
20
1.3135565748031495
11
0.5739450393700787
21
1.3134909842519684
0
LINE
8
BLACK
6
CONTINUOUS
10
0.5739450393700787
20
1.3134909842519684
11
0.5743286220472441
21
1.3134233464566929
0
LINE
8
BLACK
6
CONTINUOUS
10
0.5743286220472441
20
1.3134233464566929
11
0.5749162992125985
21
1.3129302362204724
0
LINE
8
BLACK
6
CONTINUOUS
10
0.5749162992125985
20
1.3129302362204724
11
0.5755806299212598
21
1.312546653543307
0
LINE
8
BLACK
6
CONTINUOUS
10
0.5755806299212598
20
1.312546653543307
11
0.5756717322834646
21
1.3122963385826771
0
LINE
8
BLACK
6
CONTINUOUS
10
0.5756717322834646
20
1.3122963385826771
11
0.5758758661417323
21
1.3121250393700787
0
LINE
8
BLACK
6
CONTINUOUS
10
0.5758758661417323
20
1.3121250393700787
11
0.5760090944881889
21
1.3113694881889764
0
LINE
8
BLACK
6
CONTINUOUS
10
0.5760090944881889
20
1.3113694881889764
11
0.5762714566929134
21
1.3106486614173227
0
LINE
8
BLACK
6
CONTINUOUS
10
0.5762714566929134
20
1.3106486614173227
11
0.5762714566929134
21
1.3031496062992125
0
LINE
8
BLACK
6
CONTINUOUS
10
0.5762714566929134
20
1.3031496062992125
11
0.5761181496062991
21
1.3022802362204724
0
LINE
8
BLACK
6
CONTINUOUS
10
0.5761181496062991
20
1.3022802362204724
11
0.5761199212598425
21
1.3022158661417322
0
LINE
8
BLACK
6
CONTINUOUS
10
0.5761199212598425
20
1.3022158661417322
11
0.5746201181102362
21
1.2977164173228346
0
LINE
8
BLACK
6
CONTINUOUS
10
0.5746201181102362
20
1.2977164173228346
11
0.5741318503937007
21
1.2968146456692913
0
LINE
8
BLACK
6
CONTINUOUS
10
0.5741318503937007
20
1.2968146456692913
11
0.5739813779527559
21
1.2967222440944881
0
LINE
8
BLACK
6
CONTINUOUS
10
0.5739813779527559
20
1.2967222440944881
11
0.5739068110236221
21
1.2965622440944882
0
LINE
8
BLACK
6
CONTINUOUS
10
0.5739068110236221
20
1.2965622440944882
11
0.5709071653543307
21
1.2935626377952756
0
LINE
8
BLACK
6
CONTINUOUS
10
0.5709071653543307
20
1.2935626377952756
11
0.5701839763779527
21
1.2930562598425197
0
LINE
8
BLACK
6
CONTINUOUS
10
0.5701839763779527
20
1.2930562598425197
11
0.5701397637795276
21
1.2930095275590552
0
LINE
8
BLACK
6
CONTINUOUS
10
0.5701397637795276
20
1.2930095275590552
11
0.567140157480315
21
1.2915097244094489
0
LINE
8
BLACK
6
CONTINUOUS
10
0.567140157480315
20
1.2915097244094489
11
0.5666517716535433
21
1.2913644881889763
0
LINE
8
BLACK
6
CONTINUOUS
10
0.5666517716535433
20
1.2913644881889763
11
0.5665358267716535
21
1.2912861417322834
0
LINE
8
BLACK
6
CONTINUOUS
10
0.5665358267716535
20
1.2912861417322834
11
0.5605365748031496
21
1.2897862992125984
0
LINE
8
BLACK
6
CONTINUOUS
10
0.5605365748031496
20
1.2897862992125984
11
0.559948622047244
21
1.2897448425196849
0
LINE
8
BLACK
6
CONTINUOUS
10
0.559948622047244
20
1.2897448425196849
11
0.5598203937007874
21
1.2896981496062991
0
LINE
8
BLACK
6
CONTINUOUS
10
0.5598203937007874
20
1.2896981496062991
11
0.5553209448818898
21
1.2896981496062991
0
LINE
8
BLACK
6
CONTINUOUS
10
0.5553209448818898
20
1.2896981496062991
11
0.5547405511811023
21
1.2898005118110236
0
LINE
8
BLACK
6
CONTINUOUS
10
0.5547405511811023
20
1.2898005118110236
11
0.5546048031496063
21
1.2897862992125984
0
LINE
8
BLACK
6
CONTINUOUS
10
0.5546048031496063
20
1.2897862992125984
11
0.5486055118110236
21
1.2912861417322834
0
LINE
8
BLACK
6
CONTINUOUS
10
0.5486055118110236
20
1.2912861417322834
11
0.54814
21
1.2914937795275589
0
LINE
8
BLACK
6
CONTINUOUS
10
0.54814
20
1.2914937795275589
11
0.5480011811023622
21
1.2915097244094489
0
LINE
8
BLACK
6
CONTINUOUS
10
0.5480011811023622
20
1.2915097244094489
11
0.5450015354330708
21
1.2930095275590552
0
LINE
8
BLACK
6
CONTINUOUS
10
0.5450015354330708
20
1.2930095275590552
11
0.5442924409448818
21
1.2935354724409449
0
LINE
8
BLACK
6
CONTINUOUS
10
0.5442924409448818
20
1.2935354724409449
11
0.5442341338582677
21
1.2935626377952756
0
LINE
8
BLACK
6
CONTINUOUS
10
0.5442341338582677
20
1.2935626377952756
11
0.5412345275590551
21
1.2965622440944882
0
LINE
8
BLACK
6
CONTINUOUS
10
0.5412345275590551
20
1.2965622440944882
11
0.5406463385826772
21
1.2974022834645669
0
LINE
8
BLACK
6
CONTINUOUS
10
0.5406463385826772
20
1.2974022834645669
11
0.5406309448818898
21
1.2975781496062992
0
LINE
8
BLACK
6
CONTINUOUS
10
0.5406309448818898
20
1.2975781496062992
11
0.5405212204724409
21
1.2977164173228346
0
LINE
8
BLACK
6
CONTINUOUS
10
0.5405212204724409
20
1.2977164173228346
11
0.5390214173228346
21
1.3022158661417322
0
LINE
8
BLACK
6
CONTINUOUS
10
0.5390214173228346
20
1.3022158661417322
11
0.5388919291338583
21
1.3030890551181102
0
LINE
8
BLACK
6
CONTINUOUS
10
0.5388919291338583
20
1.3030890551181102
11
0.5388698818897638
21
1.3031496062992125
0
LINE
8
BLACK
6
CONTINUOUS
10
0.5388698818897638
20
1.3031496062992125
11
0.5388698818897638
21
1.3106486614173227
0
LINE
8
BLACK
6
CONTINUOUS
10
0.5388698818897638
20
1.3106486614173227
11
0.5389374803149606
21
1.3110322047244094
0
LINE
8
BLACK
6
CONTINUOUS
10
0.5389374803149606
20
1.3110322047244094
11
0.5389147244094488
21
1.3111614173228345
0
LINE
8
BLACK
6
CONTINUOUS
10
0.5389147244094488
20
1.3111614173228345
11
0.5389803149606299
21
1.3112750393700787
0
LINE
8
BLACK
6
CONTINUOUS
10
0.5389803149606299
20
1.3112750393700787
11
0.5390479527559054
21
1.3116585826771654
0
LINE
8
BLACK
6
CONTINUOUS
10
0.5390479527559054
20
1.3116585826771654
11
0.539541062992126
21
1.3122462992125985
0
LINE
8
BLACK
6
CONTINUOUS
10
0.539541062992126
20
1.3122462992125985
11
0.5399246456692913
21
1.3129105905511811
0
LINE
8
BLACK
6
CONTINUOUS
10
0.5399246456692913
20
1.3129105905511811
11
0.5401749606299212
21
1.3130017322834646
0
LINE
8
BLACK
6
CONTINUOUS
10
0.5401749606299212
20
1.3130017322834646
11
0.5403462598425197
21
1.3132058267716535
0
LINE
8
BLACK
6
CONTINUOUS
10
0.5403462598425197
20
1.3132058267716535
11
0.541101811023622
21
1.3133390944881889
0
LINE
8
BLACK
6
CONTINUOUS
10
0.541101811023622
20
1.3133390944881889
11
0.5418226377952756
21
1.3136014173228345
0
LINE
8
BLACK
6
CONTINUOUS
10
0.5418226377952756
20
1.3136014173228345
11
0.5733187007874015
21
1.3136014173228345
0
LINE
8
BLACK
6
CONTINUOUS
10
0.5733187007874015
20
1.3136014173228345
11
0.5737022047244095
21
1.3135338188976378
0
LINE
8
BLACK
6
CONTINUOUS
10
0.5447753937007874
20
1.3036287401574802
11
0.5459032283464567
21
1.3002451968503936
0
LINE
8
BLACK
6
CONTINUOUS
10
0.5459032283464567
20
1.3002451968503936
11
0.5480711023622047
21
1.2980773228346456
0
LINE
8
BLACK
6
CONTINUOUS
10
0.5480711023622047
20
1.2980773228346456
11
0.5503521653543307
21
1.2969367716535434
0
LINE
8
BLACK
6
CONTINUOUS
10
0.5503521653543307
20
1.2969367716535434
11
0.5556845275590551
21
1.2956036614173227
0
LINE
8
BLACK
6
CONTINUOUS
10
0.5556845275590551
20
1.2956036614173227
11
0.559456811023622
21
1.2956036614173227
0
LINE
8
BLACK
6
CONTINUOUS
10
0.559456811023622
20
1.2956036614173227
11
0.5647890551181102
21
1.2969367716535434
0
LINE
8
BLACK
6
CONTINUOUS
10
0.5647890551181102
20
1.2969367716535434
11
0.567070157480315
21
1.2980773228346456
0
LINE
8
BLACK
6
CONTINUOUS
10
0.567070157480315
20
1.2980773228346456
11
0.5692381102362205
21
1.3002452362204724
0
LINE
8
BLACK
6
CONTINUOUS
10
0.5692381102362205
20
1.3002452362204724
11
0.5703659448818897
21
1.3036287401574802
0
LINE
8
BLACK
6
CONTINUOUS
10
0.5703659448818897
20
1.3036287401574802
11
0.5703659448818897
21
1.3076959055118109
0
LINE
8
BLACK
6
CONTINUOUS
10
0.5703659448818897
20
1.3076959055118109
11
0.5447753937007874
21
1.3076959055118109
0
LINE
8
BLACK
6
CONTINUOUS
10
0.5447753937007874
20
1.3076959055118109
11
0.5447753937007874
21
1.3036287401574802
0
LINE
8
BLACK
6
CONTINUOUS
10
0.8779527559055118
20
1.3031496062992125
11
0.9035433070866141
21
1.3031496062992125
0
LINE
8
BLACK
6
CONTINUOUS
10
0.9035433070866141
20
1.3031496062992125
11
0.9052136220472441
21
1.302457716535433
0
LINE
8
BLACK
6
CONTINUOUS
10
0.9052136220472441
20
1.302457716535433
11
0.9059055118110236
21
1.3007874015748031
0
LINE
8
BLACK
6
CONTINUOUS
10
0.9059055118110236
20
1.3007874015748031
11
0.9052136220472441
21
1.2991170866141732
0
LINE
8
BLACK
6
CONTINUOUS
10
0.9052136220472441
20
1.2991170866141732
11
0.9035433070866141
21
1.2984251968503937
0
LINE
8
BLACK
6
CONTINUOUS
10
0.9035433070866141
20
1.2984251968503937
11
0.8779527559055118
21
1.2984251968503937
0
LINE
8
BLACK
6
CONTINUOUS
10
0.8779527559055118
20
1.2984251968503937
11
0.8523622047244094
21
1.2984251968503937
0
LINE
8
BLACK
6
CONTINUOUS
10
0.8523622047244094
20
1.2984251968503937
11
0.8506918897637795
21
1.2991170866141732
0
LINE
8
BLACK
6
CONTINUOUS
10
0.8506918897637795
20
1.2991170866141732
11
0.85
21
1.3007874015748031
0
LINE
8
BLACK
6
CONTINUOUS
10
0.85
20
1.3007874015748031
11
0.8506918897637795
21
1.302457716535433
0
LINE
8
BLACK
6
CONTINUOUS
10
0.8506918897637795
20
1.302457716535433
11
0.8523622047244094
21
1.3031496062992125
0
LINE
8
BLACK
6
CONTINUOUS
10
0.8523622047244094
20
1.3031496062992125
11
0.8779527559055118
21
1.3031496062992125
0
LINE
8
BLACK
6
CONTINUOUS
10
0.7325758267716536
20
1.3728145669291338
11
0.7332677165354331
21
1.371144251968504
0
LINE
8
BLACK
6
CONTINUOUS
10
0.7332677165354331
20
1.371144251968504
11
0.7332677165354331
21
1.3532651968503937
0
LINE
8
BLACK
6
CONTINUOUS
10
0.7332677165354331
20
1.3532651968503937
11
0.7325758267716536
21
1.3515948818897638
0
LINE
8
BLACK
6
CONTINUOUS
10
0.7325758267716536
20
1.3515948818897638
11
0.7309055118110236
21
1.3509029921259843
0
LINE
8
BLACK
6
CONTINUOUS
10
0.7309055118110236
20
1.3509029921259843
11
0.7292351968503937
21
1.3515948818897638
0
LINE
8
BLACK
6
CONTINUOUS
10
0.7292351968503937
20
1.3515948818897638
11
0.7285433070866142
21
1.3532651968503937
0
LINE
8
BLACK
6
CONTINUOUS
10
0.7285433070866142
20
1.3532651968503937
11
0.7285433070866142
21
1.371144251968504
0
LINE
8
BLACK
6
CONTINUOUS
10
0.7285433070866142
20
1.371144251968504
11
0.7292351968503937
21
1.3728145669291338
0
LINE
8
BLACK
6
CONTINUOUS
10
0.7292351968503937
20
1.3728145669291338
11
0.7309055118110236
21
1.3735064566929134
0
LINE
8
BLACK
6
CONTINUOUS
10
0.7309055118110236
20
1.3735064566929134
11
0.7325758267716536
21
1.3728145669291338
0
LINE
8
BLACK
6
CONTINUOUS
10
0.790449842519685
20
1.3728145669291338
11
0.7911417322834645
21
1.371144251968504
0
LINE
8
BLACK
6
CONTINUOUS
10
0.7911417322834645
20
1.371144251968504
11
0.7911417322834645
21
1.3532651968503937
0
LINE
8
BLACK
6
CONTINUOUS
10
0.7911417322834645
20
1.3532651968503937
11
0.790449842519685
21
1.3515948818897638
0
LINE
8
BLACK
6
CONTINUOUS
10
0.790449842519685
20
1.3515948818897638
11
0.7887795275590551
21
1.3509029921259843
0
LINE
8
BLACK
6
CONTINUOUS
10
0.7887795275590551
20
1.3509029921259843
11
0.7871092125984251
21
1.3515948818897638
0
LINE
8
BLACK
6
CONTINUOUS
10
0.7871092125984251
20
1.3515948818897638
11
0.7864173228346456
21
1.3532651968503937
0
LINE
8
BLACK
6
CONTINUOUS
10
0.7864173228346456
20
1.3532651968503937
11
0.7864173228346456
21
1.371144251968504
0
LINE
8
BLACK
6
CONTINUOUS
10
0.7864173228346456
20
1.371144251968504
11
0.7871092125984251
21
1.3728145669291338
0
LINE
8
BLACK
6
CONTINUOUS
10
0.7871092125984251
20
1.3728145669291338
11
0.7887795275590551
21
1.3735064566929134
0
LINE
8
BLACK
6
CONTINUOUS
10
0.7887795275590551
20
1.3735064566929134
11
0.790449842519685
21
1.3728145669291338
0
LINE
8
BLACK
6
CONTINUOUS
10
0.9217321259842519
20
1.4334413385826772
11
0.9219015354330709
21
1.4334522440944881
0
LINE
8
BLACK
6
CONTINUOUS
10
0.9219015354330709
20
1.4334522440944881
11
0.922592125984252
21
1.4329448031496064
0
LINE
8
BLACK
6
CONTINUOUS
10
0.922592125984252
20
1.4329448031496064
11
0.9233342519685039
21
1.4325162992125984
0
LINE
8
BLACK
6
CONTINUOUS
10
0.9233342519685039
20
1.4325162992125984
11
0.9233922834645669
21
1.432356811023622
0
LINE
8
BLACK
6
CONTINUOUS
10
0.9233922834645669
20
1.432356811023622
11
0.9235291732283465
21
1.4322562204724409
0
LINE
8
BLACK
6
CONTINUOUS
10
0.9235291732283465
20
1.4322562204724409
11
0.9263666535433071
21
1.4279999999999999
0
LINE
8
BLACK
6
CONTINUOUS
10
0.9263666535433071
20
1.4279999999999999
11
0.9288206692913386
21
1.4255460236220472
0
LINE
8
BLACK
6
CONTINUOUS
10
0.9288206692913386
20
1.4255460236220472
11
0.9313917322834645
21
1.4242604724409449
0
LINE
8
BLACK
6
CONTINUOUS
10
0.9313917322834645
20
1.4242604724409449
11
0.9322153937007874
21
1.4236495669291338
0
LINE
8
BLACK
6
CONTINUOUS
10
0.9322153937007874
20
1.4236495669291338
11
0.9330186614173228
21
1.4217963779527558
0
LINE
8
BLACK
6
CONTINUOUS
10
0.9330186614173228
20
1.4217963779527558
11
0.9324428346456692
21
1.4198603937007874
0
LINE
8
BLACK
6
CONTINUOUS
10
0.9324428346456692
20
1.4198603937007874
11
0.9307572834645669
21
1.4187475196850394
0
LINE
8
BLACK
6
CONTINUOUS
10
0.9307572834645669
20
1.4187475196850394
11
0.9287507086614173
21
1.4189784251968505
0
LINE
8
BLACK
6
CONTINUOUS
10
0.9287507086614173
20
1.4189784251968505
11
0.925751062992126
21
1.4204782283464568
0
LINE
8
BLACK
6
CONTINUOUS
10
0.925751062992126
20
1.4204782283464568
11
0.9250420078740157
21
1.4210041338582677
0
LINE
8
BLACK
6
CONTINUOUS
10
0.9250420078740157
20
1.4210041338582677
11
0.9249836614173228
21
1.4210313385826772
0
LINE
8
BLACK
6
CONTINUOUS
10
0.9249836614173228
20
1.4210313385826772
11
0.9240250787401575
21
1.4219899606299213
0
LINE
8
BLACK
6
CONTINUOUS
10
0.9240250787401575
20
1.4219899606299213
11
0.9240250787401575
21
1.402075
0
LINE
8
BLACK
6
CONTINUOUS
10
0.9240250787401575
20
1.402075
11
0.930071220472441
21
1.402075
0
LINE
8
BLACK
6
CONTINUOUS
10
0.930071220472441
20
1.402075
11
0.9310811417322834
21
1.4018969291338583
0
LINE
8
BLACK
6
CONTINUOUS
10
0.9310811417322834
20
1.4018969291338583
11
0.9326283858267717
21
1.4005986220472442
0
LINE
8
BLACK
6
CONTINUOUS
10
0.9326283858267717
20
1.4005986220472442
11
0.9329791338582677
21
1.3986094881889763
0
LINE
8
BLACK
6
CONTINUOUS
10
0.9329791338582677
20
1.3986094881889763
11
0.9319692125984251
21
1.3968603149606298
0
LINE
8
BLACK
6
CONTINUOUS
10
0.9319692125984251
20
1.3968603149606298
11
0.930071220472441
21
1.3961694881889763
0
LINE
8
BLACK
6
CONTINUOUS
10
0.930071220472441
20
1.3961694881889763
11
0.9120734645669291
21
1.3961694881889763
0
LINE
8
BLACK
6
CONTINUOUS
10
0.9120734645669291
20
1.3961694881889763
11
0.9110635433070866
21
1.396347559055118
0
LINE
8
BLACK
6
CONTINUOUS
10
0.9110635433070866
20
1.396347559055118
11
0.9095162992125984
21
1.3976458661417324
0
LINE
8
BLACK
6
CONTINUOUS
10
0.9095162992125984
20
1.3976458661417324
11
0.9091655511811023
21
1.399635
0
LINE
8
BLACK
6
CONTINUOUS
10
0.9091655511811023
20
1.399635
11
0.9101754724409449
21
1.4013841732283465
0
LINE
8
BLACK
6
CONTINUOUS
10
0.9101754724409449
20
1.4013841732283465
11
0.9120734645669291
21
1.402075
0
LINE
8
BLACK
6
CONTINUOUS
10
0.9120734645669291
20
1.402075
11
0.9181195669291339
21
1.402075
0
LINE
8
BLACK
6
CONTINUOUS
10
0.9181195669291339
20
1.402075
11
0.9181195669291339
21
1.4306183070866141
0
LINE
8
BLACK
6
CONTINUOUS
10
0.9181195669291339
20
1.4306183070866141
11
0.9182976377952756
21
1.4316282283464568
0
LINE
8
BLACK
6
CONTINUOUS
10
0.9182976377952756
20
1.4316282283464568
11
0.9184067716535433
21
1.4317583070866142
0
LINE
8
BLACK
6
CONTINUOUS
10
0.9184067716535433
20
1.4317583070866142
11
0.9184254330708661
21
1.4319270472440944
0
LINE
8
BLACK
6
CONTINUOUS
10
0.9184254330708661
20
1.4319270472440944
11
0.9190451181102361
21
1.4325190944881889
0
LINE
8
BLACK
6
CONTINUOUS
10
0.9190451181102361
20
1.4325190944881889
11
0.9195959448818898
21
1.4331754724409449
0
LINE
8
BLACK
6
CONTINUOUS
10
0.9195959448818898
20
1.4331754724409449
11
0.9197631102362205
21
1.4332049606299213
0
LINE
8
BLACK
6
CONTINUOUS
10
0.9197631102362205
20
1.4332049606299213
11
0.919885905511811
21
1.4333222440944882
0
LINE
8
BLACK
6
CONTINUOUS
10
0.919885905511811
20
1.4333222440944882
11
0.9207411023622047
21
1.4333774015748031
0
LINE
8
BLACK
6
CONTINUOUS
10
0.9207411023622047
20
1.4333774015748031
11
0.9215850787401575
21
1.4335262204724408
0
LINE
8
BLACK
6
CONTINUOUS
10
0.9215850787401575
20
1.4335262204724408
11
0.9217321259842519
21
1.4334413385826772
0
LINE
8
BLACK
6
CONTINUOUS
10
0.9580777559055118
20
1.4333929921259843
11
0.959625
21
1.4320946850393701
0
LINE
8
BLACK
6
CONTINUOUS
10
0.959625
20
1.4320946850393701
11
0.959975748031496
21
1.4301055511811023
0
LINE
8
BLACK
6
CONTINUOUS
10
0.959975748031496
20
1.4301055511811023
11
0.9589658267716535
21
1.4283563779527559
0
LINE
8
BLACK
6
CONTINUOUS
10
0.9589658267716535
20
1.4283563779527559
11
0.9570678346456692
21
1.4276655511811023
0
LINE
8
BLACK
6
CONTINUOUS
10
0.9570678346456692
20
1.4276655511811023
11
0.9510217322834645
21
1.4276655511811023
0
LINE
8
BLACK
6
CONTINUOUS
10
0.9510217322834645
20
1.4276655511811023
11
0.9510217322834645
21
1.3991222440944882
0
LINE
8
BLACK
6
CONTINUOUS
10
0.9510217322834645
20
1.3991222440944882
11
0.9508436614173228
21
1.3981123228346457
0
LINE
8
BLACK
6
CONTINUOUS
10
0.9508436614173228
20
1.3981123228346457
11
0.9495453543307086
21
1.3965650787401573
0
LINE
8
BLACK
6
CONTINUOUS
10
0.9495453543307086
20
1.3965650787401573
11
0.9475562204724409
21
1.3962143307086614
0
LINE
8
BLACK
6
CONTINUOUS
10
0.9475562204724409
20
1.3962143307086614
11
0.9458070472440945
21
1.3972242519685039
0
LINE
8
BLACK
6
CONTINUOUS
10
0.9458070472440945
20
1.3972242519685039
11
0.9451162204724409
21
1.3991222440944882
0
LINE
8
BLACK
6
CONTINUOUS
10
0.9451162204724409
20
1.3991222440944882
11
0.9451162204724409
21
1.4276655511811023
0
LINE
8
BLACK
6
CONTINUOUS
10
0.9451162204724409
20
1.4276655511811023
11
0.9390700787401575
21
1.4276655511811023
0
LINE
8
BLACK
6
CONTINUOUS
10
0.9390700787401575
20
1.4276655511811023
11
0.9380601574803149
21
1.4278436220472441
0
LINE
8
BLACK
6
CONTINUOUS
10
0.9380601574803149
20
1.4278436220472441
11
0.9365129133858268
21
1.4291419291338583
0
LINE
8
BLACK
6
CONTINUOUS
10
0.9365129133858268
20
1.4291419291338583
11
0.9361621653543307
21
1.4311310629921259
0
LINE
8
BLACK
6
CONTINUOUS
10
0.9361621653543307
20
1.4311310629921259
11
0.9371720866141732
21
1.4328802362204724
0
LINE
8
BLACK
6
CONTINUOUS
10
0.9371720866141732
20
1.4328802362204724
11
0.9390700787401575
21
1.4335710629921259
0
LINE
8
BLACK
6
CONTINUOUS
10
0.9390700787401575
20
1.4335710629921259
11
0.9570678346456692
21
1.4335710629921259
0
LINE
8
BLACK
6
CONTINUOUS
10
0.9570678346456692
20
1.4335710629921259
11
0.9580777559055118
21
1.4333929921259843
0
LINE
8
BLACK
6
CONTINUOUS
10
0.8779527559055118
20
1.425984251968504
11
0.9035433070866141
21
1.425984251968504
0
LINE
8
BLACK
6
CONTINUOUS
10
0.9035433070866141
20
1.425984251968504
11
0.9052136220472441
21
1.4252923622047244
0
LINE
8
BLACK
6
CONTINUOUS
10
0.9052136220472441
20
1.4252923622047244
11
0.9059055118110236
21
1.4236220472440944
0
LINE
8
BLACK
6
CONTINUOUS
10
0.9059055118110236
20
1.4236220472440944
11
0.9052136220472441
21
1.4219517322834645
0
LINE
8
BLACK
6
CONTINUOUS
10
0.9052136220472441
20
1.4219517322834645
11
0.9035433070866141
21
1.421259842519685
0
LINE
8
BLACK
6
CONTINUOUS
10
0.9035433070866141
20
1.421259842519685
11
0.8779527559055118
21
1.421259842519685
0
LINE
8
BLACK
6
CONTINUOUS
10
0.8779527559055118
20
1.421259842519685
11
0.8523622047244094
21
1.421259842519685
0
LINE
8
BLACK
6
CONTINUOUS
10
0.8523622047244094
20
1.421259842519685
11
0.8506918897637795
21
1.4219517322834645
0
LINE
8
BLACK
6
CONTINUOUS
10
0.8506918897637795
20
1.4219517322834645
11
0.85
21
1.4236220472440944
0
LINE
8
BLACK
6
CONTINUOUS
10
0.85
20
1.4236220472440944
11
0.8506918897637795
21
1.4252923622047244
0
LINE
8
BLACK
6
CONTINUOUS
10
0.8506918897637795
20
1.4252923622047244
11
0.8523622047244094
21
1.425984251968504
0
LINE
8
BLACK
6
CONTINUOUS
10
0.8523622047244094
20
1.425984251968504
11
0.8779527559055118
21
1.425984251968504
0
LINE
8
BLACK
6
CONTINUOUS
10
0.7477290551181102
20
1.4609520472440944
11
0.7492762992125984
21
1.4596537401574803
0
LINE
8
BLACK
6
CONTINUOUS
10
0.7492762992125984
20
1.4596537401574803
11
0.7496270472440945
21
1.4576646062992125
0
LINE
8
BLACK
6
CONTINUOUS
10
0.7496270472440945
20
1.4576646062992125
11
0.7486171259842519
21
1.4559154330708661
0
LINE
8
BLACK
6
CONTINUOUS
10
0.7486171259842519
20
1.4559154330708661
11
0.7467191338582677
21
1.4552246062992125
0
LINE
8
BLACK
6
CONTINUOUS
10
0.7467191338582677
20
1.4552246062992125
11
0.7337287401574804
21
1.4552246062992125
0
LINE
8
BLACK
6
CONTINUOUS
10
0.7337287401574804
20
1.4552246062992125
11
0.7399424409448818
21
1.4481232283464567
0
LINE
8
BLACK
6
CONTINUOUS
10
0.7399424409448818
20
1.4481232283464567
11
0.7401723622047244
21
1.4477433858267716
0
LINE
8
BLACK
6
CONTINUOUS
10
0.7401723622047244
20
1.4477433858267716
11
0.7402774015748032
21
1.4476552362204724
0
LINE
8
BLACK
6
CONTINUOUS
10
0.7402774015748032
20
1.4476552362204724
11
0.7402986220472441
21
1.4475347637795275
0
LINE
8
BLACK
6
CONTINUOUS
10
0.7402986220472441
20
1.4475347637795275
11
0.7404734645669291
21
1.4472459448818897
0
LINE
8
BLACK
6
CONTINUOUS
10
0.7404734645669291
20
1.4472459448818897
11
0.7404899212598425
21
1.44645
0
LINE
8
BLACK
6
CONTINUOUS
10
0.7404899212598425
20
1.44645
11
0.7406281496062992
21
1.4456661023622046
0
LINE
8
BLACK
6
CONTINUOUS
10
0.7406281496062992
20
1.4456661023622046
11
0.7405103543307087
21
1.4454621259842519
0
LINE
8
BLACK
6
CONTINUOUS
10
0.7405103543307087
20
1.4454621259842519
11
0.7405152362204724
21
1.4452265748031496
0
LINE
8
BLACK
6
CONTINUOUS
10
0.7405152362204724
20
1.4452265748031496
11
0.7400161811023622
21
1.4446062204724408
0
LINE
8
BLACK
6
CONTINUOUS
10
0.7400161811023622
20
1.4446062204724408
11
0.7396182283464566
21
1.4439169291338583
0
LINE
8
BLACK
6
CONTINUOUS
10
0.7396182283464566
20
1.4439169291338583
11
0.7393968897637795
21
1.4438364173228346
0
LINE
8
BLACK
6
CONTINUOUS
10
0.7393968897637795
20
1.4438364173228346
11
0.7392492125984251
21
1.4436527559055117
0
LINE
8
BLACK
6
CONTINUOUS
10
0.7392492125984251
20
1.4436527559055117
11
0.7384681102362205
21
1.4434983464566928
0
LINE
8
BLACK
6
CONTINUOUS
10
0.7384681102362205
20
1.4434983464566928
11
0.7377202362204724
21
1.4432261023622046
0
LINE
8
BLACK
6
CONTINUOUS
10
0.7377202362204724
20
1.4432261023622046
11
0.733917874015748
21
1.4432261023622046
0
LINE
8
BLACK
6
CONTINUOUS
10
0.733917874015748
20
1.4432261023622046
11
0.7319702362204724
21
1.4422523228346456
0
LINE
8
BLACK
6
CONTINUOUS
10
0.7319702362204724
20
1.4422523228346456
11
0.7311481102362205
21
1.4414301968503938
0
LINE
8
BLACK
6
CONTINUOUS
10
0.7311481102362205
20
1.4414301968503938
11
0.7301743307086614
21
1.4394825984251969
0
LINE
8
BLACK
6
CONTINUOUS
10
0.7301743307086614
20
1.4394825984251969
11
0.7301743307086614
21
1.4333775984251969
0
LINE
8
BLACK
6
CONTINUOUS
10
0.7301743307086614
20
1.4333775984251969
11
0.7311481102362205
21
1.4314300393700787
0
LINE
8
BLACK
6
CONTINUOUS
10
0.7311481102362205
20
1.4314300393700787
11
0.7319702755905512
21
1.4306078346456692
0
LINE
8
BLACK
6
CONTINUOUS
10
0.7319702755905512
20
1.4306078346456692
11
0.733917874015748
21
1.4296340551181101
0
LINE
8
BLACK
6
CONTINUOUS
10
0.733917874015748
20
1.4296340551181101
11
0.7415226377952756
21
1.4296340551181101
0
LINE
8
BLACK
6
CONTINUOUS
10
0.7415226377952756
20
1.4296340551181101
11
0.7434701968503937
21
1.4306078346456692
0
LINE
8
BLACK
6
CONTINUOUS
10
0.7434701968503937
20
1.4306078346456692
11
0.7446311811023621
21
1.4317688188976379
0
LINE
8
BLACK
6
CONTINUOUS
10
0.7446311811023621
20
1.4317688188976379
11
0.745471220472441
21
1.4323570472440945
0
LINE
8
BLACK
6
CONTINUOUS
10
0.745471220472441
20
1.4323570472440945
11
0.7474833070866141
21
1.4325331102362204
0
LINE
8
BLACK
6
CONTINUOUS
10
0.7474833070866141
20
1.4325331102362204
11
0.7491378740157481
21
1.4313746062992125
0
LINE
8
BLACK
6
CONTINUOUS
10
0.7491378740157481
20
1.4313746062992125
11
0.7496606299212598
21
1.429423622047244
0
LINE
8
BLACK
6
CONTINUOUS
10
0.7496606299212598
20
1.429423622047244
11
0.7488070866141732
21
1.4275930708661417
0
LINE
8
BLACK
6
CONTINUOUS
10
0.7488070866141732
20
1.4275930708661417
11
0.7473072834645669
21
1.4260932283464567
0
LINE
8
BLACK
6
CONTINUOUS
10
0.7473072834645669
20
1.4260932283464567
11
0.746584094488189
21
1.4255868503937008
0
LINE
8
BLACK
6
CONTINUOUS
10
0.746584094488189
20
1.4255868503937008
11
0.746539842519685
21
1.4255400787401575
0
LINE
8
BLACK
6
CONTINUOUS
10
0.746539842519685
20
1.4255400787401575
11
0.7435401968503936
21
1.4240402755905512
0
LINE
8
BLACK
6
CONTINUOUS
10
0.7435401968503936
20
1.4240402755905512
11
0.7425572440944882
21
1.4237478740157481
0
LINE
8
BLACK
6
CONTINUOUS
10
0.7425572440944882
20
1.4237478740157481
11
0.7423855118110236
21
1.423788937007874
0
LINE
8
BLACK
6
CONTINUOUS
10
0.7423855118110236
20
1.423788937007874
11
0.7422196850393701
21
1.4237285433070865
0
LINE
8
BLACK
6
CONTINUOUS
10
0.7422196850393701
20
1.4237285433070865
11
0.7332208267716536
21
1.4237285433070865
0
LINE
8
BLACK
6
CONTINUOUS
10
0.7332208267716536
20
1.4237285433070865
11
0.732210905511811
21
1.4239066141732284
0
LINE
8
BLACK
6
CONTINUOUS
10
0.732210905511811
20
1.4239066141732284
11
0.7320756299212599
21
1.4240201181102361
0
LINE
8
BLACK
6
CONTINUOUS
10
0.7320756299212599
20
1.4240201181102361
11
0.7319003149606299
21
1.4240402755905512
0
LINE
8
BLACK
6
CONTINUOUS
10
0.7319003149606299
20
1.4240402755905512
11
0.7289006692913386
21
1.4255400787401575
0
LINE
8
BLACK
6
CONTINUOUS
10
0.7289006692913386
20
1.4255400787401575
11
0.7281915354330708
21
1.426066062992126
0
LINE
8
BLACK
6
CONTINUOUS
10
0.7281915354330708
20
1.426066062992126
11
0.7281332283464567
21
1.4260932283464567
0
LINE
8
BLACK
6
CONTINUOUS
10
0.7281332283464567
20
1.4260932283464567
11
0.7266334251968504
21
1.4275930708661417
0
LINE
8
BLACK
6
CONTINUOUS
10
0.7266334251968504
20
1.4275930708661417
11
0.726127125984252
21
1.4283161417322834
0
LINE
8
BLACK
6
CONTINUOUS
10
0.726127125984252
20
1.4283161417322834
11
0.7260803543307086
21
1.4283604330708661
0
LINE
8
BLACK
6
CONTINUOUS
10
0.7260803543307086
20
1.4283604330708661
11
0.7245805511811023
21
1.4313600393700787
0
LINE
8
BLACK
6
CONTINUOUS
10
0.7245805511811023
20
1.4313600393700787
11
0.7242881889763779
21
1.4323429921259843
0
LINE
8
BLACK
6
CONTINUOUS
10
0.7242881889763779
20
1.4323429921259843
11
0.7243291732283464
21
1.43251468503937
0
LINE
8
BLACK
6
CONTINUOUS
10
0.7243291732283464
20
1.43251468503937
11
0.7242688188976378
21
1.4326805511811023
0
LINE
8
BLACK
6
CONTINUOUS
10
0.7242688188976378
20
1.4326805511811023
11
0.7242688188976378
21
1.4401796062992125
0
LINE
8
BLACK
6
CONTINUOUS
10
0.7242688188976378
20
1.4401796062992125
11
0.7244468897637795
21
1.4411895275590552
0
LINE
8
BLACK
6
CONTINUOUS
10
0.7244468897637795
20
1.4411895275590552
11
0.7245603543307086
21
1.4413248031496062
0
LINE
8
BLACK
6
CONTINUOUS
10
0.7245603543307086
20
1.4413248031496062
11
0.7245805511811023
21
1.4415001181102363
0
LINE
8
BLACK
6
CONTINUOUS
10
0.7245805511811023
20
1.4415001181102363
11
0.7260803543307086
21
1.4444997637795276
0
LINE
8
BLACK
6
CONTINUOUS
10
0.7260803543307086
20
1.4444997637795276
11
0.7266062598425197
21
1.4452088582677165
0
LINE
8
BLACK
6
CONTINUOUS
10
0.7266062598425197
20
1.4452088582677165
11
0.7266334645669291
21
1.4452671653543308
0
LINE
8
BLACK
6
CONTINUOUS
10
0.7266334645669291
20
1.4452671653543308
11
0.7281332677165354
21
1.446766968503937
0
LINE
8
BLACK
6
CONTINUOUS
10
0.7281332677165354
20
1.446766968503937
11
0.7288563385826772
21
1.4472732677165354
0
LINE
8
BLACK
6
CONTINUOUS
10
0.7288563385826772
20
1.4472732677165354
11
0.7289006692913386
21
1.4473200787401574
0
LINE
8
BLACK
6
CONTINUOUS
10
0.7289006692913386
20
1.4473200787401574
11
0.7316119685039369
21
1.448675748031496
0
LINE
8
BLACK
6
CONTINUOUS
10
0.7316119685039369
20
1.448675748031496
11
0.7249994094488189
21
1.4562329527559055
0
LINE
8
BLACK
6
CONTINUOUS
10
0.7249994094488189
20
1.4562329527559055
11
0.7247694881889764
21
1.4566128346456693
0
LINE
8
BLACK
6
CONTINUOUS
10
0.7247694881889764
20
1.4566128346456693
11
0.7246644094488189
21
1.4567009842519685
0
LINE
8
BLACK
6
CONTINUOUS
10
0.7246644094488189
20
1.4567009842519685
11
0.7246431496062992
21
1.4568215748031497
0
LINE
8
BLACK
6
CONTINUOUS
10
0.7246431496062992
20
1.4568215748031497
11
0.7244683858267716
21
1.4571102755905512
0
LINE
8
BLACK
6
CONTINUOUS
10
0.7244683858267716
20
1.4571102755905512
11
0.7244518897637795
21
1.4579061417322834
0
LINE
8
BLACK
6
CONTINUOUS
10
0.7244518897637795
20
1.4579061417322834
11
0.7243136614173228
21
1.4586901181102361
0
LINE
8
BLACK
6
CONTINUOUS
10
0.7243136614173228
20
1.4586901181102361
11
0.7244314173228347
21
1.4588941338582677
0
LINE
8
BLACK
6
CONTINUOUS
10
0.7244314173228347
20
1.4588941338582677
11
0.7244265748031495
21
1.4591296456692913
0
LINE
8
BLACK
6
CONTINUOUS
10
0.7244265748031495
20
1.4591296456692913
11
0.7249255511811024
21
1.4597499606299211
0
LINE
8
BLACK
6
CONTINUOUS
10
0.7249255511811024
20
1.4597499606299211
11
0.7253235826771653
21
1.4604392913385826
0
LINE
8
BLACK
6
CONTINUOUS
10
0.7253235826771653
20
1.4604392913385826
11
0.7255449212598425
21
1.4605198818897638
0
LINE
8
BLACK
6
CONTINUOUS
10
0.7255449212598425
20
1.4605198818897638
11
0.7256925984251968
21
1.4607034251968503
0
LINE
8
BLACK
6
CONTINUOUS
10
0.7256925984251968
20
1.4607034251968503
11
0.7264735433070866
21
1.4608578740157481
0
LINE
8
BLACK
6
CONTINUOUS
10
0.7264735433070866
20
1.4608578740157481
11
0.7272215748031496
21
1.4611301181102363
0
LINE
8
BLACK
6
CONTINUOUS
10
0.7272215748031496
20
1.4611301181102363
11
0.7467191338582677
21
1.4611301181102363
0
LINE
8
BLACK
6
CONTINUOUS
10
0.7467191338582677
20
1.4611301181102363
11
0.7477290551181102
21
1.4609520472440944
0
LINE
8
BLACK
6
CONTINUOUS
10
0.7755990551181102
20
1.4610625196850393
11
0.7757283070866141
21
1.4610852755905512
0
LINE
8
BLACK
6
CONTINUOUS
10
0.7757283070866141
20
1.4610852755905512
11
0.7758418897637795
21
1.46101968503937
0
LINE
8
BLACK
6
CONTINUOUS
10
0.7758418897637795
20
1.46101968503937
11
0.7762254724409449
21
1.4609520472440944
0
LINE
8
BLACK
6
CONTINUOUS
10
0.7762254724409449
20
1.4609520472440944
11
0.7768131496062992
21
1.460458937007874
0
LINE
8
BLACK
6
CONTINUOUS
10
0.7768131496062992
20
1.460458937007874
11
0.7774774803149607
21
1.4600753543307086
0
LINE
8
BLACK
6
CONTINUOUS
10
0.7774774803149607
20
1.4600753543307086
11
0.7775685826771653
21
1.4598250393700787
0
LINE
8
BLACK
6
CONTINUOUS
10
0.7775685826771653
20
1.4598250393700787
11
0.777772716535433
21
1.4596537401574803
0
LINE
8
BLACK
6
CONTINUOUS
10
0.777772716535433
20
1.4596537401574803
11
0.7779059448818898
21
1.4588981889763779
0
LINE
8
BLACK
6
CONTINUOUS
10
0.7779059448818898
20
1.4588981889763779
11
0.7781683070866141
21
1.4581773622047243
0
LINE
8
BLACK
6
CONTINUOUS
10
0.7781683070866141
20
1.4581773622047243
11
0.7781683070866141
21
1.4266812992125983
0
LINE
8
BLACK
6
CONTINUOUS
10
0.7781683070866141
20
1.4266812992125983
11
0.7779902362204725
21
1.4256713779527559
0
LINE
8
BLACK
6
CONTINUOUS
10
0.7779902362204725
20
1.4256713779527559
11
0.7766919291338582
21
1.4241241338582677
0
LINE
8
BLACK
6
CONTINUOUS
10
0.7766919291338582
20
1.4241241338582677
11
0.7747027952755905
21
1.4237733858267716
0
LINE
8
BLACK
6
CONTINUOUS
10
0.7747027952755905
20
1.4237733858267716
11
0.772953622047244
21
1.424783307086614
0
LINE
8
BLACK
6
CONTINUOUS
10
0.772953622047244
20
1.424783307086614
11
0.7722627952755905
21
1.4266812992125983
0
LINE
8
BLACK
6
CONTINUOUS
10
0.7722627952755905
20
1.4266812992125983
11
0.7722627952755905
21
1.4387266929133857
0
LINE
8
BLACK
6
CONTINUOUS
10
0.7722627952755905
20
1.4387266929133857
11
0.7692538582677165
21
1.4387266929133857
0
LINE
8
BLACK
6
CONTINUOUS
10
0.7692538582677165
20
1.4387266929133857
11
0.7596367716535433
21
1.4249879921259843
0
LINE
8
BLACK
6
CONTINUOUS
10
0.7596367716535433
20
1.4249879921259843
11
0.7589117716535433
21
1.4242627559055119
0
LINE
8
BLACK
6
CONTINUOUS
10
0.7589117716535433
20
1.4242627559055119
11
0.7569608661417323
21
1.4237397244094487
0
LINE
8
BLACK
6
CONTINUOUS
10
0.7569608661417323
20
1.4237397244094487
11
0.755130157480315
21
1.4245930708661416
0
LINE
8
BLACK
6
CONTINUOUS
10
0.755130157480315
20
1.4245930708661416
11
0.7542763385826772
21
1.4264235433070866
0
LINE
8
BLACK
6
CONTINUOUS
10
0.7542763385826772
20
1.4264235433070866
11
0.7547988188976378
21
1.4283746062992126
0
LINE
8
BLACK
6
CONTINUOUS
10
0.7547988188976378
20
1.4283746062992126
11
0.7621836614173229
21
1.4389244488188977
0
LINE
8
BLACK
6
CONTINUOUS
10
0.7621836614173229
20
1.4389244488188977
11
0.7620718503937007
21
1.4390182677165353
0
LINE
8
BLACK
6
CONTINUOUS
10
0.7620718503937007
20
1.4390182677165353
11
0.7618965354330709
21
1.4390384251968504
0
LINE
8
BLACK
6
CONTINUOUS
10
0.7618965354330709
20
1.4390384251968504
11
0.7588969291338582
21
1.4405382283464567
0
LINE
8
BLACK
6
CONTINUOUS
10
0.7588969291338582
20
1.4405382283464567
11
0.7581878346456693
21
1.4410641338582677
0
LINE
8
BLACK
6
CONTINUOUS
10
0.7581878346456693
20
1.4410641338582677
11
0.758129527559055
21
1.4410913385826771
0
LINE
8
BLACK
6
CONTINUOUS
10
0.758129527559055
20
1.4410913385826771
11
0.7566297244094488
21
1.4425911417322834
0
LINE
8
BLACK
6
CONTINUOUS
10
0.7566297244094488
20
1.4425911417322834
11
0.7561234251968504
21
1.4433142519685038
0
LINE
8
BLACK
6
CONTINUOUS
10
0.7561234251968504
20
1.4433142519685038
11
0.7560766141732284
21
1.4433585433070866
0
LINE
8
BLACK
6
CONTINUOUS
10
0.7560766141732284
20
1.4433585433070866
11
0.7545767716535433
21
1.4463581889763779
0
LINE
8
BLACK
6
CONTINUOUS
10
0.7545767716535433
20
1.4463581889763779
11
0.7542844094488189
21
1.4473411023622047
0
LINE
8
BLACK
6
CONTINUOUS
10
0.7542844094488189
20
1.4473411023622047
11
0.7543253937007874
21
1.4475128346456692
0
LINE
8
BLACK
6
CONTINUOUS
10
0.7543253937007874
20
1.4475128346456692
11
0.7542650393700787
21
1.4476787007874015
0
LINE
8
BLACK
6
CONTINUOUS
10
0.7542650393700787
20
1.4476787007874015
11
0.7542650393700787
21
1.4521781102362203
0
LINE
8
BLACK
6
CONTINUOUS
10
0.7542650393700787
20
1.4521781102362203
11
0.7544431102362205
21
1.453188031496063
0
LINE
8
BLACK
6
CONTINUOUS
10
0.7544431102362205
20
1.453188031496063
11
0.7545565748031496
21
1.4533233070866141
0
LINE
8
BLACK
6
CONTINUOUS
10
0.7545565748031496
20
1.4533233070866141
11
0.7545767716535433
21
1.4534986220472441
0
LINE
8
BLACK
6
CONTINUOUS
10
0.7545767716535433
20
1.4534986220472441
11
0.7560766141732284
21
1.4564982677165355
0
LINE
8
BLACK
6
CONTINUOUS
10
0.7560766141732284
20
1.4564982677165355
11
0.7566024409448818
21
1.4572072440944881
0
LINE
8
BLACK
6
CONTINUOUS
10
0.7566024409448818
20
1.4572072440944881
11
0.7566297244094488
21
1.4572656692913386
0
LINE
8
BLACK
6
CONTINUOUS
10
0.7566297244094488
20
1.4572656692913386
11
0.758129527559055
21
1.4587654724409449
0
LINE
8
BLACK
6
CONTINUOUS
10
0.758129527559055
20
1.4587654724409449
11
0.7588525984251968
21
1.4592717716535433
0
LINE
8
BLACK
6
CONTINUOUS
10
0.7588525984251968
20
1.4592717716535433
11
0.7588969291338582
21
1.4593185826771653
0
LINE
8
BLACK
6
CONTINUOUS
10
0.7588969291338582
20
1.4593185826771653
11
0.7618965354330709
21
1.4608183858267716
0
LINE
8
BLACK
6
CONTINUOUS
10
0.7618965354330709
20
1.4608183858267716
11
0.7628794881889763
21
1.461110748031496
0
LINE
8
BLACK
6
CONTINUOUS
10
0.7628794881889763
20
1.461110748031496
11
0.7630511417322835
21
1.4610697637795276
0
LINE
8
BLACK
6
CONTINUOUS
10
0.7630511417322835
20
1.4610697637795276
11
0.7632170472440944
21
1.4611301181102363
0
LINE
8
BLACK
6
CONTINUOUS
10
0.7632170472440944
20
1.4611301181102363
11
0.7752155511811023
21
1.4611301181102363
0
LINE
8
BLACK
6
CONTINUOUS
10
0.7752155511811023
20
1.4611301181102363
11
0.7755990551181102
21
1.4610625196850393
0
LINE
8
BLACK
6
CONTINUOUS
10
0.7619665354330708
20
1.4542508267716534
11
0.7611443700787401
21
1.4534287007874016
0
LINE
8
BLACK
6
CONTINUOUS
10
0.7611443700787401
20
1.4534287007874016
11
0.7601705511811023
21
1.451481062992126
0
LINE
8
BLACK
6
CONTINUOUS
10
0.7601705511811023
20
1.451481062992126
11
0.7601705511811023
21
1.4483757874015748
0
LINE
8
BLACK
6
CONTINUOUS
10
0.7601705511811023
20
1.4483757874015748
11
0.7611443700787401
21
1.4464281496062992
0
LINE
8
BLACK
6
CONTINUOUS
10
0.7611443700787401
20
1.4464281496062992
11
0.7619665354330708
21
1.4456059842519684
0
LINE
8
BLACK
6
CONTINUOUS
10
0.7619665354330708
20
1.4456059842519684
11
0.7639140944881889
21
1.4446322047244093
0
LINE
8
BLACK
6
CONTINUOUS
10
0.7639140944881889
20
1.4446322047244093
11
0.7722627952755905
21
1.4446322047244093
0
LINE
8
BLACK
6
CONTINUOUS
10
0.7722627952755905
20
1.4446322047244093
11
0.7722627952755905
21
1.4552246062992125
0
LINE
8
BLACK
6
CONTINUOUS
10
0.7722627952755905
20
1.4552246062992125
11
0.7639140944881889
21
1.4552246062992125
0
LINE
8
BLACK
6
CONTINUOUS
10
0.7639140944881889
20
1.4552246062992125
11
0.7619665354330708
21
1.4542508267716534
0
LINE
8
BLACK
6
CONTINUOUS
10
0.8038093700787401
20
1.4728114173228346
11
0.803978779527559
21
1.4728223228346455
0
LINE
8
BLACK
6
CONTINUOUS
10
0.803978779527559
20
1.4728223228346455
11
0.8046693700787402
21
1.4723148818897638
0
LINE
8
BLACK
6
CONTINUOUS
10
0.8046693700787402
20
1.4723148818897638
11
0.8054114960629921
21
1.4718863779527558
0
LINE
8
BLACK
6
CONTINUOUS
10
0.8054114960629921
20
1.4718863779527558
11
0.8054695275590551
21
1.4717268897637794
0
LINE
8
BLACK
6
CONTINUOUS
10
0.8054695275590551
20
1.4717268897637794
11
0.8056064173228347
21
1.4716262992125984
0
LINE
8
BLACK
6
CONTINUOUS
10
0.8056064173228347
20
1.4716262992125984
11
0.8084438976377952
21
1.4673700787401573
0
LINE
8
BLACK
6
CONTINUOUS
10
0.8084438976377952
20
1.4673700787401573
11
0.8108979133858267
21
1.4649161023622046
0
LINE
8
BLACK
6
CONTINUOUS
10
0.8108979133858267
20
1.4649161023622046
11
0.8134689763779528
21
1.4636305511811023
0
LINE
8
BLACK
6
CONTINUOUS
10
0.8134689763779528
20
1.4636305511811023
11
0.8142926377952756
21
1.4630196456692912
0
LINE
8
BLACK
6
CONTINUOUS
10
0.8142926377952756
20
1.4630196456692912
11
0.815095905511811
21
1.4611664566929135
0
LINE
8
BLACK
6
CONTINUOUS
10
0.815095905511811
20
1.4611664566929135
11
0.8145200787401574
21
1.4592304724409448
0
LINE
8
BLACK
6
CONTINUOUS
10
0.8145200787401574
20
1.4592304724409448
11
0.8128345275590551
21
1.4581175984251968
0
LINE
8
BLACK
6
CONTINUOUS
10
0.8128345275590551
20
1.4581175984251968
11
0.8108279527559055
21
1.4583485039370079
0
LINE
8
BLACK
6
CONTINUOUS
10
0.8108279527559055
20
1.4583485039370079
11
0.8078283070866141
21
1.4598483070866142
0
LINE
8
BLACK
6
CONTINUOUS
10
0.8078283070866141
20
1.4598483070866142
11
0.8071192519685039
21
1.4603742125984251
0
LINE
8
BLACK
6
CONTINUOUS
10
0.8071192519685039
20
1.4603742125984251
11
0.807060905511811
21
1.4604014173228346
0
LINE
8
BLACK
6
CONTINUOUS
10
0.807060905511811
20
1.4604014173228346
11
0.8061023228346457
21
1.4613600393700787
0
LINE
8
BLACK
6
CONTINUOUS
10
0.8061023228346457
20
1.4613600393700787
11
0.8061023228346457
21
1.4414450787401574
0
LINE
8
BLACK
6
CONTINUOUS
10
0.8061023228346457
20
1.4414450787401574
11
0.8121484645669291
21
1.4414450787401574
0
LINE
8
BLACK
6
CONTINUOUS
10
0.8121484645669291
20
1.4414450787401574
11
0.8131583858267717
21
1.4412670078740157
0
LINE
8
BLACK
6
CONTINUOUS
10
0.8131583858267717
20
1.4412670078740157
11
0.8147056299212598
21
1.4399687007874016
0
LINE
8
BLACK
6
CONTINUOUS
10
0.8147056299212598
20
1.4399687007874016
11
0.8150563779527559
21
1.4379795669291338
0
LINE
8
BLACK
6
CONTINUOUS
10
0.8150563779527559
20
1.4379795669291338
11
0.8140464566929134
21
1.4362303937007874
0
LINE
8
BLACK
6
CONTINUOUS
10
0.8140464566929134
20
1.4362303937007874
11
0.8121484645669291
21
1.4355395669291338
0
LINE
8
BLACK
6
CONTINUOUS
10
0.8121484645669291
20
1.4355395669291338
11
0.7941507086614173
21
1.4355395669291338
0
LINE
8
BLACK
6
CONTINUOUS
10
0.7941507086614173
20
1.4355395669291338
11
0.7931407874015748
21
1.4357176377952756
0
LINE
8
BLACK
6
CONTINUOUS
10
0.7931407874015748
20
1.4357176377952756
11
0.7915935433070866
21
1.4370159448818898
0
LINE
8
BLACK
6
CONTINUOUS
10
0.7915935433070866
20
1.4370159448818898
11
0.7912427952755905
21
1.4390050787401574
0
LINE
8
BLACK
6
CONTINUOUS
10
0.7912427952755905
20
1.4390050787401574
11
0.7922527165354331
21
1.4407542519685039
0
LINE
8
BLACK
6
CONTINUOUS
10
0.7922527165354331
20
1.4407542519685039
11
0.7941507086614173
21
1.4414450787401574
0
LINE
8
BLACK
6
CONTINUOUS
10
0.7941507086614173
20
1.4414450787401574
11
0.8001968110236221
21
1.4414450787401574
0
LINE
8
BLACK
6
CONTINUOUS
10
0.8001968110236221
20
1.4414450787401574
11
0.8001968110236221
21
1.4699883858267717
0
LINE
8
BLACK
6
CONTINUOUS
10
0.8001968110236221
20
1.4699883858267717
11
0.8003748818897638
21
1.4709983070866142
0
LINE
8
BLACK
6
CONTINUOUS
10
0.8003748818897638
20
1.4709983070866142
11
0.8004840157480315
21
1.4711283858267716
0
LINE
8
BLACK
6
CONTINUOUS
10
0.8004840157480315
20
1.4711283858267716
11
0.8005026771653543
21
1.471297125984252
0
LINE
8
BLACK
6
CONTINUOUS
10
0.8005026771653543
20
1.471297125984252
11
0.8011223622047244
21
1.4718891732283463
0
LINE
8
BLACK
6
CONTINUOUS
10
0.8011223622047244
20
1.4718891732283463
11
0.801673188976378
21
1.4725455511811023
0
LINE
8
BLACK
6
CONTINUOUS
10
0.801673188976378
20
1.4725455511811023
11
0.8018403543307087
21
1.4725750393700787
0
LINE
8
BLACK
6
CONTINUOUS
10
0.8018403543307087
20
1.4725750393700787
11
0.8019631496062992
21
1.4726923228346456
0
LINE
8
BLACK
6
CONTINUOUS
10
0.8019631496062992
20
1.4726923228346456
11
0.8028183464566929
21
1.4727474803149605
0
LINE
8
BLACK
6
CONTINUOUS
10
0.8028183464566929
20
1.4727474803149605
11
0.8036623228346457
21
1.4728962992125985
0
LINE
8
BLACK
6
CONTINUOUS
10
0.8036623228346457
20
1.4728962992125985
11
0.8038093700787401
21
1.4728114173228346
0
LINE
8
BLACK
6
CONTINUOUS
10
0.8340151968503937
20
1.4727878740157481
11
0.8340795669291339
21
1.4727896062992125
0
LINE
8
BLACK
6
CONTINUOUS
10
0.8340795669291339
20
1.4727896062992125
11
0.8385790157480315
21
1.4712898031496062
0
LINE
8
BLACK
6
CONTINUOUS
10
0.8385790157480315
20
1.4712898031496062
11
0.8394807874015748
21
1.4708015354330708
0
LINE
8
BLACK
6
CONTINUOUS
10
0.8394807874015748
20
1.4708015354330708
11
0.8395731889763779
21
1.4706511023622046
0
LINE
8
BLACK
6
CONTINUOUS
10
0.8395731889763779
20
1.4706511023622046
11
0.8397331889763779
21
1.4705764960629921
0
LINE
8
BLACK
6
CONTINUOUS
10
0.8397331889763779
20
1.4705764960629921
11
0.8427327952755905
21
1.4675768897637795
0
LINE
8
BLACK
6
CONTINUOUS
10
0.8427327952755905
20
1.4675768897637795
11
0.8432391732283464
21
1.4668537401574804
0
LINE
8
BLACK
6
CONTINUOUS
10
0.8432391732283464
20
1.4668537401574804
11
0.843285905511811
21
1.4668094881889764
0
LINE
8
BLACK
6
CONTINUOUS
10
0.843285905511811
20
1.4668094881889764
11
0.8447857086614173
21
1.463809842519685
0
LINE
8
BLACK
6
CONTINUOUS
10
0.8447857086614173
20
1.463809842519685
11
0.8449309842519684
21
1.4633214173228346
0
LINE
8
BLACK
6
CONTINUOUS
10
0.8449309842519684
20
1.4633214173228346
11
0.8450092913385827
21
1.4632055118110237
0
LINE
8
BLACK
6
CONTINUOUS
10
0.8450092913385827
20
1.4632055118110237
11
0.8465091338582676
21
1.457206220472441
0
LINE
8
BLACK
6
CONTINUOUS
10
0.8465091338582676
20
1.457206220472441
11
0.8465505905511811
21
1.4566183464566929
0
LINE
8
BLACK
6
CONTINUOUS
10
0.8465505905511811
20
1.4566183464566929
11
0.8465972834645669
21
1.4564900787401573
0
LINE
8
BLACK
6
CONTINUOUS
10
0.8465972834645669
20
1.4564900787401573
11
0.8465972834645669
21
1.4519906299212597
0
LINE
8
BLACK
6
CONTINUOUS
10
0.8465972834645669
20
1.4519906299212597
11
0.8464949212598425
21
1.4514102755905511
0
LINE
8
BLACK
6
CONTINUOUS
10
0.8464949212598425
20
1.4514102755905511
11
0.8465091338582676
21
1.4512744881889763
0
LINE
8
BLACK
6
CONTINUOUS
10
0.8465091338582676
20
1.4512744881889763
11
0.8450092913385827
21
1.4452751968503936
0
LINE
8
BLACK
6
CONTINUOUS
10
0.8450092913385827
20
1.4452751968503936
11
0.8448016535433071
21
1.4448097244094489
0
LINE
8
BLACK
6
CONTINUOUS
10
0.8448016535433071
20
1.4448097244094489
11
0.8447857086614173
21
1.4446708661417322
0
LINE
8
BLACK
6
CONTINUOUS
10
0.8447857086614173
20
1.4446708661417322
11
0.843285905511811
21
1.4416712598425196
0
LINE
8
BLACK
6
CONTINUOUS
10
0.843285905511811
20
1.4416712598425196
11
0.8427600393700787
21
1.440962283464567
0
LINE
8
BLACK
6
CONTINUOUS
10
0.8427600393700787
20
1.440962283464567
11
0.8427328346456693
21
1.4409038976377953
0
LINE
8
BLACK
6
CONTINUOUS
10
0.8427328346456693
20
1.4409038976377953
11
0.8397331889763779
21
1.4379042125984252
0
LINE
8
BLACK
6
CONTINUOUS
10
0.8397331889763779
20
1.4379042125984252
11
0.8388931889763779
21
1.4373160236220472
0
LINE
8
BLACK
6
CONTINUOUS
10
0.8388931889763779
20
1.4373160236220472
11
0.8387172440944882
21
1.4373006692913386
0
LINE
8
BLACK
6
CONTINUOUS
10
0.8387172440944882
20
1.4373006692913386
11
0.8385790157480315
21
1.4371909055118111
0
LINE
8
BLACK
6
CONTINUOUS
10
0.8385790157480315
20
1.4371909055118111
11
0.8340795669291339
21
1.4356911023622048
0
LINE
8
BLACK
6
CONTINUOUS
10
0.8340795669291339
20
1.4356911023622048
11
0.8332063779527559
21
1.4355616535433071
0
LINE
8
BLACK
6
CONTINUOUS
10
0.8332063779527559
20
1.4355616535433071
11
0.8331458267716535
21
1.4355395669291338
0
LINE
8
BLACK
6
CONTINUOUS
10
0.8331458267716535
20
1.4355395669291338
11
0.8301461811023622
21
1.4355395669291338
0
LINE
8
BLACK
6
CONTINUOUS
10
0.8301461811023622
20
1.4355395669291338
11
0.8292767716535433
21
1.435692874015748
0
LINE
8
BLACK
6
CONTINUOUS
10
0.8292767716535433
20
1.435692874015748
11
0.8292124409448819
21
1.4356911023622048
0
LINE
8
BLACK
6
CONTINUOUS
10
0.8292124409448819
20
1.4356911023622048
11
0.824713031496063
21
1.4371909055118111
0
LINE
8
BLACK
6
CONTINUOUS
10
0.824713031496063
20
1.4371909055118111
11
0.8238112598425197
21
1.4376792125984252
0
LINE
8
BLACK
6
CONTINUOUS
10
0.8238112598425197
20
1.4376792125984252
11
0.8237188582677165
21
1.4378296062992126
0
LINE
8
BLACK
6
CONTINUOUS
10
0.8237188582677165
20
1.4378296062992126
11
0.8235588582677165
21
1.4379042125984252
0
LINE
8
BLACK
6
CONTINUOUS
10
0.8235588582677165
20
1.4379042125984252
11
0.8220590157480315
21
1.4394040551181102
0
LINE
8
BLACK
6
CONTINUOUS
10
0.8220590157480315
20
1.4394040551181102
11
0.8214708267716535
21
1.4402440944881889
0
LINE
8
BLACK
6
CONTINUOUS
10
0.8214708267716535
20
1.4402440944881889
11
0.8212947637795276
21
1.4422561811023622
0
LINE
8
BLACK
6
CONTINUOUS
10
0.8212947637795276
20
1.4422561811023622
11
0.8224533070866141
21
1.4439107480314961
0
LINE
8
BLACK
6
CONTINUOUS
10
0.8224533070866141
20
1.4439107480314961
11
0.8244042519685039
21
1.444433464566929
0
LINE
8
BLACK
6
CONTINUOUS
10
0.8244042519685039
20
1.444433464566929
11
0.826234842519685
21
1.4435798818897638
0
LINE
8
BLACK
6
CONTINUOUS
10
0.826234842519685
20
1.4435798818897638
11
0.827241811023622
21
1.4425729133858267
0
LINE
8
BLACK
6
CONTINUOUS
10
0.827241811023622
20
1.4425729133858267
11
0.8306253149606299
21
1.4414450787401574
0
LINE
8
BLACK
6
CONTINUOUS
10
0.8306253149606299
20
1.4414450787401574
11
0.8326666929133858
21
1.4414450787401574
0
LINE
8
BLACK
6
CONTINUOUS
10
0.8326666929133858
20
1.4414450787401574
11
0.8360501968503937
21
1.4425729133858267
0
LINE
8
BLACK
6
CONTINUOUS
10
0.8360501968503937
20
1.4425729133858267
11
0.8382181102362205
21
1.4447408661417322
0
LINE
8
BLACK
6
CONTINUOUS
10
0.8382181102362205
20
1.4447408661417322
11
0.8393586614173228
21
1.4470219291338582
0
LINE
8
BLACK
6
CONTINUOUS
10
0.8393586614173228
20
1.4470219291338582
11
0.8406917716535433
21
1.452354251968504
0
LINE
8
BLACK
6
CONTINUOUS
10
0.8406917716535433
20
1.452354251968504
11
0.8406917716535433
21
1.456126496062992
0
LINE
8
BLACK
6
CONTINUOUS
10
0.8406917716535433
20
1.456126496062992
11
0.8393586614173228
21
1.4614588582677166
0
LINE
8
BLACK
6
CONTINUOUS
10
0.8393586614173228
20
1.4614588582677166
11
0.8382181102362205
21
1.4637399212598425
0
LINE
8
BLACK
6
CONTINUOUS
10
0.8382181102362205
20
1.4637399212598425
11
0.8360502362204725
21
1.4659077952755906
0
LINE
8
BLACK
6
CONTINUOUS
10
0.8360502362204725
20
1.4659077952755906
11
0.8326666929133858
21
1.4670356299212599
0
LINE
8
BLACK
6
CONTINUOUS
10
0.8326666929133858
20
1.4670356299212599
11
0.8306253149606299
21
1.4670356299212599
0
LINE
8
BLACK
6
CONTINUOUS
10
0.8306253149606299
20
1.4670356299212599
11
0.8272417716535433
21
1.4659077952755906
0
LINE
8
BLACK
6
CONTINUOUS
10
0.8272417716535433
20
1.4659077952755906
11
0.8262348031496063
21
1.4649008267716535
0
LINE
8
BLACK
6
CONTINUOUS
10
0.8262348031496063
20
1.4649008267716535
11
0.8253947637795276
21
1.4643126377952755
0
LINE
8
BLACK
6
CONTINUOUS
10
0.8253947637795276
20
1.4643126377952755
11
0.8233826771653543
21
1.4641366535433071
0
LINE
8
BLACK
6
CONTINUOUS
10
0.8233826771653543
20
1.4641366535433071
11
0.8217281102362205
21
1.4652951968503938
0
LINE
8
BLACK
6
CONTINUOUS
10
0.8217281102362205
20
1.4652951968503938
11
0.8212054330708661
21
1.4672461417322835
0
LINE
8
BLACK
6
CONTINUOUS
10
0.8212054330708661
20
1.4672461417322835
11
0.8220590551181102
21
1.4690767322834646
0
LINE
8
BLACK
6
CONTINUOUS
10
0.8220590551181102
20
1.4690767322834646
11
0.8235588976377952
21
1.4705765354330709
0
LINE
8
BLACK
6
CONTINUOUS
10
0.8235588976377952
20
1.4705765354330709
11
0.824398937007874
21
1.4711647244094488
0
LINE
8
BLACK
6
CONTINUOUS
10
0.824398937007874
20
1.4711647244094488
11
0.8245747637795275
21
1.4711801181102362
0
LINE
8
BLACK
6
CONTINUOUS
10
0.8245747637795275
20
1.4711801181102362
11
0.824713031496063
21
1.4712898031496062
0
LINE
8
BLACK
6
CONTINUOUS
10
0.824713031496063
20
1.4712898031496062
11
0.8292124409448819
21
1.4727896062992125
0
LINE
8
BLACK
6
CONTINUOUS
10
0.8292124409448819
20
1.4727896062992125
11
0.830085590551181
21
1.4729190944881889
0
LINE
8
BLACK
6
CONTINUOUS
10
0.830085590551181
20
1.4729190944881889
11
0.8301461811023622
21
1.4729411417322835
0
LINE
8
BLACK
6
CONTINUOUS
10
0.8301461811023622
20
1.4729411417322835
11
0.8331458267716535
21
1.4729411417322835
0
LINE
8
BLACK
6
CONTINUOUS
10
0.8331458267716535
20
1.4729411417322835
11
0.8340151968503937
21
1.4727878740157481
0
LINE
8
BLACK
6
CONTINUOUS
10
0.8091999212598425
20
1.4806073228346457
11
0.8098918110236221
21
1.4789370078740156
0
LINE
8
BLACK
6
CONTINUOUS
10
0.8098918110236221
20
1.4789370078740156
11
0.8091999212598425
21
1.4772666929133857
0
LINE
8
BLACK
6
CONTINUOUS
10
0.8091999212598425
20
1.4772666929133857
11
0.8075296062992126
21
1.4765748031496062
0
LINE
8
BLACK
6
CONTINUOUS
10
0.8075296062992126
20
1.4765748031496062
11
0.7869585826771653
21
1.4765748031496062
0
LINE
8
BLACK
6
CONTINUOUS
10
0.7869585826771653
20
1.4765748031496062
11
0.7852882677165354
21
1.4772666929133857
0
LINE
8
BLACK
6
CONTINUOUS
10
0.7852882677165354
20
1.4772666929133857
11
0.7845963779527559
21
1.4789370078740156
0
LINE
8
BLACK
6
CONTINUOUS
10
0.7845963779527559
20
1.4789370078740156
11
0.7852882677165354
21
1.4806073228346457
0
LINE
8
BLACK
6
CONTINUOUS
10
0.7852882677165354
20
1.4806073228346457
11
0.7869585826771653
21
1.4812992125984252
0
LINE
8
BLACK
6
CONTINUOUS
10
0.7869585826771653
20
1.4812992125984252
11
0.8075296062992126
21
1.4812992125984252
0
LINE
8
BLACK
6
CONTINUOUS
10
0.8075296062992126
20
1.4812992125984252
11
0.8091999212598425
21
1.4806073228346457
0
LINE
8
BLACK
6
CONTINUOUS
10
0.9469951968503937
20
1.4806073228346457
11
0.9476870866141732
21
1.4789370078740156
0
LINE
8
BLACK
6
CONTINUOUS
10
0.9476870866141732
20
1.4789370078740156
11
0.9469951968503937
21
1.4772666929133857
0
LINE
8
BLACK
6
CONTINUOUS
10
0.9469951968503937
20
1.4772666929133857
11
0.9453248818897637
21
1.4765748031496062
0
LINE
8
BLACK
6
CONTINUOUS
10
0.9453248818897637
20
1.4765748031496062
11
0.9247538582677165
21
1.4765748031496062
0
LINE
8
BLACK
6
CONTINUOUS
10
0.9247538582677165
20
1.4765748031496062
11
0.9230835433070866
21
1.4772666929133857
0
LINE
8
BLACK
6
CONTINUOUS
10
0.9230835433070866
20
1.4772666929133857
11
0.9223916535433071
21
1.4789370078740156
0
LINE
8
BLACK
6
CONTINUOUS
10
0.9223916535433071
20
1.4789370078740156
11
0.9230835433070866
21
1.4806073228346457
0
LINE
8
BLACK
6
CONTINUOUS
10
0.9230835433070866
20
1.4806073228346457
11
0.9247538582677165
21
1.4812992125984252
0
LINE
8
BLACK
6
CONTINUOUS
10
0.9247538582677165
20
1.4812992125984252
11
0.9453248818897637
21
1.4812992125984252
0
LINE
8
BLACK
6
CONTINUOUS
10
0.9453248818897637
20
1.4812992125984252
11
0.9469951968503937
21
1.4806073228346457
0
LINE
8
BLACK
6
CONTINUOUS
10
1.0291313779527558
20
1.5278811811023623
11
1.0292666141732283
21
1.5277677165354331
0
LINE
8
BLACK
6
CONTINUOUS
10
1.0292666141732283
20
1.5277677165354331
11
1.0294419685039369
21
1.5277475196850394
0
LINE
8
BLACK
6
CONTINUOUS
10
1.0294419685039369
20
1.5277475196850394
11
1.0324415748031497
21
1.5262477165354331
0
LINE
8
BLACK
6
CONTINUOUS
10
1.0324415748031497
20
1.5262477165354331
11
1.0331505511811023
21
1.5257218897637794
0
LINE
8
BLACK
6
CONTINUOUS
10
1.0331505511811023
20
1.5257218897637794
11
1.0332089370078741
21
1.5256946456692912
0
LINE
8
BLACK
6
CONTINUOUS
10
1.0332089370078741
20
1.5256946456692912
11
1.0347087795275591
21
1.524194842519685
0
LINE
8
BLACK
6
CONTINUOUS
10
1.0347087795275591
20
1.524194842519685
11
1.0352970078740158
21
1.5233548031496063
0
LINE
8
BLACK
6
CONTINUOUS
10
1.0352970078740158
20
1.5233548031496063
11
1.0354730708661417
21
1.521342716535433
0
LINE
8
BLACK
6
CONTINUOUS
10
1.0354730708661417
20
1.521342716535433
11
1.0343145669291338
21
1.5196881496062993
0
LINE
8
BLACK
6
CONTINUOUS
10
1.0343145669291338
20
1.5196881496062993
11
1.0323635826771653
21
1.5191653937007874
0
LINE
8
BLACK
6
CONTINUOUS
10
1.0323635826771653
20
1.5191653937007874
11
1.030533031496063
21
1.520018937007874
0
LINE
8
BLACK
6
CONTINUOUS
10
1.030533031496063
20
1.520018937007874
11
1.0293719685039371
21
1.5211799606299212
0
LINE
8
BLACK
6
CONTINUOUS
10
1.0293719685039371
20
1.5211799606299212
11
1.027424409448819
21
1.5221537401574803
0
LINE
8
BLACK
6
CONTINUOUS
10
1.027424409448819
20
1.5221537401574803
11
1.0213194488188977
21
1.5221537401574803
0
LINE
8
BLACK
6
CONTINUOUS
10
1.0213194488188977
20
1.5221537401574803
11
1.0193718110236221
21
1.5211799606299212
0
LINE
8
BLACK
6
CONTINUOUS
10
1.0193718110236221
20
1.5211799606299212
11
1.01854968503937
21
1.5203578346456692
0
LINE
8
BLACK
6
CONTINUOUS
10
1.01854968503937
20
1.5203578346456692
11
1.017575905511811
21
1.5184102362204723
0
LINE
8
BLACK
6
CONTINUOUS
10
1.017575905511811
20
1.5184102362204723
11
1.017575905511811
21
1.5165867716535433
0
LINE
8
BLACK
6
CONTINUOUS
10
1.017575905511811
20
1.5165867716535433
11
1.0187037401574803
21
1.5132032283464567
0
LINE
8
BLACK
6
CONTINUOUS
10
1.0187037401574803
20
1.5132032283464567
11
1.0362086220472442
21
1.4956983464566929
0
LINE
8
BLACK
6
CONTINUOUS
10
1.0362086220472442
20
1.4956983464566929
11
1.0365783858267716
21
1.4951703149606299
0
LINE
8
BLACK
6
CONTINUOUS
10
1.0365783858267716
20
1.4951703149606299
11
1.0366778740157481
21
1.495086811023622
0
LINE
8
BLACK
6
CONTINUOUS
10
1.0366778740157481
20
1.495086811023622
11
1.0366916535433071
21
1.4950085039370078
0
LINE
8
BLACK
6
CONTINUOUS
10
1.0366916535433071
20
1.4950085039370078
11
1.0367968503937008
21
1.4948583070866142
0
LINE
8
BLACK
6
CONTINUOUS
10
1.0367968503937008
20
1.4948583070866142
11
1.0368742913385827
21
1.4939727559055118
0
LINE
8
BLACK
6
CONTINUOUS
10
1.0368742913385827
20
1.4939727559055118
11
1.037028622047244
21
1.4930976771653544
0
LINE
8
BLACK
6
CONTINUOUS
10
1.037028622047244
20
1.4930976771653544
11
1.0369611023622047
21
1.4929807480314961
0
LINE
8
BLACK
6
CONTINUOUS
10
1.0369611023622047
20
1.4929807480314961
11
1.036972874015748
21
1.4928461811023621
0
LINE
8
BLACK
6
CONTINUOUS
10
1.036972874015748
20
1.4928461811023621
11
1.0364629921259843
21
1.4921180314960629
0
LINE
8
BLACK
6
CONTINUOUS
10
1.0364629921259843
20
1.4921180314960629
11
1.0360187007874015
21
1.4913485039370078
0
LINE
8
BLACK
6
CONTINUOUS
10
1.0360187007874015
20
1.4913485039370078
11
1.0358918110236219
21
1.4913023622047243
0
LINE
8
BLACK
6
CONTINUOUS
10
1.0358918110236219
20
1.4913023622047243
11
1.0358143307086614
21
1.491191653543307
0
LINE
8
BLACK
6
CONTINUOUS
10
1.0358143307086614
20
1.491191653543307
11
1.0349557480314961
21
1.490961653543307
0
LINE
8
BLACK
6
CONTINUOUS
10
1.0349557480314961
20
1.490961653543307
11
1.0341207086614173
21
1.4906576771653544
0
LINE
8
BLACK
6
CONTINUOUS
10
1.0341207086614173
20
1.4906576771653544
11
1.0146231496062992
21
1.4906576771653544
0
LINE
8
BLACK
6
CONTINUOUS
10
1.0146231496062992
20
1.4906576771653544
11
1.0136132283464567
21
1.490835748031496
0
LINE
8
BLACK
6
CONTINUOUS
10
1.0136132283464567
20
1.490835748031496
11
1.0120659842519686
21
1.4921340551181101
0
LINE
8
BLACK
6
CONTINUOUS
10
1.0120659842519686
20
1.4921340551181101
11
1.0117152362204724
21
1.494123188976378
0
LINE
8
BLACK
6
CONTINUOUS
10
1.0117152362204724
20
1.494123188976378
11
1.0127251574803149
21
1.4958723622047243
0
LINE
8
BLACK
6
CONTINUOUS
10
1.0127251574803149
20
1.4958723622047243
11
1.0146231496062992
21
1.496563188976378
0
LINE
8
BLACK
6
CONTINUOUS
10
1.0146231496062992
20
1.496563188976378
11
1.026992125984252
21
1.496563188976378
0
LINE
8
BLACK
6
CONTINUOUS
10
1.026992125984252
20
1.496563188976378
11
1.0140350393700788
21
1.5095202755905512
0
LINE
8
BLACK
6
CONTINUOUS
10
1.0140350393700788
20
1.5095202755905512
11
1.0134468503937009
21
1.5103603149606299
0
LINE
8
BLACK
6
CONTINUOUS
10
1.0134468503937009
20
1.5103603149606299
11
1.0134314566929135
21
1.5105361811023621
0
LINE
8
BLACK
6
CONTINUOUS
10
1.0134314566929135
20
1.5105361811023621
11
1.0133217322834644
21
1.5106744488188977
0
LINE
8
BLACK
6
CONTINUOUS
10
1.0133217322834644
20
1.5106744488188977
11
1.0118219291338582
21
1.5151738976377953
0
LINE
8
BLACK
6
CONTINUOUS
10
1.0118219291338582
20
1.5151738976377953
11
1.011692440944882
21
1.5160470866141731
0
LINE
8
BLACK
6
CONTINUOUS
10
1.011692440944882
20
1.5160470866141731
11
1.0116703937007874
21
1.5161076377952756
0
LINE
8
BLACK
6
CONTINUOUS
10
1.0116703937007874
20
1.5161076377952756
11
1.0116703937007874
21
1.5191072440944882
0
LINE
8
BLACK
6
CONTINUOUS
10
1.0116703937007874
20
1.5191072440944882
11
1.011848464566929
21
1.5201171653543306
0
LINE
8
BLACK
6
CONTINUOUS
10
1.011848464566929
20
1.5201171653543306
11
1.0119619291338582
21
1.5202524409448819
0
LINE
8
BLACK
6
CONTINUOUS
10
1.0119619291338582
20
1.5202524409448819
11
1.0119821259842519
21
1.5204277559055117
0
LINE
8
BLACK
6
CONTINUOUS
10
1.0119821259842519
20
1.5204277559055117
11
1.0134819291338582
21
1.5234274015748031
0
LINE
8
BLACK
6
CONTINUOUS
10
1.0134819291338582
20
1.5234274015748031
11
1.0140078346456693
21
1.5241364960629922
0
LINE
8
BLACK
6
CONTINUOUS
10
1.0140078346456693
20
1.5241364960629922
11
1.0140350393700788
21
1.5241948031496062
0
LINE
8
BLACK
6
CONTINUOUS
10
1.0140350393700788
20
1.5241948031496062
11
1.0155348425196851
21
1.5256946062992125
0
LINE
8
BLACK
6
CONTINUOUS
10
1.0155348425196851
20
1.5256946062992125
11
1.0162579133858267
21
1.5262009055118111
0
LINE
8
BLACK
6
CONTINUOUS
10
1.0162579133858267
20
1.5262009055118111
11
1.0163022440944882
21
1.5262477165354331
0
LINE
8
BLACK
6
CONTINUOUS
10
1.0163022440944882
20
1.5262477165354331
11
1.0193018897637796
21
1.5277475196850394
0
LINE
8
BLACK
6
CONTINUOUS
10
1.0193018897637796
20
1.5277475196850394
11
1.0202848425196851
21
1.5280399212598426
0
LINE
8
BLACK
6
CONTINUOUS
10
1.0202848425196851
20
1.5280399212598426
11
1.0204565354330708
21
1.5279988976377952
0
LINE
8
BLACK
6
CONTINUOUS
10
1.0204565354330708
20
1.5279988976377952
11
1.0206224015748031
21
1.5280592519685039
0
LINE
8
BLACK
6
CONTINUOUS
10
1.0206224015748031
20
1.5280592519685039
11
1.0281214566929133
21
1.5280592519685039
0
LINE
8
BLACK
6
CONTINUOUS
10
1.0281214566929133
20
1.5280592519685039
11
1.0291313779527558
21
1.5278811811023623
0
LINE
8
BLACK
6
CONTINUOUS
10
1.0544876377952757
20
1.5279059842519684
11
1.0545520078740158
21
1.5279077165354331
0
LINE
8
BLACK
6
CONTINUOUS
10
1.0545520078740158
20
1.5279077165354331
11
1.0590514566929135
21
1.5264079133858268
0
LINE
8
BLACK
6
CONTINUOUS
10
1.0590514566929135
20
1.5264079133858268
11
1.0599532283464568
21
1.5259196456692914
0
LINE
8
BLACK
6
CONTINUOUS
10
1.0599532283464568
20
1.5259196456692914
11
1.0600456299212597
21
1.5257692125984252
0
LINE
8
BLACK
6
CONTINUOUS
10
1.0600456299212597
20
1.5257692125984252
11
1.0602056299212599
21
1.5256946062992125
0
LINE
8
BLACK
6
CONTINUOUS
10
1.0602056299212599
20
1.5256946062992125
11
1.0632052362204725
21
1.5226949999999999
0
LINE
8
BLACK
6
CONTINUOUS
10
1.0632052362204725
20
1.5226949999999999
11
1.0637116141732283
21
1.5219718503937008
0
LINE
8
BLACK
6
CONTINUOUS
10
1.0637116141732283
20
1.5219718503937008
11
1.0637583464566929
21
1.5219275984251968
0
LINE
8
BLACK
6
CONTINUOUS
10
1.0637583464566929
20
1.5219275984251968
11
1.0652581496062992
21
1.5189279527559054
0
LINE
8
BLACK
6
CONTINUOUS
10
1.0652581496062992
20
1.5189279527559054
11
1.0654034251968503
21
1.518439527559055
0
LINE
8
BLACK
6
CONTINUOUS
10
1.0654034251968503
20
1.518439527559055
11
1.0654817322834644
21
1.518323622047244
0
LINE
8
BLACK
6
CONTINUOUS
10
1.0654817322834644
20
1.518323622047244
11
1.0669815748031495
21
1.5123243307086613
0
LINE
8
BLACK
6
CONTINUOUS
10
1.0669815748031495
20
1.5123243307086613
11
1.0670230314960629
21
1.5117364566929135
0
LINE
8
BLACK
6
CONTINUOUS
10
1.0670230314960629
20
1.5117364566929135
11
1.0670697244094487
21
1.5116081889763779
0
LINE
8
BLACK
6
CONTINUOUS
10
1.0670697244094487
20
1.5116081889763779
11
1.0670697244094487
21
1.5071087401574803
0
LINE
8
BLACK
6
CONTINUOUS
10
1.0670697244094487
20
1.5071087401574803
11
1.0669673622047244
21
1.5065283858267715
0
LINE
8
BLACK
6
CONTINUOUS
10
1.0669673622047244
20
1.5065283858267715
11
1.0669815748031495
21
1.5063925984251969
0
LINE
8
BLACK
6
CONTINUOUS
10
1.0669815748031495
20
1.5063925984251969
11
1.0654817322834644
21
1.5003933070866142
0
LINE
8
BLACK
6
CONTINUOUS
10
1.0654817322834644
20
1.5003933070866142
11
1.0652740944881889
21
1.4999278346456693
0
LINE
8
BLACK
6
CONTINUOUS
10
1.0652740944881889
20
1.4999278346456693
11
1.0652581496062992
21
1.4997889763779528
0
LINE
8
BLACK
6
CONTINUOUS
10
1.0652581496062992
20
1.4997889763779528
11
1.0637583464566929
21
1.49678937007874
0
LINE
8
BLACK
6
CONTINUOUS
10
1.0637583464566929
20
1.49678937007874
11
1.0632324803149606
21
1.4960803937007874
0
LINE
8
BLACK
6
CONTINUOUS
10
1.0632324803149606
20
1.4960803937007874
11
1.0632052755905512
21
1.4960220078740156
0
LINE
8
BLACK
6
CONTINUOUS
10
1.0632052755905512
20
1.4960220078740156
11
1.0602056299212599
21
1.4930223228346455
0
LINE
8
BLACK
6
CONTINUOUS
10
1.0602056299212599
20
1.4930223228346455
11
1.0593656299212597
21
1.4924341338582676
0
LINE
8
BLACK
6
CONTINUOUS
10
1.0593656299212597
20
1.4924341338582676
11
1.0591896850393701
21
1.492418779527559
0
LINE
8
BLACK
6
CONTINUOUS
10
1.0591896850393701
20
1.492418779527559
11
1.0590514566929135
21
1.4923090157480314
0
LINE
8
BLACK
6
CONTINUOUS
10
1.0590514566929135
20
1.4923090157480314
11
1.0545520078740158
21
1.4908092125984251
0
LINE
8
BLACK
6
CONTINUOUS
10
1.0545520078740158
20
1.4908092125984251
11
1.0536788188976378
21
1.4906797637795275
0
LINE
8
BLACK
6
CONTINUOUS
10
1.0536788188976378
20
1.4906797637795275
11
1.0536182677165353
21
1.4906576771653544
0
LINE
8
BLACK
6
CONTINUOUS
10
1.0536182677165353
20
1.4906576771653544
11
1.050618622047244
21
1.4906576771653544
0
LINE
8
BLACK
6
CONTINUOUS
10
1.050618622047244
20
1.4906576771653544
11
1.0497492125984251
21
1.4908109842519686
0
LINE
8
BLACK
6
CONTINUOUS
10
1.0497492125984251
20
1.4908109842519686
11
1.0496848818897637
21
1.4908092125984251
0
LINE
8
BLACK
6
CONTINUOUS
10
1.0496848818897637
20
1.4908092125984251
11
1.0451854724409448
21
1.4923090157480314
0
LINE
8
BLACK
6
CONTINUOUS
10
1.0451854724409448
20
1.4923090157480314
11
1.0442837007874015
21
1.4927973228346456
0
LINE
8
BLACK
6
CONTINUOUS
10
1.0442837007874015
20
1.4927973228346456
11
1.0441912992125983
21
1.492947716535433
0
LINE
8
BLACK
6
CONTINUOUS
10
1.0441912992125983
20
1.492947716535433
11
1.0440312992125984
21
1.4930223228346455
0
LINE
8
BLACK
6
CONTINUOUS
10
1.0440312992125984
20
1.4930223228346455
11
1.0425314566929134
21
1.4945221653543306
0
LINE
8
BLACK
6
CONTINUOUS
10
1.0425314566929134
20
1.4945221653543306
11
1.0419432677165354
21
1.4953622047244095
0
LINE
8
BLACK
6
CONTINUOUS
10
1.0419432677165354
20
1.4953622047244095
11
1.0417672047244095
21
1.4973742913385826
0
LINE
8
BLACK
6
CONTINUOUS
10
1.0417672047244095
20
1.4973742913385826
11
1.042925748031496
21
1.4990288582677165
0
LINE
8
BLACK
6
CONTINUOUS
10
1.042925748031496
20
1.4990288582677165
11
1.0448766929133857
21
1.4995515748031496
0
LINE
8
BLACK
6
CONTINUOUS
10
1.0448766929133857
20
1.4995515748031496
11
1.046707283464567
21
1.4986979921259842
0
LINE
8
BLACK
6
CONTINUOUS
10
1.046707283464567
20
1.4986979921259842
11
1.0477142519685039
21
1.4976910236220473
0
LINE
8
BLACK
6
CONTINUOUS
10
1.0477142519685039
20
1.4976910236220473
11
1.0510977559055117
21
1.496563188976378
0
LINE
8
BLACK
6
CONTINUOUS
10
1.0510977559055117
20
1.496563188976378
11
1.0531391338582676
21
1.496563188976378
0
LINE
8
BLACK
6
CONTINUOUS
10
1.0531391338582676
20
1.496563188976378
11
1.0565226377952757
21
1.4976910236220473
0
LINE
8
BLACK
6
CONTINUOUS
10
1.0565226377952757
20
1.4976910236220473
11
1.0586905511811024
21
1.4998589763779526
0
LINE
8
BLACK
6
CONTINUOUS
10
1.0586905511811024
20
1.4998589763779526
11
1.0598311023622047
21
1.5021400393700788
0
LINE
8
BLACK
6
CONTINUOUS
10
1.0598311023622047
20
1.5021400393700788
11
1.0611642125984251
21
1.5074723622047244
0
LINE
8
BLACK
6
CONTINUOUS
10
1.0611642125984251
20
1.5074723622047244
11
1.0611642125984251
21
1.5112446062992126
0
LINE
8
BLACK
6
CONTINUOUS
10
1.0611642125984251
20
1.5112446062992126
11
1.0598311023622047
21
1.516576968503937
0
LINE
8
BLACK
6
CONTINUOUS
10
1.0598311023622047
20
1.516576968503937
11
1.0586905511811024
21
1.5188580314960629
0
LINE
8
BLACK
6
CONTINUOUS
10
1.0586905511811024
20
1.5188580314960629
11
1.0565226771653542
21
1.5210259055118109
0
LINE
8
BLACK
6
CONTINUOUS
10
1.0565226771653542
20
1.5210259055118109
11
1.0531391338582676
21
1.5221537401574803
0
LINE
8
BLACK
6
CONTINUOUS
10
1.0531391338582676
20
1.5221537401574803
11
1.0510977559055117
21
1.5221537401574803
0
LINE
8
BLACK
6
CONTINUOUS
10
1.0510977559055117
20
1.5221537401574803
11
1.0477142125984251
21
1.5210259055118109
0
LINE
8
BLACK
6
CONTINUOUS
10
1.0477142125984251
20
1.5210259055118109
11
1.0467072440944882
21
1.520018937007874
0
LINE
8
BLACK
6
CONTINUOUS
10
1.0467072440944882
20
1.520018937007874
11
1.0458672047244095
21
1.5194307480314961
0
LINE
8
BLACK
6
CONTINUOUS
10
1.0458672047244095
20
1.5194307480314961
11
1.0438551181102362
21
1.5192547637795275
0
LINE
8
BLACK
6
CONTINUOUS
10
1.0438551181102362
20
1.5192547637795275
11
1.0422005511811023
21
1.5204133070866142
0
LINE
8
BLACK
6
CONTINUOUS
10
1.0422005511811023
20
1.5204133070866142
11
1.041677874015748
21
1.5223642519685039
0
LINE
8
BLACK
6
CONTINUOUS
10
1.041677874015748
20
1.5223642519685039
11
1.0425314960629921
21
1.524194842519685
0
LINE
8
BLACK
6
CONTINUOUS
10
1.0425314960629921
20
1.524194842519685
11
1.0440313385826772
21
1.5256946456692912
0
LINE
8
BLACK
6
CONTINUOUS
10
1.0440313385826772
20
1.5256946456692912
11
1.0448713779527559
21
1.5262828346456692
0
LINE
8
BLACK
6
CONTINUOUS
10
1.0448713779527559
20
1.5262828346456692
11
1.0450472047244095
21
1.5262982283464566
0
LINE
8
BLACK
6
CONTINUOUS
10
1.0450472047244095
20
1.5262982283464566
11
1.0451854724409448
21
1.5264079133858268
0
LINE
8
BLACK
6
CONTINUOUS
10
1.0451854724409448
20
1.5264079133858268
11
1.0496848818897637
21
1.5279077165354331
0
LINE
8
BLACK
6
CONTINUOUS
10
1.0496848818897637
20
1.5279077165354331
11
1.050558031496063
21
1.5280372047244095
0
LINE
8
BLACK
6
CONTINUOUS
10
1.050558031496063
20
1.5280372047244095
11
1.050618622047244
21
1.5280592519685039
0
LINE
8
BLACK
6
CONTINUOUS
10
1.050618622047244
20
1.5280592519685039
11
1.0536182677165353
21
1.5280592519685039
0
LINE
8
BLACK
6
CONTINUOUS
10
1.0536182677165353
20
1.5280592519685039
11
1.0544876377952757
21
1.5279059842519684
0
LINE
8
BLACK
6
CONTINUOUS
10
0.8091999212598425
20
1.5384813385826772
11
0.8098918110236221
21
1.5368110236220471
0
LINE
8
BLACK
6
CONTINUOUS
10
0.8098918110236221
20
1.5368110236220471
11
0.8091999212598425
21
1.5351407086614173
0
LINE
8
BLACK
6
CONTINUOUS
10
0.8091999212598425
20
1.5351407086614173
11
0.8075296062992126
21
1.5344488188976377
0
LINE
8
BLACK
6
CONTINUOUS
10
0.8075296062992126
20
1.5344488188976377
11
0.7869585826771653
21
1.5344488188976377
0
LINE
8
BLACK
6
CONTINUOUS
10
0.7869585826771653
20
1.5344488188976377
11
0.7852882677165354
21
1.5351407086614173
0
LINE
8
BLACK
6
CONTINUOUS
10
0.7852882677165354
20
1.5351407086614173
11
0.7845963779527559
21
1.5368110236220471
0
LINE
8
BLACK
6
CONTINUOUS
10
0.7845963779527559
20
1.5368110236220471
11
0.7852882677165354
21
1.5384813385826772
0
LINE
8
BLACK
6
CONTINUOUS
10
0.7852882677165354
20
1.5384813385826772
11
0.7869585826771653
21
1.5391732283464568
0
LINE
8
BLACK
6
CONTINUOUS
10
0.7869585826771653
20
1.5391732283464568
11
0.8075296062992126
21
1.5391732283464568
0
LINE
8
BLACK
6
CONTINUOUS
10
0.8075296062992126
20
1.5391732283464568
11
0.8091999212598425
21
1.5384813385826772
0
LINE
8
BLACK
6
CONTINUOUS
10
0.9469951968503937
20
1.5384813385826772
11
0.9476870866141732
21
1.5368110236220471
0
LINE
8
BLACK
6
CONTINUOUS
10
0.9476870866141732
20
1.5368110236220471
11
0.9469951968503937
21
1.5351407086614173
0
LINE
8
BLACK
6
CONTINUOUS
10
0.9469951968503937
20
1.5351407086614173
11
0.9453248818897637
21
1.5344488188976377
0
LINE
8
BLACK
6
CONTINUOUS
10
0.9453248818897637
20
1.5344488188976377
11
0.9247538582677165
21
1.5344488188976377
0
LINE
8
BLACK
6
CONTINUOUS
10
0.9247538582677165
20
1.5344488188976377
11
0.9230835433070866
21
1.5351407086614173
0
LINE
8
BLACK
6
CONTINUOUS
10
0.9230835433070866
20
1.5351407086614173
11
0.9223916535433071
21
1.5368110236220471
0
LINE
8
BLACK
6
CONTINUOUS
10
0.9223916535433071
20
1.5368110236220471
11
0.9230835433070866
21
1.5384813385826772
0
LINE
8
BLACK
6
CONTINUOUS
10
0.9230835433070866
20
1.5384813385826772
11
0.9247538582677165
21
1.5391732283464568
0
LINE
8
BLACK
6
CONTINUOUS
10
0.9247538582677165
20
1.5391732283464568
11
0.9453248818897637
21
1.5391732283464568
0
LINE
8
BLACK
6
CONTINUOUS
10
0.9453248818897637
20
1.5391732283464568
11
0.9469951968503937
21
1.5384813385826772
0
CIRCLE
8
BLACK
10
0.6525590551181102
20
0.9094488188976377
40
0.0068897637795276
0
CIRCLE
8
BLACK
10
0.6525590551181102
20
0.8094488188976378
40
0.0068897637795276
0
CIRCLE
8
BLACK
10
0.6525590551181102
20
0.7094488188976378
40
0.0068897637795276
0
CIRCLE
8
BLACK
10
0.6525590551181102
20
0.6094488188976378
40
0.0068897637795276
0
CIRCLE
8
BLACK
10
0.6525590551181102
20
0.5094488188976378
40
0.0068897637795276
0
CIRCLE
8
BLACK
10
0.9525590551181102
20
0.5094488188976378
40
0.0068897637795276
0
CIRCLE
8
BLACK
10
0.9525590551181102
20
0.6094488188976378
40
0.0068897637795276
0
CIRCLE
8
BLACK
10
0.9525590551181102
20
0.7094488188976378
40
0.0068897637795276
0
CIRCLE
8
BLACK
10
0.9525590551181102
20
0.8094488188976378
40
0.0068897637795276
0
CIRCLE
8
BLACK
10
0.9525590551181102
20
0.9094488188976377
40
0.0068897637795276
0
CIRCLE
8
BLACK
10
1.2000000393700787
20
1.5999999999999999
40
0.0068897637795276
0
CIRCLE
8
BLACK
10
1.2000000393700787
20
0.4
40
0.0068897637795276
0
CIRCLE
8
BLACK
10
0.455511811023622
20
0.6165354330708661
40
0.0068897637795276
0
CIRCLE
8
BLACK
10
0.3555118110236221
20
0.6165354330708661
40
0.0068897637795276
0
CIRCLE
8
BLACK
10
0.455511811023622
20
0.7165354330708661
40
0.0068897637795276
0
CIRCLE
8
BLACK
10
0.3555118110236221
20
0.7165354330708661
40
0.0068897637795276
0
CIRCLE
8
BLACK
10
0.455511811023622
20
0.8165354330708661
40
0.0068897637795276
0
CIRCLE
8
BLACK
10
0.3555118110236221
20
0.8165354330708661
40
0.0068897637795276
0
CIRCLE
8
BLACK
10
0.455511811023622
20
0.9165354330708662
40
0.0068897637795276
0
CIRCLE
8
BLACK
10
0.3555118110236221
20
0.9165354330708662
40
0.0068897637795276
0
CIRCLE
8
BLACK
10
0.455511811023622
20
1.016535433070866
40
0.0068897637795276
0
CIRCLE
8
BLACK
10
0.3555118110236221
20
1.016535433070866
40
0.0068897637795276
0
CIRCLE
8
BLACK
10
0.455511811023622
20
1.1165354330708661
40
0.0068897637795276
0
CIRCLE
8
BLACK
10
0.3555118110236221
20
1.1165354330708661
40
0.0068897637795276
0
CIRCLE
8
BLACK
10
0.4000000393700787
20
1.5999999999999999
40
0.0068897637795276
0
CIRCLE
8
BLACK
10
0.6354331102362205
20
1.5956692913385826
40
0.0068897637795276
0
CIRCLE
8
BLACK
10
0.6354331102362205
20
1.6956692913385827
40
0.0068897637795276
0
CIRCLE
8
BLACK
10
0.7354331102362205
20
1.5956692913385826
40
0.0068897637795276
0
CIRCLE
8
BLACK
10
0.7354331102362205
20
1.6956692913385827
40
0.0068897637795276
0
CIRCLE
8
BLACK
10
0.8354331102362205
20
1.5956692913385826
40
0.0068897637795276
0
CIRCLE
8
BLACK
10
0.8354331102362205
20
1.6956692913385827
40
0.0068897637795276
0
CIRCLE
8
BLACK
10
0.9354331102362204
20
1.5956692913385826
40
0.0068897637795276
0
CIRCLE
8
BLACK
10
0.9354331102362204
20
1.6956692913385827
40
0.0068897637795276
0
CIRCLE
8
BLACK
10
1.1559055118110235
20
1.348031496062992
40
0.0068897637795276
0
CIRCLE
8
BLACK
10
1.2559055118110236
20
1.348031496062992
40
0.0068897637795276
0
CIRCLE
8
BLACK
10
1.1559055118110235
20
1.2480314960629921
40
0.0068897637795276
0
CIRCLE
8
BLACK
10
1.2559055118110236
20
1.2480314960629921
40
0.0068897637795276
0
CIRCLE
8
BLACK
10
1.1547244094488189
20
1.1165354330708661
40
0.0068897637795276
0
CIRCLE
8
BLACK
10
1.2547244094488188
20
1.1165354330708661
40
0.0068897637795276
0
CIRCLE
8
BLACK
10
1.1547244094488189
20
1.016535433070866
40
0.0068897637795276
0
CIRCLE
8
BLACK
10
1.2547244094488188
20
1.016535433070866
40
0.0068897637795276
0
CIRCLE
8
BLACK
10
1.1547244094488189
20
0.9165354330708662
40
0.0068897637795276
0
CIRCLE
8
BLACK
10
1.2547244094488188
20
0.9165354330708662
40
0.0068897637795276
0
CIRCLE
8
BLACK
10
1.1547244094488189
20
0.8165354330708661
40
0.0068897637795276
0
CIRCLE
8
BLACK
10
1.2547244094488188
20
0.8165354330708661
40
0.0068897637795276
0
CIRCLE
8
BLACK
10
1.1547244094488189
20
0.7165354330708661
40
0.0068897637795276
0
CIRCLE
8
BLACK
10
1.2547244094488188
20
0.7165354330708661
40
0.0068897637795276
0
CIRCLE
8
BLACK
10
1.1547244094488189
20
0.6165354330708661
40
0.0068897637795276
0
CIRCLE
8
BLACK
10
1.2547244094488188
20
0.6165354330708661
40
0.0068897637795276
0
CIRCLE
8
BLACK
10
0.4543307086614173
20
1.2519685039370079
40
0.0068897637795276
0
CIRCLE
8
BLACK
10
0.3543307086614173
20
1.2519685039370079
40
0.0068897637795276
0
CIRCLE
8
BLACK
10
0.4543307086614173
20
1.3519685039370077
40
0.0068897637795276
0
CIRCLE
8
BLACK
10
0.3543307086614173
20
1.3519685039370077
40
0.0068897637795276
0
CIRCLE
8
BLACK
10
0.4000000393700787
20
0.4
40
0.0068897637795276
  0
ENDSEC
  0
EOF
