  0
SECTION
  2
HEADER
  9
$ANGBASE
  50
0.0
  9
$ANGDIR
  70
1
  9
$MEASUREMENT
  70
0
  0
ENDSEC
  0
SECTION
  2
TABLES
  0
TABLE
  2
LTYPE
  70
4
  0
LTYPE
  5
40F
  2
CONTINUOUS
  70
0
  3
Solid line
  72
65
  73
0
  40
0.0
  0
LTYPE
  5
410
  2
DASHDOT
 70
0
  3
Dash Dot ____ _ ____ _
 72
65
 73
4
 40
2.0
 49
1.25
 49
-0.25
 49
0.25
 49
-0.25
  0
LTYPE
  5
411
  2
DASHED
 70
0
  3
Dashed __ __ __ __ __
 72
65
 73
2
 40
0.75
 49
0.5
 49
-0.25
  0
LTYPE
  5
43B
  2
DOTTED
 70
0
  3
Dotted .  .  .  .
 72
65
 73
2
 40
0.2
 49
0.0
 49
-0.2
  0
ENDTAB
  0
TABLE
  2
STYLE
  70
4
  0
STYLE
  2
KICAD
  70
0
  40
0
  41
1
  42
1
  50
0
  71
0
  3
isocp.shx
  0
STYLE
  2
KICADB
  70
0
  40
0
  41
1
  42
1
  50
0
  71
0
  3
isocp.shx
  0
STYLE
  2
KICADI
  70
0
  40
0
  41
1
  42
1
  50
15
  71
0
  3
isocp.shx
  0
STYLE
  2
KICADBI
  70
0
  40
0
  41
1
  42
1
  50
15
  71
0
  3
isocp.shx
  0
ENDTAB
  0
TABLE
  2
LAYER
  70
1
  0
LAYER
  2
BLACK
  70
0
  62
7
  6
CONTINUOUS
  0
ENDTAB
  0
ENDSEC
  0
SECTION
  2
ENTITIES
0
LINE
8
BLACK
6
CONTINUOUS
10
0.4205096850393701
20
0.5163158661417323
11
0.4338744488188976
21
0.5131483858267717
0
LINE
8
BLACK
6
CONTINUOUS
10
0.4338744488188976
20
0.5131483858267717
11
0.4467811023622047
21
0.5084507086614173
0
LINE
8
BLACK
6
CONTINUOUS
10
0.4467811023622047
20
0.5084507086614173
11
0.4590551574803149
21
0.5022864566929134
0
LINE
8
BLACK
6
CONTINUOUS
10
0.4590551574803149
20
0.5022864566929134
11
0.4705305905511811
21
0.4947389763779527
0
LINE
8
BLACK
6
CONTINUOUS
10
0.4705305905511811
20
0.4947389763779527
11
0.4810522047244095
21
0.4859102755905512
0
LINE
8
BLACK
6
CONTINUOUS
10
0.4810522047244095
20
0.4859102755905512
11
0.490477716535433
21
0.4759198031496063
0
LINE
8
BLACK
6
CONTINUOUS
10
0.490477716535433
20
0.4759198031496063
11
0.49867968503937
21
0.4649026377952756
0
LINE
8
BLACK
6
CONTINUOUS
10
0.49867968503937
20
0.4649026377952756
11
0.5055472047244094
21
0.4530077952755905
0
LINE
8
BLACK
6
CONTINUOUS
10
0.5055472047244094
20
0.4530077952755905
11
0.5109873622047244
21
0.440396062992126
0
LINE
8
BLACK
6
CONTINUOUS
10
0.5109873622047244
20
0.440396062992126
11
0.5149266141732284
21
0.4272381102362204
0
LINE
8
BLACK
6
CONTINUOUS
10
0.5149266141732284
20
0.4272381102362204
11
0.5173116535433071
21
0.4137117716535433
0
LINE
8
BLACK
6
CONTINUOUS
10
0.5173116535433071
20
0.4137117716535433
11
0.5181102755905511
21
0.4
0
LINE
8
BLACK
6
CONTINUOUS
10
0.5181102755905511
20
0.4
11
0.5173116535433071
21
0.3862882283464567
0
LINE
8
BLACK
6
CONTINUOUS
10
0.5173116535433071
20
0.3862882283464567
11
0.5149266141732284
21
0.3727618897637795
0
LINE
8
BLACK
6
CONTINUOUS
10
0.5149266141732284
20
0.3727618897637795
11
0.5109873622047244
21
0.359603937007874
0
LINE
8
BLACK
6
CONTINUOUS
10
0.5109873622047244
20
0.359603937007874
11
0.5055472047244094
21
0.3469922047244094
0
LINE
8
BLACK
6
CONTINUOUS
10
0.5055472047244094
20
0.3469922047244094
11
0.49867968503937
21
0.3350973622047244
0
LINE
8
BLACK
6
CONTINUOUS
10
0.49867968503937
20
0.3350973622047244
11
0.490477716535433
21
0.3240801968503937
0
LINE
8
BLACK
6
CONTINUOUS
10
0.490477716535433
20
0.3240801968503937
11
0.4810522047244095
21
0.3140897244094488
0
LINE
8
BLACK
6
CONTINUOUS
10
0.4810522047244095
20
0.3140897244094488
11
0.4705305905511811
21
0.3052610236220472
0
LINE
8
BLACK
6
CONTINUOUS
10
0.4705305905511811
20
0.3052610236220472
11
0.4590551574803149
21
0.2977135433070866
0
LINE
8
BLACK
6
CONTINUOUS
10
0.4590551574803149
20
0.2977135433070866
11
0.4467811023622047
21
0.2915492913385827
0
LINE
8
BLACK
6
CONTINUOUS
10
0.4467811023622047
20
0.2915492913385827
11
0.4338744488188976
21
0.2868516141732284
0
LINE
8
BLACK
6
CONTINUOUS
10
0.4338744488188976
20
0.2868516141732284
11
0.4205096850393701
21
0.2836841338582677
0
LINE
8
BLACK
6
CONTINUOUS
10
0.4205096850393701
20
0.2836841338582677
11
0.4068675196850394
21
0.2820896062992126
0
LINE
8
BLACK
6
CONTINUOUS
10
0.4068675196850394
20
0.2820896062992126
11
0.3931325590551181
21
0.2820896062992126
0
LINE
8
BLACK
6
CONTINUOUS
10
0.3931325590551181
20
0.2820896062992126
11
0.3794903937007874
21
0.2836841338582677
0
LINE
8
BLACK
6
CONTINUOUS
10
0.3794903937007874
20
0.2836841338582677
11
0.3661256299212599
21
0.2868516141732284
0
LINE
8
BLACK
6
CONTINUOUS
10
0.3661256299212599
20
0.2868516141732284
11
0.3532189763779527
21
0.2915492913385827
0
LINE
8
BLACK
6
CONTINUOUS
10
0.3532189763779527
20
0.2915492913385827
11
0.3409449212598425
21
0.2977135433070866
0
LINE
8
BLACK
6
CONTINUOUS
10
0.3409449212598425
20
0.2977135433070866
11
0.3294694881889764
21
0.3052610236220472
0
LINE
8
BLACK
6
CONTINUOUS
10
0.3294694881889764
20
0.3052610236220472
11
0.318947874015748
21
0.3140897244094488
0
LINE
8
BLACK
6
CONTINUOUS
10
0.318947874015748
20
0.3140897244094488
11
0.3095223622047244
21
0.3240801968503937
0
LINE
8
BLACK
6
CONTINUOUS
10
0.3095223622047244
20
0.3240801968503937
11
0.3013203937007874
21
0.3350973622047244
0
LINE
8
BLACK
6
CONTINUOUS
10
0.3013203937007874
20
0.3350973622047244
11
0.294452874015748
21
0.3469922047244094
0
LINE
8
BLACK
6
CONTINUOUS
10
0.294452874015748
20
0.3469922047244094
11
0.2890127165354331
21
0.359603937007874
0
LINE
8
BLACK
6
CONTINUOUS
10
0.2890127165354331
20
0.359603937007874
11
0.2850734645669291
21
0.3727618897637795
0
LINE
8
BLACK
6
CONTINUOUS
10
0.2850734645669291
20
0.3727618897637795
11
0.2826884251968504
21
0.3862882283464567
0
LINE
8
BLACK
6
CONTINUOUS
10
0.2826884251968504
20
0.3862882283464567
11
0.2818898031496063
21
0.4
0
LINE
8
BLACK
6
CONTINUOUS
10
0.2818898031496063
20
0.4
11
0.2826884251968504
21
0.4137117716535433
0
LINE
8
BLACK
6
CONTINUOUS
10
0.2826884251968504
20
0.4137117716535433
11
0.2850734645669291
21
0.4272381102362204
0
LINE
8
BLACK
6
CONTINUOUS
10
0.2850734645669291
20
0.4272381102362204
11
0.2890127165354331
21
0.440396062992126
0
LINE
8
BLACK
6
CONTINUOUS
10
0.2890127165354331
20
0.440396062992126
11
0.294452874015748
21
0.4530077952755905
0
LINE
8
BLACK
6
CONTINUOUS
10
0.294452874015748
20
0.4530077952755905
11
0.3013203937007874
21
0.4649026377952756
0
LINE
8
BLACK
6
CONTINUOUS
10
0.3013203937007874
20
0.4649026377952756
11
0.3095223622047244
21
0.4759198031496063
0
LINE
8
BLACK
6
CONTINUOUS
10
0.3095223622047244
20
0.4759198031496063
11
0.318947874015748
21
0.4859102755905512
0
LINE
8
BLACK
6
CONTINUOUS
10
0.318947874015748
20
0.4859102755905512
11
0.3294694881889764
21
0.4947389763779527
0
LINE
8
BLACK
6
CONTINUOUS
10
0.3294694881889764
20
0.4947389763779527
11
0.3409449212598425
21
0.5022864566929134
0
LINE
8
BLACK
6
CONTINUOUS
10
0.3409449212598425
20
0.5022864566929134
11
0.3532189763779527
21
0.5084507086614173
0
LINE
8
BLACK
6
CONTINUOUS
10
0.3532189763779527
20
0.5084507086614173
11
0.3661256299212599
21
0.5131483858267717
0
LINE
8
BLACK
6
CONTINUOUS
10
0.3661256299212599
20
0.5131483858267717
11
0.3794903937007874
21
0.5163158661417323
0
LINE
8
BLACK
6
CONTINUOUS
10
0.3794903937007874
20
0.5163158661417323
11
0.3931325590551181
21
0.5179103937007874
0
LINE
8
BLACK
6
CONTINUOUS
10
0.3931325590551181
20
0.5179103937007874
11
0.4068675196850394
21
0.5179103937007874
0
LINE
8
BLACK
6
CONTINUOUS
10
0.4068675196850394
20
0.5179103937007874
11
0.4205096850393701
21
0.5163158661417323
0
LINE
8
BLACK
6
CONTINUOUS
10
1.22050968503937
20
0.5163158661417323
11
1.2338744488188975
21
0.5131483858267717
0
LINE
8
BLACK
6
CONTINUOUS
10
1.2338744488188975
20
0.5131483858267717
11
1.2467811023622046
21
0.5084507086614173
0
LINE
8
BLACK
6
CONTINUOUS
10
1.2467811023622046
20
0.5084507086614173
11
1.2590551574803148
21
0.5022864566929134
0
LINE
8
BLACK
6
CONTINUOUS
10
1.2590551574803148
20
0.5022864566929134
11
1.270530590551181
21
0.4947389763779527
0
LINE
8
BLACK
6
CONTINUOUS
10
1.270530590551181
20
0.4947389763779527
11
1.2810522047244095
21
0.4859102755905512
0
LINE
8
BLACK
6
CONTINUOUS
10
1.2810522047244095
20
0.4859102755905512
11
1.2904777165354331
21
0.4759198031496063
0
LINE
8
BLACK
6
CONTINUOUS
10
1.2904777165354331
20
0.4759198031496063
11
1.29867968503937
21
0.4649026377952756
0
LINE
8
BLACK
6
CONTINUOUS
10
1.29867968503937
20
0.4649026377952756
11
1.3055472047244094
21
0.4530077952755905
0
LINE
8
BLACK
6
CONTINUOUS
10
1.3055472047244094
20
0.4530077952755905
11
1.3109873622047243
21
0.440396062992126
0
LINE
8
BLACK
6
CONTINUOUS
10
1.3109873622047243
20
0.440396062992126
11
1.3149266141732283
21
0.4272381102362204
0
LINE
8
BLACK
6
CONTINUOUS
10
1.3149266141732283
20
0.4272381102362204
11
1.3173116535433071
21
0.4137117716535433
0
LINE
8
BLACK
6
CONTINUOUS
10
1.3173116535433071
20
0.4137117716535433
11
1.3181102755905512
21
0.4
0
LINE
8
BLACK
6
CONTINUOUS
10
1.3181102755905512
20
0.4
11
1.3173116535433071
21
0.3862882283464567
0
LINE
8
BLACK
6
CONTINUOUS
10
1.3173116535433071
20
0.3862882283464567
11
1.3149266141732283
21
0.3727618897637795
0
LINE
8
BLACK
6
CONTINUOUS
10
1.3149266141732283
20
0.3727618897637795
11
1.3109873622047243
21
0.359603937007874
0
LINE
8
BLACK
6
CONTINUOUS
10
1.3109873622047243
20
0.359603937007874
11
1.3055472047244094
21
0.3469922047244094
0
LINE
8
BLACK
6
CONTINUOUS
10
1.3055472047244094
20
0.3469922047244094
11
1.29867968503937
21
0.3350973622047244
0
LINE
8
BLACK
6
CONTINUOUS
10
1.29867968503937
20
0.3350973622047244
11
1.2904777165354331
21
0.3240801968503937
0
LINE
8
BLACK
6
CONTINUOUS
10
1.2904777165354331
20
0.3240801968503937
11
1.2810522047244095
21
0.3140897244094488
0
LINE
8
BLACK
6
CONTINUOUS
10
1.2810522047244095
20
0.3140897244094488
11
1.270530590551181
21
0.3052610236220472
0
LINE
8
BLACK
6
CONTINUOUS
10
1.270530590551181
20
0.3052610236220472
11
1.2590551574803148
21
0.2977135433070866
0
LINE
8
BLACK
6
CONTINUOUS
10
1.2590551574803148
20
0.2977135433070866
11
1.2467811023622046
21
0.2915492913385827
0
LINE
8
BLACK
6
CONTINUOUS
10
1.2467811023622046
20
0.2915492913385827
11
1.2338744488188975
21
0.2868516141732284
0
LINE
8
BLACK
6
CONTINUOUS
10
1.2338744488188975
20
0.2868516141732284
11
1.22050968503937
21
0.2836841338582677
0
LINE
8
BLACK
6
CONTINUOUS
10
1.22050968503937
20
0.2836841338582677
11
1.2068675196850394
21
0.2820896062992126
0
LINE
8
BLACK
6
CONTINUOUS
10
1.2068675196850394
20
0.2820896062992126
11
1.1931325590551181
21
0.2820896062992126
0
LINE
8
BLACK
6
CONTINUOUS
10
1.1931325590551181
20
0.2820896062992126
11
1.1794903937007875
21
0.2836841338582677
0
LINE
8
BLACK
6
CONTINUOUS
10
1.1794903937007875
20
0.2836841338582677
11
1.1661256299212599
21
0.2868516141732284
0
LINE
8
BLACK
6
CONTINUOUS
10
1.1661256299212599
20
0.2868516141732284
11
1.1532189763779528
21
0.2915492913385827
0
LINE
8
BLACK
6
CONTINUOUS
10
1.1532189763779528
20
0.2915492913385827
11
1.1409449212598426
21
0.2977135433070866
0
LINE
8
BLACK
6
CONTINUOUS
10
1.1409449212598426
20
0.2977135433070866
11
1.1294694881889764
21
0.3052610236220472
0
LINE
8
BLACK
6
CONTINUOUS
10
1.1294694881889764
20
0.3052610236220472
11
1.1189478740157479
21
0.3140897244094488
0
LINE
8
BLACK
6
CONTINUOUS
10
1.1189478740157479
20
0.3140897244094488
11
1.1095223622047243
21
0.3240801968503937
0
LINE
8
BLACK
6
CONTINUOUS
10
1.1095223622047243
20
0.3240801968503937
11
1.1013203937007874
21
0.3350973622047244
0
LINE
8
BLACK
6
CONTINUOUS
10
1.1013203937007874
20
0.3350973622047244
11
1.094452874015748
21
0.3469922047244094
0
LINE
8
BLACK
6
CONTINUOUS
10
1.094452874015748
20
0.3469922047244094
11
1.0890127165354331
21
0.359603937007874
0
LINE
8
BLACK
6
CONTINUOUS
10
1.0890127165354331
20
0.359603937007874
11
1.0850734645669291
21
0.3727618897637795
0
LINE
8
BLACK
6
CONTINUOUS
10
1.0850734645669291
20
0.3727618897637795
11
1.0826884251968503
21
0.3862882283464567
0
LINE
8
BLACK
6
CONTINUOUS
10
1.0826884251968503
20
0.3862882283464567
11
1.0818898031496063
21
0.4
0
LINE
8
BLACK
6
CONTINUOUS
10
1.0818898031496063
20
0.4
11
1.0826884251968503
21
0.4137117716535433
0
LINE
8
BLACK
6
CONTINUOUS
10
1.0826884251968503
20
0.4137117716535433
11
1.0850734645669291
21
0.4272381102362204
0
LINE
8
BLACK
6
CONTINUOUS
10
1.0850734645669291
20
0.4272381102362204
11
1.0890127165354331
21
0.440396062992126
0
LINE
8
BLACK
6
CONTINUOUS
10
1.0890127165354331
20
0.440396062992126
11
1.094452874015748
21
0.4530077952755905
0
LINE
8
BLACK
6
CONTINUOUS
10
1.094452874015748
20
0.4530077952755905
11
1.1013203937007874
21
0.4649026377952756
0
LINE
8
BLACK
6
CONTINUOUS
10
1.1013203937007874
20
0.4649026377952756
11
1.1095223622047243
21
0.4759198031496063
0
LINE
8
BLACK
6
CONTINUOUS
10
1.1095223622047243
20
0.4759198031496063
11
1.1189478740157479
21
0.4859102755905512
0
LINE
8
BLACK
6
CONTINUOUS
10
1.1189478740157479
20
0.4859102755905512
11
1.1294694881889764
21
0.4947389763779527
0
LINE
8
BLACK
6
CONTINUOUS
10
1.1294694881889764
20
0.4947389763779527
11
1.1409449212598426
21
0.5022864566929134
0
LINE
8
BLACK
6
CONTINUOUS
10
1.1409449212598426
20
0.5022864566929134
11
1.1532189763779528
21
0.5084507086614173
0
LINE
8
BLACK
6
CONTINUOUS
10
1.1532189763779528
20
0.5084507086614173
11
1.1661256299212599
21
0.5131483858267717
0
LINE
8
BLACK
6
CONTINUOUS
10
1.1661256299212599
20
0.5131483858267717
11
1.1794903937007875
21
0.5163158661417323
0
LINE
8
BLACK
6
CONTINUOUS
10
1.1794903937007875
20
0.5163158661417323
11
1.1931325590551181
21
0.5179103937007874
0
LINE
8
BLACK
6
CONTINUOUS
10
1.1931325590551181
20
0.5179103937007874
11
1.2068675196850394
21
0.5179103937007874
0
LINE
8
BLACK
6
CONTINUOUS
10
1.2068675196850394
20
0.5179103937007874
11
1.22050968503937
21
0.5163158661417323
0
LINE
8
BLACK
6
CONTINUOUS
10
0.6694101181102362
20
0.5007851181102362
11
0.6760672047244094
21
0.4984557086614173
0
LINE
8
BLACK
6
CONTINUOUS
10
0.6760672047244094
20
0.4984557086614173
11
0.6820390551181102
21
0.4947033464566929
0
LINE
8
BLACK
6
CONTINUOUS
10
0.6820390551181102
20
0.4947033464566929
11
0.6870261811023622
21
0.489716220472441
0
LINE
8
BLACK
6
CONTINUOUS
10
0.6870261811023622
20
0.489716220472441
11
0.6907785433070865
21
0.4837443700787402
0
LINE
8
BLACK
6
CONTINUOUS
10
0.6907785433070865
20
0.4837443700787402
11
0.6931079527559055
21
0.4770872834645669
0
LINE
8
BLACK
6
CONTINUOUS
10
0.6931079527559055
20
0.4770872834645669
11
0.6938976377952756
21
0.4700787401574803
0
LINE
8
BLACK
6
CONTINUOUS
10
0.6938976377952756
20
0.4700787401574803
11
0.6931079527559055
21
0.4630701968503937
0
LINE
8
BLACK
6
CONTINUOUS
10
0.6931079527559055
20
0.4630701968503937
11
0.6907785433070865
21
0.4564131102362204
0
LINE
8
BLACK
6
CONTINUOUS
10
0.6907785433070865
20
0.4564131102362204
11
0.6870261811023622
21
0.4504412598425196
0
LINE
8
BLACK
6
CONTINUOUS
10
0.6870261811023622
20
0.4504412598425196
11
0.6820390551181102
21
0.4454541338582677
0
LINE
8
BLACK
6
CONTINUOUS
10
0.6820390551181102
20
0.4454541338582677
11
0.6760672047244094
21
0.4417017716535433
0
LINE
8
BLACK
6
CONTINUOUS
10
0.6760672047244094
20
0.4417017716535433
11
0.6694101181102362
21
0.4393723622047244
0
LINE
8
BLACK
6
CONTINUOUS
10
0.6694101181102362
20
0.4393723622047244
11
0.6624015748031495
21
0.4385826771653543
0
LINE
8
BLACK
6
CONTINUOUS
10
0.6624015748031495
20
0.4385826771653543
11
0.6348425196850394
21
0.4385826771653543
0
LINE
8
BLACK
6
CONTINUOUS
10
0.6348425196850394
20
0.4385826771653543
11
0.6278339763779528
21
0.4393723622047244
0
LINE
8
BLACK
6
CONTINUOUS
10
0.6278339763779528
20
0.4393723622047244
11
0.6211768897637795
21
0.4417017716535433
0
LINE
8
BLACK
6
CONTINUOUS
10
0.6211768897637795
20
0.4417017716535433
11
0.6152050393700788
21
0.4454541338582677
0
LINE
8
BLACK
6
CONTINUOUS
10
0.6152050393700788
20
0.4454541338582677
11
0.6102179133858268
21
0.4504412598425196
0
LINE
8
BLACK
6
CONTINUOUS
10
0.6102179133858268
20
0.4504412598425196
11
0.6064655511811023
21
0.4564131102362204
0
LINE
8
BLACK
6
CONTINUOUS
10
0.6064655511811023
20
0.4564131102362204
11
0.6041361417322835
21
0.4630701968503937
0
LINE
8
BLACK
6
CONTINUOUS
10
0.6041361417322835
20
0.4630701968503937
11
0.6033464566929134
21
0.4700787401574803
0
LINE
8
BLACK
6
CONTINUOUS
10
0.6033464566929134
20
0.4700787401574803
11
0.6041361417322835
21
0.4770872834645669
0
LINE
8
BLACK
6
CONTINUOUS
10
0.6041361417322835
20
0.4770872834645669
11
0.6064655511811023
21
0.4837443700787402
0
LINE
8
BLACK
6
CONTINUOUS
10
0.6064655511811023
20
0.4837443700787402
11
0.6102179133858268
21
0.489716220472441
0
LINE
8
BLACK
6
CONTINUOUS
10
0.6102179133858268
20
0.489716220472441
11
0.6152050393700788
21
0.4947033464566929
0
LINE
8
BLACK
6
CONTINUOUS
10
0.6152050393700788
20
0.4947033464566929
11
0.6211768897637795
21
0.4984557086614173
0
LINE
8
BLACK
6
CONTINUOUS
10
0.6211768897637795
20
0.4984557086614173
11
0.6278339763779528
21
0.5007851181102362
0
LINE
8
BLACK
6
CONTINUOUS
10
0.6278339763779528
20
0.5007851181102362
11
0.6348425196850394
21
0.5015748031496063
0
LINE
8
BLACK
6
CONTINUOUS
10
0.6348425196850394
20
0.5015748031496063
11
0.6624015748031495
21
0.5015748031496063
0
LINE
8
BLACK
6
CONTINUOUS
10
0.6624015748031495
20
0.5015748031496063
11
0.6694101181102362
21
0.5007851181102362
0
LINE
8
BLACK
6
CONTINUOUS
10
0.9694101181102363
20
0.5007851181102362
11
0.9760672047244094
21
0.4984557086614173
0
LINE
8
BLACK
6
CONTINUOUS
10
0.9760672047244094
20
0.4984557086614173
11
0.9820390551181102
21
0.4947033464566929
0
LINE
8
BLACK
6
CONTINUOUS
10
0.9820390551181102
20
0.4947033464566929
11
0.9870261811023622
21
0.489716220472441
0
LINE
8
BLACK
6
CONTINUOUS
10
0.9870261811023622
20
0.489716220472441
11
0.9907785433070866
21
0.4837443700787402
0
LINE
8
BLACK
6
CONTINUOUS
10
0.9907785433070866
20
0.4837443700787402
11
0.9931079527559055
21
0.4770872834645669
0
LINE
8
BLACK
6
CONTINUOUS
10
0.9931079527559055
20
0.4770872834645669
11
0.9938976377952755
21
0.4700787401574803
0
LINE
8
BLACK
6
CONTINUOUS
10
0.9938976377952755
20
0.4700787401574803
11
0.9931079527559055
21
0.4630701968503937
0
LINE
8
BLACK
6
CONTINUOUS
10
0.9931079527559055
20
0.4630701968503937
11
0.9907785433070866
21
0.4564131102362204
0
LINE
8
BLACK
6
CONTINUOUS
10
0.9907785433070866
20
0.4564131102362204
11
0.9870261811023622
21
0.4504412598425196
0
LINE
8
BLACK
6
CONTINUOUS
10
0.9870261811023622
20
0.4504412598425196
11
0.9820390551181102
21
0.4454541338582677
0
LINE
8
BLACK
6
CONTINUOUS
10
0.9820390551181102
20
0.4454541338582677
11
0.9760672047244094
21
0.4417017716535433
0
LINE
8
BLACK
6
CONTINUOUS
10
0.9760672047244094
20
0.4417017716535433
11
0.9694101181102363
21
0.4393723622047244
0
LINE
8
BLACK
6
CONTINUOUS
10
0.9694101181102363
20
0.4393723622047244
11
0.9624015748031496
21
0.4385826771653543
0
LINE
8
BLACK
6
CONTINUOUS
10
0.9624015748031496
20
0.4385826771653543
11
0.9348425196850394
21
0.4385826771653543
0
LINE
8
BLACK
6
CONTINUOUS
10
0.9348425196850394
20
0.4385826771653543
11
0.9278339763779527
21
0.4393723622047244
0
LINE
8
BLACK
6
CONTINUOUS
10
0.9278339763779527
20
0.4393723622047244
11
0.9211768897637795
21
0.4417017716535433
0
LINE
8
BLACK
6
CONTINUOUS
10
0.9211768897637795
20
0.4417017716535433
11
0.9152050393700787
21
0.4454541338582677
0
LINE
8
BLACK
6
CONTINUOUS
10
0.9152050393700787
20
0.4454541338582677
11
0.9102179133858268
21
0.4504412598425196
0
LINE
8
BLACK
6
CONTINUOUS
10
0.9102179133858268
20
0.4504412598425196
11
0.9064655511811024
21
0.4564131102362204
0
LINE
8
BLACK
6
CONTINUOUS
10
0.9064655511811024
20
0.4564131102362204
11
0.9041361417322834
21
0.4630701968503937
0
LINE
8
BLACK
6
CONTINUOUS
10
0.9041361417322834
20
0.4630701968503937
11
0.9033464566929134
21
0.4700787401574803
0
LINE
8
BLACK
6
CONTINUOUS
10
0.9033464566929134
20
0.4700787401574803
11
0.9041361417322834
21
0.4770872834645669
0
LINE
8
BLACK
6
CONTINUOUS
10
0.9041361417322834
20
0.4770872834645669
11
0.9064655511811024
21
0.4837443700787402
0
LINE
8
BLACK
6
CONTINUOUS
10
0.9064655511811024
20
0.4837443700787402
11
0.9102179133858268
21
0.489716220472441
0
LINE
8
BLACK
6
CONTINUOUS
10
0.9102179133858268
20
0.489716220472441
11
0.9152050393700787
21
0.4947033464566929
0
LINE
8
BLACK
6
CONTINUOUS
10
0.9152050393700787
20
0.4947033464566929
11
0.9211768897637795
21
0.4984557086614173
0
LINE
8
BLACK
6
CONTINUOUS
10
0.9211768897637795
20
0.4984557086614173
11
0.9278339763779527
21
0.5007851181102362
0
LINE
8
BLACK
6
CONTINUOUS
10
0.9278339763779527
20
0.5007851181102362
11
0.9348425196850394
21
0.5015748031496063
0
LINE
8
BLACK
6
CONTINUOUS
10
0.9348425196850394
20
0.5015748031496063
11
0.9624015748031496
21
0.5015748031496063
0
LINE
8
BLACK
6
CONTINUOUS
10
0.9624015748031496
20
0.5015748031496063
11
0.9694101181102363
21
0.5007851181102362
0
LINE
8
BLACK
6
CONTINUOUS
10
0.6694101181102362
20
0.6007851181102362
11
0.6760672047244094
21
0.5984557086614173
0
LINE
8
BLACK
6
CONTINUOUS
10
0.6760672047244094
20
0.5984557086614173
11
0.6820390551181102
21
0.5947033464566929
0
LINE
8
BLACK
6
CONTINUOUS
10
0.6820390551181102
20
0.5947033464566929
11
0.6870261811023622
21
0.5897162204724409
0
LINE
8
BLACK
6
CONTINUOUS
10
0.6870261811023622
20
0.5897162204724409
11
0.6907785433070865
21
0.5837443700787401
0
LINE
8
BLACK
6
CONTINUOUS
10
0.6907785433070865
20
0.5837443700787401
11
0.6931079527559055
21
0.5770872834645669
0
LINE
8
BLACK
6
CONTINUOUS
10
0.6931079527559055
20
0.5770872834645669
11
0.6938976377952756
21
0.5700787401574803
0
LINE
8
BLACK
6
CONTINUOUS
10
0.6938976377952756
20
0.5700787401574803
11
0.6931079527559055
21
0.5630701968503937
0
LINE
8
BLACK
6
CONTINUOUS
10
0.6931079527559055
20
0.5630701968503937
11
0.6907785433070865
21
0.5564131102362204
0
LINE
8
BLACK
6
CONTINUOUS
10
0.6907785433070865
20
0.5564131102362204
11
0.6870261811023622
21
0.5504412598425197
0
LINE
8
BLACK
6
CONTINUOUS
10
0.6870261811023622
20
0.5504412598425197
11
0.6820390551181102
21
0.5454541338582677
0
LINE
8
BLACK
6
CONTINUOUS
10
0.6820390551181102
20
0.5454541338582677
11
0.6760672047244094
21
0.5417017716535433
0
LINE
8
BLACK
6
CONTINUOUS
10
0.6760672047244094
20
0.5417017716535433
11
0.6694101181102362
21
0.5393723622047244
0
LINE
8
BLACK
6
CONTINUOUS
10
0.6694101181102362
20
0.5393723622047244
11
0.6624015748031495
21
0.5385826771653544
0
LINE
8
BLACK
6
CONTINUOUS
10
0.6624015748031495
20
0.5385826771653544
11
0.6348425196850394
21
0.5385826771653544
0
LINE
8
BLACK
6
CONTINUOUS
10
0.6348425196850394
20
0.5385826771653544
11
0.6278339763779528
21
0.5393723622047244
0
LINE
8
BLACK
6
CONTINUOUS
10
0.6278339763779528
20
0.5393723622047244
11
0.6211768897637795
21
0.5417017716535433
0
LINE
8
BLACK
6
CONTINUOUS
10
0.6211768897637795
20
0.5417017716535433
11
0.6152050393700788
21
0.5454541338582677
0
LINE
8
BLACK
6
CONTINUOUS
10
0.6152050393700788
20
0.5454541338582677
11
0.6102179133858268
21
0.5504412598425197
0
LINE
8
BLACK
6
CONTINUOUS
10
0.6102179133858268
20
0.5504412598425197
11
0.6064655511811023
21
0.5564131102362204
0
LINE
8
BLACK
6
CONTINUOUS
10
0.6064655511811023
20
0.5564131102362204
11
0.6041361417322835
21
0.5630701968503937
0
LINE
8
BLACK
6
CONTINUOUS
10
0.6041361417322835
20
0.5630701968503937
11
0.6033464566929134
21
0.5700787401574803
0
LINE
8
BLACK
6
CONTINUOUS
10
0.6033464566929134
20
0.5700787401574803
11
0.6041361417322835
21
0.5770872834645669
0
LINE
8
BLACK
6
CONTINUOUS
10
0.6041361417322835
20
0.5770872834645669
11
0.6064655511811023
21
0.5837443700787401
0
LINE
8
BLACK
6
CONTINUOUS
10
0.6064655511811023
20
0.5837443700787401
11
0.6102179133858268
21
0.5897162204724409
0
LINE
8
BLACK
6
CONTINUOUS
10
0.6102179133858268
20
0.5897162204724409
11
0.6152050393700788
21
0.5947033464566929
0
LINE
8
BLACK
6
CONTINUOUS
10
0.6152050393700788
20
0.5947033464566929
11
0.6211768897637795
21
0.5984557086614173
0
LINE
8
BLACK
6
CONTINUOUS
10
0.6211768897637795
20
0.5984557086614173
11
0.6278339763779528
21
0.6007851181102362
0
LINE
8
BLACK
6
CONTINUOUS
10
0.6278339763779528
20
0.6007851181102362
11
0.6348425196850394
21
0.6015748031496063
0
LINE
8
BLACK
6
CONTINUOUS
10
0.6348425196850394
20
0.6015748031496063
11
0.6624015748031495
21
0.6015748031496063
0
LINE
8
BLACK
6
CONTINUOUS
10
0.6624015748031495
20
0.6015748031496063
11
0.6694101181102362
21
0.6007851181102362
0
LINE
8
BLACK
6
CONTINUOUS
10
0.9694101181102363
20
0.6007851181102362
11
0.9760672047244094
21
0.5984557086614173
0
LINE
8
BLACK
6
CONTINUOUS
10
0.9760672047244094
20
0.5984557086614173
11
0.9820390551181102
21
0.5947033464566929
0
LINE
8
BLACK
6
CONTINUOUS
10
0.9820390551181102
20
0.5947033464566929
11
0.9870261811023622
21
0.5897162204724409
0
LINE
8
BLACK
6
CONTINUOUS
10
0.9870261811023622
20
0.5897162204724409
11
0.9907785433070866
21
0.5837443700787401
0
LINE
8
BLACK
6
CONTINUOUS
10
0.9907785433070866
20
0.5837443700787401
11
0.9931079527559055
21
0.5770872834645669
0
LINE
8
BLACK
6
CONTINUOUS
10
0.9931079527559055
20
0.5770872834645669
11
0.9938976377952755
21
0.5700787401574803
0
LINE
8
BLACK
6
CONTINUOUS
10
0.9938976377952755
20
0.5700787401574803
11
0.9931079527559055
21
0.5630701968503937
0
LINE
8
BLACK
6
CONTINUOUS
10
0.9931079527559055
20
0.5630701968503937
11
0.9907785433070866
21
0.5564131102362204
0
LINE
8
BLACK
6
CONTINUOUS
10
0.9907785433070866
20
0.5564131102362204
11
0.9870261811023622
21
0.5504412598425197
0
LINE
8
BLACK
6
CONTINUOUS
10
0.9870261811023622
20
0.5504412598425197
11
0.9820390551181102
21
0.5454541338582677
0
LINE
8
BLACK
6
CONTINUOUS
10
0.9820390551181102
20
0.5454541338582677
11
0.9760672047244094
21
0.5417017716535433
0
LINE
8
BLACK
6
CONTINUOUS
10
0.9760672047244094
20
0.5417017716535433
11
0.9694101181102363
21
0.5393723622047244
0
LINE
8
BLACK
6
CONTINUOUS
10
0.9694101181102363
20
0.5393723622047244
11
0.9624015748031496
21
0.5385826771653544
0
LINE
8
BLACK
6
CONTINUOUS
10
0.9624015748031496
20
0.5385826771653544
11
0.9348425196850394
21
0.5385826771653544
0
LINE
8
BLACK
6
CONTINUOUS
10
0.9348425196850394
20
0.5385826771653544
11
0.9278339763779527
21
0.5393723622047244
0
LINE
8
BLACK
6
CONTINUOUS
10
0.9278339763779527
20
0.5393723622047244
11
0.9211768897637795
21
0.5417017716535433
0
LINE
8
BLACK
6
CONTINUOUS
10
0.9211768897637795
20
0.5417017716535433
11
0.9152050393700787
21
0.5454541338582677
0
LINE
8
BLACK
6
CONTINUOUS
10
0.9152050393700787
20
0.5454541338582677
11
0.9102179133858268
21
0.5504412598425197
0
LINE
8
BLACK
6
CONTINUOUS
10
0.9102179133858268
20
0.5504412598425197
11
0.9064655511811024
21
0.5564131102362204
0
LINE
8
BLACK
6
CONTINUOUS
10
0.9064655511811024
20
0.5564131102362204
11
0.9041361417322834
21
0.5630701968503937
0
LINE
8
BLACK
6
CONTINUOUS
10
0.9041361417322834
20
0.5630701968503937
11
0.9033464566929134
21
0.5700787401574803
0
LINE
8
BLACK
6
CONTINUOUS
10
0.9033464566929134
20
0.5700787401574803
11
0.9041361417322834
21
0.5770872834645669
0
LINE
8
BLACK
6
CONTINUOUS
10
0.9041361417322834
20
0.5770872834645669
11
0.9064655511811024
21
0.5837443700787401
0
LINE
8
BLACK
6
CONTINUOUS
10
0.9064655511811024
20
0.5837443700787401
11
0.9102179133858268
21
0.5897162204724409
0
LINE
8
BLACK
6
CONTINUOUS
10
0.9102179133858268
20
0.5897162204724409
11
0.9152050393700787
21
0.5947033464566929
0
LINE
8
BLACK
6
CONTINUOUS
10
0.9152050393700787
20
0.5947033464566929
11
0.9211768897637795
21
0.5984557086614173
0
LINE
8
BLACK
6
CONTINUOUS
10
0.9211768897637795
20
0.5984557086614173
11
0.9278339763779527
21
0.6007851181102362
0
LINE
8
BLACK
6
CONTINUOUS
10
0.9278339763779527
20
0.6007851181102362
11
0.9348425196850394
21
0.6015748031496063
0
LINE
8
BLACK
6
CONTINUOUS
10
0.9348425196850394
20
0.6015748031496063
11
0.9624015748031496
21
0.6015748031496063
0
LINE
8
BLACK
6
CONTINUOUS
10
0.9624015748031496
20
0.6015748031496063
11
0.9694101181102363
21
0.6007851181102362
0
LINE
8
BLACK
6
CONTINUOUS
10
0.385511811023622
20
0.5865354330708661
11
0.325511811023622
21
0.5865354330708661
0
LINE
8
BLACK
6
CONTINUOUS
10
0.325511811023622
20
0.5865354330708661
11
0.325511811023622
21
0.6465354330708661
0
LINE
8
BLACK
6
CONTINUOUS
10
0.325511811023622
20
0.6465354330708661
11
0.385511811023622
21
0.6465354330708661
0
LINE
8
BLACK
6
CONTINUOUS
10
0.385511811023622
20
0.6465354330708661
11
0.385511811023622
21
0.5865354330708661
0
LINE
8
BLACK
6
CONTINUOUS
10
0.485511811023622
20
0.5865354330708661
11
0.425511811023622
21
0.5865354330708661
0
LINE
8
BLACK
6
CONTINUOUS
10
0.425511811023622
20
0.5865354330708661
11
0.425511811023622
21
0.6465354330708661
0
LINE
8
BLACK
6
CONTINUOUS
10
0.425511811023622
20
0.6465354330708661
11
0.485511811023622
21
0.6465354330708661
0
LINE
8
BLACK
6
CONTINUOUS
10
0.485511811023622
20
0.6465354330708661
11
0.485511811023622
21
0.5865354330708661
0
LINE
8
BLACK
6
CONTINUOUS
10
1.184724409448819
20
0.5865354330708661
11
1.1247244094488189
21
0.5865354330708661
0
LINE
8
BLACK
6
CONTINUOUS
10
1.1247244094488189
20
0.5865354330708661
11
1.1247244094488189
21
0.6465354330708661
0
LINE
8
BLACK
6
CONTINUOUS
10
1.1247244094488189
20
0.6465354330708661
11
1.184724409448819
21
0.6465354330708661
0
LINE
8
BLACK
6
CONTINUOUS
10
1.184724409448819
20
0.6465354330708661
11
1.184724409448819
21
0.5865354330708661
0
LINE
8
BLACK
6
CONTINUOUS
10
1.2847244094488188
20
0.5865354330708661
11
1.2247244094488188
21
0.5865354330708661
0
LINE
8
BLACK
6
CONTINUOUS
10
1.2247244094488188
20
0.5865354330708661
11
1.2247244094488188
21
0.6465354330708661
0
LINE
8
BLACK
6
CONTINUOUS
10
1.2247244094488188
20
0.6465354330708661
11
1.2847244094488188
21
0.6465354330708661
0
LINE
8
BLACK
6
CONTINUOUS
10
1.2847244094488188
20
0.6465354330708661
11
1.2847244094488188
21
0.5865354330708661
0
LINE
8
BLACK
6
CONTINUOUS
10
0.6694101181102362
20
0.7007851181102362
11
0.6760672047244094
21
0.6984557086614173
0
LINE
8
BLACK
6
CONTINUOUS
10
0.6760672047244094
20
0.6984557086614173
11
0.6820390551181102
21
0.6947033464566928
0
LINE
8
BLACK
6
CONTINUOUS
10
0.6820390551181102
20
0.6947033464566928
11
0.6870261811023622
21
0.689716220472441
0
LINE
8
BLACK
6
CONTINUOUS
10
0.6870261811023622
20
0.689716220472441
11
0.6907785433070865
21
0.6837443700787401
0
LINE
8
BLACK
6
CONTINUOUS
10
0.6907785433070865
20
0.6837443700787401
11
0.6931079527559055
21
0.6770872834645669
0
LINE
8
BLACK
6
CONTINUOUS
10
0.6931079527559055
20
0.6770872834645669
11
0.6938976377952756
21
0.6700787401574803
0
LINE
8
BLACK
6
CONTINUOUS
10
0.6938976377952756
20
0.6700787401574803
11
0.6931079527559055
21
0.6630701968503937
0
LINE
8
BLACK
6
CONTINUOUS
10
0.6931079527559055
20
0.6630701968503937
11
0.6907785433070865
21
0.6564131102362205
0
LINE
8
BLACK
6
CONTINUOUS
10
0.6907785433070865
20
0.6564131102362205
11
0.6870261811023622
21
0.6504412598425197
0
LINE
8
BLACK
6
CONTINUOUS
10
0.6870261811023622
20
0.6504412598425197
11
0.6820390551181102
21
0.6454541338582677
0
LINE
8
BLACK
6
CONTINUOUS
10
0.6820390551181102
20
0.6454541338582677
11
0.6760672047244094
21
0.6417017716535433
0
LINE
8
BLACK
6
CONTINUOUS
10
0.6760672047244094
20
0.6417017716535433
11
0.6694101181102362
21
0.6393723622047244
0
LINE
8
BLACK
6
CONTINUOUS
10
0.6694101181102362
20
0.6393723622047244
11
0.6624015748031495
21
0.6385826771653543
0
LINE
8
BLACK
6
CONTINUOUS
10
0.6624015748031495
20
0.6385826771653543
11
0.6348425196850394
21
0.6385826771653543
0
LINE
8
BLACK
6
CONTINUOUS
10
0.6348425196850394
20
0.6385826771653543
11
0.6278339763779528
21
0.6393723622047244
0
LINE
8
BLACK
6
CONTINUOUS
10
0.6278339763779528
20
0.6393723622047244
11
0.6211768897637795
21
0.6417017716535433
0
LINE
8
BLACK
6
CONTINUOUS
10
0.6211768897637795
20
0.6417017716535433
11
0.6152050393700788
21
0.6454541338582677
0
LINE
8
BLACK
6
CONTINUOUS
10
0.6152050393700788
20
0.6454541338582677
11
0.6102179133858268
21
0.6504412598425197
0
LINE
8
BLACK
6
CONTINUOUS
10
0.6102179133858268
20
0.6504412598425197
11
0.6064655511811023
21
0.6564131102362205
0
LINE
8
BLACK
6
CONTINUOUS
10
0.6064655511811023
20
0.6564131102362205
11
0.6041361417322835
21
0.6630701968503937
0
LINE
8
BLACK
6
CONTINUOUS
10
0.6041361417322835
20
0.6630701968503937
11
0.6033464566929134
21
0.6700787401574803
0
LINE
8
BLACK
6
CONTINUOUS
10
0.6033464566929134
20
0.6700787401574803
11
0.6041361417322835
21
0.6770872834645669
0
LINE
8
BLACK
6
CONTINUOUS
10
0.6041361417322835
20
0.6770872834645669
11
0.6064655511811023
21
0.6837443700787401
0
LINE
8
BLACK
6
CONTINUOUS
10
0.6064655511811023
20
0.6837443700787401
11
0.6102179133858268
21
0.689716220472441
0
LINE
8
BLACK
6
CONTINUOUS
10
0.6102179133858268
20
0.689716220472441
11
0.6152050393700788
21
0.6947033464566928
0
LINE
8
BLACK
6
CONTINUOUS
10
0.6152050393700788
20
0.6947033464566928
11
0.6211768897637795
21
0.6984557086614173
0
LINE
8
BLACK
6
CONTINUOUS
10
0.6211768897637795
20
0.6984557086614173
11
0.6278339763779528
21
0.7007851181102362
0
LINE
8
BLACK
6
CONTINUOUS
10
0.6278339763779528
20
0.7007851181102362
11
0.6348425196850394
21
0.7015748031496063
0
LINE
8
BLACK
6
CONTINUOUS
10
0.6348425196850394
20
0.7015748031496063
11
0.6624015748031495
21
0.7015748031496063
0
LINE
8
BLACK
6
CONTINUOUS
10
0.6624015748031495
20
0.7015748031496063
11
0.6694101181102362
21
0.7007851181102362
0
LINE
8
BLACK
6
CONTINUOUS
10
0.9694101181102363
20
0.7007851181102362
11
0.9760672047244094
21
0.6984557086614173
0
LINE
8
BLACK
6
CONTINUOUS
10
0.9760672047244094
20
0.6984557086614173
11
0.9820390551181102
21
0.6947033464566928
0
LINE
8
BLACK
6
CONTINUOUS
10
0.9820390551181102
20
0.6947033464566928
11
0.9870261811023622
21
0.689716220472441
0
LINE
8
BLACK
6
CONTINUOUS
10
0.9870261811023622
20
0.689716220472441
11
0.9907785433070866
21
0.6837443700787401
0
LINE
8
BLACK
6
CONTINUOUS
10
0.9907785433070866
20
0.6837443700787401
11
0.9931079527559055
21
0.6770872834645669
0
LINE
8
BLACK
6
CONTINUOUS
10
0.9931079527559055
20
0.6770872834645669
11
0.9938976377952755
21
0.6700787401574803
0
LINE
8
BLACK
6
CONTINUOUS
10
0.9938976377952755
20
0.6700787401574803
11
0.9931079527559055
21
0.6630701968503937
0
LINE
8
BLACK
6
CONTINUOUS
10
0.9931079527559055
20
0.6630701968503937
11
0.9907785433070866
21
0.6564131102362205
0
LINE
8
BLACK
6
CONTINUOUS
10
0.9907785433070866
20
0.6564131102362205
11
0.9870261811023622
21
0.6504412598425197
0
LINE
8
BLACK
6
CONTINUOUS
10
0.9870261811023622
20
0.6504412598425197
11
0.9820390551181102
21
0.6454541338582677
0
LINE
8
BLACK
6
CONTINUOUS
10
0.9820390551181102
20
0.6454541338582677
11
0.9760672047244094
21
0.6417017716535433
0
LINE
8
BLACK
6
CONTINUOUS
10
0.9760672047244094
20
0.6417017716535433
11
0.9694101181102363
21
0.6393723622047244
0
LINE
8
BLACK
6
CONTINUOUS
10
0.9694101181102363
20
0.6393723622047244
11
0.9624015748031496
21
0.6385826771653543
0
LINE
8
BLACK
6
CONTINUOUS
10
0.9624015748031496
20
0.6385826771653543
11
0.9348425196850394
21
0.6385826771653543
0
LINE
8
BLACK
6
CONTINUOUS
10
0.9348425196850394
20
0.6385826771653543
11
0.9278339763779527
21
0.6393723622047244
0
LINE
8
BLACK
6
CONTINUOUS
10
0.9278339763779527
20
0.6393723622047244
11
0.9211768897637795
21
0.6417017716535433
0
LINE
8
BLACK
6
CONTINUOUS
10
0.9211768897637795
20
0.6417017716535433
11
0.9152050393700787
21
0.6454541338582677
0
LINE
8
BLACK
6
CONTINUOUS
10
0.9152050393700787
20
0.6454541338582677
11
0.9102179133858268
21
0.6504412598425197
0
LINE
8
BLACK
6
CONTINUOUS
10
0.9102179133858268
20
0.6504412598425197
11
0.9064655511811024
21
0.6564131102362205
0
LINE
8
BLACK
6
CONTINUOUS
10
0.9064655511811024
20
0.6564131102362205
11
0.9041361417322834
21
0.6630701968503937
0
LINE
8
BLACK
6
CONTINUOUS
10
0.9041361417322834
20
0.6630701968503937
11
0.9033464566929134
21
0.6700787401574803
0
LINE
8
BLACK
6
CONTINUOUS
10
0.9033464566929134
20
0.6700787401574803
11
0.9041361417322834
21
0.6770872834645669
0
LINE
8
BLACK
6
CONTINUOUS
10
0.9041361417322834
20
0.6770872834645669
11
0.9064655511811024
21
0.6837443700787401
0
LINE
8
BLACK
6
CONTINUOUS
10
0.9064655511811024
20
0.6837443700787401
11
0.9102179133858268
21
0.689716220472441
0
LINE
8
BLACK
6
CONTINUOUS
10
0.9102179133858268
20
0.689716220472441
11
0.9152050393700787
21
0.6947033464566928
0
LINE
8
BLACK
6
CONTINUOUS
10
0.9152050393700787
20
0.6947033464566928
11
0.9211768897637795
21
0.6984557086614173
0
LINE
8
BLACK
6
CONTINUOUS
10
0.9211768897637795
20
0.6984557086614173
11
0.9278339763779527
21
0.7007851181102362
0
LINE
8
BLACK
6
CONTINUOUS
10
0.9278339763779527
20
0.7007851181102362
11
0.9348425196850394
21
0.7015748031496063
0
LINE
8
BLACK
6
CONTINUOUS
10
0.9348425196850394
20
0.7015748031496063
11
0.9624015748031496
21
0.7015748031496063
0
LINE
8
BLACK
6
CONTINUOUS
10
0.9624015748031496
20
0.7015748031496063
11
0.9694101181102363
21
0.7007851181102362
0
LINE
8
BLACK
6
CONTINUOUS
10
0.385511811023622
20
0.6865354330708662
11
0.325511811023622
21
0.6865354330708662
0
LINE
8
BLACK
6
CONTINUOUS
10
0.325511811023622
20
0.6865354330708662
11
0.325511811023622
21
0.7465354330708661
0
LINE
8
BLACK
6
CONTINUOUS
10
0.325511811023622
20
0.7465354330708661
11
0.385511811023622
21
0.7465354330708661
0
LINE
8
BLACK
6
CONTINUOUS
10
0.385511811023622
20
0.7465354330708661
11
0.385511811023622
21
0.6865354330708662
0
LINE
8
BLACK
6
CONTINUOUS
10
0.485511811023622
20
0.6865354330708662
11
0.425511811023622
21
0.6865354330708662
0
LINE
8
BLACK
6
CONTINUOUS
10
0.425511811023622
20
0.6865354330708662
11
0.425511811023622
21
0.7465354330708661
0
LINE
8
BLACK
6
CONTINUOUS
10
0.425511811023622
20
0.7465354330708661
11
0.485511811023622
21
0.7465354330708661
0
LINE
8
BLACK
6
CONTINUOUS
10
0.485511811023622
20
0.7465354330708661
11
0.485511811023622
21
0.6865354330708662
0
LINE
8
BLACK
6
CONTINUOUS
10
1.184724409448819
20
0.6865354330708662
11
1.1247244094488189
21
0.6865354330708662
0
LINE
8
BLACK
6
CONTINUOUS
10
1.1247244094488189
20
0.6865354330708662
11
1.1247244094488189
21
0.7465354330708661
0
LINE
8
BLACK
6
CONTINUOUS
10
1.1247244094488189
20
0.7465354330708661
11
1.184724409448819
21
0.7465354330708661
0
LINE
8
BLACK
6
CONTINUOUS
10
1.184724409448819
20
0.7465354330708661
11
1.184724409448819
21
0.6865354330708662
0
LINE
8
BLACK
6
CONTINUOUS
10
1.2847244094488188
20
0.6865354330708662
11
1.2247244094488188
21
0.6865354330708662
0
LINE
8
BLACK
6
CONTINUOUS
10
1.2247244094488188
20
0.6865354330708662
11
1.2247244094488188
21
0.7465354330708661
0
LINE
8
BLACK
6
CONTINUOUS
10
1.2247244094488188
20
0.7465354330708661
11
1.2847244094488188
21
0.7465354330708661
0
LINE
8
BLACK
6
CONTINUOUS
10
1.2847244094488188
20
0.7465354330708661
11
1.2847244094488188
21
0.6865354330708662
0
LINE
8
BLACK
6
CONTINUOUS
10
0.6694101181102362
20
0.8007851181102362
11
0.6760672047244094
21
0.7984557086614174
0
LINE
8
BLACK
6
CONTINUOUS
10
0.6760672047244094
20
0.7984557086614174
11
0.6820390551181102
21
0.7947033464566929
0
LINE
8
BLACK
6
CONTINUOUS
10
0.6820390551181102
20
0.7947033464566929
11
0.6870261811023622
21
0.7897162204724409
0
LINE
8
BLACK
6
CONTINUOUS
10
0.6870261811023622
20
0.7897162204724409
11
0.6907785433070865
21
0.7837443700787401
0
LINE
8
BLACK
6
CONTINUOUS
10
0.6907785433070865
20
0.7837443700787401
11
0.6931079527559055
21
0.7770872834645669
0
LINE
8
BLACK
6
CONTINUOUS
10
0.6931079527559055
20
0.7770872834645669
11
0.6938976377952756
21
0.7700787401574803
0
LINE
8
BLACK
6
CONTINUOUS
10
0.6938976377952756
20
0.7700787401574803
11
0.6931079527559055
21
0.7630701968503937
0
LINE
8
BLACK
6
CONTINUOUS
10
0.6931079527559055
20
0.7630701968503937
11
0.6907785433070865
21
0.7564131102362205
0
LINE
8
BLACK
6
CONTINUOUS
10
0.6907785433070865
20
0.7564131102362205
11
0.6870261811023622
21
0.7504412598425196
0
LINE
8
BLACK
6
CONTINUOUS
10
0.6870261811023622
20
0.7504412598425196
11
0.6820390551181102
21
0.7454541338582678
0
LINE
8
BLACK
6
CONTINUOUS
10
0.6820390551181102
20
0.7454541338582678
11
0.6760672047244094
21
0.7417017716535433
0
LINE
8
BLACK
6
CONTINUOUS
10
0.6760672047244094
20
0.7417017716535433
11
0.6694101181102362
21
0.7393723622047244
0
LINE
8
BLACK
6
CONTINUOUS
10
0.6694101181102362
20
0.7393723622047244
11
0.6624015748031495
21
0.7385826771653543
0
LINE
8
BLACK
6
CONTINUOUS
10
0.6624015748031495
20
0.7385826771653543
11
0.6348425196850394
21
0.7385826771653543
0
LINE
8
BLACK
6
CONTINUOUS
10
0.6348425196850394
20
0.7385826771653543
11
0.6278339763779528
21
0.7393723622047244
0
LINE
8
BLACK
6
CONTINUOUS
10
0.6278339763779528
20
0.7393723622047244
11
0.6211768897637795
21
0.7417017716535433
0
LINE
8
BLACK
6
CONTINUOUS
10
0.6211768897637795
20
0.7417017716535433
11
0.6152050393700788
21
0.7454541338582678
0
LINE
8
BLACK
6
CONTINUOUS
10
0.6152050393700788
20
0.7454541338582678
11
0.6102179133858268
21
0.7504412598425196
0
LINE
8
BLACK
6
CONTINUOUS
10
0.6102179133858268
20
0.7504412598425196
11
0.6064655511811023
21
0.7564131102362205
0
LINE
8
BLACK
6
CONTINUOUS
10
0.6064655511811023
20
0.7564131102362205
11
0.6041361417322835
21
0.7630701968503937
0
LINE
8
BLACK
6
CONTINUOUS
10
0.6041361417322835
20
0.7630701968503937
11
0.6033464566929134
21
0.7700787401574803
0
LINE
8
BLACK
6
CONTINUOUS
10
0.6033464566929134
20
0.7700787401574803
11
0.6041361417322835
21
0.7770872834645669
0
LINE
8
BLACK
6
CONTINUOUS
10
0.6041361417322835
20
0.7770872834645669
11
0.6064655511811023
21
0.7837443700787401
0
LINE
8
BLACK
6
CONTINUOUS
10
0.6064655511811023
20
0.7837443700787401
11
0.6102179133858268
21
0.7897162204724409
0
LINE
8
BLACK
6
CONTINUOUS
10
0.6102179133858268
20
0.7897162204724409
11
0.6152050393700788
21
0.7947033464566929
0
LINE
8
BLACK
6
CONTINUOUS
10
0.6152050393700788
20
0.7947033464566929
11
0.6211768897637795
21
0.7984557086614174
0
LINE
8
BLACK
6
CONTINUOUS
10
0.6211768897637795
20
0.7984557086614174
11
0.6278339763779528
21
0.8007851181102362
0
LINE
8
BLACK
6
CONTINUOUS
10
0.6278339763779528
20
0.8007851181102362
11
0.6348425196850394
21
0.8015748031496063
0
LINE
8
BLACK
6
CONTINUOUS
10
0.6348425196850394
20
0.8015748031496063
11
0.6624015748031495
21
0.8015748031496063
0
LINE
8
BLACK
6
CONTINUOUS
10
0.6624015748031495
20
0.8015748031496063
11
0.6694101181102362
21
0.8007851181102362
0
LINE
8
BLACK
6
CONTINUOUS
10
0.9694101181102363
20
0.8007851181102362
11
0.9760672047244094
21
0.7984557086614174
0
LINE
8
BLACK
6
CONTINUOUS
10
0.9760672047244094
20
0.7984557086614174
11
0.9820390551181102
21
0.7947033464566929
0
LINE
8
BLACK
6
CONTINUOUS
10
0.9820390551181102
20
0.7947033464566929
11
0.9870261811023622
21
0.7897162204724409
0
LINE
8
BLACK
6
CONTINUOUS
10
0.9870261811023622
20
0.7897162204724409
11
0.9907785433070866
21
0.7837443700787401
0
LINE
8
BLACK
6
CONTINUOUS
10
0.9907785433070866
20
0.7837443700787401
11
0.9931079527559055
21
0.7770872834645669
0
LINE
8
BLACK
6
CONTINUOUS
10
0.9931079527559055
20
0.7770872834645669
11
0.9938976377952755
21
0.7700787401574803
0
LINE
8
BLACK
6
CONTINUOUS
10
0.9938976377952755
20
0.7700787401574803
11
0.9931079527559055
21
0.7630701968503937
0
LINE
8
BLACK
6
CONTINUOUS
10
0.9931079527559055
20
0.7630701968503937
11
0.9907785433070866
21
0.7564131102362205
0
LINE
8
BLACK
6
CONTINUOUS
10
0.9907785433070866
20
0.7564131102362205
11
0.9870261811023622
21
0.7504412598425196
0
LINE
8
BLACK
6
CONTINUOUS
10
0.9870261811023622
20
0.7504412598425196
11
0.9820390551181102
21
0.7454541338582678
0
LINE
8
BLACK
6
CONTINUOUS
10
0.9820390551181102
20
0.7454541338582678
11
0.9760672047244094
21
0.7417017716535433
0
LINE
8
BLACK
6
CONTINUOUS
10
0.9760672047244094
20
0.7417017716535433
11
0.9694101181102363
21
0.7393723622047244
0
LINE
8
BLACK
6
CONTINUOUS
10
0.9694101181102363
20
0.7393723622047244
11
0.9624015748031496
21
0.7385826771653543
0
LINE
8
BLACK
6
CONTINUOUS
10
0.9624015748031496
20
0.7385826771653543
11
0.9348425196850394
21
0.7385826771653543
0
LINE
8
BLACK
6
CONTINUOUS
10
0.9348425196850394
20
0.7385826771653543
11
0.9278339763779527
21
0.7393723622047244
0
LINE
8
BLACK
6
CONTINUOUS
10
0.9278339763779527
20
0.7393723622047244
11
0.9211768897637795
21
0.7417017716535433
0
LINE
8
BLACK
6
CONTINUOUS
10
0.9211768897637795
20
0.7417017716535433
11
0.9152050393700787
21
0.7454541338582678
0
LINE
8
BLACK
6
CONTINUOUS
10
0.9152050393700787
20
0.7454541338582678
11
0.9102179133858268
21
0.7504412598425196
0
LINE
8
BLACK
6
CONTINUOUS
10
0.9102179133858268
20
0.7504412598425196
11
0.9064655511811024
21
0.7564131102362205
0
LINE
8
BLACK
6
CONTINUOUS
10
0.9064655511811024
20
0.7564131102362205
11
0.9041361417322834
21
0.7630701968503937
0
LINE
8
BLACK
6
CONTINUOUS
10
0.9041361417322834
20
0.7630701968503937
11
0.9033464566929134
21
0.7700787401574803
0
LINE
8
BLACK
6
CONTINUOUS
10
0.9033464566929134
20
0.7700787401574803
11
0.9041361417322834
21
0.7770872834645669
0
LINE
8
BLACK
6
CONTINUOUS
10
0.9041361417322834
20
0.7770872834645669
11
0.9064655511811024
21
0.7837443700787401
0
LINE
8
BLACK
6
CONTINUOUS
10
0.9064655511811024
20
0.7837443700787401
11
0.9102179133858268
21
0.7897162204724409
0
LINE
8
BLACK
6
CONTINUOUS
10
0.9102179133858268
20
0.7897162204724409
11
0.9152050393700787
21
0.7947033464566929
0
LINE
8
BLACK
6
CONTINUOUS
10
0.9152050393700787
20
0.7947033464566929
11
0.9211768897637795
21
0.7984557086614174
0
LINE
8
BLACK
6
CONTINUOUS
10
0.9211768897637795
20
0.7984557086614174
11
0.9278339763779527
21
0.8007851181102362
0
LINE
8
BLACK
6
CONTINUOUS
10
0.9278339763779527
20
0.8007851181102362
11
0.9348425196850394
21
0.8015748031496063
0
LINE
8
BLACK
6
CONTINUOUS
10
0.9348425196850394
20
0.8015748031496063
11
0.9624015748031496
21
0.8015748031496063
0
LINE
8
BLACK
6
CONTINUOUS
10
0.9624015748031496
20
0.8015748031496063
11
0.9694101181102363
21
0.8007851181102362
0
LINE
8
BLACK
6
CONTINUOUS
10
0.385511811023622
20
0.7865354330708662
11
0.325511811023622
21
0.7865354330708662
0
LINE
8
BLACK
6
CONTINUOUS
10
0.325511811023622
20
0.7865354330708662
11
0.325511811023622
21
0.8465354330708661
0
LINE
8
BLACK
6
CONTINUOUS
10
0.325511811023622
20
0.8465354330708661
11
0.385511811023622
21
0.8465354330708661
0
LINE
8
BLACK
6
CONTINUOUS
10
0.385511811023622
20
0.8465354330708661
11
0.385511811023622
21
0.7865354330708662
0
LINE
8
BLACK
6
CONTINUOUS
10
0.485511811023622
20
0.7865354330708662
11
0.425511811023622
21
0.7865354330708662
0
LINE
8
BLACK
6
CONTINUOUS
10
0.425511811023622
20
0.7865354330708662
11
0.425511811023622
21
0.8465354330708661
0
LINE
8
BLACK
6
CONTINUOUS
10
0.425511811023622
20
0.8465354330708661
11
0.485511811023622
21
0.8465354330708661
0
LINE
8
BLACK
6
CONTINUOUS
10
0.485511811023622
20
0.8465354330708661
11
0.485511811023622
21
0.7865354330708662
0
LINE
8
BLACK
6
CONTINUOUS
10
1.184724409448819
20
0.7865354330708662
11
1.1247244094488189
21
0.7865354330708662
0
LINE
8
BLACK
6
CONTINUOUS
10
1.1247244094488189
20
0.7865354330708662
11
1.1247244094488189
21
0.8465354330708661
0
LINE
8
BLACK
6
CONTINUOUS
10
1.1247244094488189
20
0.8465354330708661
11
1.184724409448819
21
0.8465354330708661
0
LINE
8
BLACK
6
CONTINUOUS
10
1.184724409448819
20
0.8465354330708661
11
1.184724409448819
21
0.7865354330708662
0
LINE
8
BLACK
6
CONTINUOUS
10
1.2847244094488188
20
0.7865354330708662
11
1.2247244094488188
21
0.7865354330708662
0
LINE
8
BLACK
6
CONTINUOUS
10
1.2247244094488188
20
0.7865354330708662
11
1.2247244094488188
21
0.8465354330708661
0
LINE
8
BLACK
6
CONTINUOUS
10
1.2247244094488188
20
0.8465354330708661
11
1.2847244094488188
21
0.8465354330708661
0
LINE
8
BLACK
6
CONTINUOUS
10
1.2847244094488188
20
0.8465354330708661
11
1.2847244094488188
21
0.7865354330708662
0
LINE
8
BLACK
6
CONTINUOUS
10
0.6694101181102362
20
0.9007851181102362
11
0.6760672047244094
21
0.8984557086614173
0
LINE
8
BLACK
6
CONTINUOUS
10
0.6760672047244094
20
0.8984557086614173
11
0.6820390551181102
21
0.8947033464566929
0
LINE
8
BLACK
6
CONTINUOUS
10
0.6820390551181102
20
0.8947033464566929
11
0.6870261811023622
21
0.8897162204724409
0
LINE
8
BLACK
6
CONTINUOUS
10
0.6870261811023622
20
0.8897162204724409
11
0.6907785433070865
21
0.8837443700787402
0
LINE
8
BLACK
6
CONTINUOUS
10
0.6907785433070865
20
0.8837443700787402
11
0.6931079527559055
21
0.8770872834645669
0
LINE
8
BLACK
6
CONTINUOUS
10
0.6931079527559055
20
0.8770872834645669
11
0.6938976377952756
21
0.8700787401574803
0
LINE
8
BLACK
6
CONTINUOUS
10
0.6938976377952756
20
0.8700787401574803
11
0.6931079527559055
21
0.8630701968503937
0
LINE
8
BLACK
6
CONTINUOUS
10
0.6931079527559055
20
0.8630701968503937
11
0.6907785433070865
21
0.8564131102362205
0
LINE
8
BLACK
6
CONTINUOUS
10
0.6907785433070865
20
0.8564131102362205
11
0.6870261811023622
21
0.8504412598425196
0
LINE
8
BLACK
6
CONTINUOUS
10
0.6870261811023622
20
0.8504412598425196
11
0.6820390551181102
21
0.8454541338582677
0
LINE
8
BLACK
6
CONTINUOUS
10
0.6820390551181102
20
0.8454541338582677
11
0.6760672047244094
21
0.8417017716535433
0
LINE
8
BLACK
6
CONTINUOUS
10
0.6760672047244094
20
0.8417017716535433
11
0.6694101181102362
21
0.8393723622047244
0
LINE
8
BLACK
6
CONTINUOUS
10
0.6694101181102362
20
0.8393723622047244
11
0.6624015748031495
21
0.8385826771653543
0
LINE
8
BLACK
6
CONTINUOUS
10
0.6624015748031495
20
0.8385826771653543
11
0.6348425196850394
21
0.8385826771653543
0
LINE
8
BLACK
6
CONTINUOUS
10
0.6348425196850394
20
0.8385826771653543
11
0.6278339763779528
21
0.8393723622047244
0
LINE
8
BLACK
6
CONTINUOUS
10
0.6278339763779528
20
0.8393723622047244
11
0.6211768897637795
21
0.8417017716535433
0
LINE
8
BLACK
6
CONTINUOUS
10
0.6211768897637795
20
0.8417017716535433
11
0.6152050393700788
21
0.8454541338582677
0
LINE
8
BLACK
6
CONTINUOUS
10
0.6152050393700788
20
0.8454541338582677
11
0.6102179133858268
21
0.8504412598425196
0
LINE
8
BLACK
6
CONTINUOUS
10
0.6102179133858268
20
0.8504412598425196
11
0.6064655511811023
21
0.8564131102362205
0
LINE
8
BLACK
6
CONTINUOUS
10
0.6064655511811023
20
0.8564131102362205
11
0.6041361417322835
21
0.8630701968503937
0
LINE
8
BLACK
6
CONTINUOUS
10
0.6041361417322835
20
0.8630701968503937
11
0.6033464566929134
21
0.8700787401574803
0
LINE
8
BLACK
6
CONTINUOUS
10
0.6033464566929134
20
0.8700787401574803
11
0.6041361417322835
21
0.8770872834645669
0
LINE
8
BLACK
6
CONTINUOUS
10
0.6041361417322835
20
0.8770872834645669
11
0.6064655511811023
21
0.8837443700787402
0
LINE
8
BLACK
6
CONTINUOUS
10
0.6064655511811023
20
0.8837443700787402
11
0.6102179133858268
21
0.8897162204724409
0
LINE
8
BLACK
6
CONTINUOUS
10
0.6102179133858268
20
0.8897162204724409
11
0.6152050393700788
21
0.8947033464566929
0
LINE
8
BLACK
6
CONTINUOUS
10
0.6152050393700788
20
0.8947033464566929
11
0.6211768897637795
21
0.8984557086614173
0
LINE
8
BLACK
6
CONTINUOUS
10
0.6211768897637795
20
0.8984557086614173
11
0.6278339763779528
21
0.9007851181102362
0
LINE
8
BLACK
6
CONTINUOUS
10
0.6278339763779528
20
0.9007851181102362
11
0.6348425196850394
21
0.9015748031496063
0
LINE
8
BLACK
6
CONTINUOUS
10
0.6348425196850394
20
0.9015748031496063
11
0.6624015748031495
21
0.9015748031496063
0
LINE
8
BLACK
6
CONTINUOUS
10
0.6624015748031495
20
0.9015748031496063
11
0.6694101181102362
21
0.9007851181102362
0
LINE
8
BLACK
6
CONTINUOUS
10
0.9694101181102363
20
0.9007851181102362
11
0.9760672047244094
21
0.8984557086614173
0
LINE
8
BLACK
6
CONTINUOUS
10
0.9760672047244094
20
0.8984557086614173
11
0.9820390551181102
21
0.8947033464566929
0
LINE
8
BLACK
6
CONTINUOUS
10
0.9820390551181102
20
0.8947033464566929
11
0.9870261811023622
21
0.8897162204724409
0
LINE
8
BLACK
6
CONTINUOUS
10
0.9870261811023622
20
0.8897162204724409
11
0.9907785433070866
21
0.8837443700787402
0
LINE
8
BLACK
6
CONTINUOUS
10
0.9907785433070866
20
0.8837443700787402
11
0.9931079527559055
21
0.8770872834645669
0
LINE
8
BLACK
6
CONTINUOUS
10
0.9931079527559055
20
0.8770872834645669
11
0.9938976377952755
21
0.8700787401574803
0
LINE
8
BLACK
6
CONTINUOUS
10
0.9938976377952755
20
0.8700787401574803
11
0.9931079527559055
21
0.8630701968503937
0
LINE
8
BLACK
6
CONTINUOUS
10
0.9931079527559055
20
0.8630701968503937
11
0.9907785433070866
21
0.8564131102362205
0
LINE
8
BLACK
6
CONTINUOUS
10
0.9907785433070866
20
0.8564131102362205
11
0.9870261811023622
21
0.8504412598425196
0
LINE
8
BLACK
6
CONTINUOUS
10
0.9870261811023622
20
0.8504412598425196
11
0.9820390551181102
21
0.8454541338582677
0
LINE
8
BLACK
6
CONTINUOUS
10
0.9820390551181102
20
0.8454541338582677
11
0.9760672047244094
21
0.8417017716535433
0
LINE
8
BLACK
6
CONTINUOUS
10
0.9760672047244094
20
0.8417017716535433
11
0.9694101181102363
21
0.8393723622047244
0
LINE
8
BLACK
6
CONTINUOUS
10
0.9694101181102363
20
0.8393723622047244
11
0.9624015748031496
21
0.8385826771653543
0
LINE
8
BLACK
6
CONTINUOUS
10
0.9624015748031496
20
0.8385826771653543
11
0.9348425196850394
21
0.8385826771653543
0
LINE
8
BLACK
6
CONTINUOUS
10
0.9348425196850394
20
0.8385826771653543
11
0.9278339763779527
21
0.8393723622047244
0
LINE
8
BLACK
6
CONTINUOUS
10
0.9278339763779527
20
0.8393723622047244
11
0.9211768897637795
21
0.8417017716535433
0
LINE
8
BLACK
6
CONTINUOUS
10
0.9211768897637795
20
0.8417017716535433
11
0.9152050393700787
21
0.8454541338582677
0
LINE
8
BLACK
6
CONTINUOUS
10
0.9152050393700787
20
0.8454541338582677
11
0.9102179133858268
21
0.8504412598425196
0
LINE
8
BLACK
6
CONTINUOUS
10
0.9102179133858268
20
0.8504412598425196
11
0.9064655511811024
21
0.8564131102362205
0
LINE
8
BLACK
6
CONTINUOUS
10
0.9064655511811024
20
0.8564131102362205
11
0.9041361417322834
21
0.8630701968503937
0
LINE
8
BLACK
6
CONTINUOUS
10
0.9041361417322834
20
0.8630701968503937
11
0.9033464566929134
21
0.8700787401574803
0
LINE
8
BLACK
6
CONTINUOUS
10
0.9033464566929134
20
0.8700787401574803
11
0.9041361417322834
21
0.8770872834645669
0
LINE
8
BLACK
6
CONTINUOUS
10
0.9041361417322834
20
0.8770872834645669
11
0.9064655511811024
21
0.8837443700787402
0
LINE
8
BLACK
6
CONTINUOUS
10
0.9064655511811024
20
0.8837443700787402
11
0.9102179133858268
21
0.8897162204724409
0
LINE
8
BLACK
6
CONTINUOUS
10
0.9102179133858268
20
0.8897162204724409
11
0.9152050393700787
21
0.8947033464566929
0
LINE
8
BLACK
6
CONTINUOUS
10
0.9152050393700787
20
0.8947033464566929
11
0.9211768897637795
21
0.8984557086614173
0
LINE
8
BLACK
6
CONTINUOUS
10
0.9211768897637795
20
0.8984557086614173
11
0.9278339763779527
21
0.9007851181102362
0
LINE
8
BLACK
6
CONTINUOUS
10
0.9278339763779527
20
0.9007851181102362
11
0.9348425196850394
21
0.9015748031496063
0
LINE
8
BLACK
6
CONTINUOUS
10
0.9348425196850394
20
0.9015748031496063
11
0.9624015748031496
21
0.9015748031496063
0
LINE
8
BLACK
6
CONTINUOUS
10
0.9624015748031496
20
0.9015748031496063
11
0.9694101181102363
21
0.9007851181102362
0
LINE
8
BLACK
6
CONTINUOUS
10
0.385511811023622
20
0.8865354330708661
11
0.325511811023622
21
0.8865354330708661
0
LINE
8
BLACK
6
CONTINUOUS
10
0.325511811023622
20
0.8865354330708661
11
0.325511811023622
21
0.9465354330708661
0
LINE
8
BLACK
6
CONTINUOUS
10
0.325511811023622
20
0.9465354330708661
11
0.385511811023622
21
0.9465354330708661
0
LINE
8
BLACK
6
CONTINUOUS
10
0.385511811023622
20
0.9465354330708661
11
0.385511811023622
21
0.8865354330708661
0
LINE
8
BLACK
6
CONTINUOUS
10
0.485511811023622
20
0.8865354330708661
11
0.425511811023622
21
0.8865354330708661
0
LINE
8
BLACK
6
CONTINUOUS
10
0.425511811023622
20
0.8865354330708661
11
0.425511811023622
21
0.9465354330708661
0
LINE
8
BLACK
6
CONTINUOUS
10
0.425511811023622
20
0.9465354330708661
11
0.485511811023622
21
0.9465354330708661
0
LINE
8
BLACK
6
CONTINUOUS
10
0.485511811023622
20
0.9465354330708661
11
0.485511811023622
21
0.8865354330708661
0
LINE
8
BLACK
6
CONTINUOUS
10
1.184724409448819
20
0.8865354330708661
11
1.1247244094488189
21
0.8865354330708661
0
LINE
8
BLACK
6
CONTINUOUS
10
1.1247244094488189
20
0.8865354330708661
11
1.1247244094488189
21
0.9465354330708661
0
LINE
8
BLACK
6
CONTINUOUS
10
1.1247244094488189
20
0.9465354330708661
11
1.184724409448819
21
0.9465354330708661
0
LINE
8
BLACK
6
CONTINUOUS
10
1.184724409448819
20
0.9465354330708661
11
1.184724409448819
21
0.8865354330708661
0
LINE
8
BLACK
6
CONTINUOUS
10
1.2847244094488188
20
0.8865354330708661
11
1.2247244094488188
21
0.8865354330708661
0
LINE
8
BLACK
6
CONTINUOUS
10
1.2247244094488188
20
0.8865354330708661
11
1.2247244094488188
21
0.9465354330708661
0
LINE
8
BLACK
6
CONTINUOUS
10
1.2247244094488188
20
0.9465354330708661
11
1.2847244094488188
21
0.9465354330708661
0
LINE
8
BLACK
6
CONTINUOUS
10
1.2847244094488188
20
0.9465354330708661
11
1.2847244094488188
21
0.8865354330708661
0
LINE
8
BLACK
6
CONTINUOUS
10
0.385511811023622
20
0.9865354330708661
11
0.325511811023622
21
0.9865354330708661
0
LINE
8
BLACK
6
CONTINUOUS
10
0.325511811023622
20
0.9865354330708661
11
0.325511811023622
21
1.0465354330708661
0
LINE
8
BLACK
6
CONTINUOUS
10
0.325511811023622
20
1.0465354330708661
11
0.385511811023622
21
1.0465354330708661
0
LINE
8
BLACK
6
CONTINUOUS
10
0.385511811023622
20
1.0465354330708661
11
0.385511811023622
21
0.9865354330708661
0
LINE
8
BLACK
6
CONTINUOUS
10
0.485511811023622
20
0.9865354330708661
11
0.425511811023622
21
0.9865354330708661
0
LINE
8
BLACK
6
CONTINUOUS
10
0.425511811023622
20
0.9865354330708661
11
0.425511811023622
21
1.0465354330708661
0
LINE
8
BLACK
6
CONTINUOUS
10
0.425511811023622
20
1.0465354330708661
11
0.485511811023622
21
1.0465354330708661
0
LINE
8
BLACK
6
CONTINUOUS
10
0.485511811023622
20
1.0465354330708661
11
0.485511811023622
21
0.9865354330708661
0
LINE
8
BLACK
6
CONTINUOUS
10
1.184724409448819
20
0.9865354330708661
11
1.1247244094488189
21
0.9865354330708661
0
LINE
8
BLACK
6
CONTINUOUS
10
1.1247244094488189
20
0.9865354330708661
11
1.1247244094488189
21
1.0465354330708661
0
LINE
8
BLACK
6
CONTINUOUS
10
1.1247244094488189
20
1.0465354330708661
11
1.184724409448819
21
1.0465354330708661
0
LINE
8
BLACK
6
CONTINUOUS
10
1.184724409448819
20
1.0465354330708661
11
1.184724409448819
21
0.9865354330708661
0
LINE
8
BLACK
6
CONTINUOUS
10
1.2847244094488188
20
0.9865354330708661
11
1.2247244094488188
21
0.9865354330708661
0
LINE
8
BLACK
6
CONTINUOUS
10
1.2247244094488188
20
0.9865354330708661
11
1.2247244094488188
21
1.0465354330708661
0
LINE
8
BLACK
6
CONTINUOUS
10
1.2247244094488188
20
1.0465354330708661
11
1.2847244094488188
21
1.0465354330708661
0
LINE
8
BLACK
6
CONTINUOUS
10
1.2847244094488188
20
1.0465354330708661
11
1.2847244094488188
21
0.9865354330708661
0
LINE
8
BLACK
6
CONTINUOUS
10
0.637624842519685
20
1.0779909448818898
11
0.6408179921259842
21
1.0758573622047243
0
LINE
8
BLACK
6
CONTINUOUS
10
0.6408179921259842
20
1.0758573622047243
11
0.6429515748031496
21
1.0726642125984251
0
LINE
8
BLACK
6
CONTINUOUS
10
0.6429515748031496
20
1.0726642125984251
11
0.6437007874015748
21
1.0688976377952755
0
LINE
8
BLACK
6
CONTINUOUS
10
0.6437007874015748
20
1.0688976377952755
11
0.6437007874015748
21
1.0177165354330708
0
LINE
8
BLACK
6
CONTINUOUS
10
0.6437007874015748
20
1.0177165354330708
11
0.6429515748031496
21
1.0139499606299212
0
LINE
8
BLACK
6
CONTINUOUS
10
0.6429515748031496
20
1.0139499606299212
11
0.6408179921259842
21
1.010756811023622
0
LINE
8
BLACK
6
CONTINUOUS
10
0.6408179921259842
20
1.010756811023622
11
0.637624842519685
21
1.0086232283464567
0
LINE
8
BLACK
6
CONTINUOUS
10
0.637624842519685
20
1.0086232283464567
11
0.6338582677165354
21
1.0078740157480315
0
LINE
8
BLACK
6
CONTINUOUS
10
0.6338582677165354
20
1.0078740157480315
11
0.5551181102362205
21
1.0078740157480315
0
LINE
8
BLACK
6
CONTINUOUS
10
0.5551181102362205
20
1.0078740157480315
11
0.5513515354330708
21
1.0086232283464567
0
LINE
8
BLACK
6
CONTINUOUS
10
0.5513515354330708
20
1.0086232283464567
11
0.5481583858267717
21
1.010756811023622
0
LINE
8
BLACK
6
CONTINUOUS
10
0.5481583858267717
20
1.010756811023622
11
0.5460248031496063
21
1.0139499606299212
0
LINE
8
BLACK
6
CONTINUOUS
10
0.5460248031496063
20
1.0139499606299212
11
0.5452755905511811
21
1.0177165354330708
0
LINE
8
BLACK
6
CONTINUOUS
10
0.5452755905511811
20
1.0177165354330708
11
0.5452755905511811
21
1.0688976377952755
0
LINE
8
BLACK
6
CONTINUOUS
10
0.5452755905511811
20
1.0688976377952755
11
0.5460248031496063
21
1.0726642125984251
0
LINE
8
BLACK
6
CONTINUOUS
10
0.5460248031496063
20
1.0726642125984251
11
0.5481583858267717
21
1.0758573622047243
0
LINE
8
BLACK
6
CONTINUOUS
10
0.5481583858267717
20
1.0758573622047243
11
0.5513515354330708
21
1.0779909448818898
0
LINE
8
BLACK
6
CONTINUOUS
10
0.5513515354330708
20
1.0779909448818898
11
0.5551181102362205
21
1.078740157480315
0
LINE
8
BLACK
6
CONTINUOUS
10
0.5551181102362205
20
1.078740157480315
11
0.6338582677165354
21
1.078740157480315
0
LINE
8
BLACK
6
CONTINUOUS
10
0.6338582677165354
20
1.078740157480315
11
0.637624842519685
21
1.0779909448818898
0
LINE
8
BLACK
6
CONTINUOUS
10
0.795105157480315
20
1.0779909448818898
11
0.7982983070866142
21
1.0758573622047243
0
LINE
8
BLACK
6
CONTINUOUS
10
0.7982983070866142
20
1.0758573622047243
11
0.8004318897637795
21
1.0726642125984251
0
LINE
8
BLACK
6
CONTINUOUS
10
0.8004318897637795
20
1.0726642125984251
11
0.8011811023622047
21
1.0688976377952755
0
LINE
8
BLACK
6
CONTINUOUS
10
0.8011811023622047
20
1.0688976377952755
11
0.8011811023622047
21
1.0177165354330708
0
LINE
8
BLACK
6
CONTINUOUS
10
0.8011811023622047
20
1.0177165354330708
11
0.8004318897637795
21
1.0139499606299212
0
LINE
8
BLACK
6
CONTINUOUS
10
0.8004318897637795
20
1.0139499606299212
11
0.7982983070866142
21
1.010756811023622
0
LINE
8
BLACK
6
CONTINUOUS
10
0.7982983070866142
20
1.010756811023622
11
0.795105157480315
21
1.0086232283464567
0
LINE
8
BLACK
6
CONTINUOUS
10
0.795105157480315
20
1.0086232283464567
11
0.7913385826771653
21
1.0078740157480315
0
LINE
8
BLACK
6
CONTINUOUS
10
0.7913385826771653
20
1.0078740157480315
11
0.7125984251968503
21
1.0078740157480315
0
LINE
8
BLACK
6
CONTINUOUS
10
0.7125984251968503
20
1.0078740157480315
11
0.7088318503937008
21
1.0086232283464567
0
LINE
8
BLACK
6
CONTINUOUS
10
0.7088318503937008
20
1.0086232283464567
11
0.7056387007874015
21
1.010756811023622
0
LINE
8
BLACK
6
CONTINUOUS
10
0.7056387007874015
20
1.010756811023622
11
0.7035051181102362
21
1.0139499606299212
0
LINE
8
BLACK
6
CONTINUOUS
10
0.7035051181102362
20
1.0139499606299212
11
0.702755905511811
21
1.0177165354330708
0
LINE
8
BLACK
6
CONTINUOUS
10
0.702755905511811
20
1.0177165354330708
11
0.702755905511811
21
1.0688976377952755
0
LINE
8
BLACK
6
CONTINUOUS
10
0.702755905511811
20
1.0688976377952755
11
0.7035051181102362
21
1.0726642125984251
0
LINE
8
BLACK
6
CONTINUOUS
10
0.7035051181102362
20
1.0726642125984251
11
0.7056387007874015
21
1.0758573622047243
0
LINE
8
BLACK
6
CONTINUOUS
10
0.7056387007874015
20
1.0758573622047243
11
0.7088318503937008
21
1.0779909448818898
0
LINE
8
BLACK
6
CONTINUOUS
10
0.7088318503937008
20
1.0779909448818898
11
0.7125984251968503
21
1.078740157480315
0
LINE
8
BLACK
6
CONTINUOUS
10
0.7125984251968503
20
1.078740157480315
11
0.7913385826771653
21
1.078740157480315
0
LINE
8
BLACK
6
CONTINUOUS
10
0.7913385826771653
20
1.078740157480315
11
0.795105157480315
21
1.0779909448818898
0
LINE
8
BLACK
6
CONTINUOUS
10
0.9171524015748032
20
1.0779909448818898
11
0.9203455511811024
21
1.0758573622047243
0
LINE
8
BLACK
6
CONTINUOUS
10
0.9203455511811024
20
1.0758573622047243
11
0.9224791338582677
21
1.0726642125984251
0
LINE
8
BLACK
6
CONTINUOUS
10
0.9224791338582677
20
1.0726642125984251
11
0.9232283464566929
21
1.0688976377952755
0
LINE
8
BLACK
6
CONTINUOUS
10
0.9232283464566929
20
1.0688976377952755
11
0.9232283464566929
21
1.0177165354330708
0
LINE
8
BLACK
6
CONTINUOUS
10
0.9232283464566929
20
1.0177165354330708
11
0.9224791338582677
21
1.0139499606299212
0
LINE
8
BLACK
6
CONTINUOUS
10
0.9224791338582677
20
1.0139499606299212
11
0.9203455511811024
21
1.010756811023622
0
LINE
8
BLACK
6
CONTINUOUS
10
0.9203455511811024
20
1.010756811023622
11
0.9171524015748032
21
1.0086232283464567
0
LINE
8
BLACK
6
CONTINUOUS
10
0.9171524015748032
20
1.0086232283464567
11
0.9133858267716535
21
1.0078740157480315
0
LINE
8
BLACK
6
CONTINUOUS
10
0.9133858267716535
20
1.0078740157480315
11
0.8346456692913385
21
1.0078740157480315
0
LINE
8
BLACK
6
CONTINUOUS
10
0.8346456692913385
20
1.0078740157480315
11
0.830879094488189
21
1.0086232283464567
0
LINE
8
BLACK
6
CONTINUOUS
10
0.830879094488189
20
1.0086232283464567
11
0.8276859448818897
21
1.010756811023622
0
LINE
8
BLACK
6
CONTINUOUS
10
0.8276859448818897
20
1.010756811023622
11
0.8255523622047244
21
1.0139499606299212
0
LINE
8
BLACK
6
CONTINUOUS
10
0.8255523622047244
20
1.0139499606299212
11
0.8248031496062992
21
1.0177165354330708
0
LINE
8
BLACK
6
CONTINUOUS
10
0.8248031496062992
20
1.0177165354330708
11
0.8248031496062992
21
1.0688976377952755
0
LINE
8
BLACK
6
CONTINUOUS
10
0.8248031496062992
20
1.0688976377952755
11
0.8255523622047244
21
1.0726642125984251
0
LINE
8
BLACK
6
CONTINUOUS
10
0.8255523622047244
20
1.0726642125984251
11
0.8276859448818897
21
1.0758573622047243
0
LINE
8
BLACK
6
CONTINUOUS
10
0.8276859448818897
20
1.0758573622047243
11
0.830879094488189
21
1.0779909448818898
0
LINE
8
BLACK
6
CONTINUOUS
10
0.830879094488189
20
1.0779909448818898
11
0.8346456692913385
21
1.078740157480315
0
LINE
8
BLACK
6
CONTINUOUS
10
0.8346456692913385
20
1.078740157480315
11
0.9133858267716535
21
1.078740157480315
0
LINE
8
BLACK
6
CONTINUOUS
10
0.9133858267716535
20
1.078740157480315
11
0.9171524015748032
21
1.0779909448818898
0
LINE
8
BLACK
6
CONTINUOUS
10
1.074632716535433
20
1.0779909448818898
11
1.0778258661417324
21
1.0758573622047243
0
LINE
8
BLACK
6
CONTINUOUS
10
1.0778258661417324
20
1.0758573622047243
11
1.0799594488188977
21
1.0726642125984251
0
LINE
8
BLACK
6
CONTINUOUS
10
1.0799594488188977
20
1.0726642125984251
11
1.0807086614173229
21
1.0688976377952755
0
LINE
8
BLACK
6
CONTINUOUS
10
1.0807086614173229
20
1.0688976377952755
11
1.0807086614173229
21
1.0177165354330708
0
LINE
8
BLACK
6
CONTINUOUS
10
1.0807086614173229
20
1.0177165354330708
11
1.0799594488188977
21
1.0139499606299212
0
LINE
8
BLACK
6
CONTINUOUS
10
1.0799594488188977
20
1.0139499606299212
11
1.0778258661417324
21
1.010756811023622
0
LINE
8
BLACK
6
CONTINUOUS
10
1.0778258661417324
20
1.010756811023622
11
1.074632716535433
21
1.0086232283464567
0
LINE
8
BLACK
6
CONTINUOUS
10
1.074632716535433
20
1.0086232283464567
11
1.0708661417322833
21
1.0078740157480315
0
LINE
8
BLACK
6
CONTINUOUS
10
1.0708661417322833
20
1.0078740157480315
11
0.9921259842519685
21
1.0078740157480315
0
LINE
8
BLACK
6
CONTINUOUS
10
0.9921259842519685
20
1.0078740157480315
11
0.9883594094488188
21
1.0086232283464567
0
LINE
8
BLACK
6
CONTINUOUS
10
0.9883594094488188
20
1.0086232283464567
11
0.9851662598425197
21
1.010756811023622
0
LINE
8
BLACK
6
CONTINUOUS
10
0.9851662598425197
20
1.010756811023622
11
0.9830326771653544
21
1.0139499606299212
0
LINE
8
BLACK
6
CONTINUOUS
10
0.9830326771653544
20
1.0139499606299212
11
0.9822834645669292
21
1.0177165354330708
0
LINE
8
BLACK
6
CONTINUOUS
10
0.9822834645669292
20
1.0177165354330708
11
0.9822834645669292
21
1.0688976377952755
0
LINE
8
BLACK
6
CONTINUOUS
10
0.9822834645669292
20
1.0688976377952755
11
0.9830326771653544
21
1.0726642125984251
0
LINE
8
BLACK
6
CONTINUOUS
10
0.9830326771653544
20
1.0726642125984251
11
0.9851662598425197
21
1.0758573622047243
0
LINE
8
BLACK
6
CONTINUOUS
10
0.9851662598425197
20
1.0758573622047243
11
0.9883594094488188
21
1.0779909448818898
0
LINE
8
BLACK
6
CONTINUOUS
10
0.9883594094488188
20
1.0779909448818898
11
0.9921259842519685
21
1.078740157480315
0
LINE
8
BLACK
6
CONTINUOUS
10
0.9921259842519685
20
1.078740157480315
11
1.0708661417322833
21
1.078740157480315
0
LINE
8
BLACK
6
CONTINUOUS
10
1.0708661417322833
20
1.078740157480315
11
1.074632716535433
21
1.0779909448818898
0
LINE
8
BLACK
6
CONTINUOUS
10
0.385511811023622
20
1.0865354330708661
11
0.325511811023622
21
1.0865354330708661
0
LINE
8
BLACK
6
CONTINUOUS
10
0.325511811023622
20
1.0865354330708661
11
0.325511811023622
21
1.1465354330708661
0
LINE
8
BLACK
6
CONTINUOUS
10
0.325511811023622
20
1.1465354330708661
11
0.385511811023622
21
1.1465354330708661
0
LINE
8
BLACK
6
CONTINUOUS
10
0.385511811023622
20
1.1465354330708661
11
0.385511811023622
21
1.0865354330708661
0
LINE
8
BLACK
6
CONTINUOUS
10
0.485511811023622
20
1.0865354330708661
11
0.425511811023622
21
1.0865354330708661
0
LINE
8
BLACK
6
CONTINUOUS
10
0.425511811023622
20
1.0865354330708661
11
0.425511811023622
21
1.1465354330708661
0
LINE
8
BLACK
6
CONTINUOUS
10
0.425511811023622
20
1.1465354330708661
11
0.485511811023622
21
1.1465354330708661
0
LINE
8
BLACK
6
CONTINUOUS
10
0.485511811023622
20
1.1465354330708661
11
0.485511811023622
21
1.0865354330708661
0
LINE
8
BLACK
6
CONTINUOUS
10
1.184724409448819
20
1.0865354330708661
11
1.1247244094488189
21
1.0865354330708661
0
LINE
8
BLACK
6
CONTINUOUS
10
1.1247244094488189
20
1.0865354330708661
11
1.1247244094488189
21
1.1465354330708661
0
LINE
8
BLACK
6
CONTINUOUS
10
1.1247244094488189
20
1.1465354330708661
11
1.184724409448819
21
1.1465354330708661
0
LINE
8
BLACK
6
CONTINUOUS
10
1.184724409448819
20
1.1465354330708661
11
1.184724409448819
21
1.0865354330708661
0
LINE
8
BLACK
6
CONTINUOUS
10
1.2847244094488188
20
1.0865354330708661
11
1.2247244094488188
21
1.0865354330708661
0
LINE
8
BLACK
6
CONTINUOUS
10
1.2247244094488188
20
1.0865354330708661
11
1.2247244094488188
21
1.1465354330708661
0
LINE
8
BLACK
6
CONTINUOUS
10
1.2247244094488188
20
1.1465354330708661
11
1.2847244094488188
21
1.1465354330708661
0
LINE
8
BLACK
6
CONTINUOUS
10
1.2847244094488188
20
1.1465354330708661
11
1.2847244094488188
21
1.0865354330708661
0
LINE
8
BLACK
6
CONTINUOUS
10
0.5687272047244094
20
1.1650972440944882
11
0.5719203543307086
21
1.1629636614173229
0
LINE
8
BLACK
6
CONTINUOUS
10
0.5719203543307086
20
1.1629636614173229
11
0.574053937007874
21
1.1597705118110235
0
LINE
8
BLACK
6
CONTINUOUS
10
0.574053937007874
20
1.1597705118110235
11
0.5748031496062992
21
1.1560039370078741
0
LINE
8
BLACK
6
CONTINUOUS
10
0.5748031496062992
20
1.1560039370078741
11
0.5748031496062992
21
1.1353346456692912
0
LINE
8
BLACK
6
CONTINUOUS
10
0.5748031496062992
20
1.1353346456692912
11
0.574053937007874
21
1.1315680708661418
0
LINE
8
BLACK
6
CONTINUOUS
10
0.574053937007874
20
1.1315680708661418
11
0.5719203543307086
21
1.1283749212598424
0
LINE
8
BLACK
6
CONTINUOUS
10
0.5719203543307086
20
1.1283749212598424
11
0.5687272047244094
21
1.1262413385826771
0
LINE
8
BLACK
6
CONTINUOUS
10
0.5687272047244094
20
1.1262413385826771
11
0.5649606299212598
21
1.1254921259842519
0
LINE
8
BLACK
6
CONTINUOUS
10
0.5649606299212598
20
1.1254921259842519
11
0.5295275590551181
21
1.1254921259842519
0
LINE
8
BLACK
6
CONTINUOUS
10
0.5295275590551181
20
1.1254921259842519
11
0.5257609842519685
21
1.1262413385826771
0
LINE
8
BLACK
6
CONTINUOUS
10
0.5257609842519685
20
1.1262413385826771
11
0.5225678346456692
21
1.1283749212598424
0
LINE
8
BLACK
6
CONTINUOUS
10
0.5225678346456692
20
1.1283749212598424
11
0.5204342519685039
21
1.1315680708661418
0
LINE
8
BLACK
6
CONTINUOUS
10
0.5204342519685039
20
1.1315680708661418
11
0.5196850393700787
21
1.1353346456692912
0
LINE
8
BLACK
6
CONTINUOUS
10
0.5196850393700787
20
1.1353346456692912
11
0.5196850393700787
21
1.1560039370078741
0
LINE
8
BLACK
6
CONTINUOUS
10
0.5196850393700787
20
1.1560039370078741
11
0.5204342519685039
21
1.1597705118110235
0
LINE
8
BLACK
6
CONTINUOUS
10
0.5204342519685039
20
1.1597705118110235
11
0.5225678346456692
21
1.1629636614173229
0
LINE
8
BLACK
6
CONTINUOUS
10
0.5225678346456692
20
1.1629636614173229
11
0.5257609842519685
21
1.1650972440944882
0
LINE
8
BLACK
6
CONTINUOUS
10
0.5257609842519685
20
1.1650972440944882
11
0.5295275590551181
21
1.1658464566929134
0
LINE
8
BLACK
6
CONTINUOUS
10
0.5295275590551181
20
1.1658464566929134
11
0.5649606299212598
21
1.1658464566929134
0
LINE
8
BLACK
6
CONTINUOUS
10
0.5649606299212598
20
1.1658464566929134
11
0.5687272047244094
21
1.1650972440944882
0
LINE
8
BLACK
6
CONTINUOUS
10
1.0529791732283464
20
1.2295657480314961
11
1.0561723228346456
21
1.2274321653543308
0
LINE
8
BLACK
6
CONTINUOUS
10
1.0561723228346456
20
1.2274321653543308
11
1.0583059055118109
21
1.2242390157480314
0
LINE
8
BLACK
6
CONTINUOUS
10
1.0583059055118109
20
1.2242390157480314
11
1.0590551181102361
21
1.2204724409448819
0
LINE
8
BLACK
6
CONTINUOUS
10
1.0590551181102361
20
1.2204724409448819
11
1.0590551181102361
21
1.1417322834645669
0
LINE
8
BLACK
6
CONTINUOUS
10
1.0590551181102361
20
1.1417322834645669
11
1.0583059055118109
21
1.1379657086614172
0
LINE
8
BLACK
6
CONTINUOUS
10
1.0583059055118109
20
1.1379657086614172
11
1.0561723228346456
21
1.1347725590551181
0
LINE
8
BLACK
6
CONTINUOUS
10
1.0561723228346456
20
1.1347725590551181
11
1.0529791732283464
21
1.1326389763779527
0
LINE
8
BLACK
6
CONTINUOUS
10
1.0529791732283464
20
1.1326389763779527
11
1.0492125984251968
21
1.1318897637795275
0
LINE
8
BLACK
6
CONTINUOUS
10
1.0492125984251968
20
1.1318897637795275
11
0.9980314960629921
21
1.1318897637795275
0
LINE
8
BLACK
6
CONTINUOUS
10
0.9980314960629921
20
1.1318897637795275
11
0.9942649212598424
21
1.1326389763779527
0
LINE
8
BLACK
6
CONTINUOUS
10
0.9942649212598424
20
1.1326389763779527
11
0.9910717716535433
21
1.1347725590551181
0
LINE
8
BLACK
6
CONTINUOUS
10
0.9910717716535433
20
1.1347725590551181
11
0.988938188976378
21
1.1379657086614172
0
LINE
8
BLACK
6
CONTINUOUS
10
0.988938188976378
20
1.1379657086614172
11
0.9881889763779528
21
1.1417322834645669
0
LINE
8
BLACK
6
CONTINUOUS
10
0.9881889763779528
20
1.1417322834645669
11
0.9881889763779528
21
1.2204724409448819
0
LINE
8
BLACK
6
CONTINUOUS
10
0.9881889763779528
20
1.2204724409448819
11
0.988938188976378
21
1.2242390157480314
0
LINE
8
BLACK
6
CONTINUOUS
10
0.988938188976378
20
1.2242390157480314
11
0.9910717716535433
21
1.2274321653543308
0
LINE
8
BLACK
6
CONTINUOUS
10
0.9910717716535433
20
1.2274321653543308
11
0.9942649212598424
21
1.2295657480314961
0
LINE
8
BLACK
6
CONTINUOUS
10
0.9942649212598424
20
1.2295657480314961
11
0.9980314960629921
21
1.2303149606299213
0
LINE
8
BLACK
6
CONTINUOUS
10
0.9980314960629921
20
1.2303149606299213
11
1.0492125984251968
21
1.2303149606299213
0
LINE
8
BLACK
6
CONTINUOUS
10
1.0492125984251968
20
1.2303149606299213
11
1.0529791732283464
21
1.2295657480314961
0
LINE
8
BLACK
6
CONTINUOUS
10
0.7813256299212599
20
1.1882271653543306
11
0.784518779527559
21
1.1860935826771652
0
LINE
8
BLACK
6
CONTINUOUS
10
0.784518779527559
20
1.1860935826771652
11
0.7866523622047243
21
1.1829004330708661
0
LINE
8
BLACK
6
CONTINUOUS
10
0.7866523622047243
20
1.1829004330708661
11
0.7874015748031495
21
1.1791338582677164
0
LINE
8
BLACK
6
CONTINUOUS
10
0.7874015748031495
20
1.1791338582677164
11
0.7874015748031495
21
1.1584645669291338
0
LINE
8
BLACK
6
CONTINUOUS
10
0.7874015748031495
20
1.1584645669291338
11
0.7866523622047243
21
1.1546979921259841
0
LINE
8
BLACK
6
CONTINUOUS
10
0.7866523622047243
20
1.1546979921259841
11
0.784518779527559
21
1.151504842519685
0
LINE
8
BLACK
6
CONTINUOUS
10
0.784518779527559
20
1.151504842519685
11
0.7813256299212599
21
1.1493712598425196
0
LINE
8
BLACK
6
CONTINUOUS
10
0.7813256299212599
20
1.1493712598425196
11
0.7775590551181102
21
1.1486220472440944
0
LINE
8
BLACK
6
CONTINUOUS
10
0.7775590551181102
20
1.1486220472440944
11
0.7421259842519685
21
1.1486220472440944
0
LINE
8
BLACK
6
CONTINUOUS
10
0.7421259842519685
20
1.1486220472440944
11
0.7383594094488188
21
1.1493712598425196
0
LINE
8
BLACK
6
CONTINUOUS
10
0.7383594094488188
20
1.1493712598425196
11
0.7351662598425197
21
1.151504842519685
0
LINE
8
BLACK
6
CONTINUOUS
10
0.7351662598425197
20
1.151504842519685
11
0.7330326771653544
21
1.1546979921259841
0
LINE
8
BLACK
6
CONTINUOUS
10
0.7330326771653544
20
1.1546979921259841
11
0.7322834645669292
21
1.1584645669291338
0
LINE
8
BLACK
6
CONTINUOUS
10
0.7322834645669292
20
1.1584645669291338
11
0.7322834645669292
21
1.1791338582677164
0
LINE
8
BLACK
6
CONTINUOUS
10
0.7322834645669292
20
1.1791338582677164
11
0.7330326771653544
21
1.1829004330708661
0
LINE
8
BLACK
6
CONTINUOUS
10
0.7330326771653544
20
1.1829004330708661
11
0.7351662598425197
21
1.1860935826771652
0
LINE
8
BLACK
6
CONTINUOUS
10
0.7351662598425197
20
1.1860935826771652
11
0.7383594094488188
21
1.1882271653543306
0
LINE
8
BLACK
6
CONTINUOUS
10
0.7383594094488188
20
1.1882271653543306
11
0.7421259842519685
21
1.1889763779527558
0
LINE
8
BLACK
6
CONTINUOUS
10
0.7421259842519685
20
1.1889763779527558
11
0.7775590551181102
21
1.1889763779527558
0
LINE
8
BLACK
6
CONTINUOUS
10
0.7775590551181102
20
1.1889763779527558
11
0.7813256299212599
21
1.1882271653543306
0
LINE
8
BLACK
6
CONTINUOUS
10
0.864956811023622
20
1.1786843307086614
11
0.8668726771653543
21
1.1774041732283465
0
LINE
8
BLACK
6
CONTINUOUS
10
0.8668726771653543
20
1.1774041732283465
11
0.8681528346456693
21
1.1754883070866142
0
LINE
8
BLACK
6
CONTINUOUS
10
0.8681528346456693
20
1.1754883070866142
11
0.8686023622047244
21
1.1732283464566928
0
LINE
8
BLACK
6
CONTINUOUS
10
0.8686023622047244
20
1.1732283464566928
11
0.8686023622047244
21
1.1614173228346456
0
LINE
8
BLACK
6
CONTINUOUS
10
0.8686023622047244
20
1.1614173228346456
11
0.8681528346456693
21
1.1591573622047244
0
LINE
8
BLACK
6
CONTINUOUS
10
0.8681528346456693
20
1.1591573622047244
11
0.8668726771653543
21
1.1572414960629922
0
LINE
8
BLACK
6
CONTINUOUS
10
0.8668726771653543
20
1.1572414960629922
11
0.864956811023622
21
1.1559613385826772
0
LINE
8
BLACK
6
CONTINUOUS
10
0.864956811023622
20
1.1559613385826772
11
0.8626968503937008
21
1.155511811023622
0
LINE
8
BLACK
6
CONTINUOUS
10
0.8626968503937008
20
1.155511811023622
11
0.8164370078740157
21
1.155511811023622
0
LINE
8
BLACK
6
CONTINUOUS
10
0.8164370078740157
20
1.155511811023622
11
0.8141770472440945
21
1.1559613385826772
0
LINE
8
BLACK
6
CONTINUOUS
10
0.8141770472440945
20
1.1559613385826772
11
0.8122611811023622
21
1.1572414960629922
0
LINE
8
BLACK
6
CONTINUOUS
10
0.8122611811023622
20
1.1572414960629922
11
0.8109810236220473
21
1.1591573622047244
0
LINE
8
BLACK
6
CONTINUOUS
10
0.8109810236220473
20
1.1591573622047244
11
0.8105314960629921
21
1.1614173228346456
0
LINE
8
BLACK
6
CONTINUOUS
10
0.8105314960629921
20
1.1614173228346456
11
0.8105314960629921
21
1.1732283464566928
0
LINE
8
BLACK
6
CONTINUOUS
10
0.8105314960629921
20
1.1732283464566928
11
0.8109810236220473
21
1.1754883070866142
0
LINE
8
BLACK
6
CONTINUOUS
10
0.8109810236220473
20
1.1754883070866142
11
0.8122611811023622
21
1.1774041732283465
0
LINE
8
BLACK
6
CONTINUOUS
10
0.8122611811023622
20
1.1774041732283465
11
0.8141770472440945
21
1.1786843307086614
0
LINE
8
BLACK
6
CONTINUOUS
10
0.8141770472440945
20
1.1786843307086614
11
0.8164370078740157
21
1.1791338582677164
0
LINE
8
BLACK
6
CONTINUOUS
10
0.8164370078740157
20
1.1791338582677164
11
0.8626968503937008
21
1.1791338582677164
0
LINE
8
BLACK
6
CONTINUOUS
10
0.8626968503937008
20
1.1791338582677164
11
0.864956811023622
21
1.1786843307086614
0
LINE
8
BLACK
6
CONTINUOUS
10
0.6317193307086614
20
1.2472822834645669
11
0.6349124803149606
21
1.2451487007874016
0
LINE
8
BLACK
6
CONTINUOUS
10
0.6349124803149606
20
1.2451487007874016
11
0.637046062992126
21
1.2419555511811022
0
LINE
8
BLACK
6
CONTINUOUS
10
0.637046062992126
20
1.2419555511811022
11
0.6377952755905512
21
1.2381889763779528
0
LINE
8
BLACK
6
CONTINUOUS
10
0.6377952755905512
20
1.2381889763779528
11
0.6377952755905512
21
1.2027559055118109
0
LINE
8
BLACK
6
CONTINUOUS
10
0.6377952755905512
20
1.2027559055118109
11
0.637046062992126
21
1.1989893307086614
0
LINE
8
BLACK
6
CONTINUOUS
10
0.637046062992126
20
1.1989893307086614
11
0.6349124803149606
21
1.1957961811023621
0
LINE
8
BLACK
6
CONTINUOUS
10
0.6349124803149606
20
1.1957961811023621
11
0.6317193307086614
21
1.1936625984251967
0
LINE
8
BLACK
6
CONTINUOUS
10
0.6317193307086614
20
1.1936625984251967
11
0.6279527559055118
21
1.1929133858267715
0
LINE
8
BLACK
6
CONTINUOUS
10
0.6279527559055118
20
1.1929133858267715
11
0.6072834645669292
21
1.1929133858267715
0
LINE
8
BLACK
6
CONTINUOUS
10
0.6072834645669292
20
1.1929133858267715
11
0.6035168897637795
21
1.1936625984251967
0
LINE
8
BLACK
6
CONTINUOUS
10
0.6035168897637795
20
1.1936625984251967
11
0.6003237401574804
21
1.1957961811023621
0
LINE
8
BLACK
6
CONTINUOUS
10
0.6003237401574804
20
1.1957961811023621
11
0.5981901574803149
21
1.1989893307086614
0
LINE
8
BLACK
6
CONTINUOUS
10
0.5981901574803149
20
1.1989893307086614
11
0.5974409448818897
21
1.2027559055118109
0
LINE
8
BLACK
6
CONTINUOUS
10
0.5974409448818897
20
1.2027559055118109
11
0.5974409448818897
21
1.2381889763779528
0
LINE
8
BLACK
6
CONTINUOUS
10
0.5974409448818897
20
1.2381889763779528
11
0.5981901574803149
21
1.2419555511811022
0
LINE
8
BLACK
6
CONTINUOUS
10
0.5981901574803149
20
1.2419555511811022
11
0.6003237401574804
21
1.2451487007874016
0
LINE
8
BLACK
6
CONTINUOUS
10
0.6003237401574804
20
1.2451487007874016
11
0.6035168897637795
21
1.2472822834645669
0
LINE
8
BLACK
6
CONTINUOUS
10
0.6035168897637795
20
1.2472822834645669
11
0.6072834645669292
21
1.2480314960629921
0
LINE
8
BLACK
6
CONTINUOUS
10
0.6072834645669292
20
1.2480314960629921
11
0.6279527559055118
21
1.2480314960629921
0
LINE
8
BLACK
6
CONTINUOUS
10
0.6279527559055118
20
1.2480314960629921
11
0.6317193307086614
21
1.2472822834645669
0
LINE
8
BLACK
6
CONTINUOUS
10
0.7035697244094488
20
1.2472822834645669
11
0.706762874015748
21
1.2451487007874016
0
LINE
8
BLACK
6
CONTINUOUS
10
0.706762874015748
20
1.2451487007874016
11
0.7088964566929133
21
1.2419555511811022
0
LINE
8
BLACK
6
CONTINUOUS
10
0.7088964566929133
20
1.2419555511811022
11
0.7096456692913385
21
1.2381889763779528
0
LINE
8
BLACK
6
CONTINUOUS
10
0.7096456692913385
20
1.2381889763779528
11
0.7096456692913385
21
1.2027559055118109
0
LINE
8
BLACK
6
CONTINUOUS
10
0.7096456692913385
20
1.2027559055118109
11
0.7088964566929133
21
1.1989893307086614
0
LINE
8
BLACK
6
CONTINUOUS
10
0.7088964566929133
20
1.1989893307086614
11
0.706762874015748
21
1.1957961811023621
0
LINE
8
BLACK
6
CONTINUOUS
10
0.706762874015748
20
1.1957961811023621
11
0.7035697244094488
21
1.1936625984251967
0
LINE
8
BLACK
6
CONTINUOUS
10
0.7035697244094488
20
1.1936625984251967
11
0.6998031496062992
21
1.1929133858267715
0
LINE
8
BLACK
6
CONTINUOUS
10
0.6998031496062992
20
1.1929133858267715
11
0.6791338582677166
21
1.1929133858267715
0
LINE
8
BLACK
6
CONTINUOUS
10
0.6791338582677166
20
1.1929133858267715
11
0.6753672834645669
21
1.1936625984251967
0
LINE
8
BLACK
6
CONTINUOUS
10
0.6753672834645669
20
1.1936625984251967
11
0.6721741338582677
21
1.1957961811023621
0
LINE
8
BLACK
6
CONTINUOUS
10
0.6721741338582677
20
1.1957961811023621
11
0.6700405511811024
21
1.1989893307086614
0
LINE
8
BLACK
6
CONTINUOUS
10
0.6700405511811024
20
1.1989893307086614
11
0.6692913385826772
21
1.2027559055118109
0
LINE
8
BLACK
6
CONTINUOUS
10
0.6692913385826772
20
1.2027559055118109
11
0.6692913385826772
21
1.2381889763779528
0
LINE
8
BLACK
6
CONTINUOUS
10
0.6692913385826772
20
1.2381889763779528
11
0.6700405511811024
21
1.2419555511811022
0
LINE
8
BLACK
6
CONTINUOUS
10
0.6700405511811024
20
1.2419555511811022
11
0.6721741338582677
21
1.2451487007874016
0
LINE
8
BLACK
6
CONTINUOUS
10
0.6721741338582677
20
1.2451487007874016
11
0.6753672834645669
21
1.2472822834645669
0
LINE
8
BLACK
6
CONTINUOUS
10
0.6753672834645669
20
1.2472822834645669
11
0.6791338582677166
21
1.2480314960629921
0
LINE
8
BLACK
6
CONTINUOUS
10
0.6791338582677166
20
1.2480314960629921
11
0.6998031496062992
21
1.2480314960629921
0
LINE
8
BLACK
6
CONTINUOUS
10
0.6998031496062992
20
1.2480314960629921
11
0.7035697244094488
21
1.2472822834645669
0
LINE
8
BLACK
6
CONTINUOUS
10
0.9387757086614174
20
1.2160859055118109
11
0.9406915748031496
21
1.214805748031496
0
LINE
8
BLACK
6
CONTINUOUS
10
0.9406915748031496
20
1.214805748031496
11
0.9419717322834645
21
1.2128898818897638
0
LINE
8
BLACK
6
CONTINUOUS
10
0.9419717322834645
20
1.2128898818897638
11
0.9424212598425197
21
1.2106299212598426
0
LINE
8
BLACK
6
CONTINUOUS
10
0.9424212598425197
20
1.2106299212598426
11
0.9424212598425197
21
1.1988188976377951
0
LINE
8
BLACK
6
CONTINUOUS
10
0.9424212598425197
20
1.1988188976377951
11
0.9419717322834645
21
1.196558937007874
0
LINE
8
BLACK
6
CONTINUOUS
10
0.9419717322834645
20
1.196558937007874
11
0.9406915748031496
21
1.1946430708661417
0
LINE
8
BLACK
6
CONTINUOUS
10
0.9406915748031496
20
1.1946430708661417
11
0.9387757086614174
21
1.1933629133858268
0
LINE
8
BLACK
6
CONTINUOUS
10
0.9387757086614174
20
1.1933629133858268
11
0.9365157480314961
21
1.1929133858267715
0
LINE
8
BLACK
6
CONTINUOUS
10
0.9365157480314961
20
1.1929133858267715
11
0.890255905511811
21
1.1929133858267715
0
LINE
8
BLACK
6
CONTINUOUS
10
0.890255905511811
20
1.1929133858267715
11
0.8879959448818897
21
1.1933629133858268
0
LINE
8
BLACK
6
CONTINUOUS
10
0.8879959448818897
20
1.1933629133858268
11
0.8860800787401575
21
1.1946430708661417
0
LINE
8
BLACK
6
CONTINUOUS
10
0.8860800787401575
20
1.1946430708661417
11
0.8847999212598425
21
1.196558937007874
0
LINE
8
BLACK
6
CONTINUOUS
10
0.8847999212598425
20
1.196558937007874
11
0.8843503937007874
21
1.1988188976377951
0
LINE
8
BLACK
6
CONTINUOUS
10
0.8843503937007874
20
1.1988188976377951
11
0.8843503937007874
21
1.2106299212598426
0
LINE
8
BLACK
6
CONTINUOUS
10
0.8843503937007874
20
1.2106299212598426
11
0.8847999212598425
21
1.2128898818897638
0
LINE
8
BLACK
6
CONTINUOUS
10
0.8847999212598425
20
1.2128898818897638
11
0.8860800787401575
21
1.214805748031496
0
LINE
8
BLACK
6
CONTINUOUS
10
0.8860800787401575
20
1.214805748031496
11
0.8879959448818897
21
1.2160859055118109
0
LINE
8
BLACK
6
CONTINUOUS
10
0.8879959448818897
20
1.2160859055118109
11
0.890255905511811
21
1.2165354330708662
0
LINE
8
BLACK
6
CONTINUOUS
10
0.890255905511811
20
1.2165354330708662
11
0.9365157480314961
21
1.2165354330708662
0
LINE
8
BLACK
6
CONTINUOUS
10
0.9365157480314961
20
1.2165354330708662
11
0.9387757086614174
21
1.2160859055118109
0
LINE
8
BLACK
6
CONTINUOUS
10
0.5687272047244094
20
1.2369476377952755
11
0.5719203543307086
21
1.2348140551181102
0
LINE
8
BLACK
6
CONTINUOUS
10
0.5719203543307086
20
1.2348140551181102
11
0.574053937007874
21
1.231620905511811
0
LINE
8
BLACK
6
CONTINUOUS
10
0.574053937007874
20
1.231620905511811
11
0.5748031496062992
21
1.2278543307086613
0
LINE
8
BLACK
6
CONTINUOUS
10
0.5748031496062992
20
1.2278543307086613
11
0.5748031496062992
21
1.2071850393700787
0
LINE
8
BLACK
6
CONTINUOUS
10
0.5748031496062992
20
1.2071850393700787
11
0.574053937007874
21
1.203418464566929
0
LINE
8
BLACK
6
CONTINUOUS
10
0.574053937007874
20
1.203418464566929
11
0.5719203543307086
21
1.2002253149606299
0
LINE
8
BLACK
6
CONTINUOUS
10
0.5719203543307086
20
1.2002253149606299
11
0.5687272047244094
21
1.1980917322834645
0
LINE
8
BLACK
6
CONTINUOUS
10
0.5687272047244094
20
1.1980917322834645
11
0.5649606299212598
21
1.1973425196850394
0
LINE
8
BLACK
6
CONTINUOUS
10
0.5649606299212598
20
1.1973425196850394
11
0.5295275590551181
21
1.1973425196850394
0
LINE
8
BLACK
6
CONTINUOUS
10
0.5295275590551181
20
1.1973425196850394
11
0.5257609842519685
21
1.1980917322834645
0
LINE
8
BLACK
6
CONTINUOUS
10
0.5257609842519685
20
1.1980917322834645
11
0.5225678346456692
21
1.2002253149606299
0
LINE
8
BLACK
6
CONTINUOUS
10
0.5225678346456692
20
1.2002253149606299
11
0.5204342519685039
21
1.203418464566929
0
LINE
8
BLACK
6
CONTINUOUS
10
0.5204342519685039
20
1.203418464566929
11
0.5196850393700787
21
1.2071850393700787
0
LINE
8
BLACK
6
CONTINUOUS
10
0.5196850393700787
20
1.2071850393700787
11
0.5196850393700787
21
1.2278543307086613
0
LINE
8
BLACK
6
CONTINUOUS
10
0.5196850393700787
20
1.2278543307086613
11
0.5204342519685039
21
1.231620905511811
0
LINE
8
BLACK
6
CONTINUOUS
10
0.5204342519685039
20
1.231620905511811
11
0.5225678346456692
21
1.2348140551181102
0
LINE
8
BLACK
6
CONTINUOUS
10
0.5225678346456692
20
1.2348140551181102
11
0.5257609842519685
21
1.2369476377952755
0
LINE
8
BLACK
6
CONTINUOUS
10
0.5257609842519685
20
1.2369476377952755
11
0.5295275590551181
21
1.2376968503937007
0
LINE
8
BLACK
6
CONTINUOUS
10
0.5295275590551181
20
1.2376968503937007
11
0.5649606299212598
21
1.2376968503937007
0
LINE
8
BLACK
6
CONTINUOUS
10
0.5649606299212598
20
1.2376968503937007
11
0.5687272047244094
21
1.2369476377952755
0
LINE
8
BLACK
6
CONTINUOUS
10
1.1780314960629921
20
1.2180314960629921
11
1.118031496062992
21
1.2180314960629921
0
LINE
8
BLACK
6
CONTINUOUS
10
1.118031496062992
20
1.2180314960629921
11
1.118031496062992
21
1.2780314960629922
0
LINE
8
BLACK
6
CONTINUOUS
10
1.118031496062992
20
1.2780314960629922
11
1.1780314960629921
21
1.2780314960629922
0
LINE
8
BLACK
6
CONTINUOUS
10
1.1780314960629921
20
1.2780314960629922
11
1.1780314960629921
21
1.2180314960629921
0
LINE
8
BLACK
6
CONTINUOUS
10
1.2780314960629922
20
1.2180314960629921
11
1.2180314960629921
21
1.2180314960629921
0
LINE
8
BLACK
6
CONTINUOUS
10
1.2180314960629921
20
1.2180314960629921
11
1.2180314960629921
21
1.2780314960629922
0
LINE
8
BLACK
6
CONTINUOUS
10
1.2180314960629921
20
1.2780314960629922
11
1.2780314960629922
21
1.2780314960629922
0
LINE
8
BLACK
6
CONTINUOUS
10
1.2780314960629922
20
1.2780314960629922
11
1.2780314960629922
21
1.2180314960629921
0
LINE
8
BLACK
6
CONTINUOUS
10
0.7813256299212599
20
1.2600775590551181
11
0.784518779527559
21
1.2579439763779527
0
LINE
8
BLACK
6
CONTINUOUS
10
0.784518779527559
20
1.2579439763779527
11
0.7866523622047243
21
1.2547508267716536
0
LINE
8
BLACK
6
CONTINUOUS
10
0.7866523622047243
20
1.2547508267716536
11
0.7874015748031495
21
1.2509842519685039
0
LINE
8
BLACK
6
CONTINUOUS
10
0.7874015748031495
20
1.2509842519685039
11
0.7874015748031495
21
1.2303149606299213
0
LINE
8
BLACK
6
CONTINUOUS
10
0.7874015748031495
20
1.2303149606299213
11
0.7866523622047243
21
1.2265483858267716
0
LINE
8
BLACK
6
CONTINUOUS
10
0.7866523622047243
20
1.2265483858267716
11
0.784518779527559
21
1.2233552362204725
0
LINE
8
BLACK
6
CONTINUOUS
10
0.784518779527559
20
1.2233552362204725
11
0.7813256299212599
21
1.2212216535433071
0
LINE
8
BLACK
6
CONTINUOUS
10
0.7813256299212599
20
1.2212216535433071
11
0.7775590551181102
21
1.2204724409448819
0
LINE
8
BLACK
6
CONTINUOUS
10
0.7775590551181102
20
1.2204724409448819
11
0.7421259842519685
21
1.2204724409448819
0
LINE
8
BLACK
6
CONTINUOUS
10
0.7421259842519685
20
1.2204724409448819
11
0.7383594094488188
21
1.2212216535433071
0
LINE
8
BLACK
6
CONTINUOUS
10
0.7383594094488188
20
1.2212216535433071
11
0.7351662598425197
21
1.2233552362204725
0
LINE
8
BLACK
6
CONTINUOUS
10
0.7351662598425197
20
1.2233552362204725
11
0.7330326771653544
21
1.2265483858267716
0
LINE
8
BLACK
6
CONTINUOUS
10
0.7330326771653544
20
1.2265483858267716
11
0.7322834645669292
21
1.2303149606299213
0
LINE
8
BLACK
6
CONTINUOUS
10
0.7322834645669292
20
1.2303149606299213
11
0.7322834645669292
21
1.2509842519685039
0
LINE
8
BLACK
6
CONTINUOUS
10
0.7322834645669292
20
1.2509842519685039
11
0.7330326771653544
21
1.2547508267716536
0
LINE
8
BLACK
6
CONTINUOUS
10
0.7330326771653544
20
1.2547508267716536
11
0.7351662598425197
21
1.2579439763779527
0
LINE
8
BLACK
6
CONTINUOUS
10
0.7351662598425197
20
1.2579439763779527
11
0.7383594094488188
21
1.2600775590551181
0
LINE
8
BLACK
6
CONTINUOUS
10
0.7383594094488188
20
1.2600775590551181
11
0.7421259842519685
21
1.2608267716535433
0
LINE
8
BLACK
6
CONTINUOUS
10
0.7421259842519685
20
1.2608267716535433
11
0.7775590551181102
21
1.2608267716535433
0
LINE
8
BLACK
6
CONTINUOUS
10
0.7775590551181102
20
1.2608267716535433
11
0.7813256299212599
21
1.2600775590551181
0
LINE
8
BLACK
6
CONTINUOUS
10
0.3843307086614173
20
1.2219685039370078
11
0.3243307086614173
21
1.2219685039370078
0
LINE
8
BLACK
6
CONTINUOUS
10
0.3243307086614173
20
1.2219685039370078
11
0.3243307086614173
21
1.2819685039370079
0
LINE
8
BLACK
6
CONTINUOUS
10
0.3243307086614173
20
1.2819685039370079
11
0.3843307086614173
21
1.2819685039370079
0
LINE
8
BLACK
6
CONTINUOUS
10
0.3843307086614173
20
1.2819685039370079
11
0.3843307086614173
21
1.2219685039370078
0
LINE
8
BLACK
6
CONTINUOUS
10
0.4843307086614173
20
1.2219685039370078
11
0.4243307086614173
21
1.2219685039370078
0
LINE
8
BLACK
6
CONTINUOUS
10
0.4243307086614173
20
1.2219685039370078
11
0.4243307086614173
21
1.2819685039370079
0
LINE
8
BLACK
6
CONTINUOUS
10
0.4243307086614173
20
1.2819685039370079
11
0.4843307086614173
21
1.2819685039370079
0
LINE
8
BLACK
6
CONTINUOUS
10
0.4843307086614173
20
1.2819685039370079
11
0.4843307086614173
21
1.2219685039370078
0
LINE
8
BLACK
6
CONTINUOUS
10
0.864956811023622
20
1.2534874803149607
11
0.8668726771653543
21
1.2522073228346455
0
LINE
8
BLACK
6
CONTINUOUS
10
0.8668726771653543
20
1.2522073228346455
11
0.8681528346456693
21
1.2502914566929133
0
LINE
8
BLACK
6
CONTINUOUS
10
0.8681528346456693
20
1.2502914566929133
11
0.8686023622047244
21
1.2480314960629921
0
LINE
8
BLACK
6
CONTINUOUS
10
0.8686023622047244
20
1.2480314960629921
11
0.8686023622047244
21
1.2362204724409449
0
LINE
8
BLACK
6
CONTINUOUS
10
0.8686023622047244
20
1.2362204724409449
11
0.8681528346456693
21
1.2339605118110235
0
LINE
8
BLACK
6
CONTINUOUS
10
0.8681528346456693
20
1.2339605118110235
11
0.8668726771653543
21
1.2320446456692913
0
LINE
8
BLACK
6
CONTINUOUS
10
0.8668726771653543
20
1.2320446456692913
11
0.864956811023622
21
1.2307644881889763
0
LINE
8
BLACK
6
CONTINUOUS
10
0.864956811023622
20
1.2307644881889763
11
0.8626968503937008
21
1.2303149606299213
0
LINE
8
BLACK
6
CONTINUOUS
10
0.8626968503937008
20
1.2303149606299213
11
0.8164370078740157
21
1.2303149606299213
0
LINE
8
BLACK
6
CONTINUOUS
10
0.8164370078740157
20
1.2303149606299213
11
0.8141770472440945
21
1.2307644881889763
0
LINE
8
BLACK
6
CONTINUOUS
10
0.8141770472440945
20
1.2307644881889763
11
0.8122611811023622
21
1.2320446456692913
0
LINE
8
BLACK
6
CONTINUOUS
10
0.8122611811023622
20
1.2320446456692913
11
0.8109810236220473
21
1.2339605118110235
0
LINE
8
BLACK
6
CONTINUOUS
10
0.8109810236220473
20
1.2339605118110235
11
0.8105314960629921
21
1.2362204724409449
0
LINE
8
BLACK
6
CONTINUOUS
10
0.8105314960629921
20
1.2362204724409449
11
0.8105314960629921
21
1.2480314960629921
0
LINE
8
BLACK
6
CONTINUOUS
10
0.8105314960629921
20
1.2480314960629921
11
0.8109810236220473
21
1.2502914566929133
0
LINE
8
BLACK
6
CONTINUOUS
10
0.8109810236220473
20
1.2502914566929133
11
0.8122611811023622
21
1.2522073228346455
0
LINE
8
BLACK
6
CONTINUOUS
10
0.8122611811023622
20
1.2522073228346455
11
0.8141770472440945
21
1.2534874803149607
0
LINE
8
BLACK
6
CONTINUOUS
10
0.8141770472440945
20
1.2534874803149607
11
0.8164370078740157
21
1.2539370078740157
0
LINE
8
BLACK
6
CONTINUOUS
10
0.8164370078740157
20
1.2539370078740157
11
0.8626968503937008
21
1.2539370078740157
0
LINE
8
BLACK
6
CONTINUOUS
10
0.8626968503937008
20
1.2539370078740157
11
0.864956811023622
21
1.2534874803149607
0
LINE
8
BLACK
6
CONTINUOUS
10
0.6789634251968504
20
1.371298031496063
11
0.6821565748031496
21
1.3691644488188977
0
LINE
8
BLACK
6
CONTINUOUS
10
0.6821565748031496
20
1.3691644488188977
11
0.684290157480315
21
1.3659712992125983
0
LINE
8
BLACK
6
CONTINUOUS
10
0.684290157480315
20
1.3659712992125983
11
0.6850393700787402
21
1.3622047244094488
0
LINE
8
BLACK
6
CONTINUOUS
10
0.6850393700787402
20
1.3622047244094488
11
0.6850393700787402
21
1.2834645669291338
0
LINE
8
BLACK
6
CONTINUOUS
10
0.6850393700787402
20
1.2834645669291338
11
0.684290157480315
21
1.2796979921259841
0
LINE
8
BLACK
6
CONTINUOUS
10
0.684290157480315
20
1.2796979921259841
11
0.6821565748031496
21
1.276504842519685
0
LINE
8
BLACK
6
CONTINUOUS
10
0.6821565748031496
20
1.276504842519685
11
0.6789634251968504
21
1.2743712598425196
0
LINE
8
BLACK
6
CONTINUOUS
10
0.6789634251968504
20
1.2743712598425196
11
0.6751968503937008
21
1.2736220472440944
0
LINE
8
BLACK
6
CONTINUOUS
10
0.6751968503937008
20
1.2736220472440944
11
0.6240157480314961
21
1.2736220472440944
0
LINE
8
BLACK
6
CONTINUOUS
10
0.6240157480314961
20
1.2736220472440944
11
0.6202491732283465
21
1.2743712598425196
0
LINE
8
BLACK
6
CONTINUOUS
10
0.6202491732283465
20
1.2743712598425196
11
0.6170560236220473
21
1.276504842519685
0
LINE
8
BLACK
6
CONTINUOUS
10
0.6170560236220473
20
1.276504842519685
11
0.6149224409448819
21
1.2796979921259841
0
LINE
8
BLACK
6
CONTINUOUS
10
0.6149224409448819
20
1.2796979921259841
11
0.6141732283464567
21
1.2834645669291338
0
LINE
8
BLACK
6
CONTINUOUS
10
0.6141732283464567
20
1.2834645669291338
11
0.6141732283464567
21
1.3622047244094488
0
LINE
8
BLACK
6
CONTINUOUS
10
0.6141732283464567
20
1.3622047244094488
11
0.6149224409448819
21
1.3659712992125983
0
LINE
8
BLACK
6
CONTINUOUS
10
0.6149224409448819
20
1.3659712992125983
11
0.6170560236220473
21
1.3691644488188977
0
LINE
8
BLACK
6
CONTINUOUS
10
0.6170560236220473
20
1.3691644488188977
11
0.6202491732283465
21
1.371298031496063
0
LINE
8
BLACK
6
CONTINUOUS
10
0.6202491732283465
20
1.371298031496063
11
0.6240157480314961
21
1.3720472440944882
0
LINE
8
BLACK
6
CONTINUOUS
10
0.6240157480314961
20
1.3720472440944882
11
0.6751968503937008
21
1.3720472440944882
0
LINE
8
BLACK
6
CONTINUOUS
10
0.6751968503937008
20
1.3720472440944882
11
0.6789634251968504
21
1.371298031496063
0
LINE
8
BLACK
6
CONTINUOUS
10
1.0529791732283464
20
1.387046062992126
11
1.0561723228346456
21
1.3849124803149606
0
LINE
8
BLACK
6
CONTINUOUS
10
1.0561723228346456
20
1.3849124803149606
11
1.0583059055118109
21
1.3817193307086615
0
LINE
8
BLACK
6
CONTINUOUS
10
1.0583059055118109
20
1.3817193307086615
11
1.0590551181102361
21
1.3779527559055118
0
LINE
8
BLACK
6
CONTINUOUS
10
1.0590551181102361
20
1.3779527559055118
11
1.0590551181102361
21
1.2992125984251968
0
LINE
8
BLACK
6
CONTINUOUS
10
1.0590551181102361
20
1.2992125984251968
11
1.0583059055118109
21
1.2954460236220473
0
LINE
8
BLACK
6
CONTINUOUS
10
1.0583059055118109
20
1.2954460236220473
11
1.0561723228346456
21
1.292252874015748
0
LINE
8
BLACK
6
CONTINUOUS
10
1.0561723228346456
20
1.292252874015748
11
1.0529791732283464
21
1.2901192913385826
0
LINE
8
BLACK
6
CONTINUOUS
10
1.0529791732283464
20
1.2901192913385826
11
1.0492125984251968
21
1.2893700787401574
0
LINE
8
BLACK
6
CONTINUOUS
10
1.0492125984251968
20
1.2893700787401574
11
0.9980314960629921
21
1.2893700787401574
0
LINE
8
BLACK
6
CONTINUOUS
10
0.9980314960629921
20
1.2893700787401574
11
0.9942649212598424
21
1.2901192913385826
0
LINE
8
BLACK
6
CONTINUOUS
10
0.9942649212598424
20
1.2901192913385826
11
0.9910717716535433
21
1.292252874015748
0
LINE
8
BLACK
6
CONTINUOUS
10
0.9910717716535433
20
1.292252874015748
11
0.988938188976378
21
1.2954460236220473
0
LINE
8
BLACK
6
CONTINUOUS
10
0.988938188976378
20
1.2954460236220473
11
0.9881889763779528
21
1.2992125984251968
0
LINE
8
BLACK
6
CONTINUOUS
10
0.9881889763779528
20
1.2992125984251968
11
0.9881889763779528
21
1.3779527559055118
0
LINE
8
BLACK
6
CONTINUOUS
10
0.9881889763779528
20
1.3779527559055118
11
0.988938188976378
21
1.3817193307086615
0
LINE
8
BLACK
6
CONTINUOUS
10
0.988938188976378
20
1.3817193307086615
11
0.9910717716535433
21
1.3849124803149606
0
LINE
8
BLACK
6
CONTINUOUS
10
0.9910717716535433
20
1.3849124803149606
11
0.9942649212598424
21
1.387046062992126
0
LINE
8
BLACK
6
CONTINUOUS
10
0.9942649212598424
20
1.387046062992126
11
0.9980314960629921
21
1.3877952755905512
0
LINE
8
BLACK
6
CONTINUOUS
10
0.9980314960629921
20
1.3877952755905512
11
1.0492125984251968
21
1.3877952755905512
0
LINE
8
BLACK
6
CONTINUOUS
10
1.0492125984251968
20
1.3877952755905512
11
1.0529791732283464
21
1.387046062992126
0
LINE
8
BLACK
6
CONTINUOUS
10
0.7813256299212599
20
1.3457074803149607
11
0.784518779527559
21
1.3435738976377953
0
LINE
8
BLACK
6
CONTINUOUS
10
0.784518779527559
20
1.3435738976377953
11
0.7866523622047243
21
1.340380748031496
0
LINE
8
BLACK
6
CONTINUOUS
10
0.7866523622047243
20
1.340380748031496
11
0.7874015748031495
21
1.3366141732283465
0
LINE
8
BLACK
6
CONTINUOUS
10
0.7874015748031495
20
1.3366141732283465
11
0.7874015748031495
21
1.3159448818897637
0
LINE
8
BLACK
6
CONTINUOUS
10
0.7874015748031495
20
1.3159448818897637
11
0.7866523622047243
21
1.3121783070866142
0
LINE
8
BLACK
6
CONTINUOUS
10
0.7866523622047243
20
1.3121783070866142
11
0.784518779527559
21
1.3089851574803149
0
LINE
8
BLACK
6
CONTINUOUS
10
0.784518779527559
20
1.3089851574803149
11
0.7813256299212599
21
1.3068515748031495
0
LINE
8
BLACK
6
CONTINUOUS
10
0.7813256299212599
20
1.3068515748031495
11
0.7775590551181102
21
1.3061023622047243
0
LINE
8
BLACK
6
CONTINUOUS
10
0.7775590551181102
20
1.3061023622047243
11
0.7421259842519685
21
1.3061023622047243
0
LINE
8
BLACK
6
CONTINUOUS
10
0.7421259842519685
20
1.3061023622047243
11
0.7383594094488188
21
1.3068515748031495
0
LINE
8
BLACK
6
CONTINUOUS
10
0.7383594094488188
20
1.3068515748031495
11
0.7351662598425197
21
1.3089851574803149
0
LINE
8
BLACK
6
CONTINUOUS
10
0.7351662598425197
20
1.3089851574803149
11
0.7330326771653544
21
1.3121783070866142
0
LINE
8
BLACK
6
CONTINUOUS
10
0.7330326771653544
20
1.3121783070866142
11
0.7322834645669292
21
1.3159448818897637
0
LINE
8
BLACK
6
CONTINUOUS
10
0.7322834645669292
20
1.3159448818897637
11
0.7322834645669292
21
1.3366141732283465
0
LINE
8
BLACK
6
CONTINUOUS
10
0.7322834645669292
20
1.3366141732283465
11
0.7330326771653544
21
1.340380748031496
0
LINE
8
BLACK
6
CONTINUOUS
10
0.7330326771653544
20
1.340380748031496
11
0.7351662598425197
21
1.3435738976377953
0
LINE
8
BLACK
6
CONTINUOUS
10
0.7351662598425197
20
1.3435738976377953
11
0.7383594094488188
21
1.3457074803149607
0
LINE
8
BLACK
6
CONTINUOUS
10
0.7383594094488188
20
1.3457074803149607
11
0.7421259842519685
21
1.3464566929133859
0
LINE
8
BLACK
6
CONTINUOUS
10
0.7421259842519685
20
1.3464566929133859
11
0.7775590551181102
21
1.3464566929133859
0
LINE
8
BLACK
6
CONTINUOUS
10
0.7775590551181102
20
1.3464566929133859
11
0.7813256299212599
21
1.3457074803149607
0
LINE
8
BLACK
6
CONTINUOUS
10
0.8664331889763779
20
1.3361646456692913
11
0.8683490551181102
21
1.3348844881889763
0
LINE
8
BLACK
6
CONTINUOUS
10
0.8683490551181102
20
1.3348844881889763
11
0.8696292125984252
21
1.3329686220472441
0
LINE
8
BLACK
6
CONTINUOUS
10
0.8696292125984252
20
1.3329686220472441
11
0.8700787401574803
21
1.3307086614173229
0
LINE
8
BLACK
6
CONTINUOUS
10
0.8700787401574803
20
1.3307086614173229
11
0.8700787401574803
21
1.3188976377952755
0
LINE
8
BLACK
6
CONTINUOUS
10
0.8700787401574803
20
1.3188976377952755
11
0.8696292125984252
21
1.3166376771653543
0
LINE
8
BLACK
6
CONTINUOUS
10
0.8696292125984252
20
1.3166376771653543
11
0.8683490551181102
21
1.3147218110236221
0
LINE
8
BLACK
6
CONTINUOUS
10
0.8683490551181102
20
1.3147218110236221
11
0.8664331889763779
21
1.3134416535433071
0
LINE
8
BLACK
6
CONTINUOUS
10
0.8664331889763779
20
1.3134416535433071
11
0.8641732283464567
21
1.3129921259842519
0
LINE
8
BLACK
6
CONTINUOUS
10
0.8641732283464567
20
1.3129921259842519
11
0.8179133858267716
21
1.3129921259842519
0
LINE
8
BLACK
6
CONTINUOUS
10
0.8179133858267716
20
1.3129921259842519
11
0.8156534251968504
21
1.3134416535433071
0
LINE
8
BLACK
6
CONTINUOUS
10
0.8156534251968504
20
1.3134416535433071
11
0.8137375590551181
21
1.3147218110236221
0
LINE
8
BLACK
6
CONTINUOUS
10
0.8137375590551181
20
1.3147218110236221
11
0.8124574015748032
21
1.3166376771653543
0
LINE
8
BLACK
6
CONTINUOUS
10
0.8124574015748032
20
1.3166376771653543
11
0.812007874015748
21
1.3188976377952755
0
LINE
8
BLACK
6
CONTINUOUS
10
0.812007874015748
20
1.3188976377952755
11
0.812007874015748
21
1.3307086614173229
0
LINE
8
BLACK
6
CONTINUOUS
10
0.812007874015748
20
1.3307086614173229
11
0.8124574015748032
21
1.3329686220472441
0
LINE
8
BLACK
6
CONTINUOUS
10
0.8124574015748032
20
1.3329686220472441
11
0.8137375590551181
21
1.3348844881889763
0
LINE
8
BLACK
6
CONTINUOUS
10
0.8137375590551181
20
1.3348844881889763
11
0.8156534251968504
21
1.3361646456692913
0
LINE
8
BLACK
6
CONTINUOUS
10
0.8156534251968504
20
1.3361646456692913
11
0.8179133858267716
21
1.3366141732283465
0
LINE
8
BLACK
6
CONTINUOUS
10
0.8179133858267716
20
1.3366141732283465
11
0.8641732283464567
21
1.3366141732283465
0
LINE
8
BLACK
6
CONTINUOUS
10
0.8641732283464567
20
1.3366141732283465
11
0.8664331889763779
21
1.3361646456692913
0
LINE
8
BLACK
6
CONTINUOUS
10
1.1780314960629921
20
1.3180314960629922
11
1.118031496062992
21
1.3180314960629922
0
LINE
8
BLACK
6
CONTINUOUS
10
1.118031496062992
20
1.3180314960629922
11
1.118031496062992
21
1.378031496062992
0
LINE
8
BLACK
6
CONTINUOUS
10
1.118031496062992
20
1.378031496062992
11
1.1780314960629921
21
1.378031496062992
0
LINE
8
BLACK
6
CONTINUOUS
10
1.1780314960629921
20
1.378031496062992
11
1.1780314960629921
21
1.3180314960629922
0
LINE
8
BLACK
6
CONTINUOUS
10
1.2780314960629922
20
1.3180314960629922
11
1.2180314960629921
21
1.3180314960629922
0
LINE
8
BLACK
6
CONTINUOUS
10
1.2180314960629921
20
1.3180314960629922
11
1.2180314960629921
21
1.378031496062992
0
LINE
8
BLACK
6
CONTINUOUS
10
1.2180314960629921
20
1.378031496062992
11
1.2780314960629922
21
1.378031496062992
0
LINE
8
BLACK
6
CONTINUOUS
10
1.2780314960629922
20
1.378031496062992
11
1.2780314960629922
21
1.3180314960629922
0
LINE
8
BLACK
6
CONTINUOUS
10
0.3843307086614173
20
1.3219685039370079
11
0.3243307086614173
21
1.3219685039370079
0
LINE
8
BLACK
6
CONTINUOUS
10
0.3243307086614173
20
1.3219685039370079
11
0.3243307086614173
21
1.3819685039370078
0
LINE
8
BLACK
6
CONTINUOUS
10
0.3243307086614173
20
1.3819685039370078
11
0.3843307086614173
21
1.3819685039370078
0
LINE
8
BLACK
6
CONTINUOUS
10
0.3843307086614173
20
1.3819685039370078
11
0.3843307086614173
21
1.3219685039370079
0
LINE
8
BLACK
6
CONTINUOUS
10
0.4843307086614173
20
1.3219685039370079
11
0.4243307086614173
21
1.3219685039370079
0
LINE
8
BLACK
6
CONTINUOUS
10
0.4243307086614173
20
1.3219685039370079
11
0.4243307086614173
21
1.3819685039370078
0
LINE
8
BLACK
6
CONTINUOUS
10
0.4243307086614173
20
1.3819685039370078
11
0.4843307086614173
21
1.3819685039370078
0
LINE
8
BLACK
6
CONTINUOUS
10
0.4843307086614173
20
1.3819685039370078
11
0.4843307086614173
21
1.3219685039370079
0
LINE
8
BLACK
6
CONTINUOUS
10
0.9402520866141733
20
1.3735662204724408
11
0.9421679527559055
21
1.3722860629921259
0
LINE
8
BLACK
6
CONTINUOUS
10
0.9421679527559055
20
1.3722860629921259
11
0.9434481102362204
21
1.3703701968503936
0
LINE
8
BLACK
6
CONTINUOUS
10
0.9434481102362204
20
1.3703701968503936
11
0.9438976377952756
21
1.3681102362204725
0
LINE
8
BLACK
6
CONTINUOUS
10
0.9438976377952756
20
1.3681102362204725
11
0.9438976377952756
21
1.3562992125984252
0
LINE
8
BLACK
6
CONTINUOUS
10
0.9438976377952756
20
1.3562992125984252
11
0.9434481102362204
21
1.3540392519685038
0
LINE
8
BLACK
6
CONTINUOUS
10
0.9434481102362204
20
1.3540392519685038
11
0.9421679527559055
21
1.3521233858267716
0
LINE
8
BLACK
6
CONTINUOUS
10
0.9421679527559055
20
1.3521233858267716
11
0.9402520866141733
21
1.3508432283464566
0
LINE
8
BLACK
6
CONTINUOUS
10
0.9402520866141733
20
1.3508432283464566
11
0.937992125984252
21
1.3503937007874016
0
LINE
8
BLACK
6
CONTINUOUS
10
0.937992125984252
20
1.3503937007874016
11
0.8917322834645669
21
1.3503937007874016
0
LINE
8
BLACK
6
CONTINUOUS
10
0.8917322834645669
20
1.3503937007874016
11
0.8894723228346456
21
1.3508432283464566
0
LINE
8
BLACK
6
CONTINUOUS
10
0.8894723228346456
20
1.3508432283464566
11
0.8875564566929134
21
1.3521233858267716
0
LINE
8
BLACK
6
CONTINUOUS
10
0.8875564566929134
20
1.3521233858267716
11
0.8862762992125984
21
1.3540392519685038
0
LINE
8
BLACK
6
CONTINUOUS
10
0.8862762992125984
20
1.3540392519685038
11
0.8858267716535433
21
1.3562992125984252
0
LINE
8
BLACK
6
CONTINUOUS
10
0.8858267716535433
20
1.3562992125984252
11
0.8858267716535433
21
1.3681102362204725
0
LINE
8
BLACK
6
CONTINUOUS
10
0.8858267716535433
20
1.3681102362204725
11
0.8862762992125984
21
1.3703701968503936
0
LINE
8
BLACK
6
CONTINUOUS
10
0.8862762992125984
20
1.3703701968503936
11
0.8875564566929134
21
1.3722860629921259
0
LINE
8
BLACK
6
CONTINUOUS
10
0.8875564566929134
20
1.3722860629921259
11
0.8894723228346456
21
1.3735662204724408
0
LINE
8
BLACK
6
CONTINUOUS
10
0.8894723228346456
20
1.3735662204724408
11
0.8917322834645669
21
1.3740157480314961
0
LINE
8
BLACK
6
CONTINUOUS
10
0.8917322834645669
20
1.3740157480314961
11
0.937992125984252
21
1.3740157480314961
0
LINE
8
BLACK
6
CONTINUOUS
10
0.937992125984252
20
1.3740157480314961
11
0.9402520866141733
21
1.3735662204724408
0
LINE
8
BLACK
6
CONTINUOUS
10
0.7813256299212599
20
1.417557874015748
11
0.784518779527559
21
1.4154242913385826
0
LINE
8
BLACK
6
CONTINUOUS
10
0.784518779527559
20
1.4154242913385826
11
0.7866523622047243
21
1.4122311417322835
0
LINE
8
BLACK
6
CONTINUOUS
10
0.7866523622047243
20
1.4122311417322835
11
0.7874015748031495
21
1.4084645669291338
0
LINE
8
BLACK
6
CONTINUOUS
10
0.7874015748031495
20
1.4084645669291338
11
0.7874015748031495
21
1.3877952755905512
0
LINE
8
BLACK
6
CONTINUOUS
10
0.7874015748031495
20
1.3877952755905512
11
0.7866523622047243
21
1.3840287007874015
0
LINE
8
BLACK
6
CONTINUOUS
10
0.7866523622047243
20
1.3840287007874015
11
0.784518779527559
21
1.3808355511811023
0
LINE
8
BLACK
6
CONTINUOUS
10
0.784518779527559
20
1.3808355511811023
11
0.7813256299212599
21
1.378701968503937
0
LINE
8
BLACK
6
CONTINUOUS
10
0.7813256299212599
20
1.378701968503937
11
0.7775590551181102
21
1.3779527559055118
0
LINE
8
BLACK
6
CONTINUOUS
10
0.7775590551181102
20
1.3779527559055118
11
0.7421259842519685
21
1.3779527559055118
0
LINE
8
BLACK
6
CONTINUOUS
10
0.7421259842519685
20
1.3779527559055118
11
0.7383594094488188
21
1.378701968503937
0
LINE
8
BLACK
6
CONTINUOUS
10
0.7383594094488188
20
1.378701968503937
11
0.7351662598425197
21
1.3808355511811023
0
LINE
8
BLACK
6
CONTINUOUS
10
0.7351662598425197
20
1.3808355511811023
11
0.7330326771653544
21
1.3840287007874015
0
LINE
8
BLACK
6
CONTINUOUS
10
0.7330326771653544
20
1.3840287007874015
11
0.7322834645669292
21
1.3877952755905512
0
LINE
8
BLACK
6
CONTINUOUS
10
0.7322834645669292
20
1.3877952755905512
11
0.7322834645669292
21
1.4084645669291338
0
LINE
8
BLACK
6
CONTINUOUS
10
0.7322834645669292
20
1.4084645669291338
11
0.7330326771653544
21
1.4122311417322835
0
LINE
8
BLACK
6
CONTINUOUS
10
0.7330326771653544
20
1.4122311417322835
11
0.7351662598425197
21
1.4154242913385826
0
LINE
8
BLACK
6
CONTINUOUS
10
0.7351662598425197
20
1.4154242913385826
11
0.7383594094488188
21
1.417557874015748
0
LINE
8
BLACK
6
CONTINUOUS
10
0.7383594094488188
20
1.417557874015748
11
0.7421259842519685
21
1.4183070866141732
0
LINE
8
BLACK
6
CONTINUOUS
10
0.7421259842519685
20
1.4183070866141732
11
0.7775590551181102
21
1.4183070866141732
0
LINE
8
BLACK
6
CONTINUOUS
10
0.7775590551181102
20
1.4183070866141732
11
0.7813256299212599
21
1.417557874015748
0
LINE
8
BLACK
6
CONTINUOUS
10
0.8664331889763779
20
1.4109677952755906
11
0.8683490551181102
21
1.4096876377952756
0
LINE
8
BLACK
6
CONTINUOUS
10
0.8683490551181102
20
1.4096876377952756
11
0.8696292125984252
21
1.4077717716535432
0
LINE
8
BLACK
6
CONTINUOUS
10
0.8696292125984252
20
1.4077717716535432
11
0.8700787401574803
21
1.405511811023622
0
LINE
8
BLACK
6
CONTINUOUS
10
0.8700787401574803
20
1.405511811023622
11
0.8700787401574803
21
1.3937007874015748
0
LINE
8
BLACK
6
CONTINUOUS
10
0.8700787401574803
20
1.3937007874015748
11
0.8696292125984252
21
1.3914408267716536
0
LINE
8
BLACK
6
CONTINUOUS
10
0.8696292125984252
20
1.3914408267716536
11
0.8683490551181102
21
1.3895249606299211
0
LINE
8
BLACK
6
CONTINUOUS
10
0.8683490551181102
20
1.3895249606299211
11
0.8664331889763779
21
1.3882448031496062
0
LINE
8
BLACK
6
CONTINUOUS
10
0.8664331889763779
20
1.3882448031496062
11
0.8641732283464567
21
1.3877952755905512
0
LINE
8
BLACK
6
CONTINUOUS
10
0.8641732283464567
20
1.3877952755905512
11
0.8179133858267716
21
1.3877952755905512
0
LINE
8
BLACK
6
CONTINUOUS
10
0.8179133858267716
20
1.3877952755905512
11
0.8156534251968504
21
1.3882448031496062
0
LINE
8
BLACK
6
CONTINUOUS
10
0.8156534251968504
20
1.3882448031496062
11
0.8137375590551181
21
1.3895249606299211
0
LINE
8
BLACK
6
CONTINUOUS
10
0.8137375590551181
20
1.3895249606299211
11
0.8124574015748032
21
1.3914408267716536
0
LINE
8
BLACK
6
CONTINUOUS
10
0.8124574015748032
20
1.3914408267716536
11
0.812007874015748
21
1.3937007874015748
0
LINE
8
BLACK
6
CONTINUOUS
10
0.812007874015748
20
1.3937007874015748
11
0.812007874015748
21
1.405511811023622
0
LINE
8
BLACK
6
CONTINUOUS
10
0.812007874015748
20
1.405511811023622
11
0.8124574015748032
21
1.4077717716535432
0
LINE
8
BLACK
6
CONTINUOUS
10
0.8124574015748032
20
1.4077717716535432
11
0.8137375590551181
21
1.4096876377952756
0
LINE
8
BLACK
6
CONTINUOUS
10
0.8137375590551181
20
1.4096876377952756
11
0.8156534251968504
21
1.4109677952755906
0
LINE
8
BLACK
6
CONTINUOUS
10
0.8156534251968504
20
1.4109677952755906
11
0.8179133858267716
21
1.4114173228346456
0
LINE
8
BLACK
6
CONTINUOUS
10
0.8179133858267716
20
1.4114173228346456
11
0.8641732283464567
21
1.4114173228346456
0
LINE
8
BLACK
6
CONTINUOUS
10
0.8641732283464567
20
1.4114173228346456
11
0.8664331889763779
21
1.4109677952755906
0
LINE
8
BLACK
6
CONTINUOUS
10
0.6789634251968504
20
1.5287783464566929
11
0.6821565748031496
21
1.5266447637795275
0
LINE
8
BLACK
6
CONTINUOUS
10
0.6821565748031496
20
1.5266447637795275
11
0.684290157480315
21
1.5234516141732284
0
LINE
8
BLACK
6
CONTINUOUS
10
0.684290157480315
20
1.5234516141732284
11
0.6850393700787402
21
1.5196850393700787
0
LINE
8
BLACK
6
CONTINUOUS
10
0.6850393700787402
20
1.5196850393700787
11
0.6850393700787402
21
1.4409448818897637
0
LINE
8
BLACK
6
CONTINUOUS
10
0.6850393700787402
20
1.4409448818897637
11
0.684290157480315
21
1.4371783070866142
0
LINE
8
BLACK
6
CONTINUOUS
10
0.684290157480315
20
1.4371783070866142
11
0.6821565748031496
21
1.4339851574803149
0
LINE
8
BLACK
6
CONTINUOUS
10
0.6821565748031496
20
1.4339851574803149
11
0.6789634251968504
21
1.4318515748031495
0
LINE
8
BLACK
6
CONTINUOUS
10
0.6789634251968504
20
1.4318515748031495
11
0.6751968503937008
21
1.4311023622047243
0
LINE
8
BLACK
6
CONTINUOUS
10
0.6751968503937008
20
1.4311023622047243
11
0.6240157480314961
21
1.4311023622047243
0
LINE
8
BLACK
6
CONTINUOUS
10
0.6240157480314961
20
1.4311023622047243
11
0.6202491732283465
21
1.4318515748031495
0
LINE
8
BLACK
6
CONTINUOUS
10
0.6202491732283465
20
1.4318515748031495
11
0.6170560236220473
21
1.4339851574803149
0
LINE
8
BLACK
6
CONTINUOUS
10
0.6170560236220473
20
1.4339851574803149
11
0.6149224409448819
21
1.4371783070866142
0
LINE
8
BLACK
6
CONTINUOUS
10
0.6149224409448819
20
1.4371783070866142
11
0.6141732283464567
21
1.4409448818897637
0
LINE
8
BLACK
6
CONTINUOUS
10
0.6141732283464567
20
1.4409448818897637
11
0.6141732283464567
21
1.5196850393700787
0
LINE
8
BLACK
6
CONTINUOUS
10
0.6141732283464567
20
1.5196850393700787
11
0.6149224409448819
21
1.5234516141732284
0
LINE
8
BLACK
6
CONTINUOUS
10
0.6149224409448819
20
1.5234516141732284
11
0.6170560236220473
21
1.5266447637795275
0
LINE
8
BLACK
6
CONTINUOUS
10
0.6170560236220473
20
1.5266447637795275
11
0.6202491732283465
21
1.5287783464566929
0
LINE
8
BLACK
6
CONTINUOUS
10
0.6202491732283465
20
1.5287783464566929
11
0.6240157480314961
21
1.5295275590551181
0
LINE
8
BLACK
6
CONTINUOUS
10
0.6240157480314961
20
1.5295275590551181
11
0.6751968503937008
21
1.5295275590551181
0
LINE
8
BLACK
6
CONTINUOUS
10
0.6751968503937008
20
1.5295275590551181
11
0.6789634251968504
21
1.5287783464566929
0
LINE
8
BLACK
6
CONTINUOUS
10
0.7734516141732283
20
1.5356681102362204
11
0.7766447637795275
21
1.5335345275590551
0
LINE
8
BLACK
6
CONTINUOUS
10
0.7766447637795275
20
1.5335345275590551
11
0.7787783464566929
21
1.5303413779527559
0
LINE
8
BLACK
6
CONTINUOUS
10
0.7787783464566929
20
1.5303413779527559
11
0.7795275590551181
21
1.5265748031496063
0
LINE
8
BLACK
6
CONTINUOUS
10
0.7795275590551181
20
1.5265748031496063
11
0.7795275590551181
21
1.4891732283464567
0
LINE
8
BLACK
6
CONTINUOUS
10
0.7795275590551181
20
1.4891732283464567
11
0.7787783464566929
21
1.485406653543307
0
LINE
8
BLACK
6
CONTINUOUS
10
0.7787783464566929
20
1.485406653543307
11
0.7766447637795275
21
1.4822135039370079
0
LINE
8
BLACK
6
CONTINUOUS
10
0.7766447637795275
20
1.4822135039370079
11
0.7734516141732283
21
1.4800799212598426
0
LINE
8
BLACK
6
CONTINUOUS
10
0.7734516141732283
20
1.4800799212598426
11
0.7696850393700787
21
1.4793307086614174
0
LINE
8
BLACK
6
CONTINUOUS
10
0.7696850393700787
20
1.4793307086614174
11
0.75
21
1.4793307086614174
0
LINE
8
BLACK
6
CONTINUOUS
10
0.75
20
1.4793307086614174
11
0.7462334251968504
21
1.4800799212598426
0
LINE
8
BLACK
6
CONTINUOUS
10
0.7462334251968504
20
1.4800799212598426
11
0.7430402755905512
21
1.4822135039370079
0
LINE
8
BLACK
6
CONTINUOUS
10
0.7430402755905512
20
1.4822135039370079
11
0.7409066929133858
21
1.485406653543307
0
LINE
8
BLACK
6
CONTINUOUS
10
0.7409066929133858
20
1.485406653543307
11
0.7401574803149606
21
1.4891732283464567
0
LINE
8
BLACK
6
CONTINUOUS
10
0.7401574803149606
20
1.4891732283464567
11
0.7401574803149606
21
1.5265748031496063
0
LINE
8
BLACK
6
CONTINUOUS
10
0.7401574803149606
20
1.5265748031496063
11
0.7409066929133858
21
1.5303413779527559
0
LINE
8
BLACK
6
CONTINUOUS
10
0.7409066929133858
20
1.5303413779527559
11
0.7430402755905512
21
1.5335345275590551
0
LINE
8
BLACK
6
CONTINUOUS
10
0.7430402755905512
20
1.5335345275590551
11
0.7462334251968504
21
1.5356681102362204
0
LINE
8
BLACK
6
CONTINUOUS
10
0.7462334251968504
20
1.5356681102362204
11
0.75
21
1.5364173228346456
0
LINE
8
BLACK
6
CONTINUOUS
10
0.75
20
1.5364173228346456
11
0.7696850393700787
21
1.5364173228346456
0
LINE
8
BLACK
6
CONTINUOUS
10
0.7696850393700787
20
1.5364173228346456
11
0.7734516141732283
21
1.5356681102362204
0
LINE
8
BLACK
6
CONTINUOUS
10
0.8482547637795276
20
1.5356681102362204
11
0.8514479133858267
21
1.5335345275590551
0
LINE
8
BLACK
6
CONTINUOUS
10
0.8514479133858267
20
1.5335345275590551
11
0.8535814960629921
21
1.5303413779527559
0
LINE
8
BLACK
6
CONTINUOUS
10
0.8535814960629921
20
1.5303413779527559
11
0.8543307086614172
21
1.5265748031496063
0
LINE
8
BLACK
6
CONTINUOUS
10
0.8543307086614172
20
1.5265748031496063
11
0.8543307086614172
21
1.4891732283464567
0
LINE
8
BLACK
6
CONTINUOUS
10
0.8543307086614172
20
1.4891732283464567
11
0.8535814960629921
21
1.485406653543307
0
LINE
8
BLACK
6
CONTINUOUS
10
0.8535814960629921
20
1.485406653543307
11
0.8514479133858267
21
1.4822135039370079
0
LINE
8
BLACK
6
CONTINUOUS
10
0.8514479133858267
20
1.4822135039370079
11
0.8482547637795276
21
1.4800799212598426
0
LINE
8
BLACK
6
CONTINUOUS
10
0.8482547637795276
20
1.4800799212598426
11
0.8444881889763779
21
1.4793307086614174
0
LINE
8
BLACK
6
CONTINUOUS
10
0.8444881889763779
20
1.4793307086614174
11
0.8248031496062992
21
1.4793307086614174
0
LINE
8
BLACK
6
CONTINUOUS
10
0.8248031496062992
20
1.4793307086614174
11
0.8210365748031496
21
1.4800799212598426
0
LINE
8
BLACK
6
CONTINUOUS
10
0.8210365748031496
20
1.4800799212598426
11
0.8178434251968504
21
1.4822135039370079
0
LINE
8
BLACK
6
CONTINUOUS
10
0.8178434251968504
20
1.4822135039370079
11
0.815709842519685
21
1.485406653543307
0
LINE
8
BLACK
6
CONTINUOUS
10
0.815709842519685
20
1.485406653543307
11
0.8149606299212598
21
1.4891732283464567
0
LINE
8
BLACK
6
CONTINUOUS
10
0.8149606299212598
20
1.4891732283464567
11
0.8149606299212598
21
1.5265748031496063
0
LINE
8
BLACK
6
CONTINUOUS
10
0.8149606299212598
20
1.5265748031496063
11
0.815709842519685
21
1.5303413779527559
0
LINE
8
BLACK
6
CONTINUOUS
10
0.815709842519685
20
1.5303413779527559
11
0.8178434251968504
21
1.5335345275590551
0
LINE
8
BLACK
6
CONTINUOUS
10
0.8178434251968504
20
1.5335345275590551
11
0.8210365748031496
21
1.5356681102362204
0
LINE
8
BLACK
6
CONTINUOUS
10
0.8210365748031496
20
1.5356681102362204
11
0.8248031496062992
21
1.5364173228346456
0
LINE
8
BLACK
6
CONTINUOUS
10
0.8248031496062992
20
1.5364173228346456
11
0.8444881889763779
21
1.5364173228346456
0
LINE
8
BLACK
6
CONTINUOUS
10
0.8444881889763779
20
1.5364173228346456
11
0.8482547637795276
21
1.5356681102362204
0
LINE
8
BLACK
6
CONTINUOUS
10
0.9112468897637795
20
1.5356681102362204
11
0.9144400393700787
21
1.5335345275590551
0
LINE
8
BLACK
6
CONTINUOUS
10
0.9144400393700787
20
1.5335345275590551
11
0.916573622047244
21
1.5303413779527559
0
LINE
8
BLACK
6
CONTINUOUS
10
0.916573622047244
20
1.5303413779527559
11
0.9173228346456692
21
1.5265748031496063
0
LINE
8
BLACK
6
CONTINUOUS
10
0.9173228346456692
20
1.5265748031496063
11
0.9173228346456692
21
1.4891732283464567
0
LINE
8
BLACK
6
CONTINUOUS
10
0.9173228346456692
20
1.4891732283464567
11
0.916573622047244
21
1.485406653543307
0
LINE
8
BLACK
6
CONTINUOUS
10
0.916573622047244
20
1.485406653543307
11
0.9144400393700787
21
1.4822135039370079
0
LINE
8
BLACK
6
CONTINUOUS
10
0.9144400393700787
20
1.4822135039370079
11
0.9112468897637795
21
1.4800799212598426
0
LINE
8
BLACK
6
CONTINUOUS
10
0.9112468897637795
20
1.4800799212598426
11
0.9074803149606299
21
1.4793307086614174
0
LINE
8
BLACK
6
CONTINUOUS
10
0.9074803149606299
20
1.4793307086614174
11
0.8877952755905512
21
1.4793307086614174
0
LINE
8
BLACK
6
CONTINUOUS
10
0.8877952755905512
20
1.4793307086614174
11
0.8840287007874016
21
1.4800799212598426
0
LINE
8
BLACK
6
CONTINUOUS
10
0.8840287007874016
20
1.4800799212598426
11
0.8808355511811023
21
1.4822135039370079
0
LINE
8
BLACK
6
CONTINUOUS
10
0.8808355511811023
20
1.4822135039370079
11
0.878701968503937
21
1.485406653543307
0
LINE
8
BLACK
6
CONTINUOUS
10
0.878701968503937
20
1.485406653543307
11
0.8779527559055118
21
1.4891732283464567
0
LINE
8
BLACK
6
CONTINUOUS
10
0.8779527559055118
20
1.4891732283464567
11
0.8779527559055118
21
1.5265748031496063
0
LINE
8
BLACK
6
CONTINUOUS
10
0.8779527559055118
20
1.5265748031496063
11
0.878701968503937
21
1.5303413779527559
0
LINE
8
BLACK
6
CONTINUOUS
10
0.878701968503937
20
1.5303413779527559
11
0.8808355511811023
21
1.5335345275590551
0
LINE
8
BLACK
6
CONTINUOUS
10
0.8808355511811023
20
1.5335345275590551
11
0.8840287007874016
21
1.5356681102362204
0
LINE
8
BLACK
6
CONTINUOUS
10
0.8840287007874016
20
1.5356681102362204
11
0.8877952755905512
21
1.5364173228346456
0
LINE
8
BLACK
6
CONTINUOUS
10
0.8877952755905512
20
1.5364173228346456
11
0.9074803149606299
21
1.5364173228346456
0
LINE
8
BLACK
6
CONTINUOUS
10
0.9074803149606299
20
1.5364173228346456
11
0.9112468897637795
21
1.5356681102362204
0
LINE
8
BLACK
6
CONTINUOUS
10
0.9860500393700787
20
1.5356681102362204
11
0.989243188976378
21
1.5335345275590551
0
LINE
8
BLACK
6
CONTINUOUS
10
0.989243188976378
20
1.5335345275590551
11
0.9913767716535433
21
1.5303413779527559
0
LINE
8
BLACK
6
CONTINUOUS
10
0.9913767716535433
20
1.5303413779527559
11
0.9921259842519685
21
1.5265748031496063
0
LINE
8
BLACK
6
CONTINUOUS
10
0.9921259842519685
20
1.5265748031496063
11
0.9921259842519685
21
1.4891732283464567
0
LINE
8
BLACK
6
CONTINUOUS
10
0.9921259842519685
20
1.4891732283464567
11
0.9913767716535433
21
1.485406653543307
0
LINE
8
BLACK
6
CONTINUOUS
10
0.9913767716535433
20
1.485406653543307
11
0.989243188976378
21
1.4822135039370079
0
LINE
8
BLACK
6
CONTINUOUS
10
0.989243188976378
20
1.4822135039370079
11
0.9860500393700787
21
1.4800799212598426
0
LINE
8
BLACK
6
CONTINUOUS
10
0.9860500393700787
20
1.4800799212598426
11
0.9822834645669292
21
1.4793307086614174
0
LINE
8
BLACK
6
CONTINUOUS
10
0.9822834645669292
20
1.4793307086614174
11
0.9625984251968503
21
1.4793307086614174
0
LINE
8
BLACK
6
CONTINUOUS
10
0.9625984251968503
20
1.4793307086614174
11
0.9588318503937008
21
1.4800799212598426
0
LINE
8
BLACK
6
CONTINUOUS
10
0.9588318503937008
20
1.4800799212598426
11
0.9556387007874015
21
1.4822135039370079
0
LINE
8
BLACK
6
CONTINUOUS
10
0.9556387007874015
20
1.4822135039370079
11
0.9535051181102362
21
1.485406653543307
0
LINE
8
BLACK
6
CONTINUOUS
10
0.9535051181102362
20
1.485406653543307
11
0.952755905511811
21
1.4891732283464567
0
LINE
8
BLACK
6
CONTINUOUS
10
0.952755905511811
20
1.4891732283464567
11
0.952755905511811
21
1.5265748031496063
0
LINE
8
BLACK
6
CONTINUOUS
10
0.952755905511811
20
1.5265748031496063
11
0.9535051181102362
21
1.5303413779527559
0
LINE
8
BLACK
6
CONTINUOUS
10
0.9535051181102362
20
1.5303413779527559
11
0.9556387007874015
21
1.5335345275590551
0
LINE
8
BLACK
6
CONTINUOUS
10
0.9556387007874015
20
1.5335345275590551
11
0.9588318503937008
21
1.5356681102362204
0
LINE
8
BLACK
6
CONTINUOUS
10
0.9588318503937008
20
1.5356681102362204
11
0.9625984251968503
21
1.5364173228346456
0
LINE
8
BLACK
6
CONTINUOUS
10
0.9625984251968503
20
1.5364173228346456
11
0.9822834645669292
21
1.5364173228346456
0
LINE
8
BLACK
6
CONTINUOUS
10
0.9822834645669292
20
1.5364173228346456
11
0.9860500393700787
21
1.5356681102362204
0
LINE
8
BLACK
6
CONTINUOUS
10
0.4205096850393701
20
1.7163158661417321
11
0.4338744488188976
21
1.7131483858267715
0
LINE
8
BLACK
6
CONTINUOUS
10
0.4338744488188976
20
1.7131483858267715
11
0.4467811023622047
21
1.7084507086614173
0
LINE
8
BLACK
6
CONTINUOUS
10
0.4467811023622047
20
1.7084507086614173
11
0.4590551574803149
21
1.7022864566929135
0
LINE
8
BLACK
6
CONTINUOUS
10
0.4590551574803149
20
1.7022864566929135
11
0.4705305905511811
21
1.6947389763779528
0
LINE
8
BLACK
6
CONTINUOUS
10
0.4705305905511811
20
1.6947389763779528
11
0.4810522047244095
21
1.6859102755905511
0
LINE
8
BLACK
6
CONTINUOUS
10
0.4810522047244095
20
1.6859102755905511
11
0.490477716535433
21
1.6759198031496063
0
LINE
8
BLACK
6
CONTINUOUS
10
0.490477716535433
20
1.6759198031496063
11
0.49867968503937
21
1.6649026377952756
0
LINE
8
BLACK
6
CONTINUOUS
10
0.49867968503937
20
1.6649026377952756
11
0.5055472047244094
21
1.6530077952755906
0
LINE
8
BLACK
6
CONTINUOUS
10
0.5055472047244094
20
1.6530077952755906
11
0.5109873622047244
21
1.6403960629921259
0
LINE
8
BLACK
6
CONTINUOUS
10
0.5109873622047244
20
1.6403960629921259
11
0.5149266141732284
21
1.6272381102362203
0
LINE
8
BLACK
6
CONTINUOUS
10
0.5149266141732284
20
1.6272381102362203
11
0.5173116535433071
21
1.6137117716535432
0
LINE
8
BLACK
6
CONTINUOUS
10
0.5173116535433071
20
1.6137117716535432
11
0.5181102755905511
21
1.5999999999999999
0
LINE
8
BLACK
6
CONTINUOUS
10
0.5181102755905511
20
1.5999999999999999
11
0.5173116535433071
21
1.5862882283464566
0
LINE
8
BLACK
6
CONTINUOUS
10
0.5173116535433071
20
1.5862882283464566
11
0.5149266141732284
21
1.5727618897637794
0
LINE
8
BLACK
6
CONTINUOUS
10
0.5149266141732284
20
1.5727618897637794
11
0.5109873622047244
21
1.559603937007874
0
LINE
8
BLACK
6
CONTINUOUS
10
0.5109873622047244
20
1.559603937007874
11
0.5055472047244094
21
1.5469922047244093
0
LINE
8
BLACK
6
CONTINUOUS
10
0.5055472047244094
20
1.5469922047244093
11
0.49867968503937
21
1.5350973622047244
0
LINE
8
BLACK
6
CONTINUOUS
10
0.49867968503937
20
1.5350973622047244
11
0.490477716535433
21
1.5240801968503936
0
LINE
8
BLACK
6
CONTINUOUS
10
0.490477716535433
20
1.5240801968503936
11
0.4810522047244095
21
1.5140897244094489
0
LINE
8
BLACK
6
CONTINUOUS
10
0.4810522047244095
20
1.5140897244094489
11
0.4705305905511811
21
1.5052610236220472
0
LINE
8
BLACK
6
CONTINUOUS
10
0.4705305905511811
20
1.5052610236220472
11
0.4590551574803149
21
1.4977135433070865
0
LINE
8
BLACK
6
CONTINUOUS
10
0.4590551574803149
20
1.4977135433070865
11
0.4467811023622047
21
1.4915492913385826
0
LINE
8
BLACK
6
CONTINUOUS
10
0.4467811023622047
20
1.4915492913385826
11
0.4338744488188976
21
1.4868516141732284
0
LINE
8
BLACK
6
CONTINUOUS
10
0.4338744488188976
20
1.4868516141732284
11
0.4205096850393701
21
1.4836841338582676
0
LINE
8
BLACK
6
CONTINUOUS
10
0.4205096850393701
20
1.4836841338582676
11
0.4068675196850394
21
1.4820896062992126
0
LINE
8
BLACK
6
CONTINUOUS
10
0.4068675196850394
20
1.4820896062992126
11
0.3931325590551181
21
1.4820896062992126
0
LINE
8
BLACK
6
CONTINUOUS
10
0.3931325590551181
20
1.4820896062992126
11
0.3794903937007874
21
1.4836841338582676
0
LINE
8
BLACK
6
CONTINUOUS
10
0.3794903937007874
20
1.4836841338582676
11
0.3661256299212599
21
1.4868516141732284
0
LINE
8
BLACK
6
CONTINUOUS
10
0.3661256299212599
20
1.4868516141732284
11
0.3532189763779527
21
1.4915492913385826
0
LINE
8
BLACK
6
CONTINUOUS
10
0.3532189763779527
20
1.4915492913385826
11
0.3409449212598425
21
1.4977135433070865
0
LINE
8
BLACK
6
CONTINUOUS
10
0.3409449212598425
20
1.4977135433070865
11
0.3294694881889764
21
1.5052610236220472
0
LINE
8
BLACK
6
CONTINUOUS
10
0.3294694881889764
20
1.5052610236220472
11
0.318947874015748
21
1.5140897244094489
0
LINE
8
BLACK
6
CONTINUOUS
10
0.318947874015748
20
1.5140897244094489
11
0.3095223622047244
21
1.5240801968503936
0
LINE
8
BLACK
6
CONTINUOUS
10
0.3095223622047244
20
1.5240801968503936
11
0.3013203937007874
21
1.5350973622047244
0
LINE
8
BLACK
6
CONTINUOUS
10
0.3013203937007874
20
1.5350973622047244
11
0.294452874015748
21
1.5469922047244093
0
LINE
8
BLACK
6
CONTINUOUS
10
0.294452874015748
20
1.5469922047244093
11
0.2890127165354331
21
1.559603937007874
0
LINE
8
BLACK
6
CONTINUOUS
10
0.2890127165354331
20
1.559603937007874
11
0.2850734645669291
21
1.5727618897637794
0
LINE
8
BLACK
6
CONTINUOUS
10
0.2850734645669291
20
1.5727618897637794
11
0.2826884251968504
21
1.5862882283464566
0
LINE
8
BLACK
6
CONTINUOUS
10
0.2826884251968504
20
1.5862882283464566
11
0.2818898031496063
21
1.5999999999999999
0
LINE
8
BLACK
6
CONTINUOUS
10
0.2818898031496063
20
1.5999999999999999
11
0.2826884251968504
21
1.6137117716535432
0
LINE
8
BLACK
6
CONTINUOUS
10
0.2826884251968504
20
1.6137117716535432
11
0.2850734645669291
21
1.6272381102362203
0
LINE
8
BLACK
6
CONTINUOUS
10
0.2850734645669291
20
1.6272381102362203
11
0.2890127165354331
21
1.6403960629921259
0
LINE
8
BLACK
6
CONTINUOUS
10
0.2890127165354331
20
1.6403960629921259
11
0.294452874015748
21
1.6530077952755906
0
LINE
8
BLACK
6
CONTINUOUS
10
0.294452874015748
20
1.6530077952755906
11
0.3013203937007874
21
1.6649026377952756
0
LINE
8
BLACK
6
CONTINUOUS
10
0.3013203937007874
20
1.6649026377952756
11
0.3095223622047244
21
1.6759198031496063
0
LINE
8
BLACK
6
CONTINUOUS
10
0.3095223622047244
20
1.6759198031496063
11
0.318947874015748
21
1.6859102755905511
0
LINE
8
BLACK
6
CONTINUOUS
10
0.318947874015748
20
1.6859102755905511
11
0.3294694881889764
21
1.6947389763779528
0
LINE
8
BLACK
6
CONTINUOUS
10
0.3294694881889764
20
1.6947389763779528
11
0.3409449212598425
21
1.7022864566929135
0
LINE
8
BLACK
6
CONTINUOUS
10
0.3409449212598425
20
1.7022864566929135
11
0.3532189763779527
21
1.7084507086614173
0
LINE
8
BLACK
6
CONTINUOUS
10
0.3532189763779527
20
1.7084507086614173
11
0.3661256299212599
21
1.7131483858267715
0
LINE
8
BLACK
6
CONTINUOUS
10
0.3661256299212599
20
1.7131483858267715
11
0.3794903937007874
21
1.7163158661417321
0
LINE
8
BLACK
6
CONTINUOUS
10
0.3794903937007874
20
1.7163158661417321
11
0.3931325590551181
21
1.7179103937007874
0
LINE
8
BLACK
6
CONTINUOUS
10
0.3931325590551181
20
1.7179103937007874
11
0.4068675196850394
21
1.7179103937007874
0
LINE
8
BLACK
6
CONTINUOUS
10
0.4068675196850394
20
1.7179103937007874
11
0.4205096850393701
21
1.7163158661417321
0
LINE
8
BLACK
6
CONTINUOUS
10
1.22050968503937
20
1.7163158661417321
11
1.2338744488188975
21
1.7131483858267715
0
LINE
8
BLACK
6
CONTINUOUS
10
1.2338744488188975
20
1.7131483858267715
11
1.2467811023622046
21
1.7084507086614173
0
LINE
8
BLACK
6
CONTINUOUS
10
1.2467811023622046
20
1.7084507086614173
11
1.2590551574803148
21
1.7022864566929135
0
LINE
8
BLACK
6
CONTINUOUS
10
1.2590551574803148
20
1.7022864566929135
11
1.270530590551181
21
1.6947389763779528
0
LINE
8
BLACK
6
CONTINUOUS
10
1.270530590551181
20
1.6947389763779528
11
1.2810522047244095
21
1.6859102755905511
0
LINE
8
BLACK
6
CONTINUOUS
10
1.2810522047244095
20
1.6859102755905511
11
1.2904777165354331
21
1.6759198031496063
0
LINE
8
BLACK
6
CONTINUOUS
10
1.2904777165354331
20
1.6759198031496063
11
1.29867968503937
21
1.6649026377952756
0
LINE
8
BLACK
6
CONTINUOUS
10
1.29867968503937
20
1.6649026377952756
11
1.3055472047244094
21
1.6530077952755906
0
LINE
8
BLACK
6
CONTINUOUS
10
1.3055472047244094
20
1.6530077952755906
11
1.3109873622047243
21
1.6403960629921259
0
LINE
8
BLACK
6
CONTINUOUS
10
1.3109873622047243
20
1.6403960629921259
11
1.3149266141732283
21
1.6272381102362203
0
LINE
8
BLACK
6
CONTINUOUS
10
1.3149266141732283
20
1.6272381102362203
11
1.3173116535433071
21
1.6137117716535432
0
LINE
8
BLACK
6
CONTINUOUS
10
1.3173116535433071
20
1.6137117716535432
11
1.3181102755905512
21
1.5999999999999999
0
LINE
8
BLACK
6
CONTINUOUS
10
1.3181102755905512
20
1.5999999999999999
11
1.3173116535433071
21
1.5862882283464566
0
LINE
8
BLACK
6
CONTINUOUS
10
1.3173116535433071
20
1.5862882283464566
11
1.3149266141732283
21
1.5727618897637794
0
LINE
8
BLACK
6
CONTINUOUS
10
1.3149266141732283
20
1.5727618897637794
11
1.3109873622047243
21
1.559603937007874
0
LINE
8
BLACK
6
CONTINUOUS
10
1.3109873622047243
20
1.559603937007874
11
1.3055472047244094
21
1.5469922047244093
0
LINE
8
BLACK
6
CONTINUOUS
10
1.3055472047244094
20
1.5469922047244093
11
1.29867968503937
21
1.5350973622047244
0
LINE
8
BLACK
6
CONTINUOUS
10
1.29867968503937
20
1.5350973622047244
11
1.2904777165354331
21
1.5240801968503936
0
LINE
8
BLACK
6
CONTINUOUS
10
1.2904777165354331
20
1.5240801968503936
11
1.2810522047244095
21
1.5140897244094489
0
LINE
8
BLACK
6
CONTINUOUS
10
1.2810522047244095
20
1.5140897244094489
11
1.270530590551181
21
1.5052610236220472
0
LINE
8
BLACK
6
CONTINUOUS
10
1.270530590551181
20
1.5052610236220472
11
1.2590551574803148
21
1.4977135433070865
0
LINE
8
BLACK
6
CONTINUOUS
10
1.2590551574803148
20
1.4977135433070865
11
1.2467811023622046
21
1.4915492913385826
0
LINE
8
BLACK
6
CONTINUOUS
10
1.2467811023622046
20
1.4915492913385826
11
1.2338744488188975
21
1.4868516141732284
0
LINE
8
BLACK
6
CONTINUOUS
10
1.2338744488188975
20
1.4868516141732284
11
1.22050968503937
21
1.4836841338582676
0
LINE
8
BLACK
6
CONTINUOUS
10
1.22050968503937
20
1.4836841338582676
11
1.2068675196850394
21
1.4820896062992126
0
LINE
8
BLACK
6
CONTINUOUS
10
1.2068675196850394
20
1.4820896062992126
11
1.1931325590551181
21
1.4820896062992126
0
LINE
8
BLACK
6
CONTINUOUS
10
1.1931325590551181
20
1.4820896062992126
11
1.1794903937007875
21
1.4836841338582676
0
LINE
8
BLACK
6
CONTINUOUS
10
1.1794903937007875
20
1.4836841338582676
11
1.1661256299212599
21
1.4868516141732284
0
LINE
8
BLACK
6
CONTINUOUS
10
1.1661256299212599
20
1.4868516141732284
11
1.1532189763779528
21
1.4915492913385826
0
LINE
8
BLACK
6
CONTINUOUS
10
1.1532189763779528
20
1.4915492913385826
11
1.1409449212598426
21
1.4977135433070865
0
LINE
8
BLACK
6
CONTINUOUS
10
1.1409449212598426
20
1.4977135433070865
11
1.1294694881889764
21
1.5052610236220472
0
LINE
8
BLACK
6
CONTINUOUS
10
1.1294694881889764
20
1.5052610236220472
11
1.1189478740157479
21
1.5140897244094489
0
LINE
8
BLACK
6
CONTINUOUS
10
1.1189478740157479
20
1.5140897244094489
11
1.1095223622047243
21
1.5240801968503936
0
LINE
8
BLACK
6
CONTINUOUS
10
1.1095223622047243
20
1.5240801968503936
11
1.1013203937007874
21
1.5350973622047244
0
LINE
8
BLACK
6
CONTINUOUS
10
1.1013203937007874
20
1.5350973622047244
11
1.094452874015748
21
1.5469922047244093
0
LINE
8
BLACK
6
CONTINUOUS
10
1.094452874015748
20
1.5469922047244093
11
1.0890127165354331
21
1.559603937007874
0
LINE
8
BLACK
6
CONTINUOUS
10
1.0890127165354331
20
1.559603937007874
11
1.0850734645669291
21
1.5727618897637794
0
LINE
8
BLACK
6
CONTINUOUS
10
1.0850734645669291
20
1.5727618897637794
11
1.0826884251968503
21
1.5862882283464566
0
LINE
8
BLACK
6
CONTINUOUS
10
1.0826884251968503
20
1.5862882283464566
11
1.0818898031496063
21
1.5999999999999999
0
LINE
8
BLACK
6
CONTINUOUS
10
1.0818898031496063
20
1.5999999999999999
11
1.0826884251968503
21
1.6137117716535432
0
LINE
8
BLACK
6
CONTINUOUS
10
1.0826884251968503
20
1.6137117716535432
11
1.0850734645669291
21
1.6272381102362203
0
LINE
8
BLACK
6
CONTINUOUS
10
1.0850734645669291
20
1.6272381102362203
11
1.0890127165354331
21
1.6403960629921259
0
LINE
8
BLACK
6
CONTINUOUS
10
1.0890127165354331
20
1.6403960629921259
11
1.094452874015748
21
1.6530077952755906
0
LINE
8
BLACK
6
CONTINUOUS
10
1.094452874015748
20
1.6530077952755906
11
1.1013203937007874
21
1.6649026377952756
0
LINE
8
BLACK
6
CONTINUOUS
10
1.1013203937007874
20
1.6649026377952756
11
1.1095223622047243
21
1.6759198031496063
0
LINE
8
BLACK
6
CONTINUOUS
10
1.1095223622047243
20
1.6759198031496063
11
1.1189478740157479
21
1.6859102755905511
0
LINE
8
BLACK
6
CONTINUOUS
10
1.1189478740157479
20
1.6859102755905511
11
1.1294694881889764
21
1.6947389763779528
0
LINE
8
BLACK
6
CONTINUOUS
10
1.1294694881889764
20
1.6947389763779528
11
1.1409449212598426
21
1.7022864566929135
0
LINE
8
BLACK
6
CONTINUOUS
10
1.1409449212598426
20
1.7022864566929135
11
1.1532189763779528
21
1.7084507086614173
0
LINE
8
BLACK
6
CONTINUOUS
10
1.1532189763779528
20
1.7084507086614173
11
1.1661256299212599
21
1.7131483858267715
0
LINE
8
BLACK
6
CONTINUOUS
10
1.1661256299212599
20
1.7131483858267715
11
1.1794903937007875
21
1.7163158661417321
0
LINE
8
BLACK
6
CONTINUOUS
10
1.1794903937007875
20
1.7163158661417321
11
1.1931325590551181
21
1.7179103937007874
0
LINE
8
BLACK
6
CONTINUOUS
10
1.1931325590551181
20
1.7179103937007874
11
1.2068675196850394
21
1.7179103937007874
0
LINE
8
BLACK
6
CONTINUOUS
10
1.2068675196850394
20
1.7179103937007874
11
1.22050968503937
21
1.7163158661417321
0
LINE
8
BLACK
6
CONTINUOUS
10
0.6654331102362204
20
1.5656692913385826
11
0.6054331102362205
21
1.5656692913385826
0
LINE
8
BLACK
6
CONTINUOUS
10
0.6054331102362205
20
1.5656692913385826
11
0.6054331102362205
21
1.6256692913385826
0
LINE
8
BLACK
6
CONTINUOUS
10
0.6054331102362205
20
1.6256692913385826
11
0.6654331102362204
21
1.6256692913385826
0
LINE
8
BLACK
6
CONTINUOUS
10
0.6654331102362204
20
1.6256692913385826
11
0.6654331102362204
21
1.5656692913385826
0
LINE
8
BLACK
6
CONTINUOUS
10
0.7654331102362204
20
1.5656692913385826
11
0.7054331102362205
21
1.5656692913385826
0
LINE
8
BLACK
6
CONTINUOUS
10
0.7054331102362205
20
1.5656692913385826
11
0.7054331102362205
21
1.6256692913385826
0
LINE
8
BLACK
6
CONTINUOUS
10
0.7054331102362205
20
1.6256692913385826
11
0.7654331102362204
21
1.6256692913385826
0
LINE
8
BLACK
6
CONTINUOUS
10
0.7654331102362204
20
1.6256692913385826
11
0.7654331102362204
21
1.5656692913385826
0
LINE
8
BLACK
6
CONTINUOUS
10
0.8654331102362205
20
1.5656692913385826
11
0.8054331102362204
21
1.5656692913385826
0
LINE
8
BLACK
6
CONTINUOUS
10
0.8054331102362204
20
1.5656692913385826
11
0.8054331102362204
21
1.6256692913385826
0
LINE
8
BLACK
6
CONTINUOUS
10
0.8054331102362204
20
1.6256692913385826
11
0.8654331102362205
21
1.6256692913385826
0
LINE
8
BLACK
6
CONTINUOUS
10
0.8654331102362205
20
1.6256692913385826
11
0.8654331102362205
21
1.5656692913385826
0
LINE
8
BLACK
6
CONTINUOUS
10
0.9654331102362205
20
1.5656692913385826
11
0.9054331102362204
21
1.5656692913385826
0
LINE
8
BLACK
6
CONTINUOUS
10
0.9054331102362204
20
1.5656692913385826
11
0.9054331102362204
21
1.6256692913385826
0
LINE
8
BLACK
6
CONTINUOUS
10
0.9054331102362204
20
1.6256692913385826
11
0.9654331102362205
21
1.6256692913385826
0
LINE
8
BLACK
6
CONTINUOUS
10
0.9654331102362205
20
1.6256692913385826
11
0.9654331102362205
21
1.5656692913385826
0
LINE
8
BLACK
6
CONTINUOUS
10
0.6654331102362204
20
1.6656692913385827
11
0.6054331102362205
21
1.6656692913385827
0
LINE
8
BLACK
6
CONTINUOUS
10
0.6054331102362205
20
1.6656692913385827
11
0.6054331102362205
21
1.7256692913385827
0
LINE
8
BLACK
6
CONTINUOUS
10
0.6054331102362205
20
1.7256692913385827
11
0.6654331102362204
21
1.7256692913385827
0
LINE
8
BLACK
6
CONTINUOUS
10
0.6654331102362204
20
1.7256692913385827
11
0.6654331102362204
21
1.6656692913385827
0
LINE
8
BLACK
6
CONTINUOUS
10
0.7654331102362204
20
1.6656692913385827
11
0.7054331102362205
21
1.6656692913385827
0
LINE
8
BLACK
6
CONTINUOUS
10
0.7054331102362205
20
1.6656692913385827
11
0.7054331102362205
21
1.7256692913385827
0
LINE
8
BLACK
6
CONTINUOUS
10
0.7054331102362205
20
1.7256692913385827
11
0.7654331102362204
21
1.7256692913385827
0
LINE
8
BLACK
6
CONTINUOUS
10
0.7654331102362204
20
1.7256692913385827
11
0.7654331102362204
21
1.6656692913385827
0
LINE
8
BLACK
6
CONTINUOUS
10
0.8654331102362205
20
1.6656692913385827
11
0.8054331102362204
21
1.6656692913385827
0
LINE
8
BLACK
6
CONTINUOUS
10
0.8054331102362204
20
1.6656692913385827
11
0.8054331102362204
21
1.7256692913385827
0
LINE
8
BLACK
6
CONTINUOUS
10
0.8054331102362204
20
1.7256692913385827
11
0.8654331102362205
21
1.7256692913385827
0
LINE
8
BLACK
6
CONTINUOUS
10
0.8654331102362205
20
1.7256692913385827
11
0.8654331102362205
21
1.6656692913385827
0
LINE
8
BLACK
6
CONTINUOUS
10
0.9654331102362205
20
1.6656692913385827
11
0.9054331102362204
21
1.6656692913385827
0
LINE
8
BLACK
6
CONTINUOUS
10
0.9054331102362204
20
1.6656692913385827
11
0.9054331102362204
21
1.7256692913385827
0
LINE
8
BLACK
6
CONTINUOUS
10
0.9054331102362204
20
1.7256692913385827
11
0.9654331102362205
21
1.7256692913385827
0
LINE
8
BLACK
6
CONTINUOUS
10
0.9654331102362205
20
1.7256692913385827
11
0.9654331102362205
21
1.6656692913385827
  0
ENDSEC
  0
EOF
