  0
SECTION
  2
HEADER
  9
$ANGBASE
  50
0.0
  9
$ANGDIR
  70
1
  9
$MEASUREMENT
  70
0
  0
ENDSEC
  0
SECTION
  2
TABLES
  0
TABLE
  2
LTYPE
  70
4
  0
LTYPE
  5
40F
  2
CONTINUOUS
  70
0
  3
Solid line
  72
65
  73
0
  40
0.0
  0
LTYPE
  5
410
  2
DASHDOT
 70
0
  3
Dash Dot ____ _ ____ _
 72
65
 73
4
 40
2.0
 49
1.25
 49
-0.25
 49
0.25
 49
-0.25
  0
LTYPE
  5
411
  2
DASHED
 70
0
  3
Dashed __ __ __ __ __
 72
65
 73
2
 40
0.75
 49
0.5
 49
-0.25
  0
LTYPE
  5
43B
  2
DOTTED
 70
0
  3
Dotted .  .  .  .
 72
65
 73
2
 40
0.2
 49
0.0
 49
-0.2
  0
ENDTAB
  0
TABLE
  2
STYLE
  70
4
  0
STYLE
  2
KICAD
  70
0
  40
0
  41
1
  42
1
  50
0
  71
0
  3
isocp.shx
  0
STYLE
  2
KICADB
  70
0
  40
0
  41
1
  42
1
  50
0
  71
0
  3
isocp.shx
  0
STYLE
  2
KICADI
  70
0
  40
0
  41
1
  42
1
  50
15
  71
0
  3
isocp.shx
  0
STYLE
  2
KICADBI
  70
0
  40
0
  41
1
  42
1
  50
15
  71
0
  3
isocp.shx
  0
ENDTAB
  0
TABLE
  2
LAYER
  70
1
  0
LAYER
  2
BLACK
  70
0
  62
7
  6
CONTINUOUS
  0
ENDTAB
  0
ENDSEC
  0
SECTION
  2
ENTITIES
0
LINE
8
BLACK
6
CONTINUOUS
10
0.4134434645669291
20
0.5193135433070866
11
0.4267177952755906
21
0.5170581496062993
0
LINE
8
BLACK
6
CONTINUOUS
10
0.4267177952755906
20
0.5170581496062993
11
0.4396561417322835
21
0.5133306692913385
0
LINE
8
BLACK
6
CONTINUOUS
10
0.4396561417322835
20
0.5133306692913385
11
0.4520958267716536
21
0.5081779921259842
0
LINE
8
BLACK
6
CONTINUOUS
10
0.4520958267716536
20
0.5081779921259842
11
0.4638803543307087
21
0.5016649212598425
0
LINE
8
BLACK
6
CONTINUOUS
10
0.4638803543307087
20
0.5016649212598425
11
0.4748615354330709
21
0.4938733464566929
0
LINE
8
BLACK
6
CONTINUOUS
10
0.4748615354330709
20
0.4938733464566929
11
0.4849012992125984
21
0.4849012598425197
0
LINE
8
BLACK
6
CONTINUOUS
10
0.4849012992125984
20
0.4849012598425197
11
0.4938733858267716
21
0.4748614960629921
0
LINE
8
BLACK
6
CONTINUOUS
10
0.4938733858267716
20
0.4748614960629921
11
0.5016649606299213
21
0.4638803149606299
0
LINE
8
BLACK
6
CONTINUOUS
10
0.5016649606299213
20
0.4638803149606299
11
0.508178031496063
21
0.4520957874015748
0
LINE
8
BLACK
6
CONTINUOUS
10
0.508178031496063
20
0.4520957874015748
11
0.5133307086614173
21
0.4396561023622047
0
LINE
8
BLACK
6
CONTINUOUS
10
0.5133307086614173
20
0.4396561023622047
11
0.5170581889763779
21
0.4267177559055118
0
LINE
8
BLACK
6
CONTINUOUS
10
0.5170581889763779
20
0.4267177559055118
11
0.5193135826771653
21
0.4134434251968504
0
LINE
8
BLACK
6
CONTINUOUS
10
0.5193135826771653
20
0.4134434251968504
11
0.5200685433070866
21
0.4
0
LINE
8
BLACK
6
CONTINUOUS
10
0.5200685433070866
20
0.4
11
0.5193135826771653
21
0.3865565748031496
0
LINE
8
BLACK
6
CONTINUOUS
10
0.5193135826771653
20
0.3865565748031496
11
0.5170581889763779
21
0.3732822440944882
0
LINE
8
BLACK
6
CONTINUOUS
10
0.5170581889763779
20
0.3732822440944882
11
0.5133307086614173
21
0.3603438976377953
0
LINE
8
BLACK
6
CONTINUOUS
10
0.5133307086614173
20
0.3603438976377953
11
0.508178031496063
21
0.3479042125984252
0
LINE
8
BLACK
6
CONTINUOUS
10
0.508178031496063
20
0.3479042125984252
11
0.5016649606299213
21
0.3361196850393701
0
LINE
8
BLACK
6
CONTINUOUS
10
0.5016649606299213
20
0.3361196850393701
11
0.4938733858267716
21
0.3251385039370079
0
LINE
8
BLACK
6
CONTINUOUS
10
0.4938733858267716
20
0.3251385039370079
11
0.4849012992125984
21
0.3150987401574803
0
LINE
8
BLACK
6
CONTINUOUS
10
0.4849012992125984
20
0.3150987401574803
11
0.4748615354330709
21
0.3061266535433071
0
LINE
8
BLACK
6
CONTINUOUS
10
0.4748615354330709
20
0.3061266535433071
11
0.4638803543307087
21
0.2983350787401575
0
LINE
8
BLACK
6
CONTINUOUS
10
0.4638803543307087
20
0.2983350787401575
11
0.4520958267716536
21
0.2918220078740157
0
LINE
8
BLACK
6
CONTINUOUS
10
0.4520958267716536
20
0.2918220078740157
11
0.4396561417322835
21
0.2866693307086614
0
LINE
8
BLACK
6
CONTINUOUS
10
0.4396561417322835
20
0.2866693307086614
11
0.4267177952755906
21
0.2829418503937008
0
LINE
8
BLACK
6
CONTINUOUS
10
0.4267177952755906
20
0.2829418503937008
11
0.4134434645669291
21
0.2806864566929134
0
LINE
8
BLACK
6
CONTINUOUS
10
0.4134434645669291
20
0.2806864566929134
11
0.4000000393700787
21
0.2799314960629921
0
LINE
8
BLACK
6
CONTINUOUS
10
0.4000000393700787
20
0.2799314960629921
11
0.3865566141732283
21
0.2806864566929134
0
LINE
8
BLACK
6
CONTINUOUS
10
0.3865566141732283
20
0.2806864566929134
11
0.3732822834645669
21
0.2829418503937008
0
LINE
8
BLACK
6
CONTINUOUS
10
0.3732822834645669
20
0.2829418503937008
11
0.360343937007874
21
0.2866693307086614
0
LINE
8
BLACK
6
CONTINUOUS
10
0.360343937007874
20
0.2866693307086614
11
0.3479042519685039
21
0.2918220078740157
0
LINE
8
BLACK
6
CONTINUOUS
10
0.3479042519685039
20
0.2918220078740157
11
0.3361197244094488
21
0.2983350787401575
0
LINE
8
BLACK
6
CONTINUOUS
10
0.3361197244094488
20
0.2983350787401575
11
0.3251385433070866
21
0.3061266535433071
0
LINE
8
BLACK
6
CONTINUOUS
10
0.3251385433070866
20
0.3061266535433071
11
0.315098779527559
21
0.3150987401574803
0
LINE
8
BLACK
6
CONTINUOUS
10
0.315098779527559
20
0.3150987401574803
11
0.3061266929133858
21
0.3251385039370079
0
LINE
8
BLACK
6
CONTINUOUS
10
0.3061266929133858
20
0.3251385039370079
11
0.2983351181102362
21
0.3361196850393701
0
LINE
8
BLACK
6
CONTINUOUS
10
0.2983351181102362
20
0.3361196850393701
11
0.2918220472440945
21
0.3479042125984252
0
LINE
8
BLACK
6
CONTINUOUS
10
0.2918220472440945
20
0.3479042125984252
11
0.2866693700787402
21
0.3603438976377953
0
LINE
8
BLACK
6
CONTINUOUS
10
0.2866693700787402
20
0.3603438976377953
11
0.2829418897637795
21
0.3732822440944882
0
LINE
8
BLACK
6
CONTINUOUS
10
0.2829418897637795
20
0.3732822440944882
11
0.2806864960629921
21
0.3865565748031496
0
LINE
8
BLACK
6
CONTINUOUS
10
0.2806864960629921
20
0.3865565748031496
11
0.2799315354330709
21
0.4
0
LINE
8
BLACK
6
CONTINUOUS
10
0.2799315354330709
20
0.4
11
0.2806864960629921
21
0.4134434251968504
0
LINE
8
BLACK
6
CONTINUOUS
10
0.2806864960629921
20
0.4134434251968504
11
0.2829418897637795
21
0.4267177559055118
0
LINE
8
BLACK
6
CONTINUOUS
10
0.2829418897637795
20
0.4267177559055118
11
0.2866693700787402
21
0.4396561023622047
0
LINE
8
BLACK
6
CONTINUOUS
10
0.2866693700787402
20
0.4396561023622047
11
0.2918220472440945
21
0.4520957874015748
0
LINE
8
BLACK
6
CONTINUOUS
10
0.2918220472440945
20
0.4520957874015748
11
0.2983351181102362
21
0.4638803149606299
0
LINE
8
BLACK
6
CONTINUOUS
10
0.2983351181102362
20
0.4638803149606299
11
0.3061266929133858
21
0.4748614960629921
0
LINE
8
BLACK
6
CONTINUOUS
10
0.3061266929133858
20
0.4748614960629921
11
0.315098779527559
21
0.4849012598425197
0
LINE
8
BLACK
6
CONTINUOUS
10
0.315098779527559
20
0.4849012598425197
11
0.3251385433070866
21
0.4938733464566929
0
LINE
8
BLACK
6
CONTINUOUS
10
0.3251385433070866
20
0.4938733464566929
11
0.3361197244094488
21
0.5016649212598425
0
LINE
8
BLACK
6
CONTINUOUS
10
0.3361197244094488
20
0.5016649212598425
11
0.3479042519685039
21
0.5081779921259842
0
LINE
8
BLACK
6
CONTINUOUS
10
0.3479042519685039
20
0.5081779921259842
11
0.360343937007874
21
0.5133306692913385
0
LINE
8
BLACK
6
CONTINUOUS
10
0.360343937007874
20
0.5133306692913385
11
0.3732822834645669
21
0.5170581496062993
0
LINE
8
BLACK
6
CONTINUOUS
10
0.3732822834645669
20
0.5170581496062993
11
0.3865566141732283
21
0.5193135433070866
0
LINE
8
BLACK
6
CONTINUOUS
10
0.3865566141732283
20
0.5193135433070866
11
0.4000000393700787
21
0.5200685039370079
0
LINE
8
BLACK
6
CONTINUOUS
10
0.4000000393700787
20
0.5200685039370079
11
0.4134434645669291
21
0.5193135433070866
0
LINE
8
BLACK
6
CONTINUOUS
10
0.2844583070866142
20
0.3864951181102362
11
0.2868073622047244
21
0.3731728346456693
0
LINE
8
BLACK
6
CONTINUOUS
10
0.2868073622047244
20
0.3731728346456693
11
0.2906872047244095
21
0.3602133858267716
0
LINE
8
BLACK
6
CONTINUOUS
10
0.2906872047244095
20
0.3602133858267716
11
0.2960452755905512
21
0.347791968503937
0
LINE
8
BLACK
6
CONTINUOUS
10
0.2960452755905512
20
0.347791968503937
11
0.3028091732283464
21
0.3360765354330709
0
LINE
8
BLACK
6
CONTINUOUS
10
0.3028091732283464
20
0.3360765354330709
11
0.3108874015748032
21
0.3252255905511811
0
LINE
8
BLACK
6
CONTINUOUS
10
0.3108874015748032
20
0.3252255905511811
11
0.3201707086614173
21
0.3153858661417323
0
LINE
8
BLACK
6
CONTINUOUS
10
0.3201707086614173
20
0.3153858661417323
11
0.3305335826771654
21
0.3066903543307087
0
LINE
8
BLACK
6
CONTINUOUS
10
0.3305335826771654
20
0.3066903543307087
11
0.3418358661417323
21
0.2992567322834646
0
LINE
8
BLACK
6
CONTINUOUS
10
0.3418358661417323
20
0.2992567322834646
11
0.3539247637795275
21
0.2931854724409449
0
LINE
8
BLACK
6
CONTINUOUS
10
0.3539247637795275
20
0.2931854724409449
11
0.3666366929133858
21
0.2885587007874016
0
LINE
8
BLACK
6
CONTINUOUS
10
0.3666366929133858
20
0.2885587007874016
11
0.379799842519685
21
0.2854389763779527
0
LINE
8
BLACK
6
CONTINUOUS
10
0.379799842519685
20
0.2854389763779527
11
0.3932361417322834
21
0.2838685039370079
0
LINE
8
BLACK
6
CONTINUOUS
10
0.3932361417322834
20
0.2838685039370079
11
0.406763937007874
21
0.2838685039370079
0
LINE
8
BLACK
6
CONTINUOUS
10
0.406763937007874
20
0.2838685039370079
11
0.4202002362204724
21
0.2854389763779527
0
LINE
8
BLACK
6
CONTINUOUS
10
0.4202002362204724
20
0.2854389763779527
11
0.4333633858267716
21
0.2885587007874016
0
LINE
8
BLACK
6
CONTINUOUS
10
0.4333633858267716
20
0.2885587007874016
11
0.4460753149606299
21
0.2931854724409449
0
LINE
8
BLACK
6
CONTINUOUS
10
0.4460753149606299
20
0.2931854724409449
11
0.4581642125984252
21
0.2992567322834646
0
LINE
8
BLACK
6
CONTINUOUS
10
0.4581642125984252
20
0.2992567322834646
11
0.4694664960629921
21
0.3066903543307087
0
LINE
8
BLACK
6
CONTINUOUS
10
0.4694664960629921
20
0.3066903543307087
11
0.4798293700787402
21
0.3153858661417323
0
LINE
8
BLACK
6
CONTINUOUS
10
0.4798293700787402
20
0.3153858661417323
11
0.4891126771653543
21
0.3252255905511811
0
LINE
8
BLACK
6
CONTINUOUS
10
0.4891126771653543
20
0.3252255905511811
11
0.497190905511811
21
0.3360765354330709
0
LINE
8
BLACK
6
CONTINUOUS
10
0.497190905511811
20
0.3360765354330709
11
0.5039548031496063
21
0.347791968503937
0
LINE
8
BLACK
6
CONTINUOUS
10
0.5039548031496063
20
0.347791968503937
11
0.509312874015748
21
0.3602133858267716
0
LINE
8
BLACK
6
CONTINUOUS
10
0.509312874015748
20
0.3602133858267716
11
0.5131927165354331
21
0.3731728346456693
0
LINE
8
BLACK
6
CONTINUOUS
10
0.5131927165354331
20
0.3731728346456693
11
0.5155417716535433
21
0.3864951181102362
0
LINE
8
BLACK
6
CONTINUOUS
10
0.5155417716535433
20
0.3864951181102362
11
0.5163283464566929
21
0.4
0
LINE
8
BLACK
6
CONTINUOUS
10
0.5163283464566929
20
0.4
11
0.5155417716535433
21
0.4135048818897638
0
LINE
8
BLACK
6
CONTINUOUS
10
0.5155417716535433
20
0.4135048818897638
11
0.5131927165354331
21
0.4268271653543307
0
LINE
8
BLACK
6
CONTINUOUS
10
0.5131927165354331
20
0.4268271653543307
11
0.509312874015748
21
0.4397866141732283
0
LINE
8
BLACK
6
CONTINUOUS
10
0.509312874015748
20
0.4397866141732283
11
0.5039548031496063
21
0.452208031496063
0
LINE
8
BLACK
6
CONTINUOUS
10
0.5039548031496063
20
0.452208031496063
11
0.497190905511811
21
0.4639234645669291
0
LINE
8
BLACK
6
CONTINUOUS
10
0.497190905511811
20
0.4639234645669291
11
0.4891126771653543
21
0.4747744094488189
0
LINE
8
BLACK
6
CONTINUOUS
10
0.4891126771653543
20
0.4747744094488189
11
0.4798293700787402
21
0.4846141338582677
0
LINE
8
BLACK
6
CONTINUOUS
10
0.4798293700787402
20
0.4846141338582677
11
0.4694664960629921
21
0.4933096456692913
0
LINE
8
BLACK
6
CONTINUOUS
10
0.4694664960629921
20
0.4933096456692913
11
0.4581642125984252
21
0.5007432677165354
0
LINE
8
BLACK
6
CONTINUOUS
10
0.4581642125984252
20
0.5007432677165354
11
0.4460753149606299
21
0.5068145275590551
0
LINE
8
BLACK
6
CONTINUOUS
10
0.4460753149606299
20
0.5068145275590551
11
0.4333633858267716
21
0.5114412992125984
0
LINE
8
BLACK
6
CONTINUOUS
10
0.4333633858267716
20
0.5114412992125984
11
0.4202002362204724
21
0.5145610236220473
0
LINE
8
BLACK
6
CONTINUOUS
10
0.4202002362204724
20
0.5145610236220473
11
0.406763937007874
21
0.5161314960629921
0
LINE
8
BLACK
6
CONTINUOUS
10
0.406763937007874
20
0.5161314960629921
11
0.3932361417322834
21
0.5161314960629921
0
LINE
8
BLACK
6
CONTINUOUS
10
0.3932361417322834
20
0.5161314960629921
11
0.379799842519685
21
0.5145610236220473
0
LINE
8
BLACK
6
CONTINUOUS
10
0.379799842519685
20
0.5145610236220473
11
0.3666366929133858
21
0.5114412992125984
0
LINE
8
BLACK
6
CONTINUOUS
10
0.3666366929133858
20
0.5114412992125984
11
0.3539247637795275
21
0.5068145275590551
0
LINE
8
BLACK
6
CONTINUOUS
10
0.3539247637795275
20
0.5068145275590551
11
0.3418358661417323
21
0.5007432677165354
0
LINE
8
BLACK
6
CONTINUOUS
10
0.3418358661417323
20
0.5007432677165354
11
0.3305335826771654
21
0.4933096456692913
0
LINE
8
BLACK
6
CONTINUOUS
10
0.3305335826771654
20
0.4933096456692913
11
0.3201707086614173
21
0.4846141338582677
0
LINE
8
BLACK
6
CONTINUOUS
10
0.3201707086614173
20
0.4846141338582677
11
0.3108874015748032
21
0.4747744094488189
0
LINE
8
BLACK
6
CONTINUOUS
10
0.3108874015748032
20
0.4747744094488189
11
0.3028091732283464
21
0.4639234645669291
0
LINE
8
BLACK
6
CONTINUOUS
10
0.3028091732283464
20
0.4639234645669291
11
0.2960452755905512
21
0.452208031496063
0
LINE
8
BLACK
6
CONTINUOUS
10
0.2960452755905512
20
0.452208031496063
11
0.2906872047244095
21
0.4397866141732283
0
LINE
8
BLACK
6
CONTINUOUS
10
0.2906872047244095
20
0.4397866141732283
11
0.2868073622047244
21
0.4268271653543307
0
LINE
8
BLACK
6
CONTINUOUS
10
0.2868073622047244
20
0.4268271653543307
11
0.2844583070866142
21
0.4135048818897638
0
LINE
8
BLACK
6
CONTINUOUS
10
0.2844583070866142
20
0.4135048818897638
11
0.2836717322834645
21
0.4
0
LINE
8
BLACK
6
CONTINUOUS
10
0.2836717322834645
20
0.4
11
0.2844583070866142
21
0.3864951181102362
0
LINE
8
BLACK
6
CONTINUOUS
10
1.2134434645669292
20
0.5193135433070866
11
1.2267177952755906
21
0.5170581496062993
0
LINE
8
BLACK
6
CONTINUOUS
10
1.2267177952755906
20
0.5170581496062993
11
1.2396561417322833
21
0.5133306692913385
0
LINE
8
BLACK
6
CONTINUOUS
10
1.2396561417322833
20
0.5133306692913385
11
1.2520958267716535
21
0.5081779921259842
0
LINE
8
BLACK
6
CONTINUOUS
10
1.2520958267716535
20
0.5081779921259842
11
1.2638803543307087
21
0.5016649212598425
0
LINE
8
BLACK
6
CONTINUOUS
10
1.2638803543307087
20
0.5016649212598425
11
1.2748615354330708
21
0.4938733464566929
0
LINE
8
BLACK
6
CONTINUOUS
10
1.2748615354330708
20
0.4938733464566929
11
1.2849012992125983
21
0.4849012598425197
0
LINE
8
BLACK
6
CONTINUOUS
10
1.2849012992125983
20
0.4849012598425197
11
1.2938733858267717
21
0.4748614960629921
0
LINE
8
BLACK
6
CONTINUOUS
10
1.2938733858267717
20
0.4748614960629921
11
1.3016649606299213
21
0.4638803149606299
0
LINE
8
BLACK
6
CONTINUOUS
10
1.3016649606299213
20
0.4638803149606299
11
1.3081780314960629
21
0.4520957874015748
0
LINE
8
BLACK
6
CONTINUOUS
10
1.3081780314960629
20
0.4520957874015748
11
1.3133307086614172
21
0.4396561023622047
0
LINE
8
BLACK
6
CONTINUOUS
10
1.3133307086614172
20
0.4396561023622047
11
1.3170581889763779
21
0.4267177559055118
0
LINE
8
BLACK
6
CONTINUOUS
10
1.3170581889763779
20
0.4267177559055118
11
1.3193135826771654
21
0.4134434251968504
0
LINE
8
BLACK
6
CONTINUOUS
10
1.3193135826771654
20
0.4134434251968504
11
1.3200685433070867
21
0.4
0
LINE
8
BLACK
6
CONTINUOUS
10
1.3200685433070867
20
0.4
11
1.3193135826771654
21
0.3865565748031496
0
LINE
8
BLACK
6
CONTINUOUS
10
1.3193135826771654
20
0.3865565748031496
11
1.3170581889763779
21
0.3732822440944882
0
LINE
8
BLACK
6
CONTINUOUS
10
1.3170581889763779
20
0.3732822440944882
11
1.3133307086614172
21
0.3603438976377953
0
LINE
8
BLACK
6
CONTINUOUS
10
1.3133307086614172
20
0.3603438976377953
11
1.3081780314960629
21
0.3479042125984252
0
LINE
8
BLACK
6
CONTINUOUS
10
1.3081780314960629
20
0.3479042125984252
11
1.3016649606299213
21
0.3361196850393701
0
LINE
8
BLACK
6
CONTINUOUS
10
1.3016649606299213
20
0.3361196850393701
11
1.2938733858267717
21
0.3251385039370079
0
LINE
8
BLACK
6
CONTINUOUS
10
1.2938733858267717
20
0.3251385039370079
11
1.2849012992125983
21
0.3150987401574803
0
LINE
8
BLACK
6
CONTINUOUS
10
1.2849012992125983
20
0.3150987401574803
11
1.2748615354330708
21
0.3061266535433071
0
LINE
8
BLACK
6
CONTINUOUS
10
1.2748615354330708
20
0.3061266535433071
11
1.2638803543307087
21
0.2983350787401575
0
LINE
8
BLACK
6
CONTINUOUS
10
1.2638803543307087
20
0.2983350787401575
11
1.2520958267716535
21
0.2918220078740157
0
LINE
8
BLACK
6
CONTINUOUS
10
1.2520958267716535
20
0.2918220078740157
11
1.2396561417322833
21
0.2866693307086614
0
LINE
8
BLACK
6
CONTINUOUS
10
1.2396561417322833
20
0.2866693307086614
11
1.2267177952755906
21
0.2829418503937008
0
LINE
8
BLACK
6
CONTINUOUS
10
1.2267177952755906
20
0.2829418503937008
11
1.2134434645669292
21
0.2806864566929134
0
LINE
8
BLACK
6
CONTINUOUS
10
1.2134434645669292
20
0.2806864566929134
11
1.2000000393700787
21
0.2799314960629921
0
LINE
8
BLACK
6
CONTINUOUS
10
1.2000000393700787
20
0.2799314960629921
11
1.1865566141732282
21
0.2806864566929134
0
LINE
8
BLACK
6
CONTINUOUS
10
1.1865566141732282
20
0.2806864566929134
11
1.1732822834645669
21
0.2829418503937008
0
LINE
8
BLACK
6
CONTINUOUS
10
1.1732822834645669
20
0.2829418503937008
11
1.1603439370078741
21
0.2866693307086614
0
LINE
8
BLACK
6
CONTINUOUS
10
1.1603439370078741
20
0.2866693307086614
11
1.1479042519685039
21
0.2918220078740157
0
LINE
8
BLACK
6
CONTINUOUS
10
1.1479042519685039
20
0.2918220078740157
11
1.1361197244094488
21
0.2983350787401575
0
LINE
8
BLACK
6
CONTINUOUS
10
1.1361197244094488
20
0.2983350787401575
11
1.1251385433070866
21
0.3061266535433071
0
LINE
8
BLACK
6
CONTINUOUS
10
1.1251385433070866
20
0.3061266535433071
11
1.1150987795275591
21
0.3150987401574803
0
LINE
8
BLACK
6
CONTINUOUS
10
1.1150987795275591
20
0.3150987401574803
11
1.1061266929133857
21
0.3251385039370079
0
LINE
8
BLACK
6
CONTINUOUS
10
1.1061266929133857
20
0.3251385039370079
11
1.0983351181102361
21
0.3361196850393701
0
LINE
8
BLACK
6
CONTINUOUS
10
1.0983351181102361
20
0.3361196850393701
11
1.0918220472440945
21
0.3479042125984252
0
LINE
8
BLACK
6
CONTINUOUS
10
1.0918220472440945
20
0.3479042125984252
11
1.0866693700787402
21
0.3603438976377953
0
LINE
8
BLACK
6
CONTINUOUS
10
1.0866693700787402
20
0.3603438976377953
11
1.0829418897637795
21
0.3732822440944882
0
LINE
8
BLACK
6
CONTINUOUS
10
1.0829418897637795
20
0.3732822440944882
11
1.0806864960629921
21
0.3865565748031496
0
LINE
8
BLACK
6
CONTINUOUS
10
1.0806864960629921
20
0.3865565748031496
11
1.0799315354330707
21
0.4
0
LINE
8
BLACK
6
CONTINUOUS
10
1.0799315354330707
20
0.4
11
1.0806864960629921
21
0.4134434251968504
0
LINE
8
BLACK
6
CONTINUOUS
10
1.0806864960629921
20
0.4134434251968504
11
1.0829418897637795
21
0.4267177559055118
0
LINE
8
BLACK
6
CONTINUOUS
10
1.0829418897637795
20
0.4267177559055118
11
1.0866693700787402
21
0.4396561023622047
0
LINE
8
BLACK
6
CONTINUOUS
10
1.0866693700787402
20
0.4396561023622047
11
1.0918220472440945
21
0.4520957874015748
0
LINE
8
BLACK
6
CONTINUOUS
10
1.0918220472440945
20
0.4520957874015748
11
1.0983351181102361
21
0.4638803149606299
0
LINE
8
BLACK
6
CONTINUOUS
10
1.0983351181102361
20
0.4638803149606299
11
1.1061266929133857
21
0.4748614960629921
0
LINE
8
BLACK
6
CONTINUOUS
10
1.1061266929133857
20
0.4748614960629921
11
1.1150987795275591
21
0.4849012598425197
0
LINE
8
BLACK
6
CONTINUOUS
10
1.1150987795275591
20
0.4849012598425197
11
1.1251385433070866
21
0.4938733464566929
0
LINE
8
BLACK
6
CONTINUOUS
10
1.1251385433070866
20
0.4938733464566929
11
1.1361197244094488
21
0.5016649212598425
0
LINE
8
BLACK
6
CONTINUOUS
10
1.1361197244094488
20
0.5016649212598425
11
1.1479042519685039
21
0.5081779921259842
0
LINE
8
BLACK
6
CONTINUOUS
10
1.1479042519685039
20
0.5081779921259842
11
1.1603439370078741
21
0.5133306692913385
0
LINE
8
BLACK
6
CONTINUOUS
10
1.1603439370078741
20
0.5133306692913385
11
1.1732822834645669
21
0.5170581496062993
0
LINE
8
BLACK
6
CONTINUOUS
10
1.1732822834645669
20
0.5170581496062993
11
1.1865566141732282
21
0.5193135433070866
0
LINE
8
BLACK
6
CONTINUOUS
10
1.1865566141732282
20
0.5193135433070866
11
1.2000000393700787
21
0.5200685039370079
0
LINE
8
BLACK
6
CONTINUOUS
10
1.2000000393700787
20
0.5200685039370079
11
1.2134434645669292
21
0.5193135433070866
0
LINE
8
BLACK
6
CONTINUOUS
10
1.0844583070866141
20
0.3864951181102362
11
1.0868073622047243
21
0.3731728346456693
0
LINE
8
BLACK
6
CONTINUOUS
10
1.0868073622047243
20
0.3731728346456693
11
1.0906872047244094
21
0.3602133858267716
0
LINE
8
BLACK
6
CONTINUOUS
10
1.0906872047244094
20
0.3602133858267716
11
1.0960452755905512
21
0.347791968503937
0
LINE
8
BLACK
6
CONTINUOUS
10
1.0960452755905512
20
0.347791968503937
11
1.1028091732283465
21
0.3360765354330709
0
LINE
8
BLACK
6
CONTINUOUS
10
1.1028091732283465
20
0.3360765354330709
11
1.1108874015748031
21
0.3252255905511811
0
LINE
8
BLACK
6
CONTINUOUS
10
1.1108874015748031
20
0.3252255905511811
11
1.1201707086614172
21
0.3153858661417323
0
LINE
8
BLACK
6
CONTINUOUS
10
1.1201707086614172
20
0.3153858661417323
11
1.1305335826771654
21
0.3066903543307087
0
LINE
8
BLACK
6
CONTINUOUS
10
1.1305335826771654
20
0.3066903543307087
11
1.1418358661417323
21
0.2992567322834646
0
LINE
8
BLACK
6
CONTINUOUS
10
1.1418358661417323
20
0.2992567322834646
11
1.1539247637795276
21
0.2931854724409449
0
LINE
8
BLACK
6
CONTINUOUS
10
1.1539247637795276
20
0.2931854724409449
11
1.1666366929133858
21
0.2885587007874016
0
LINE
8
BLACK
6
CONTINUOUS
10
1.1666366929133858
20
0.2885587007874016
11
1.1797998425196849
21
0.2854389763779527
0
LINE
8
BLACK
6
CONTINUOUS
10
1.1797998425196849
20
0.2854389763779527
11
1.1932361417322834
21
0.2838685039370079
0
LINE
8
BLACK
6
CONTINUOUS
10
1.1932361417322834
20
0.2838685039370079
11
1.206763937007874
21
0.2838685039370079
0
LINE
8
BLACK
6
CONTINUOUS
10
1.206763937007874
20
0.2838685039370079
11
1.2202002362204725
21
0.2854389763779527
0
LINE
8
BLACK
6
CONTINUOUS
10
1.2202002362204725
20
0.2854389763779527
11
1.2333633858267716
21
0.2885587007874016
0
LINE
8
BLACK
6
CONTINUOUS
10
1.2333633858267716
20
0.2885587007874016
11
1.2460753149606298
21
0.2931854724409449
0
LINE
8
BLACK
6
CONTINUOUS
10
1.2460753149606298
20
0.2931854724409449
11
1.2581642125984251
21
0.2992567322834646
0
LINE
8
BLACK
6
CONTINUOUS
10
1.2581642125984251
20
0.2992567322834646
11
1.269466496062992
21
0.3066903543307087
0
LINE
8
BLACK
6
CONTINUOUS
10
1.269466496062992
20
0.3066903543307087
11
1.2798293700787402
21
0.3153858661417323
0
LINE
8
BLACK
6
CONTINUOUS
10
1.2798293700787402
20
0.3153858661417323
11
1.2891126771653543
21
0.3252255905511811
0
LINE
8
BLACK
6
CONTINUOUS
10
1.2891126771653543
20
0.3252255905511811
11
1.2971909055118109
21
0.3360765354330709
0
LINE
8
BLACK
6
CONTINUOUS
10
1.2971909055118109
20
0.3360765354330709
11
1.3039548031496062
21
0.347791968503937
0
LINE
8
BLACK
6
CONTINUOUS
10
1.3039548031496062
20
0.347791968503937
11
1.309312874015748
21
0.3602133858267716
0
LINE
8
BLACK
6
CONTINUOUS
10
1.309312874015748
20
0.3602133858267716
11
1.3131927165354331
21
0.3731728346456693
0
LINE
8
BLACK
6
CONTINUOUS
10
1.3131927165354331
20
0.3731728346456693
11
1.3155417716535434
21
0.3864951181102362
0
LINE
8
BLACK
6
CONTINUOUS
10
1.3155417716535434
20
0.3864951181102362
11
1.3163283464566928
21
0.4
0
LINE
8
BLACK
6
CONTINUOUS
10
1.3163283464566928
20
0.4
11
1.3155417716535434
21
0.4135048818897638
0
LINE
8
BLACK
6
CONTINUOUS
10
1.3155417716535434
20
0.4135048818897638
11
1.3131927165354331
21
0.4268271653543307
0
LINE
8
BLACK
6
CONTINUOUS
10
1.3131927165354331
20
0.4268271653543307
11
1.309312874015748
21
0.4397866141732283
0
LINE
8
BLACK
6
CONTINUOUS
10
1.309312874015748
20
0.4397866141732283
11
1.3039548031496062
21
0.452208031496063
0
LINE
8
BLACK
6
CONTINUOUS
10
1.3039548031496062
20
0.452208031496063
11
1.2971909055118109
21
0.4639234645669291
0
LINE
8
BLACK
6
CONTINUOUS
10
1.2971909055118109
20
0.4639234645669291
11
1.2891126771653543
21
0.4747744094488189
0
LINE
8
BLACK
6
CONTINUOUS
10
1.2891126771653543
20
0.4747744094488189
11
1.2798293700787402
21
0.4846141338582677
0
LINE
8
BLACK
6
CONTINUOUS
10
1.2798293700787402
20
0.4846141338582677
11
1.269466496062992
21
0.4933096456692913
0
LINE
8
BLACK
6
CONTINUOUS
10
1.269466496062992
20
0.4933096456692913
11
1.2581642125984251
21
0.5007432677165354
0
LINE
8
BLACK
6
CONTINUOUS
10
1.2581642125984251
20
0.5007432677165354
11
1.2460753149606298
21
0.5068145275590551
0
LINE
8
BLACK
6
CONTINUOUS
10
1.2460753149606298
20
0.5068145275590551
11
1.2333633858267716
21
0.5114412992125984
0
LINE
8
BLACK
6
CONTINUOUS
10
1.2333633858267716
20
0.5114412992125984
11
1.2202002362204725
21
0.5145610236220473
0
LINE
8
BLACK
6
CONTINUOUS
10
1.2202002362204725
20
0.5145610236220473
11
1.206763937007874
21
0.5161314960629921
0
LINE
8
BLACK
6
CONTINUOUS
10
1.206763937007874
20
0.5161314960629921
11
1.1932361417322834
21
0.5161314960629921
0
LINE
8
BLACK
6
CONTINUOUS
10
1.1932361417322834
20
0.5161314960629921
11
1.1797998425196849
21
0.5145610236220473
0
LINE
8
BLACK
6
CONTINUOUS
10
1.1797998425196849
20
0.5145610236220473
11
1.1666366929133858
21
0.5114412992125984
0
LINE
8
BLACK
6
CONTINUOUS
10
1.1666366929133858
20
0.5114412992125984
11
1.1539247637795276
21
0.5068145275590551
0
LINE
8
BLACK
6
CONTINUOUS
10
1.1539247637795276
20
0.5068145275590551
11
1.1418358661417323
21
0.5007432677165354
0
LINE
8
BLACK
6
CONTINUOUS
10
1.1418358661417323
20
0.5007432677165354
11
1.1305335826771654
21
0.4933096456692913
0
LINE
8
BLACK
6
CONTINUOUS
10
1.1305335826771654
20
0.4933096456692913
11
1.1201707086614172
21
0.4846141338582677
0
LINE
8
BLACK
6
CONTINUOUS
10
1.1201707086614172
20
0.4846141338582677
11
1.1108874015748031
21
0.4747744094488189
0
LINE
8
BLACK
6
CONTINUOUS
10
1.1108874015748031
20
0.4747744094488189
11
1.1028091732283465
21
0.4639234645669291
0
LINE
8
BLACK
6
CONTINUOUS
10
1.1028091732283465
20
0.4639234645669291
11
1.0960452755905512
21
0.452208031496063
0
LINE
8
BLACK
6
CONTINUOUS
10
1.0960452755905512
20
0.452208031496063
11
1.0906872047244094
21
0.4397866141732283
0
LINE
8
BLACK
6
CONTINUOUS
10
1.0906872047244094
20
0.4397866141732283
11
1.0868073622047243
21
0.4268271653543307
0
LINE
8
BLACK
6
CONTINUOUS
10
1.0868073622047243
20
0.4268271653543307
11
1.0844583070866141
21
0.4135048818897638
0
LINE
8
BLACK
6
CONTINUOUS
10
1.0844583070866141
20
0.4135048818897638
11
1.0836717322834646
21
0.4
0
LINE
8
BLACK
6
CONTINUOUS
10
1.0836717322834646
20
0.4
11
1.0844583070866141
21
0.3864951181102362
0
LINE
8
BLACK
6
CONTINUOUS
10
0.8058824015748032
20
0.3643172440944882
11
0.8074296456692913
21
0.363018937007874
0
LINE
8
BLACK
6
CONTINUOUS
10
0.8074296456692913
20
0.363018937007874
11
0.8077803937007874
21
0.3610298031496063
0
LINE
8
BLACK
6
CONTINUOUS
10
0.8077803937007874
20
0.3610298031496063
11
0.8067704724409449
21
0.3592806299212598
0
LINE
8
BLACK
6
CONTINUOUS
10
0.8067704724409449
20
0.3592806299212598
11
0.8048724803149606
21
0.3585898031496063
0
LINE
8
BLACK
6
CONTINUOUS
10
0.8048724803149606
20
0.3585898031496063
11
0.7890775984251969
21
0.3585898031496063
0
LINE
8
BLACK
6
CONTINUOUS
10
0.7890775984251969
20
0.3585898031496063
11
0.7890775984251969
21
0.3457476771653543
0
LINE
8
BLACK
6
CONTINUOUS
10
0.7890775984251969
20
0.3457476771653543
11
0.7992481889763779
21
0.3457476771653543
0
LINE
8
BLACK
6
CONTINUOUS
10
0.7992481889763779
20
0.3457476771653543
11
0.8002581102362204
21
0.3455696062992126
0
LINE
8
BLACK
6
CONTINUOUS
10
0.8002581102362204
20
0.3455696062992126
11
0.8018053543307087
21
0.3442712992125984
0
LINE
8
BLACK
6
CONTINUOUS
10
0.8018053543307087
20
0.3442712992125984
11
0.8021561023622047
21
0.3422821653543307
0
LINE
8
BLACK
6
CONTINUOUS
10
0.8021561023622047
20
0.3422821653543307
11
0.8011461811023621
21
0.3405329921259843
0
LINE
8
BLACK
6
CONTINUOUS
10
0.8011461811023621
20
0.3405329921259843
11
0.7992481889763779
21
0.3398421653543307
0
LINE
8
BLACK
6
CONTINUOUS
10
0.7992481889763779
20
0.3398421653543307
11
0.7890775984251969
21
0.3398421653543307
0
LINE
8
BLACK
6
CONTINUOUS
10
0.7890775984251969
20
0.3398421653543307
11
0.7890775984251969
21
0.3251252362204725
0
LINE
8
BLACK
6
CONTINUOUS
10
0.7890775984251969
20
0.3251252362204725
11
0.8048724803149606
21
0.3251252362204725
0
LINE
8
BLACK
6
CONTINUOUS
10
0.8048724803149606
20
0.3251252362204725
11
0.8058824015748032
21
0.3249471653543307
0
LINE
8
BLACK
6
CONTINUOUS
10
0.8058824015748032
20
0.3249471653543307
11
0.8074296456692913
21
0.3236488582677166
0
LINE
8
BLACK
6
CONTINUOUS
10
0.8074296456692913
20
0.3236488582677166
11
0.8077803937007874
21
0.3216597244094488
0
LINE
8
BLACK
6
CONTINUOUS
10
0.8077803937007874
20
0.3216597244094488
11
0.8067704724409449
21
0.3199105511811023
0
LINE
8
BLACK
6
CONTINUOUS
10
0.8067704724409449
20
0.3199105511811023
11
0.8048724803149606
21
0.3192197244094488
0
LINE
8
BLACK
6
CONTINUOUS
10
0.8048724803149606
20
0.3192197244094488
11
0.7861248425196851
21
0.3192197244094488
0
LINE
8
BLACK
6
CONTINUOUS
10
0.7861248425196851
20
0.3192197244094488
11
0.7857412992125984
21
0.3192873622047244
0
LINE
8
BLACK
6
CONTINUOUS
10
0.7857412992125984
20
0.3192873622047244
11
0.7856120866141733
21
0.3192645669291339
0
LINE
8
BLACK
6
CONTINUOUS
10
0.7856120866141733
20
0.3192645669291339
11
0.7854984645669291
21
0.3193301968503937
0
LINE
8
BLACK
6
CONTINUOUS
10
0.7854984645669291
20
0.3193301968503937
11
0.7851149212598425
21
0.3193977952755905
0
LINE
8
BLACK
6
CONTINUOUS
10
0.7851149212598425
20
0.3193977952755905
11
0.7845272047244094
21
0.3198909448818897
0
LINE
8
BLACK
6
CONTINUOUS
10
0.7845272047244094
20
0.3198909448818897
11
0.7838629133858267
21
0.3202744881889764
0
LINE
8
BLACK
6
CONTINUOUS
10
0.7838629133858267
20
0.3202744881889764
11
0.7837717716535433
21
0.320524842519685
0
LINE
8
BLACK
6
CONTINUOUS
10
0.7837717716535433
20
0.320524842519685
11
0.7835676771653544
21
0.3206961023622047
0
LINE
8
BLACK
6
CONTINUOUS
10
0.7835676771653544
20
0.3206961023622047
11
0.7834344094488189
21
0.3214516929133858
0
LINE
8
BLACK
6
CONTINUOUS
10
0.7834344094488189
20
0.3214516929133858
11
0.7831720866141733
21
0.3221724803149606
0
LINE
8
BLACK
6
CONTINUOUS
10
0.7831720866141733
20
0.3221724803149606
11
0.7831720866141733
21
0.3615425590551181
0
LINE
8
BLACK
6
CONTINUOUS
10
0.7831720866141733
20
0.3615425590551181
11
0.78323968503937
21
0.3619261023622047
0
LINE
8
BLACK
6
CONTINUOUS
10
0.78323968503937
20
0.3619261023622047
11
0.7832169291338582
21
0.3620553149606299
0
LINE
8
BLACK
6
CONTINUOUS
10
0.7832169291338582
20
0.3620553149606299
11
0.7832825196850394
21
0.362168937007874
0
LINE
8
BLACK
6
CONTINUOUS
10
0.7832825196850394
20
0.362168937007874
11
0.7833501574803149
21
0.3625524803149606
0
LINE
8
BLACK
6
CONTINUOUS
10
0.7833501574803149
20
0.3625524803149606
11
0.7838432677165355
21
0.3631401968503937
0
LINE
8
BLACK
6
CONTINUOUS
10
0.7838432677165355
20
0.3631401968503937
11
0.7842268503937008
21
0.3638044881889764
0
LINE
8
BLACK
6
CONTINUOUS
10
0.7842268503937008
20
0.3638044881889764
11
0.7844771653543307
21
0.3638956299212598
0
LINE
8
BLACK
6
CONTINUOUS
10
0.7844771653543307
20
0.3638956299212598
11
0.7846484645669292
21
0.3640997244094488
0
LINE
8
BLACK
6
CONTINUOUS
10
0.7846484645669292
20
0.3640997244094488
11
0.7854040157480314
21
0.3642329921259843
0
LINE
8
BLACK
6
CONTINUOUS
10
0.7854040157480314
20
0.3642329921259843
11
0.7861248425196851
21
0.3644953149606299
0
LINE
8
BLACK
6
CONTINUOUS
10
0.7861248425196851
20
0.3644953149606299
11
0.8048724803149606
21
0.3644953149606299
0
LINE
8
BLACK
6
CONTINUOUS
10
0.8048724803149606
20
0.3644953149606299
11
0.8058824015748032
21
0.3643172440944882
0
LINE
8
BLACK
6
CONTINUOUS
10
0.8240073228346456
20
0.3634405511811024
11
0.8246981496062992
21
0.3615425590551181
0
LINE
8
BLACK
6
CONTINUOUS
10
0.8246981496062992
20
0.3615425590551181
11
0.8246981496062992
21
0.3251252362204725
0
LINE
8
BLACK
6
CONTINUOUS
10
0.8246981496062992
20
0.3251252362204725
11
0.840493031496063
21
0.3251252362204725
0
LINE
8
BLACK
6
CONTINUOUS
10
0.840493031496063
20
0.3251252362204725
11
0.8415029527559055
21
0.3249471653543307
0
LINE
8
BLACK
6
CONTINUOUS
10
0.8415029527559055
20
0.3249471653543307
11
0.8430501968503937
21
0.3236488582677166
0
LINE
8
BLACK
6
CONTINUOUS
10
0.8430501968503937
20
0.3236488582677166
11
0.8434009448818898
21
0.3216597244094488
0
LINE
8
BLACK
6
CONTINUOUS
10
0.8434009448818898
20
0.3216597244094488
11
0.8423910236220472
21
0.3199105511811023
0
LINE
8
BLACK
6
CONTINUOUS
10
0.8423910236220472
20
0.3199105511811023
11
0.840493031496063
21
0.3192197244094488
0
LINE
8
BLACK
6
CONTINUOUS
10
0.840493031496063
20
0.3192197244094488
11
0.8217453937007874
21
0.3192197244094488
0
LINE
8
BLACK
6
CONTINUOUS
10
0.8217453937007874
20
0.3192197244094488
11
0.8213618503937008
21
0.3192873622047244
0
LINE
8
BLACK
6
CONTINUOUS
10
0.8213618503937008
20
0.3192873622047244
11
0.8212326377952756
21
0.3192645669291339
0
LINE
8
BLACK
6
CONTINUOUS
10
0.8212326377952756
20
0.3192645669291339
11
0.8211190157480315
21
0.3193301968503937
0
LINE
8
BLACK
6
CONTINUOUS
10
0.8211190157480315
20
0.3193301968503937
11
0.8207354724409449
21
0.3193977952755905
0
LINE
8
BLACK
6
CONTINUOUS
10
0.8207354724409449
20
0.3193977952755905
11
0.8201477559055118
21
0.3198909448818897
0
LINE
8
BLACK
6
CONTINUOUS
10
0.8201477559055118
20
0.3198909448818897
11
0.8194834645669291
21
0.3202744881889764
0
LINE
8
BLACK
6
CONTINUOUS
10
0.8194834645669291
20
0.3202744881889764
11
0.8193923228346457
21
0.320524842519685
0
LINE
8
BLACK
6
CONTINUOUS
10
0.8193923228346457
20
0.320524842519685
11
0.8191882283464567
21
0.3206961023622047
0
LINE
8
BLACK
6
CONTINUOUS
10
0.8191882283464567
20
0.3206961023622047
11
0.8190549606299212
21
0.3214516929133858
0
LINE
8
BLACK
6
CONTINUOUS
10
0.8190549606299212
20
0.3214516929133858
11
0.8187926377952756
21
0.3221724803149606
0
LINE
8
BLACK
6
CONTINUOUS
10
0.8187926377952756
20
0.3221724803149606
11
0.8187926377952756
21
0.3615425590551181
0
LINE
8
BLACK
6
CONTINUOUS
10
0.8187926377952756
20
0.3615425590551181
11
0.8189707086614173
21
0.3625524803149606
0
LINE
8
BLACK
6
CONTINUOUS
10
0.8189707086614173
20
0.3625524803149606
11
0.8202690157480315
21
0.3640997244094488
0
LINE
8
BLACK
6
CONTINUOUS
10
0.8202690157480315
20
0.3640997244094488
11
0.8222581496062992
21
0.3644504724409449
0
LINE
8
BLACK
6
CONTINUOUS
10
0.8222581496062992
20
0.3644504724409449
11
0.8240073228346456
21
0.3634405511811024
0
LINE
8
BLACK
6
CONTINUOUS
10
0.8733739763779528
20
0.3643172440944882
11
0.8749212204724409
21
0.363018937007874
0
LINE
8
BLACK
6
CONTINUOUS
10
0.8749212204724409
20
0.363018937007874
11
0.875271968503937
21
0.3610298031496063
0
LINE
8
BLACK
6
CONTINUOUS
10
0.875271968503937
20
0.3610298031496063
11
0.8742620472440945
21
0.3592806299212598
0
LINE
8
BLACK
6
CONTINUOUS
10
0.8742620472440945
20
0.3592806299212598
11
0.8723640551181102
21
0.3585898031496063
0
LINE
8
BLACK
6
CONTINUOUS
10
0.8723640551181102
20
0.3585898031496063
11
0.8565691732283465
21
0.3585898031496063
0
LINE
8
BLACK
6
CONTINUOUS
10
0.8565691732283465
20
0.3585898031496063
11
0.8565691732283465
21
0.3457476771653543
0
LINE
8
BLACK
6
CONTINUOUS
10
0.8565691732283465
20
0.3457476771653543
11
0.8667397637795276
21
0.3457476771653543
0
LINE
8
BLACK
6
CONTINUOUS
10
0.8667397637795276
20
0.3457476771653543
11
0.8677496850393701
21
0.3455696062992126
0
LINE
8
BLACK
6
CONTINUOUS
10
0.8677496850393701
20
0.3455696062992126
11
0.8692969291338583
21
0.3442712992125984
0
LINE
8
BLACK
6
CONTINUOUS
10
0.8692969291338583
20
0.3442712992125984
11
0.8696476771653543
21
0.3422821653543307
0
LINE
8
BLACK
6
CONTINUOUS
10
0.8696476771653543
20
0.3422821653543307
11
0.8686377559055118
21
0.3405329921259843
0
LINE
8
BLACK
6
CONTINUOUS
10
0.8686377559055118
20
0.3405329921259843
11
0.8667397637795276
21
0.3398421653543307
0
LINE
8
BLACK
6
CONTINUOUS
10
0.8667397637795276
20
0.3398421653543307
11
0.8565691732283465
21
0.3398421653543307
0
LINE
8
BLACK
6
CONTINUOUS
10
0.8565691732283465
20
0.3398421653543307
11
0.8565691732283465
21
0.3251252362204725
0
LINE
8
BLACK
6
CONTINUOUS
10
0.8565691732283465
20
0.3251252362204725
11
0.8723640551181102
21
0.3251252362204725
0
LINE
8
BLACK
6
CONTINUOUS
10
0.8723640551181102
20
0.3251252362204725
11
0.8733739763779528
21
0.3249471653543307
0
LINE
8
BLACK
6
CONTINUOUS
10
0.8733739763779528
20
0.3249471653543307
11
0.8749212204724409
21
0.3236488582677166
0
LINE
8
BLACK
6
CONTINUOUS
10
0.8749212204724409
20
0.3236488582677166
11
0.875271968503937
21
0.3216597244094488
0
LINE
8
BLACK
6
CONTINUOUS
10
0.875271968503937
20
0.3216597244094488
11
0.8742620472440945
21
0.3199105511811023
0
LINE
8
BLACK
6
CONTINUOUS
10
0.8742620472440945
20
0.3199105511811023
11
0.8723640551181102
21
0.3192197244094488
0
LINE
8
BLACK
6
CONTINUOUS
10
0.8723640551181102
20
0.3192197244094488
11
0.8536164173228347
21
0.3192197244094488
0
LINE
8
BLACK
6
CONTINUOUS
10
0.8536164173228347
20
0.3192197244094488
11
0.853232874015748
21
0.3192873622047244
0
LINE
8
BLACK
6
CONTINUOUS
10
0.853232874015748
20
0.3192873622047244
11
0.8531036614173229
21
0.3192645669291339
0
LINE
8
BLACK
6
CONTINUOUS
10
0.8531036614173229
20
0.3192645669291339
11
0.8529900393700787
21
0.3193301968503937
0
LINE
8
BLACK
6
CONTINUOUS
10
0.8529900393700787
20
0.3193301968503937
11
0.8526064960629921
21
0.3193977952755905
0
LINE
8
BLACK
6
CONTINUOUS
10
0.8526064960629921
20
0.3193977952755905
11
0.852018779527559
21
0.3198909448818897
0
LINE
8
BLACK
6
CONTINUOUS
10
0.852018779527559
20
0.3198909448818897
11
0.8513544881889764
21
0.3202744881889764
0
LINE
8
BLACK
6
CONTINUOUS
10
0.8513544881889764
20
0.3202744881889764
11
0.8512633464566929
21
0.320524842519685
0
LINE
8
BLACK
6
CONTINUOUS
10
0.8512633464566929
20
0.320524842519685
11
0.851059251968504
21
0.3206961023622047
0
LINE
8
BLACK
6
CONTINUOUS
10
0.851059251968504
20
0.3206961023622047
11
0.8509259842519685
21
0.3214516929133858
0
LINE
8
BLACK
6
CONTINUOUS
10
0.8509259842519685
20
0.3214516929133858
11
0.8506636614173229
21
0.3221724803149606
0
LINE
8
BLACK
6
CONTINUOUS
10
0.8506636614173229
20
0.3221724803149606
11
0.8506636614173229
21
0.3615425590551181
0
LINE
8
BLACK
6
CONTINUOUS
10
0.8506636614173229
20
0.3615425590551181
11
0.8507312598425196
21
0.3619261023622047
0
LINE
8
BLACK
6
CONTINUOUS
10
0.8507312598425196
20
0.3619261023622047
11
0.8507085039370078
21
0.3620553149606299
0
LINE
8
BLACK
6
CONTINUOUS
10
0.8507085039370078
20
0.3620553149606299
11
0.850774094488189
21
0.362168937007874
0
LINE
8
BLACK
6
CONTINUOUS
10
0.850774094488189
20
0.362168937007874
11
0.8508417322834646
21
0.3625524803149606
0
LINE
8
BLACK
6
CONTINUOUS
10
0.8508417322834646
20
0.3625524803149606
11
0.8513348425196851
21
0.3631401968503937
0
LINE
8
BLACK
6
CONTINUOUS
10
0.8513348425196851
20
0.3631401968503937
11
0.8517184251968504
21
0.3638044881889764
0
LINE
8
BLACK
6
CONTINUOUS
10
0.8517184251968504
20
0.3638044881889764
11
0.8519687401574803
21
0.3638956299212598
0
LINE
8
BLACK
6
CONTINUOUS
10
0.8519687401574803
20
0.3638956299212598
11
0.8521400393700788
21
0.3640997244094488
0
LINE
8
BLACK
6
CONTINUOUS
10
0.8521400393700788
20
0.3640997244094488
11
0.8528955905511811
21
0.3642329921259843
0
LINE
8
BLACK
6
CONTINUOUS
10
0.8528955905511811
20
0.3642329921259843
11
0.8536164173228347
21
0.3644953149606299
0
LINE
8
BLACK
6
CONTINUOUS
10
0.8536164173228347
20
0.3644953149606299
11
0.8723640551181102
21
0.3644953149606299
0
LINE
8
BLACK
6
CONTINUOUS
10
0.8723640551181102
20
0.3644953149606299
11
0.8733739763779528
21
0.3643172440944882
0
LINE
8
BLACK
6
CONTINUOUS
10
0.7627627952755905
20
0.3643172440944882
11
0.7628980314960629
21
0.3642037795275591
0
LINE
8
BLACK
6
CONTINUOUS
10
0.7628980314960629
20
0.3642037795275591
11
0.7630733858267716
21
0.3641835826771653
0
LINE
8
BLACK
6
CONTINUOUS
10
0.7630733858267716
20
0.3641835826771653
11
0.7668229133858268
21
0.3623088188976378
0
LINE
8
BLACK
6
CONTINUOUS
10
0.7668229133858268
20
0.3623088188976378
11
0.767531968503937
21
0.3617829133858267
0
LINE
8
BLACK
6
CONTINUOUS
10
0.767531968503937
20
0.3617829133858267
11
0.7675903149606299
21
0.3617557086614173
0
LINE
8
BLACK
6
CONTINUOUS
10
0.7675903149606299
20
0.3617557086614173
11
0.7694650787401575
21
0.3598809448818898
0
LINE
8
BLACK
6
CONTINUOUS
10
0.7694650787401575
20
0.3598809448818898
11
0.7699713385826772
21
0.359157874015748
0
LINE
8
BLACK
6
CONTINUOUS
10
0.7699713385826772
20
0.359157874015748
11
0.770018188976378
21
0.3591135433070866
0
LINE
8
BLACK
6
CONTINUOUS
10
0.770018188976378
20
0.3591135433070866
11
0.7718929527559055
21
0.3553640157480315
0
LINE
8
BLACK
6
CONTINUOUS
10
0.7718929527559055
20
0.3553640157480315
11
0.7721853149606299
21
0.3543811023622047
0
LINE
8
BLACK
6
CONTINUOUS
10
0.7721853149606299
20
0.3543811023622047
11
0.7721442913385826
21
0.3542094094488189
0
LINE
8
BLACK
6
CONTINUOUS
10
0.7721442913385826
20
0.3542094094488189
11
0.77220468503937
21
0.3540435039370078
0
LINE
8
BLACK
6
CONTINUOUS
10
0.77220468503937
20
0.3540435039370078
11
0.77220468503937
21
0.3484192125984252
0
LINE
8
BLACK
6
CONTINUOUS
10
0.77220468503937
20
0.3484192125984252
11
0.7720266141732284
21
0.3474092913385827
0
LINE
8
BLACK
6
CONTINUOUS
10
0.7720266141732284
20
0.3474092913385827
11
0.7719131102362204
21
0.3472740551181102
0
LINE
8
BLACK
6
CONTINUOUS
10
0.7719131102362204
20
0.3472740551181102
11
0.7718929527559055
21
0.3470987007874016
0
LINE
8
BLACK
6
CONTINUOUS
10
0.7718929527559055
20
0.3470987007874016
11
0.770018188976378
21
0.3433491732283465
0
LINE
8
BLACK
6
CONTINUOUS
10
0.770018188976378
20
0.3433491732283465
11
0.7694922834645669
21
0.3426401181102362
0
LINE
8
BLACK
6
CONTINUOUS
10
0.7694922834645669
20
0.3426401181102362
11
0.7694650787401575
21
0.3425817716535433
0
LINE
8
BLACK
6
CONTINUOUS
10
0.7694650787401575
20
0.3425817716535433
11
0.7675903149606299
21
0.3407070078740158
0
LINE
8
BLACK
6
CONTINUOUS
10
0.7675903149606299
20
0.3407070078740158
11
0.7668672047244094
21
0.3402007480314961
0
LINE
8
BLACK
6
CONTINUOUS
10
0.7668672047244094
20
0.3402007480314961
11
0.7668229133858268
21
0.3401538976377952
0
LINE
8
BLACK
6
CONTINUOUS
10
0.7668229133858268
20
0.3401538976377952
11
0.7630733858267716
21
0.3382791338582677
0
LINE
8
BLACK
6
CONTINUOUS
10
0.7630733858267716
20
0.3382791338582677
11
0.7620904330708661
21
0.3379867716535433
0
LINE
8
BLACK
6
CONTINUOUS
10
0.7620904330708661
20
0.3379867716535433
11
0.7619187401574803
21
0.3380277952755906
0
LINE
8
BLACK
6
CONTINUOUS
10
0.7619187401574803
20
0.3380277952755906
11
0.7617902362204724
21
0.3379810236220472
0
LINE
8
BLACK
6
CONTINUOUS
10
0.7617902362204724
20
0.3379810236220472
11
0.7716709448818897
21
0.323865748031496
0
LINE
8
BLACK
6
CONTINUOUS
10
0.7716709448818897
20
0.323865748031496
11
0.7721042125984252
21
0.3229362992125984
0
LINE
8
BLACK
6
CONTINUOUS
10
0.7721042125984252
20
0.3229362992125984
11
0.771927874015748
21
0.3209242125984252
0
LINE
8
BLACK
6
CONTINUOUS
10
0.771927874015748
20
0.3209242125984252
11
0.7704994488188976
21
0.3194961811023622
0
LINE
8
BLACK
6
CONTINUOUS
10
0.7704994488188976
20
0.3194961811023622
11
0.7684873228346456
21
0.3193204330708662
0
LINE
8
BLACK
6
CONTINUOUS
10
0.7684873228346456
20
0.3193204330708662
11
0.7668329527559055
21
0.3204791732283465
0
LINE
8
BLACK
6
CONTINUOUS
10
0.7668329527559055
20
0.3204791732283465
11
0.754591220472441
21
0.3379674015748032
0
LINE
8
BLACK
6
CONTINUOUS
10
0.754591220472441
20
0.3379674015748032
11
0.7497075196850393
21
0.3379674015748032
0
LINE
8
BLACK
6
CONTINUOUS
10
0.7497075196850393
20
0.3379674015748032
11
0.7497075196850393
21
0.3221724803149606
0
LINE
8
BLACK
6
CONTINUOUS
10
0.7497075196850393
20
0.3221724803149606
11
0.7495294488188976
21
0.3211625590551181
0
LINE
8
BLACK
6
CONTINUOUS
10
0.7495294488188976
20
0.3211625590551181
11
0.7482311417322834
21
0.3196153149606299
0
LINE
8
BLACK
6
CONTINUOUS
10
0.7482311417322834
20
0.3196153149606299
11
0.7462420078740157
21
0.3192645669291339
0
LINE
8
BLACK
6
CONTINUOUS
10
0.7462420078740157
20
0.3192645669291339
11
0.7444928346456693
21
0.3202744881889764
0
LINE
8
BLACK
6
CONTINUOUS
10
0.7444928346456693
20
0.3202744881889764
11
0.7438020078740157
21
0.3221724803149606
0
LINE
8
BLACK
6
CONTINUOUS
10
0.7438020078740157
20
0.3221724803149606
11
0.7438020078740157
21
0.3615425590551181
0
LINE
8
BLACK
6
CONTINUOUS
10
0.7438020078740157
20
0.3615425590551181
11
0.7438696062992126
21
0.3619261023622047
0
LINE
8
BLACK
6
CONTINUOUS
10
0.7438696062992126
20
0.3619261023622047
11
0.7438468503937008
21
0.3620553149606299
0
LINE
8
BLACK
6
CONTINUOUS
10
0.7438468503937008
20
0.3620553149606299
11
0.7439124409448818
21
0.362168937007874
0
LINE
8
BLACK
6
CONTINUOUS
10
0.7439124409448818
20
0.362168937007874
11
0.7439800787401575
21
0.3625524803149606
0
LINE
8
BLACK
6
CONTINUOUS
10
0.7439800787401575
20
0.3625524803149606
11
0.7444731889763779
21
0.3631401968503937
0
LINE
8
BLACK
6
CONTINUOUS
10
0.7444731889763779
20
0.3631401968503937
11
0.7448567716535432
21
0.3638044881889764
0
LINE
8
BLACK
6
CONTINUOUS
10
0.7448567716535432
20
0.3638044881889764
11
0.7451070866141732
21
0.3638956299212598
0
LINE
8
BLACK
6
CONTINUOUS
10
0.7451070866141732
20
0.3638956299212598
11
0.7452783858267716
21
0.3640997244094488
0
LINE
8
BLACK
6
CONTINUOUS
10
0.7452783858267716
20
0.3640997244094488
11
0.746033937007874
21
0.3642329921259843
0
LINE
8
BLACK
6
CONTINUOUS
10
0.746033937007874
20
0.3642329921259843
11
0.7467547637795275
21
0.3644953149606299
0
LINE
8
BLACK
6
CONTINUOUS
10
0.7467547637795275
20
0.3644953149606299
11
0.761752874015748
21
0.3644953149606299
0
LINE
8
BLACK
6
CONTINUOUS
10
0.761752874015748
20
0.3644953149606299
11
0.7627627952755905
21
0.3643172440944882
0
LINE
8
BLACK
6
CONTINUOUS
10
0.7497075196850393
20
0.3438729133858268
11
0.7610558267716535
21
0.3438729133858268
0
LINE
8
BLACK
6
CONTINUOUS
10
0.7610558267716535
20
0.3438729133858268
11
0.7637533070866142
21
0.3452216535433071
0
LINE
8
BLACK
6
CONTINUOUS
10
0.7637533070866142
20
0.3452216535433071
11
0.7649504330708661
21
0.3464187795275591
0
LINE
8
BLACK
6
CONTINUOUS
10
0.7649504330708661
20
0.3464187795275591
11
0.7662991732283464
21
0.3491162598425196
0
LINE
8
BLACK
6
CONTINUOUS
10
0.7662991732283464
20
0.3491162598425196
11
0.7662991732283464
21
0.3533464566929134
0
LINE
8
BLACK
6
CONTINUOUS
10
0.7662991732283464
20
0.3533464566929134
11
0.7649504330708661
21
0.356043937007874
0
LINE
8
BLACK
6
CONTINUOUS
10
0.7649504330708661
20
0.356043937007874
11
0.7637533070866142
21
0.357241062992126
0
LINE
8
BLACK
6
CONTINUOUS
10
0.7637533070866142
20
0.357241062992126
11
0.7610558267716535
21
0.3585898031496063
0
LINE
8
BLACK
6
CONTINUOUS
10
0.7610558267716535
20
0.3585898031496063
11
0.7497075196850393
21
0.3585898031496063
0
LINE
8
BLACK
6
CONTINUOUS
10
0.7497075196850393
20
0.3585898031496063
11
0.7497075196850393
21
0.3438729133858268
0
LINE
8
BLACK
6
CONTINUOUS
10
0.8177151968503937
20
0.6944210236220473
11
0.8178824409448818
21
0.6944504724409448
0
LINE
8
BLACK
6
CONTINUOUS
10
0.8178824409448818
20
0.6944504724409448
11
0.8186244881889764
21
0.6940220472440944
0
LINE
8
BLACK
6
CONTINUOUS
10
0.8186244881889764
20
0.6940220472440944
11
0.8194093307086614
21
0.6936776771653543
0
LINE
8
BLACK
6
CONTINUOUS
10
0.8194093307086614
20
0.6936776771653543
11
0.8194845669291339
21
0.6935254330708661
0
LINE
8
BLACK
6
CONTINUOUS
10
0.8194845669291339
20
0.6935254330708661
11
0.8196316141732283
21
0.6934405511811024
0
LINE
8
BLACK
6
CONTINUOUS
10
0.8196316141732283
20
0.6934405511811024
11
0.8199246850393701
21
0.6926353149606299
0
LINE
8
BLACK
6
CONTINUOUS
10
0.8199246850393701
20
0.6926353149606299
11
0.8203045275590551
21
0.6918670866141732
0
LINE
8
BLACK
6
CONTINUOUS
10
0.8203045275590551
20
0.6918670866141732
11
0.8202643307086614
21
0.6917021653543307
0
LINE
8
BLACK
6
CONTINUOUS
10
0.8202643307086614
20
0.6917021653543307
11
0.8203224409448818
21
0.6915425590551181
0
LINE
8
BLACK
6
CONTINUOUS
10
0.8203224409448818
20
0.6915425590551181
11
0.8203224409448818
21
0.6551252362204725
0
LINE
8
BLACK
6
CONTINUOUS
10
0.8203224409448818
20
0.6551252362204725
11
0.8286182677165355
21
0.6551252362204725
0
LINE
8
BLACK
6
CONTINUOUS
10
0.8286182677165355
20
0.6551252362204725
11
0.8296281889763779
21
0.6549471653543307
0
LINE
8
BLACK
6
CONTINUOUS
10
0.8296281889763779
20
0.6549471653543307
11
0.8311754330708662
21
0.6536488582677166
0
LINE
8
BLACK
6
CONTINUOUS
10
0.8311754330708662
20
0.6536488582677166
11
0.8315261811023622
21
0.6516597244094489
0
LINE
8
BLACK
6
CONTINUOUS
10
0.8315261811023622
20
0.6516597244094489
11
0.8305162598425196
21
0.6499105511811023
0
LINE
8
BLACK
6
CONTINUOUS
10
0.8305162598425196
20
0.6499105511811023
11
0.8286182677165355
21
0.6492197244094488
0
LINE
8
BLACK
6
CONTINUOUS
10
0.8286182677165355
20
0.6492197244094488
11
0.8061211023622047
21
0.6492197244094488
0
LINE
8
BLACK
6
CONTINUOUS
10
0.8061211023622047
20
0.6492197244094488
11
0.8051111811023622
21
0.6493977952755905
0
LINE
8
BLACK
6
CONTINUOUS
10
0.8051111811023622
20
0.6493977952755905
11
0.803563937007874
21
0.6506961023622048
0
LINE
8
BLACK
6
CONTINUOUS
10
0.803563937007874
20
0.6506961023622048
11
0.8032131889763779
21
0.6526852362204725
0
LINE
8
BLACK
6
CONTINUOUS
10
0.8032131889763779
20
0.6526852362204725
11
0.8042231102362205
21
0.6544344094488189
0
LINE
8
BLACK
6
CONTINUOUS
10
0.8042231102362205
20
0.6544344094488189
11
0.8061211023622047
21
0.6551252362204725
0
LINE
8
BLACK
6
CONTINUOUS
10
0.8061211023622047
20
0.6551252362204725
11
0.8144169291338582
21
0.6551252362204725
0
LINE
8
BLACK
6
CONTINUOUS
10
0.8144169291338582
20
0.6551252362204725
11
0.8144169291338582
21
0.6825392125984252
0
LINE
8
BLACK
6
CONTINUOUS
10
0.8144169291338582
20
0.6825392125984252
11
0.8119585433070866
21
0.6800808267716535
0
LINE
8
BLACK
6
CONTINUOUS
10
0.8119585433070866
20
0.6800808267716535
11
0.8112354330708661
21
0.6795745669291339
0
LINE
8
BLACK
6
CONTINUOUS
10
0.8112354330708661
20
0.6795745669291339
11
0.8111911417322835
21
0.6795277165354331
0
LINE
8
BLACK
6
CONTINUOUS
10
0.8111911417322835
20
0.6795277165354331
11
0.8074416141732284
21
0.6776529527559055
0
LINE
8
BLACK
6
CONTINUOUS
10
0.8074416141732284
20
0.6776529527559055
11
0.8064586614173228
21
0.6773605905511811
0
LINE
8
BLACK
6
CONTINUOUS
10
0.8064586614173228
20
0.6773605905511811
11
0.8044941732283465
21
0.6778298818897638
0
LINE
8
BLACK
6
CONTINUOUS
10
0.8044941732283465
20
0.6778298818897638
11
0.8032908661417323
21
0.679452125984252
0
LINE
8
BLACK
6
CONTINUOUS
10
0.8032908661417323
20
0.679452125984252
11
0.8034119291338583
21
0.6814683070866142
0
LINE
8
BLACK
6
CONTINUOUS
10
0.8034119291338583
20
0.6814683070866142
11
0.8048005905511811
21
0.682935
0
LINE
8
BLACK
6
CONTINUOUS
10
0.8048005905511811
20
0.682935
11
0.8081215354330709
21
0.6845954724409449
0
LINE
8
BLACK
6
CONTINUOUS
10
0.8081215354330709
20
0.6845954724409449
11
0.8113254330708661
21
0.6877993700787401
0
LINE
8
BLACK
6
CONTINUOUS
10
0.8113254330708661
20
0.6877993700787401
11
0.8149128346456693
21
0.6931804724409448
0
LINE
8
BLACK
6
CONTINUOUS
10
0.8149128346456693
20
0.6931804724409448
11
0.8156212204724409
21
0.6939220078740157
0
LINE
8
BLACK
6
CONTINUOUS
10
0.8156212204724409
20
0.6939220078740157
11
0.8157841732283464
21
0.6939697244094488
0
LINE
8
BLACK
6
CONTINUOUS
10
0.8157841732283464
20
0.6939697244094488
11
0.8158933070866141
21
0.6940997244094488
0
LINE
8
BLACK
6
CONTINUOUS
10
0.8158933070866141
20
0.6940997244094488
11
0.8167370866141732
21
0.6942485433070866
0
LINE
8
BLACK
6
CONTINUOUS
10
0.8167370866141732
20
0.6942485433070866
11
0.8175597244094488
21
0.6944892125984252
0
LINE
8
BLACK
6
CONTINUOUS
10
0.8175597244094488
20
0.6944892125984252
11
0.8177151968503937
21
0.6944210236220473
0
LINE
8
BLACK
6
CONTINUOUS
10
0.7950373622047244
20
0.6936776771653543
11
0.7959325590551181
21
0.6918670866141732
0
LINE
8
BLACK
6
CONTINUOUS
10
0.7959325590551181
20
0.6918670866141732
11
0.7954545669291339
21
0.6899046456692913
0
LINE
8
BLACK
6
CONTINUOUS
10
0.7954545669291339
20
0.6899046456692913
11
0.7834231496062992
21
0.6718575196850394
0
LINE
8
BLACK
6
CONTINUOUS
10
0.7834231496062992
20
0.6718575196850394
11
0.7954545669291339
21
0.6538103937007874
0
LINE
8
BLACK
6
CONTINUOUS
10
0.7954545669291339
20
0.6538103937007874
11
0.7958666141732283
21
0.6528712992125985
0
LINE
8
BLACK
6
CONTINUOUS
10
0.7958666141732283
20
0.6528712992125985
11
0.7956446062992126
21
0.6508637401574803
0
LINE
8
BLACK
6
CONTINUOUS
10
0.7956446062992126
20
0.6508637401574803
11
0.7941840944881889
21
0.6494685433070866
0
LINE
8
BLACK
6
CONTINUOUS
10
0.7941840944881889
20
0.6494685433070866
11
0.7921685039370079
21
0.6493385826771654
0
LINE
8
BLACK
6
CONTINUOUS
10
0.7921685039370079
20
0.6493385826771654
11
0.7905408661417322
21
0.6505346062992126
0
LINE
8
BLACK
6
CONTINUOUS
10
0.7905408661417322
20
0.6505346062992126
11
0.7798743700787402
21
0.6665343700787402
0
LINE
8
BLACK
6
CONTINUOUS
10
0.7798743700787402
20
0.6665343700787402
11
0.769207874015748
21
0.6505346062992126
0
LINE
8
BLACK
6
CONTINUOUS
10
0.769207874015748
20
0.6505346062992126
11
0.7684994881889764
21
0.6497930708661417
0
LINE
8
BLACK
6
CONTINUOUS
10
0.7684994881889764
20
0.6497930708661417
11
0.7665609842519685
21
0.6492258267716535
0
LINE
8
BLACK
6
CONTINUOUS
10
0.7665609842519685
20
0.6492258267716535
11
0.7647113779527559
21
0.6500373622047244
0
LINE
8
BLACK
6
CONTINUOUS
10
0.7647113779527559
20
0.6500373622047244
11
0.7638161811023622
21
0.6518479527559055
0
LINE
8
BLACK
6
CONTINUOUS
10
0.7638161811023622
20
0.6518479527559055
11
0.7642941732283465
21
0.6538103543307087
0
LINE
8
BLACK
6
CONTINUOUS
10
0.7642941732283465
20
0.6538103543307087
11
0.7763255905511811
21
0.6718575196850394
0
LINE
8
BLACK
6
CONTINUOUS
10
0.7763255905511811
20
0.6718575196850394
11
0.7642941732283465
21
0.6899046850393701
0
LINE
8
BLACK
6
CONTINUOUS
10
0.7642941732283465
20
0.6899046850393701
11
0.763882125984252
21
0.6908437401574803
0
LINE
8
BLACK
6
CONTINUOUS
10
0.763882125984252
20
0.6908437401574803
11
0.7641041338582677
21
0.6928512992125984
0
LINE
8
BLACK
6
CONTINUOUS
10
0.7641041338582677
20
0.6928512992125984
11
0.7655646456692913
21
0.6942464960629922
0
LINE
8
BLACK
6
CONTINUOUS
10
0.7655646456692913
20
0.6942464960629922
11
0.7675802362204724
21
0.6943764566929134
0
LINE
8
BLACK
6
CONTINUOUS
10
0.7675802362204724
20
0.6943764566929134
11
0.769207874015748
21
0.6931804330708661
0
LINE
8
BLACK
6
CONTINUOUS
10
0.769207874015748
20
0.6931804330708661
11
0.7798743700787402
21
0.6771807086614173
0
LINE
8
BLACK
6
CONTINUOUS
10
0.7798743700787402
20
0.6771807086614173
11
0.7905408661417322
21
0.6931804330708661
0
LINE
8
BLACK
6
CONTINUOUS
10
0.7905408661417322
20
0.6931804330708661
11
0.7912492519685039
21
0.6939219685039369
0
LINE
8
BLACK
6
CONTINUOUS
10
0.7912492519685039
20
0.6939219685039369
11
0.7931877559055118
21
0.6944892125984252
0
LINE
8
BLACK
6
CONTINUOUS
10
0.7931877559055118
20
0.6944892125984252
11
0.7950373622047244
21
0.6936776771653543
0
LINE
8
BLACK
6
CONTINUOUS
10
0.9500139763779527
20
0.9264706692913386
11
0.9505905511811024
21
0.9250787401574803
0
LINE
8
BLACK
6
CONTINUOUS
10
0.9505905511811024
20
0.9250787401574803
11
0.9500139763779527
21
0.923686811023622
0
LINE
8
BLACK
6
CONTINUOUS
10
0.9500139763779527
20
0.923686811023622
11
0.9486220472440945
21
0.9231102362204724
0
LINE
8
BLACK
6
CONTINUOUS
10
0.9486220472440945
20
0.9231102362204724
11
0.6486220472440944
21
0.9231102362204724
0
LINE
8
BLACK
6
CONTINUOUS
10
0.6486220472440944
20
0.9231102362204724
11
0.6472301181102362
21
0.923686811023622
0
LINE
8
BLACK
6
CONTINUOUS
10
0.6472301181102362
20
0.923686811023622
11
0.6466535433070866
21
0.9250787401574803
0
LINE
8
BLACK
6
CONTINUOUS
10
0.6466535433070866
20
0.9250787401574803
11
0.6472301181102362
21
0.9264706692913386
0
LINE
8
BLACK
6
CONTINUOUS
10
0.6472301181102362
20
0.9264706692913386
11
0.6486220472440944
21
0.9270472440944881
0
LINE
8
BLACK
6
CONTINUOUS
10
0.6486220472440944
20
0.9270472440944881
11
0.9486220472440945
21
0.9270472440944881
0
LINE
8
BLACK
6
CONTINUOUS
10
0.9486220472440945
20
0.9270472440944881
11
0.9500139763779527
21
0.9264706692913386
0
LINE
8
BLACK
6
CONTINUOUS
10
0.9786220472440945
20
0.9520472440944882
11
0.9800139763779527
21
0.9514706692913386
0
LINE
8
BLACK
6
CONTINUOUS
10
0.9800139763779527
20
0.9514706692913386
11
0.9805905511811024
21
0.9500787401574803
0
LINE
8
BLACK
6
CONTINUOUS
10
0.9805905511811024
20
0.9500787401574803
11
0.9805905511811024
21
0.3900787401574803
0
LINE
8
BLACK
6
CONTINUOUS
10
0.9805905511811024
20
0.3900787401574803
11
0.9800139763779527
21
0.388686811023622
0
LINE
8
BLACK
6
CONTINUOUS
10
0.9800139763779527
20
0.388686811023622
11
0.9786220472440945
21
0.3881102362204724
0
LINE
8
BLACK
6
CONTINUOUS
10
0.9786220472440945
20
0.3881102362204724
11
0.6186220472440944
21
0.3881102362204724
0
LINE
8
BLACK
6
CONTINUOUS
10
0.6186220472440944
20
0.3881102362204724
11
0.6172301181102362
21
0.388686811023622
0
LINE
8
BLACK
6
CONTINUOUS
10
0.6172301181102362
20
0.388686811023622
11
0.6166535433070865
21
0.3900787401574803
0
LINE
8
BLACK
6
CONTINUOUS
10
0.6166535433070865
20
0.3900787401574803
11
0.6166535433070865
21
0.9500787401574803
0
LINE
8
BLACK
6
CONTINUOUS
10
0.6166535433070865
20
0.9500787401574803
11
0.6172301181102362
21
0.9514706692913386
0
LINE
8
BLACK
6
CONTINUOUS
10
0.6172301181102362
20
0.9514706692913386
11
0.6186220472440944
21
0.9520472440944882
0
LINE
8
BLACK
6
CONTINUOUS
10
0.6186220472440944
20
0.9520472440944882
11
0.9786220472440945
21
0.9520472440944882
0
LINE
8
BLACK
6
CONTINUOUS
10
0.6205905511811024
20
0.9481102362204724
11
0.6205905511811024
21
0.3920472440944882
0
LINE
8
BLACK
6
CONTINUOUS
10
0.6205905511811024
20
0.3920472440944882
11
0.9766535433070866
21
0.3920472440944882
0
LINE
8
BLACK
6
CONTINUOUS
10
0.9766535433070866
20
0.3920472440944882
11
0.9766535433070866
21
0.9481102362204724
0
LINE
8
BLACK
6
CONTINUOUS
10
0.9766535433070866
20
0.9481102362204724
11
0.6205905511811024
21
0.9481102362204724
0
LINE
8
BLACK
6
CONTINUOUS
10
0.4134434645669291
20
1.7193135433070865
11
0.4267177952755906
21
1.7170581496062991
0
LINE
8
BLACK
6
CONTINUOUS
10
0.4267177952755906
20
1.7170581496062991
11
0.4396561417322835
21
1.7133306692913386
0
LINE
8
BLACK
6
CONTINUOUS
10
0.4396561417322835
20
1.7133306692913386
11
0.4520958267716536
21
1.7081779921259843
0
LINE
8
BLACK
6
CONTINUOUS
10
0.4520958267716536
20
1.7081779921259843
11
0.4638803543307087
21
1.7016649212598425
0
LINE
8
BLACK
6
CONTINUOUS
10
0.4638803543307087
20
1.7016649212598425
11
0.4748615354330709
21
1.6938733464566929
0
LINE
8
BLACK
6
CONTINUOUS
10
0.4748615354330709
20
1.6938733464566929
11
0.4849012992125984
21
1.6849012598425197
0
LINE
8
BLACK
6
CONTINUOUS
10
0.4849012992125984
20
1.6849012598425197
11
0.4938733858267716
21
1.6748614960629922
0
LINE
8
BLACK
6
CONTINUOUS
10
0.4938733858267716
20
1.6748614960629922
11
0.5016649606299213
21
1.6638803149606298
0
LINE
8
BLACK
6
CONTINUOUS
10
0.5016649606299213
20
1.6638803149606298
11
0.508178031496063
21
1.6520957874015747
0
LINE
8
BLACK
6
CONTINUOUS
10
0.508178031496063
20
1.6520957874015747
11
0.5133307086614173
21
1.6396561023622047
0
LINE
8
BLACK
6
CONTINUOUS
10
0.5133307086614173
20
1.6396561023622047
11
0.5170581889763779
21
1.6267177559055117
0
LINE
8
BLACK
6
CONTINUOUS
10
0.5170581889763779
20
1.6267177559055117
11
0.5193135826771653
21
1.6134434251968504
0
LINE
8
BLACK
6
CONTINUOUS
10
0.5193135826771653
20
1.6134434251968504
11
0.5200685433070866
21
1.5999999999999999
0
LINE
8
BLACK
6
CONTINUOUS
10
0.5200685433070866
20
1.5999999999999999
11
0.5193135826771653
21
1.5865565748031496
0
LINE
8
BLACK
6
CONTINUOUS
10
0.5193135826771653
20
1.5865565748031496
11
0.5170581889763779
21
1.5732822440944882
0
LINE
8
BLACK
6
CONTINUOUS
10
0.5170581889763779
20
1.5732822440944882
11
0.5133307086614173
21
1.5603438976377952
0
LINE
8
BLACK
6
CONTINUOUS
10
0.5133307086614173
20
1.5603438976377952
11
0.508178031496063
21
1.5479042125984253
0
LINE
8
BLACK
6
CONTINUOUS
10
0.508178031496063
20
1.5479042125984253
11
0.5016649606299213
21
1.5361196850393701
0
LINE
8
BLACK
6
CONTINUOUS
10
0.5016649606299213
20
1.5361196850393701
11
0.4938733858267716
21
1.5251385039370078
0
LINE
8
BLACK
6
CONTINUOUS
10
0.4938733858267716
20
1.5251385039370078
11
0.4849012992125984
21
1.5150987401574803
0
LINE
8
BLACK
6
CONTINUOUS
10
0.4849012992125984
20
1.5150987401574803
11
0.4748615354330709
21
1.5061266535433071
0
LINE
8
BLACK
6
CONTINUOUS
10
0.4748615354330709
20
1.5061266535433071
11
0.4638803543307087
21
1.4983350787401575
0
LINE
8
BLACK
6
CONTINUOUS
10
0.4638803543307087
20
1.4983350787401575
11
0.4520958267716536
21
1.4918220078740156
0
LINE
8
BLACK
6
CONTINUOUS
10
0.4520958267716536
20
1.4918220078740156
11
0.4396561417322835
21
1.4866693307086614
0
LINE
8
BLACK
6
CONTINUOUS
10
0.4396561417322835
20
1.4866693307086614
11
0.4267177952755906
21
1.4829418503937009
0
LINE
8
BLACK
6
CONTINUOUS
10
0.4267177952755906
20
1.4829418503937009
11
0.4134434645669291
21
1.4806864566929134
0
LINE
8
BLACK
6
CONTINUOUS
10
0.4134434645669291
20
1.4806864566929134
11
0.4000000393700787
21
1.4799314960629921
0
LINE
8
BLACK
6
CONTINUOUS
10
0.4000000393700787
20
1.4799314960629921
11
0.3865566141732283
21
1.4806864566929134
0
LINE
8
BLACK
6
CONTINUOUS
10
0.3865566141732283
20
1.4806864566929134
11
0.3732822834645669
21
1.4829418503937009
0
LINE
8
BLACK
6
CONTINUOUS
10
0.3732822834645669
20
1.4829418503937009
11
0.360343937007874
21
1.4866693307086614
0
LINE
8
BLACK
6
CONTINUOUS
10
0.360343937007874
20
1.4866693307086614
11
0.3479042519685039
21
1.4918220078740156
0
LINE
8
BLACK
6
CONTINUOUS
10
0.3479042519685039
20
1.4918220078740156
11
0.3361197244094488
21
1.4983350787401575
0
LINE
8
BLACK
6
CONTINUOUS
10
0.3361197244094488
20
1.4983350787401575
11
0.3251385433070866
21
1.5061266535433071
0
LINE
8
BLACK
6
CONTINUOUS
10
0.3251385433070866
20
1.5061266535433071
11
0.315098779527559
21
1.5150987401574803
0
LINE
8
BLACK
6
CONTINUOUS
10
0.315098779527559
20
1.5150987401574803
11
0.3061266929133858
21
1.5251385039370078
0
LINE
8
BLACK
6
CONTINUOUS
10
0.3061266929133858
20
1.5251385039370078
11
0.2983351181102362
21
1.5361196850393701
0
LINE
8
BLACK
6
CONTINUOUS
10
0.2983351181102362
20
1.5361196850393701
11
0.2918220472440945
21
1.5479042125984253
0
LINE
8
BLACK
6
CONTINUOUS
10
0.2918220472440945
20
1.5479042125984253
11
0.2866693700787402
21
1.5603438976377952
0
LINE
8
BLACK
6
CONTINUOUS
10
0.2866693700787402
20
1.5603438976377952
11
0.2829418897637795
21
1.5732822440944882
0
LINE
8
BLACK
6
CONTINUOUS
10
0.2829418897637795
20
1.5732822440944882
11
0.2806864960629921
21
1.5865565748031496
0
LINE
8
BLACK
6
CONTINUOUS
10
0.2806864960629921
20
1.5865565748031496
11
0.2799315354330709
21
1.5999999999999999
0
LINE
8
BLACK
6
CONTINUOUS
10
0.2799315354330709
20
1.5999999999999999
11
0.2806864960629921
21
1.6134434251968504
0
LINE
8
BLACK
6
CONTINUOUS
10
0.2806864960629921
20
1.6134434251968504
11
0.2829418897637795
21
1.6267177559055117
0
LINE
8
BLACK
6
CONTINUOUS
10
0.2829418897637795
20
1.6267177559055117
11
0.2866693700787402
21
1.6396561023622047
0
LINE
8
BLACK
6
CONTINUOUS
10
0.2866693700787402
20
1.6396561023622047
11
0.2918220472440945
21
1.6520957874015747
0
LINE
8
BLACK
6
CONTINUOUS
10
0.2918220472440945
20
1.6520957874015747
11
0.2983351181102362
21
1.6638803149606298
0
LINE
8
BLACK
6
CONTINUOUS
10
0.2983351181102362
20
1.6638803149606298
11
0.3061266929133858
21
1.6748614960629922
0
LINE
8
BLACK
6
CONTINUOUS
10
0.3061266929133858
20
1.6748614960629922
11
0.315098779527559
21
1.6849012598425197
0
LINE
8
BLACK
6
CONTINUOUS
10
0.315098779527559
20
1.6849012598425197
11
0.3251385433070866
21
1.6938733464566929
0
LINE
8
BLACK
6
CONTINUOUS
10
0.3251385433070866
20
1.6938733464566929
11
0.3361197244094488
21
1.7016649212598425
0
LINE
8
BLACK
6
CONTINUOUS
10
0.3361197244094488
20
1.7016649212598425
11
0.3479042519685039
21
1.7081779921259843
0
LINE
8
BLACK
6
CONTINUOUS
10
0.3479042519685039
20
1.7081779921259843
11
0.360343937007874
21
1.7133306692913386
0
LINE
8
BLACK
6
CONTINUOUS
10
0.360343937007874
20
1.7133306692913386
11
0.3732822834645669
21
1.7170581496062991
0
LINE
8
BLACK
6
CONTINUOUS
10
0.3732822834645669
20
1.7170581496062991
11
0.3865566141732283
21
1.7193135433070865
0
LINE
8
BLACK
6
CONTINUOUS
10
0.3865566141732283
20
1.7193135433070865
11
0.4000000393700787
21
1.7200685039370078
0
LINE
8
BLACK
6
CONTINUOUS
10
0.4000000393700787
20
1.7200685039370078
11
0.4134434645669291
21
1.7193135433070865
0
LINE
8
BLACK
6
CONTINUOUS
10
0.2844583070866142
20
1.5864951181102362
11
0.2868073622047244
21
1.5731728346456693
0
LINE
8
BLACK
6
CONTINUOUS
10
0.2868073622047244
20
1.5731728346456693
11
0.2906872047244095
21
1.5602133858267717
0
LINE
8
BLACK
6
CONTINUOUS
10
0.2906872047244095
20
1.5602133858267717
11
0.2960452755905512
21
1.547791968503937
0
LINE
8
BLACK
6
CONTINUOUS
10
0.2960452755905512
20
1.547791968503937
11
0.3028091732283464
21
1.5360765354330708
0
LINE
8
BLACK
6
CONTINUOUS
10
0.3028091732283464
20
1.5360765354330708
11
0.3108874015748032
21
1.5252255905511811
0
LINE
8
BLACK
6
CONTINUOUS
10
0.3108874015748032
20
1.5252255905511811
11
0.3201707086614173
21
1.5153858661417323
0
LINE
8
BLACK
6
CONTINUOUS
10
0.3201707086614173
20
1.5153858661417323
11
0.3305335826771654
21
1.5066903543307086
0
LINE
8
BLACK
6
CONTINUOUS
10
0.3305335826771654
20
1.5066903543307086
11
0.3418358661417323
21
1.4992567322834645
0
LINE
8
BLACK
6
CONTINUOUS
10
0.3418358661417323
20
1.4992567322834645
11
0.3539247637795275
21
1.4931854724409448
0
LINE
8
BLACK
6
CONTINUOUS
10
0.3539247637795275
20
1.4931854724409448
11
0.3666366929133858
21
1.4885587007874015
0
LINE
8
BLACK
6
CONTINUOUS
10
0.3666366929133858
20
1.4885587007874015
11
0.379799842519685
21
1.4854389763779527
0
LINE
8
BLACK
6
CONTINUOUS
10
0.379799842519685
20
1.4854389763779527
11
0.3932361417322834
21
1.4838685039370079
0
LINE
8
BLACK
6
CONTINUOUS
10
0.3932361417322834
20
1.4838685039370079
11
0.406763937007874
21
1.4838685039370079
0
LINE
8
BLACK
6
CONTINUOUS
10
0.406763937007874
20
1.4838685039370079
11
0.4202002362204724
21
1.4854389763779527
0
LINE
8
BLACK
6
CONTINUOUS
10
0.4202002362204724
20
1.4854389763779527
11
0.4333633858267716
21
1.4885587007874015
0
LINE
8
BLACK
6
CONTINUOUS
10
0.4333633858267716
20
1.4885587007874015
11
0.4460753149606299
21
1.4931854724409448
0
LINE
8
BLACK
6
CONTINUOUS
10
0.4460753149606299
20
1.4931854724409448
11
0.4581642125984252
21
1.4992567322834645
0
LINE
8
BLACK
6
CONTINUOUS
10
0.4581642125984252
20
1.4992567322834645
11
0.4694664960629921
21
1.5066903543307086
0
LINE
8
BLACK
6
CONTINUOUS
10
0.4694664960629921
20
1.5066903543307086
11
0.4798293700787402
21
1.5153858661417323
0
LINE
8
BLACK
6
CONTINUOUS
10
0.4798293700787402
20
1.5153858661417323
11
0.4891126771653543
21
1.5252255905511811
0
LINE
8
BLACK
6
CONTINUOUS
10
0.4891126771653543
20
1.5252255905511811
11
0.497190905511811
21
1.5360765354330708
0
LINE
8
BLACK
6
CONTINUOUS
10
0.497190905511811
20
1.5360765354330708
11
0.5039548031496063
21
1.547791968503937
0
LINE
8
BLACK
6
CONTINUOUS
10
0.5039548031496063
20
1.547791968503937
11
0.509312874015748
21
1.5602133858267717
0
LINE
8
BLACK
6
CONTINUOUS
10
0.509312874015748
20
1.5602133858267717
11
0.5131927165354331
21
1.5731728346456693
0
LINE
8
BLACK
6
CONTINUOUS
10
0.5131927165354331
20
1.5731728346456693
11
0.5155417716535433
21
1.5864951181102362
0
LINE
8
BLACK
6
CONTINUOUS
10
0.5155417716535433
20
1.5864951181102362
11
0.5163283464566929
21
1.5999999999999999
0
LINE
8
BLACK
6
CONTINUOUS
10
0.5163283464566929
20
1.5999999999999999
11
0.5155417716535433
21
1.6135048818897637
0
LINE
8
BLACK
6
CONTINUOUS
10
0.5155417716535433
20
1.6135048818897637
11
0.5131927165354331
21
1.6268271653543307
0
LINE
8
BLACK
6
CONTINUOUS
10
0.5131927165354331
20
1.6268271653543307
11
0.509312874015748
21
1.6397866141732282
0
LINE
8
BLACK
6
CONTINUOUS
10
0.509312874015748
20
1.6397866141732282
11
0.5039548031496063
21
1.652208031496063
0
LINE
8
BLACK
6
CONTINUOUS
10
0.5039548031496063
20
1.652208031496063
11
0.497190905511811
21
1.6639234645669292
0
LINE
8
BLACK
6
CONTINUOUS
10
0.497190905511811
20
1.6639234645669292
11
0.4891126771653543
21
1.6747744094488188
0
LINE
8
BLACK
6
CONTINUOUS
10
0.4891126771653543
20
1.6747744094488188
11
0.4798293700787402
21
1.6846141338582676
0
LINE
8
BLACK
6
CONTINUOUS
10
0.4798293700787402
20
1.6846141338582676
11
0.4694664960629921
21
1.6933096456692913
0
LINE
8
BLACK
6
CONTINUOUS
10
0.4694664960629921
20
1.6933096456692913
11
0.4581642125984252
21
1.7007432677165355
0
LINE
8
BLACK
6
CONTINUOUS
10
0.4581642125984252
20
1.7007432677165355
11
0.4460753149606299
21
1.7068145275590552
0
LINE
8
BLACK
6
CONTINUOUS
10
0.4460753149606299
20
1.7068145275590552
11
0.4333633858267716
21
1.7114412992125985
0
LINE
8
BLACK
6
CONTINUOUS
10
0.4333633858267716
20
1.7114412992125985
11
0.4202002362204724
21
1.7145610236220472
0
LINE
8
BLACK
6
CONTINUOUS
10
0.4202002362204724
20
1.7145610236220472
11
0.406763937007874
21
1.7161314960629921
0
LINE
8
BLACK
6
CONTINUOUS
10
0.406763937007874
20
1.7161314960629921
11
0.3932361417322834
21
1.7161314960629921
0
LINE
8
BLACK
6
CONTINUOUS
10
0.3932361417322834
20
1.7161314960629921
11
0.379799842519685
21
1.7145610236220472
0
LINE
8
BLACK
6
CONTINUOUS
10
0.379799842519685
20
1.7145610236220472
11
0.3666366929133858
21
1.7114412992125985
0
LINE
8
BLACK
6
CONTINUOUS
10
0.3666366929133858
20
1.7114412992125985
11
0.3539247637795275
21
1.7068145275590552
0
LINE
8
BLACK
6
CONTINUOUS
10
0.3539247637795275
20
1.7068145275590552
11
0.3418358661417323
21
1.7007432677165355
0
LINE
8
BLACK
6
CONTINUOUS
10
0.3418358661417323
20
1.7007432677165355
11
0.3305335826771654
21
1.6933096456692913
0
LINE
8
BLACK
6
CONTINUOUS
10
0.3305335826771654
20
1.6933096456692913
11
0.3201707086614173
21
1.6846141338582676
0
LINE
8
BLACK
6
CONTINUOUS
10
0.3201707086614173
20
1.6846141338582676
11
0.3108874015748032
21
1.6747744094488188
0
LINE
8
BLACK
6
CONTINUOUS
10
0.3108874015748032
20
1.6747744094488188
11
0.3028091732283464
21
1.6639234645669292
0
LINE
8
BLACK
6
CONTINUOUS
10
0.3028091732283464
20
1.6639234645669292
11
0.2960452755905512
21
1.652208031496063
0
LINE
8
BLACK
6
CONTINUOUS
10
0.2960452755905512
20
1.652208031496063
11
0.2906872047244095
21
1.6397866141732282
0
LINE
8
BLACK
6
CONTINUOUS
10
0.2906872047244095
20
1.6397866141732282
11
0.2868073622047244
21
1.6268271653543307
0
LINE
8
BLACK
6
CONTINUOUS
10
0.2868073622047244
20
1.6268271653543307
11
0.2844583070866142
21
1.6135048818897637
0
LINE
8
BLACK
6
CONTINUOUS
10
0.2844583070866142
20
1.6135048818897637
11
0.2836717322834645
21
1.5999999999999999
0
LINE
8
BLACK
6
CONTINUOUS
10
0.2836717322834645
20
1.5999999999999999
11
0.2844583070866142
21
1.5864951181102362
0
LINE
8
BLACK
6
CONTINUOUS
10
1.2134434645669292
20
1.7193135433070865
11
1.2267177952755906
21
1.7170581496062991
0
LINE
8
BLACK
6
CONTINUOUS
10
1.2267177952755906
20
1.7170581496062991
11
1.2396561417322833
21
1.7133306692913386
0
LINE
8
BLACK
6
CONTINUOUS
10
1.2396561417322833
20
1.7133306692913386
11
1.2520958267716535
21
1.7081779921259843
0
LINE
8
BLACK
6
CONTINUOUS
10
1.2520958267716535
20
1.7081779921259843
11
1.2638803543307087
21
1.7016649212598425
0
LINE
8
BLACK
6
CONTINUOUS
10
1.2638803543307087
20
1.7016649212598425
11
1.2748615354330708
21
1.6938733464566929
0
LINE
8
BLACK
6
CONTINUOUS
10
1.2748615354330708
20
1.6938733464566929
11
1.2849012992125983
21
1.6849012598425197
0
LINE
8
BLACK
6
CONTINUOUS
10
1.2849012992125983
20
1.6849012598425197
11
1.2938733858267717
21
1.6748614960629922
0
LINE
8
BLACK
6
CONTINUOUS
10
1.2938733858267717
20
1.6748614960629922
11
1.3016649606299213
21
1.6638803149606298
0
LINE
8
BLACK
6
CONTINUOUS
10
1.3016649606299213
20
1.6638803149606298
11
1.3081780314960629
21
1.6520957874015747
0
LINE
8
BLACK
6
CONTINUOUS
10
1.3081780314960629
20
1.6520957874015747
11
1.3133307086614172
21
1.6396561023622047
0
LINE
8
BLACK
6
CONTINUOUS
10
1.3133307086614172
20
1.6396561023622047
11
1.3170581889763779
21
1.6267177559055117
0
LINE
8
BLACK
6
CONTINUOUS
10
1.3170581889763779
20
1.6267177559055117
11
1.3193135826771654
21
1.6134434251968504
0
LINE
8
BLACK
6
CONTINUOUS
10
1.3193135826771654
20
1.6134434251968504
11
1.3200685433070867
21
1.5999999999999999
0
LINE
8
BLACK
6
CONTINUOUS
10
1.3200685433070867
20
1.5999999999999999
11
1.3193135826771654
21
1.5865565748031496
0
LINE
8
BLACK
6
CONTINUOUS
10
1.3193135826771654
20
1.5865565748031496
11
1.3170581889763779
21
1.5732822440944882
0
LINE
8
BLACK
6
CONTINUOUS
10
1.3170581889763779
20
1.5732822440944882
11
1.3133307086614172
21
1.5603438976377952
0
LINE
8
BLACK
6
CONTINUOUS
10
1.3133307086614172
20
1.5603438976377952
11
1.3081780314960629
21
1.5479042125984253
0
LINE
8
BLACK
6
CONTINUOUS
10
1.3081780314960629
20
1.5479042125984253
11
1.3016649606299213
21
1.5361196850393701
0
LINE
8
BLACK
6
CONTINUOUS
10
1.3016649606299213
20
1.5361196850393701
11
1.2938733858267717
21
1.5251385039370078
0
LINE
8
BLACK
6
CONTINUOUS
10
1.2938733858267717
20
1.5251385039370078
11
1.2849012992125983
21
1.5150987401574803
0
LINE
8
BLACK
6
CONTINUOUS
10
1.2849012992125983
20
1.5150987401574803
11
1.2748615354330708
21
1.5061266535433071
0
LINE
8
BLACK
6
CONTINUOUS
10
1.2748615354330708
20
1.5061266535433071
11
1.2638803543307087
21
1.4983350787401575
0
LINE
8
BLACK
6
CONTINUOUS
10
1.2638803543307087
20
1.4983350787401575
11
1.2520958267716535
21
1.4918220078740156
0
LINE
8
BLACK
6
CONTINUOUS
10
1.2520958267716535
20
1.4918220078740156
11
1.2396561417322833
21
1.4866693307086614
0
LINE
8
BLACK
6
CONTINUOUS
10
1.2396561417322833
20
1.4866693307086614
11
1.2267177952755906
21
1.4829418503937009
0
LINE
8
BLACK
6
CONTINUOUS
10
1.2267177952755906
20
1.4829418503937009
11
1.2134434645669292
21
1.4806864566929134
0
LINE
8
BLACK
6
CONTINUOUS
10
1.2134434645669292
20
1.4806864566929134
11
1.2000000393700787
21
1.4799314960629921
0
LINE
8
BLACK
6
CONTINUOUS
10
1.2000000393700787
20
1.4799314960629921
11
1.1865566141732282
21
1.4806864566929134
0
LINE
8
BLACK
6
CONTINUOUS
10
1.1865566141732282
20
1.4806864566929134
11
1.1732822834645669
21
1.4829418503937009
0
LINE
8
BLACK
6
CONTINUOUS
10
1.1732822834645669
20
1.4829418503937009
11
1.1603439370078741
21
1.4866693307086614
0
LINE
8
BLACK
6
CONTINUOUS
10
1.1603439370078741
20
1.4866693307086614
11
1.1479042519685039
21
1.4918220078740156
0
LINE
8
BLACK
6
CONTINUOUS
10
1.1479042519685039
20
1.4918220078740156
11
1.1361197244094488
21
1.4983350787401575
0
LINE
8
BLACK
6
CONTINUOUS
10
1.1361197244094488
20
1.4983350787401575
11
1.1251385433070866
21
1.5061266535433071
0
LINE
8
BLACK
6
CONTINUOUS
10
1.1251385433070866
20
1.5061266535433071
11
1.1150987795275591
21
1.5150987401574803
0
LINE
8
BLACK
6
CONTINUOUS
10
1.1150987795275591
20
1.5150987401574803
11
1.1061266929133857
21
1.5251385039370078
0
LINE
8
BLACK
6
CONTINUOUS
10
1.1061266929133857
20
1.5251385039370078
11
1.0983351181102361
21
1.5361196850393701
0
LINE
8
BLACK
6
CONTINUOUS
10
1.0983351181102361
20
1.5361196850393701
11
1.0918220472440945
21
1.5479042125984253
0
LINE
8
BLACK
6
CONTINUOUS
10
1.0918220472440945
20
1.5479042125984253
11
1.0866693700787402
21
1.5603438976377952
0
LINE
8
BLACK
6
CONTINUOUS
10
1.0866693700787402
20
1.5603438976377952
11
1.0829418897637795
21
1.5732822440944882
0
LINE
8
BLACK
6
CONTINUOUS
10
1.0829418897637795
20
1.5732822440944882
11
1.0806864960629921
21
1.5865565748031496
0
LINE
8
BLACK
6
CONTINUOUS
10
1.0806864960629921
20
1.5865565748031496
11
1.0799315354330707
21
1.5999999999999999
0
LINE
8
BLACK
6
CONTINUOUS
10
1.0799315354330707
20
1.5999999999999999
11
1.0806864960629921
21
1.6134434251968504
0
LINE
8
BLACK
6
CONTINUOUS
10
1.0806864960629921
20
1.6134434251968504
11
1.0829418897637795
21
1.6267177559055117
0
LINE
8
BLACK
6
CONTINUOUS
10
1.0829418897637795
20
1.6267177559055117
11
1.0866693700787402
21
1.6396561023622047
0
LINE
8
BLACK
6
CONTINUOUS
10
1.0866693700787402
20
1.6396561023622047
11
1.0918220472440945
21
1.6520957874015747
0
LINE
8
BLACK
6
CONTINUOUS
10
1.0918220472440945
20
1.6520957874015747
11
1.0983351181102361
21
1.6638803149606298
0
LINE
8
BLACK
6
CONTINUOUS
10
1.0983351181102361
20
1.6638803149606298
11
1.1061266929133857
21
1.6748614960629922
0
LINE
8
BLACK
6
CONTINUOUS
10
1.1061266929133857
20
1.6748614960629922
11
1.1150987795275591
21
1.6849012598425197
0
LINE
8
BLACK
6
CONTINUOUS
10
1.1150987795275591
20
1.6849012598425197
11
1.1251385433070866
21
1.6938733464566929
0
LINE
8
BLACK
6
CONTINUOUS
10
1.1251385433070866
20
1.6938733464566929
11
1.1361197244094488
21
1.7016649212598425
0
LINE
8
BLACK
6
CONTINUOUS
10
1.1361197244094488
20
1.7016649212598425
11
1.1479042519685039
21
1.7081779921259843
0
LINE
8
BLACK
6
CONTINUOUS
10
1.1479042519685039
20
1.7081779921259843
11
1.1603439370078741
21
1.7133306692913386
0
LINE
8
BLACK
6
CONTINUOUS
10
1.1603439370078741
20
1.7133306692913386
11
1.1732822834645669
21
1.7170581496062991
0
LINE
8
BLACK
6
CONTINUOUS
10
1.1732822834645669
20
1.7170581496062991
11
1.1865566141732282
21
1.7193135433070865
0
LINE
8
BLACK
6
CONTINUOUS
10
1.1865566141732282
20
1.7193135433070865
11
1.2000000393700787
21
1.7200685039370078
0
LINE
8
BLACK
6
CONTINUOUS
10
1.2000000393700787
20
1.7200685039370078
11
1.2134434645669292
21
1.7193135433070865
0
LINE
8
BLACK
6
CONTINUOUS
10
1.0844583070866141
20
1.5864951181102362
11
1.0868073622047243
21
1.5731728346456693
0
LINE
8
BLACK
6
CONTINUOUS
10
1.0868073622047243
20
1.5731728346456693
11
1.0906872047244094
21
1.5602133858267717
0
LINE
8
BLACK
6
CONTINUOUS
10
1.0906872047244094
20
1.5602133858267717
11
1.0960452755905512
21
1.547791968503937
0
LINE
8
BLACK
6
CONTINUOUS
10
1.0960452755905512
20
1.547791968503937
11
1.1028091732283465
21
1.5360765354330708
0
LINE
8
BLACK
6
CONTINUOUS
10
1.1028091732283465
20
1.5360765354330708
11
1.1108874015748031
21
1.5252255905511811
0
LINE
8
BLACK
6
CONTINUOUS
10
1.1108874015748031
20
1.5252255905511811
11
1.1201707086614172
21
1.5153858661417323
0
LINE
8
BLACK
6
CONTINUOUS
10
1.1201707086614172
20
1.5153858661417323
11
1.1305335826771654
21
1.5066903543307086
0
LINE
8
BLACK
6
CONTINUOUS
10
1.1305335826771654
20
1.5066903543307086
11
1.1418358661417323
21
1.4992567322834645
0
LINE
8
BLACK
6
CONTINUOUS
10
1.1418358661417323
20
1.4992567322834645
11
1.1539247637795276
21
1.4931854724409448
0
LINE
8
BLACK
6
CONTINUOUS
10
1.1539247637795276
20
1.4931854724409448
11
1.1666366929133858
21
1.4885587007874015
0
LINE
8
BLACK
6
CONTINUOUS
10
1.1666366929133858
20
1.4885587007874015
11
1.1797998425196849
21
1.4854389763779527
0
LINE
8
BLACK
6
CONTINUOUS
10
1.1797998425196849
20
1.4854389763779527
11
1.1932361417322834
21
1.4838685039370079
0
LINE
8
BLACK
6
CONTINUOUS
10
1.1932361417322834
20
1.4838685039370079
11
1.206763937007874
21
1.4838685039370079
0
LINE
8
BLACK
6
CONTINUOUS
10
1.206763937007874
20
1.4838685039370079
11
1.2202002362204725
21
1.4854389763779527
0
LINE
8
BLACK
6
CONTINUOUS
10
1.2202002362204725
20
1.4854389763779527
11
1.2333633858267716
21
1.4885587007874015
0
LINE
8
BLACK
6
CONTINUOUS
10
1.2333633858267716
20
1.4885587007874015
11
1.2460753149606298
21
1.4931854724409448
0
LINE
8
BLACK
6
CONTINUOUS
10
1.2460753149606298
20
1.4931854724409448
11
1.2581642125984251
21
1.4992567322834645
0
LINE
8
BLACK
6
CONTINUOUS
10
1.2581642125984251
20
1.4992567322834645
11
1.269466496062992
21
1.5066903543307086
0
LINE
8
BLACK
6
CONTINUOUS
10
1.269466496062992
20
1.5066903543307086
11
1.2798293700787402
21
1.5153858661417323
0
LINE
8
BLACK
6
CONTINUOUS
10
1.2798293700787402
20
1.5153858661417323
11
1.2891126771653543
21
1.5252255905511811
0
LINE
8
BLACK
6
CONTINUOUS
10
1.2891126771653543
20
1.5252255905511811
11
1.2971909055118109
21
1.5360765354330708
0
LINE
8
BLACK
6
CONTINUOUS
10
1.2971909055118109
20
1.5360765354330708
11
1.3039548031496062
21
1.547791968503937
0
LINE
8
BLACK
6
CONTINUOUS
10
1.3039548031496062
20
1.547791968503937
11
1.309312874015748
21
1.5602133858267717
0
LINE
8
BLACK
6
CONTINUOUS
10
1.309312874015748
20
1.5602133858267717
11
1.3131927165354331
21
1.5731728346456693
0
LINE
8
BLACK
6
CONTINUOUS
10
1.3131927165354331
20
1.5731728346456693
11
1.3155417716535434
21
1.5864951181102362
0
LINE
8
BLACK
6
CONTINUOUS
10
1.3155417716535434
20
1.5864951181102362
11
1.3163283464566928
21
1.5999999999999999
0
LINE
8
BLACK
6
CONTINUOUS
10
1.3163283464566928
20
1.5999999999999999
11
1.3155417716535434
21
1.6135048818897637
0
LINE
8
BLACK
6
CONTINUOUS
10
1.3155417716535434
20
1.6135048818897637
11
1.3131927165354331
21
1.6268271653543307
0
LINE
8
BLACK
6
CONTINUOUS
10
1.3131927165354331
20
1.6268271653543307
11
1.309312874015748
21
1.6397866141732282
0
LINE
8
BLACK
6
CONTINUOUS
10
1.309312874015748
20
1.6397866141732282
11
1.3039548031496062
21
1.652208031496063
0
LINE
8
BLACK
6
CONTINUOUS
10
1.3039548031496062
20
1.652208031496063
11
1.2971909055118109
21
1.6639234645669292
0
LINE
8
BLACK
6
CONTINUOUS
10
1.2971909055118109
20
1.6639234645669292
11
1.2891126771653543
21
1.6747744094488188
0
LINE
8
BLACK
6
CONTINUOUS
10
1.2891126771653543
20
1.6747744094488188
11
1.2798293700787402
21
1.6846141338582676
0
LINE
8
BLACK
6
CONTINUOUS
10
1.2798293700787402
20
1.6846141338582676
11
1.269466496062992
21
1.6933096456692913
0
LINE
8
BLACK
6
CONTINUOUS
10
1.269466496062992
20
1.6933096456692913
11
1.2581642125984251
21
1.7007432677165355
0
LINE
8
BLACK
6
CONTINUOUS
10
1.2581642125984251
20
1.7007432677165355
11
1.2460753149606298
21
1.7068145275590552
0
LINE
8
BLACK
6
CONTINUOUS
10
1.2460753149606298
20
1.7068145275590552
11
1.2333633858267716
21
1.7114412992125985
0
LINE
8
BLACK
6
CONTINUOUS
10
1.2333633858267716
20
1.7114412992125985
11
1.2202002362204725
21
1.7145610236220472
0
LINE
8
BLACK
6
CONTINUOUS
10
1.2202002362204725
20
1.7145610236220472
11
1.206763937007874
21
1.7161314960629921
0
LINE
8
BLACK
6
CONTINUOUS
10
1.206763937007874
20
1.7161314960629921
11
1.1932361417322834
21
1.7161314960629921
0
LINE
8
BLACK
6
CONTINUOUS
10
1.1932361417322834
20
1.7161314960629921
11
1.1797998425196849
21
1.7145610236220472
0
LINE
8
BLACK
6
CONTINUOUS
10
1.1797998425196849
20
1.7145610236220472
11
1.1666366929133858
21
1.7114412992125985
0
LINE
8
BLACK
6
CONTINUOUS
10
1.1666366929133858
20
1.7114412992125985
11
1.1539247637795276
21
1.7068145275590552
0
LINE
8
BLACK
6
CONTINUOUS
10
1.1539247637795276
20
1.7068145275590552
11
1.1418358661417323
21
1.7007432677165355
0
LINE
8
BLACK
6
CONTINUOUS
10
1.1418358661417323
20
1.7007432677165355
11
1.1305335826771654
21
1.6933096456692913
0
LINE
8
BLACK
6
CONTINUOUS
10
1.1305335826771654
20
1.6933096456692913
11
1.1201707086614172
21
1.6846141338582676
0
LINE
8
BLACK
6
CONTINUOUS
10
1.1201707086614172
20
1.6846141338582676
11
1.1108874015748031
21
1.6747744094488188
0
LINE
8
BLACK
6
CONTINUOUS
10
1.1108874015748031
20
1.6747744094488188
11
1.1028091732283465
21
1.6639234645669292
0
LINE
8
BLACK
6
CONTINUOUS
10
1.1028091732283465
20
1.6639234645669292
11
1.0960452755905512
21
1.652208031496063
0
LINE
8
BLACK
6
CONTINUOUS
10
1.0960452755905512
20
1.652208031496063
11
1.0906872047244094
21
1.6397866141732282
0
LINE
8
BLACK
6
CONTINUOUS
10
1.0906872047244094
20
1.6397866141732282
11
1.0868073622047243
21
1.6268271653543307
0
LINE
8
BLACK
6
CONTINUOUS
10
1.0868073622047243
20
1.6268271653543307
11
1.0844583070866141
21
1.6135048818897637
0
LINE
8
BLACK
6
CONTINUOUS
10
1.0844583070866141
20
1.6135048818897637
11
1.0836717322834646
21
1.5999999999999999
0
LINE
8
BLACK
6
CONTINUOUS
10
1.0836717322834646
20
1.5999999999999999
11
1.0844583070866141
21
1.5864951181102362
  0
ENDSEC
  0
EOF
