%TF.GenerationSoftware,KiCad,Pcbnew,7.0.11+1*%
%TF.CreationDate,2024-06-02T23:23:21+00:00*%
%TF.ProjectId,REL1SW01,52454c31-5357-4303-912e-6b696361645f,rev?*%
%TF.SameCoordinates,Original*%
%TF.FileFunction,Soldermask,Top*%
%TF.FilePolarity,Negative*%
%FSLAX46Y46*%
G04 Gerber Fmt 4.6, Leading zero omitted, Abs format (unit mm)*
G04 Created by KiCad (PCBNEW 7.0.11+1) date 2024-06-02 23:23:21*
%MOMM*%
%LPD*%
G01*
G04 APERTURE LIST*
%ADD10O,2.300000X1.600000*%
%ADD11C,6.000000*%
%ADD12R,1.524000X1.524000*%
G04 APERTURE END LIST*
D10*
%TO.C,X1*%
X16475000Y22100000D03*
X16475000Y19560000D03*
X16475000Y17020000D03*
X16475000Y14480000D03*
X16475000Y11940000D03*
X24095000Y11940000D03*
X24095000Y14480000D03*
X24095000Y17020000D03*
X24095000Y19560000D03*
X24095000Y22100000D03*
%TD*%
D11*
%TO.C,M2*%
X30480001Y40640000D03*
%TD*%
%TO.C,M4*%
X30480001Y10160000D03*
%TD*%
D12*
%TO.C,J4*%
X11570000Y15660000D03*
X9030000Y15660000D03*
X11570000Y18200000D03*
X9030000Y18200000D03*
X11570000Y20740000D03*
X9030000Y20740000D03*
X11570000Y23280000D03*
X9030000Y23280000D03*
X11570000Y25820000D03*
X9030000Y25820000D03*
X11570000Y28360000D03*
X9030000Y28360000D03*
%TD*%
D11*
%TO.C,M1*%
X10160001Y40640000D03*
%TD*%
D12*
%TO.C,J5*%
X16140001Y40530000D03*
X16140001Y43070000D03*
X18680001Y40530000D03*
X18680001Y43070000D03*
X21220001Y40530000D03*
X21220001Y43070000D03*
X23760001Y40530000D03*
X23760001Y43070000D03*
%TD*%
%TO.C,J2*%
X29160000Y34240000D03*
X31700000Y34240000D03*
X29160000Y31700000D03*
X31700000Y31700000D03*
%TD*%
%TO.C,J3*%
X29330000Y28360000D03*
X31870000Y28360000D03*
X29330000Y25820000D03*
X31870000Y25820000D03*
X29330000Y23280000D03*
X31870000Y23280000D03*
X29330000Y20740000D03*
X31870000Y20740000D03*
X29330000Y18200000D03*
X31870000Y18200000D03*
X29330000Y15660000D03*
X31870000Y15660000D03*
%TD*%
%TO.C,J1*%
X11540000Y31800000D03*
X9000000Y31800000D03*
X11540000Y34340000D03*
X9000000Y34340000D03*
%TD*%
D11*
%TO.C,M3*%
X10160001Y10160000D03*
%TD*%
M02*
