%TF.GenerationSoftware,KiCad,Pcbnew,7.0.11+1*%
%TF.CreationDate,2024-07-09T15:03:07+00:00*%
%TF.ProjectId,REL1SW01,52454c31-5357-4303-912e-6b696361645f,01B*%
%TF.SameCoordinates,Original*%
%TF.FileFunction,Copper,L2,Bot*%
%TF.FilePolarity,Positive*%
%FSLAX46Y46*%
G04 Gerber Fmt 4.6, Leading zero omitted, Abs format (unit mm)*
G04 Created by KiCad (PCBNEW 7.0.11+1) date 2024-07-09 15:03:07*
%MOMM*%
%LPD*%
G01*
G04 APERTURE LIST*
G04 Aperture macros list*
%AMRoundRect*
0 Rectangle with rounded corners*
0 $1 Rounding radius*
0 $2 $3 $4 $5 $6 $7 $8 $9 X,Y pos of 4 corners*
0 Add a 4 corners polygon primitive as box body*
4,1,4,$2,$3,$4,$5,$6,$7,$8,$9,$2,$3,0*
0 Add four circle primitives for the rounded corners*
1,1,$1+$1,$2,$3*
1,1,$1+$1,$4,$5*
1,1,$1+$1,$6,$7*
1,1,$1+$1,$8,$9*
0 Add four rect primitives between the rounded corners*
20,1,$1+$1,$2,$3,$4,$5,0*
20,1,$1+$1,$4,$5,$6,$7,0*
20,1,$1+$1,$6,$7,$8,$9,0*
20,1,$1+$1,$8,$9,$2,$3,0*%
G04 Aperture macros list end*
%ADD10C,0.081280*%
%TA.AperFunction,NonConductor*%
%ADD11C,0.081280*%
%TD*%
%ADD12C,0.101600*%
%TA.AperFunction,NonConductor*%
%ADD13C,0.101600*%
%TD*%
%TA.AperFunction,ComponentPad*%
%ADD14O,2.300000X1.600000*%
%TD*%
%TA.AperFunction,ComponentPad*%
%ADD15C,6.000000*%
%TD*%
%TA.AperFunction,ComponentPad*%
%ADD16R,1.524000X1.524000*%
%TD*%
%TA.AperFunction,SMDPad,CuDef*%
%ADD17RoundRect,0.250000X-0.450000X0.262500X-0.450000X-0.262500X0.450000X-0.262500X0.450000X0.262500X0*%
%TD*%
%TA.AperFunction,SMDPad,CuDef*%
%ADD18RoundRect,0.150000X-0.587500X-0.150000X0.587500X-0.150000X0.587500X0.150000X-0.587500X0.150000X0*%
%TD*%
%TA.AperFunction,SMDPad,CuDef*%
%ADD19RoundRect,0.250000X-1.000000X-0.650000X1.000000X-0.650000X1.000000X0.650000X-1.000000X0.650000X0*%
%TD*%
%TA.AperFunction,SMDPad,CuDef*%
%ADD20RoundRect,0.250000X0.250000X0.475000X-0.250000X0.475000X-0.250000X-0.475000X0.250000X-0.475000X0*%
%TD*%
%TA.AperFunction,SMDPad,CuDef*%
%ADD21RoundRect,0.250000X-0.250000X-0.475000X0.250000X-0.475000X0.250000X0.475000X-0.250000X0.475000X0*%
%TD*%
%TA.AperFunction,SMDPad,CuDef*%
%ADD22RoundRect,0.250000X0.650000X-1.000000X0.650000X1.000000X-0.650000X1.000000X-0.650000X-1.000000X0*%
%TD*%
%TA.AperFunction,SMDPad,CuDef*%
%ADD23RoundRect,0.250000X-0.262500X-0.450000X0.262500X-0.450000X0.262500X0.450000X-0.262500X0.450000X0*%
%TD*%
%TA.AperFunction,SMDPad,CuDef*%
%ADD24RoundRect,0.250000X1.000000X0.650000X-1.000000X0.650000X-1.000000X-0.650000X1.000000X-0.650000X0*%
%TD*%
%TA.AperFunction,Conductor*%
%ADD25C,0.800000*%
%TD*%
%TA.AperFunction,Conductor*%
%ADD26C,0.500000*%
%TD*%
G04 APERTURE END LIST*
D10*
D11*
X20191796Y15363729D02*
X20236307Y15408240D01*
X20236307Y15408240D02*
X20280817Y15497261D01*
X20280817Y15497261D02*
X20280817Y15719813D01*
X20280817Y15719813D02*
X20236307Y15808834D01*
X20236307Y15808834D02*
X20191796Y15853345D01*
X20191796Y15853345D02*
X20102775Y15897855D01*
X20102775Y15897855D02*
X20013754Y15897855D01*
X20013754Y15897855D02*
X19880223Y15853345D01*
X19880223Y15853345D02*
X19346097Y15319219D01*
X19346097Y15319219D02*
X19346097Y15897855D01*
X20280817Y16476492D02*
X20280817Y16565513D01*
X20280817Y16565513D02*
X20236307Y16654534D01*
X20236307Y16654534D02*
X20191796Y16699044D01*
X20191796Y16699044D02*
X20102775Y16743555D01*
X20102775Y16743555D02*
X19924733Y16788065D01*
X19924733Y16788065D02*
X19702181Y16788065D01*
X19702181Y16788065D02*
X19524139Y16743555D01*
X19524139Y16743555D02*
X19435118Y16699044D01*
X19435118Y16699044D02*
X19390608Y16654534D01*
X19390608Y16654534D02*
X19346097Y16565513D01*
X19346097Y16565513D02*
X19346097Y16476492D01*
X19346097Y16476492D02*
X19390608Y16387471D01*
X19390608Y16387471D02*
X19435118Y16342960D01*
X19435118Y16342960D02*
X19524139Y16298450D01*
X19524139Y16298450D02*
X19702181Y16253939D01*
X19702181Y16253939D02*
X19924733Y16253939D01*
X19924733Y16253939D02*
X20102775Y16298450D01*
X20102775Y16298450D02*
X20191796Y16342960D01*
X20191796Y16342960D02*
X20236307Y16387471D01*
X20236307Y16387471D02*
X20280817Y16476492D01*
X20191796Y17144149D02*
X20236307Y17188660D01*
X20236307Y17188660D02*
X20280817Y17277681D01*
X20280817Y17277681D02*
X20280817Y17500233D01*
X20280817Y17500233D02*
X20236307Y17589254D01*
X20236307Y17589254D02*
X20191796Y17633765D01*
X20191796Y17633765D02*
X20102775Y17678275D01*
X20102775Y17678275D02*
X20013754Y17678275D01*
X20013754Y17678275D02*
X19880223Y17633765D01*
X19880223Y17633765D02*
X19346097Y17099639D01*
X19346097Y17099639D02*
X19346097Y17678275D01*
X19969244Y18479464D02*
X19346097Y18479464D01*
X20325328Y18256912D02*
X19657670Y18034359D01*
X19657670Y18034359D02*
X19657670Y18612996D01*
D10*
D11*
X20616097Y12170615D02*
X21239244Y12170615D01*
X21061202Y12170615D02*
X21150223Y12215125D01*
X21150223Y12215125D02*
X21194733Y12259636D01*
X21194733Y12259636D02*
X21239244Y12348657D01*
X21239244Y12348657D02*
X21239244Y12437678D01*
X20616097Y12882782D02*
X20660608Y12793761D01*
X20660608Y12793761D02*
X20705118Y12749251D01*
X20705118Y12749251D02*
X20794139Y12704740D01*
X20794139Y12704740D02*
X21061202Y12704740D01*
X21061202Y12704740D02*
X21150223Y12749251D01*
X21150223Y12749251D02*
X21194733Y12793761D01*
X21194733Y12793761D02*
X21239244Y12882782D01*
X21239244Y12882782D02*
X21239244Y13016314D01*
X21239244Y13016314D02*
X21194733Y13105335D01*
X21194733Y13105335D02*
X21150223Y13149845D01*
X21150223Y13149845D02*
X21061202Y13194356D01*
X21061202Y13194356D02*
X20794139Y13194356D01*
X20794139Y13194356D02*
X20705118Y13149845D01*
X20705118Y13149845D02*
X20660608Y13105335D01*
X20660608Y13105335D02*
X20616097Y13016314D01*
X20616097Y13016314D02*
X20616097Y12882782D01*
X20616097Y13594950D02*
X21239244Y13594950D01*
X21150223Y13594950D02*
X21194733Y13639460D01*
X21194733Y13639460D02*
X21239244Y13728481D01*
X21239244Y13728481D02*
X21239244Y13862013D01*
X21239244Y13862013D02*
X21194733Y13951034D01*
X21194733Y13951034D02*
X21105712Y13995544D01*
X21105712Y13995544D02*
X20616097Y13995544D01*
X21105712Y13995544D02*
X21194733Y14040055D01*
X21194733Y14040055D02*
X21239244Y14129076D01*
X21239244Y14129076D02*
X21239244Y14262607D01*
X21239244Y14262607D02*
X21194733Y14351628D01*
X21194733Y14351628D02*
X21105712Y14396138D01*
X21105712Y14396138D02*
X20616097Y14396138D01*
X20616097Y15241837D02*
X21105712Y15241837D01*
X21105712Y15241837D02*
X21194733Y15197327D01*
X21194733Y15197327D02*
X21239244Y15108306D01*
X21239244Y15108306D02*
X21239244Y14930264D01*
X21239244Y14930264D02*
X21194733Y14841243D01*
X20660608Y15241837D02*
X20616097Y15152816D01*
X20616097Y15152816D02*
X20616097Y14930264D01*
X20616097Y14930264D02*
X20660608Y14841243D01*
X20660608Y14841243D02*
X20749628Y14796732D01*
X20749628Y14796732D02*
X20838649Y14796732D01*
X20838649Y14796732D02*
X20927670Y14841243D01*
X20927670Y14841243D02*
X20972181Y14930264D01*
X20972181Y14930264D02*
X20972181Y15152816D01*
X20972181Y15152816D02*
X21016691Y15241837D01*
X21239244Y15686942D02*
X20616097Y15686942D01*
X21150223Y15686942D02*
X21194733Y15731452D01*
X21194733Y15731452D02*
X21239244Y15820473D01*
X21239244Y15820473D02*
X21239244Y15954005D01*
X21239244Y15954005D02*
X21194733Y16043026D01*
X21194733Y16043026D02*
X21105712Y16087536D01*
X21105712Y16087536D02*
X20616097Y16087536D01*
X20972181Y16532641D02*
X20972181Y17244808D01*
X20616097Y18090507D02*
X21550817Y18090507D01*
X20660608Y18090507D02*
X20616097Y18001486D01*
X20616097Y18001486D02*
X20616097Y17823444D01*
X20616097Y17823444D02*
X20660608Y17734423D01*
X20660608Y17734423D02*
X20705118Y17689913D01*
X20705118Y17689913D02*
X20794139Y17645402D01*
X20794139Y17645402D02*
X21061202Y17645402D01*
X21061202Y17645402D02*
X21150223Y17689913D01*
X21150223Y17689913D02*
X21194733Y17734423D01*
X21194733Y17734423D02*
X21239244Y17823444D01*
X21239244Y17823444D02*
X21239244Y18001486D01*
X21239244Y18001486D02*
X21194733Y18090507D01*
X21239244Y18446591D02*
X20616097Y18669143D01*
X20616097Y18669143D02*
X21239244Y18891696D01*
X20616097Y19381311D02*
X20660608Y19292290D01*
X20660608Y19292290D02*
X20705118Y19247780D01*
X20705118Y19247780D02*
X20794139Y19203269D01*
X20794139Y19203269D02*
X21061202Y19203269D01*
X21061202Y19203269D02*
X21150223Y19247780D01*
X21150223Y19247780D02*
X21194733Y19292290D01*
X21194733Y19292290D02*
X21239244Y19381311D01*
X21239244Y19381311D02*
X21239244Y19514843D01*
X21239244Y19514843D02*
X21194733Y19603864D01*
X21194733Y19603864D02*
X21150223Y19648374D01*
X21150223Y19648374D02*
X21061202Y19692885D01*
X21061202Y19692885D02*
X20794139Y19692885D01*
X20794139Y19692885D02*
X20705118Y19648374D01*
X20705118Y19648374D02*
X20660608Y19603864D01*
X20660608Y19603864D02*
X20616097Y19514843D01*
X20616097Y19514843D02*
X20616097Y19381311D01*
X20616097Y20093479D02*
X21239244Y20093479D01*
X21061202Y20093479D02*
X21150223Y20137989D01*
X21150223Y20137989D02*
X21194733Y20182500D01*
X21194733Y20182500D02*
X21239244Y20271521D01*
X21239244Y20271521D02*
X21239244Y20360542D01*
X20616097Y21072709D02*
X21105712Y21072709D01*
X21105712Y21072709D02*
X21194733Y21028199D01*
X21194733Y21028199D02*
X21239244Y20939178D01*
X21239244Y20939178D02*
X21239244Y20761136D01*
X21239244Y20761136D02*
X21194733Y20672115D01*
X20660608Y21072709D02*
X20616097Y20983688D01*
X20616097Y20983688D02*
X20616097Y20761136D01*
X20616097Y20761136D02*
X20660608Y20672115D01*
X20660608Y20672115D02*
X20749628Y20627604D01*
X20749628Y20627604D02*
X20838649Y20627604D01*
X20838649Y20627604D02*
X20927670Y20672115D01*
X20927670Y20672115D02*
X20972181Y20761136D01*
X20972181Y20761136D02*
X20972181Y20983688D01*
X20972181Y20983688D02*
X21016691Y21072709D01*
X20616097Y21517814D02*
X21550817Y21517814D01*
X20972181Y21606835D02*
X20616097Y21873898D01*
X21239244Y21873898D02*
X20883160Y21517814D01*
D12*
D13*
X24705911Y7447174D02*
X25095378Y8003555D01*
X25373568Y7447174D02*
X25373568Y8615574D01*
X25373568Y8615574D02*
X24928463Y8615574D01*
X24928463Y8615574D02*
X24817187Y8559936D01*
X24817187Y8559936D02*
X24761549Y8504298D01*
X24761549Y8504298D02*
X24705911Y8393022D01*
X24705911Y8393022D02*
X24705911Y8226108D01*
X24705911Y8226108D02*
X24761549Y8114832D01*
X24761549Y8114832D02*
X24817187Y8059193D01*
X24817187Y8059193D02*
X24928463Y8003555D01*
X24928463Y8003555D02*
X25373568Y8003555D01*
X24205168Y8059193D02*
X23815701Y8059193D01*
X23648787Y7447174D02*
X24205168Y7447174D01*
X24205168Y7447174D02*
X24205168Y8615574D01*
X24205168Y8615574D02*
X23648787Y8615574D01*
X22591663Y7447174D02*
X23148044Y7447174D01*
X23148044Y7447174D02*
X23148044Y8615574D01*
X21590177Y7447174D02*
X22257834Y7447174D01*
X21924006Y7447174D02*
X21924006Y8615574D01*
X21924006Y8615574D02*
X22035282Y8448660D01*
X22035282Y8448660D02*
X22146558Y8337384D01*
X22146558Y8337384D02*
X22257834Y8281746D01*
X21145072Y7502812D02*
X20978158Y7447174D01*
X20978158Y7447174D02*
X20699967Y7447174D01*
X20699967Y7447174D02*
X20588691Y7502812D01*
X20588691Y7502812D02*
X20533053Y7558451D01*
X20533053Y7558451D02*
X20477415Y7669727D01*
X20477415Y7669727D02*
X20477415Y7781003D01*
X20477415Y7781003D02*
X20533053Y7892279D01*
X20533053Y7892279D02*
X20588691Y7947917D01*
X20588691Y7947917D02*
X20699967Y8003555D01*
X20699967Y8003555D02*
X20922520Y8059193D01*
X20922520Y8059193D02*
X21033796Y8114832D01*
X21033796Y8114832D02*
X21089434Y8170470D01*
X21089434Y8170470D02*
X21145072Y8281746D01*
X21145072Y8281746D02*
X21145072Y8393022D01*
X21145072Y8393022D02*
X21089434Y8504298D01*
X21089434Y8504298D02*
X21033796Y8559936D01*
X21033796Y8559936D02*
X20922520Y8615574D01*
X20922520Y8615574D02*
X20644329Y8615574D01*
X20644329Y8615574D02*
X20477415Y8559936D01*
X20087948Y8615574D02*
X19809758Y7447174D01*
X19809758Y7447174D02*
X19587205Y8281746D01*
X19587205Y8281746D02*
X19364653Y7447174D01*
X19364653Y7447174D02*
X19086463Y8615574D01*
X18418806Y8615574D02*
X18307529Y8615574D01*
X18307529Y8615574D02*
X18196253Y8559936D01*
X18196253Y8559936D02*
X18140615Y8504298D01*
X18140615Y8504298D02*
X18084977Y8393022D01*
X18084977Y8393022D02*
X18029339Y8170470D01*
X18029339Y8170470D02*
X18029339Y7892279D01*
X18029339Y7892279D02*
X18084977Y7669727D01*
X18084977Y7669727D02*
X18140615Y7558451D01*
X18140615Y7558451D02*
X18196253Y7502812D01*
X18196253Y7502812D02*
X18307529Y7447174D01*
X18307529Y7447174D02*
X18418806Y7447174D01*
X18418806Y7447174D02*
X18530082Y7502812D01*
X18530082Y7502812D02*
X18585720Y7558451D01*
X18585720Y7558451D02*
X18641358Y7669727D01*
X18641358Y7669727D02*
X18696996Y7892279D01*
X18696996Y7892279D02*
X18696996Y8170470D01*
X18696996Y8170470D02*
X18641358Y8393022D01*
X18641358Y8393022D02*
X18585720Y8504298D01*
X18585720Y8504298D02*
X18530082Y8559936D01*
X18530082Y8559936D02*
X18418806Y8615574D01*
X16916577Y7447174D02*
X17584234Y7447174D01*
X17250406Y7447174D02*
X17250406Y8615574D01*
X17250406Y8615574D02*
X17361682Y8448660D01*
X17361682Y8448660D02*
X17472958Y8337384D01*
X17472958Y8337384D02*
X17584234Y8281746D01*
X16026367Y8059193D02*
X15859453Y8003555D01*
X15859453Y8003555D02*
X15803815Y7947917D01*
X15803815Y7947917D02*
X15748177Y7836641D01*
X15748177Y7836641D02*
X15748177Y7669727D01*
X15748177Y7669727D02*
X15803815Y7558451D01*
X15803815Y7558451D02*
X15859453Y7502812D01*
X15859453Y7502812D02*
X15970729Y7447174D01*
X15970729Y7447174D02*
X16415834Y7447174D01*
X16415834Y7447174D02*
X16415834Y8615574D01*
X16415834Y8615574D02*
X16026367Y8615574D01*
X16026367Y8615574D02*
X15915091Y8559936D01*
X15915091Y8559936D02*
X15859453Y8504298D01*
X15859453Y8504298D02*
X15803815Y8393022D01*
X15803815Y8393022D02*
X15803815Y8281746D01*
X15803815Y8281746D02*
X15859453Y8170470D01*
X15859453Y8170470D02*
X15915091Y8114832D01*
X15915091Y8114832D02*
X16026367Y8059193D01*
X16026367Y8059193D02*
X16415834Y8059193D01*
D12*
D13*
X22516068Y9669674D02*
X22516068Y10838074D01*
X22516068Y10838074D02*
X22126601Y10003503D01*
X22126601Y10003503D02*
X21737135Y10838074D01*
X21737135Y10838074D02*
X21737135Y9669674D01*
X20624373Y9669674D02*
X21180754Y9669674D01*
X21180754Y9669674D02*
X21180754Y10838074D01*
X20290544Y10003503D02*
X19734163Y10003503D01*
X20401820Y9669674D02*
X20012354Y10838074D01*
X20012354Y10838074D02*
X19622887Y9669674D01*
X18843953Y10281693D02*
X18677039Y10226055D01*
X18677039Y10226055D02*
X18621401Y10170417D01*
X18621401Y10170417D02*
X18565763Y10059141D01*
X18565763Y10059141D02*
X18565763Y9892227D01*
X18565763Y9892227D02*
X18621401Y9780951D01*
X18621401Y9780951D02*
X18677039Y9725312D01*
X18677039Y9725312D02*
X18788315Y9669674D01*
X18788315Y9669674D02*
X19233420Y9669674D01*
X19233420Y9669674D02*
X19233420Y10838074D01*
X19233420Y10838074D02*
X18843953Y10838074D01*
X18843953Y10838074D02*
X18732677Y10782436D01*
X18732677Y10782436D02*
X18677039Y10726798D01*
X18677039Y10726798D02*
X18621401Y10615522D01*
X18621401Y10615522D02*
X18621401Y10504246D01*
X18621401Y10504246D02*
X18677039Y10392970D01*
X18677039Y10392970D02*
X18732677Y10337332D01*
X18732677Y10337332D02*
X18843953Y10281693D01*
X18843953Y10281693D02*
X19233420Y10281693D01*
D14*
%TO.P,X1,1,P$1*%
%TO.N,Net-(X1-P$1)*%
X16575000Y23100000D03*
%TO.P,X1,2,P$2*%
%TO.N,Net-(X1-P$2)*%
X16575000Y20560000D03*
%TO.P,X1,3,P$3*%
%TO.N,Net-(X1-P$3)*%
X16575000Y18020000D03*
%TO.P,X1,4,P$4*%
%TO.N,Net-(X1-P$4)*%
X16575000Y15480000D03*
%TO.P,X1,5,P$5*%
%TO.N,Net-(X1-P$5)*%
X16575000Y12940000D03*
%TO.P,X1,6,P$6*%
%TO.N,Net-(X1-P$6)*%
X24195000Y12940000D03*
%TO.P,X1,7,P$7*%
%TO.N,Net-(X1-P$7)*%
X24195000Y15480000D03*
%TO.P,X1,8,P$8*%
%TO.N,Net-(X1-P$8)*%
X24195000Y18020000D03*
%TO.P,X1,9,P$9*%
%TO.N,Net-(X1-P$9)*%
X24195000Y20560000D03*
%TO.P,X1,10,P$10*%
%TO.N,Net-(X1-P$10)*%
X24195000Y23100000D03*
%TD*%
D15*
%TO.P,M2,1*%
%TO.N,GND*%
X30480001Y40640000D03*
%TD*%
%TO.P,M4,1*%
%TO.N,GND*%
X30480001Y10160000D03*
%TD*%
D16*
%TO.P,J4,1*%
%TO.N,Net-(X1-P$5)*%
X11570000Y15660000D03*
%TO.P,J4,2*%
X9030000Y15660000D03*
%TO.P,J4,3*%
%TO.N,Net-(X1-P$4)*%
X11570000Y18200000D03*
%TO.P,J4,4*%
X9030000Y18200000D03*
%TO.P,J4,5*%
%TO.N,Net-(X1-P$3)*%
X11570000Y20740000D03*
%TO.P,J4,6*%
X9030000Y20740000D03*
%TO.P,J4,7*%
%TO.N,Net-(X1-P$2)*%
X11570000Y23280000D03*
%TO.P,J4,8*%
X9030000Y23280000D03*
%TO.P,J4,9*%
%TO.N,Net-(X1-P$1)*%
X11570000Y25820000D03*
%TO.P,J4,10*%
X9030000Y25820000D03*
%TO.P,J4,11*%
%TO.N,+VCC*%
X11570000Y28360000D03*
%TO.P,J4,12*%
X9030000Y28360000D03*
%TD*%
D15*
%TO.P,M1,1*%
%TO.N,GND*%
X10160001Y40640000D03*
%TD*%
D16*
%TO.P,J5,1*%
%TO.N,GND*%
X16140001Y40530000D03*
%TO.P,J5,2*%
X16140001Y43070000D03*
%TO.P,J5,3*%
%TO.N,+VCC*%
X18680001Y40530000D03*
%TO.P,J5,4*%
X18680001Y43070000D03*
%TO.P,J5,5*%
X21220001Y40530000D03*
%TO.P,J5,6*%
X21220001Y43070000D03*
%TO.P,J5,7*%
%TO.N,GND*%
X23760001Y40530000D03*
%TO.P,J5,8*%
X23760001Y43070000D03*
%TD*%
%TO.P,J2,1*%
%TO.N,/OUT1*%
X29360000Y34240000D03*
%TO.P,J2,2*%
X31900000Y34240000D03*
%TO.P,J2,3*%
%TO.N,/OUT2*%
X29360000Y31700000D03*
%TO.P,J2,4*%
X31900000Y31700000D03*
%TD*%
%TO.P,J3,1*%
%TO.N,+VCC*%
X29330000Y28360000D03*
%TO.P,J3,2*%
X31870000Y28360000D03*
%TO.P,J3,3*%
%TO.N,Net-(X1-P$10)*%
X29330000Y25820000D03*
%TO.P,J3,4*%
X31870000Y25820000D03*
%TO.P,J3,5*%
%TO.N,Net-(X1-P$9)*%
X29330000Y23280000D03*
%TO.P,J3,6*%
X31870000Y23280000D03*
%TO.P,J3,7*%
%TO.N,Net-(X1-P$8)*%
X29330000Y20740000D03*
%TO.P,J3,8*%
X31870000Y20740000D03*
%TO.P,J3,9*%
%TO.N,Net-(X1-P$7)*%
X29330000Y18200000D03*
%TO.P,J3,10*%
X31870000Y18200000D03*
%TO.P,J3,11*%
%TO.N,Net-(X1-P$6)*%
X29330000Y15660000D03*
%TO.P,J3,12*%
X31870000Y15660000D03*
%TD*%
%TO.P,J1,1*%
%TO.N,/IN2*%
X11540000Y31800000D03*
%TO.P,J1,2*%
X9000000Y31800000D03*
%TO.P,J1,3*%
%TO.N,/IN1*%
X11540000Y34340000D03*
%TO.P,J1,4*%
X9000000Y34340000D03*
%TD*%
D15*
%TO.P,M3,1*%
%TO.N,GND*%
X10160001Y10160000D03*
%TD*%
D17*
%TO.P,R4,1,1*%
%TO.N,GND*%
X19300000Y31512500D03*
%TO.P,R4,2,2*%
%TO.N,Net-(D2-K)*%
X19300000Y29687500D03*
%TD*%
D18*
%TO.P,T2,1,G*%
%TO.N,Net-(D2-K)*%
X21325000Y29650000D03*
%TO.P,T2,2,S*%
%TO.N,GND*%
X21325000Y31550000D03*
%TO.P,T2,3,D*%
%TO.N,/OUT2*%
X23200000Y30600000D03*
%TD*%
D19*
%TO.P,D2,1,K*%
%TO.N,Net-(D2-K)*%
X15100000Y26500000D03*
%TO.P,D2,2,A*%
%TO.N,GND*%
X19100000Y26500000D03*
%TD*%
D20*
%TO.P,C1,1*%
%TO.N,+VCC*%
X21200000Y38300000D03*
%TO.P,C1,2*%
%TO.N,GND*%
X19300000Y38300000D03*
%TD*%
D18*
%TO.P,T1,1,G*%
%TO.N,Net-(D1-K)*%
X21362500Y33650000D03*
%TO.P,T1,2,S*%
%TO.N,GND*%
X21362500Y35550000D03*
%TO.P,T1,3,D*%
%TO.N,/OUT1*%
X23237500Y34600000D03*
%TD*%
D21*
%TO.P,C2,1*%
%TO.N,+VCC*%
X22800000Y38300000D03*
%TO.P,C2,2*%
%TO.N,GND*%
X24700000Y38300000D03*
%TD*%
D22*
%TO.P,D3,1,K*%
%TO.N,+VCC*%
X26000000Y30000000D03*
%TO.P,D3,2,A*%
%TO.N,/OUT1*%
X26000000Y34000000D03*
%TD*%
%TO.P,D1,1,K*%
%TO.N,Net-(D1-K)*%
X16500000Y33600000D03*
%TO.P,D1,2,A*%
%TO.N,GND*%
X16500000Y37600000D03*
%TD*%
D23*
%TO.P,R1,1,1*%
%TO.N,/IN1*%
X15687500Y31000000D03*
%TO.P,R1,2,2*%
%TO.N,Net-(D1-K)*%
X17512500Y31000000D03*
%TD*%
D17*
%TO.P,R2,1,1*%
%TO.N,/IN2*%
X13900000Y30925000D03*
%TO.P,R2,2,2*%
%TO.N,Net-(D2-K)*%
X13900000Y29100000D03*
%TD*%
D24*
%TO.P,D4,1,K*%
%TO.N,+VCC*%
X26200000Y26500000D03*
%TO.P,D4,2,A*%
%TO.N,/OUT2*%
X22200000Y26500000D03*
%TD*%
D17*
%TO.P,R3,1,1*%
%TO.N,GND*%
X19300000Y35512500D03*
%TO.P,R3,2,2*%
%TO.N,Net-(D1-K)*%
X19300000Y33687500D03*
%TD*%
D25*
%TO.N,+VCC*%
X21220001Y43100000D02*
X21220001Y39579999D01*
X24260000Y36240000D02*
X32960000Y36240000D01*
X33900000Y30500000D02*
X32300000Y28900000D01*
X32960000Y36240000D02*
X33900000Y35300000D01*
X21220001Y40530000D02*
X21220001Y38320001D01*
X22800000Y37700000D02*
X24260000Y36240000D01*
X18710001Y43100000D02*
X21220001Y43100000D01*
X33900000Y35300000D02*
X33900000Y30500000D01*
X21200000Y38300000D02*
X22800000Y38300000D01*
D26*
X21220001Y40530000D02*
X18680001Y40530000D01*
D25*
X21220001Y38320001D02*
X21200000Y38300000D01*
X22800000Y38300000D02*
X22800000Y37700000D01*
X26100000Y28900000D02*
X26000000Y28800000D01*
X18680001Y43070000D02*
X18710001Y43100000D01*
X26000000Y30000000D02*
X26000000Y26800000D01*
X32300000Y28900000D02*
X26100000Y28900000D01*
D26*
%TO.N,/IN2*%
X12800000Y31800000D02*
X13675000Y30925000D01*
X9185000Y31800000D02*
X12800000Y31800000D01*
%TO.N,/IN1*%
X8925000Y34340000D02*
X12560000Y34340000D01*
X15687500Y31212500D02*
X15687500Y31000000D01*
X12560000Y34340000D02*
X15687500Y31212500D01*
D25*
%TO.N,/OUT1*%
X31340000Y34600000D02*
X31700000Y34240000D01*
X23237500Y34600000D02*
X31340000Y34600000D01*
%TO.N,/OUT2*%
X23200000Y31100000D02*
X24100000Y32000000D01*
X24100000Y32000000D02*
X31400000Y32000000D01*
X31400000Y32000000D02*
X31700000Y31700000D01*
X22600000Y26800000D02*
X23200000Y27400000D01*
X23200000Y27400000D02*
X23200000Y31100000D01*
%TO.N,Net-(X1-P$10)*%
X31870000Y25820000D02*
X28920000Y25820000D01*
X26200000Y23100000D02*
X24095000Y23100000D01*
X28920000Y25820000D02*
X26200000Y23100000D01*
%TO.N,Net-(X1-P$9)*%
X31870000Y23280000D02*
X28880000Y23280000D01*
X28880000Y23280000D02*
X26160000Y20560000D01*
X26160000Y20560000D02*
X24095000Y20560000D01*
%TO.N,Net-(X1-P$8)*%
X31870000Y20740000D02*
X28840000Y20740000D01*
X26120000Y18020000D02*
X24095000Y18020000D01*
X28840000Y20740000D02*
X26120000Y18020000D01*
%TO.N,Net-(X1-P$7)*%
X28807500Y18200000D02*
X26087500Y15480000D01*
X26087500Y15480000D02*
X24095000Y15480000D01*
X31870000Y18200000D02*
X28807500Y18200000D01*
%TO.N,Net-(X1-P$6)*%
X26140000Y12940000D02*
X24095000Y12940000D01*
X31870000Y15660000D02*
X28860000Y15660000D01*
X28860000Y15660000D02*
X26140000Y12940000D01*
%TO.N,Net-(X1-P$5)*%
X12040000Y15660000D02*
X14760000Y12940000D01*
X14760000Y12940000D02*
X16475000Y12940000D01*
X9030000Y15660000D02*
X12040000Y15660000D01*
%TO.N,Net-(X1-P$4)*%
X14620000Y15480000D02*
X16475000Y15480000D01*
X9030000Y18200000D02*
X11900000Y18200000D01*
X11900000Y18200000D02*
X14620000Y15480000D01*
%TO.N,Net-(X1-P$3)*%
X14777500Y18020000D02*
X16475000Y18020000D01*
X12057500Y20740000D02*
X14777500Y18020000D01*
X9030000Y20740000D02*
X12057500Y20740000D01*
%TO.N,Net-(X1-P$2)*%
X14857500Y20560000D02*
X16475000Y20560000D01*
X12137500Y23280000D02*
X14857500Y20560000D01*
X9030000Y23280000D02*
X12137500Y23280000D01*
%TO.N,Net-(X1-P$1)*%
X12080000Y25820000D02*
X14800000Y23100000D01*
X14800000Y23100000D02*
X16475000Y23100000D01*
X9030000Y25820000D02*
X12080000Y25820000D01*
D26*
%TO.N,Net-(D1-K)*%
X16587500Y33687500D02*
X16500000Y33600000D01*
X20862500Y33650000D02*
X20825000Y33687500D01*
X17512500Y33600000D02*
X17512500Y31000000D01*
X20825000Y33687500D02*
X16587500Y33687500D01*
%TO.N,Net-(D2-K)*%
X14200000Y29300000D02*
X14000000Y29100000D01*
X20475000Y29300000D02*
X14200000Y29300000D01*
X20825000Y29650000D02*
X20475000Y29300000D01*
X14000000Y29100000D02*
X14000000Y26700000D01*
%TD*%
%TA.AperFunction,Conductor*%
%TO.N,GND*%
G36*
X35239032Y45421287D02*
G01*
X35275577Y45370987D01*
X35280501Y45339900D01*
X35280501Y5460100D01*
X35261288Y5400969D01*
X35210988Y5364424D01*
X35179901Y5359500D01*
X5460100Y5359500D01*
X5400969Y5378713D01*
X5364424Y5429013D01*
X5359500Y5460100D01*
X5359500Y8823460D01*
X15543113Y8823460D01*
X15543113Y7239288D01*
X25581454Y7239288D01*
X25581454Y8823460D01*
X15543113Y8823460D01*
X5359500Y8823460D01*
X5359500Y11045960D01*
X18360699Y11045960D01*
X18360699Y9461788D01*
X22720643Y9461788D01*
X22720643Y11045960D01*
X18360699Y11045960D01*
X5359500Y11045960D01*
X5359500Y14882945D01*
X8115100Y14882945D01*
X8123971Y14838343D01*
X8123973Y14838339D01*
X8157764Y14787768D01*
X8157765Y14787767D01*
X8157766Y14787766D01*
X8208342Y14753972D01*
X8252943Y14745100D01*
X9807056Y14745101D01*
X9851658Y14753972D01*
X9902234Y14787766D01*
X9936028Y14838342D01*
X9944900Y14882943D01*
X9944900Y15006500D01*
X9964113Y15065631D01*
X10014413Y15102176D01*
X10045500Y15107100D01*
X10554501Y15107100D01*
X10613632Y15087887D01*
X10650177Y15037587D01*
X10655101Y15006500D01*
X10655101Y14882945D01*
X10663971Y14838343D01*
X10663973Y14838339D01*
X10697764Y14787768D01*
X10697765Y14787767D01*
X10697766Y14787766D01*
X10748342Y14753972D01*
X10792943Y14745100D01*
X12131310Y14745101D01*
X12190441Y14725888D01*
X12202445Y14715636D01*
X14361159Y12556922D01*
X14363546Y12554452D01*
X14407791Y12507077D01*
X14444103Y12484996D01*
X14452609Y12479207D01*
X14486471Y12453528D01*
X14505140Y12446166D01*
X14520505Y12438534D01*
X14537649Y12428108D01*
X14537650Y12428108D01*
X14537653Y12428106D01*
X14578579Y12416640D01*
X14588329Y12413360D01*
X14627862Y12397770D01*
X14647825Y12395719D01*
X14664681Y12392516D01*
X14684006Y12387100D01*
X14726492Y12387100D01*
X14736779Y12386573D01*
X14779054Y12382227D01*
X14798831Y12385638D01*
X14815924Y12387100D01*
X15392680Y12387100D01*
X15451811Y12367887D01*
X15465594Y12355810D01*
X15467583Y12353718D01*
X15467584Y12353716D01*
X15601106Y12213251D01*
X15760171Y12102539D01*
X15938266Y12026112D01*
X16128100Y11987100D01*
X16128101Y11987100D01*
X16973322Y11987100D01*
X17117807Y12001793D01*
X17117812Y12001794D01*
X17205723Y12029377D01*
X17302720Y12059809D01*
X17472169Y12153861D01*
X17619217Y12280098D01*
X17737843Y12433351D01*
X17823192Y12607346D01*
X17871769Y12794960D01*
X17881585Y12988512D01*
X17852238Y13180079D01*
X17784930Y13361816D01*
X17682416Y13526284D01*
X17548894Y13666749D01*
X17389829Y13777461D01*
X17211734Y13853888D01*
X17211731Y13853889D01*
X17211730Y13853889D01*
X17123628Y13871995D01*
X17021900Y13892900D01*
X16176678Y13892900D01*
X16032192Y13878208D01*
X16032187Y13878207D01*
X15847281Y13820192D01*
X15677830Y13726139D01*
X15677829Y13726138D01*
X15530784Y13599904D01*
X15478163Y13531922D01*
X15426775Y13496923D01*
X15398611Y13492900D01*
X15030688Y13492900D01*
X14971557Y13512113D01*
X14959553Y13522365D01*
X12514364Y15967555D01*
X12486138Y16022953D01*
X12484899Y16038690D01*
X12484899Y16437056D01*
X12476028Y16481658D01*
X12476026Y16481662D01*
X12442235Y16532233D01*
X12442233Y16532235D01*
X12391657Y16566029D01*
X12355928Y16573136D01*
X12347057Y16574900D01*
X12347056Y16574900D01*
X10792944Y16574900D01*
X10748342Y16566029D01*
X10748338Y16566027D01*
X10697767Y16532236D01*
X10697765Y16532234D01*
X10663971Y16481658D01*
X10655100Y16437057D01*
X10655100Y16313500D01*
X10635887Y16254369D01*
X10585587Y16217824D01*
X10554500Y16212900D01*
X10045499Y16212900D01*
X9986368Y16232113D01*
X9949823Y16282413D01*
X9944899Y16313500D01*
X9944899Y16437056D01*
X9936028Y16481658D01*
X9936026Y16481662D01*
X9902235Y16532233D01*
X9902233Y16532235D01*
X9851657Y16566029D01*
X9815928Y16573136D01*
X9807057Y16574900D01*
X9807056Y16574900D01*
X8252944Y16574900D01*
X8208342Y16566029D01*
X8208338Y16566027D01*
X8157767Y16532236D01*
X8157765Y16532234D01*
X8123971Y16481658D01*
X8115100Y16437057D01*
X8115100Y14882945D01*
X5359500Y14882945D01*
X5359500Y17422945D01*
X8115100Y17422945D01*
X8123971Y17378343D01*
X8123973Y17378339D01*
X8157764Y17327768D01*
X8157765Y17327767D01*
X8157766Y17327766D01*
X8208342Y17293972D01*
X8252943Y17285100D01*
X9807056Y17285101D01*
X9851658Y17293972D01*
X9902234Y17327766D01*
X9936028Y17378342D01*
X9944900Y17422943D01*
X9944900Y17546500D01*
X9964113Y17605631D01*
X10014413Y17642176D01*
X10045500Y17647100D01*
X10554501Y17647100D01*
X10613632Y17627887D01*
X10650177Y17577587D01*
X10655101Y17546500D01*
X10655101Y17422945D01*
X10663971Y17378343D01*
X10663973Y17378339D01*
X10697764Y17327768D01*
X10697765Y17327767D01*
X10697766Y17327766D01*
X10748342Y17293972D01*
X10792943Y17285100D01*
X11991310Y17285101D01*
X12050441Y17265888D01*
X12062445Y17255636D01*
X14221159Y15096922D01*
X14223546Y15094452D01*
X14267791Y15047077D01*
X14304103Y15024996D01*
X14312609Y15019207D01*
X14346471Y14993528D01*
X14365140Y14986166D01*
X14380505Y14978534D01*
X14397649Y14968108D01*
X14397650Y14968108D01*
X14397653Y14968106D01*
X14438579Y14956640D01*
X14448329Y14953360D01*
X14487862Y14937770D01*
X14507825Y14935719D01*
X14524681Y14932516D01*
X14544006Y14927100D01*
X14586492Y14927100D01*
X14596779Y14926573D01*
X14639054Y14922227D01*
X14658831Y14925638D01*
X14675924Y14927100D01*
X15392680Y14927100D01*
X15451811Y14907887D01*
X15465594Y14895810D01*
X15467583Y14893718D01*
X15467584Y14893716D01*
X15601106Y14753251D01*
X15760171Y14642539D01*
X15938266Y14566112D01*
X16128100Y14527100D01*
X16128101Y14527100D01*
X16973322Y14527100D01*
X17117807Y14541793D01*
X17117812Y14541794D01*
X17205723Y14569377D01*
X17302720Y14599809D01*
X17472169Y14693861D01*
X17619217Y14820098D01*
X17737843Y14973351D01*
X17810922Y15122331D01*
X19149209Y15122331D01*
X20318609Y15122331D01*
X20377740Y15103118D01*
X20414285Y15052818D01*
X20419209Y15021731D01*
X20419209Y11975985D01*
X21747705Y11975985D01*
X21747705Y12891488D01*
X22888415Y12891488D01*
X22917762Y12699919D01*
X22961250Y12582500D01*
X22985070Y12518184D01*
X23049229Y12415251D01*
X23086278Y12355810D01*
X23087584Y12353716D01*
X23221106Y12213251D01*
X23380171Y12102539D01*
X23558266Y12026112D01*
X23748100Y11987100D01*
X23748101Y11987100D01*
X24593322Y11987100D01*
X24737807Y12001793D01*
X24737812Y12001794D01*
X24825723Y12029377D01*
X24922720Y12059809D01*
X25092169Y12153861D01*
X25239217Y12280098D01*
X25291837Y12348078D01*
X25343225Y12383077D01*
X25371389Y12387100D01*
X26128856Y12387100D01*
X26132291Y12387041D01*
X26197073Y12384828D01*
X26238372Y12394893D01*
X26248477Y12396813D01*
X26290573Y12402598D01*
X26308981Y12410595D01*
X26325226Y12416059D01*
X26344741Y12420813D01*
X26381796Y12441650D01*
X26390994Y12446218D01*
X26429979Y12463150D01*
X26445548Y12475818D01*
X26459729Y12485470D01*
X26477223Y12495305D01*
X26507276Y12525360D01*
X26514893Y12532235D01*
X26547878Y12559068D01*
X26559459Y12575477D01*
X26570498Y12588581D01*
X28697553Y14715637D01*
X28752951Y14743862D01*
X28768688Y14745101D01*
X30107056Y14745101D01*
X30151658Y14753972D01*
X30202234Y14787766D01*
X30236028Y14838342D01*
X30244900Y14882943D01*
X30244900Y15006500D01*
X30264113Y15065631D01*
X30314413Y15102176D01*
X30345500Y15107100D01*
X30854501Y15107100D01*
X30913632Y15087887D01*
X30950177Y15037587D01*
X30955101Y15006500D01*
X30955101Y14882945D01*
X30963971Y14838343D01*
X30963973Y14838339D01*
X30997764Y14787768D01*
X30997765Y14787767D01*
X30997766Y14787766D01*
X31048342Y14753972D01*
X31092943Y14745100D01*
X32647056Y14745101D01*
X32691658Y14753972D01*
X32742234Y14787766D01*
X32776028Y14838342D01*
X32784900Y14882943D01*
X32784899Y16437056D01*
X32776028Y16481658D01*
X32776026Y16481662D01*
X32742235Y16532233D01*
X32742233Y16532235D01*
X32691657Y16566029D01*
X32655928Y16573136D01*
X32647057Y16574900D01*
X32647056Y16574900D01*
X31092944Y16574900D01*
X31048342Y16566029D01*
X31048338Y16566027D01*
X30997767Y16532236D01*
X30997765Y16532234D01*
X30963971Y16481658D01*
X30955100Y16437057D01*
X30955100Y16313500D01*
X30935887Y16254369D01*
X30885587Y16217824D01*
X30854500Y16212900D01*
X30345499Y16212900D01*
X30286368Y16232113D01*
X30249823Y16282413D01*
X30244899Y16313500D01*
X30244899Y16437056D01*
X30236028Y16481658D01*
X30236026Y16481662D01*
X30202235Y16532233D01*
X30202233Y16532235D01*
X30151657Y16566029D01*
X30115928Y16573136D01*
X30107057Y16574900D01*
X30107056Y16574900D01*
X28552944Y16574900D01*
X28508342Y16566029D01*
X28508338Y16566027D01*
X28457767Y16532236D01*
X28457765Y16532234D01*
X28423971Y16481658D01*
X28415100Y16437057D01*
X28415100Y16038689D01*
X28395887Y15979558D01*
X28385635Y15967554D01*
X25940446Y13522365D01*
X25885048Y13494139D01*
X25869311Y13492900D01*
X25377320Y13492900D01*
X25318189Y13512113D01*
X25304406Y13524190D01*
X25297056Y13531922D01*
X25168894Y13666749D01*
X25009829Y13777461D01*
X24831734Y13853888D01*
X24831731Y13853889D01*
X24831730Y13853889D01*
X24743628Y13871995D01*
X24641900Y13892900D01*
X23796678Y13892900D01*
X23652192Y13878208D01*
X23652187Y13878207D01*
X23467281Y13820192D01*
X23297830Y13726139D01*
X23297829Y13726138D01*
X23150784Y13599904D01*
X23032157Y13446650D01*
X22946808Y13272655D01*
X22898231Y13085039D01*
X22888415Y12891490D01*
X22888415Y12891488D01*
X21747705Y12891488D01*
X21747705Y15431488D01*
X22888415Y15431488D01*
X22917762Y15239919D01*
X22968428Y15103118D01*
X22985070Y15058184D01*
X23049229Y14955251D01*
X23087583Y14893717D01*
X23097825Y14882943D01*
X23221106Y14753251D01*
X23380171Y14642539D01*
X23558266Y14566112D01*
X23748100Y14527100D01*
X23748101Y14527100D01*
X24593322Y14527100D01*
X24737807Y14541793D01*
X24737812Y14541794D01*
X24825723Y14569377D01*
X24922720Y14599809D01*
X25092169Y14693861D01*
X25239217Y14820098D01*
X25291837Y14888078D01*
X25343225Y14923077D01*
X25371389Y14927100D01*
X26076356Y14927100D01*
X26079791Y14927041D01*
X26144573Y14924828D01*
X26185872Y14934893D01*
X26195977Y14936813D01*
X26238073Y14942598D01*
X26256481Y14950595D01*
X26272726Y14956059D01*
X26292241Y14960813D01*
X26329296Y14981650D01*
X26338494Y14986218D01*
X26377479Y15003150D01*
X26393048Y15015818D01*
X26407229Y15025470D01*
X26424723Y15035305D01*
X26454776Y15065360D01*
X26462393Y15072235D01*
X26495378Y15099068D01*
X26506959Y15115477D01*
X26517998Y15128581D01*
X28645053Y17255637D01*
X28700451Y17283862D01*
X28716188Y17285101D01*
X30107056Y17285101D01*
X30151658Y17293972D01*
X30202234Y17327766D01*
X30236028Y17378342D01*
X30244900Y17422943D01*
X30244900Y17546500D01*
X30264113Y17605631D01*
X30314413Y17642176D01*
X30345500Y17647100D01*
X30854501Y17647100D01*
X30913632Y17627887D01*
X30950177Y17577587D01*
X30955101Y17546500D01*
X30955101Y17422945D01*
X30963971Y17378343D01*
X30963973Y17378339D01*
X30997764Y17327768D01*
X30997765Y17327767D01*
X30997766Y17327766D01*
X31048342Y17293972D01*
X31092943Y17285100D01*
X32647056Y17285101D01*
X32691658Y17293972D01*
X32742234Y17327766D01*
X32776028Y17378342D01*
X32784900Y17422943D01*
X32784899Y18977056D01*
X32776028Y19021658D01*
X32776026Y19021662D01*
X32742235Y19072233D01*
X32742233Y19072235D01*
X32691657Y19106029D01*
X32655928Y19113136D01*
X32647057Y19114900D01*
X32647056Y19114900D01*
X31092944Y19114900D01*
X31048342Y19106029D01*
X31048338Y19106027D01*
X30997767Y19072236D01*
X30997765Y19072234D01*
X30963971Y19021658D01*
X30955100Y18977057D01*
X30955100Y18853500D01*
X30935887Y18794369D01*
X30885587Y18757824D01*
X30854500Y18752900D01*
X30345499Y18752900D01*
X30286368Y18772113D01*
X30249823Y18822413D01*
X30244899Y18853500D01*
X30244899Y18977056D01*
X30236028Y19021658D01*
X30236026Y19021662D01*
X30202235Y19072233D01*
X30202233Y19072235D01*
X30151657Y19106029D01*
X30115928Y19113136D01*
X30107057Y19114900D01*
X30107056Y19114900D01*
X28552944Y19114900D01*
X28508342Y19106029D01*
X28508338Y19106027D01*
X28457767Y19072236D01*
X28457765Y19072234D01*
X28423971Y19021658D01*
X28415100Y18977057D01*
X28415100Y18634790D01*
X28396683Y18576770D01*
X28388041Y18564529D01*
X28376993Y18551414D01*
X25887946Y16062365D01*
X25832548Y16034139D01*
X25816811Y16032900D01*
X25377320Y16032900D01*
X25318189Y16052113D01*
X25304406Y16064190D01*
X25297056Y16071922D01*
X25168894Y16206749D01*
X25009829Y16317461D01*
X24831734Y16393888D01*
X24831731Y16393889D01*
X24831730Y16393889D01*
X24743628Y16411995D01*
X24641900Y16432900D01*
X23796678Y16432900D01*
X23652192Y16418208D01*
X23652187Y16418207D01*
X23467281Y16360192D01*
X23297830Y16266139D01*
X23297829Y16266138D01*
X23150784Y16139904D01*
X23032157Y15986650D01*
X22946808Y15812655D01*
X22898231Y15625039D01*
X22888415Y15431490D01*
X22888415Y15431488D01*
X21747705Y15431488D01*
X21747705Y17971488D01*
X22888415Y17971488D01*
X22917762Y17779919D01*
X22968777Y17642176D01*
X22985070Y17598184D01*
X23049229Y17495251D01*
X23087583Y17433717D01*
X23097825Y17422943D01*
X23221106Y17293251D01*
X23380171Y17182539D01*
X23558266Y17106112D01*
X23748100Y17067100D01*
X23748101Y17067100D01*
X24593322Y17067100D01*
X24737807Y17081793D01*
X24737812Y17081794D01*
X24825723Y17109377D01*
X24922720Y17139809D01*
X25092169Y17233861D01*
X25239217Y17360098D01*
X25291837Y17428078D01*
X25343225Y17463077D01*
X25371389Y17467100D01*
X26108856Y17467100D01*
X26112291Y17467041D01*
X26177073Y17464828D01*
X26218372Y17474893D01*
X26228477Y17476813D01*
X26270573Y17482598D01*
X26288981Y17490595D01*
X26305226Y17496059D01*
X26324741Y17500813D01*
X26361796Y17521650D01*
X26370994Y17526218D01*
X26409979Y17543150D01*
X26425548Y17555818D01*
X26439729Y17565470D01*
X26457223Y17575305D01*
X26487276Y17605360D01*
X26494893Y17612235D01*
X26527878Y17639068D01*
X26539459Y17655477D01*
X26550498Y17668581D01*
X28677553Y19795637D01*
X28732951Y19823862D01*
X28748688Y19825101D01*
X30107056Y19825101D01*
X30151658Y19833972D01*
X30202234Y19867766D01*
X30236028Y19918342D01*
X30244900Y19962943D01*
X30244900Y20086500D01*
X30264113Y20145631D01*
X30314413Y20182176D01*
X30345500Y20187100D01*
X30854501Y20187100D01*
X30913632Y20167887D01*
X30950177Y20117587D01*
X30955101Y20086500D01*
X30955101Y19962945D01*
X30963971Y19918343D01*
X30963973Y19918339D01*
X30997764Y19867768D01*
X30997765Y19867767D01*
X30997766Y19867766D01*
X31048342Y19833972D01*
X31092943Y19825100D01*
X32647056Y19825101D01*
X32691658Y19833972D01*
X32742234Y19867766D01*
X32776028Y19918342D01*
X32784900Y19962943D01*
X32784899Y21517056D01*
X32776028Y21561658D01*
X32776026Y21561662D01*
X32742235Y21612233D01*
X32742233Y21612235D01*
X32691657Y21646029D01*
X32655928Y21653136D01*
X32647057Y21654900D01*
X32647056Y21654900D01*
X31092944Y21654900D01*
X31048342Y21646029D01*
X31048338Y21646027D01*
X30997767Y21612236D01*
X30997765Y21612234D01*
X30963971Y21561658D01*
X30955100Y21517057D01*
X30955100Y21393500D01*
X30935887Y21334369D01*
X30885587Y21297824D01*
X30854500Y21292900D01*
X30345499Y21292900D01*
X30286368Y21312113D01*
X30249823Y21362413D01*
X30244899Y21393500D01*
X30244899Y21517056D01*
X30236028Y21561658D01*
X30236026Y21561662D01*
X30202235Y21612233D01*
X30202233Y21612235D01*
X30151657Y21646029D01*
X30115928Y21653136D01*
X30107057Y21654900D01*
X30107056Y21654900D01*
X28552944Y21654900D01*
X28508342Y21646029D01*
X28508338Y21646027D01*
X28457767Y21612236D01*
X28457765Y21612234D01*
X28423971Y21561658D01*
X28415100Y21517057D01*
X28415100Y21138689D01*
X28395887Y21079558D01*
X28385635Y21067554D01*
X25920446Y18602365D01*
X25865048Y18574139D01*
X25849311Y18572900D01*
X25377320Y18572900D01*
X25318189Y18592113D01*
X25304406Y18604190D01*
X25297056Y18611922D01*
X25168894Y18746749D01*
X25009829Y18857461D01*
X24910255Y18900192D01*
X24831739Y18933886D01*
X24831737Y18933887D01*
X24831734Y18933888D01*
X24831731Y18933889D01*
X24831730Y18933889D01*
X24743628Y18951995D01*
X24641900Y18972900D01*
X23796678Y18972900D01*
X23652192Y18958208D01*
X23652187Y18958207D01*
X23467281Y18900192D01*
X23297830Y18806139D01*
X23297829Y18806138D01*
X23150784Y18679904D01*
X23032157Y18526650D01*
X22946808Y18352655D01*
X22898231Y18165039D01*
X22888415Y17971490D01*
X22888415Y17971488D01*
X21747705Y17971488D01*
X21747705Y20511488D01*
X22888415Y20511488D01*
X22917762Y20319919D01*
X22968777Y20182176D01*
X22985070Y20138184D01*
X23049229Y20035251D01*
X23087583Y19973717D01*
X23097825Y19962943D01*
X23221106Y19833251D01*
X23380171Y19722539D01*
X23558266Y19646112D01*
X23748100Y19607100D01*
X23748101Y19607100D01*
X24593322Y19607100D01*
X24737807Y19621793D01*
X24737812Y19621794D01*
X24825723Y19649377D01*
X24922720Y19679809D01*
X25092169Y19773861D01*
X25239217Y19900098D01*
X25291837Y19968078D01*
X25343225Y20003077D01*
X25371389Y20007100D01*
X26148856Y20007100D01*
X26152291Y20007041D01*
X26217073Y20004828D01*
X26258372Y20014893D01*
X26268477Y20016813D01*
X26310573Y20022598D01*
X26328981Y20030595D01*
X26345226Y20036059D01*
X26364741Y20040813D01*
X26401796Y20061650D01*
X26410994Y20066218D01*
X26449979Y20083150D01*
X26465548Y20095818D01*
X26479729Y20105470D01*
X26497223Y20115305D01*
X26527276Y20145360D01*
X26534893Y20152235D01*
X26567878Y20179068D01*
X26579459Y20195477D01*
X26590498Y20208581D01*
X28717553Y22335637D01*
X28772951Y22363862D01*
X28788688Y22365101D01*
X30107056Y22365101D01*
X30151658Y22373972D01*
X30202234Y22407766D01*
X30236028Y22458342D01*
X30244900Y22502943D01*
X30244900Y22626500D01*
X30264113Y22685631D01*
X30314413Y22722176D01*
X30345500Y22727100D01*
X30854501Y22727100D01*
X30913632Y22707887D01*
X30950177Y22657587D01*
X30955101Y22626500D01*
X30955101Y22502945D01*
X30963971Y22458343D01*
X30963973Y22458339D01*
X30997764Y22407768D01*
X30997765Y22407767D01*
X30997766Y22407766D01*
X31048342Y22373972D01*
X31092943Y22365100D01*
X32647056Y22365101D01*
X32691658Y22373972D01*
X32742234Y22407766D01*
X32776028Y22458342D01*
X32784900Y22502943D01*
X32784899Y24057056D01*
X32776028Y24101658D01*
X32776026Y24101662D01*
X32742235Y24152233D01*
X32742233Y24152235D01*
X32691657Y24186029D01*
X32655928Y24193136D01*
X32647057Y24194900D01*
X32647056Y24194900D01*
X31092944Y24194900D01*
X31048342Y24186029D01*
X31048338Y24186027D01*
X30997767Y24152236D01*
X30997765Y24152234D01*
X30963971Y24101658D01*
X30955100Y24057057D01*
X30955100Y23933500D01*
X30935887Y23874369D01*
X30885587Y23837824D01*
X30854500Y23832900D01*
X30345499Y23832900D01*
X30286368Y23852113D01*
X30249823Y23902413D01*
X30244899Y23933500D01*
X30244899Y24057056D01*
X30236028Y24101658D01*
X30236026Y24101662D01*
X30202235Y24152233D01*
X30202233Y24152235D01*
X30151657Y24186029D01*
X30115928Y24193136D01*
X30107057Y24194900D01*
X30107056Y24194900D01*
X28552944Y24194900D01*
X28508342Y24186029D01*
X28508338Y24186027D01*
X28457767Y24152236D01*
X28457765Y24152234D01*
X28423971Y24101658D01*
X28415100Y24057057D01*
X28415100Y23638689D01*
X28395887Y23579558D01*
X28385635Y23567554D01*
X25960446Y21142365D01*
X25905048Y21114139D01*
X25889311Y21112900D01*
X25377320Y21112900D01*
X25318189Y21132113D01*
X25304406Y21144190D01*
X25297056Y21151922D01*
X25168894Y21286749D01*
X25009829Y21397461D01*
X24831734Y21473888D01*
X24831731Y21473889D01*
X24831730Y21473889D01*
X24743628Y21491995D01*
X24641900Y21512900D01*
X23796678Y21512900D01*
X23652192Y21498208D01*
X23652187Y21498207D01*
X23467281Y21440192D01*
X23297830Y21346139D01*
X23297829Y21346138D01*
X23150784Y21219904D01*
X23032157Y21066650D01*
X22946808Y20892655D01*
X22898231Y20705039D01*
X22888415Y20511490D01*
X22888415Y20511488D01*
X21747705Y20511488D01*
X21747705Y22070786D01*
X20419209Y22070786D01*
X20419209Y18910484D01*
X20399996Y18851353D01*
X20349696Y18814808D01*
X20318609Y18809884D01*
X19149209Y18809884D01*
X19149209Y15122331D01*
X17810922Y15122331D01*
X17823192Y15147346D01*
X17871769Y15334960D01*
X17881585Y15528512D01*
X17852238Y15720079D01*
X17784930Y15901816D01*
X17682416Y16066284D01*
X17548894Y16206749D01*
X17389829Y16317461D01*
X17211734Y16393888D01*
X17211731Y16393889D01*
X17211730Y16393889D01*
X17123628Y16411995D01*
X17021900Y16432900D01*
X16176678Y16432900D01*
X16032192Y16418208D01*
X16032187Y16418207D01*
X15847281Y16360192D01*
X15677830Y16266139D01*
X15677829Y16266138D01*
X15530784Y16139904D01*
X15478163Y16071922D01*
X15426775Y16036923D01*
X15398611Y16032900D01*
X14890688Y16032900D01*
X14831557Y16052113D01*
X14819553Y16062365D01*
X12514364Y18367555D01*
X12486138Y18422953D01*
X12484899Y18438690D01*
X12484899Y18977056D01*
X12476028Y19021658D01*
X12476026Y19021662D01*
X12442235Y19072233D01*
X12442233Y19072235D01*
X12391657Y19106029D01*
X12355928Y19113136D01*
X12347057Y19114900D01*
X12347056Y19114900D01*
X10792944Y19114900D01*
X10748342Y19106029D01*
X10748338Y19106027D01*
X10697767Y19072236D01*
X10697765Y19072234D01*
X10663971Y19021658D01*
X10655100Y18977057D01*
X10655100Y18853500D01*
X10635887Y18794369D01*
X10585587Y18757824D01*
X10554500Y18752900D01*
X10045499Y18752900D01*
X9986368Y18772113D01*
X9949823Y18822413D01*
X9944899Y18853500D01*
X9944899Y18977056D01*
X9936028Y19021658D01*
X9936026Y19021662D01*
X9902235Y19072233D01*
X9902233Y19072235D01*
X9851657Y19106029D01*
X9815928Y19113136D01*
X9807057Y19114900D01*
X9807056Y19114900D01*
X8252944Y19114900D01*
X8208342Y19106029D01*
X8208338Y19106027D01*
X8157767Y19072236D01*
X8157765Y19072234D01*
X8123971Y19021658D01*
X8115100Y18977057D01*
X8115100Y17422945D01*
X5359500Y17422945D01*
X5359500Y19962945D01*
X8115100Y19962945D01*
X8123971Y19918343D01*
X8123973Y19918339D01*
X8157764Y19867768D01*
X8157765Y19867767D01*
X8157766Y19867766D01*
X8208342Y19833972D01*
X8252943Y19825100D01*
X9807056Y19825101D01*
X9851658Y19833972D01*
X9902234Y19867766D01*
X9936028Y19918342D01*
X9944900Y19962943D01*
X9944900Y20086500D01*
X9964113Y20145631D01*
X10014413Y20182176D01*
X10045500Y20187100D01*
X10554501Y20187100D01*
X10613632Y20167887D01*
X10650177Y20117587D01*
X10655101Y20086500D01*
X10655101Y19962945D01*
X10663971Y19918343D01*
X10663973Y19918339D01*
X10697764Y19867768D01*
X10697765Y19867767D01*
X10697766Y19867766D01*
X10748342Y19833972D01*
X10792943Y19825100D01*
X12148810Y19825101D01*
X12207941Y19805888D01*
X12219945Y19795636D01*
X14378659Y17636922D01*
X14381046Y17634452D01*
X14425291Y17587077D01*
X14461603Y17564996D01*
X14470109Y17559207D01*
X14503971Y17533528D01*
X14522640Y17526166D01*
X14538005Y17518534D01*
X14555149Y17508108D01*
X14555150Y17508108D01*
X14555153Y17508106D01*
X14596079Y17496640D01*
X14605829Y17493360D01*
X14645362Y17477770D01*
X14665325Y17475719D01*
X14682181Y17472516D01*
X14701506Y17467100D01*
X14743992Y17467100D01*
X14754279Y17466573D01*
X14796554Y17462227D01*
X14816331Y17465638D01*
X14833424Y17467100D01*
X15392680Y17467100D01*
X15451811Y17447887D01*
X15465594Y17435810D01*
X15467583Y17433718D01*
X15467584Y17433716D01*
X15601106Y17293251D01*
X15760171Y17182539D01*
X15938266Y17106112D01*
X16128100Y17067100D01*
X16128101Y17067100D01*
X16973322Y17067100D01*
X17117807Y17081793D01*
X17117812Y17081794D01*
X17205723Y17109377D01*
X17302720Y17139809D01*
X17472169Y17233861D01*
X17619217Y17360098D01*
X17737843Y17513351D01*
X17823192Y17687346D01*
X17871769Y17874960D01*
X17881585Y18068512D01*
X17852238Y18260079D01*
X17784930Y18441816D01*
X17682416Y18606284D01*
X17548894Y18746749D01*
X17389829Y18857461D01*
X17290255Y18900192D01*
X17211739Y18933886D01*
X17211737Y18933887D01*
X17211734Y18933888D01*
X17211731Y18933889D01*
X17211730Y18933889D01*
X17123628Y18951995D01*
X17021900Y18972900D01*
X16176678Y18972900D01*
X16032192Y18958208D01*
X16032187Y18958207D01*
X15847281Y18900192D01*
X15677830Y18806139D01*
X15677829Y18806138D01*
X15530784Y18679904D01*
X15478163Y18611922D01*
X15426775Y18576923D01*
X15398611Y18572900D01*
X15048188Y18572900D01*
X14989057Y18592113D01*
X14977053Y18602365D01*
X12514364Y21065055D01*
X12486138Y21120453D01*
X12484899Y21136190D01*
X12484899Y21517056D01*
X12476028Y21561658D01*
X12476026Y21561662D01*
X12442235Y21612233D01*
X12442233Y21612235D01*
X12391657Y21646029D01*
X12355928Y21653136D01*
X12347057Y21654900D01*
X12347056Y21654900D01*
X10792944Y21654900D01*
X10748342Y21646029D01*
X10748338Y21646027D01*
X10697767Y21612236D01*
X10697765Y21612234D01*
X10663971Y21561658D01*
X10655100Y21517057D01*
X10655100Y21393500D01*
X10635887Y21334369D01*
X10585587Y21297824D01*
X10554500Y21292900D01*
X10045499Y21292900D01*
X9986368Y21312113D01*
X9949823Y21362413D01*
X9944899Y21393500D01*
X9944899Y21517056D01*
X9936028Y21561658D01*
X9936026Y21561662D01*
X9902235Y21612233D01*
X9902233Y21612235D01*
X9851657Y21646029D01*
X9815928Y21653136D01*
X9807057Y21654900D01*
X9807056Y21654900D01*
X8252944Y21654900D01*
X8208342Y21646029D01*
X8208338Y21646027D01*
X8157767Y21612236D01*
X8157765Y21612234D01*
X8123971Y21561658D01*
X8115100Y21517057D01*
X8115100Y19962945D01*
X5359500Y19962945D01*
X5359500Y22502945D01*
X8115100Y22502945D01*
X8123971Y22458343D01*
X8123973Y22458339D01*
X8157764Y22407768D01*
X8157765Y22407767D01*
X8157766Y22407766D01*
X8208342Y22373972D01*
X8252943Y22365100D01*
X9807056Y22365101D01*
X9851658Y22373972D01*
X9902234Y22407766D01*
X9936028Y22458342D01*
X9944900Y22502943D01*
X9944900Y22626500D01*
X9964113Y22685631D01*
X10014413Y22722176D01*
X10045500Y22727100D01*
X10554501Y22727100D01*
X10613632Y22707887D01*
X10650177Y22657587D01*
X10655101Y22626500D01*
X10655101Y22502945D01*
X10663971Y22458343D01*
X10663973Y22458339D01*
X10697764Y22407768D01*
X10697765Y22407767D01*
X10697766Y22407766D01*
X10748342Y22373972D01*
X10792943Y22365100D01*
X12228810Y22365101D01*
X12287941Y22345888D01*
X12299945Y22335636D01*
X14458659Y20176922D01*
X14461046Y20174452D01*
X14505291Y20127077D01*
X14541603Y20104996D01*
X14550109Y20099207D01*
X14583971Y20073528D01*
X14602640Y20066166D01*
X14618005Y20058534D01*
X14635149Y20048108D01*
X14635150Y20048108D01*
X14635153Y20048106D01*
X14676079Y20036640D01*
X14685829Y20033360D01*
X14725362Y20017770D01*
X14745325Y20015719D01*
X14762181Y20012516D01*
X14781506Y20007100D01*
X14823992Y20007100D01*
X14834279Y20006573D01*
X14876554Y20002227D01*
X14896331Y20005638D01*
X14913424Y20007100D01*
X15392680Y20007100D01*
X15451811Y19987887D01*
X15465594Y19975810D01*
X15467583Y19973718D01*
X15467584Y19973716D01*
X15601106Y19833251D01*
X15760171Y19722539D01*
X15938266Y19646112D01*
X16128100Y19607100D01*
X16128101Y19607100D01*
X16973322Y19607100D01*
X17117807Y19621793D01*
X17117812Y19621794D01*
X17205723Y19649377D01*
X17302720Y19679809D01*
X17472169Y19773861D01*
X17619217Y19900098D01*
X17737843Y20053351D01*
X17823192Y20227346D01*
X17871769Y20414960D01*
X17881585Y20608512D01*
X17852238Y20800079D01*
X17784930Y20981816D01*
X17682416Y21146284D01*
X17548894Y21286749D01*
X17389829Y21397461D01*
X17211734Y21473888D01*
X17211731Y21473889D01*
X17211730Y21473889D01*
X17123628Y21491995D01*
X17021900Y21512900D01*
X16176678Y21512900D01*
X16032192Y21498208D01*
X16032187Y21498207D01*
X15847281Y21440192D01*
X15677830Y21346139D01*
X15677829Y21346138D01*
X15530784Y21219904D01*
X15478163Y21151922D01*
X15426775Y21116923D01*
X15398611Y21112900D01*
X15128188Y21112900D01*
X15069057Y21132113D01*
X15057053Y21142365D01*
X12536339Y23663080D01*
X12533951Y23665551D01*
X12511976Y23689081D01*
X12485658Y23745410D01*
X12484899Y23757745D01*
X12484899Y24057056D01*
X12476028Y24101658D01*
X12476026Y24101662D01*
X12442235Y24152233D01*
X12442233Y24152235D01*
X12391657Y24186029D01*
X12355928Y24193136D01*
X12347057Y24194900D01*
X12347056Y24194900D01*
X10792944Y24194900D01*
X10748342Y24186029D01*
X10748338Y24186027D01*
X10697767Y24152236D01*
X10697765Y24152234D01*
X10663971Y24101658D01*
X10655100Y24057057D01*
X10655100Y23933500D01*
X10635887Y23874369D01*
X10585587Y23837824D01*
X10554500Y23832900D01*
X10045499Y23832900D01*
X9986368Y23852113D01*
X9949823Y23902413D01*
X9944899Y23933500D01*
X9944899Y24057056D01*
X9936028Y24101658D01*
X9936026Y24101662D01*
X9902235Y24152233D01*
X9902233Y24152235D01*
X9851657Y24186029D01*
X9815928Y24193136D01*
X9807057Y24194900D01*
X9807056Y24194900D01*
X8252944Y24194900D01*
X8208342Y24186029D01*
X8208338Y24186027D01*
X8157767Y24152236D01*
X8157765Y24152234D01*
X8123971Y24101658D01*
X8115100Y24057057D01*
X8115100Y22502945D01*
X5359500Y22502945D01*
X5359500Y25042945D01*
X8115100Y25042945D01*
X8123971Y24998343D01*
X8123973Y24998339D01*
X8157764Y24947768D01*
X8157765Y24947767D01*
X8157766Y24947766D01*
X8208342Y24913972D01*
X8252943Y24905100D01*
X9807056Y24905101D01*
X9851658Y24913972D01*
X9902234Y24947766D01*
X9936028Y24998342D01*
X9944900Y25042943D01*
X9944900Y25166500D01*
X9964113Y25225631D01*
X10014413Y25262176D01*
X10045500Y25267100D01*
X10554501Y25267100D01*
X10613632Y25247887D01*
X10650177Y25197587D01*
X10655101Y25166500D01*
X10655101Y25042945D01*
X10663971Y24998343D01*
X10663973Y24998339D01*
X10697764Y24947768D01*
X10697765Y24947767D01*
X10697766Y24947766D01*
X10748342Y24913972D01*
X10792943Y24905100D01*
X12171310Y24905101D01*
X12230441Y24885888D01*
X12242445Y24875636D01*
X14401159Y22716922D01*
X14403546Y22714452D01*
X14447791Y22667077D01*
X14484103Y22644996D01*
X14492609Y22639207D01*
X14526471Y22613528D01*
X14545140Y22606166D01*
X14560505Y22598534D01*
X14577649Y22588108D01*
X14577650Y22588108D01*
X14577653Y22588106D01*
X14618579Y22576640D01*
X14628329Y22573360D01*
X14667862Y22557770D01*
X14687825Y22555719D01*
X14704681Y22552516D01*
X14724006Y22547100D01*
X14766492Y22547100D01*
X14776779Y22546573D01*
X14819054Y22542227D01*
X14838831Y22545638D01*
X14855924Y22547100D01*
X15392680Y22547100D01*
X15451811Y22527887D01*
X15465594Y22515810D01*
X15467583Y22513718D01*
X15467584Y22513716D01*
X15601106Y22373251D01*
X15760171Y22262539D01*
X15938266Y22186112D01*
X16128100Y22147100D01*
X16128101Y22147100D01*
X16973322Y22147100D01*
X17117807Y22161793D01*
X17117812Y22161794D01*
X17205723Y22189377D01*
X17302720Y22219809D01*
X17472169Y22313861D01*
X17619217Y22440098D01*
X17737843Y22593351D01*
X17823192Y22767346D01*
X17871769Y22954960D01*
X17876664Y23051488D01*
X22888415Y23051488D01*
X22917762Y22859919D01*
X22968777Y22722176D01*
X22985070Y22678184D01*
X23049229Y22575251D01*
X23087583Y22513717D01*
X23097825Y22502943D01*
X23221106Y22373251D01*
X23380171Y22262539D01*
X23558266Y22186112D01*
X23748100Y22147100D01*
X23748101Y22147100D01*
X24593322Y22147100D01*
X24737807Y22161793D01*
X24737812Y22161794D01*
X24825723Y22189377D01*
X24922720Y22219809D01*
X25092169Y22313861D01*
X25239217Y22440098D01*
X25291837Y22508078D01*
X25343225Y22543077D01*
X25371389Y22547100D01*
X26188856Y22547100D01*
X26192291Y22547041D01*
X26257073Y22544828D01*
X26298372Y22554893D01*
X26308477Y22556813D01*
X26350573Y22562598D01*
X26368981Y22570595D01*
X26385226Y22576059D01*
X26404741Y22580813D01*
X26441796Y22601650D01*
X26450994Y22606218D01*
X26489979Y22623150D01*
X26505548Y22635818D01*
X26519729Y22645470D01*
X26537223Y22655305D01*
X26567276Y22685360D01*
X26574893Y22692235D01*
X26607878Y22719068D01*
X26619459Y22735477D01*
X26630498Y22748581D01*
X28757553Y24875637D01*
X28812951Y24903862D01*
X28828688Y24905101D01*
X30107056Y24905101D01*
X30151658Y24913972D01*
X30202234Y24947766D01*
X30236028Y24998342D01*
X30244900Y25042943D01*
X30244900Y25166500D01*
X30264113Y25225631D01*
X30314413Y25262176D01*
X30345500Y25267100D01*
X30854501Y25267100D01*
X30913632Y25247887D01*
X30950177Y25197587D01*
X30955101Y25166500D01*
X30955101Y25042945D01*
X30963971Y24998343D01*
X30963973Y24998339D01*
X30997764Y24947768D01*
X30997765Y24947767D01*
X30997766Y24947766D01*
X31048342Y24913972D01*
X31092943Y24905100D01*
X32647056Y24905101D01*
X32691658Y24913972D01*
X32742234Y24947766D01*
X32776028Y24998342D01*
X32784900Y25042943D01*
X32784899Y26597056D01*
X32776028Y26641658D01*
X32776026Y26641662D01*
X32742235Y26692233D01*
X32742233Y26692235D01*
X32691657Y26726029D01*
X32655928Y26733136D01*
X32647057Y26734900D01*
X32647056Y26734900D01*
X31092944Y26734900D01*
X31048342Y26726029D01*
X31048338Y26726027D01*
X30997767Y26692236D01*
X30997765Y26692234D01*
X30963971Y26641658D01*
X30955100Y26597057D01*
X30955100Y26473500D01*
X30935887Y26414369D01*
X30885587Y26377824D01*
X30854500Y26372900D01*
X30345499Y26372900D01*
X30286368Y26392113D01*
X30249823Y26442413D01*
X30244899Y26473500D01*
X30244899Y26597056D01*
X30236028Y26641658D01*
X30236026Y26641662D01*
X30202235Y26692233D01*
X30202233Y26692235D01*
X30151657Y26726029D01*
X30115928Y26733136D01*
X30107057Y26734900D01*
X30107056Y26734900D01*
X28552944Y26734900D01*
X28508342Y26726029D01*
X28508338Y26726027D01*
X28457767Y26692236D01*
X28457765Y26692234D01*
X28423971Y26641658D01*
X28415100Y26597057D01*
X28415100Y26138689D01*
X28395887Y26079558D01*
X28385635Y26067554D01*
X26000446Y23682365D01*
X25945048Y23654139D01*
X25929311Y23652900D01*
X25377320Y23652900D01*
X25318189Y23672113D01*
X25304406Y23684190D01*
X25297056Y23691922D01*
X25168894Y23826749D01*
X25009829Y23937461D01*
X24831734Y24013888D01*
X24831731Y24013889D01*
X24831730Y24013889D01*
X24743628Y24031995D01*
X24641900Y24052900D01*
X23796678Y24052900D01*
X23652192Y24038208D01*
X23652187Y24038207D01*
X23467281Y23980192D01*
X23297830Y23886139D01*
X23297829Y23886138D01*
X23150784Y23759904D01*
X23032157Y23606650D01*
X22946808Y23432655D01*
X22898231Y23245039D01*
X22888415Y23051490D01*
X22888415Y23051488D01*
X17876664Y23051488D01*
X17881585Y23148512D01*
X17852238Y23340079D01*
X17784930Y23521816D01*
X17682416Y23686284D01*
X17548894Y23826749D01*
X17389829Y23937461D01*
X17211734Y24013888D01*
X17211731Y24013889D01*
X17211730Y24013889D01*
X17123628Y24031995D01*
X17021900Y24052900D01*
X16176678Y24052900D01*
X16032192Y24038208D01*
X16032187Y24038207D01*
X15847281Y23980192D01*
X15677830Y23886139D01*
X15677829Y23886138D01*
X15530784Y23759904D01*
X15478163Y23691922D01*
X15426775Y23656923D01*
X15398611Y23652900D01*
X15070688Y23652900D01*
X15011557Y23672113D01*
X14999553Y23682365D01*
X12514364Y26167555D01*
X12486138Y26222953D01*
X12484899Y26238690D01*
X12484899Y26597056D01*
X12476028Y26641658D01*
X12476026Y26641662D01*
X12442235Y26692233D01*
X12442233Y26692235D01*
X12391657Y26726029D01*
X12355928Y26733136D01*
X12347057Y26734900D01*
X12347056Y26734900D01*
X10792944Y26734900D01*
X10748342Y26726029D01*
X10748338Y26726027D01*
X10697767Y26692236D01*
X10697765Y26692234D01*
X10663971Y26641658D01*
X10655100Y26597057D01*
X10655100Y26473500D01*
X10635887Y26414369D01*
X10585587Y26377824D01*
X10554500Y26372900D01*
X10045499Y26372900D01*
X9986368Y26392113D01*
X9949823Y26442413D01*
X9944899Y26473500D01*
X9944899Y26597056D01*
X9936028Y26641658D01*
X9936026Y26641662D01*
X9902235Y26692233D01*
X9902233Y26692235D01*
X9851657Y26726029D01*
X9815928Y26733136D01*
X9807057Y26734900D01*
X9807056Y26734900D01*
X8252944Y26734900D01*
X8208342Y26726029D01*
X8208338Y26726027D01*
X8157767Y26692236D01*
X8157765Y26692234D01*
X8123971Y26641658D01*
X8115100Y26597057D01*
X8115100Y25042945D01*
X5359500Y25042945D01*
X5359500Y27582945D01*
X8115100Y27582945D01*
X8123971Y27538343D01*
X8123973Y27538339D01*
X8157764Y27487768D01*
X8157765Y27487767D01*
X8157766Y27487766D01*
X8208342Y27453972D01*
X8252943Y27445100D01*
X9807056Y27445101D01*
X9851658Y27453972D01*
X9902234Y27487766D01*
X9936028Y27538342D01*
X9944900Y27582943D01*
X9944900Y27582945D01*
X10655100Y27582945D01*
X10663971Y27538343D01*
X10663973Y27538339D01*
X10697764Y27487768D01*
X10697765Y27487767D01*
X10697766Y27487766D01*
X10748342Y27453972D01*
X10792943Y27445100D01*
X12347056Y27445101D01*
X12391658Y27453972D01*
X12442234Y27487766D01*
X12476028Y27538342D01*
X12484900Y27582943D01*
X12484899Y28805786D01*
X13047100Y28805786D01*
X13062042Y28711448D01*
X13062044Y28711442D01*
X13119981Y28597733D01*
X13119982Y28597732D01*
X13119984Y28597729D01*
X13210229Y28507484D01*
X13210231Y28507483D01*
X13210232Y28507482D01*
X13231786Y28496500D01*
X13323945Y28449543D01*
X13394185Y28438419D01*
X13418285Y28434601D01*
X13418290Y28434600D01*
X13418292Y28434600D01*
X13496500Y28434600D01*
X13555631Y28415387D01*
X13592176Y28365087D01*
X13597100Y28334000D01*
X13597100Y26668286D01*
X13612042Y26573948D01*
X13612044Y26573942D01*
X13669981Y26460232D01*
X13674635Y26453828D01*
X13672780Y26452481D01*
X13695861Y26407181D01*
X13697100Y26391444D01*
X13697100Y25818286D01*
X13712042Y25723948D01*
X13712044Y25723942D01*
X13769981Y25610233D01*
X13769982Y25610232D01*
X13769984Y25610229D01*
X13860229Y25519984D01*
X13860231Y25519983D01*
X13860232Y25519982D01*
X13913557Y25492812D01*
X13973945Y25462043D01*
X14044185Y25450919D01*
X14068285Y25447101D01*
X14068290Y25447100D01*
X14068292Y25447100D01*
X16131710Y25447100D01*
X16131714Y25447101D01*
X16226055Y25462043D01*
X16339771Y25519984D01*
X16430016Y25610229D01*
X16487957Y25723945D01*
X16502900Y25818292D01*
X16502900Y26271800D01*
X17600000Y26271800D01*
X17600000Y25802173D01*
X17606402Y25742625D01*
X17606403Y25742620D01*
X17656644Y25607915D01*
X17656645Y25607913D01*
X17742811Y25492812D01*
X17857912Y25406646D01*
X17857914Y25406645D01*
X17992619Y25356404D01*
X17992624Y25356403D01*
X18052172Y25350000D01*
X18871800Y25350000D01*
X18871800Y26271800D01*
X17600000Y26271800D01*
X16502900Y26271800D01*
X16502900Y26728200D01*
X17600000Y26728200D01*
X18871800Y26728200D01*
X18871800Y27650000D01*
X18052172Y27650000D01*
X17992624Y27643598D01*
X17992619Y27643597D01*
X17857914Y27593356D01*
X17857912Y27593355D01*
X17742811Y27507189D01*
X17656645Y27392088D01*
X17656644Y27392086D01*
X17606403Y27257381D01*
X17606402Y27257376D01*
X17600000Y27197828D01*
X17600000Y26728200D01*
X16502900Y26728200D01*
X16502900Y27181708D01*
X16487957Y27276055D01*
X16463523Y27324010D01*
X16430018Y27389768D01*
X16430017Y27389769D01*
X16430016Y27389771D01*
X16339771Y27480016D01*
X16339768Y27480018D01*
X16339767Y27480019D01*
X16339768Y27480019D01*
X16226058Y27537956D01*
X16226052Y27537958D01*
X16131714Y27552900D01*
X16131708Y27552900D01*
X14503500Y27552900D01*
X14444369Y27572113D01*
X14407824Y27622413D01*
X14402900Y27653500D01*
X14402900Y28352684D01*
X14422113Y28411815D01*
X14469025Y28445900D01*
X14469001Y28445948D01*
X14469309Y28446106D01*
X14472413Y28448360D01*
X14472421Y28448363D01*
X14476048Y28449543D01*
X14476055Y28449543D01*
X14589771Y28507484D01*
X14680016Y28597729D01*
X14737957Y28711445D01*
X14745684Y28760233D01*
X14753519Y28809696D01*
X14754895Y28809478D01*
X14776584Y28861835D01*
X14829596Y28894321D01*
X14853080Y28897100D01*
X20538812Y28897100D01*
X20538813Y28897100D01*
X20538814Y28897101D01*
X20538817Y28897101D01*
X20561812Y28904573D01*
X20577161Y28908259D01*
X20601055Y28912043D01*
X20622612Y28923028D01*
X20637188Y28929065D01*
X20660193Y28936539D01*
X20679760Y28950757D01*
X20693216Y28959002D01*
X20714771Y28969984D01*
X20805016Y29060229D01*
X20805016Y29060231D01*
X20813298Y29068512D01*
X20813298Y29068514D01*
X20912422Y29167636D01*
X20967820Y29195862D01*
X20983556Y29197100D01*
X21957724Y29197100D01*
X21957726Y29197100D01*
X21983050Y29200038D01*
X22086645Y29245780D01*
X22166720Y29325855D01*
X22212462Y29429450D01*
X22215400Y29454774D01*
X22215400Y29845226D01*
X22212462Y29870550D01*
X22166720Y29974145D01*
X22086645Y30054220D01*
X22086644Y30054221D01*
X21983051Y30099962D01*
X21957729Y30102900D01*
X21957726Y30102900D01*
X20692274Y30102900D01*
X20692270Y30102900D01*
X20666948Y30099962D01*
X20563355Y30054221D01*
X20483279Y29974145D01*
X20437536Y29870549D01*
X20436555Y29862087D01*
X20410655Y29805565D01*
X20407761Y29802549D01*
X20337579Y29732366D01*
X20282182Y29704139D01*
X20266444Y29702900D01*
X20253500Y29702900D01*
X20194369Y29722113D01*
X20157824Y29772413D01*
X20152900Y29803500D01*
X20152900Y29981710D01*
X20152899Y29981715D01*
X20141415Y30054221D01*
X20137957Y30076055D01*
X20101758Y30147100D01*
X20080018Y30189768D01*
X20080017Y30189769D01*
X20080016Y30189771D01*
X19989771Y30280016D01*
X19989768Y30280018D01*
X19989767Y30280019D01*
X19989768Y30280019D01*
X19876058Y30337956D01*
X19876052Y30337958D01*
X19781714Y30352900D01*
X19781708Y30352900D01*
X18818292Y30352900D01*
X18818285Y30352900D01*
X18723947Y30337958D01*
X18723941Y30337956D01*
X18610232Y30280019D01*
X18519981Y30189768D01*
X18462044Y30076059D01*
X18462042Y30076053D01*
X18447100Y29981715D01*
X18447100Y29803500D01*
X18427887Y29744369D01*
X18377587Y29707824D01*
X18346500Y29702900D01*
X14593542Y29702900D01*
X14547871Y29713865D01*
X14511561Y29732366D01*
X14476054Y29750458D01*
X14381714Y29765400D01*
X14381708Y29765400D01*
X13418292Y29765400D01*
X13418285Y29765400D01*
X13323947Y29750458D01*
X13323941Y29750456D01*
X13210232Y29692519D01*
X13119981Y29602268D01*
X13062044Y29488559D01*
X13062042Y29488553D01*
X13047100Y29394215D01*
X13047100Y28805786D01*
X12484899Y28805786D01*
X12484899Y29137056D01*
X12476028Y29181658D01*
X12476026Y29181662D01*
X12442235Y29232233D01*
X12442233Y29232235D01*
X12391657Y29266029D01*
X12355928Y29273136D01*
X12347057Y29274900D01*
X12347056Y29274900D01*
X10792944Y29274900D01*
X10748342Y29266029D01*
X10748338Y29266027D01*
X10697767Y29232236D01*
X10697765Y29232234D01*
X10663971Y29181658D01*
X10655100Y29137057D01*
X10655100Y27582945D01*
X9944900Y27582945D01*
X9944899Y29137056D01*
X9936028Y29181658D01*
X9936026Y29181662D01*
X9902235Y29232233D01*
X9902233Y29232235D01*
X9851657Y29266029D01*
X9815928Y29273136D01*
X9807057Y29274900D01*
X9807056Y29274900D01*
X8252944Y29274900D01*
X8208342Y29266029D01*
X8208338Y29266027D01*
X8157767Y29232236D01*
X8157765Y29232234D01*
X8123971Y29181658D01*
X8115100Y29137057D01*
X8115100Y27582945D01*
X5359500Y27582945D01*
X5359500Y31022945D01*
X8085100Y31022945D01*
X8093971Y30978343D01*
X8093973Y30978339D01*
X8127764Y30927768D01*
X8127765Y30927767D01*
X8127766Y30927766D01*
X8178342Y30893972D01*
X8222943Y30885100D01*
X9777056Y30885101D01*
X9821658Y30893972D01*
X9872234Y30927766D01*
X9906028Y30978342D01*
X9914900Y31022943D01*
X9914900Y31296500D01*
X9934113Y31355631D01*
X9984413Y31392176D01*
X10015500Y31397100D01*
X10524501Y31397100D01*
X10583632Y31377887D01*
X10620177Y31327587D01*
X10625101Y31296500D01*
X10625101Y31022945D01*
X10633971Y30978343D01*
X10633973Y30978339D01*
X10667764Y30927768D01*
X10667765Y30927767D01*
X10667766Y30927766D01*
X10718342Y30893972D01*
X10762943Y30885100D01*
X12317056Y30885101D01*
X12361658Y30893972D01*
X12412234Y30927766D01*
X12446028Y30978342D01*
X12454900Y31022943D01*
X12454900Y31296500D01*
X12474113Y31355631D01*
X12524413Y31392176D01*
X12555500Y31397100D01*
X12591444Y31397100D01*
X12650575Y31377887D01*
X12662579Y31367635D01*
X13017635Y31012579D01*
X13045861Y30957181D01*
X13047100Y30941444D01*
X13047100Y30630786D01*
X13062042Y30536448D01*
X13062044Y30536442D01*
X13119981Y30422733D01*
X13119982Y30422732D01*
X13119984Y30422729D01*
X13210229Y30332484D01*
X13210231Y30332483D01*
X13210232Y30332482D01*
X13317841Y30277653D01*
X13323945Y30274543D01*
X13394185Y30263419D01*
X13418285Y30259601D01*
X13418290Y30259600D01*
X13418292Y30259600D01*
X14381710Y30259600D01*
X14381714Y30259601D01*
X14387466Y30260512D01*
X14476055Y30274543D01*
X14589771Y30332484D01*
X14680016Y30422729D01*
X14737957Y30536445D01*
X14752900Y30630792D01*
X14752900Y31219208D01*
X14752899Y31219215D01*
X14737958Y31313552D01*
X14737957Y31313554D01*
X14737957Y31313555D01*
X14736788Y31315848D01*
X14736385Y31318392D01*
X14735510Y31321087D01*
X14735936Y31321226D01*
X14727061Y31377255D01*
X14755285Y31432653D01*
X14810682Y31460882D01*
X14872091Y31451158D01*
X14897558Y31432656D01*
X14992635Y31337579D01*
X15020861Y31282181D01*
X15022100Y31266444D01*
X15022100Y30518286D01*
X15037042Y30423948D01*
X15037044Y30423942D01*
X15094981Y30310233D01*
X15094982Y30310232D01*
X15094984Y30310229D01*
X15185229Y30219984D01*
X15185231Y30219983D01*
X15185232Y30219982D01*
X15298941Y30162045D01*
X15298945Y30162043D01*
X15369185Y30150919D01*
X15393285Y30147101D01*
X15393290Y30147100D01*
X15393292Y30147100D01*
X15981710Y30147100D01*
X15981714Y30147101D01*
X16076055Y30162043D01*
X16189771Y30219984D01*
X16280016Y30310229D01*
X16337957Y30423945D01*
X16352900Y30518292D01*
X16352900Y31481708D01*
X16337957Y31576055D01*
X16330648Y31590400D01*
X16280018Y31689768D01*
X16280017Y31689769D01*
X16280016Y31689771D01*
X16189771Y31780016D01*
X16189768Y31780018D01*
X16189767Y31780019D01*
X16189768Y31780019D01*
X16076058Y31837956D01*
X16076052Y31837958D01*
X15981714Y31852900D01*
X15981708Y31852900D01*
X15658556Y31852900D01*
X15599425Y31872113D01*
X15587421Y31882365D01*
X14901500Y32568286D01*
X15447100Y32568286D01*
X15462042Y32473948D01*
X15462044Y32473942D01*
X15519981Y32360233D01*
X15519982Y32360232D01*
X15519984Y32360229D01*
X15610229Y32269984D01*
X15610231Y32269983D01*
X15610232Y32269982D01*
X15660501Y32244369D01*
X15723945Y32212043D01*
X15781672Y32202900D01*
X15818285Y32197101D01*
X15818290Y32197100D01*
X15818292Y32197100D01*
X17009000Y32197100D01*
X17068131Y32177887D01*
X17104676Y32127587D01*
X17109600Y32096500D01*
X17109600Y31892296D01*
X17090387Y31833165D01*
X17054671Y31802661D01*
X17010232Y31780019D01*
X16919981Y31689768D01*
X16862044Y31576059D01*
X16862042Y31576053D01*
X16847100Y31481715D01*
X16847100Y30518286D01*
X16862042Y30423948D01*
X16862044Y30423942D01*
X16919981Y30310233D01*
X16919982Y30310232D01*
X16919984Y30310229D01*
X17010229Y30219984D01*
X17010231Y30219983D01*
X17010232Y30219982D01*
X17123941Y30162045D01*
X17123945Y30162043D01*
X17194185Y30150919D01*
X17218285Y30147101D01*
X17218290Y30147100D01*
X17218292Y30147100D01*
X17806710Y30147100D01*
X17806714Y30147101D01*
X17901055Y30162043D01*
X18014771Y30219984D01*
X18105016Y30310229D01*
X18162957Y30423945D01*
X18177900Y30518292D01*
X18177900Y31063618D01*
X18197113Y31122749D01*
X18247413Y31159294D01*
X18309587Y31159294D01*
X18359887Y31122749D01*
X18372757Y31098773D01*
X18406644Y31007915D01*
X18406645Y31007913D01*
X18492811Y30892812D01*
X18607912Y30806646D01*
X18607914Y30806645D01*
X18742619Y30756404D01*
X18742624Y30756403D01*
X18802172Y30750000D01*
X19071800Y30750000D01*
X19071800Y32275000D01*
X19528200Y32275000D01*
X19528200Y30750000D01*
X19797828Y30750000D01*
X19857375Y30756403D01*
X19857380Y30756404D01*
X19992085Y30806645D01*
X19992087Y30806646D01*
X20107188Y30892812D01*
X20193352Y31007911D01*
X20239310Y31131131D01*
X20277976Y31179820D01*
X20337875Y31196484D01*
X20396130Y31174757D01*
X20404703Y31167111D01*
X20499455Y31072359D01*
X20612351Y31014836D01*
X20612354Y31014835D01*
X20706014Y31000001D01*
X21096800Y31000001D01*
X21096800Y31321800D01*
X21553200Y31321800D01*
X21553200Y31000001D01*
X21943978Y31000001D01*
X22037650Y31014836D01*
X22150544Y31072359D01*
X22240141Y31161956D01*
X22297664Y31274852D01*
X22297665Y31274854D01*
X22305102Y31321800D01*
X21553200Y31321800D01*
X21096800Y31321800D01*
X21096800Y32100000D01*
X21553200Y32100000D01*
X21553200Y31778200D01*
X22305100Y31778200D01*
X22297664Y31825151D01*
X22240141Y31938045D01*
X22150544Y32027642D01*
X22037648Y32085165D01*
X22037645Y32085166D01*
X21943987Y32100000D01*
X21553200Y32100000D01*
X21096800Y32100000D01*
X20706021Y32100000D01*
X20612349Y32085165D01*
X20499455Y32027642D01*
X20409856Y31938043D01*
X20405782Y31930047D01*
X20361816Y31886086D01*
X20300407Y31876364D01*
X20245011Y31904593D01*
X20221892Y31940569D01*
X20193352Y32017090D01*
X20107188Y32132189D01*
X19992087Y32218355D01*
X19992085Y32218356D01*
X19857380Y32268597D01*
X19857375Y32268598D01*
X19797828Y32275000D01*
X19528200Y32275000D01*
X19071800Y32275000D01*
X18802172Y32275000D01*
X18742624Y32268598D01*
X18742619Y32268597D01*
X18607914Y32218356D01*
X18607912Y32218355D01*
X18492811Y32132189D01*
X18406645Y32017088D01*
X18406644Y32017086D01*
X18356403Y31882381D01*
X18356402Y31882376D01*
X18350000Y31822828D01*
X18350000Y31627993D01*
X18330787Y31568862D01*
X18280487Y31532317D01*
X18218313Y31532317D01*
X18168013Y31568862D01*
X18159765Y31582321D01*
X18105017Y31689769D01*
X18105016Y31689771D01*
X18014771Y31780016D01*
X18014768Y31780018D01*
X18014767Y31780019D01*
X18014768Y31780019D01*
X17970329Y31802661D01*
X17926365Y31846625D01*
X17915400Y31892296D01*
X17915400Y33184000D01*
X17934613Y33243131D01*
X17984913Y33279676D01*
X18016000Y33284600D01*
X18407704Y33284600D01*
X18466835Y33265387D01*
X18497339Y33229671D01*
X18519981Y33185233D01*
X18519982Y33185232D01*
X18519984Y33185229D01*
X18610229Y33094984D01*
X18610231Y33094983D01*
X18610232Y33094982D01*
X18723941Y33037045D01*
X18723945Y33037043D01*
X18794185Y33025919D01*
X18818285Y33022101D01*
X18818290Y33022100D01*
X18818292Y33022100D01*
X19781710Y33022100D01*
X19781714Y33022101D01*
X19876055Y33037043D01*
X19989771Y33094984D01*
X20080016Y33185229D01*
X20087562Y33200039D01*
X20102661Y33229671D01*
X20146625Y33273635D01*
X20192296Y33284600D01*
X20520365Y33284600D01*
X20579496Y33265387D01*
X20591500Y33255135D01*
X20600855Y33245780D01*
X20704450Y33200038D01*
X20729774Y33197100D01*
X20729776Y33197100D01*
X21995224Y33197100D01*
X21995226Y33197100D01*
X22020550Y33200038D01*
X22124145Y33245780D01*
X22204220Y33325855D01*
X22249962Y33429450D01*
X22252900Y33454774D01*
X22252900Y33845226D01*
X22249962Y33870550D01*
X22204220Y33974145D01*
X22124145Y34054220D01*
X22124144Y34054221D01*
X22020551Y34099962D01*
X21995229Y34102900D01*
X21995226Y34102900D01*
X20729774Y34102900D01*
X20729770Y34102900D01*
X20704449Y34099962D01*
X20702210Y34098973D01*
X20661573Y34090400D01*
X20192296Y34090400D01*
X20133165Y34109613D01*
X20102661Y34145329D01*
X20080018Y34189768D01*
X20080017Y34189769D01*
X20080016Y34189771D01*
X19989771Y34280016D01*
X19989768Y34280018D01*
X19989767Y34280019D01*
X19989768Y34280019D01*
X19876058Y34337956D01*
X19876052Y34337958D01*
X19781714Y34352900D01*
X19781708Y34352900D01*
X18818292Y34352900D01*
X18818285Y34352900D01*
X18723947Y34337958D01*
X18723941Y34337956D01*
X18610232Y34280019D01*
X18519981Y34189768D01*
X18497339Y34145329D01*
X18453375Y34101365D01*
X18407704Y34090400D01*
X17653500Y34090400D01*
X17594369Y34109613D01*
X17557824Y34159913D01*
X17552900Y34191000D01*
X17552900Y34631710D01*
X17552899Y34631715D01*
X17543787Y34689245D01*
X17537957Y34726055D01*
X17526865Y34747824D01*
X17480018Y34839768D01*
X17480017Y34839769D01*
X17480016Y34839771D01*
X17389771Y34930016D01*
X17389768Y34930018D01*
X17389767Y34930019D01*
X17389768Y34930019D01*
X17276058Y34987956D01*
X17276052Y34987958D01*
X17181714Y35002900D01*
X17181708Y35002900D01*
X15818292Y35002900D01*
X15818285Y35002900D01*
X15723947Y34987958D01*
X15723941Y34987956D01*
X15610232Y34930019D01*
X15519981Y34839768D01*
X15462044Y34726059D01*
X15462042Y34726053D01*
X15447100Y34631715D01*
X15447100Y32568286D01*
X14901500Y32568286D01*
X12895752Y34574034D01*
X12895750Y34574037D01*
X12799769Y34670018D01*
X12778215Y34681001D01*
X12764761Y34689245D01*
X12745193Y34703461D01*
X12745194Y34703461D01*
X12722184Y34710938D01*
X12707607Y34716977D01*
X12686058Y34727956D01*
X12686051Y34727959D01*
X12662164Y34731742D01*
X12646821Y34735425D01*
X12633920Y34739617D01*
X12623813Y34742900D01*
X12623812Y34742900D01*
X12555499Y34742900D01*
X12496368Y34762113D01*
X12459823Y34812413D01*
X12454899Y34843500D01*
X12454899Y35117056D01*
X12446028Y35161658D01*
X12446026Y35161662D01*
X12412235Y35212233D01*
X12412233Y35212235D01*
X12361657Y35246029D01*
X12325928Y35253136D01*
X12317057Y35254900D01*
X12317056Y35254900D01*
X10762944Y35254900D01*
X10718342Y35246029D01*
X10718338Y35246027D01*
X10667767Y35212236D01*
X10667765Y35212234D01*
X10633971Y35161658D01*
X10625100Y35117057D01*
X10625100Y34843500D01*
X10605887Y34784369D01*
X10555587Y34747824D01*
X10524500Y34742900D01*
X10015499Y34742900D01*
X9956368Y34762113D01*
X9919823Y34812413D01*
X9914899Y34843500D01*
X9914899Y35117056D01*
X9906028Y35161658D01*
X9906026Y35161662D01*
X9872235Y35212233D01*
X9872233Y35212235D01*
X9821657Y35246029D01*
X9785928Y35253136D01*
X9777057Y35254900D01*
X9777056Y35254900D01*
X8222944Y35254900D01*
X8178342Y35246029D01*
X8178338Y35246027D01*
X8127767Y35212236D01*
X8127765Y35212234D01*
X8093971Y35161658D01*
X8085100Y35117057D01*
X8085100Y33562945D01*
X8093971Y33518343D01*
X8093973Y33518339D01*
X8127764Y33467768D01*
X8127765Y33467767D01*
X8127766Y33467766D01*
X8178342Y33433972D01*
X8222943Y33425100D01*
X9777056Y33425101D01*
X9821658Y33433972D01*
X9872234Y33467766D01*
X9906028Y33518342D01*
X9914900Y33562943D01*
X9914900Y33836500D01*
X9934113Y33895631D01*
X9984413Y33932176D01*
X10015500Y33937100D01*
X10524501Y33937100D01*
X10583632Y33917887D01*
X10620177Y33867587D01*
X10625101Y33836500D01*
X10625101Y33562945D01*
X10633971Y33518343D01*
X10633973Y33518339D01*
X10667764Y33467768D01*
X10667765Y33467767D01*
X10667766Y33467766D01*
X10718342Y33433972D01*
X10762943Y33425100D01*
X12317056Y33425101D01*
X12361658Y33433972D01*
X12412234Y33467766D01*
X12446028Y33518342D01*
X12454900Y33562943D01*
X12454899Y33632447D01*
X12474111Y33691575D01*
X12524411Y33728121D01*
X12586585Y33728122D01*
X12626634Y33703580D01*
X14595155Y31735059D01*
X14623381Y31679661D01*
X14613655Y31618253D01*
X14569691Y31574289D01*
X14508283Y31564563D01*
X14478349Y31574289D01*
X14476058Y31575456D01*
X14476052Y31575458D01*
X14381714Y31590400D01*
X14381708Y31590400D01*
X13621056Y31590400D01*
X13561925Y31609613D01*
X13549921Y31619865D01*
X13135752Y32034034D01*
X13135750Y32034037D01*
X13039769Y32130018D01*
X13018215Y32141001D01*
X13004761Y32149245D01*
X12985193Y32163461D01*
X12985194Y32163461D01*
X12962184Y32170938D01*
X12947607Y32176977D01*
X12926058Y32187956D01*
X12926051Y32187959D01*
X12902164Y32191742D01*
X12886821Y32195425D01*
X12873920Y32199617D01*
X12863813Y32202900D01*
X12863812Y32202900D01*
X12555499Y32202900D01*
X12496368Y32222113D01*
X12459823Y32272413D01*
X12454899Y32303500D01*
X12454899Y32577056D01*
X12446028Y32621658D01*
X12446026Y32621662D01*
X12412235Y32672233D01*
X12412233Y32672235D01*
X12361657Y32706029D01*
X12325928Y32713136D01*
X12317057Y32714900D01*
X12317056Y32714900D01*
X10762944Y32714900D01*
X10718342Y32706029D01*
X10718338Y32706027D01*
X10667767Y32672236D01*
X10667765Y32672234D01*
X10633971Y32621658D01*
X10625100Y32577057D01*
X10625100Y32303500D01*
X10605887Y32244369D01*
X10555587Y32207824D01*
X10524500Y32202900D01*
X10015499Y32202900D01*
X9956368Y32222113D01*
X9919823Y32272413D01*
X9914899Y32303500D01*
X9914899Y32577056D01*
X9906028Y32621658D01*
X9906026Y32621662D01*
X9872235Y32672233D01*
X9872233Y32672235D01*
X9821657Y32706029D01*
X9785928Y32713136D01*
X9777057Y32714900D01*
X9777056Y32714900D01*
X8222944Y32714900D01*
X8178342Y32706029D01*
X8178338Y32706027D01*
X8127767Y32672236D01*
X8127765Y32672234D01*
X8093971Y32621658D01*
X8085100Y32577057D01*
X8085100Y31022945D01*
X5359500Y31022945D01*
X5359500Y35284300D01*
X18350000Y35284300D01*
X18350000Y35202173D01*
X18356402Y35142625D01*
X18356403Y35142620D01*
X18406644Y35007915D01*
X18406645Y35007913D01*
X18492811Y34892812D01*
X18607912Y34806646D01*
X18607914Y34806645D01*
X18742619Y34756404D01*
X18742624Y34756403D01*
X18802172Y34750000D01*
X19071800Y34750000D01*
X19071800Y35284300D01*
X18350000Y35284300D01*
X5359500Y35284300D01*
X5359500Y35740700D01*
X18350000Y35740700D01*
X19071800Y35740700D01*
X19071800Y36275000D01*
X19528200Y36275000D01*
X19528200Y34750000D01*
X19797828Y34750000D01*
X19857375Y34756403D01*
X19857380Y34756404D01*
X19992085Y34806645D01*
X19992087Y34806646D01*
X20107188Y34892812D01*
X20193354Y35007913D01*
X20193355Y35007915D01*
X20243596Y35142620D01*
X20243597Y35142625D01*
X20244671Y35152607D01*
X20270095Y35209346D01*
X20324013Y35240305D01*
X20385831Y35233659D01*
X20431936Y35191947D01*
X20434331Y35187525D01*
X20447359Y35161955D01*
X20536955Y35072359D01*
X20649851Y35014836D01*
X20649854Y35014835D01*
X20743514Y35000001D01*
X21134300Y35000001D01*
X21134300Y35321800D01*
X21590700Y35321800D01*
X21590700Y35000001D01*
X21981478Y35000001D01*
X22075150Y35014836D01*
X22188044Y35072359D01*
X22277641Y35161956D01*
X22335164Y35274852D01*
X22335165Y35274854D01*
X22342602Y35321800D01*
X21590700Y35321800D01*
X21134300Y35321800D01*
X21134300Y36100000D01*
X21590700Y36100000D01*
X21590700Y35778200D01*
X22342600Y35778200D01*
X22335164Y35825151D01*
X22277641Y35938045D01*
X22188044Y36027642D01*
X22075148Y36085165D01*
X22075145Y36085166D01*
X21981487Y36100000D01*
X21590700Y36100000D01*
X21134300Y36100000D01*
X20743521Y36100000D01*
X20649849Y36085165D01*
X20536955Y36027642D01*
X20447359Y35938046D01*
X20421634Y35887558D01*
X20377669Y35843595D01*
X20316260Y35833870D01*
X20260863Y35862097D01*
X20237741Y35898076D01*
X20193352Y36017090D01*
X20107188Y36132189D01*
X19992087Y36218355D01*
X19992085Y36218356D01*
X19857380Y36268597D01*
X19857375Y36268598D01*
X19797828Y36275000D01*
X19528200Y36275000D01*
X19071800Y36275000D01*
X18802172Y36275000D01*
X18742624Y36268598D01*
X18742619Y36268597D01*
X18607914Y36218356D01*
X18607912Y36218355D01*
X18492811Y36132189D01*
X18406645Y36017088D01*
X18406644Y36017086D01*
X18356403Y35882381D01*
X18356402Y35882376D01*
X18350000Y35822828D01*
X18350000Y35740700D01*
X5359500Y35740700D01*
X5359500Y37371800D01*
X15350000Y37371800D01*
X15350000Y36552173D01*
X15356402Y36492625D01*
X15356403Y36492620D01*
X15406644Y36357915D01*
X15406645Y36357913D01*
X15492811Y36242812D01*
X15607912Y36156646D01*
X15607914Y36156645D01*
X15742619Y36106404D01*
X15742624Y36106403D01*
X15802172Y36100000D01*
X16271800Y36100000D01*
X16271800Y37371800D01*
X16728200Y37371800D01*
X16728200Y36100000D01*
X17197828Y36100000D01*
X17257375Y36106403D01*
X17257380Y36106404D01*
X17392085Y36156645D01*
X17392087Y36156646D01*
X17507188Y36242812D01*
X17593354Y36357913D01*
X17593355Y36357915D01*
X17643596Y36492620D01*
X17643597Y36492625D01*
X17650000Y36552173D01*
X17650000Y37371800D01*
X16728200Y37371800D01*
X16271800Y37371800D01*
X15350000Y37371800D01*
X5359500Y37371800D01*
X5359500Y37828200D01*
X15350000Y37828200D01*
X16271800Y37828200D01*
X16271800Y39100000D01*
X16728200Y39100000D01*
X16728200Y37828200D01*
X17650000Y37828200D01*
X17650000Y38071800D01*
X18550000Y38071800D01*
X18550000Y37777173D01*
X18556402Y37717625D01*
X18556403Y37717620D01*
X18606644Y37582915D01*
X18606645Y37582913D01*
X18692811Y37467812D01*
X18807912Y37381646D01*
X18807914Y37381645D01*
X18942619Y37331404D01*
X18942624Y37331403D01*
X19002172Y37325000D01*
X19071800Y37325000D01*
X19071800Y38071800D01*
X19528200Y38071800D01*
X19528200Y37325000D01*
X19597828Y37325000D01*
X19657375Y37331403D01*
X19657380Y37331404D01*
X19792085Y37381645D01*
X19792087Y37381646D01*
X19907188Y37467812D01*
X19993354Y37582913D01*
X19993355Y37582915D01*
X20043596Y37717620D01*
X20043597Y37717625D01*
X20050000Y37777173D01*
X20050000Y38071800D01*
X19528200Y38071800D01*
X19071800Y38071800D01*
X18550000Y38071800D01*
X17650000Y38071800D01*
X17650000Y38528200D01*
X18550000Y38528200D01*
X19071800Y38528200D01*
X19071800Y39275000D01*
X19528200Y39275000D01*
X19528200Y38528200D01*
X20050000Y38528200D01*
X20050000Y38822828D01*
X20043597Y38882376D01*
X20043596Y38882381D01*
X19993355Y39017086D01*
X19993354Y39017088D01*
X19907188Y39132189D01*
X19792087Y39218355D01*
X19792085Y39218356D01*
X19657380Y39268597D01*
X19657375Y39268598D01*
X19597828Y39275000D01*
X19528200Y39275000D01*
X19071800Y39275000D01*
X19002172Y39275000D01*
X18942624Y39268598D01*
X18942619Y39268597D01*
X18807914Y39218356D01*
X18807912Y39218355D01*
X18692811Y39132189D01*
X18606645Y39017088D01*
X18606644Y39017086D01*
X18556403Y38882381D01*
X18556402Y38882376D01*
X18550000Y38822828D01*
X18550000Y38528200D01*
X17650000Y38528200D01*
X17650000Y38647828D01*
X17643597Y38707376D01*
X17643596Y38707381D01*
X17593355Y38842086D01*
X17593354Y38842088D01*
X17507188Y38957189D01*
X17392087Y39043355D01*
X17392085Y39043356D01*
X17257380Y39093597D01*
X17257375Y39093598D01*
X17197828Y39100000D01*
X16728200Y39100000D01*
X16271800Y39100000D01*
X15802172Y39100000D01*
X15742624Y39093598D01*
X15742619Y39093597D01*
X15607914Y39043356D01*
X15607912Y39043355D01*
X15492811Y38957189D01*
X15406645Y38842088D01*
X15406644Y38842086D01*
X15356403Y38707381D01*
X15356402Y38707376D01*
X15350000Y38647828D01*
X15350000Y37828200D01*
X5359500Y37828200D01*
X5359500Y39743377D01*
X15128001Y39743377D01*
X15142505Y39670456D01*
X15197761Y39587761D01*
X15280456Y39532505D01*
X15353378Y39518000D01*
X15911801Y39518000D01*
X15911801Y40147605D01*
X15944961Y40124996D01*
X16073003Y40085500D01*
X16173313Y40085500D01*
X16272500Y40100450D01*
X16368201Y40146538D01*
X16368201Y39518000D01*
X16926624Y39518000D01*
X16999545Y39532505D01*
X17082240Y39587761D01*
X17137496Y39670456D01*
X17152001Y39743377D01*
X17152001Y39752945D01*
X17765101Y39752945D01*
X17773972Y39708343D01*
X17773974Y39708339D01*
X17807765Y39657768D01*
X17807766Y39657767D01*
X17807767Y39657766D01*
X17858343Y39623972D01*
X17902944Y39615100D01*
X19457057Y39615101D01*
X19501659Y39623972D01*
X19552235Y39657766D01*
X19586029Y39708342D01*
X19594901Y39752943D01*
X19594901Y40026500D01*
X19614114Y40085631D01*
X19664414Y40122176D01*
X19695501Y40127100D01*
X20204502Y40127100D01*
X20263633Y40107887D01*
X20300178Y40057587D01*
X20305102Y40026500D01*
X20305102Y39752945D01*
X20313972Y39708343D01*
X20313974Y39708339D01*
X20347765Y39657768D01*
X20347766Y39657767D01*
X20347767Y39657766D01*
X20398343Y39623972D01*
X20442944Y39615100D01*
X20566501Y39615101D01*
X20625632Y39595889D01*
X20662177Y39545589D01*
X20667101Y39514501D01*
X20667101Y39103558D01*
X20647888Y39044427D01*
X20637637Y39032425D01*
X20619981Y39014769D01*
X20562044Y38901059D01*
X20562042Y38901053D01*
X20547100Y38806715D01*
X20547100Y37793286D01*
X20562042Y37698948D01*
X20562044Y37698942D01*
X20619981Y37585233D01*
X20619982Y37585232D01*
X20619984Y37585229D01*
X20710229Y37494984D01*
X20710231Y37494983D01*
X20710232Y37494982D01*
X20800484Y37448997D01*
X20823945Y37437043D01*
X20894185Y37425919D01*
X20918285Y37422101D01*
X20918290Y37422100D01*
X20918292Y37422100D01*
X21481710Y37422100D01*
X21481714Y37422101D01*
X21576055Y37437043D01*
X21689771Y37494984D01*
X21780016Y37585229D01*
X21783779Y37592616D01*
X21834506Y37692171D01*
X21878469Y37736135D01*
X21924141Y37747100D01*
X22075859Y37747100D01*
X22134990Y37727887D01*
X22165494Y37692171D01*
X22219981Y37585233D01*
X22219982Y37585232D01*
X22219984Y37585229D01*
X22251493Y37553720D01*
X22278096Y37506408D01*
X22280812Y37495262D01*
X22280815Y37495255D01*
X22301638Y37458221D01*
X22306220Y37448997D01*
X22311412Y37437045D01*
X22323150Y37410021D01*
X22335819Y37394449D01*
X22345466Y37380274D01*
X22351058Y37370330D01*
X22355304Y37362778D01*
X22385347Y37332735D01*
X22392248Y37325088D01*
X22419068Y37292122D01*
X22434990Y37280884D01*
X22435465Y37280548D01*
X22448586Y37269496D01*
X23861159Y35856922D01*
X23863546Y35854452D01*
X23907791Y35807077D01*
X23944103Y35784996D01*
X23952609Y35779207D01*
X23986471Y35753528D01*
X24005140Y35746166D01*
X24020505Y35738534D01*
X24037649Y35728108D01*
X24037650Y35728108D01*
X24037653Y35728106D01*
X24078579Y35716640D01*
X24088329Y35713360D01*
X24127862Y35697770D01*
X24147825Y35695719D01*
X24164681Y35692516D01*
X24184006Y35687100D01*
X24226492Y35687100D01*
X24236779Y35686573D01*
X24279054Y35682227D01*
X24298831Y35685638D01*
X24315924Y35687100D01*
X32689312Y35687100D01*
X32748443Y35667887D01*
X32760447Y35657635D01*
X33317635Y35100447D01*
X33345861Y35045049D01*
X33347100Y35029312D01*
X33347100Y30770689D01*
X33327887Y30711558D01*
X33317635Y30699554D01*
X32100446Y29482365D01*
X32045048Y29454139D01*
X32029311Y29452900D01*
X27153500Y29452900D01*
X27094369Y29472113D01*
X27057824Y29522413D01*
X27052900Y29553500D01*
X27052900Y31031710D01*
X27052899Y31031715D01*
X27047846Y31063618D01*
X27037957Y31126055D01*
X27012512Y31175994D01*
X26980018Y31239768D01*
X26980017Y31239769D01*
X26980016Y31239771D01*
X26944419Y31275368D01*
X26916195Y31330763D01*
X26925921Y31392171D01*
X26969885Y31436135D01*
X27015556Y31447100D01*
X28344501Y31447100D01*
X28403632Y31427887D01*
X28440177Y31377587D01*
X28445101Y31346500D01*
X28445101Y30922945D01*
X28453971Y30878343D01*
X28453973Y30878339D01*
X28487764Y30827768D01*
X28487765Y30827767D01*
X28487766Y30827766D01*
X28538342Y30793972D01*
X28582943Y30785100D01*
X30137056Y30785101D01*
X30181658Y30793972D01*
X30232234Y30827766D01*
X30266028Y30878342D01*
X30274900Y30922943D01*
X30274900Y31346500D01*
X30294113Y31405631D01*
X30344413Y31442176D01*
X30375500Y31447100D01*
X30884501Y31447100D01*
X30943632Y31427887D01*
X30980177Y31377587D01*
X30985101Y31346500D01*
X30985101Y30922945D01*
X30993971Y30878343D01*
X30993973Y30878339D01*
X31027764Y30827768D01*
X31027765Y30827767D01*
X31027766Y30827766D01*
X31078342Y30793972D01*
X31122943Y30785100D01*
X32677056Y30785101D01*
X32721658Y30793972D01*
X32772234Y30827766D01*
X32806028Y30878342D01*
X32814900Y30922943D01*
X32814899Y32477056D01*
X32806028Y32521658D01*
X32806026Y32521662D01*
X32772235Y32572233D01*
X32772233Y32572235D01*
X32721657Y32606029D01*
X32685928Y32613136D01*
X32677057Y32614900D01*
X32677056Y32614900D01*
X31122944Y32614900D01*
X31078342Y32606029D01*
X31078338Y32606027D01*
X31024205Y32569855D01*
X30968314Y32552900D01*
X30291686Y32552900D01*
X30235796Y32569854D01*
X30225016Y32577057D01*
X30181658Y32606028D01*
X30181657Y32606029D01*
X30181656Y32606029D01*
X30148130Y32612698D01*
X30137057Y32614900D01*
X30137056Y32614900D01*
X28582944Y32614900D01*
X28538342Y32606029D01*
X28538338Y32606027D01*
X28484205Y32569855D01*
X28428314Y32552900D01*
X27015556Y32552900D01*
X26956425Y32572113D01*
X26919880Y32622413D01*
X26919880Y32684587D01*
X26944419Y32724633D01*
X26980016Y32760229D01*
X27037957Y32873945D01*
X27052900Y32968292D01*
X27052900Y33946500D01*
X27072113Y34005631D01*
X27122413Y34042176D01*
X27153500Y34047100D01*
X28344501Y34047100D01*
X28403632Y34027887D01*
X28440177Y33977587D01*
X28445101Y33946500D01*
X28445101Y33462945D01*
X28453971Y33418343D01*
X28453973Y33418339D01*
X28487764Y33367768D01*
X28487765Y33367767D01*
X28487766Y33367766D01*
X28538342Y33333972D01*
X28582943Y33325100D01*
X30137056Y33325101D01*
X30181658Y33333972D01*
X30232234Y33367766D01*
X30266028Y33418342D01*
X30274900Y33462943D01*
X30274900Y33946500D01*
X30294113Y34005631D01*
X30344413Y34042176D01*
X30375500Y34047100D01*
X30884501Y34047100D01*
X30943632Y34027887D01*
X30980177Y33977587D01*
X30985101Y33946500D01*
X30985101Y33462945D01*
X30993971Y33418343D01*
X30993973Y33418339D01*
X31027764Y33367768D01*
X31027765Y33367767D01*
X31027766Y33367766D01*
X31078342Y33333972D01*
X31122943Y33325100D01*
X32677056Y33325101D01*
X32721658Y33333972D01*
X32772234Y33367766D01*
X32806028Y33418342D01*
X32814900Y33462943D01*
X32814899Y35017056D01*
X32806028Y35061658D01*
X32806026Y35061662D01*
X32772235Y35112233D01*
X32772233Y35112235D01*
X32721657Y35146029D01*
X32685928Y35153136D01*
X32677057Y35154900D01*
X32677056Y35154900D01*
X31354057Y35154900D01*
X31343773Y35155427D01*
X31320947Y35157773D01*
X31320941Y35157773D01*
X31312759Y35156362D01*
X31295671Y35154900D01*
X31122944Y35154900D01*
X31122602Y35154831D01*
X31102986Y35152900D01*
X30157020Y35152900D01*
X30137394Y35154833D01*
X30137057Y35154900D01*
X30137056Y35154900D01*
X28582944Y35154900D01*
X28582602Y35154831D01*
X28562986Y35152900D01*
X27085927Y35152900D01*
X27026796Y35172113D01*
X26996292Y35207828D01*
X26980016Y35239771D01*
X26935487Y35284300D01*
X26889771Y35330016D01*
X26889768Y35330018D01*
X26889767Y35330019D01*
X26889768Y35330019D01*
X26776058Y35387956D01*
X26776052Y35387958D01*
X26681714Y35402900D01*
X26681708Y35402900D01*
X25318292Y35402900D01*
X25318285Y35402900D01*
X25223947Y35387958D01*
X25223941Y35387956D01*
X25110232Y35330019D01*
X25019983Y35239771D01*
X25003708Y35207828D01*
X24959744Y35163865D01*
X24914073Y35152900D01*
X23199675Y35152900D01*
X23086929Y35137403D01*
X22947519Y35076850D01*
X22945816Y35075463D01*
X22944235Y35074853D01*
X22941642Y35073275D01*
X22941358Y35073741D01*
X22887822Y35053050D01*
X22882329Y35052900D01*
X22604770Y35052900D01*
X22579448Y35049962D01*
X22475855Y35004221D01*
X22395779Y34924145D01*
X22350038Y34820552D01*
X22347100Y34795230D01*
X22347100Y34404771D01*
X22350038Y34379449D01*
X22395779Y34275856D01*
X22395780Y34275855D01*
X22475855Y34195780D01*
X22579450Y34150038D01*
X22604774Y34147100D01*
X22889956Y34147100D01*
X22942225Y34132455D01*
X22990825Y34102900D01*
X23011380Y34090400D01*
X23015153Y34088106D01*
X23161506Y34047100D01*
X24846500Y34047100D01*
X24905631Y34027887D01*
X24942176Y33977587D01*
X24947100Y33946500D01*
X24947100Y32968286D01*
X24962042Y32873948D01*
X24962044Y32873942D01*
X25019981Y32760233D01*
X25019982Y32760232D01*
X25019984Y32760229D01*
X25055580Y32724633D01*
X25083805Y32669237D01*
X25074079Y32607829D01*
X25030115Y32563865D01*
X24984444Y32552900D01*
X24111143Y32552900D01*
X24107708Y32552959D01*
X24042928Y32555172D01*
X24042923Y32555172D01*
X24001638Y32545111D01*
X23991520Y32543188D01*
X23949429Y32537403D01*
X23949427Y32537402D01*
X23931015Y32529406D01*
X23914762Y32523940D01*
X23895260Y32519188D01*
X23895256Y32519186D01*
X23858219Y32498362D01*
X23848999Y32493782D01*
X23810020Y32476850D01*
X23794448Y32464182D01*
X23780276Y32454536D01*
X23762778Y32444697D01*
X23762775Y32444694D01*
X23732731Y32414651D01*
X23725088Y32407753D01*
X23692119Y32380930D01*
X23692119Y32380929D01*
X23680545Y32364534D01*
X23669496Y32351417D01*
X22816920Y31498841D01*
X22814451Y31496455D01*
X22767080Y31452212D01*
X22767074Y31452205D01*
X22744995Y31415898D01*
X22739204Y31407390D01*
X22713528Y31373529D01*
X22713526Y31373526D01*
X22713524Y31373523D01*
X22706163Y31354857D01*
X22698536Y31339501D01*
X22688107Y31322352D01*
X22688104Y31322344D01*
X22676642Y31281435D01*
X22673360Y31271675D01*
X22657769Y31232139D01*
X22657769Y31232136D01*
X22655716Y31212169D01*
X22652514Y31195320D01*
X22647100Y31175997D01*
X22647100Y31151766D01*
X22627887Y31092635D01*
X22577587Y31056090D01*
X22558098Y31051837D01*
X22541950Y31049963D01*
X22438355Y31004221D01*
X22358279Y30924145D01*
X22312538Y30820552D01*
X22309600Y30795230D01*
X22309600Y30404771D01*
X22312538Y30379449D01*
X22358279Y30275856D01*
X22358280Y30275855D01*
X22438355Y30195780D01*
X22541950Y30150038D01*
X22557471Y30148238D01*
X22558094Y30148165D01*
X22614617Y30122265D01*
X22645121Y30068089D01*
X22647100Y30048235D01*
X22647100Y27670689D01*
X22627887Y27611558D01*
X22617635Y27599554D01*
X22600446Y27582365D01*
X22545048Y27554139D01*
X22529311Y27552900D01*
X21168285Y27552900D01*
X21073947Y27537958D01*
X21073941Y27537956D01*
X20960232Y27480019D01*
X20869981Y27389768D01*
X20812044Y27276059D01*
X20812042Y27276053D01*
X20799174Y27194808D01*
X20770948Y27139410D01*
X20715550Y27111184D01*
X20654141Y27120910D01*
X20610178Y27164874D01*
X20599789Y27199791D01*
X20593597Y27257376D01*
X20593596Y27257381D01*
X20543355Y27392086D01*
X20543354Y27392088D01*
X20457188Y27507189D01*
X20342087Y27593355D01*
X20342085Y27593356D01*
X20207380Y27643597D01*
X20207375Y27643598D01*
X20147828Y27650000D01*
X19328200Y27650000D01*
X19328200Y25350000D01*
X20147828Y25350000D01*
X20207375Y25356403D01*
X20207380Y25356404D01*
X20342085Y25406645D01*
X20342087Y25406646D01*
X20457188Y25492812D01*
X20543354Y25607913D01*
X20543355Y25607915D01*
X20593596Y25742620D01*
X20593597Y25742625D01*
X20599789Y25800210D01*
X20625213Y25856948D01*
X20679132Y25887907D01*
X20740950Y25881261D01*
X20787055Y25839548D01*
X20799174Y25805193D01*
X20812042Y25723948D01*
X20812044Y25723942D01*
X20869981Y25610233D01*
X20869982Y25610232D01*
X20869984Y25610229D01*
X20960229Y25519984D01*
X20960231Y25519983D01*
X20960232Y25519982D01*
X21013557Y25492812D01*
X21073945Y25462043D01*
X21144185Y25450919D01*
X21168285Y25447101D01*
X21168290Y25447100D01*
X21168292Y25447100D01*
X23231710Y25447100D01*
X23231714Y25447101D01*
X23326055Y25462043D01*
X23439771Y25519984D01*
X23530016Y25610229D01*
X23587957Y25723945D01*
X23602900Y25818292D01*
X23602900Y26976055D01*
X23622113Y27035186D01*
X23629065Y27043050D01*
X23632917Y27047786D01*
X23632923Y27047791D01*
X23655003Y27084102D01*
X23660789Y27092603D01*
X23686472Y27126470D01*
X23693837Y27145149D01*
X23701464Y27160503D01*
X23711894Y27177653D01*
X23723360Y27218580D01*
X23726637Y27228325D01*
X23742230Y27267862D01*
X23744282Y27287836D01*
X23747482Y27304674D01*
X23752900Y27324006D01*
X23752900Y27366492D01*
X23753427Y27376779D01*
X23754762Y27389768D01*
X23757773Y27419054D01*
X23754363Y27438833D01*
X23752900Y27455925D01*
X23752900Y30048235D01*
X23772113Y30107366D01*
X23822413Y30143911D01*
X23841906Y30148165D01*
X23842449Y30148229D01*
X23858050Y30150038D01*
X23961645Y30195780D01*
X24041720Y30275855D01*
X24087462Y30379450D01*
X24090400Y30404774D01*
X24090400Y30795226D01*
X24087462Y30820550D01*
X24041720Y30924145D01*
X23995026Y30970839D01*
X23966800Y31026237D01*
X23976526Y31087645D01*
X23995022Y31113105D01*
X24299554Y31417635D01*
X24354952Y31445861D01*
X24370689Y31447100D01*
X24984444Y31447100D01*
X25043575Y31427887D01*
X25080120Y31377587D01*
X25080120Y31315413D01*
X25055580Y31275368D01*
X25019984Y31239771D01*
X25019981Y31239768D01*
X24962044Y31126059D01*
X24962042Y31126053D01*
X24947100Y31031715D01*
X24947100Y28968286D01*
X24962042Y28873948D01*
X24962044Y28873942D01*
X25019981Y28760233D01*
X25019982Y28760232D01*
X25019984Y28760229D01*
X25110229Y28669984D01*
X25110231Y28669983D01*
X25110232Y28669982D01*
X25207457Y28620444D01*
X25223945Y28612043D01*
X25294185Y28600919D01*
X25318285Y28597101D01*
X25318290Y28597100D01*
X25318292Y28597100D01*
X25346500Y28597100D01*
X25405631Y28577887D01*
X25442176Y28527587D01*
X25447100Y28496500D01*
X25447100Y27653500D01*
X25427887Y27594369D01*
X25377587Y27557824D01*
X25346500Y27552900D01*
X25168285Y27552900D01*
X25073947Y27537958D01*
X25073941Y27537956D01*
X24960232Y27480019D01*
X24869981Y27389768D01*
X24812044Y27276059D01*
X24812042Y27276053D01*
X24797100Y27181715D01*
X24797100Y25818286D01*
X24812042Y25723948D01*
X24812044Y25723942D01*
X24869981Y25610233D01*
X24869982Y25610232D01*
X24869984Y25610229D01*
X24960229Y25519984D01*
X24960231Y25519983D01*
X24960232Y25519982D01*
X25013557Y25492812D01*
X25073945Y25462043D01*
X25144185Y25450919D01*
X25168285Y25447101D01*
X25168290Y25447100D01*
X25168292Y25447100D01*
X27231710Y25447100D01*
X27231714Y25447101D01*
X27326055Y25462043D01*
X27439771Y25519984D01*
X27530016Y25610229D01*
X27587957Y25723945D01*
X27602900Y25818292D01*
X27602900Y27181708D01*
X27587957Y27276055D01*
X27563523Y27324010D01*
X27530018Y27389768D01*
X27530017Y27389769D01*
X27530016Y27389771D01*
X27439771Y27480016D01*
X27439768Y27480018D01*
X27439767Y27480019D01*
X27439768Y27480019D01*
X27326058Y27537956D01*
X27326052Y27537958D01*
X27231714Y27552900D01*
X27231708Y27552900D01*
X26653500Y27552900D01*
X26594369Y27572113D01*
X26557824Y27622413D01*
X26552900Y27653500D01*
X26552900Y28246500D01*
X26572113Y28305631D01*
X26622413Y28342176D01*
X26653500Y28347100D01*
X28314501Y28347100D01*
X28373632Y28327887D01*
X28410177Y28277587D01*
X28415101Y28246500D01*
X28415101Y27582945D01*
X28423971Y27538343D01*
X28423973Y27538339D01*
X28457764Y27487768D01*
X28457765Y27487767D01*
X28457766Y27487766D01*
X28508342Y27453972D01*
X28552943Y27445100D01*
X30107056Y27445101D01*
X30151658Y27453972D01*
X30202234Y27487766D01*
X30236028Y27538342D01*
X30244900Y27582943D01*
X30244900Y28246500D01*
X30264113Y28305631D01*
X30314413Y28342176D01*
X30345500Y28347100D01*
X30854501Y28347100D01*
X30913632Y28327887D01*
X30950177Y28277587D01*
X30955101Y28246500D01*
X30955101Y27582945D01*
X30963971Y27538343D01*
X30963973Y27538339D01*
X30997764Y27487768D01*
X30997765Y27487767D01*
X30997766Y27487766D01*
X31048342Y27453972D01*
X31092943Y27445100D01*
X32647056Y27445101D01*
X32691658Y27453972D01*
X32742234Y27487766D01*
X32776028Y27538342D01*
X32784900Y27582943D01*
X32784899Y28561314D01*
X32804112Y28620444D01*
X32814358Y28632442D01*
X34283105Y30101188D01*
X34285516Y30103519D01*
X34332923Y30147791D01*
X34355008Y30184111D01*
X34360795Y30192613D01*
X34386472Y30226471D01*
X34393834Y30245143D01*
X34401465Y30260506D01*
X34411894Y30277653D01*
X34423360Y30318581D01*
X34426641Y30328333D01*
X34430436Y30337956D01*
X34442230Y30367862D01*
X34444282Y30387836D01*
X34447482Y30404674D01*
X34452900Y30424006D01*
X34452900Y30466492D01*
X34453427Y30476779D01*
X34453518Y30477666D01*
X34457773Y30519054D01*
X34454363Y30538833D01*
X34452900Y30555925D01*
X34452900Y35288857D01*
X34452959Y35292292D01*
X34455172Y35357072D01*
X34455172Y35357073D01*
X34445106Y35398377D01*
X34443187Y35408482D01*
X34437402Y35450571D01*
X34437402Y35450573D01*
X34429407Y35468978D01*
X34423939Y35485240D01*
X34419188Y35504737D01*
X34419184Y35504746D01*
X34398364Y35541774D01*
X34393781Y35551000D01*
X34376850Y35589978D01*
X34376850Y35589979D01*
X34364177Y35605557D01*
X34354530Y35619733D01*
X34344698Y35637218D01*
X34344697Y35637220D01*
X34344695Y35637223D01*
X34314652Y35667266D01*
X34307752Y35674912D01*
X34280931Y35707879D01*
X34264535Y35719452D01*
X34251413Y35730505D01*
X33358839Y36623080D01*
X33356452Y36625550D01*
X33312211Y36672921D01*
X33312210Y36672922D01*
X33312209Y36672923D01*
X33275893Y36695007D01*
X33267386Y36700797D01*
X33249967Y36714007D01*
X33233530Y36726472D01*
X33214859Y36733835D01*
X33199502Y36741463D01*
X33182346Y36751895D01*
X33141431Y36763359D01*
X33131669Y36766642D01*
X33092138Y36782231D01*
X33072166Y36784284D01*
X33055314Y36787487D01*
X33035994Y36792900D01*
X32993508Y36792900D01*
X32983221Y36793427D01*
X32974116Y36794363D01*
X32940946Y36797773D01*
X32940945Y36797773D01*
X32940944Y36797773D01*
X32921169Y36794363D01*
X32904076Y36792900D01*
X24530688Y36792900D01*
X24471557Y36812113D01*
X24459553Y36822365D01*
X23978844Y37303075D01*
X23964020Y37332169D01*
X23928074Y37353845D01*
X23482365Y37799554D01*
X23454139Y37854952D01*
X23452900Y37870689D01*
X23452900Y38071800D01*
X23950000Y38071800D01*
X23950000Y37777173D01*
X23956402Y37717625D01*
X23956403Y37717620D01*
X24006644Y37582915D01*
X24006645Y37582913D01*
X24079743Y37485268D01*
X24086759Y37464678D01*
X24110267Y37454744D01*
X24207912Y37381646D01*
X24207914Y37381645D01*
X24342619Y37331404D01*
X24342624Y37331403D01*
X24402172Y37325000D01*
X24471800Y37325000D01*
X24471800Y38071800D01*
X24928200Y38071800D01*
X24928200Y37325000D01*
X24997828Y37325000D01*
X25057375Y37331403D01*
X25057380Y37331404D01*
X25192085Y37381645D01*
X25192087Y37381646D01*
X25307188Y37467812D01*
X25393354Y37582913D01*
X25393355Y37582915D01*
X25443596Y37717620D01*
X25443597Y37717625D01*
X25450000Y37777173D01*
X25450000Y38071800D01*
X24928200Y38071800D01*
X24471800Y38071800D01*
X23950000Y38071800D01*
X23452900Y38071800D01*
X23452900Y38528200D01*
X23950000Y38528200D01*
X24471800Y38528200D01*
X24471800Y39275000D01*
X24928200Y39275000D01*
X24928200Y38528200D01*
X25450000Y38528200D01*
X25450000Y38822828D01*
X25443597Y38882376D01*
X25443596Y38882381D01*
X25393355Y39017086D01*
X25393354Y39017088D01*
X25307188Y39132189D01*
X25192087Y39218355D01*
X25192085Y39218356D01*
X25057380Y39268597D01*
X25057375Y39268598D01*
X24997828Y39275000D01*
X24928200Y39275000D01*
X24471800Y39275000D01*
X24402172Y39275000D01*
X24342624Y39268598D01*
X24342619Y39268597D01*
X24207914Y39218356D01*
X24207912Y39218355D01*
X24092811Y39132189D01*
X24006645Y39017088D01*
X24006644Y39017086D01*
X23956403Y38882381D01*
X23956402Y38882376D01*
X23950000Y38822828D01*
X23950000Y38528200D01*
X23452900Y38528200D01*
X23452900Y38806710D01*
X23452899Y38806715D01*
X23440915Y38882376D01*
X23437957Y38901055D01*
X23437955Y38901059D01*
X23380018Y39014768D01*
X23380017Y39014769D01*
X23380016Y39014771D01*
X23289771Y39105016D01*
X23289768Y39105018D01*
X23289767Y39105019D01*
X23289768Y39105019D01*
X23176058Y39162956D01*
X23176052Y39162958D01*
X23081714Y39177900D01*
X23081708Y39177900D01*
X22518292Y39177900D01*
X22518285Y39177900D01*
X22423947Y39162958D01*
X22423941Y39162956D01*
X22310232Y39105019D01*
X22219981Y39014768D01*
X22165494Y38907829D01*
X22121531Y38863865D01*
X22075859Y38852900D01*
X21924141Y38852900D01*
X21865010Y38872113D01*
X21834505Y38907829D01*
X21783865Y39007217D01*
X21772901Y39052888D01*
X21772901Y39514501D01*
X21792114Y39573632D01*
X21842414Y39610177D01*
X21873501Y39615101D01*
X21997057Y39615101D01*
X22041659Y39623972D01*
X22092235Y39657766D01*
X22126029Y39708342D01*
X22132998Y39743377D01*
X22748001Y39743377D01*
X22762505Y39670456D01*
X22817761Y39587761D01*
X22900456Y39532505D01*
X22973378Y39518000D01*
X23531801Y39518000D01*
X23531801Y40147605D01*
X23564961Y40124996D01*
X23693003Y40085500D01*
X23793313Y40085500D01*
X23892500Y40100450D01*
X23988201Y40146538D01*
X23988201Y39518000D01*
X24546624Y39518000D01*
X24619545Y39532505D01*
X24702240Y39587761D01*
X24757496Y39670456D01*
X24772001Y39743377D01*
X24772001Y40301800D01*
X24141514Y40301800D01*
X24178448Y40365772D01*
X24208265Y40496407D01*
X24198252Y40630028D01*
X24149298Y40754760D01*
X24146555Y40758200D01*
X24772001Y40758200D01*
X24772001Y41316624D01*
X24757496Y41389545D01*
X24702240Y41472240D01*
X24619545Y41527496D01*
X24546624Y41542000D01*
X23988201Y41542000D01*
X23988201Y40912396D01*
X23955041Y40935004D01*
X23826999Y40974500D01*
X23726689Y40974500D01*
X23627502Y40959550D01*
X23531801Y40913463D01*
X23531801Y41542000D01*
X22973378Y41542000D01*
X22900456Y41527496D01*
X22817761Y41472240D01*
X22762505Y41389545D01*
X22748001Y41316624D01*
X22748001Y40758200D01*
X23378488Y40758200D01*
X23341554Y40694228D01*
X23311737Y40563593D01*
X23321750Y40429972D01*
X23370704Y40305240D01*
X23373447Y40301800D01*
X22748001Y40301800D01*
X22748001Y39743377D01*
X22132998Y39743377D01*
X22134901Y39752943D01*
X22134900Y41307056D01*
X22126029Y41351658D01*
X22126027Y41351662D01*
X22092236Y41402233D01*
X22092234Y41402235D01*
X22041658Y41436029D01*
X22005929Y41443136D01*
X21997058Y41444900D01*
X21997057Y41444900D01*
X21873501Y41444900D01*
X21814370Y41464113D01*
X21777825Y41514413D01*
X21772901Y41545500D01*
X21772901Y42054501D01*
X21792114Y42113632D01*
X21842414Y42150177D01*
X21873501Y42155101D01*
X21997057Y42155101D01*
X22041659Y42163972D01*
X22092235Y42197766D01*
X22126029Y42248342D01*
X22132998Y42283377D01*
X22748001Y42283377D01*
X22762505Y42210456D01*
X22817761Y42127761D01*
X22900456Y42072505D01*
X22973378Y42058000D01*
X23531801Y42058000D01*
X23531801Y42687605D01*
X23564961Y42664996D01*
X23693003Y42625500D01*
X23793313Y42625500D01*
X23892500Y42640450D01*
X23988201Y42686538D01*
X23988201Y42058000D01*
X24546624Y42058000D01*
X24619545Y42072505D01*
X24702240Y42127761D01*
X24757496Y42210456D01*
X24772001Y42283377D01*
X24772001Y42841800D01*
X24141514Y42841800D01*
X24178448Y42905772D01*
X24208265Y43036407D01*
X24198252Y43170028D01*
X24149298Y43294760D01*
X24146555Y43298200D01*
X24772001Y43298200D01*
X24772001Y43856624D01*
X24757496Y43929545D01*
X24702240Y44012240D01*
X24619545Y44067496D01*
X24546624Y44082000D01*
X23988201Y44082000D01*
X23988201Y43452396D01*
X23955041Y43475004D01*
X23826999Y43514500D01*
X23726689Y43514500D01*
X23627502Y43499550D01*
X23531801Y43453463D01*
X23531801Y44082000D01*
X22973378Y44082000D01*
X22900456Y44067496D01*
X22817761Y44012240D01*
X22762505Y43929545D01*
X22748001Y43856624D01*
X22748001Y43298200D01*
X23378488Y43298200D01*
X23341554Y43234228D01*
X23311737Y43103593D01*
X23321750Y42969972D01*
X23370704Y42845240D01*
X23373447Y42841800D01*
X22748001Y42841800D01*
X22748001Y42283377D01*
X22132998Y42283377D01*
X22134901Y42292943D01*
X22134900Y43847056D01*
X22126029Y43891658D01*
X22126027Y43891662D01*
X22092236Y43942233D01*
X22092234Y43942235D01*
X22041658Y43976029D01*
X22005929Y43983136D01*
X21997058Y43984900D01*
X21997057Y43984900D01*
X20442945Y43984900D01*
X20398343Y43976029D01*
X20398339Y43976027D01*
X20347768Y43942236D01*
X20347766Y43942234D01*
X20313972Y43891658D01*
X20305101Y43847057D01*
X20305101Y43753500D01*
X20285888Y43694369D01*
X20235588Y43657824D01*
X20204501Y43652900D01*
X19695500Y43652900D01*
X19636369Y43672113D01*
X19599824Y43722413D01*
X19594900Y43753500D01*
X19594900Y43847056D01*
X19586029Y43891658D01*
X19586027Y43891662D01*
X19552236Y43942233D01*
X19552234Y43942235D01*
X19501658Y43976029D01*
X19465929Y43983136D01*
X19457058Y43984900D01*
X19457057Y43984900D01*
X17902945Y43984900D01*
X17858343Y43976029D01*
X17858339Y43976027D01*
X17807768Y43942236D01*
X17807766Y43942234D01*
X17773972Y43891658D01*
X17765101Y43847057D01*
X17765101Y42292945D01*
X17773972Y42248343D01*
X17773974Y42248339D01*
X17807765Y42197768D01*
X17807766Y42197767D01*
X17807767Y42197766D01*
X17858343Y42163972D01*
X17902944Y42155100D01*
X19457057Y42155101D01*
X19501659Y42163972D01*
X19552235Y42197766D01*
X19586029Y42248342D01*
X19594901Y42292943D01*
X19594901Y42446500D01*
X19614114Y42505631D01*
X19664414Y42542176D01*
X19695501Y42547100D01*
X20204502Y42547100D01*
X20263633Y42527887D01*
X20300178Y42477587D01*
X20305102Y42446500D01*
X20305102Y42292945D01*
X20313972Y42248343D01*
X20313974Y42248339D01*
X20347765Y42197768D01*
X20347766Y42197767D01*
X20347767Y42197766D01*
X20398343Y42163972D01*
X20442944Y42155100D01*
X20566501Y42155101D01*
X20625632Y42135889D01*
X20662177Y42085589D01*
X20667101Y42054501D01*
X20667101Y41545500D01*
X20647888Y41486369D01*
X20597588Y41449824D01*
X20566502Y41444900D01*
X20442944Y41444900D01*
X20398343Y41436029D01*
X20398339Y41436027D01*
X20347768Y41402236D01*
X20347766Y41402234D01*
X20313972Y41351658D01*
X20305101Y41307057D01*
X20305101Y41033500D01*
X20285888Y40974369D01*
X20235588Y40937824D01*
X20204501Y40932900D01*
X19695500Y40932900D01*
X19636369Y40952113D01*
X19599824Y41002413D01*
X19594900Y41033500D01*
X19594900Y41307056D01*
X19586029Y41351658D01*
X19586027Y41351662D01*
X19552236Y41402233D01*
X19552234Y41402235D01*
X19501658Y41436029D01*
X19465929Y41443136D01*
X19457058Y41444900D01*
X19457057Y41444900D01*
X17902945Y41444900D01*
X17858343Y41436029D01*
X17858339Y41436027D01*
X17807768Y41402236D01*
X17807766Y41402234D01*
X17773972Y41351658D01*
X17765101Y41307057D01*
X17765101Y39752945D01*
X17152001Y39752945D01*
X17152001Y40301800D01*
X16521514Y40301800D01*
X16558448Y40365772D01*
X16588265Y40496407D01*
X16578252Y40630028D01*
X16529298Y40754760D01*
X16526555Y40758200D01*
X17152001Y40758200D01*
X17152001Y41316624D01*
X17137496Y41389545D01*
X17082240Y41472240D01*
X16999545Y41527496D01*
X16926624Y41542000D01*
X16368201Y41542000D01*
X16368201Y40912396D01*
X16335041Y40935004D01*
X16206999Y40974500D01*
X16106689Y40974500D01*
X16007502Y40959550D01*
X15911801Y40913463D01*
X15911801Y41542000D01*
X15353378Y41542000D01*
X15280456Y41527496D01*
X15197761Y41472240D01*
X15142505Y41389545D01*
X15128001Y41316624D01*
X15128001Y40758200D01*
X15758488Y40758200D01*
X15721554Y40694228D01*
X15691737Y40563593D01*
X15701750Y40429972D01*
X15750704Y40305240D01*
X15753447Y40301800D01*
X15128001Y40301800D01*
X15128001Y39743377D01*
X5359500Y39743377D01*
X5359500Y42283377D01*
X15128001Y42283377D01*
X15142505Y42210456D01*
X15197761Y42127761D01*
X15280456Y42072505D01*
X15353378Y42058000D01*
X15911801Y42058000D01*
X15911801Y42687605D01*
X15944961Y42664996D01*
X16073003Y42625500D01*
X16173313Y42625500D01*
X16272500Y42640450D01*
X16368201Y42686538D01*
X16368201Y42058000D01*
X16926624Y42058000D01*
X16999545Y42072505D01*
X17082240Y42127761D01*
X17137496Y42210456D01*
X17152001Y42283377D01*
X17152001Y42841800D01*
X16521514Y42841800D01*
X16558448Y42905772D01*
X16588265Y43036407D01*
X16578252Y43170028D01*
X16529298Y43294760D01*
X16526555Y43298200D01*
X17152001Y43298200D01*
X17152001Y43856624D01*
X17137496Y43929545D01*
X17082240Y44012240D01*
X16999545Y44067496D01*
X16926624Y44082000D01*
X16368201Y44082000D01*
X16368201Y43452396D01*
X16335041Y43475004D01*
X16206999Y43514500D01*
X16106689Y43514500D01*
X16007502Y43499550D01*
X15911801Y43453463D01*
X15911801Y44082000D01*
X15353378Y44082000D01*
X15280456Y44067496D01*
X15197761Y44012240D01*
X15142505Y43929545D01*
X15128001Y43856624D01*
X15128001Y43298200D01*
X15758488Y43298200D01*
X15721554Y43234228D01*
X15691737Y43103593D01*
X15701750Y42969972D01*
X15750704Y42845240D01*
X15753447Y42841800D01*
X15128001Y42841800D01*
X15128001Y42283377D01*
X5359500Y42283377D01*
X5359500Y45339900D01*
X5378713Y45399031D01*
X5429013Y45435576D01*
X5460100Y45440500D01*
X35179901Y45440500D01*
X35239032Y45421287D01*
G37*
%TD.AperFunction*%
%TD*%
M02*
