%TF.GenerationSoftware,KiCad,Pcbnew,7.0.11+1*%
%TF.CreationDate,2024-07-09T15:03:07+00:00*%
%TF.ProjectId,REL1SW01,52454c31-5357-4303-912e-6b696361645f,01B*%
%TF.SameCoordinates,Original*%
%TF.FileFunction,Soldermask,Bot*%
%TF.FilePolarity,Negative*%
%FSLAX46Y46*%
G04 Gerber Fmt 4.6, Leading zero omitted, Abs format (unit mm)*
G04 Created by KiCad (PCBNEW 7.0.11+1) date 2024-07-09 15:03:07*
%MOMM*%
%LPD*%
G01*
G04 APERTURE LIST*
G04 Aperture macros list*
%AMRoundRect*
0 Rectangle with rounded corners*
0 $1 Rounding radius*
0 $2 $3 $4 $5 $6 $7 $8 $9 X,Y pos of 4 corners*
0 Add a 4 corners polygon primitive as box body*
4,1,4,$2,$3,$4,$5,$6,$7,$8,$9,$2,$3,0*
0 Add four circle primitives for the rounded corners*
1,1,$1+$1,$2,$3*
1,1,$1+$1,$4,$5*
1,1,$1+$1,$6,$7*
1,1,$1+$1,$8,$9*
0 Add four rect primitives between the rounded corners*
20,1,$1+$1,$2,$3,$4,$5,0*
20,1,$1+$1,$4,$5,$6,$7,0*
20,1,$1+$1,$6,$7,$8,$9,0*
20,1,$1+$1,$8,$9,$2,$3,0*%
G04 Aperture macros list end*
%ADD10O,2.300000X1.600000*%
%ADD11C,6.000000*%
%ADD12R,1.524000X1.524000*%
%ADD13RoundRect,0.250000X-0.450000X0.262500X-0.450000X-0.262500X0.450000X-0.262500X0.450000X0.262500X0*%
%ADD14RoundRect,0.150000X-0.587500X-0.150000X0.587500X-0.150000X0.587500X0.150000X-0.587500X0.150000X0*%
%ADD15RoundRect,0.250000X-1.000000X-0.650000X1.000000X-0.650000X1.000000X0.650000X-1.000000X0.650000X0*%
%ADD16RoundRect,0.250000X0.250000X0.475000X-0.250000X0.475000X-0.250000X-0.475000X0.250000X-0.475000X0*%
%ADD17RoundRect,0.250000X-0.250000X-0.475000X0.250000X-0.475000X0.250000X0.475000X-0.250000X0.475000X0*%
%ADD18RoundRect,0.250000X0.650000X-1.000000X0.650000X1.000000X-0.650000X1.000000X-0.650000X-1.000000X0*%
%ADD19RoundRect,0.250000X-0.262500X-0.450000X0.262500X-0.450000X0.262500X0.450000X-0.262500X0.450000X0*%
%ADD20RoundRect,0.250000X1.000000X0.650000X-1.000000X0.650000X-1.000000X-0.650000X1.000000X-0.650000X0*%
G04 APERTURE END LIST*
D10*
%TO.C,X1*%
X16575000Y23100000D03*
X16575000Y20560000D03*
X16575000Y18020000D03*
X16575000Y15480000D03*
X16575000Y12940000D03*
X24195000Y12940000D03*
X24195000Y15480000D03*
X24195000Y18020000D03*
X24195000Y20560000D03*
X24195000Y23100000D03*
%TD*%
D11*
%TO.C,M2*%
X30480001Y40640000D03*
%TD*%
%TO.C,M4*%
X30480001Y10160000D03*
%TD*%
D12*
%TO.C,J4*%
X11570000Y15660000D03*
X9030000Y15660000D03*
X11570000Y18200000D03*
X9030000Y18200000D03*
X11570000Y20740000D03*
X9030000Y20740000D03*
X11570000Y23280000D03*
X9030000Y23280000D03*
X11570000Y25820000D03*
X9030000Y25820000D03*
X11570000Y28360000D03*
X9030000Y28360000D03*
%TD*%
D11*
%TO.C,M1*%
X10160001Y40640000D03*
%TD*%
D12*
%TO.C,J5*%
X16140001Y40530000D03*
X16140001Y43070000D03*
X18680001Y40530000D03*
X18680001Y43070000D03*
X21220001Y40530000D03*
X21220001Y43070000D03*
X23760001Y40530000D03*
X23760001Y43070000D03*
%TD*%
%TO.C,J2*%
X29360000Y34240000D03*
X31900000Y34240000D03*
X29360000Y31700000D03*
X31900000Y31700000D03*
%TD*%
%TO.C,J3*%
X29330000Y28360000D03*
X31870000Y28360000D03*
X29330000Y25820000D03*
X31870000Y25820000D03*
X29330000Y23280000D03*
X31870000Y23280000D03*
X29330000Y20740000D03*
X31870000Y20740000D03*
X29330000Y18200000D03*
X31870000Y18200000D03*
X29330000Y15660000D03*
X31870000Y15660000D03*
%TD*%
%TO.C,J1*%
X11540000Y31800000D03*
X9000000Y31800000D03*
X11540000Y34340000D03*
X9000000Y34340000D03*
%TD*%
D11*
%TO.C,M3*%
X10160001Y10160000D03*
%TD*%
D13*
%TO.C,R4*%
X19300000Y31512500D03*
X19300000Y29687500D03*
%TD*%
D14*
%TO.C,T2*%
X21325000Y29650000D03*
X21325000Y31550000D03*
X23200000Y30600000D03*
%TD*%
D15*
%TO.C,D2*%
X15100000Y26500000D03*
X19100000Y26500000D03*
%TD*%
D16*
%TO.C,C1*%
X21200000Y38300000D03*
X19300000Y38300000D03*
%TD*%
D14*
%TO.C,T1*%
X21362500Y33650000D03*
X21362500Y35550000D03*
X23237500Y34600000D03*
%TD*%
D17*
%TO.C,C2*%
X22800000Y38300000D03*
X24700000Y38300000D03*
%TD*%
D18*
%TO.C,D3*%
X26000000Y30000000D03*
X26000000Y34000000D03*
%TD*%
%TO.C,D1*%
X16500000Y33600000D03*
X16500000Y37600000D03*
%TD*%
D19*
%TO.C,R1*%
X15687500Y31000000D03*
X17512500Y31000000D03*
%TD*%
D13*
%TO.C,R2*%
X13900000Y30925000D03*
X13900000Y29100000D03*
%TD*%
D20*
%TO.C,D4*%
X26200000Y26500000D03*
X22200000Y26500000D03*
%TD*%
D13*
%TO.C,R3*%
X19300000Y35512500D03*
X19300000Y33687500D03*
%TD*%
M02*
