%TF.GenerationSoftware,KiCad,Pcbnew,7.0.11+1*%
%TF.CreationDate,2024-06-02T23:23:21+00:00*%
%TF.ProjectId,REL1SW01,52454c31-5357-4303-912e-6b696361645f,rev?*%
%TF.SameCoordinates,Original*%
%TF.FileFunction,Legend,Bot*%
%TF.FilePolarity,Positive*%
%FSLAX46Y46*%
G04 Gerber Fmt 4.6, Leading zero omitted, Abs format (unit mm)*
G04 Created by KiCad (PCBNEW 7.0.11+1) date 2024-06-02 23:23:21*
%MOMM*%
%LPD*%
G01*
G04 APERTURE LIST*
%ADD10C,0.150000*%
%ADD11C,0.120000*%
G04 APERTURE END LIST*
D10*
X18162295Y29533333D02*
X17781342Y29800000D01*
X18162295Y29990476D02*
X17362295Y29990476D01*
X17362295Y29990476D02*
X17362295Y29685714D01*
X17362295Y29685714D02*
X17400390Y29609524D01*
X17400390Y29609524D02*
X17438485Y29571429D01*
X17438485Y29571429D02*
X17514676Y29533333D01*
X17514676Y29533333D02*
X17628961Y29533333D01*
X17628961Y29533333D02*
X17705152Y29571429D01*
X17705152Y29571429D02*
X17743247Y29609524D01*
X17743247Y29609524D02*
X17781342Y29685714D01*
X17781342Y29685714D02*
X17781342Y29990476D01*
X17628961Y28847619D02*
X18162295Y28847619D01*
X17324200Y29038095D02*
X17895628Y29228572D01*
X17895628Y29228572D02*
X17895628Y28733333D01*
X24109523Y29637705D02*
X23652380Y29637705D01*
X23880952Y28837705D02*
X23880952Y29637705D01*
X23423809Y29561515D02*
X23385713Y29599610D01*
X23385713Y29599610D02*
X23309523Y29637705D01*
X23309523Y29637705D02*
X23119047Y29637705D01*
X23119047Y29637705D02*
X23042856Y29599610D01*
X23042856Y29599610D02*
X23004761Y29561515D01*
X23004761Y29561515D02*
X22966666Y29485324D01*
X22966666Y29485324D02*
X22966666Y29409134D01*
X22966666Y29409134D02*
X23004761Y29294848D01*
X23004761Y29294848D02*
X23461904Y28837705D01*
X23461904Y28837705D02*
X22966666Y28837705D01*
X14790475Y23837705D02*
X14790475Y24637705D01*
X14790475Y24637705D02*
X14599999Y24637705D01*
X14599999Y24637705D02*
X14485713Y24599610D01*
X14485713Y24599610D02*
X14409523Y24523420D01*
X14409523Y24523420D02*
X14371428Y24447229D01*
X14371428Y24447229D02*
X14333332Y24294848D01*
X14333332Y24294848D02*
X14333332Y24180562D01*
X14333332Y24180562D02*
X14371428Y24028181D01*
X14371428Y24028181D02*
X14409523Y23951991D01*
X14409523Y23951991D02*
X14485713Y23875800D01*
X14485713Y23875800D02*
X14599999Y23837705D01*
X14599999Y23837705D02*
X14790475Y23837705D01*
X14028571Y24561515D02*
X13990475Y24599610D01*
X13990475Y24599610D02*
X13914285Y24637705D01*
X13914285Y24637705D02*
X13723809Y24637705D01*
X13723809Y24637705D02*
X13647618Y24599610D01*
X13647618Y24599610D02*
X13609523Y24561515D01*
X13609523Y24561515D02*
X13571428Y24485324D01*
X13571428Y24485324D02*
X13571428Y24409134D01*
X13571428Y24409134D02*
X13609523Y24294848D01*
X13609523Y24294848D02*
X14066666Y23837705D01*
X14066666Y23837705D02*
X13571428Y23837705D01*
X20933332Y36613896D02*
X20971428Y36575800D01*
X20971428Y36575800D02*
X21085713Y36537705D01*
X21085713Y36537705D02*
X21161904Y36537705D01*
X21161904Y36537705D02*
X21276190Y36575800D01*
X21276190Y36575800D02*
X21352380Y36651991D01*
X21352380Y36651991D02*
X21390475Y36728181D01*
X21390475Y36728181D02*
X21428571Y36880562D01*
X21428571Y36880562D02*
X21428571Y36994848D01*
X21428571Y36994848D02*
X21390475Y37147229D01*
X21390475Y37147229D02*
X21352380Y37223420D01*
X21352380Y37223420D02*
X21276190Y37299610D01*
X21276190Y37299610D02*
X21161904Y37337705D01*
X21161904Y37337705D02*
X21085713Y37337705D01*
X21085713Y37337705D02*
X20971428Y37299610D01*
X20971428Y37299610D02*
X20933332Y37261515D01*
X20171428Y36537705D02*
X20628571Y36537705D01*
X20399999Y36537705D02*
X20399999Y37337705D01*
X20399999Y37337705D02*
X20476190Y37223420D01*
X20476190Y37223420D02*
X20552380Y37147229D01*
X20552380Y37147229D02*
X20628571Y37109134D01*
X24309523Y36337705D02*
X23852380Y36337705D01*
X24080952Y35537705D02*
X24080952Y36337705D01*
X23166666Y35537705D02*
X23623809Y35537705D01*
X23395237Y35537705D02*
X23395237Y36337705D01*
X23395237Y36337705D02*
X23471428Y36223420D01*
X23471428Y36223420D02*
X23547618Y36147229D01*
X23547618Y36147229D02*
X23623809Y36109134D01*
X26533332Y38013896D02*
X26571428Y37975800D01*
X26571428Y37975800D02*
X26685713Y37937705D01*
X26685713Y37937705D02*
X26761904Y37937705D01*
X26761904Y37937705D02*
X26876190Y37975800D01*
X26876190Y37975800D02*
X26952380Y38051991D01*
X26952380Y38051991D02*
X26990475Y38128181D01*
X26990475Y38128181D02*
X27028571Y38280562D01*
X27028571Y38280562D02*
X27028571Y38394848D01*
X27028571Y38394848D02*
X26990475Y38547229D01*
X26990475Y38547229D02*
X26952380Y38623420D01*
X26952380Y38623420D02*
X26876190Y38699610D01*
X26876190Y38699610D02*
X26761904Y38737705D01*
X26761904Y38737705D02*
X26685713Y38737705D01*
X26685713Y38737705D02*
X26571428Y38699610D01*
X26571428Y38699610D02*
X26533332Y38661515D01*
X26228571Y38661515D02*
X26190475Y38699610D01*
X26190475Y38699610D02*
X26114285Y38737705D01*
X26114285Y38737705D02*
X25923809Y38737705D01*
X25923809Y38737705D02*
X25847618Y38699610D01*
X25847618Y38699610D02*
X25809523Y38661515D01*
X25809523Y38661515D02*
X25771428Y38585324D01*
X25771428Y38585324D02*
X25771428Y38509134D01*
X25771428Y38509134D02*
X25809523Y38394848D01*
X25809523Y38394848D02*
X26266666Y37937705D01*
X26266666Y37937705D02*
X25771428Y37937705D01*
X28662295Y30690476D02*
X27862295Y30690476D01*
X27862295Y30690476D02*
X27862295Y30500000D01*
X27862295Y30500000D02*
X27900390Y30385714D01*
X27900390Y30385714D02*
X27976580Y30309524D01*
X27976580Y30309524D02*
X28052771Y30271429D01*
X28052771Y30271429D02*
X28205152Y30233333D01*
X28205152Y30233333D02*
X28319438Y30233333D01*
X28319438Y30233333D02*
X28471819Y30271429D01*
X28471819Y30271429D02*
X28548009Y30309524D01*
X28548009Y30309524D02*
X28624200Y30385714D01*
X28624200Y30385714D02*
X28662295Y30500000D01*
X28662295Y30500000D02*
X28662295Y30690476D01*
X27862295Y29966667D02*
X27862295Y29471429D01*
X27862295Y29471429D02*
X28167057Y29738095D01*
X28167057Y29738095D02*
X28167057Y29623810D01*
X28167057Y29623810D02*
X28205152Y29547619D01*
X28205152Y29547619D02*
X28243247Y29509524D01*
X28243247Y29509524D02*
X28319438Y29471429D01*
X28319438Y29471429D02*
X28509914Y29471429D01*
X28509914Y29471429D02*
X28586104Y29509524D01*
X28586104Y29509524D02*
X28624200Y29547619D01*
X28624200Y29547619D02*
X28662295Y29623810D01*
X28662295Y29623810D02*
X28662295Y29852381D01*
X28662295Y29852381D02*
X28624200Y29928572D01*
X28624200Y29928572D02*
X28586104Y29966667D01*
X14562295Y33290476D02*
X13762295Y33290476D01*
X13762295Y33290476D02*
X13762295Y33100000D01*
X13762295Y33100000D02*
X13800390Y32985714D01*
X13800390Y32985714D02*
X13876580Y32909524D01*
X13876580Y32909524D02*
X13952771Y32871429D01*
X13952771Y32871429D02*
X14105152Y32833333D01*
X14105152Y32833333D02*
X14219438Y32833333D01*
X14219438Y32833333D02*
X14371819Y32871429D01*
X14371819Y32871429D02*
X14448009Y32909524D01*
X14448009Y32909524D02*
X14524200Y32985714D01*
X14524200Y32985714D02*
X14562295Y33100000D01*
X14562295Y33100000D02*
X14562295Y33290476D01*
X14562295Y32071429D02*
X14562295Y32528572D01*
X14562295Y32300000D02*
X13762295Y32300000D01*
X13762295Y32300000D02*
X13876580Y32376191D01*
X13876580Y32376191D02*
X13952771Y32452381D01*
X13952771Y32452381D02*
X13990866Y32528572D01*
X15933332Y29137705D02*
X16199999Y29518658D01*
X16390475Y29137705D02*
X16390475Y29937705D01*
X16390475Y29937705D02*
X16085713Y29937705D01*
X16085713Y29937705D02*
X16009523Y29899610D01*
X16009523Y29899610D02*
X15971428Y29861515D01*
X15971428Y29861515D02*
X15933332Y29785324D01*
X15933332Y29785324D02*
X15933332Y29671039D01*
X15933332Y29671039D02*
X15971428Y29594848D01*
X15971428Y29594848D02*
X16009523Y29556753D01*
X16009523Y29556753D02*
X16085713Y29518658D01*
X16085713Y29518658D02*
X16390475Y29518658D01*
X15171428Y29137705D02*
X15628571Y29137705D01*
X15399999Y29137705D02*
X15399999Y29937705D01*
X15399999Y29937705D02*
X15476190Y29823420D01*
X15476190Y29823420D02*
X15552380Y29747229D01*
X15552380Y29747229D02*
X15628571Y29709134D01*
X12862295Y30145833D02*
X12481342Y30412500D01*
X12862295Y30602976D02*
X12062295Y30602976D01*
X12062295Y30602976D02*
X12062295Y30298214D01*
X12062295Y30298214D02*
X12100390Y30222024D01*
X12100390Y30222024D02*
X12138485Y30183929D01*
X12138485Y30183929D02*
X12214676Y30145833D01*
X12214676Y30145833D02*
X12328961Y30145833D01*
X12328961Y30145833D02*
X12405152Y30183929D01*
X12405152Y30183929D02*
X12443247Y30222024D01*
X12443247Y30222024D02*
X12481342Y30298214D01*
X12481342Y30298214D02*
X12481342Y30602976D01*
X12138485Y29841072D02*
X12100390Y29802976D01*
X12100390Y29802976D02*
X12062295Y29726786D01*
X12062295Y29726786D02*
X12062295Y29536310D01*
X12062295Y29536310D02*
X12100390Y29460119D01*
X12100390Y29460119D02*
X12138485Y29422024D01*
X12138485Y29422024D02*
X12214676Y29383929D01*
X12214676Y29383929D02*
X12290866Y29383929D01*
X12290866Y29383929D02*
X12405152Y29422024D01*
X12405152Y29422024D02*
X12862295Y29879167D01*
X12862295Y29879167D02*
X12862295Y29383929D01*
X27590475Y23837705D02*
X27590475Y24637705D01*
X27590475Y24637705D02*
X27399999Y24637705D01*
X27399999Y24637705D02*
X27285713Y24599610D01*
X27285713Y24599610D02*
X27209523Y24523420D01*
X27209523Y24523420D02*
X27171428Y24447229D01*
X27171428Y24447229D02*
X27133332Y24294848D01*
X27133332Y24294848D02*
X27133332Y24180562D01*
X27133332Y24180562D02*
X27171428Y24028181D01*
X27171428Y24028181D02*
X27209523Y23951991D01*
X27209523Y23951991D02*
X27285713Y23875800D01*
X27285713Y23875800D02*
X27399999Y23837705D01*
X27399999Y23837705D02*
X27590475Y23837705D01*
X26447618Y24371039D02*
X26447618Y23837705D01*
X26638094Y24675800D02*
X26828571Y24104372D01*
X26828571Y24104372D02*
X26333332Y24104372D01*
X19233332Y36237705D02*
X19499999Y36618658D01*
X19690475Y36237705D02*
X19690475Y37037705D01*
X19690475Y37037705D02*
X19385713Y37037705D01*
X19385713Y37037705D02*
X19309523Y36999610D01*
X19309523Y36999610D02*
X19271428Y36961515D01*
X19271428Y36961515D02*
X19233332Y36885324D01*
X19233332Y36885324D02*
X19233332Y36771039D01*
X19233332Y36771039D02*
X19271428Y36694848D01*
X19271428Y36694848D02*
X19309523Y36656753D01*
X19309523Y36656753D02*
X19385713Y36618658D01*
X19385713Y36618658D02*
X19690475Y36618658D01*
X18966666Y37037705D02*
X18471428Y37037705D01*
X18471428Y37037705D02*
X18738094Y36732943D01*
X18738094Y36732943D02*
X18623809Y36732943D01*
X18623809Y36732943D02*
X18547618Y36694848D01*
X18547618Y36694848D02*
X18509523Y36656753D01*
X18509523Y36656753D02*
X18471428Y36580562D01*
X18471428Y36580562D02*
X18471428Y36390086D01*
X18471428Y36390086D02*
X18509523Y36313896D01*
X18509523Y36313896D02*
X18547618Y36275800D01*
X18547618Y36275800D02*
X18623809Y36237705D01*
X18623809Y36237705D02*
X18852380Y36237705D01*
X18852380Y36237705D02*
X18928571Y36275800D01*
X18928571Y36275800D02*
X18966666Y36313896D01*
D11*
%TO.C,R4*%
X20035000Y30827064D02*
X20035000Y30372936D01*
X18565000Y30827064D02*
X18565000Y30372936D01*
%TO.C,T2*%
X22262500Y32160000D02*
X21612500Y32160000D01*
X22262500Y32160000D02*
X22912500Y32160000D01*
X22262500Y29040000D02*
X21612500Y29040000D01*
X22262500Y29040000D02*
X22912500Y29040000D01*
X21340000Y28760000D02*
X20860000Y28760000D01*
X21100000Y29090000D01*
X21340000Y28760000D01*
G36*
X21340000Y28760000D02*
G01*
X20860000Y28760000D01*
X21100000Y29090000D01*
X21340000Y28760000D01*
G37*
%TO.C,D2*%
X13590000Y28150000D02*
X19100000Y28150000D01*
X13590000Y24850000D02*
X13590000Y28150000D01*
X13590000Y24850000D02*
X19100000Y24850000D01*
%TO.C,C1*%
X20511252Y37565000D02*
X19988748Y37565000D01*
X20511252Y39035000D02*
X19988748Y39035000D01*
%TO.C,T1*%
X22300000Y36160000D02*
X21650000Y36160000D01*
X22300000Y36160000D02*
X22950000Y36160000D01*
X22300000Y33040000D02*
X21650000Y33040000D01*
X22300000Y33040000D02*
X22950000Y33040000D01*
X21377500Y32760000D02*
X20897500Y32760000D01*
X21137500Y33090000D01*
X21377500Y32760000D01*
G36*
X21377500Y32760000D02*
G01*
X20897500Y32760000D01*
X21137500Y33090000D01*
X21377500Y32760000D01*
G37*
%TO.C,C2*%
X23488748Y39035000D02*
X24011252Y39035000D01*
X23488748Y37565000D02*
X24011252Y37565000D01*
%TO.C,D3*%
X24350000Y28490000D02*
X24350000Y34000000D01*
X27650000Y28490000D02*
X24350000Y28490000D01*
X27650000Y28490000D02*
X27650000Y34000000D01*
%TO.C,D1*%
X14850000Y32090000D02*
X14850000Y37600000D01*
X18150000Y32090000D02*
X14850000Y32090000D01*
X18150000Y32090000D02*
X18150000Y37600000D01*
%TO.C,R1*%
X16372936Y31735000D02*
X16827064Y31735000D01*
X16372936Y30265000D02*
X16827064Y30265000D01*
%TO.C,R2*%
X14635000Y30239564D02*
X14635000Y29785436D01*
X13165000Y30239564D02*
X13165000Y29785436D01*
%TO.C,D4*%
X27710000Y24850000D02*
X22200000Y24850000D01*
X27710000Y28150000D02*
X27710000Y24850000D01*
X27710000Y28150000D02*
X22200000Y28150000D01*
%TO.C,R3*%
X20035000Y34827064D02*
X20035000Y34372936D01*
X18565000Y34827064D02*
X18565000Y34372936D01*
%TD*%
M02*
