M48
; DRILL file {KiCad 7.0.11+1} date Sun Jun  2 23:29:58 2024
; FORMAT={3:3/ absolute / metric / suppress leading zeros}
; #@! TF.CreationDate,2024-06-02T23:29:58+00:00
; #@! TF.GenerationSoftware,Kicad,Pcbnew,7.0.11+1
; #@! TF.FileFunction,Plated,1,2,PTH
FMAT,2
METRIC,TZ
; #@! TA.AperFunction,Plated,PTH,ComponentDrill
T1C0.889
; #@! TA.AperFunction,Plated,PTH,ComponentDrill
T2C1.000
; #@! TA.AperFunction,Plated,PTH,ComponentDrill
T3C3.000
%
G90
G05
T1
X9000Y34340
X9000Y31800
X9030Y28360
X9030Y25820
X9030Y23280
X9030Y20740
X9030Y18200
X9030Y15660
X11540Y34340
X11540Y31800
X11570Y28360
X11570Y25820
X11570Y23280
X11570Y20740
X11570Y18200
X11570Y15660
X16140Y43070
X16140Y40530
X18680Y43070
X18680Y40530
X21220Y43070
X21220Y40530
X23760Y43070
X23760Y40530
X29330Y28360
X29330Y25820
X29330Y23280
X29330Y20740
X29330Y18200
X29330Y15660
X29360Y34240
X29360Y31700
X31870Y28360
X31870Y25820
X31870Y23280
X31870Y20740
X31870Y18200
X31870Y15660
X31900Y34240
X31900Y31700
T2
X16475Y22100
X16475Y19560
X16475Y17020
X16475Y14480
X16475Y11940
X24095Y22100
X24095Y19560
X24095Y17020
X24095Y14480
X24095Y11940
T3
X10160Y40640
X10160Y10160
X30480Y40640
X30480Y10160
M30
