%TF.GenerationSoftware,KiCad,Pcbnew,7.0.11+1*%
%TF.CreationDate,2024-06-02T23:23:21+00:00*%
%TF.ProjectId,REL1SW01,52454c31-5357-4303-912e-6b696361645f,rev?*%
%TF.SameCoordinates,Original*%
%TF.FileFunction,Legend,Top*%
%TF.FilePolarity,Positive*%
%FSLAX46Y46*%
G04 Gerber Fmt 4.6, Leading zero omitted, Abs format (unit mm)*
G04 Created by KiCad (PCBNEW 7.0.11+1) date 2024-06-02 23:23:21*
%MOMM*%
%LPD*%
G01*
G04 APERTURE LIST*
%ADD10C,0.200000*%
%ADD11C,0.220000*%
%ADD12C,0.150000*%
%ADD13C,0.120000*%
%ADD14R,1.524000X1.524000*%
G04 APERTURE END LIST*
D10*
X19700000Y30400000D02*
X21500000Y30400000D01*
X19300000Y31900000D02*
X19300000Y30200000D01*
X21000000Y31700000D02*
X23100000Y31700000D01*
X21400000Y32700000D02*
X21600000Y32700000D01*
X21500000Y30400000D02*
X21500000Y29800000D01*
X19300000Y34100000D02*
X16300000Y34100000D01*
X19700000Y33600000D02*
X19700000Y34000000D01*
X19700000Y31700000D02*
X21000000Y31700000D01*
X19700000Y35200000D02*
X21000000Y35200000D01*
X19700000Y32000000D02*
X19700000Y31600000D01*
X21300000Y33000000D02*
X21700000Y33000000D01*
X21200001Y31000000D02*
G75*
G03*
X18392867Y31000000I-1403567J0D01*
G01*
X18392867Y31000000D02*
G75*
G03*
X21200001Y31000000I1403567J0D01*
G01*
X19700000Y30800000D02*
X19700000Y31300000D01*
X21100000Y33300000D02*
X21900000Y33300000D01*
X21300000Y29500000D02*
X21700000Y29500000D01*
X19700000Y35500000D02*
X19700000Y35100000D01*
X19700000Y33900000D02*
X21500000Y33900000D01*
X21500000Y33900000D02*
X21500000Y33300000D01*
X19700000Y30100000D02*
X19700000Y30500000D01*
X19300000Y30600000D02*
X16300000Y30600000D01*
X21200001Y34500000D02*
G75*
G03*
X18392867Y34500000I-1403567J0D01*
G01*
X18392867Y34500000D02*
G75*
G03*
X21200001Y34500000I1403567J0D01*
G01*
X19300000Y35400000D02*
X19300000Y33700000D01*
X19700000Y34300000D02*
X19700000Y34800000D01*
X21100000Y29800000D02*
X21900000Y29800000D01*
X21000000Y35200000D02*
X23100000Y35200000D01*
X21400000Y29200000D02*
X21600000Y29200000D01*
D11*
X16116164Y6358298D02*
X15716164Y6929726D01*
X15430450Y6358298D02*
X15430450Y7558298D01*
X15430450Y7558298D02*
X15887593Y7558298D01*
X15887593Y7558298D02*
X16001878Y7501155D01*
X16001878Y7501155D02*
X16059021Y7444012D01*
X16059021Y7444012D02*
X16116164Y7329726D01*
X16116164Y7329726D02*
X16116164Y7158298D01*
X16116164Y7158298D02*
X16059021Y7044012D01*
X16059021Y7044012D02*
X16001878Y6986869D01*
X16001878Y6986869D02*
X15887593Y6929726D01*
X15887593Y6929726D02*
X15430450Y6929726D01*
X16630450Y6986869D02*
X17030450Y6986869D01*
X17201878Y6358298D02*
X16630450Y6358298D01*
X16630450Y6358298D02*
X16630450Y7558298D01*
X16630450Y7558298D02*
X17201878Y7558298D01*
X18287592Y6358298D02*
X17716164Y6358298D01*
X17716164Y6358298D02*
X17716164Y7558298D01*
X19316164Y6358298D02*
X18630450Y6358298D01*
X18973307Y6358298D02*
X18973307Y7558298D01*
X18973307Y7558298D02*
X18859021Y7386869D01*
X18859021Y7386869D02*
X18744736Y7272583D01*
X18744736Y7272583D02*
X18630450Y7215440D01*
X19773307Y6415440D02*
X19944736Y6358298D01*
X19944736Y6358298D02*
X20230450Y6358298D01*
X20230450Y6358298D02*
X20344736Y6415440D01*
X20344736Y6415440D02*
X20401878Y6472583D01*
X20401878Y6472583D02*
X20459021Y6586869D01*
X20459021Y6586869D02*
X20459021Y6701155D01*
X20459021Y6701155D02*
X20401878Y6815440D01*
X20401878Y6815440D02*
X20344736Y6872583D01*
X20344736Y6872583D02*
X20230450Y6929726D01*
X20230450Y6929726D02*
X20001878Y6986869D01*
X20001878Y6986869D02*
X19887593Y7044012D01*
X19887593Y7044012D02*
X19830450Y7101155D01*
X19830450Y7101155D02*
X19773307Y7215440D01*
X19773307Y7215440D02*
X19773307Y7329726D01*
X19773307Y7329726D02*
X19830450Y7444012D01*
X19830450Y7444012D02*
X19887593Y7501155D01*
X19887593Y7501155D02*
X20001878Y7558298D01*
X20001878Y7558298D02*
X20287593Y7558298D01*
X20287593Y7558298D02*
X20459021Y7501155D01*
X20859021Y7558298D02*
X21144735Y6358298D01*
X21144735Y6358298D02*
X21373307Y7215440D01*
X21373307Y7215440D02*
X21601878Y6358298D01*
X21601878Y6358298D02*
X21887593Y7558298D01*
X22573307Y7558298D02*
X22687593Y7558298D01*
X22687593Y7558298D02*
X22801879Y7501155D01*
X22801879Y7501155D02*
X22859022Y7444012D01*
X22859022Y7444012D02*
X22916164Y7329726D01*
X22916164Y7329726D02*
X22973307Y7101155D01*
X22973307Y7101155D02*
X22973307Y6815440D01*
X22973307Y6815440D02*
X22916164Y6586869D01*
X22916164Y6586869D02*
X22859022Y6472583D01*
X22859022Y6472583D02*
X22801879Y6415440D01*
X22801879Y6415440D02*
X22687593Y6358298D01*
X22687593Y6358298D02*
X22573307Y6358298D01*
X22573307Y6358298D02*
X22459022Y6415440D01*
X22459022Y6415440D02*
X22401879Y6472583D01*
X22401879Y6472583D02*
X22344736Y6586869D01*
X22344736Y6586869D02*
X22287593Y6815440D01*
X22287593Y6815440D02*
X22287593Y7101155D01*
X22287593Y7101155D02*
X22344736Y7329726D01*
X22344736Y7329726D02*
X22401879Y7444012D01*
X22401879Y7444012D02*
X22459022Y7501155D01*
X22459022Y7501155D02*
X22573307Y7558298D01*
X24116164Y6358298D02*
X23430450Y6358298D01*
X23773307Y6358298D02*
X23773307Y7558298D01*
X23773307Y7558298D02*
X23659021Y7386869D01*
X23659021Y7386869D02*
X23544736Y7272583D01*
X23544736Y7272583D02*
X23430450Y7215440D01*
X25030450Y6986869D02*
X25201878Y6929726D01*
X25201878Y6929726D02*
X25259021Y6872583D01*
X25259021Y6872583D02*
X25316164Y6758298D01*
X25316164Y6758298D02*
X25316164Y6586869D01*
X25316164Y6586869D02*
X25259021Y6472583D01*
X25259021Y6472583D02*
X25201878Y6415440D01*
X25201878Y6415440D02*
X25087593Y6358298D01*
X25087593Y6358298D02*
X24630450Y6358298D01*
X24630450Y6358298D02*
X24630450Y7558298D01*
X24630450Y7558298D02*
X25030450Y7558298D01*
X25030450Y7558298D02*
X25144736Y7501155D01*
X25144736Y7501155D02*
X25201878Y7444012D01*
X25201878Y7444012D02*
X25259021Y7329726D01*
X25259021Y7329726D02*
X25259021Y7215440D01*
X25259021Y7215440D02*
X25201878Y7101155D01*
X25201878Y7101155D02*
X25144736Y7044012D01*
X25144736Y7044012D02*
X25030450Y6986869D01*
X25030450Y6986869D02*
X24630450Y6986869D01*
D10*
X14345863Y25257258D02*
X13660149Y25257258D01*
X14003006Y25257258D02*
X14003006Y26457258D01*
X14003006Y26457258D02*
X13888720Y26285829D01*
X13888720Y26285829D02*
X13774435Y26171543D01*
X13774435Y26171543D02*
X13660149Y26114400D01*
X26388720Y25257258D02*
X25703006Y25257258D01*
X26045863Y25257258D02*
X26045863Y26457258D01*
X26045863Y26457258D02*
X25931577Y26285829D01*
X25931577Y26285829D02*
X25817292Y26171543D01*
X25817292Y26171543D02*
X25703006Y26114400D01*
X27131577Y26457258D02*
X27245863Y26457258D01*
X27245863Y26457258D02*
X27360149Y26400115D01*
X27360149Y26400115D02*
X27417292Y26342972D01*
X27417292Y26342972D02*
X27474434Y26228686D01*
X27474434Y26228686D02*
X27531577Y26000115D01*
X27531577Y26000115D02*
X27531577Y25714400D01*
X27531577Y25714400D02*
X27474434Y25485829D01*
X27474434Y25485829D02*
X27417292Y25371543D01*
X27417292Y25371543D02*
X27360149Y25314400D01*
X27360149Y25314400D02*
X27245863Y25257258D01*
X27245863Y25257258D02*
X27131577Y25257258D01*
X27131577Y25257258D02*
X27017292Y25314400D01*
X27017292Y25314400D02*
X26960149Y25371543D01*
X26960149Y25371543D02*
X26903006Y25485829D01*
X26903006Y25485829D02*
X26845863Y25714400D01*
X26845863Y25714400D02*
X26845863Y26000115D01*
X26845863Y26000115D02*
X26903006Y26228686D01*
X26903006Y26228686D02*
X26960149Y26342972D01*
X26960149Y26342972D02*
X27017292Y26400115D01*
X27017292Y26400115D02*
X27131577Y26457258D01*
X13345863Y28957258D02*
X13745863Y27757258D01*
X13745863Y27757258D02*
X14145863Y28957258D01*
X15231577Y27871543D02*
X15174434Y27814400D01*
X15174434Y27814400D02*
X15003006Y27757258D01*
X15003006Y27757258D02*
X14888720Y27757258D01*
X14888720Y27757258D02*
X14717291Y27814400D01*
X14717291Y27814400D02*
X14603006Y27928686D01*
X14603006Y27928686D02*
X14545863Y28042972D01*
X14545863Y28042972D02*
X14488720Y28271543D01*
X14488720Y28271543D02*
X14488720Y28442972D01*
X14488720Y28442972D02*
X14545863Y28671543D01*
X14545863Y28671543D02*
X14603006Y28785829D01*
X14603006Y28785829D02*
X14717291Y28900115D01*
X14717291Y28900115D02*
X14888720Y28957258D01*
X14888720Y28957258D02*
X15003006Y28957258D01*
X15003006Y28957258D02*
X15174434Y28900115D01*
X15174434Y28900115D02*
X15231577Y28842972D01*
X16431577Y27871543D02*
X16374434Y27814400D01*
X16374434Y27814400D02*
X16203006Y27757258D01*
X16203006Y27757258D02*
X16088720Y27757258D01*
X16088720Y27757258D02*
X15917291Y27814400D01*
X15917291Y27814400D02*
X15803006Y27928686D01*
X15803006Y27928686D02*
X15745863Y28042972D01*
X15745863Y28042972D02*
X15688720Y28271543D01*
X15688720Y28271543D02*
X15688720Y28442972D01*
X15688720Y28442972D02*
X15745863Y28671543D01*
X15745863Y28671543D02*
X15803006Y28785829D01*
X15803006Y28785829D02*
X15917291Y28900115D01*
X15917291Y28900115D02*
X16088720Y28957258D01*
X16088720Y28957258D02*
X16203006Y28957258D01*
X16203006Y28957258D02*
X16374434Y28900115D01*
X16374434Y28900115D02*
X16431577Y28842972D01*
X26788720Y18757258D02*
X27588720Y18757258D01*
X27588720Y18757258D02*
X27074434Y17557258D01*
X13417292Y31157258D02*
X13417292Y32357258D01*
X13988721Y31157258D02*
X13988721Y32357258D01*
X13988721Y32357258D02*
X14674435Y31157258D01*
X14674435Y31157258D02*
X14674435Y32357258D01*
X15188721Y32242972D02*
X15245864Y32300115D01*
X15245864Y32300115D02*
X15360150Y32357258D01*
X15360150Y32357258D02*
X15645864Y32357258D01*
X15645864Y32357258D02*
X15760150Y32300115D01*
X15760150Y32300115D02*
X15817292Y32242972D01*
X15817292Y32242972D02*
X15874435Y32128686D01*
X15874435Y32128686D02*
X15874435Y32014400D01*
X15874435Y32014400D02*
X15817292Y31842972D01*
X15817292Y31842972D02*
X15131578Y31157258D01*
X15131578Y31157258D02*
X15874435Y31157258D01*
X27074434Y20842972D02*
X26960149Y20900115D01*
X26960149Y20900115D02*
X26903006Y20957258D01*
X26903006Y20957258D02*
X26845863Y21071543D01*
X26845863Y21071543D02*
X26845863Y21128686D01*
X26845863Y21128686D02*
X26903006Y21242972D01*
X26903006Y21242972D02*
X26960149Y21300115D01*
X26960149Y21300115D02*
X27074434Y21357258D01*
X27074434Y21357258D02*
X27303006Y21357258D01*
X27303006Y21357258D02*
X27417292Y21300115D01*
X27417292Y21300115D02*
X27474434Y21242972D01*
X27474434Y21242972D02*
X27531577Y21128686D01*
X27531577Y21128686D02*
X27531577Y21071543D01*
X27531577Y21071543D02*
X27474434Y20957258D01*
X27474434Y20957258D02*
X27417292Y20900115D01*
X27417292Y20900115D02*
X27303006Y20842972D01*
X27303006Y20842972D02*
X27074434Y20842972D01*
X27074434Y20842972D02*
X26960149Y20785829D01*
X26960149Y20785829D02*
X26903006Y20728686D01*
X26903006Y20728686D02*
X26845863Y20614400D01*
X26845863Y20614400D02*
X26845863Y20385829D01*
X26845863Y20385829D02*
X26903006Y20271543D01*
X26903006Y20271543D02*
X26960149Y20214400D01*
X26960149Y20214400D02*
X27074434Y20157258D01*
X27074434Y20157258D02*
X27303006Y20157258D01*
X27303006Y20157258D02*
X27417292Y20214400D01*
X27417292Y20214400D02*
X27474434Y20271543D01*
X27474434Y20271543D02*
X27531577Y20385829D01*
X27531577Y20385829D02*
X27531577Y20614400D01*
X27531577Y20614400D02*
X27474434Y20728686D01*
X27474434Y20728686D02*
X27417292Y20785829D01*
X27417292Y20785829D02*
X27303006Y20842972D01*
X23745863Y32257258D02*
X23974435Y32257258D01*
X23974435Y32257258D02*
X24088720Y32200115D01*
X24088720Y32200115D02*
X24203006Y32085829D01*
X24203006Y32085829D02*
X24260149Y31857258D01*
X24260149Y31857258D02*
X24260149Y31457258D01*
X24260149Y31457258D02*
X24203006Y31228686D01*
X24203006Y31228686D02*
X24088720Y31114400D01*
X24088720Y31114400D02*
X23974435Y31057258D01*
X23974435Y31057258D02*
X23745863Y31057258D01*
X23745863Y31057258D02*
X23631578Y31114400D01*
X23631578Y31114400D02*
X23517292Y31228686D01*
X23517292Y31228686D02*
X23460149Y31457258D01*
X23460149Y31457258D02*
X23460149Y31857258D01*
X23460149Y31857258D02*
X23517292Y32085829D01*
X23517292Y32085829D02*
X23631578Y32200115D01*
X23631578Y32200115D02*
X23745863Y32257258D01*
X24774435Y32257258D02*
X24774435Y31285829D01*
X24774435Y31285829D02*
X24831578Y31171543D01*
X24831578Y31171543D02*
X24888721Y31114400D01*
X24888721Y31114400D02*
X25003006Y31057258D01*
X25003006Y31057258D02*
X25231578Y31057258D01*
X25231578Y31057258D02*
X25345863Y31114400D01*
X25345863Y31114400D02*
X25403006Y31171543D01*
X25403006Y31171543D02*
X25460149Y31285829D01*
X25460149Y31285829D02*
X25460149Y32257258D01*
X25860149Y32257258D02*
X26545864Y32257258D01*
X26203006Y31057258D02*
X26203006Y32257258D01*
X26888721Y32142972D02*
X26945864Y32200115D01*
X26945864Y32200115D02*
X27060150Y32257258D01*
X27060150Y32257258D02*
X27345864Y32257258D01*
X27345864Y32257258D02*
X27460150Y32200115D01*
X27460150Y32200115D02*
X27517292Y32142972D01*
X27517292Y32142972D02*
X27574435Y32028686D01*
X27574435Y32028686D02*
X27574435Y31914400D01*
X27574435Y31914400D02*
X27517292Y31742972D01*
X27517292Y31742972D02*
X26831578Y31057258D01*
X26831578Y31057258D02*
X27574435Y31057258D01*
X27417292Y16257258D02*
X27188720Y16257258D01*
X27188720Y16257258D02*
X27074434Y16200115D01*
X27074434Y16200115D02*
X27017292Y16142972D01*
X27017292Y16142972D02*
X26903006Y15971543D01*
X26903006Y15971543D02*
X26845863Y15742972D01*
X26845863Y15742972D02*
X26845863Y15285829D01*
X26845863Y15285829D02*
X26903006Y15171543D01*
X26903006Y15171543D02*
X26960149Y15114400D01*
X26960149Y15114400D02*
X27074434Y15057258D01*
X27074434Y15057258D02*
X27303006Y15057258D01*
X27303006Y15057258D02*
X27417292Y15114400D01*
X27417292Y15114400D02*
X27474434Y15171543D01*
X27474434Y15171543D02*
X27531577Y15285829D01*
X27531577Y15285829D02*
X27531577Y15571543D01*
X27531577Y15571543D02*
X27474434Y15685829D01*
X27474434Y15685829D02*
X27417292Y15742972D01*
X27417292Y15742972D02*
X27303006Y15800115D01*
X27303006Y15800115D02*
X27074434Y15800115D01*
X27074434Y15800115D02*
X26960149Y15742972D01*
X26960149Y15742972D02*
X26903006Y15685829D01*
X26903006Y15685829D02*
X26845863Y15571543D01*
X26960149Y22657258D02*
X27188720Y22657258D01*
X27188720Y22657258D02*
X27303006Y22714400D01*
X27303006Y22714400D02*
X27360149Y22771543D01*
X27360149Y22771543D02*
X27474434Y22942972D01*
X27474434Y22942972D02*
X27531577Y23171543D01*
X27531577Y23171543D02*
X27531577Y23628686D01*
X27531577Y23628686D02*
X27474434Y23742972D01*
X27474434Y23742972D02*
X27417292Y23800115D01*
X27417292Y23800115D02*
X27303006Y23857258D01*
X27303006Y23857258D02*
X27074434Y23857258D01*
X27074434Y23857258D02*
X26960149Y23800115D01*
X26960149Y23800115D02*
X26903006Y23742972D01*
X26903006Y23742972D02*
X26845863Y23628686D01*
X26845863Y23628686D02*
X26845863Y23342972D01*
X26845863Y23342972D02*
X26903006Y23228686D01*
X26903006Y23228686D02*
X26960149Y23171543D01*
X26960149Y23171543D02*
X27074434Y23114400D01*
X27074434Y23114400D02*
X27303006Y23114400D01*
X27303006Y23114400D02*
X27417292Y23171543D01*
X27417292Y23171543D02*
X27474434Y23228686D01*
X27474434Y23228686D02*
X27531577Y23342972D01*
X13417292Y33757258D02*
X13417292Y34957258D01*
X13988721Y33757258D02*
X13988721Y34957258D01*
X13988721Y34957258D02*
X14674435Y33757258D01*
X14674435Y33757258D02*
X14674435Y34957258D01*
X15874435Y33757258D02*
X15188721Y33757258D01*
X15531578Y33757258D02*
X15531578Y34957258D01*
X15531578Y34957258D02*
X15417292Y34785829D01*
X15417292Y34785829D02*
X15303007Y34671543D01*
X15303007Y34671543D02*
X15188721Y34614400D01*
X23745863Y34957258D02*
X23974435Y34957258D01*
X23974435Y34957258D02*
X24088720Y34900115D01*
X24088720Y34900115D02*
X24203006Y34785829D01*
X24203006Y34785829D02*
X24260149Y34557258D01*
X24260149Y34557258D02*
X24260149Y34157258D01*
X24260149Y34157258D02*
X24203006Y33928686D01*
X24203006Y33928686D02*
X24088720Y33814400D01*
X24088720Y33814400D02*
X23974435Y33757258D01*
X23974435Y33757258D02*
X23745863Y33757258D01*
X23745863Y33757258D02*
X23631578Y33814400D01*
X23631578Y33814400D02*
X23517292Y33928686D01*
X23517292Y33928686D02*
X23460149Y34157258D01*
X23460149Y34157258D02*
X23460149Y34557258D01*
X23460149Y34557258D02*
X23517292Y34785829D01*
X23517292Y34785829D02*
X23631578Y34900115D01*
X23631578Y34900115D02*
X23745863Y34957258D01*
X24774435Y34957258D02*
X24774435Y33985829D01*
X24774435Y33985829D02*
X24831578Y33871543D01*
X24831578Y33871543D02*
X24888721Y33814400D01*
X24888721Y33814400D02*
X25003006Y33757258D01*
X25003006Y33757258D02*
X25231578Y33757258D01*
X25231578Y33757258D02*
X25345863Y33814400D01*
X25345863Y33814400D02*
X25403006Y33871543D01*
X25403006Y33871543D02*
X25460149Y33985829D01*
X25460149Y33985829D02*
X25460149Y34957258D01*
X25860149Y34957258D02*
X26545864Y34957258D01*
X26203006Y33757258D02*
X26203006Y34957258D01*
X27574435Y33757258D02*
X26888721Y33757258D01*
X27231578Y33757258D02*
X27231578Y34957258D01*
X27231578Y34957258D02*
X27117292Y34785829D01*
X27117292Y34785829D02*
X27003007Y34671543D01*
X27003007Y34671543D02*
X26888721Y34614400D01*
X15839291Y36930686D02*
X15839291Y38730686D01*
X15839291Y38730686D02*
X16525005Y38730686D01*
X16525005Y38730686D02*
X16696434Y38644972D01*
X16696434Y38644972D02*
X16782148Y38559258D01*
X16782148Y38559258D02*
X16867862Y38387829D01*
X16867862Y38387829D02*
X16867862Y38130686D01*
X16867862Y38130686D02*
X16782148Y37959258D01*
X16782148Y37959258D02*
X16696434Y37873543D01*
X16696434Y37873543D02*
X16525005Y37787829D01*
X16525005Y37787829D02*
X15839291Y37787829D01*
X17982148Y38730686D02*
X18325005Y38730686D01*
X18325005Y38730686D02*
X18496434Y38644972D01*
X18496434Y38644972D02*
X18667862Y38473543D01*
X18667862Y38473543D02*
X18753577Y38130686D01*
X18753577Y38130686D02*
X18753577Y37530686D01*
X18753577Y37530686D02*
X18667862Y37187829D01*
X18667862Y37187829D02*
X18496434Y37016400D01*
X18496434Y37016400D02*
X18325005Y36930686D01*
X18325005Y36930686D02*
X17982148Y36930686D01*
X17982148Y36930686D02*
X17810720Y37016400D01*
X17810720Y37016400D02*
X17639291Y37187829D01*
X17639291Y37187829D02*
X17553577Y37530686D01*
X17553577Y37530686D02*
X17553577Y38130686D01*
X17553577Y38130686D02*
X17639291Y38473543D01*
X17639291Y38473543D02*
X17810720Y38644972D01*
X17810720Y38644972D02*
X17982148Y38730686D01*
X19353576Y38730686D02*
X19782148Y36930686D01*
X19782148Y36930686D02*
X20125005Y38216400D01*
X20125005Y38216400D02*
X20467862Y36930686D01*
X20467862Y36930686D02*
X20896434Y38730686D01*
X21582148Y37873543D02*
X22182148Y37873543D01*
X22439291Y36930686D02*
X21582148Y36930686D01*
X21582148Y36930686D02*
X21582148Y38730686D01*
X21582148Y38730686D02*
X22439291Y38730686D01*
X24239290Y36930686D02*
X23639290Y37787829D01*
X23210719Y36930686D02*
X23210719Y38730686D01*
X23210719Y38730686D02*
X23896433Y38730686D01*
X23896433Y38730686D02*
X24067862Y38644972D01*
X24067862Y38644972D02*
X24153576Y38559258D01*
X24153576Y38559258D02*
X24239290Y38387829D01*
X24239290Y38387829D02*
X24239290Y38130686D01*
X24239290Y38130686D02*
X24153576Y37959258D01*
X24153576Y37959258D02*
X24067862Y37873543D01*
X24067862Y37873543D02*
X23896433Y37787829D01*
X23896433Y37787829D02*
X23210719Y37787829D01*
X13660149Y23742972D02*
X13717292Y23800115D01*
X13717292Y23800115D02*
X13831578Y23857258D01*
X13831578Y23857258D02*
X14117292Y23857258D01*
X14117292Y23857258D02*
X14231578Y23800115D01*
X14231578Y23800115D02*
X14288720Y23742972D01*
X14288720Y23742972D02*
X14345863Y23628686D01*
X14345863Y23628686D02*
X14345863Y23514400D01*
X14345863Y23514400D02*
X14288720Y23342972D01*
X14288720Y23342972D02*
X13603006Y22657258D01*
X13603006Y22657258D02*
X14345863Y22657258D01*
X13603006Y21357258D02*
X14345863Y21357258D01*
X14345863Y21357258D02*
X13945863Y20900115D01*
X13945863Y20900115D02*
X14117292Y20900115D01*
X14117292Y20900115D02*
X14231578Y20842972D01*
X14231578Y20842972D02*
X14288720Y20785829D01*
X14288720Y20785829D02*
X14345863Y20671543D01*
X14345863Y20671543D02*
X14345863Y20385829D01*
X14345863Y20385829D02*
X14288720Y20271543D01*
X14288720Y20271543D02*
X14231578Y20214400D01*
X14231578Y20214400D02*
X14117292Y20157258D01*
X14117292Y20157258D02*
X13774435Y20157258D01*
X13774435Y20157258D02*
X13660149Y20214400D01*
X13660149Y20214400D02*
X13603006Y20271543D01*
X15376191Y7957258D02*
X15376191Y9157258D01*
X15376191Y9157258D02*
X15776191Y8300115D01*
X15776191Y8300115D02*
X16176191Y9157258D01*
X16176191Y9157258D02*
X16176191Y7957258D01*
X17319048Y7957258D02*
X16747620Y7957258D01*
X16747620Y7957258D02*
X16747620Y9157258D01*
X17661906Y8300115D02*
X18233335Y8300115D01*
X17547620Y7957258D02*
X17947620Y9157258D01*
X17947620Y9157258D02*
X18347620Y7957258D01*
X19147620Y8585829D02*
X19319048Y8528686D01*
X19319048Y8528686D02*
X19376191Y8471543D01*
X19376191Y8471543D02*
X19433334Y8357258D01*
X19433334Y8357258D02*
X19433334Y8185829D01*
X19433334Y8185829D02*
X19376191Y8071543D01*
X19376191Y8071543D02*
X19319048Y8014400D01*
X19319048Y8014400D02*
X19204763Y7957258D01*
X19204763Y7957258D02*
X18747620Y7957258D01*
X18747620Y7957258D02*
X18747620Y9157258D01*
X18747620Y9157258D02*
X19147620Y9157258D01*
X19147620Y9157258D02*
X19261906Y9100115D01*
X19261906Y9100115D02*
X19319048Y9042972D01*
X19319048Y9042972D02*
X19376191Y8928686D01*
X19376191Y8928686D02*
X19376191Y8814400D01*
X19376191Y8814400D02*
X19319048Y8700115D01*
X19319048Y8700115D02*
X19261906Y8642972D01*
X19261906Y8642972D02*
X19147620Y8585829D01*
X19147620Y8585829D02*
X18747620Y8585829D01*
X20004763Y8014400D02*
X20004763Y7957258D01*
X20004763Y7957258D02*
X19947620Y7842972D01*
X19947620Y7842972D02*
X19890477Y7785829D01*
X21376192Y9042972D02*
X21433335Y9100115D01*
X21433335Y9100115D02*
X21547621Y9157258D01*
X21547621Y9157258D02*
X21833335Y9157258D01*
X21833335Y9157258D02*
X21947621Y9100115D01*
X21947621Y9100115D02*
X22004763Y9042972D01*
X22004763Y9042972D02*
X22061906Y8928686D01*
X22061906Y8928686D02*
X22061906Y8814400D01*
X22061906Y8814400D02*
X22004763Y8642972D01*
X22004763Y8642972D02*
X21319049Y7957258D01*
X21319049Y7957258D02*
X22061906Y7957258D01*
X22804763Y9157258D02*
X22919049Y9157258D01*
X22919049Y9157258D02*
X23033335Y9100115D01*
X23033335Y9100115D02*
X23090478Y9042972D01*
X23090478Y9042972D02*
X23147620Y8928686D01*
X23147620Y8928686D02*
X23204763Y8700115D01*
X23204763Y8700115D02*
X23204763Y8414400D01*
X23204763Y8414400D02*
X23147620Y8185829D01*
X23147620Y8185829D02*
X23090478Y8071543D01*
X23090478Y8071543D02*
X23033335Y8014400D01*
X23033335Y8014400D02*
X22919049Y7957258D01*
X22919049Y7957258D02*
X22804763Y7957258D01*
X22804763Y7957258D02*
X22690478Y8014400D01*
X22690478Y8014400D02*
X22633335Y8071543D01*
X22633335Y8071543D02*
X22576192Y8185829D01*
X22576192Y8185829D02*
X22519049Y8414400D01*
X22519049Y8414400D02*
X22519049Y8700115D01*
X22519049Y8700115D02*
X22576192Y8928686D01*
X22576192Y8928686D02*
X22633335Y9042972D01*
X22633335Y9042972D02*
X22690478Y9100115D01*
X22690478Y9100115D02*
X22804763Y9157258D01*
X23661906Y9042972D02*
X23719049Y9100115D01*
X23719049Y9100115D02*
X23833335Y9157258D01*
X23833335Y9157258D02*
X24119049Y9157258D01*
X24119049Y9157258D02*
X24233335Y9100115D01*
X24233335Y9100115D02*
X24290477Y9042972D01*
X24290477Y9042972D02*
X24347620Y8928686D01*
X24347620Y8928686D02*
X24347620Y8814400D01*
X24347620Y8814400D02*
X24290477Y8642972D01*
X24290477Y8642972D02*
X23604763Y7957258D01*
X23604763Y7957258D02*
X24347620Y7957258D01*
X25376192Y8757258D02*
X25376192Y7957258D01*
X25090477Y9214400D02*
X24804763Y8357258D01*
X24804763Y8357258D02*
X25547620Y8357258D01*
X14231578Y18357258D02*
X14231578Y17557258D01*
X13945863Y18814400D02*
X13660149Y17957258D01*
X13660149Y17957258D02*
X14403006Y17957258D01*
X14288720Y16257258D02*
X13717292Y16257258D01*
X13717292Y16257258D02*
X13660149Y15685829D01*
X13660149Y15685829D02*
X13717292Y15742972D01*
X13717292Y15742972D02*
X13831578Y15800115D01*
X13831578Y15800115D02*
X14117292Y15800115D01*
X14117292Y15800115D02*
X14231578Y15742972D01*
X14231578Y15742972D02*
X14288720Y15685829D01*
X14288720Y15685829D02*
X14345863Y15571543D01*
X14345863Y15571543D02*
X14345863Y15285829D01*
X14345863Y15285829D02*
X14288720Y15171543D01*
X14288720Y15171543D02*
X14231578Y15114400D01*
X14231578Y15114400D02*
X14117292Y15057258D01*
X14117292Y15057258D02*
X13831578Y15057258D01*
X13831578Y15057258D02*
X13717292Y15114400D01*
X13717292Y15114400D02*
X13660149Y15171543D01*
X24445863Y28957258D02*
X24845863Y27757258D01*
X24845863Y27757258D02*
X25245863Y28957258D01*
X26331577Y27871543D02*
X26274434Y27814400D01*
X26274434Y27814400D02*
X26103006Y27757258D01*
X26103006Y27757258D02*
X25988720Y27757258D01*
X25988720Y27757258D02*
X25817291Y27814400D01*
X25817291Y27814400D02*
X25703006Y27928686D01*
X25703006Y27928686D02*
X25645863Y28042972D01*
X25645863Y28042972D02*
X25588720Y28271543D01*
X25588720Y28271543D02*
X25588720Y28442972D01*
X25588720Y28442972D02*
X25645863Y28671543D01*
X25645863Y28671543D02*
X25703006Y28785829D01*
X25703006Y28785829D02*
X25817291Y28900115D01*
X25817291Y28900115D02*
X25988720Y28957258D01*
X25988720Y28957258D02*
X26103006Y28957258D01*
X26103006Y28957258D02*
X26274434Y28900115D01*
X26274434Y28900115D02*
X26331577Y28842972D01*
X27531577Y27871543D02*
X27474434Y27814400D01*
X27474434Y27814400D02*
X27303006Y27757258D01*
X27303006Y27757258D02*
X27188720Y27757258D01*
X27188720Y27757258D02*
X27017291Y27814400D01*
X27017291Y27814400D02*
X26903006Y27928686D01*
X26903006Y27928686D02*
X26845863Y28042972D01*
X26845863Y28042972D02*
X26788720Y28271543D01*
X26788720Y28271543D02*
X26788720Y28442972D01*
X26788720Y28442972D02*
X26845863Y28671543D01*
X26845863Y28671543D02*
X26903006Y28785829D01*
X26903006Y28785829D02*
X27017291Y28900115D01*
X27017291Y28900115D02*
X27188720Y28957258D01*
X27188720Y28957258D02*
X27303006Y28957258D01*
X27303006Y28957258D02*
X27474434Y28900115D01*
X27474434Y28900115D02*
X27531577Y28842972D01*
D12*
X19490476Y17545181D02*
X20157142Y16545181D01*
X20157142Y17545181D02*
X19490476Y16545181D01*
X21061904Y16545181D02*
X20490476Y16545181D01*
X20776190Y16545181D02*
X20776190Y17545181D01*
X20776190Y17545181D02*
X20680952Y17402324D01*
X20680952Y17402324D02*
X20585714Y17307086D01*
X20585714Y17307086D02*
X20490476Y17259467D01*
D13*
%TO.C,X1*%
X15205000Y24386000D02*
X25365000Y24386000D01*
X15205000Y9654000D02*
X15205000Y24386000D01*
X18507000Y22227000D02*
X18507000Y21592000D01*
X18507000Y21592000D02*
X19167000Y21592000D01*
X19167000Y22100000D02*
X19167000Y21084000D01*
X19167000Y21084000D02*
X21072000Y21084000D01*
X20691000Y22100000D02*
X20056000Y21084000D01*
X21072000Y22100000D02*
X19167000Y22100000D01*
X21072000Y22100000D02*
X21072000Y21084000D01*
X21707000Y22227000D02*
X21707000Y21592000D01*
X21707000Y21592000D02*
X21072000Y21592000D01*
X25365000Y24386000D02*
X25365000Y9654000D01*
X25365000Y9654000D02*
X15205000Y9654000D01*
D12*
%TO.C,J4*%
X12840000Y14390000D02*
X7760000Y14390000D01*
X12840000Y29630000D02*
X12840000Y14390000D01*
X7760000Y14390000D02*
X7760000Y29630000D01*
X7760000Y29630000D02*
X12840000Y29630000D01*
%TO.C,J5*%
X14870001Y39260000D02*
X14870001Y44340000D01*
X25030001Y39260000D02*
X14870001Y39260000D01*
X14870001Y44340000D02*
X25030001Y44340000D01*
X25030001Y44340000D02*
X25030001Y39260000D01*
%TO.C,J2*%
X27890000Y35510000D02*
X32970000Y35510000D01*
X27890000Y30430000D02*
X27890000Y35510000D01*
X32970000Y35510000D02*
X32970000Y30430000D01*
X32970000Y30430000D02*
X27890000Y30430000D01*
%TO.C,J3*%
X28060000Y29630000D02*
X33140000Y29630000D01*
X28060000Y14390000D02*
X28060000Y29630000D01*
X33140000Y29630000D02*
X33140000Y14390000D01*
X33140000Y14390000D02*
X28060000Y14390000D01*
%TO.C,J1*%
X12810000Y30530000D02*
X7730000Y30530000D01*
X12810000Y35610000D02*
X12810000Y30530000D01*
X7730000Y30530000D02*
X7730000Y35610000D01*
X7730000Y35610000D02*
X12810000Y35610000D01*
%TD*%
D14*
%TO.C,J4*%
X11570000Y15660000D03*
X9030000Y15660000D03*
X11570000Y18200000D03*
X9030000Y18200000D03*
X11570000Y20740000D03*
X9030000Y20740000D03*
X11570000Y23280000D03*
X9030000Y23280000D03*
X11570000Y25820000D03*
X9030000Y25820000D03*
X11570000Y28360000D03*
X9030000Y28360000D03*
%TD*%
%TO.C,J5*%
X16140001Y40530000D03*
X16140001Y43070000D03*
X18680001Y40530000D03*
X18680001Y43070000D03*
X21220001Y40530000D03*
X21220001Y43070000D03*
X23760001Y40530000D03*
X23760001Y43070000D03*
%TD*%
%TO.C,J2*%
X29160000Y34240000D03*
X31700000Y34240000D03*
X29160000Y31700000D03*
X31700000Y31700000D03*
%TD*%
%TO.C,J3*%
X29330000Y28360000D03*
X31870000Y28360000D03*
X29330000Y25820000D03*
X31870000Y25820000D03*
X29330000Y23280000D03*
X31870000Y23280000D03*
X29330000Y20740000D03*
X31870000Y20740000D03*
X29330000Y18200000D03*
X31870000Y18200000D03*
X29330000Y15660000D03*
X31870000Y15660000D03*
%TD*%
%TO.C,J1*%
X11540000Y31800000D03*
X9000000Y31800000D03*
X11540000Y34340000D03*
X9000000Y34340000D03*
%TD*%
M02*
